<svg width="1400" height="800" xmlns="http://www.w3.org/2000/svg" xml:space="preserve" version="1.1">
 <defs>
  <linearGradient y2="0.513" x2="0.99921" y1="0.513" x1="0" id="SVGID_1_">
   <stop stop-color="#ED8B00" offset="0"/>
   <stop stop-color="#FBB040" offset="0.492"/>
   <stop stop-color="#ED8B00" offset="1"/>
  </linearGradient>
 </defs>
 <g>
  <title>Layer 1</title>
  <path transform="rotate(-32.6739 514.906 359.228)" stroke="#003f7f" id="svg_368" d="m559.29365,351.88669c-5.20344,-11.51267 -11.56948,-20.83338 -17.95507,-27.35357c-7.45098,6.68324 -16.52587,10.75284 -26.41927,10.75284c-9.91282,0 -19.00077,-4.07753 -26.43861,-10.75284c-6.38557,6.5202 -12.75812,15.8409 -17.97433,27.35357c-12.10865,26.72912 -13.4403,54.14637 -2.98182,61.2553c4.68375,3.20235 9.59459,0.8155 14.66805,-5.17166c-0.88995,6.0706 -1.40967,12.65035 -1.40967,19.53259c0,30.576 9.69861,55.34384 21.65109,55.34384c7.20416,0 10.77044,-9.01853 12.4853,-22.82657c1.70853,13.80805 5.27478,22.82657 12.45283,22.82657c11.97212,0 21.67082,-24.76783 21.67082,-55.34384c0,-6.88224 -0.51989,-13.46198 -1.42918,-19.53259c5.08633,5.98716 9.99071,8.374 14.68746,5.17166c10.45204,-7.10893 9.10072,-34.52619 -3.00759,-61.2553l-0.00001,0zm-44.38712,-27.03137c20.11146,0 36.4229,-19.97811 36.4229,-44.62261s-16.31144,-44.62267 -36.4229,-44.62267c-20.1183,0 -36.44262,19.98209 -36.44262,44.62267s16.32432,44.62261 36.44262,44.62261z" stroke-width="1.5" fill="#cccccc"/>
  <g stroke="null" id="svg_2">
   <rect stroke="null" id="svg_3" fill="#3692F2" height="164.7" width="109" class="st0" transform="matrix(-1.24361 -3.77899e-11 2.67988e-11 -1.75366 1468.05 417.6)" y="-147.39085" x="446.41786"/>
   <rect stroke="null" id="svg_4" fill="#005EB8" height="164.7" width="47.3" class="st1" transform="matrix(-1.24361 -6.00474e-11 4.25828e-11 -1.75366 1273.67 417.6)" y="-147.39085" x="399.01786"/>
  </g>
  <path stroke="null" id="svg_5" fill="#005EB8" d="m545.24319,354.46732c11.44126,9.64514 24.99666,57.52011 31.46346,64.53476c6.4668,7.01465 30.59293,29.63689 30.59293,29.63689l-37.43281,10.3466l-15.04774,-28.23396l-12.9336,-58.74767l3.35776,-17.53662z" class="st1"/>
  <path stroke="null" id="svg_6" fill="#2D2D2D" d="m555.68956,387.61153c5.47191,15.25686 13.05796,36.3008 18.90295,44.01691c5.84499,7.71611 14.05285,14.38003 14.05285,14.38003l-18.4055,4.03342l-10.07328,-28.76005l-6.71552,-23.8498l2.23851,-9.82051z" class="st2"/>
  <polygon stroke="null" id="svg_9" fill="#005EB8" points="506.56680369377136,559.2950439453125 402.97363352775574,402.6930236816406 414.041809797287,385.1564025878906 513.2822577953339,537.7249755859375 " class="st1"/>
  <rect stroke="null" id="svg_10" fill="#2D2D2D" height="80.84381" width="3.35776" class="st2" y="584.89848" x="791.97641"/>
  <circle stroke="null" id="svg_11" fill="#005EB8" r="5.81375" cy="668.19742" cx="793.09566" class="st1"/>
  <rect stroke="null" id="svg_12" fill="#2D2D2D" height="80.84381" width="3.35776" class="st2" y="584.89848" x="556.43573"/>
  <circle stroke="null" id="svg_13" fill="#005EB8" r="5.81375" cy="668.19742" cx="558.17679" class="st1"/>
  <rect stroke="null" id="svg_14" fill="#2D2D2D" height="80.84381" width="3.35776" class="st2" y="584.89848" x="431.32806"/>
  <circle stroke="null" id="svg_15" fill="#005EB8" r="5.81375" cy="668.19742" cx="432.44731" class="st1"/>
  <rect stroke="null" id="svg_18" fill="#1189F4" height="23.49907" width="262.02968" class="st7" y="564.45716" x="402.15196"/>
  <path transform="rotate(-6.54308 518.816 440.747)" stroke="null" id="svg_20" fill="#2D2D2D" d="m488.16126,412.33816c3.35776,12.62637 15.79391,38.22983 19.89784,38.93129c3.97957,0.5261 21.14145,-14.73076 27.73261,-19.46565s13.67976,-8.41758 13.67976,-8.41758s-13.67976,9.82051 -18.77859,15.43222c-4.60138,4.91025 -16.54008,25.77883 -19.15167,30.33835c-8.95403,-12.62637 -18.28114,-33.49494 -23.37996,-56.81864z" class="st2"/>
  <path stroke="null" id="svg_21" fill="#48A4D8" d="m679.80233,459.3363c-19.02731,-0.17537 -47.50609,-3.15659 -62.80256,-7.71611s-34.32377,-10.8727 -44.02397,-15.43222c-9.7002,-4.55952 -47.50609,-6.13782 -59.81788,23.14834s-13.18232,72.95233 -12.68487,87.85846c0.49745,14.90613 -7.08861,39.80812 -0.12436,42.43862c7.08861,2.63049 24.74794,-2.63049 30.21984,0c5.34754,2.63049 14.42593,2.98123 28.97623,3.50732c14.42593,0.5261 20.64401,8.24221 29.97112,5.78708c9.32711,-2.27976 14.30157,-7.54075 24.12613,-3.50732s17.16189,4.38415 27.73261,0.35073c10.57073,-4.03342 20.39529,0.5261 27.11081,0.87683c6.71552,0.35073 7.08861,-23.3237 7.08861,-31.39055c0,-8.24221 0,-74.00453 0,-84.17577c0,-11.3988 4.22829,-21.74541 4.22829,-21.74541z" class="st5"/>
  <path stroke="null" id="svg_26" fill="#FCC0B4" d="m552.9536,401.64082c3.48212,-3.33196 9.7002,-4.73489 12.18743,-5.61172s3.73084,0.17537 3.48212,1.40293c-0.24872,1.22756 -1.11925,3.50732 -2.73595,4.20879c0,0 4.72574,-0.5261 7.21297,-1.0522c2.48723,-0.5261 4.97446,-0.35073 5.84499,0s2.23851,2.98123 2.61159,5.78708c0.37308,2.80586 -2.86031,10.69734 -4.8501,12.80173c-1.98978,2.10439 -14.92338,2.10439 -16.41572,2.27976c-1.49234,0.17537 -7.21297,-1.40293 -8.0835,-1.40293c0,0 -2.11415,-3.33196 -2.11415,-9.46977c-0.12436,-6.31318 2.86031,-8.94368 2.86031,-8.94368z" class="st8"/>
  <path stroke="null" id="svg_27" fill="#2D2D2D" d="m541.88543,404.79741c-5.22318,0.35073 -24.49922,12.10027 -26.73772,11.74953s-3.97957,-14.90613 -9.32711,-24.55127c0,0 4.10393,14.38003 4.60138,17.88735c0.37308,3.50732 1.98978,5.08562 1.24361,6.48855c-0.74617,1.40293 -3.48212,4.55952 -2.61159,5.96245c0.87053,1.40293 3.85521,-3.85806 4.60138,-3.50732c0.74617,0.35073 0.62181,3.33196 1.49234,3.68269c0.87053,0.5261 1.98978,-3.50732 4.60138,-5.08562c2.48723,-1.22756 22.13635,-12.62637 22.13635,-12.62637z" class="st2"/>
  <g stroke="null" id="svg_28">
   <rect stroke="null" id="svg_29" fill="#3692F2" height="147.2" width="79.7" class="st0" transform="matrix(-1.24361 -7.87094e-11 5.58170e-11 -1.75366 522.935 448.18)" y="-129.99085" x="81.01786"/>
   <rect stroke="null" id="svg_30" fill="#005EB8" height="147.2" width="47.3" class="st1" transform="matrix(-1.24361 -7.88504e-11 5.59170e-11 -1.75366 364.934 448.18)" y="-129.99085" x="33.71786"/>
   <g stroke="null" id="svg_31">
    <path stroke="null" id="svg_32" fill="#2D2D2D" d="m404.09289,473.71632l-62.92692,0c-0.49745,0 -0.87053,-0.5261 -0.87053,-1.22756s0.37308,-1.22756 0.87053,-1.22756l62.92692,0c0.49745,0 0.87053,0.5261 0.87053,1.22756s-0.49745,1.22756 -0.87053,1.22756z" class="st2"/>
    <path stroke="null" id="svg_33" fill="#2D2D2D" d="m404.09289,548.24695l-62.92692,0c-0.49745,0 -0.87053,-0.5261 -0.87053,-1.22756s0.37308,-1.22756 0.87053,-1.22756l62.92692,0c0.49745,0 0.87053,0.5261 0.87053,1.22756s-0.49745,1.22756 -0.87053,1.22756z" class="st2"/>
    <path stroke="null" id="svg_34" fill="#2D2D2D" d="m404.09289,622.77758l-62.92692,0c-0.49745,0 -0.87053,-0.5261 -0.87053,-1.22756s0.37308,-1.22756 0.87053,-1.22756l62.92692,0c0.49745,0 0.87053,0.5261 0.87053,1.22756s-0.49745,1.22756 -0.87053,1.22756z" class="st2"/>
   </g>
  </g>
  <g stroke="null" id="svg_133">
   <g stroke="null" id="svg_134">
    <g stroke="null" id="svg_135">
     <circle stroke="null" id="svg_136" fill="#FBB040" r="6.70815" cy="373.7576" cx="544.87011" class="st10"/>
    </g>
    <g stroke="null" id="svg_137">
     <g stroke="null" id="svg_138">
      <g stroke="null" id="svg_139">
       <path stroke="null" id="svg_140" fill="#FFFFFF" d="m548.22787,370.07491l0,7.36538c0,0.35073 -0.12436,0.70146 -0.37308,0.87683c0,0 -0.12436,0 -0.12436,0.17537c-0.12436,0 -0.12436,0 -0.24872,0l-5.22318,0c-0.37308,0 -0.74617,-0.5261 -0.74617,-1.0522l0,-7.36538c0,-0.5261 0.37308,-1.0522 0.74617,-1.0522l5.22318,0c0.37308,0 0.74617,0.5261 0.74617,1.0522z" class="st9"/>
      </g>
     </g>
     <g stroke="null" id="svg_141">
      <g stroke="null" id="svg_142">
       <g stroke="null" id="svg_143">
        <path stroke="#FBB040" id="svg_144" stroke-miterlimit="10" stroke-width="0.2" fill="#FBB040" d="m544.87011,372.35467l0,1.92903c0,0 0,0.17537 -0.12436,0.17537l0,0c0,0 -0.12436,0 -0.12436,-0.17537l0,-1.75366l-1.36798,0c0,0 -0.12436,0 -0.12436,-0.17537l0,-3.33196l0.12436,0l0,3.15659l1.6167,0.17537c0,-0.17537 0,0 0,0z" class="st11"/>
       </g>
      </g>
      <g stroke="null" id="svg_145">
       <g stroke="null" id="svg_146">
        <path stroke="#FBB040" id="svg_147" stroke-miterlimit="10" stroke-width="0.2" fill="#FBB040" d="m545.11883,374.45906c-0.12436,-0.17537 -0.12436,-0.17537 -0.24872,-0.17537c0,0 -0.12436,0 -0.12436,0c0,0 0,0 0,0c-0.12436,0 -0.24872,0.17537 -0.24872,0.17537c-0.12436,0.17537 -0.12436,0.35073 -0.12436,0.5261c0,0.17537 0,0.35073 0.12436,0.5261c0.12436,0.17537 0.24872,0.17537 0.37308,0.17537c0,0 0,0 0,0c0.12436,0 0.24872,0 0.37308,-0.17537c0.12436,-0.17537 0.12436,-0.35073 0.12436,-0.5261c0,-0.35073 -0.12436,-0.5261 -0.24872,-0.5261zm0,0.70146c0,0.17537 -0.12436,0.17537 -0.24872,0.17537c-0.12436,0 -0.12436,0 -0.24872,-0.17537c-0.12436,0 -0.12436,-0.17537 -0.12436,-0.35073c0,-0.17537 0,-0.17537 0.12436,-0.35073c0,-0.17537 0.12436,-0.17537 0.24872,-0.17537l0,0c0.12436,0 0.12436,0 0.24872,0.17537c0.12436,0 0.12436,0.17537 0.12436,0.35073c-0.12436,0.17537 -0.12436,0.35073 -0.12436,0.35073z" class="st11"/>
       </g>
      </g>
      <g stroke="null" id="svg_148">
       <g stroke="null" id="svg_149">
        <path stroke="#FBB040" id="svg_150" stroke-miterlimit="10" stroke-width="0.2" fill="#FBB040" d="m544.99447,370.60101c0,0 0,0 0,0c0,-0.35073 -0.24872,-0.70146 -0.49745,-0.70146c-0.24872,0 -0.49745,0.35073 -0.49745,0.70146c0,0.35073 0.24872,0.70146 0.49745,0.70146c0,0 0,0 0,0c0.24872,0 0.49745,-0.17537 0.49745,-0.70146c0,0.17537 0,0.17537 0,0c0,0 0,0 0,0zm-0.37308,0.5261c-0.12436,0 -0.37308,-0.17537 -0.37308,-0.35073c0,-0.17537 0.12436,-0.5261 0.24872,-0.5261l0,0c0.12436,0 0.12436,0 0.24872,0.17537c0,0 0.12436,0.17537 0.12436,0.35073c0,0 0,0 0,0l0,0c0,0 0,0 0,0c0,0.17537 -0.12436,0.35073 -0.24872,0.35073z" class="st11"/>
       </g>
      </g>
      <g stroke="null" id="svg_151">
       <g stroke="null" id="svg_152">
        <path stroke="#FBB040" id="svg_153" stroke-miterlimit="10" stroke-width="0.2" fill="#FBB040" d="m546.73553,371.82857c-0.12436,-0.17537 -0.24872,-0.17537 -0.37308,-0.17537c-0.12436,0 -0.24872,0 -0.37308,0.17537s-0.12436,0.35073 -0.12436,0.5261c0,0.17537 0,0.35073 0.12436,0.5261c0.12436,0.17537 0.12436,0.17537 0.24872,0.17537c0,0 0,0 0.12436,0c0,0 0,0 0,0c0,0 0,0 0,0c0.12436,0 0.24872,-0.17537 0.24872,-0.17537c0.12436,-0.17537 0.12436,-0.35073 0.12436,-0.5261c0.12436,-0.35073 0.12436,-0.5261 0,-0.5261zm0,0.70146c0,0.17537 -0.12436,0.17537 -0.24872,0.17537c0,0 0,0 0,0c0,0 0,0 0,0c-0.12436,0 -0.12436,0 -0.24872,-0.17537c-0.12436,0 -0.12436,-0.17537 -0.12436,-0.35073c0,-0.17537 0,-0.17537 0.12436,-0.35073c0,-0.17537 0.12436,-0.17537 0.24872,-0.17537l0,0c0.12436,0 0.12436,0 0.24872,0.17537c0.12436,0 0.12436,0.17537 0.12436,0.35073c-0.12436,0.17537 -0.12436,0.35073 -0.12436,0.35073z" class="st11"/>
       </g>
      </g>
      <g stroke="null" id="svg_154">
       <g stroke="null" id="svg_155">
        <path stroke="#FBB040" id="svg_156" stroke-miterlimit="10" stroke-width="0.2" fill="#FBB040" d="m546.23808,376.38809c-0.12436,-0.17537 -0.24872,-0.17537 -0.37308,-0.17537c-0.12436,0 -0.24872,0 -0.37308,0.17537c-0.12436,0.17537 -0.12436,0.17537 -0.12436,0.35073c0,0 0,0.17537 0,0.17537c0,0 0,0 0,0c0,0.17537 0.12436,0.35073 0.12436,0.35073c0.12436,0.17537 0.24872,0.17537 0.37308,0.17537c0,0 0,0 0,0c0.12436,0 0.24872,0 0.37308,-0.17537c0.12436,-0.17537 0.12436,-0.35073 0.12436,-0.5261c0.12436,0 0,-0.17537 -0.12436,-0.35073zm0,0.87683c0,0.17537 -0.12436,0.17537 -0.24872,0.17537c-0.12436,0 -0.12436,0 -0.24872,-0.17537c-0.12436,0 -0.12436,-0.17537 -0.12436,-0.35073c0,0 0,0 0,0c0,0 0,0 0,0c0,-0.17537 0,-0.17537 0.12436,-0.35073c0,-0.17537 0.12436,-0.17537 0.24872,-0.17537l0,0c0.12436,0 0.12436,0 0.24872,0.17537c0.12436,0 0.12436,0.17537 0.12436,0.35073c-0.12436,0.17537 -0.12436,0.17537 -0.12436,0.35073z" class="st11"/>
       </g>
      </g>
      <g stroke="null" id="svg_157">
       <g stroke="null" id="svg_158">
        <path stroke="#FBB040" id="svg_159" stroke-miterlimit="10" stroke-width="0.2" fill="#FBB040" d="m548.22787,370.60101l0,0.17537l-3.2334,0c0,0 -0.12436,0 -0.12436,-0.17537c0,0 0,0 0,0c0,0 0,0 0,0c0,0 0,0 0,0c0,0 0,0 0,0c0,0 0,-0.17537 0.12436,-0.17537l3.2334,0l0,0.17537z" class="st11"/>
       </g>
      </g>
      <g stroke="null" id="svg_160">
       <g stroke="null" id="svg_161">
        <path stroke="#FBB040" id="svg_162" stroke-miterlimit="10" stroke-width="0.2" fill="#FBB040" d="m547.85478,375.68663l0,2.80586c0,0 -0.12436,0 -0.12436,0.17537c0,0 0,0 0,0l0,-2.98123l-1.24361,0c0,0 -0.12436,0 -0.12436,-0.17537l0,-2.80586c0,0 0,-0.17537 0.12436,-0.17537c0,0 0,0 0,0c0,0 0.12436,0 0.12436,0.17537l0,2.63049l1.24361,0.35073c0,-0.17537 0,-0.17537 0,0z" class="st11"/>
       </g>
      </g>
      <g stroke="null" id="svg_163">
       <g stroke="null" id="svg_164">
        <path stroke="#FBB040" id="svg_165" stroke-miterlimit="10" stroke-width="0.2" fill="#FBB040" d="m542.50724,369.02271l0,4.38415c0,0 0,0.17537 -0.12436,0.17537l-0.87053,0l0,-0.17537l0.87053,0l0,-4.38415l0.12436,0z" class="st11"/>
       </g>
      </g>
      <g stroke="null" id="svg_166">
       <g stroke="null" id="svg_167">
        <path stroke="#FBB040" id="svg_168" stroke-miterlimit="10" stroke-width="0.2" fill="#FBB040" d="m545.61628,376.91419c0,0 0,0 0,0c0,0.17537 0,0.17537 0,0l-2.73595,0.17537c0,0 -0.12436,0 -0.12436,-0.17537l0,-1.75366l-1.24361,0l0,-0.17537l1.36798,0c0,0 0.12436,0 0.12436,0.17537l0,1.75366l2.61159,0c0,0 0,0 0,0z" class="st11"/>
       </g>
      </g>
     </g>
    </g>
    <g stroke="null" id="svg_169">
     <path stroke="null" id="svg_170" fill="#ED8B00" d="m544.87011,364.46319c-3.60648,0 -6.59116,4.20879 -6.59116,9.29441c0,5.08562 2.98468,9.29441 6.59116,9.29441c3.60648,0 6.59116,-4.20879 6.59116,-9.29441c0,-5.08562 -2.86031,-9.29441 -6.59116,-9.29441zm0,17.53662c-3.2334,0 -5.72063,-3.68269 -5.72063,-8.06684c0,-4.55952 2.61159,-8.06684 5.72063,-8.06684c3.2334,0 5.72063,3.68269 5.72063,8.06684c0.12436,4.38415 -2.48723,8.06684 -5.72063,8.06684z" class="st12"/>
    </g>
   </g>
   <g stroke="null" id="svg_171">
    <g stroke="null" id="svg_172">
     <path stroke="null" id="svg_173" fill="#FBB040" d="m525.46971,401.46546c-0.49745,0 -0.99489,-0.35073 -1.36798,-0.87683c-10.44637,-14.90613 -10.44637,-38.93129 0,-53.83742c0.74617,-1.0522 1.98978,-1.0522 2.61159,0c0.74617,1.0522 0.74617,2.80586 0,3.68269c-8.95403,12.80173 -8.95403,33.49494 0,46.29667c0.74617,1.0522 0.74617,2.80586 0,3.68269c-0.24872,0.87683 -0.74617,1.0522 -1.24361,1.0522z" class="st10"/>
     <path stroke="null" id="svg_174" fill="#FBB040" d="m564.2705,401.46546c-0.49745,0 -0.99489,-0.35073 -1.36798,-0.87683c-0.74617,-1.0522 -0.74617,-2.80586 0,-3.68269c8.95403,-12.80173 8.95403,-33.49494 0,-46.29667c-0.74617,-1.0522 -0.74617,-2.80586 0,-3.68269c0.74617,-1.0522 1.98978,-1.0522 2.61159,0c10.44637,14.90613 10.44637,38.93129 0,53.83742c-0.24872,0.5261 -0.74617,0.70146 -1.24361,0.70146z" class="st10"/>
     <path stroke="null" id="svg_175" fill="#FBB040" d="m533.55321,390.24202c-0.49745,0 -0.99489,-0.35073 -1.36798,-0.87683c-6.09371,-8.59294 -6.09371,-22.62224 0,-31.21518c0.74617,-1.0522 1.98978,-1.0522 2.61159,0c0.74617,1.0522 0.74617,2.80586 0,3.68269c-4.60138,6.48855 -4.60138,17.18589 0,23.8498c0.74617,1.0522 0.74617,2.80586 0,3.68269c-0.24872,0.5261 -0.74617,0.87683 -1.24361,0.87683z" class="st10"/>
     <path stroke="null" id="svg_176" fill="#FBB040" d="m556.187,390.24202c-0.49745,0 -0.99489,-0.35073 -1.36798,-0.87683c-0.74617,-1.0522 -0.74617,-2.80586 0,-3.68269c4.60138,-6.48855 4.60138,-17.18589 0,-23.8498c-0.74617,-1.0522 -0.74617,-2.80586 0,-3.68269c0.74617,-1.0522 1.98978,-1.0522 2.61159,0c6.09371,8.59294 6.09371,22.62224 0,31.21518c-0.24872,0.5261 -0.62181,0.87683 -1.24361,0.87683z" class="st10"/>
    </g>
   </g>
  </g>
  <g stroke="null" id="surface1">
   <path stroke="null" id="svg_177" fill="#ED8B00" d="m868.08564,337.4568l0,48.7518c0,0.5261 0.37308,1.0522 0.74617,1.0522l19.02731,0c0.37308,0 0.74617,-0.5261 0.74617,-1.0522l0,-1.0522l0,-45.59521l0,-2.10439l-20.51965,0z" class="st12"/>
   <path stroke="null" id="svg_178" fill="#C9E8FF" d="m888.23221,323.07677l-12.43615,0l-7.33733,0c-0.37308,0 -0.74617,0.5261 -0.74617,1.0522l0,4.20879l21.26582,0l0,-3.15659l0,-1.0522c0,-0.70146 -0.24872,-1.0522 -0.74617,-1.0522z" class="st4"/>
   <path stroke="null" id="svg_179" fill="#005EB8" d="m889.35146,327.28556l-13.18232,0l0,-0.17537l-8.82967,0c-0.37308,0 -0.74617,0.5261 -0.74617,1.0522l0,4.20879l0.74617,0l0,0.87683l22.75815,0l0,-4.91025c0,-0.5261 -0.24872,-1.0522 -0.74617,-1.0522z" class="st1"/>
   <g stroke="null" id="svg_180">
    <rect stroke="null" id="svg_181" fill="#C9E8FF" height="6.13782" width="1.49234" class="st4" y="327.11019" x="877.66148"/>
    <rect stroke="null" id="svg_182" fill="#C9E8FF" height="6.13782" width="1.49234" class="st4" y="327.11019" x="874.6768"/>
    <rect stroke="null" id="svg_183" fill="#C9E8FF" height="6.13782" width="1.49234" class="st4" y="327.11019" x="871.81649"/>
    <rect stroke="null" id="svg_184" fill="#C9E8FF" height="6.13782" width="1.49234" class="st4" y="327.11019" x="868.83181"/>
    <rect stroke="null" id="svg_185" fill="#C9E8FF" height="6.13782" width="1.49234" class="st4" y="327.11019" x="886.49114"/>
    <rect stroke="null" id="svg_186" fill="#C9E8FF" height="6.13782" width="1.49234" class="st4" y="327.11019" x="883.50647"/>
    <rect stroke="null" id="svg_187" fill="#C9E8FF" height="6.13782" width="1.49234" class="st4" y="327.11019" x="880.52179"/>
   </g>
   <path stroke="null" id="svg_188" fill="#FFFFFF" d="m876.91531,377.96639l11.68998,0l0,-31.21518l-11.68998,0c-0.87053,0 -1.49234,0.87683 -1.49234,2.10439l0,26.83103c0,1.22756 0.62181,2.27976 1.49234,2.27976z" class="st9"/>
   <path stroke="null" id="svg_189" fill="#FBB040" d="m889.35146,337.4568l-22.01199,0c-0.37308,0 -0.74617,-0.5261 -0.74617,-1.0522l0,-3.15659l23.50432,0l0,3.15659c0,0.70146 -0.24872,1.0522 -0.74617,1.0522z" class="st10"/>
   <path stroke="null" id="svg_190" fill="#C9E8FF" d="m890.8438,332.37118l-14.67466,0l-10.322,0c-0.37308,0 -0.74617,0.5261 -0.74617,1.0522c0,0.5261 0.37308,1.0522 0.74617,1.0522l10.322,0l14.67466,0c0.37308,0 0.74617,-0.5261 0.74617,-1.0522c0,-0.70146 -0.37308,-1.0522 -0.74617,-1.0522z" class="st4"/>
  </g>
  <g stroke="null" id="svg_191">
   <path stroke="null" id="svg_192" fill="#005EB8" d="m871.94085,383.92884l0,-3.33196l0,-24.902c0,-1.75366 -0.99489,-3.33196 -2.36287,-3.33196l-34.32377,0c-1.24361,0 -2.36287,1.40293 -2.36287,3.33196l0,24.902l0,3.33196c0,1.75366 0.99489,3.33196 2.36287,3.33196l34.32377,0c1.36798,0 2.36287,-1.5783 2.36287,-3.33196z" class="st1"/>
   <path stroke="null" id="svg_193" fill="#2D2D2D" d="m859.75342,362.53416l0,14.38003c0,3.85806 2.23851,7.01465 4.97446,7.01465c2.73595,0 4.97446,-3.15659 4.97446,-7.01465l0,-14.38003c0,-3.85806 -2.23851,-7.01465 -4.97446,-7.01465c-2.73595,0.17537 -4.97446,3.15659 -4.97446,7.01465z" class="st2"/>
   <path stroke="null" id="svg_194" fill="#FBB040" d="m867.21511,376.91419l0,-3.33196l0,-3.85806l-2.61159,-4.20879l-2.61159,4.20879l0,3.85806l0,3.33196c0,1.92903 1.11925,3.68269 2.61159,3.68269c1.49234,0 2.61159,-1.5783 2.61159,-3.68269z" class="st10"/>
   <path stroke="null" id="svg_195" fill="#FFFFFF" d="m867.21511,369.72418l-5.09882,0l0,-7.19001c0,-1.92903 1.11925,-3.68269 2.61159,-3.68269c1.36798,0 2.61159,1.5783 2.61159,3.68269l0,7.19001l-0.12436,0z" class="st9"/>
   <path stroke="null" id="svg_196" fill="#2D2D2D" d="m847.44163,362.53416l0,14.38003c0,3.85806 2.23851,7.01465 4.97446,7.01465c2.73595,0 4.97446,-3.15659 4.97446,-7.01465l0,-14.38003c0,-3.85806 -2.23851,-7.01465 -4.97446,-7.01465c-2.73595,0.17537 -4.97446,3.15659 -4.97446,7.01465z" class="st2"/>
   <path stroke="null" id="svg_197" fill="#FBB040" d="m855.02769,376.91419l0,-3.33196l0,-3.85806l-2.61159,-4.20879l-2.61159,4.20879l0,3.85806l0,3.33196c0,1.92903 1.11925,3.68269 2.61159,3.68269c1.49234,0 2.61159,-1.5783 2.61159,-3.68269z" class="st10"/>
   <path stroke="null" id="svg_198" fill="#FFFFFF" d="m855.02769,369.72418l-5.09882,0l0,-7.19001c0,-1.92903 1.11925,-3.68269 2.61159,-3.68269c1.36798,0 2.61159,1.5783 2.61159,3.68269l0,7.19001l-0.12436,0z" class="st9"/>
   <path stroke="null" id="svg_199" fill="#2D2D2D" d="m835.25421,362.53416l0,14.38003c0,3.85806 2.23851,7.01465 4.97446,7.01465c2.73595,0 4.97446,-3.15659 4.97446,-7.01465l0,-14.38003c0,-3.85806 -2.23851,-7.01465 -4.97446,-7.01465c-2.73595,0.17537 -4.97446,3.15659 -4.97446,7.01465z" class="st2"/>
   <path stroke="null" id="svg_200" fill="#FBB040" d="m842.84026,376.91419l0,-3.33196l0,0l0,-3.85806l-2.61159,-4.20879l-2.61159,4.20879l0,3.85806c0,0 0,0 0,0l0,3.33196c0,1.92903 1.11925,3.68269 2.61159,3.68269c1.36798,0 2.61159,-1.5783 2.61159,-3.68269z" class="st10"/>
   <path stroke="null" id="svg_201" fill="#FFFFFF" d="m842.84026,369.72418l-5.09882,0l0,-7.19001c0,-1.92903 1.11925,-3.68269 2.61159,-3.68269c1.36798,0 2.61159,1.5783 2.61159,3.68269l0,7.19001l-0.12436,0z" class="st9"/>
  </g>
  <g stroke="null" id="svg_202">
   <rect stroke="null" id="svg_203" fill="#2D2D2D" height="25.77883" width="1.86542" class="st2" y="349.3817" x="877.78584"/>
   <rect stroke="null" id="svg_204" fill="#2D2D2D" height="25.77883" width="1.86542" class="st2" y="349.3817" x="884.377"/>
   <rect stroke="null" id="svg_205" fill="#2D2D2D" height="25.77883" width="0.74617" class="st2" y="349.3817" x="881.76541"/>
  </g>
  <g stroke="null" id="svg_206">
   <path stroke="null" id="svg_207" fill="#FBB040" d="m878.40765,282.04108c-3.97957,0 -7.33733,4.55952 -7.33733,10.3466c0,5.61172 3.2334,10.3466 7.33733,10.3466s7.33733,-4.55952 7.33733,-10.3466c-0.12436,-5.61172 -3.35776,-10.3466 -7.33733,-10.3466z" class="st10"/>
   <g stroke="null" id="svg_208">
    <path stroke="null" id="svg_209" fill="#FBB040" d="m859.00725,320.09555c-0.49745,0 -0.99489,-0.35073 -1.36798,-0.87683c-10.44637,-14.90613 -10.44637,-38.93129 0,-53.83742c0.74617,-1.0522 1.98978,-1.0522 2.61159,0c0.74617,1.0522 0.74617,2.80586 0,3.68269c-8.95403,12.80173 -8.95403,33.49494 0,46.29667c0.74617,1.0522 0.74617,2.80586 0,3.68269c-0.37308,0.70146 -0.74617,1.0522 -1.24361,1.0522z" class="st10"/>
    <path stroke="null" id="svg_210" fill="#FBB040" d="m897.80804,320.09555c-0.49745,0 -0.99489,-0.35073 -1.36798,-0.87683c-0.74617,-1.0522 -0.74617,-2.80586 0,-3.68269c8.95403,-12.80173 8.95403,-33.49494 0,-46.29667c-0.74617,-1.0522 -0.74617,-2.80586 0,-3.68269c0.74617,-1.0522 1.98978,-1.0522 2.61159,0c10.44637,14.90613 10.44637,38.93129 0,53.83742c-0.37308,0.35073 -0.74617,0.70146 -1.24361,0.70146z" class="st10"/>
    <path stroke="null" id="svg_211" fill="#FBB040" d="m867.09075,308.87211c-0.49745,0 -0.99489,-0.35073 -1.36798,-0.87683c-6.09371,-8.59294 -6.09371,-22.62224 0,-31.21518c0.74617,-1.0522 1.98978,-1.0522 2.61159,0c0.74617,1.0522 0.74617,2.80586 0,3.68269c-4.60138,6.48855 -4.60138,17.18589 0,23.8498c0.74617,1.0522 0.74617,2.80586 0,3.68269c-0.37308,0.5261 -0.74617,0.87683 -1.24361,0.87683z" class="st10"/>
    <path stroke="null" id="svg_212" fill="#FBB040" d="m889.72454,308.87211c-0.49745,0 -0.99489,-0.35073 -1.36798,-0.87683c-0.74617,-1.0522 -0.74617,-2.80586 0,-3.68269c4.60138,-6.48855 4.60138,-17.18589 0,-23.8498c-0.74617,-1.0522 -0.74617,-2.80586 0,-3.68269c0.74617,-1.0522 1.98978,-1.0522 2.61159,0c6.09371,8.59294 6.09371,22.62224 0,31.21518c-0.24872,0.5261 -0.74617,0.87683 -1.24361,0.87683z" class="st10"/>
   </g>
  </g>
  <g stroke="null" id="svg_213">
   <path stroke="null" id="svg_214" fill="#FBB040" d="m364.17285,295.71965c-3.97957,0 -7.33733,4.55952 -7.33733,10.3466s3.2334,10.3466 7.33733,10.3466c3.97957,0 7.33733,-4.55952 7.33733,-10.3466c0,-5.61172 -3.2334,-10.3466 -7.33733,-10.3466z" class="st10"/>
   <g stroke="null" id="svg_215">
    <path stroke="null" id="svg_216" fill="#FBB040" d="m344.89682,333.77411c-0.49745,0 -0.99489,-0.35073 -1.36798,-0.87683c-10.44637,-14.90613 -10.44637,-38.93129 0,-53.83742c0.74617,-1.0522 1.98978,-1.0522 2.61159,0c0.74617,1.0522 0.74617,2.80586 0,3.68269c-8.95403,12.80173 -8.95403,33.49494 0,46.29667c0.74617,1.0522 0.74617,2.80586 0,3.68269c-0.37308,0.70146 -0.74617,1.0522 -1.24361,1.0522z" class="st10"/>
    <path stroke="null" id="svg_217" fill="#FBB040" d="m383.57324,333.77411c-0.49745,0 -0.99489,-0.35073 -1.36798,-0.87683c-0.74617,-1.0522 -0.74617,-2.80586 0,-3.68269c8.95403,-12.80173 8.95403,-33.49494 0,-46.29667c-0.74617,-1.0522 -0.74617,-2.80586 0,-3.68269c0.74617,-1.0522 1.98978,-1.0522 2.61159,0c10.44637,14.90613 10.44637,38.93129 0,53.83742c-0.24872,0.35073 -0.62181,0.70146 -1.24361,0.70146z" class="st10"/>
    <path stroke="null" id="svg_218" fill="#FBB040" d="m352.85595,322.55067c-0.49745,0 -0.99489,-0.35073 -1.36798,-0.87683c-6.09371,-8.59294 -6.09371,-22.62224 0,-31.21518c0.74617,-1.0522 1.98978,-1.0522 2.61159,0c0.74617,1.0522 0.74617,2.80586 0,3.68269c-4.60138,6.48855 -4.60138,17.18589 0,23.8498c0.74617,1.0522 0.74617,2.80586 0,3.68269c-0.24872,0.5261 -0.74617,0.87683 -1.24361,0.87683z" class="st10"/>
    <path stroke="null" id="svg_219" fill="#FBB040" d="m375.61411,322.55067c-0.49745,0 -0.99489,-0.35073 -1.36798,-0.87683c-0.74617,-1.0522 -0.74617,-2.80586 0,-3.68269c4.60138,-6.48855 4.60138,-17.18589 0,-23.8498c-0.74617,-1.0522 -0.74617,-2.80586 0,-3.68269c0.74617,-1.0522 1.98978,-1.0522 2.61159,0c6.09371,8.59294 6.09371,22.62224 0,31.21518c-0.37308,0.5261 -0.74617,0.87683 -1.24361,0.87683z" class="st10"/>
   </g>
  </g>
  <g stroke="null" id="svg_220">
   <path stroke="null" id="svg_221" fill="#C9E8FF" d="m381.33474,374.98516l0,-4.73489l0,0c0,-1.40293 -0.49745,-2.63049 -1.36798,-3.15659l-4.22829,-3.15659c-0.87053,-0.70146 -1.36798,-1.92903 -1.36798,-3.15659l0,-12.9771l-20.27092,0l0,12.9771c0,1.40293 -0.49745,2.63049 -1.36798,3.15659l-4.22829,3.15659c-0.87053,0.70146 -1.36798,1.92903 -1.36798,3.15659l0,4.73489l0,0l0,31.56591l0,0l0,7.01465c0,1.92903 1.11925,3.68269 2.61159,3.68269l29.10059,0c1.36798,0 2.61159,-1.5783 2.61159,-3.68269l0,-7.01465l0,0l-0.12436,-31.56591l0,0z" class="st4"/>
   <path stroke="null" id="svg_222" fill="#005EB8" d="m376.11155,340.61339l0,8.94368c0,1.0522 -0.62181,1.75366 -1.24361,1.75366l-21.39018,0c-0.74617,0 -1.24361,-0.87683 -1.24361,-1.75366l0,-8.94368c0,-1.0522 0.62181,-1.75366 1.24361,-1.75366l21.39018,0c0.74617,0 1.24361,0.70146 1.24361,1.75366z" class="st1"/>
   <g stroke="null" id="svg_223">
    <path stroke="null" id="svg_224" fill="#2D2D2D" d="m355.46754,338.85973l1.6167,0l0,12.451l-1.6167,0l0,-12.451z" class="st2"/>
   </g>
   <g stroke="null" id="svg_225">
    <path stroke="null" id="svg_226" fill="#2D2D2D" d="m359.44711,338.85973l1.6167,0l0,12.451l-1.6167,0l0,-12.451z" class="st2"/>
   </g>
   <g stroke="null" id="svg_227">
    <path stroke="null" id="svg_228" fill="#2D2D2D" d="m363.42668,338.85973l1.6167,0l0,12.451l-1.6167,0l0,-12.451z" class="st2"/>
   </g>
   <g stroke="null" id="svg_229">
    <path stroke="null" id="svg_230" fill="#2D2D2D" d="m367.40625,338.85973l1.6167,0l0,12.451l-1.6167,0l0,-12.451z" class="st2"/>
   </g>
   <g stroke="null" id="svg_231">
    <path stroke="null" id="svg_232" fill="#2D2D2D" d="m371.38582,338.85973l1.6167,0l0,12.451l-1.6167,0l0,-12.451z" class="st2"/>
   </g>
   <rect stroke="null" id="svg_233" fill="url(#SVGID_1_)" height="6.48855" width="34.19941" class="st13" y="400.06253" x="347.13532"/>
  </g>
  <polyline transform="rotate(-0.208413 371.55 269.695)" stroke="#FBB040" id="svg_234" stroke-miterlimit="10" stroke-width="1.5" fill="none" points="542.9824800491333,326.6893539428711 542.9824800491333,212.70130920410156 200.11784076690674,212.70130920410156 " class="st14"/>
  <g stroke="null" id="svg_254">
   <path stroke="null" id="svg_255" fill="#FBB040" d="m749.81786,218.03243c-3.97957,0 -7.33733,4.55952 -7.33733,10.3466s3.2334,10.3466 7.33733,10.3466s7.33733,-4.55952 7.33733,-10.3466s-3.35776,-10.3466 -7.33733,-10.3466z" class="st10"/>
   <g stroke="null" id="svg_256">
    <path stroke="null" id="svg_257" fill="#FBB040" d="m730.41746,256.08689c-0.49745,0 -0.99489,-0.35073 -1.36798,-0.87683c-10.44637,-14.90613 -10.44637,-38.93129 0,-53.83742c0.74617,-1.0522 1.98978,-1.0522 2.61159,0c0.74617,1.0522 0.74617,2.80586 0,3.68269c-8.95403,12.80173 -8.95403,33.49494 0,46.29667c0.74617,1.0522 0.74617,2.80586 0,3.68269c-0.24872,0.70146 -0.74617,1.0522 -1.24361,1.0522z" class="st10"/>
    <path stroke="null" id="svg_258" fill="#FBB040" d="m769.21825,256.08689c-0.49745,0 -0.99489,-0.35073 -1.36798,-0.87683c-0.74617,-1.0522 -0.74617,-2.80586 0,-3.68269c8.95403,-12.80173 8.95403,-33.49494 0,-46.29667c-0.74617,-1.0522 -0.74617,-2.80586 0,-3.68269c0.74617,-1.0522 1.98978,-1.0522 2.61159,0c10.44637,14.90613 10.44637,38.93129 0,53.83742c-0.24872,0.35073 -0.74617,0.70146 -1.24361,0.70146z" class="st10"/>
    <path stroke="null" id="svg_259" fill="#FBB040" d="m738.50096,244.68809c-0.49745,0 -0.99489,-0.35073 -1.36798,-0.87683c-6.09371,-8.59294 -6.09371,-22.62224 0,-31.21518c0.74617,-1.0522 1.98978,-1.0522 2.61159,0c0.74617,1.0522 0.74617,2.80586 0,3.68269c-4.60138,6.48855 -4.60138,17.18589 0,23.8498c0.74617,1.0522 0.74617,2.80586 0,3.68269c-0.24872,0.70146 -0.74617,0.87683 -1.24361,0.87683z" class="st10"/>
    <path stroke="null" id="svg_260" fill="#FBB040" d="m761.13475,244.68809c-0.49745,0 -0.99489,-0.35073 -1.36798,-0.87683c-0.74617,-1.0522 -0.74617,-2.80586 0,-3.68269c4.60138,-6.48855 4.60138,-17.18589 0,-23.8498c-0.74617,-1.0522 -0.74617,-2.80586 0,-3.68269c0.74617,-1.0522 1.98978,-1.0522 2.61159,0c6.09371,8.59294 6.09371,22.62224 0,31.21518c-0.24872,0.70146 -0.62181,0.87683 -1.24361,0.87683z" class="st10"/>
   </g>
  </g>
  <line stroke="#FBB040" id="svg_261" stroke-miterlimit="10" stroke-width="1.5" fill="none" y2="228.37903" x2="1177.49705" y1="228.37903" x1="786.62886" class="st14"/>
  <path stroke="null" id="svg_262" fill="#4B6C7E" d="m686.89094,438.99382l118.01906,0c6.21807,0 11.3169,7.19001 11.3169,15.95832l0,129.94634l-140.65286,0l0,-129.94634c0,-8.94368 5.09882,-15.95832 11.3169,-15.95832z" class="st3"/>
  <g stroke="null" id="svg_263">
   <g stroke="null" id="svg_264">
    <rect stroke="null" id="svg_265" fill="#FFFFFF" height="28.23396" width="20.0222" class="st9" y="540.18011" x="703.05793"/>
    <g stroke="null" id="svg_266">
     <g stroke="null" id="svg_267">
      <g stroke="null" id="svg_268">
       <path stroke="null" id="svg_269" fill="#2D2D2D" d="m719.84674,546.84402l0,15.08149c0,0.70146 -0.24872,1.40293 -0.74617,1.75366c-0.12436,0 -0.24872,0.17537 -0.24872,0.17537c-0.12436,0 -0.24872,0 -0.37308,0l-10.69509,0c-0.74617,0 -1.36798,-0.87683 -1.36798,-1.92903l0,-15.08149c0,-1.0522 0.62181,-1.92903 1.36798,-1.92903l10.69509,0c0.74617,-0.17537 1.36798,0.70146 1.36798,1.92903z" class="st2"/>
      </g>
     </g>
     <g stroke="null" id="svg_270">
      <g stroke="null" id="svg_271">
       <g stroke="null" id="svg_272">
        <path stroke="#FBB040" id="svg_273" stroke-miterlimit="10" stroke-width="0.5" fill="#FBB040" d="m713.13122,551.40354l0,4.03342c0,0.17537 -0.12436,0.17537 -0.12436,0.17537l0,0c-0.12436,0 -0.12436,-0.17537 -0.12436,-0.17537l0,-3.68269l-2.61159,0c-0.12436,0 -0.12436,-0.17537 -0.12436,-0.17537l0,-6.66392l0.24872,0l0,6.48855l2.61159,0c0.12436,-0.17537 0.12436,0 0.12436,0z" class="st15"/>
       </g>
      </g>
      <g stroke="null" id="svg_274">
       <g stroke="null" id="svg_275">
        <path stroke="#FBB040" id="svg_276" stroke-miterlimit="10" stroke-width="0.5" fill="#FBB040" d="m713.62866,555.61233c-0.12436,-0.17537 -0.24872,-0.35073 -0.49745,-0.35073c-0.12436,0 -0.12436,0 -0.24872,0c0,0 -0.12436,0 -0.12436,0c-0.24872,0 -0.37308,0.17537 -0.49745,0.35073c-0.12436,0.35073 -0.24872,0.5261 -0.24872,1.0522c0,0.35073 0.12436,0.70146 0.37308,0.87683c0.12436,0.17537 0.37308,0.35073 0.62181,0.35073c0,0 0,0 0,0c0.24872,0 0.49745,-0.17537 0.62181,-0.5261c0.12436,-0.35073 0.24872,-0.5261 0.24872,-1.0522c0.12436,-0.17537 0,-0.5261 -0.24872,-0.70146zm-0.12436,1.5783c-0.12436,0.17537 -0.24872,0.35073 -0.49745,0.35073c-0.12436,0 -0.37308,0 -0.49745,-0.17537c-0.12436,-0.17537 -0.24872,-0.35073 -0.24872,-0.70146c0,-0.17537 0,-0.5261 0.12436,-0.70146s0.24872,-0.35073 0.49745,-0.35073l0,0c0.12436,0 0.37308,0 0.49745,0.17537c0.12436,0.17537 0.24872,0.35073 0.24872,0.70146c0,0.17537 0,0.5261 -0.12436,0.70146z" class="st15"/>
       </g>
      </g>
      <g stroke="null" id="svg_277">
       <g stroke="null" id="svg_278">
        <path stroke="#FBB040" id="svg_279" stroke-miterlimit="10" stroke-width="0.5" fill="#FBB040" d="m713.37994,547.89622c0,0 0,0 0,0c-0.12436,-0.87683 -0.49745,-1.40293 -0.99489,-1.22756c-0.49745,0 -0.99489,0.70146 -0.87053,1.40293c0,0.70146 0.49745,1.22756 0.99489,1.22756c0,0 0,0 0,0c0.49745,0 0.87053,-0.5261 0.87053,-1.0522c0,0 0,-0.17537 0,-0.35073c0,0.17537 0,0.17537 0,0zm-0.87053,1.0522c-0.37308,0 -0.62181,-0.35073 -0.62181,-0.87683c0,-0.5261 0.24872,-0.87683 0.62181,-0.87683l0,0c0.12436,0 0.37308,0.17537 0.49745,0.17537c0.12436,0.17537 0.24872,0.35073 0.24872,0.70146c0,0 0,0 0,0l0,0c0,0 0,0 0,0c-0.12436,0.5261 -0.49745,0.87683 -0.74617,0.87683z" class="st15"/>
       </g>
      </g>
      <g stroke="null" id="svg_280">
       <g stroke="null" id="svg_281">
        <path stroke="#FBB040" id="svg_282" stroke-miterlimit="10" stroke-width="0.5" fill="#FBB040" d="m716.86206,550.17598c-0.24872,-0.17537 -0.37308,-0.35073 -0.74617,-0.35073c-0.24872,0 -0.49745,0.17537 -0.62181,0.5261s-0.24872,0.5261 -0.24872,1.0522c0,0.35073 0.12436,0.70146 0.37308,0.87683c0.12436,0.17537 0.24872,0.35073 0.49745,0.35073c0,0 0.12436,0 0.12436,0c0,0 0,0 0,0c0,0 0.12436,0 0.12436,0c0.24872,0 0.37308,-0.17537 0.49745,-0.35073c0.12436,-0.35073 0.24872,-0.5261 0.24872,-1.0522c0.12436,-0.35073 0,-0.70146 -0.24872,-1.0522zm-0.12436,1.75366c-0.12436,0.17537 -0.24872,0.35073 -0.49745,0.35073c0,0 0,0 0,0c0,0 0,0 0,0c-0.12436,0 -0.37308,0 -0.49745,-0.17537c-0.12436,-0.17537 -0.24872,-0.35073 -0.24872,-0.70146c0,-0.17537 0,-0.5261 0.12436,-0.70146c0.12436,-0.17537 0.24872,-0.35073 0.49745,-0.35073l0,0c0.12436,0 0.37308,0 0.49745,0.17537c0.12436,0.17537 0.24872,0.35073 0.24872,0.70146c0.12436,0.17537 0,0.5261 -0.12436,0.70146z" class="st15"/>
       </g>
      </g>
      <g stroke="null" id="svg_283">
       <g stroke="null" id="svg_284">
        <path stroke="#FBB040" id="svg_285" stroke-miterlimit="10" stroke-width="0.5" fill="#FBB040" d="m715.99153,559.82112c-0.24872,-0.17537 -0.37308,-0.35073 -0.74617,-0.35073c-0.24872,0 -0.49745,0.17537 -0.62181,0.5261c-0.12436,0.17537 -0.24872,0.35073 -0.24872,0.70146c0,0.17537 0,0.17537 0,0.35073c0,0 0,0.17537 0,0.17537c0,0.35073 0.12436,0.5261 0.24872,0.70146c0.12436,0.17537 0.37308,0.35073 0.62181,0.35073c0,0 0,0 0,0c0.24872,0 0.49745,-0.17537 0.62181,-0.5261c0.12436,-0.35073 0.24872,-0.5261 0.24872,-1.0522c0.12436,-0.35073 0,-0.70146 -0.12436,-0.87683zm-0.24872,1.5783c-0.12436,0.17537 -0.24872,0.35073 -0.49745,0.35073c-0.12436,0 -0.37308,0 -0.49745,-0.17537c-0.12436,-0.17537 -0.24872,-0.35073 -0.24872,-0.70146c0,0 0,0 0,0c0,0 0,0 0,0c0,-0.17537 0,-0.5261 0.12436,-0.70146c0.12436,-0.17537 0.24872,-0.35073 0.49745,-0.35073l0,0c0.12436,0 0.37308,0 0.49745,0.17537c0.12436,0.17537 0.24872,0.35073 0.24872,0.70146c0.12436,0.35073 0,0.5261 -0.12436,0.70146z" class="st15"/>
       </g>
      </g>
      <g stroke="null" id="svg_286">
       <g stroke="null" id="svg_287">
        <path stroke="#FBB040" id="svg_288" stroke-miterlimit="10" stroke-width="0.5" fill="#FBB040" d="m719.84674,547.89622l0,0.35073l-6.59116,0c-0.12436,0 -0.12436,-0.17537 -0.12436,-0.17537c0,0 0,0 0,0c0,0 0,0 0,0c0,0 0,0 0,0c0,0 0,0 0,0c0,-0.17537 0.12436,-0.17537 0.12436,-0.17537l6.59116,0z" class="st15"/>
       </g>
      </g>
      <g stroke="null" id="svg_289">
       <g stroke="null" id="svg_290">
        <path stroke="#FBB040" id="svg_291" stroke-miterlimit="10" stroke-width="0.5" fill="#FBB040" d="m719.10057,558.06746l0,5.61172c-0.12436,0 -0.24872,0.17537 -0.24872,0.17537c0,0 0,0 0,0l0,-5.43635l-2.48723,0c-0.12436,0 -0.12436,-0.17537 -0.12436,-0.17537l0,-5.61172c0,-0.17537 0.12436,-0.17537 0.12436,-0.17537c0,0 0,0 0,0c0.12436,0 0.12436,0.17537 0.12436,0.17537l0,5.43635l2.48723,0c0.12436,-0.17537 0.12436,-0.17537 0.12436,0z" class="st15"/>
       </g>
      </g>
      <g stroke="null" id="svg_292">
       <g stroke="null" id="svg_293">
        <path stroke="#FBB040" id="svg_294" stroke-miterlimit="10" stroke-width="0.5" fill="#FBB040" d="m708.40548,544.73963l0,8.94368c0,0.17537 -0.12436,0.17537 -0.12436,0.17537l-1.86542,0l0,-0.35073l1.74106,0l0,-8.76831l0.24872,0z" class="st15"/>
       </g>
      </g>
      <g stroke="null" id="svg_295">
       <g stroke="null" id="svg_296">
        <path stroke="#FBB040" id="svg_297" stroke-miterlimit="10" stroke-width="0.5" fill="#FBB040" d="m714.62355,560.69795c0,0 0,0 0,0c0,0.17537 -0.12436,0.17537 -0.12436,0.17537l-5.47191,0c-0.12436,0 -0.12436,-0.17537 -0.12436,-0.17537l0,-3.50732l-2.61159,0l0,-0.35073l2.73595,0c0.12436,0 0.12436,0.17537 0.12436,0.17537l0,3.50732l5.34754,0c0.12436,0 0.12436,0.17537 0.12436,0.17537z" class="st15"/>
       </g>
      </g>
     </g>
    </g>
   </g>
  </g>
  <g stroke="null" id="svg_298">
   <path stroke="null" id="svg_299" fill="#FBB040" d="m713.13122,500.02125c-3.97957,0 -7.33733,4.55952 -7.33733,10.3466c0,5.61172 3.2334,10.3466 7.33733,10.3466c3.97957,0 7.33733,-4.55952 7.33733,-10.3466s-3.35776,-10.3466 -7.33733,-10.3466z" class="st10"/>
   <g stroke="null" id="svg_300">
    <path stroke="null" id="svg_301" fill="#FBB040" d="m693.73082,538.07571c-0.49745,0 -0.99489,-0.35073 -1.36798,-0.87683c-10.44637,-14.90613 -10.44637,-38.93129 0,-53.83742c0.74617,-1.0522 1.98978,-1.0522 2.61159,0c0.74617,1.0522 0.74617,2.80586 0,3.68269c-8.95403,12.80173 -8.95403,33.49494 0,46.29667c0.74617,1.0522 0.74617,2.80586 0,3.68269c-0.37308,0.70146 -0.74617,1.0522 -1.24361,1.0522z" class="st10"/>
    <path stroke="null" id="svg_302" fill="#FBB040" d="m732.53161,538.07571c-0.49745,0 -0.99489,-0.35073 -1.36798,-0.87683c-0.74617,-1.0522 -0.74617,-2.80586 0,-3.68269c8.95403,-12.80173 8.95403,-33.49494 0,-46.29667c-0.74617,-1.0522 -0.74617,-2.80586 0,-3.68269c0.74617,-1.0522 1.98978,-1.0522 2.61159,0c10.44637,14.90613 10.44637,38.93129 0,53.83742c-0.37308,0.35073 -0.74617,0.70146 -1.24361,0.70146z" class="st10"/>
    <path stroke="null" id="svg_303" fill="#FBB040" d="m701.68996,526.67691c-0.49745,0 -0.99489,-0.35073 -1.36798,-0.87683c-6.09371,-8.59294 -6.09371,-22.62224 0,-31.21518c0.74617,-1.0522 1.98978,-1.0522 2.61159,0c0.74617,1.0522 0.74617,2.80586 0,3.68269c-4.60138,6.48855 -4.60138,17.18589 0,23.8498c0.74617,1.0522 0.74617,2.80586 0,3.68269c-0.24872,0.70146 -0.74617,0.87683 -1.24361,0.87683z" class="st10"/>
    <path stroke="null" id="svg_304" fill="#FBB040" d="m724.44811,526.67691c-0.49745,0 -0.99489,-0.35073 -1.36798,-0.87683c-0.74617,-1.0522 -0.74617,-2.80586 0,-3.68269c4.60138,-6.48855 4.60138,-17.18589 0,-23.8498c-0.74617,-1.0522 -0.74617,-2.80586 0,-3.68269c0.74617,-1.0522 1.98978,-1.0522 2.61159,0c6.09371,8.59294 6.09371,22.62224 0,31.21518c-0.37308,0.70146 -0.74617,0.87683 -1.24361,0.87683z" class="st10"/>
   </g>
  </g>
  <polyline stroke="#FBB040" id="svg_305" stroke-miterlimit="10" stroke-width="1.5" fill="none" points="1281.8363959789276,468.9814453125 1281.8363959789276,510.36785888671875 751.4345405101776,510.36785888671875 " class="st14"/>
  <polyline stroke="#FBB040" id="svg_306" stroke-miterlimit="10" stroke-width="1.5" fill="none" points="916.9596869945526,292.3876953125 1111.8341987133026,292.3876953125 1111.8341987133026,357.273193359375 " class="st14"/>
  <g stroke="null" id="svg_307">
   <g stroke="null" id="svg_308">
    <g stroke="null" id="svg_309">
     <path stroke="null" id="svg_310" fill="#FBB040" d="m182.23198,186.29115c-4.22829,0 -7.95914,3.15659 -10.44637,7.89148c-2.36287,-4.91025 -6.21807,-7.89148 -10.44637,-7.89148c-7.21297,0 -13.67976,9.11904 -13.18232,20.51784c0.99489,18.93955 16.66444,31.56591 23.50432,48.2257c6.96424,-16.65979 22.63379,-29.28615 23.50432,-48.2257c0.87053,-11.3988 -5.59627,-20.51784 -12.9336,-20.51784z" class="st10"/>
    </g>
    <g stroke="null" id="svg_311">
     <g stroke="null" id="svg_312">
      <path stroke="null" id="svg_313" fill="#FFFFFF" d="m172.53178,236.44588c0,0 0,0 0,0c-0.49745,0 -0.99489,-0.5261 -1.11925,-1.22756l-4.10393,-22.44687l-2.48723,11.57417c-0.12436,0.70146 -0.62181,1.22756 -1.11925,1.22756l-12.80923,0c-0.62181,0 -1.24361,-0.70146 -1.24361,-1.75366c0,-0.87683 0.49745,-1.75366 1.24361,-1.75366l11.9387,0l3.35776,-16.13369c0.12436,-0.70146 0.62181,-1.22756 1.11925,-1.22756c0.49745,0 0.99489,0.5261 1.11925,1.22756l4.10393,22.44687l2.73595,-12.9771c0.12436,-0.70146 0.62181,-1.22756 1.11925,-1.22756c0,0 0,0 0,0c0.49745,0 0.99489,0.5261 1.11925,1.22756l1.86542,8.24221l14.92338,0c0,0 0,0 0,0c0.62181,0 1.24361,0.70146 1.24361,1.5783c0,0.87683 -0.49745,1.75366 -1.11925,1.75366l-15.79391,0c0,0 0,0 0,0c-0.49745,0 -0.99489,-0.5261 -1.11925,-1.22756l-0.99489,-4.38415l-2.86031,13.5032c-0.12436,1.0522 -0.49745,1.5783 -1.11925,1.5783z" class="st9"/>
     </g>
    </g>
   </g>
  </g>
  <path stroke="#FBB040" id="svg_314" stroke-miterlimit="10" stroke-width="1.5" fill="none" d="m315.12112,303.53461l-260.78606,0c0,127.49122 0,120.47657 0,120.47657" class="st14"/>
  <g stroke="null" id="svg_315">
   <path stroke="null" id="svg_316" fill="#FBB040" d="m38.96753,458.63483l0,48.05033c0,1.92903 1.11925,3.50732 2.48723,3.50732l46.13812,0c1.36798,0 2.48723,-1.5783 2.48723,-3.50732l0,-48.05033l-51.11258,0z" class="st10"/>
   <path stroke="null" id="svg_317" fill="#FBB040" d="m87.59288,441.62431l-46.13812,0c-1.36798,0 -2.48723,1.75366 -2.48723,3.85806l0,11.04807l51.11258,0l0,-11.04807c0,-2.10439 -1.11925,-3.85806 -2.48723,-3.85806z" class="st10"/>
   <g stroke="null" id="svg_318">
    <rect stroke="null" id="svg_319" fill="#FFFFFF" height="8.41758" width="5.96935" class="st9" y="465.82485" x="67.19759"/>
    <rect stroke="null" id="svg_320" fill="#FFFFFF" height="8.41758" width="5.96935" class="st9" y="465.82485" x="78.63885"/>
    <rect stroke="null" id="svg_321" fill="#FFFFFF" height="8.41758" width="5.96935" class="st9" y="480.20487" x="44.43944"/>
    <rect stroke="null" id="svg_322" fill="#FFFFFF" height="8.41758" width="5.96935" class="st9" y="480.20487" x="55.75633"/>
   </g>
   <rect stroke="null" id="svg_323" fill="#FFFFFF" height="8.41758" width="5.96935" class="st9" y="480.20487" x="67.19759"/>
   <g stroke="null" id="svg_324">
    <g stroke="null" id="svg_325">
     <rect stroke="null" id="svg_326" fill="#FFFFFF" height="8.41758" width="5.96935" class="st9" y="480.20487" x="78.63885"/>
     <rect stroke="null" id="svg_327" fill="#FFFFFF" height="8.41758" width="5.96935" class="st9" y="494.5849" x="44.43944"/>
     <rect stroke="null" id="svg_328" fill="#FFFFFF" height="8.41758" width="5.96935" class="st9" y="494.5849" x="55.75633"/>
    </g>
   </g>
   <g stroke="null" id="svg_329">
    <circle stroke="null" id="svg_330" fill="#FFFFFF" r="2.01245" cy="448.46359" cx="81.62352" class="st9"/>
    <circle stroke="null" id="svg_331" fill="#FFFFFF" r="2.01245" cy="448.46359" cx="70.18227" class="st9"/>
    <circle stroke="null" id="svg_332" fill="#FFFFFF" r="2.01245" cy="448.46359" cx="58.74101" class="st9"/>
    <circle stroke="null" id="svg_333" fill="#FFFFFF" r="2.01245" cy="448.46359" cx="47.42411" class="st9"/>
   </g>
   <g stroke="null" id="svg_334">
    <path stroke="null" id="svg_335" fill="#FFFFFF" d="m81.62352,447.93749l0,0c-0.49745,0 -0.87053,-0.5261 -0.87053,-1.22756l0,-8.94368c0,-0.70146 0.37308,-1.22756 0.87053,-1.22756l0,0c0.49745,0 0.87053,0.5261 0.87053,1.22756l0,8.94368c0,0.70146 -0.37308,1.22756 -0.87053,1.22756z" class="st9"/>
    <path stroke="null" id="svg_336" fill="#FFFFFF" d="m70.18227,447.93749l0,0c-0.49745,0 -0.87053,-0.5261 -0.87053,-1.22756l0,-8.94368c0,-0.70146 0.37308,-1.22756 0.87053,-1.22756l0,0c0.49745,0 0.87053,0.5261 0.87053,1.22756l0,8.94368c0,0.70146 -0.37308,1.22756 -0.87053,1.22756z" class="st9"/>
    <path stroke="null" id="svg_337" fill="#FFFFFF" d="m58.74101,447.93749l0,0c-0.49745,0 -0.87053,-0.5261 -0.87053,-1.22756l0,-8.94368c0,-0.70146 0.37308,-1.22756 0.87053,-1.22756l0,0c0.49745,0 0.87053,0.5261 0.87053,1.22756l0,8.94368c0.12436,0.70146 -0.37308,1.22756 -0.87053,1.22756z" class="st9"/>
    <path stroke="null" id="svg_338" fill="#FFFFFF" d="m47.42411,447.93749l0,0c-0.49745,0 -0.87053,-0.5261 -0.87053,-1.22756l0,-8.94368c0,-0.70146 0.37308,-1.22756 0.87053,-1.22756l0,0c0.49745,0 0.87053,0.5261 0.87053,1.22756l0,8.94368c0,0.70146 -0.37308,1.22756 -0.87053,1.22756z" class="st9"/>
   </g>
   <line stroke="#FFFFFF" id="svg_339" stroke-miterlimit="10" stroke-width="2.5" fill="none" y2="456.7058" x2="93.31351" y1="456.7058" x1="35.73413" class="st16"/>
  </g>
  <g stroke="null" id="svg_340">
   <path stroke="null" id="svg_341" fill="#70BEF2" d="m770.21314,387.43616l0,0.35073l-38.17898,0l0,-0.35073c0,-7.36538 4.22829,-15.43222 9.45147,-15.43222l19.27603,0c5.22318,0 9.45147,8.06684 9.45147,15.43222z" class="st17"/>
   <path stroke="null" id="svg_342" fill="#3692F2" d="m750.68839,326.40873c-1.49234,0 -2.73595,-1.75366 -2.73595,-3.85806l0,-21.74541c0,-2.10439 1.24361,-3.85806 2.73595,-3.85806c1.49234,0 2.73595,1.75366 2.73595,3.85806l0,21.74541c0.12436,2.10439 -1.11925,3.85806 -2.73595,3.85806z" class="st0"/>
   <path stroke="null" id="svg_343" fill="#3692F2" d="m759.02061,334.30021c0,0.35073 0,0.70146 0,1.0522l-2.36287,36.65153l-11.81434,0l-2.36287,-36.65153c-0.37308,-6.48855 2.98468,-12.10027 7.46169,-12.80173c4.60138,-0.5261 8.58094,4.20879 9.07839,10.52197c0,0.5261 0,0.87683 0,1.22756z" class="st0"/>
   <path stroke="null" id="svg_344" fill="#70BEF2" d="m774.31707,295.89501c0.49745,1.75366 -0.12436,3.85806 -1.36798,4.73489c-0.24872,0.17537 -0.62181,0.17537 -0.99489,0.35073l-44.27269,0c-1.36798,0 -2.48723,-1.5783 -2.48723,-3.68269c0,-0.5261 0.12436,-0.87683 0.24872,-1.40293l10.57073,-37.353c0.37308,-1.40293 1.36798,-2.27976 2.36287,-2.27976l23.00688,0c0.99489,0 1.98978,0.87683 2.36287,2.27976l10.57073,37.353z" class="st17"/>
  </g>
  <g stroke="null" id="svg_345">
   <path stroke="null" id="svg_346" fill="#FBB040" d="m1281.83635,379.54468c-11.06817,0 -19.89784,12.62637 -19.89784,28.05859c0,15.43222 19.89784,47.1735 19.89784,47.1735s19.89784,-31.74128 19.89784,-47.1735c0,-15.43222 -8.95403,-28.05859 -19.89784,-28.05859zm0,42.08788c-5.09882,0 -9.20275,-5.78708 -9.20275,-12.9771c0,-7.19001 4.10393,-12.9771 9.20275,-12.9771s9.20275,5.78708 9.20275,12.9771c0,7.19001 -4.10393,12.9771 -9.20275,12.9771z" class="st10"/>
  </g>
  <g stroke="null" id="svg_347">
   <g stroke="null" id="svg_348">
    <path stroke="null" id="svg_349" fill="#FBB040" d="m1090.69273,419.35281c1.11925,0 2.36287,-0.5261 3.10904,-1.5783c1.6167,1.92903 4.35265,1.92903 5.96935,0c1.6167,1.92903 4.35265,1.92903 5.96935,0c1.6167,1.92903 4.35265,1.92903 5.96935,0c1.6167,1.92903 4.35265,1.92903 5.96935,0c1.6167,1.92903 4.35265,1.92903 5.96935,0c1.6167,1.92903 4.35265,1.92903 5.96935,0c0.74617,1.0522 1.98978,1.5783 3.10904,1.5783c2.48723,0 4.47701,-2.80586 4.47701,-6.31318l0,-4.91025l-2.11415,-5.78708l-47.00865,0l-2.11415,5.78708l0,4.91025c0.24872,3.50732 2.23851,6.31318 4.72574,6.31318z" class="st10"/>
    <path stroke="null" id="svg_350" fill="#FBB040" d="m1089.20039,381.12298l0,16.83515l45.14322,0l0,-16.83515l-45.14322,0z" class="st10"/>
    <path stroke="null" id="svg_351" fill="#FBB040" d="m1110.34184,432.15454l-11.9387,0l0,21.21931l11.9387,0l0,-21.21931z" class="st10"/>
    <path stroke="null" id="svg_352" fill="#FBB040" d="m1095.2941,427.77038l18.03242,0l0,25.4281l24.12613,0l0,-4.20879l-2.98468,0l0,-25.77883c-0.49745,0.17537 -0.99489,0.17537 -1.49234,0.17537c-0.99489,0 -2.23851,-0.35073 -3.10904,-0.87683c-0.87053,0.5261 -1.86542,0.87683 -2.98468,0.87683c-0.99489,0 -2.11415,-0.35073 -2.98468,-0.87683c-0.87053,0.5261 -1.98978,0.87683 -2.98468,0.87683s-2.11415,-0.35073 -2.98468,-0.87683c-0.87053,0.5261 -1.98978,0.87683 -2.98468,0.87683c-0.99489,0 -2.11415,-0.35073 -2.98468,-0.87683c-0.87053,0.5261 -1.98978,0.87683 -2.98468,0.87683c-0.99489,0 -2.11415,-0.35073 -2.98468,-0.87683c-0.87053,0.5261 -1.98978,0.87683 -2.98468,0.87683s-2.11415,-0.35073 -2.98468,-0.87683c-0.87053,0.5261 -1.98978,0.87683 -2.98468,0.87683c-0.99489,0 -1.98978,-0.35073 -2.98468,-0.87683c-0.99489,0.5261 -2.11415,0.87683 -3.10904,0.87683c-0.49745,0 -0.99489,0 -1.49234,-0.17537l0,25.77883l-2.98468,0l0,4.20879l9.07839,0l0,-25.4281l-0.24872,0zm21.01709,0l11.9387,0l0,16.83515l-11.9387,0l0,-16.83515z" class="st10"/>
   </g>
   <circle stroke="#FFFFFF" id="svg_353" stroke-miterlimit="10" stroke-width="2" fill="#FBB040" r="7.82618" cy="378.31712" cx="1111.83418" class="st18"/>
   <polygon stroke="null" id="svg_354" fill="#FFFFFF" points="1116.43563914299,375.6866455078125 1113.6996772289276,375.6866455078125 1113.6996772289276,371.82855224609375 1109.96884226799,371.82855224609375 1109.96884226799,375.6866455078125 1107.232758283615,375.6866455078125 1107.232758283615,380.9476318359375 1109.96884226799,380.9476318359375 1109.96884226799,384.8056640625 1113.6996772289276,384.8056640625 1113.6996772289276,380.9476318359375 1116.43563914299,380.9476318359375 " class="st9"/>
  </g>
  <g stroke="null" id="svg_355">
   <g stroke="null" id="svg_356">
    <g stroke="null" id="svg_357">
     <path stroke="null" id="svg_358" fill="#FBB040" d="m1198.0167,209.61485l-9.82456,0c-0.87053,0 -1.6167,1.0522 -1.6167,2.27976l0,41.73715c0,1.22756 0.74617,2.27976 1.6167,2.27976l9.82456,0c2.73595,0 4.97446,-3.15659 4.97446,-7.01465l0,-32.26738c0,-3.85806 -2.23851,-7.01465 -4.97446,-7.01465z" class="st10"/>
    </g>
   </g>
   <g stroke="null" id="svg_359">
    <g stroke="null" id="svg_360">
     <path stroke="null" id="svg_361" fill="#FBB040" d="m1242.53812,221.18902c0,-3.85806 -2.23851,-7.01465 -4.97446,-7.01465l-12.43615,0c2.86031,-7.36538 3.60648,-13.85393 1.86542,-18.41345c-1.11925,-2.98123 -3.10904,-4.73489 -5.47191,-4.73489c0,0 0,0 0,0c-3.48212,0 -4.10393,3.85806 -4.60138,7.01465c-0.62181,4.20879 -1.49234,9.99587 -7.83477,16.13369l-2.98468,0l0,37.17763l1.11925,0.35073c5.09882,2.10439 10.57073,4.03342 16.04263,4.03342l7.71041,0c2.73595,0 4.97446,-3.15659 4.97446,-7.01465c0,-0.87683 -0.12436,-1.75366 -0.37308,-2.63049c2.11415,-0.87683 3.60648,-3.50732 3.60648,-6.66392c0,-0.87683 -0.12436,-1.75366 -0.37308,-2.63049c2.11415,-0.87683 3.60648,-3.50732 3.60648,-6.66392c0,-1.75366 -0.49745,-3.33196 -1.24361,-4.55952c0.87053,-0.87683 1.36798,-2.45513 1.36798,-4.38415z" class="st10"/>
    </g>
   </g>
  </g>
  <path stroke="null" id="svg_362" fill="#2D2D2D" d="m1007.1218,677.31646l-769.79768,0c-0.49745,0 -0.87053,-0.5261 -0.87053,-1.22756s0.37308,-1.22756 0.87053,-1.22756l769.79768,0c0.49745,0 0.87053,0.5261 0.87053,1.22756s-0.37308,1.22756 -0.87053,1.22756z" class="st2"/>
  <path id="svg_363" d="m666.93978,250.9754l-10.23343,-17.3326c-3.08534,-5.224 -8.13184,-13.7761 -11.2172,-19.00111l-10.23248,-17.33155c-3.0884,-5.22706 -8.1349,-5.22706 -11.21922,0l-10.23041,17.33155c-3.08534,5.22501 -8.13492,13.7791 -11.21924,19.00111l-10.23145,17.3326c-3.08534,5.22904 -0.56002,9.50306 5.60963,9.50306l63.35805,0c6.17581,0 8.698,-4.27402 5.61575,-9.50306l0,0zm-34.37064,2.68322l-6.06942,0l0,-5.69898l6.06942,0l0,5.69898zm-0.29241,-9.89822l-5.47942,0l-0.54454,-24.38385l6.51991,0l-0.49595,24.38385l0,0z" stroke-width="1.5" stroke="#FBB040" fill="none"/>
  <polyline transform="rotate(-0.208413 457.626 132.986)" stroke="#FBB040" id="svg_365" stroke-miterlimit="10" stroke-width="1.5" fill="none" points="629.0584487915039,189.9804630279541 629.0584487915039,75.9924259185791 286.1938247680664,75.9924259185791 " class="st14"/>
  <rect stroke="#FBB040" id="svg_366" height="177.21523" width="2.53157" y="272.15203" x="627.84829" stroke-width="1.5" fill="none"/>
  <path stroke="null" id="svg_369" d="m199.02319,89.68095c11.53798,0 22.38624,4.86888 30.53555,13.70157c8.16805,8.83672 12.65879,20.61094 12.65879,33.14074l17.78679,0c0,-36.39744 -27.36054,-66.00268 -60.98488,-66.00268l0,19.16037l0.00375,0zm0.02249,-33.9731c41.13265,0 74.5883,36.2641 74.5883,80.8356l17.77929,0c0,-55.13759 -41.43628,-100.00002 -92.37134,-100.00002l0,19.16441l0.00375,0zm24.59037,67.44112c0,7.33363 -5.51409,13.28135 -12.31393,13.28135s-12.31393,-5.94772 -12.31393,-13.28135c0,-7.32555 5.51409,-13.27327 12.31393,-13.27327s12.31393,5.94368 12.31393,13.27327z" fill="#56aaff"/>
  <text transform="matrix(1.15351 0 0 1.31022 -39.0552 -64.4199)" stroke="null" font-style="normal" font-weight="normal" xml:space="preserve" text-anchor="start" font-family="monospace" font-size="24" stroke-width="0" id="svg_370" y="207.20325" x="257.7227" fill="#000000">Heart beat</text>
  <text transform="matrix(1.15351 0 0 1.31022 -39.0552 -64.4199)" stroke="null" font-style="normal" font-weight="normal" xml:space="preserve" text-anchor="start" font-family="monospace" font-size="24" stroke-width="0" id="svg_371" y="101.89673" x="358.68041" fill="#000000">Live Monitoring</text>
  <text transform="matrix(1.15351 0 0 1.31022 -39.0552 -64.4199)" stroke="null" font-style="normal" font-weight="normal" xml:space="preserve" text-anchor="start" font-family="monospace" font-size="24" stroke-width="0" id="svg_373" y="211.06771" x="787.75067" fill="#000000">Health Quality</text>
  <text transform="matrix(1.15351 0 0 1.31022 -39.0552 -64.4199)" stroke="null" font-style="normal" font-weight="normal" xml:space="preserve" text-anchor="start" font-family="monospace" font-size="24" stroke-width="0" id="svg_374" y="265.17015" x="831.64532" fill="#000000">Drug Quality</text>
  <text transform="matrix(1.15351 0 0 1.31022 -39.0552 -64.4199)" stroke="null" font-style="normal" font-weight="normal" xml:space="preserve" text-anchor="start" font-family="monospace" font-size="24" stroke-width="0" id="svg_375" y="426.51134" x="853.59265" fill="#000000">Location Tracking</text>
  <text style="cursor: move;" transform="matrix(1.15351 0 0 1.31022 -39.0552 -64.4199)" stroke="null" font-style="normal" font-weight="normal" xml:space="preserve" text-anchor="start" font-family="monospace" font-size="24" stroke-width="0" id="svg_376" y="302.84864" x="83.24146" fill="#000000">Food diet</text>
 </g>
</svg>