<svg width="1400" height="800" xmlns="http://www.w3.org/2000/svg" xml:space="preserve" version="1.1">

 <g>
  <title>Layer 1</title>
  <g stroke="null" id="svg_2">
   <path stroke="null" id="svg_3" fill="#ED8B00" d="m1123.72979,450.61336l39.19908,0c4.06911,0 7.3244,-3.37742 7.3244,-7.59918c0,-4.22177 -3.25529,-7.59918 -7.3244,-7.59918l-39.19908,0c-4.06911,0 -7.3244,3.37742 -7.3244,7.59918c0,4.22177 3.39092,7.59918 7.3244,7.59918z" class="st0"/>
   <polygon stroke="null" id="svg_4" fill="#FBB040" points="1105.4187803612003,532.2342702315218 1129.2909281080065,532.2342702315218 1135.6658354894753,527.73101192186 1099.0438729797315,527.73101192186 " class="st1"/>
   <rect stroke="null" id="svg_5" fill="#FBB040" height="15.2" width="17.5" class="st1" transform="matrix(-1.35637 0 0 -1.40726 2074.55 570.116)" y="11.6" x="696.9"/>
   <path stroke="null" id="svg_6" fill="#FBB040" d="m1086.70091,457.22747l40.55545,0c4.20475,0 7.46003,-3.51814 7.46003,-7.73991l0,-12.94676c0,-4.36249 -3.39092,-7.73991 -7.46003,-7.73991l-40.55545,0c-4.20475,0 -7.46003,3.51814 -7.46003,7.73991l0,12.94676c0,4.22177 3.39092,7.73991 7.46003,7.73991z" class="st1"/>
   <path stroke="null" id="svg_7" fill="#ED8B00" d="m1098.63696,502.11895l37.57143,0c6.78185,0 12.34296,5.76975 12.34296,12.80603c0,7.03628 -5.56111,12.80603 -12.34296,12.80603l-37.57143,0c-6.78185,0 -12.34296,-5.76975 -12.34296,-12.80603c0,-7.03628 5.42548,-12.80603 12.34296,-12.80603z" class="st0"/>
   <path stroke="null" id="svg_8" fill="#ED8B00" d="m1101.07842,442.31055c3.93347,-4.08104 10.30841,-4.08104 14.24188,0l45.57401,47.28381c3.93347,4.08104 3.93347,10.69515 0,14.77619c-3.93347,4.08104 -10.30841,4.08104 -14.24188,0l-45.57401,-47.28381c-3.93347,-4.08104 -3.93347,-10.69515 0,-14.77619z" class="st0"/>
   <path stroke="null" id="svg_9" fill="#FFFFFF" d="m1153.70556,499.72661c0.67818,0 1.35637,-0.28145 1.89892,-0.84435c0.54255,-0.5629 0.81382,-1.26653 0.81382,-1.97016c0,-0.70363 -0.27127,-1.40726 -0.81382,-1.97016c-0.54255,-0.5629 -1.22073,-0.84435 -1.89892,-0.84435c-0.67818,0 -1.35637,0.28145 -1.89892,0.84435c-0.54255,0.5629 -0.81382,1.26653 -0.81382,1.97016c0,0.70363 0.27127,1.40726 0.81382,1.97016c0.54255,0.5629 1.22073,0.84435 1.89892,0.84435z" class="st2"/>
   <path stroke="null" id="svg_10" fill="#FFFFFF" d="m1108.13155,452.4428c0.67818,0 1.35637,-0.28145 1.89892,-0.84435c0.54255,-0.5629 0.81382,-1.26653 0.81382,-1.97016c0,-0.70363 -0.27127,-1.40726 -0.81382,-1.97016c-0.54255,-0.5629 -1.22073,-0.84435 -1.89892,-0.84435s-1.35637,0.28145 -1.89892,0.84435c-0.54255,0.5629 -0.81382,1.26653 -0.81382,1.97016c0,0.70363 0.27127,1.40726 0.81382,1.97016c0.54255,0.5629 1.22073,0.84435 1.89892,0.84435z" class="st2"/>
   <path stroke="null" id="svg_11" fill="#FBB040" d="m1127.39199,505.77781l17.49717,-18.01288c4.88293,-5.06612 12.61424,-5.06612 17.49717,0c4.88293,5.06612 4.88293,13.08748 0,18.15361l-17.49717,18.01288c-4.88293,5.06612 -12.61424,5.06612 -17.49717,0c-4.88293,-4.9254 -4.88293,-13.08748 0,-18.15361z" class="st1"/>
   <path stroke="null" id="svg_12" fill="#FFFFFF" d="m1153.56992,502.68185c1.49201,0 2.98401,-0.5629 4.06911,-1.68871c1.0851,-1.12581 1.62764,-2.67379 1.62764,-4.22177c0,-1.54798 -0.54255,-3.09596 -1.62764,-4.22177c-1.0851,-1.12581 -2.5771,-1.68871 -4.06911,-1.68871c-1.49201,0 -2.98401,0.5629 -4.06911,1.68871c-1.0851,1.12581 -1.62764,2.67379 -1.62764,4.22177c0,1.54798 0.54255,3.09596 1.62764,4.22177c1.0851,1.12581 2.5771,1.68871 4.06911,1.68871z" class="st2"/>
   <path stroke="null" id="svg_13" fill="#FBB040" d="m1153.56992,500.43024c0.94946,0 1.89892,-0.42218 2.5771,-1.12581c0.67818,-0.70363 1.0851,-1.54798 1.0851,-2.67379c0,-0.98508 -0.40691,-1.97016 -1.0851,-2.67379c-0.67818,-0.70363 -1.49201,-1.12581 -2.44147,-1.12581c-0.94946,0 -1.89892,0.42218 -2.5771,1.12581c-0.67818,0.70363 -1.0851,1.54798 -1.0851,2.67379c0,0.98508 0.40691,1.97016 1.0851,2.67379c0.67818,0.84435 1.49201,1.12581 2.44147,1.12581z" class="st1"/>
   <path stroke="null" id="svg_14" fill="#FFFFFF" d="m1136.07276,520.83546c1.49201,0 2.98401,-0.5629 4.06911,-1.68871c1.0851,-1.12581 1.62764,-2.67379 1.62764,-4.22177s-0.54255,-3.09596 -1.62764,-4.22177c-1.0851,-1.12581 -2.5771,-1.68871 -4.06911,-1.68871c-1.49201,0 -2.98401,0.5629 -4.06911,1.68871c-1.0851,1.12581 -1.62764,2.67379 -1.62764,4.22177s0.54255,3.09596 1.62764,4.22177c1.0851,1.12581 2.5771,1.68871 4.06911,1.68871z" class="st2"/>
   <path stroke="null" id="svg_15" fill="#FBB040" d="m1136.07276,518.58385c0.94946,0 1.89892,-0.42218 2.5771,-1.12581c0.67818,-0.70363 1.0851,-1.54798 1.0851,-2.67379c0,-0.98508 -0.40691,-1.97016 -1.0851,-2.67379c-0.67818,-0.70363 -1.49201,-1.12581 -2.44147,-1.12581s-1.89892,0.42218 -2.5771,1.12581c-0.67818,0.70363 -1.0851,1.54798 -1.0851,2.67379c0,0.98508 0.40691,1.97016 1.0851,2.67379c0.54255,0.84435 1.49201,1.12581 2.44147,1.12581z" class="st1"/>
   <path stroke="null" id="svg_16" fill="#0A84F2" d="m1079.51215,562.63097l75.68542,0l0,0c-4.88293,-5.62903 -11.93605,-9.00644 -19.26045,-9.00644l-37.02889,0c-7.46003,0.14073 -14.37752,3.37742 -19.39608,9.00644l0,0z" class="st3"/>
   <path stroke="null" id="svg_17" fill="#0A84F2" d="m1190.46317,507.8887l0,0c-1.62764,0.84435 -3.52656,0.14073 -4.47602,-1.40726l-20.2099,-35.60359c-2.03455,-3.51814 -0.67818,-8.16209 2.98401,-9.99152l0,0c3.6622,-1.82943 8.00258,0 9.35895,3.94032l14.24188,38.55882c0.54255,1.82943 -0.27127,3.79959 -1.89892,4.50322z" class="st3"/>
   <polygon stroke="null" id="svg_18" fill="#005EB8" points="1193.4471687522455,499.58586631023354 1182.3249674949475,505.07420185476076 1181.3754823744675,517.8802395732055 1191.5483302378561,525.1979754123167 1192.7690403670858,524.6350933725043 1185.9870978826366,515.6285767531808 1187.3434863795264,509.7181133439881 1193.8540721286554,506.4814742846793 1199.0082693808945,509.1552313041757 1201.7210463746742,520.1318350628426 1202.8062098628143,519.5689530230302 1203.6198848890635,506.7629153045855 " class="st4"/>
   <path stroke="null" id="svg_19" fill="#FBB040" d="m1155.74011,433.16338c5.01857,-2.53306 10.98659,-0.28145 13.42806,4.9254l11.66478,25.04916c2.44147,5.20685 0.27127,11.39878 -4.74729,13.93184c-5.01857,2.53306 -10.98659,0.28145 -13.42806,-4.9254l-11.66478,-25.04916c-2.30583,-5.20685 -0.13564,-11.39878 4.74729,-13.93184z" class="st1"/>
   <path stroke="null" id="svg_20" fill="#FFFFFF" d="m1170.25327,472.28511c1.22073,0.42218 2.44147,0.42218 3.6622,-0.28145c2.30583,-1.12581 3.39092,-4.08104 2.17019,-6.61411c-0.54255,-1.12581 -1.49201,-2.11088 -2.71274,-2.53306c-1.22073,-0.42218 -2.44147,-0.42218 -3.6622,0.28145c-2.30583,1.12581 -3.39092,4.08104 -2.17019,6.61411c0.54255,1.26653 1.49201,2.11088 2.71274,2.53306z" class="st2"/>
   <path stroke="null" id="svg_21" fill="#FBB040" d="m1170.93145,470.0335c0.67818,0.28145 1.35637,0.14073 1.89892,-0.14073c1.22073,-0.5629 1.76328,-2.25161 1.22073,-3.51814c-0.27127,-0.5629 -0.81382,-1.12581 -1.49201,-1.26653c-0.67818,-0.28145 -1.35637,-0.14073 -1.89892,0.14073c-0.54255,0.28145 -1.0851,0.84435 -1.22073,1.54798c-0.27127,0.70363 -0.13564,1.40726 0.13564,1.97016c0.27127,0.5629 0.81382,1.12581 1.35637,1.26653z" class="st1"/>
   <path stroke="null" id="svg_22" fill="#FFFFFF" d="m1096.05986,522.80562l21.43064,0c1.0851,0 2.03455,-0.98508 2.03455,-2.11088l0,-11.68023c0,-1.12581 -0.94946,-2.11088 -2.03455,-2.11088l-21.43064,0c-1.0851,0 -2.03455,0.98508 -2.03455,2.11088l0,11.68023c0,1.12581 0.81382,2.11088 2.03455,2.11088z" class="st2"/>
   <path stroke="null" id="svg_23" fill="#FBB040" d="m1096.87368,515.91006l11.66478,0l0,-1.68871l-11.66478,0l0,1.68871zm5.1542,2.25161l6.51057,0l0,-1.68871l-6.51057,0l0,1.68871zm-5.1542,-4.64395l11.66478,0l0,-1.68871l-11.66478,0l0,1.68871zm19.53172,3.51814l-2.98401,-5.20685c-0.27127,-0.42218 -0.67818,-0.42218 -0.94946,0l-2.98401,5.20685c-0.27127,0.42218 0,0.98508 0.40691,0.98508l5.96803,0c0.54255,0.14073 0.81382,-0.42218 0.54255,-0.98508z" class="st1"/>
   <rect stroke="null" id="svg_24" fill="#005EB8" height="16.88708" width="75.68542" class="st4" y="562.63097" x="1079.51215"/>
   <path stroke="null" id="svg_25" fill="#DADFE3" d="m1182.05368,589.08739l-126.14236,0c-1.89892,0 -3.39092,-1.54798 -3.39092,-3.51814l0,-3.23669c0,-1.97016 1.49201,-3.51814 3.39092,-3.51814l126.14236,0c1.89892,0 3.39092,1.54798 3.39092,3.51814l0,3.23669c0,1.97016 -1.49201,3.51814 -3.39092,3.51814z" class="st5"/>
  </g>
  <ellipse stroke="null" id="svg_26" fill="#FBB040" ry="90.2" rx="90.2" cy="377.11149" cx="426.06772" class="st1" transform="matrix(0.959089 -0.995071 0.959089 0.995071 -70.5524 437.134)"/>
  <ellipse stroke="null" id="svg_27" fill="#057ED8" ry="53.7" rx="53.7" cy="293.41149" cx="610.26772" class="st6" transform="matrix(0.959089 -0.995071 0.959089 0.995071 82.8818 585.93)"/>
  <ellipse stroke="null" id="svg_28" fill="#005EB8" ry="53.7" rx="53.7" cy="460.71149" cx="610.26772" class="st4" transform="matrix(0.959089 -0.995071 0.959089 0.995071 -77.6369 654.913)"/>
  <ellipse stroke="null" id="svg_29" fill="#005EB8" ry="53.7" rx="53.7" cy="293.41149" cx="241.86772" class="st4" transform="matrix(0.959089 -0.995071 0.959089 0.995071 -63.468 219.354)"/>
  <ellipse stroke="null" id="svg_30" fill="#057ED8" ry="53.7" rx="53.7" cy="460.71149" cx="241.86772" class="st6" transform="matrix(0.959089 -0.995071 0.959089 0.995071 -223.987 288.338)"/>
  <polygon stroke="null" id="svg_31" fill="#ED8B00" points="377.0483992722111,506.7629153045855 320.2165181982782,506.7629153045855 275.45632350212327,460.3234300951808 276.4058086226032,459.33835286031535 320.7590670107056,505.49636338462005 377.0483992722111,505.49636338462005 " class="st0"/>
  <rect stroke="null" id="svg_33" fill="#FBB040" height="84.43538" width="1.35637" class="st1" y="346.19494" x="449.20726"/>
  <rect stroke="null" id="svg_34" fill="#ED8B00" height="84.43538" width="1.35637" class="st0" y="346.19494" x="948.89377"/>
  <polygon stroke="null" id="svg_35" fill="#ED8B00" points="606.2747950139747,303.5550925896823 575.2139989961652,271.3289175286409 522.722475490009,271.3289175286409 522.722475490009,269.92164509872237 575.7565807402352,269.92164509872237 607.2243459977399,302.5699816896231 " class="st0"/>
  <polygon stroke="null" id="svg_36" fill="#ED8B00" points="876.7348675685789,506.7629153045855 823.7008940449232,506.7629153045855 792.2331287874185,474.11457871368475 793.1825480446132,473.1294678136255 824.243409925708,505.49636338462005 876.7348675685789,505.49636338462005 " class="st0"/>
  <polygon stroke="null" id="svg_37" fill="#FBB040" points="793.1825480446132,303.5550925896823 792.2331287874185,302.5699816896231 823.7008940449232,269.92164509872237 876.7348675685789,269.92164509872237 876.7348675685789,271.3289175286409 824.243409925708,271.3289175286409 " class="st1"/>
  <polygon stroke="null" id="svg_38" fill="#FBB040" points="575.756591796875,508.7629089355469 522.7224731445312,508.7629089355469 522.7224731445312,507.4963684082031 575.2139892578125,507.4963684082031 606.2747802734375,475.12945556640625 607.224365234375,476.1145935058594 " class="st1"/>
  <circle stroke="null" id="svg_39" fill="#ED8B00" r="4.74729" cy="271.62527" cx="824.10778" class="st0"/>
  <circle stroke="null" id="svg_40" fill="#E87400" r="4.74729" cy="269.92164" cx="575.6209" class="st7"/>
  <circle stroke="null" id="svg_41" fill="#E87400" r="4.74729" cy="506.05927" cx="823.97214" class="st7"/>
  <circle stroke="null" id="svg_42" fill="#E87400" r="4.74729" cy="388.41263" cx="949.57196" class="st7"/>
  <circle stroke="null" id="svg_43" fill="#ED8B00" r="4.74729" cy="508.05927" cx="575.6209" class="st0"/>
  <circle stroke="null" id="svg_44" fill="#ED8B00" r="4.74729" cy="388.41263" cx="449.88545" class="st0"/>
  <circle stroke="null" id="svg_45" fill="#E87400" r="4.74729" cy="506.05927" cx="320.4878" class="st7"/>
  <path stroke="null" id="svg_46" fill="#FFFFFF" d="m931.80352,313.12441l60.76535,0c0,-5.76975 -4.47602,-10.27297 -9.9015,-10.27297l-5.96803,0l0,-20.12377c0,-6.0512 -3.52656,-11.39878 -8.54513,-13.79111l0,-8.58426l-11.93605,0l0,8.58426c-5.01857,2.39234 -8.54513,7.59918 -8.54513,13.79111l0,20.12377l-5.83239,0c-5.56111,0 -10.03713,4.64395 -10.03713,10.27297zm25.22847,-29.97456c0,-2.95524 2.30583,-5.34757 5.1542,-5.34757c2.84838,0 5.1542,2.39234 5.1542,5.34757c0,2.95524 -2.30583,5.34757 -5.1542,5.34757c-2.84838,0 -5.1542,-2.39234 -5.1542,-5.34757zm-61.44354,3.94032l9.63022,-9.99152l8.68076,9.00644l-9.63022,9.99152c-2.17019,2.25161 0,6.0512 2.98401,5.06612l7.73131,-2.53306c2.98401,-0.98508 5.1542,-3.94032 5.1542,-7.17701l0,-6.75483c0,-7.73991 -5.96803,-13.93184 -13.42806,-13.93184l-6.51057,0c-3.11965,0 -5.96803,2.11088 -6.91748,5.34757l-2.44147,8.02136c-1.0851,2.95524 2.5771,5.20685 4.74729,2.95524zm22.24446,-14.21329c2.30583,2.39234 6.10366,2.39234 8.40949,0l15.46261,-16.04272c1.76328,0.84435 3.79783,1.26653 5.83239,1.26653l29.29758,0c8.00258,0 14.51315,-6.75483 14.51315,-15.05764l0,0c0,-8.30281 -6.51057,-15.05764 -14.51315,-15.05764l-29.29758,0c-8.00258,0 -14.51315,6.75483 -14.51315,15.05764l0,0c0,1.68871 0.27127,3.23669 0.67818,4.64395l-15.86952,16.4649c-2.30583,2.53306 -2.30583,6.33265 0,8.72499zm55.47551,-29.83384c0,-2.95524 2.30583,-5.34757 5.1542,-5.34757c2.84838,0 5.1542,2.39234 5.1542,5.34757c0,2.95524 -2.30583,5.34757 -5.1542,5.34757c-2.71274,0 -5.1542,-2.39234 -5.1542,-5.34757zm-32.55287,0c0,-2.95524 2.30583,-5.34757 5.1542,-5.34757s5.1542,2.39234 5.1542,5.34757c0,2.95524 -2.30583,5.34757 -5.1542,5.34757s-5.1542,-2.39234 -5.1542,-5.34757z" class="st2"/>
  <path stroke="null" id="svg_47" fill="#FFFFFF" d="m932.75297,500.85242l33.50233,0c2.17019,0 3.93347,-1.82943 3.93347,-4.08104l0,-34.75923c0,-2.25161 -1.76328,-4.08104 -3.93347,-4.08104l-33.50233,0c-2.17019,0 -3.93347,1.82943 -3.93347,4.08104l0,34.75923c0,2.25161 1.76328,4.08104 3.93347,4.08104zm3.79783,-4.9254l13.02115,-13.50966l13.02115,13.50966l-26.04229,0zm29.02631,-3.09596l-13.02115,-13.50966l13.02115,-13.50966l0,27.01932zm-2.98401,-30.11529l-13.02115,13.50966l-13.02115,-13.50966l26.04229,0zm-29.02631,3.09596l13.02115,13.50966l-13.02115,13.50966l0,-27.01932zm10.57968,38.13665l-33.50233,0c-2.17019,0 -3.93347,1.82943 -3.93347,4.08104l0,34.75923c0,2.25161 1.76328,4.08104 3.93347,4.08104l33.50233,0c2.17019,0 3.93347,-1.82943 3.93347,-4.08104l0,-34.75923c0,-2.25161 -1.76328,-4.08104 -3.93347,-4.08104zm-3.79783,4.9254l-13.02115,13.50966l-13.02115,-13.50966l26.04229,0zm-29.02631,3.09596l13.02115,13.50966l-13.02115,13.50966l0,-27.01932zm2.98401,30.11529l13.02115,-13.50966l13.02115,13.50966l-26.04229,0zm29.02631,-3.09596l-13.02115,-13.50966l13.02115,-13.50966l0,27.01932zm45.30274,-35.04068l-33.50233,0c-2.17019,0 -3.93347,1.82943 -3.93347,4.08104l0,34.75923c0,2.25161 1.76328,4.08104 3.93347,4.08104l33.50233,0c2.17019,0 3.93347,-1.82943 3.93347,-4.08104l0,-34.75923c0,-2.25161 -1.76328,-4.08104 -3.93347,-4.08104zm-3.6622,4.9254l-13.02115,13.50966l-13.02115,-13.50966l26.04229,0zm-29.16194,3.09596l13.02115,13.50966l-13.02115,13.50966l0,-27.01932zm2.98401,30.11529l13.02115,-13.50966l13.02115,13.50966l-26.04229,0zm29.02631,-3.09596l-13.02115,-13.50966l13.02115,-13.50966l0,27.01932z" class="st2"/>
  <path stroke="null" id="svg_48" fill="#FFFFFF" d="m461.8215,295.95589c-3.6622,-3.94032 -4.61166,-8.30281 -2.30583,-12.24313l-0.13564,0c6.91748,-6.19193 11.80041,-18.15361 11.93605,-28.84876l-42.86127,0c0.13564,10.69515 5.01857,22.79755 11.93605,28.84876l-0.13564,0c2.30583,4.08104 1.35637,8.44354 -2.30583,12.24313c-13.83497,2.81451 -23.73647,9.99152 -23.73647,14.91692c0,6.19193 15.86952,11.25805 35.53688,11.25805s35.53688,-5.06612 35.53688,-11.25805c0.27127,-5.06612 -9.63022,-12.24313 -23.46519,-14.91692zm-37.30016,-45.45438l50.72822,0c1.35637,0 2.44147,-1.12581 2.44147,-2.53306c0,-1.40726 -1.0851,-2.39234 -2.30583,-2.53306c-0.67818,-12.38386 -6.91748,-19.42014 -15.73389,-22.09393l0,11.11733c0,4.22177 -3.39092,7.73991 -7.46003,7.73991l-4.47602,0c-4.06911,0 -7.46003,-3.51814 -7.46003,-7.73991l0,-11.11733c-8.8164,2.81451 -15.0557,9.71007 -15.73389,22.09393c-1.35637,0 -2.30583,1.12581 -2.30583,2.53306c0,1.40726 1.0851,2.53306 2.30583,2.53306zm23.19392,-12.52458l4.34038,0c1.89892,0 3.39092,-1.54798 3.39092,-3.51814l0,-11.82095c0,-1.97016 -1.49201,-3.51814 -3.39092,-3.51814l-4.34038,0c-1.89892,0 -3.39092,1.54798 -3.39092,3.51814l0,11.82095c0,1.82943 1.49201,3.51814 3.39092,3.51814z" class="st2"/>
  <path stroke="null" id="svg_49" fill="#FFFFFF" d="m465.34806,504.08911l5.1542,-7.17701l-5.1542,-5.34757l-6.91748,5.34757c-2.84838,-1.97016 -6.10366,-3.37742 -9.63022,-4.08104l-1.22073,-8.86572l-7.3244,0l-1.22073,8.86572c-3.52656,0.70363 -6.78185,2.11088 -9.63022,4.08104l-6.91748,-5.34757l-5.1542,5.34757l5.1542,7.17701c-1.89892,2.95524 -3.25529,6.33265 -3.93347,9.99152l-8.54513,1.26653l0,7.59918l8.54513,1.26653c0.67818,3.65887 2.03455,7.03628 3.93347,9.99152l-5.1542,7.17701l5.1542,5.34757l6.91748,-5.34757c2.84838,1.97016 6.10366,3.37742 9.63022,4.08104l1.22073,8.86572l7.3244,0l1.22073,-8.86572c3.52656,-0.70363 6.78185,-2.11088 9.63022,-4.08104l6.91748,5.34757l5.1542,-5.34757l-5.1542,-7.17701c1.89892,-2.95524 3.25529,-6.33265 3.93347,-9.99152l8.54513,-1.26653l0,-7.59918l-8.54513,-1.26653c-0.54255,-3.65887 -1.89892,-7.03628 -3.93347,-9.99152zm-11.52914,16.74635c-0.67818,4.36249 -4.06911,7.88064 -8.27385,8.58426c-6.78185,1.12581 -12.4786,-4.9254 -11.52914,-11.96168c0.67818,-4.36249 4.06911,-7.88064 8.27385,-8.58426c6.91748,-0.98508 12.61424,4.9254 11.52914,11.96168zm35.94379,-43.48422l0,-3.79959l-4.20475,-0.5629c-0.27127,-1.82943 -1.0851,-3.51814 -2.03455,-4.9254l2.5771,-3.51814l-2.5771,-2.67379l-3.39092,2.67379c-1.49201,-0.98508 -3.11965,-1.68871 -4.74729,-2.11088l-0.54255,-4.36249l-3.6622,0l-0.54255,4.36249c-1.76328,0.28145 -3.39092,1.12581 -4.74729,2.11088l-3.39092,-2.67379l-2.5771,2.67379l2.5771,3.51814c-0.94946,1.54798 -1.62764,3.23669 -2.03455,4.9254l-4.20475,0.5629l0,3.79959l4.20475,0.5629c0.27127,1.82943 1.0851,3.51814 2.03455,4.9254l-2.5771,3.51814l2.5771,2.67379l3.39092,-2.67379c1.49201,0.98508 3.11965,1.68871 4.74729,2.11088l0.54255,4.36249l3.6622,0l0.54255,-4.36249c1.76328,-0.28145 3.39092,-1.12581 4.74729,-2.11088l3.39092,2.67379l2.5771,-2.67379l-2.5771,-3.51814c0.94946,-1.54798 1.62764,-3.23669 2.03455,-4.9254l4.20475,-0.5629zm-12.07169,-0.5629c-0.40691,1.82943 -1.89892,3.23669 -3.6622,3.79959c-3.6622,0.98508 -7.05312,-2.39234 -6.10366,-6.33265c0.40691,-1.82943 1.89892,-3.23669 3.6622,-3.79959c3.6622,-0.98508 7.05312,2.39234 6.10366,6.33265z" class="st2"/>
  <g stroke="null" id="svg_50">
   <path stroke="null" id="svg_51" fill="#214178" d="m308.82302,472.98874l-66.86901,0c-7.46003,0 -13.56369,-6.33265 -13.56369,-14.07256l0,-69.37774c0,-7.73991 6.10366,-14.07256 13.56369,-14.07256l66.86901,0c7.46003,0 13.56369,6.33265 13.56369,14.07256l0,69.37774c0,7.88064 -6.10366,14.07256 -13.56369,14.07256z" class="st8"/>
   <polygon stroke="null" id="svg_52" fill="#FFFFFF" points="250.90604737015747,429.22305277895794 290.2407539420383,385.5981124293903 280.61052075436237,419.51300094025646 299.8709871297142,419.51300094025646 260.5362805578334,462.997220779871 270.1665137455093,429.22305277895794 " class="st2"/>
  </g>
  <g stroke="null" id="svg_53">
   <path stroke="null" id="svg_54" fill="#214178" d="m1081.13979,317.76836l0,69.37774c0,7.73991 6.10366,14.07256 13.56369,14.07256l66.86901,0c7.46003,0 13.56369,-6.33265 13.56369,-14.07256l0,-69.37774c0,-7.73991 -6.10366,-14.07256 -13.56369,-14.07256l-66.86901,0c-7.46003,0 -13.56369,6.33265 -13.56369,14.07256z" class="st8"/>
   <path stroke="null" id="svg_55" fill="#FFFFFF" d="m1140.14186,335.64052l-24.00774,0c-2.30583,0 -4.06911,1.82943 -4.06911,4.22177l0,24.90844c0,2.39234 1.76328,4.22177 4.06911,4.22177l24.00774,0c2.30583,0 4.06911,-1.82943 4.06911,-4.22177l0,-24.76771c0,-2.39234 -1.76328,-4.36249 -4.06911,-4.36249zm18.85354,12.24313c0.81382,0 1.35637,-0.70363 1.35637,-1.40726c0,-0.84435 -0.67818,-1.40726 -1.35637,-1.40726l-9.22331,0l0,-3.09596l9.22331,0c0.81382,0 1.35637,-0.70363 1.35637,-1.40726s-0.67818,-1.40726 -1.35637,-1.40726l-9.22331,0c-0.40691,-4.78467 -4.06911,-8.58426 -8.68076,-9.00644l0,-9.56934c0,-0.84435 -0.67818,-1.40726 -1.35637,-1.40726c-0.81382,0 -1.35637,0.70363 -1.35637,1.40726l0,9.56934l-2.98401,0l0,-9.56934c0,-0.84435 -0.67818,-1.40726 -1.35637,-1.40726c-0.81382,0 -1.35637,0.70363 -1.35637,1.40726l0,9.56934l-2.98401,0l0,-9.56934c0,-0.84435 -0.67818,-1.40726 -1.35637,-1.40726s-1.35637,0.70363 -1.35637,1.40726l0,9.56934l-2.98401,0l0,-9.56934c0,-0.84435 -0.67818,-1.40726 -1.35637,-1.40726c-0.81382,0 -1.35637,0.70363 -1.35637,1.40726l0,9.56934l-2.98401,0l0,-9.56934c0,-0.84435 -0.67818,-1.40726 -1.35637,-1.40726c-0.81382,0 -1.35637,0.70363 -1.35637,1.40726l0,9.56934c-4.61166,0.42218 -8.27385,4.22177 -8.68076,9.00644l-9.22331,0c-0.81382,0 -1.35637,0.70363 -1.35637,1.40726s0.67818,1.40726 1.35637,1.40726l9.22331,0l0,3.09596l-9.22331,0c-0.81382,0 -1.35637,0.70363 -1.35637,1.40726c0,0.84435 0.67818,1.40726 1.35637,1.40726l9.22331,0l0,3.09596l-9.22331,0c-0.81382,0 -1.35637,0.70363 -1.35637,1.40726c0,0.84435 0.67818,1.40726 1.35637,1.40726l9.22331,0l0,3.09596l-9.22331,0c-0.81382,0 -1.35637,0.70363 -1.35637,1.40726c0,0.84435 0.67818,1.40726 1.35637,1.40726l9.22331,0l0,3.09596l-9.22331,0c-0.81382,0 -1.35637,0.70363 -1.35637,1.40726c0,0.84435 0.67818,1.40726 1.35637,1.40726l9.22331,0c0.40691,4.78467 4.06911,8.58426 8.68076,9.00644l0,9.56934c0,0.84435 0.67818,1.40726 1.35637,1.40726c0.81382,0 1.35637,-0.70363 1.35637,-1.40726l0,-9.56934l2.98401,0l0,9.56934c0,0.84435 0.67818,1.40726 1.35637,1.40726c0.81382,0 1.35637,-0.70363 1.35637,-1.40726l0,-9.56934l2.98401,0l0,9.56934c0,0.84435 0.67818,1.40726 1.35637,1.40726s1.35637,-0.70363 1.35637,-1.40726l0,-9.56934l2.98401,0l0,9.56934c0,0.84435 0.67818,1.40726 1.35637,1.40726c0.81382,0 1.35637,-0.70363 1.35637,-1.40726l0,-9.56934l2.98401,0l0,9.56934c0,0.84435 0.67818,1.40726 1.35637,1.40726c0.81382,0 1.35637,-0.70363 1.35637,-1.40726l0,-9.56934c4.61166,-0.42218 8.27385,-4.22177 8.68076,-9.00644l9.22331,0c0.81382,0 1.35637,-0.70363 1.35637,-1.40726c0,-0.84435 -0.67818,-1.40726 -1.35637,-1.40726l-9.22331,0l0,-3.09596l9.22331,0c0.81382,0 1.35637,-0.70363 1.35637,-1.40726c0,-0.84435 -0.67818,-1.40726 -1.35637,-1.40726l-9.22331,0l0,-3.09596l9.22331,0c0.81382,0 1.35637,-0.70363 1.35637,-1.40726c0,-0.84435 -0.67818,-1.40726 -1.35637,-1.40726l-9.22331,0l0,-3.09596l9.22331,0zm-11.93605,17.0278c0,3.94032 -3.11965,7.17701 -6.91748,7.17701l-24.00774,0c-3.79783,0 -6.91748,-3.23669 -6.91748,-7.17701l0,-24.90844c0,-3.94032 3.11965,-7.17701 6.91748,-7.17701l24.00774,0c3.79783,0 6.91748,3.23669 6.91748,7.17701l0,24.90844z" class="st2"/>
  </g>
  <path stroke="null" id="svg_56" fill="#214178" d="m753.03402,589.08739l-106.61064,0c-16.1408,0 -29.29758,-13.65039 -29.29758,-30.39674l0,0c0,-16.74635 13.15678,-30.39674 29.29758,-30.39674l106.61064,0c16.1408,0 29.29758,13.65039 29.29758,30.39674l0,0c0,16.74635 -13.02115,30.39674 -29.29758,30.39674z" class="st8"/>
  <g stroke="null" id="svg_57">
   <ellipse stroke="null" id="svg_58" fill="#FFFFFF" ry="14.8" rx="14.8" cy="404.48924" cx="265.82972" class="st2" transform="matrix(0.21729 -1.3891 1.33887 0.225442 52.0575 836.734)"/>
   <path stroke="null" id="svg_59" fill="#214178" d="m667.58274,558.69065l-4.74729,0c0,-6.61411 -5.1542,-11.96168 -11.52914,-11.96168c-6.37494,0 -11.52914,5.34757 -11.52914,11.96168l-4.74729,0c0,-9.28789 7.3244,-16.88708 16.27643,-16.88708c8.95204,0 16.27643,7.59918 16.27643,16.88708z" class="st8"/>
   <path stroke="null" id="svg_60" fill="#ED8B00" d="m654.69724,557.70557l0,0l-1.89892,-8.30281l0,0c-0.13564,-0.84435 -0.67818,-1.40726 -1.49201,-1.40726c-0.81382,0 -1.49201,0.70363 -1.49201,1.40726l0,0l-1.89892,8.30281l0,0c-0.13564,0.28145 -0.13564,0.5629 -0.13564,0.98508c0,1.97016 1.62764,3.65887 3.52656,3.65887c1.89892,0 3.52656,-1.68871 3.52656,-3.65887c0,-0.42218 0,-0.70363 -0.13564,-0.98508z" class="st0"/>
   <ellipse stroke="null" id="svg_61" fill="#FFFFFF" ry="14.8" rx="14.8" cy="404.48924" cx="301.52972" class="st2" transform="matrix(0.21729 -1.3891 1.33887 0.225442 92.7355 886.339)"/>
   <path stroke="null" id="svg_62" fill="#214178" d="m716.00513,558.69065l-4.74729,0c0,-6.61411 -5.1542,-11.96168 -11.52914,-11.96168c-6.37494,0 -11.52914,5.34757 -11.52914,11.96168l-4.74729,0c0,-9.28789 7.3244,-16.88708 16.27643,-16.88708c8.95204,0 16.27643,7.59918 16.27643,16.88708z" class="st8"/>
   <path stroke="null" id="svg_63" fill="#ED8B00" d="m698.23669,561.92734l0,0l7.3244,3.94032l0,0c0.67818,0.42218 1.49201,0.42218 2.03455,-0.28145c0.54255,-0.70363 0.54255,-1.54798 0,-2.25161l0,0l-4.88293,-6.89556l0,0c-0.13564,-0.28145 -0.40691,-0.5629 -0.54255,-0.70363c-1.49201,-1.26653 -3.79783,-1.12581 -5.01857,0.42218c-1.22073,1.54798 -1.0851,3.94032 0.40691,5.20685c0.13564,0.28145 0.40691,0.42218 0.67818,0.5629z" class="st0"/>
   <ellipse stroke="null" id="svg_64" fill="#FFFFFF" ry="14.8" rx="14.8" cy="404.48924" cx="337.22972" class="st2" transform="matrix(0.21729 -1.3891 1.33887 0.225442 133.413 935.944)"/>
   <path stroke="null" id="svg_65" fill="#214178" d="m764.42752,558.69065l-4.74729,0c0,-6.61411 -5.1542,-11.96168 -11.52914,-11.96168s-11.52914,5.34757 -11.52914,11.96168l-4.74729,0c0,-9.28789 7.3244,-16.88708 16.27643,-16.88708c8.95204,0 16.27643,7.59918 16.27643,16.88708z" class="st8"/>
   <path stroke="null" id="svg_66" fill="#ED8B00" d="m747.33727,555.03179l0,0l-8.00258,1.97016l0,0c-0.81382,0.14073 -1.35637,0.70363 -1.35637,1.54798c0,0.84435 0.67818,1.54798 1.35637,1.54798l0,0l8.00258,1.97016l0,0c0.27127,0.14073 0.54255,0.14073 0.94946,0.14073c1.89892,0 3.52656,-1.68871 3.52656,-3.65887c0,-1.97016 -1.62764,-3.65887 -3.52656,-3.65887c-0.40691,0 -0.67818,0.14073 -0.94946,0.14073z" class="st0"/>
  </g>
  <g stroke="null" id="svg_67">
   <path stroke="null" id="svg_68" fill="#057ED8" d="m148.77143,385.45739l0,39.26245c0,5.4883 4.20475,9.85079 9.49459,9.85079l37.84271,0c5.28984,0 9.49459,-4.36249 9.49459,-9.85079l0,-39.26245c0,-5.4883 -4.20475,-9.85079 -9.49459,-9.85079l-37.84271,0c-5.1542,0 -9.49459,4.36249 -9.49459,9.85079z" class="st6"/>
   <path stroke="null" id="svg_69" fill="#0A84F2" d="m70.64455,385.45739l0,39.26245c0,5.4883 4.20475,9.85079 9.49459,9.85079l37.84271,0c5.28984,0 9.49459,-4.36249 9.49459,-9.85079l0,-39.26245c0,-5.4883 -4.20475,-9.85079 -9.49459,-9.85079l-37.84271,0c-5.28984,0 -9.49459,4.36249 -9.49459,9.85079z" class="st3"/>
   <path stroke="null" id="svg_70" fill="#FFFFFF" d="m87.87044,405.44043l-0.13564,0c-1.89892,0 -3.39092,1.54798 -3.39092,3.51814l0,7.31773c0,1.97016 1.49201,3.51814 3.39092,3.51814l0.13564,0c1.89892,0 3.39092,-1.54798 3.39092,-3.51814l0,-7.31773c0.13564,-1.82943 -1.49201,-3.51814 -3.39092,-3.51814zm10.71532,-9.14717l-0.13564,0c-1.89892,0 -3.39092,1.54798 -3.39092,3.51814l0,16.4649c0,1.97016 1.49201,3.51814 3.39092,3.51814l0.13564,0c1.89892,0 3.39092,-1.54798 3.39092,-3.51814l0,-16.4649c0,-1.82943 -1.49201,-3.51814 -3.39092,-3.51814zm10.57968,-10.9766l-0.13564,0c-1.89892,0 -3.39092,1.54798 -3.39092,3.51814l0,27.58223c0,1.97016 1.49201,3.51814 3.39092,3.51814l0.13564,0c1.89892,0 3.39092,-1.54798 3.39092,-3.51814l0,-27.58223c0,-1.97016 -1.49201,-3.51814 -3.39092,-3.51814z" class="st2"/>
   <path stroke="null" id="svg_71" fill="#FFFFFF" d="m175.35627,398.96705l-10.30841,0l0,13.22821l-5.56111,0l10.71532,11.11733l10.71532,-11.11733l-5.56111,0l0,-13.22821zm8.95204,-15.05764l-10.71532,11.11733l5.56111,0l0,13.22821l10.30841,0l0,-13.22821l5.56111,0l-10.71532,-11.11733z" class="st2"/>
  </g>
  <g stroke="null" id="svg_72">
   <path stroke="null" id="svg_73" fill="#005EB8" d="m1198.05884,313.12441l0,39.26245c0,5.4883 4.20475,9.85079 9.49459,9.85079l37.84271,0c5.28984,0 9.49459,-4.36249 9.49459,-9.85079l0,-39.26245c0,-5.4883 -4.20475,-9.85079 -9.49459,-9.85079l-37.84271,0c-5.28984,0 -9.49459,4.50322 -9.49459,9.85079z" class="st4"/>
   <path stroke="null" id="svg_74" fill="#1B71DE" d="m1276.72827,313.12441l0,39.26245c0,5.4883 4.20475,9.85079 9.49459,9.85079l37.84271,0c5.28984,0 9.49459,-4.36249 9.49459,-9.85079l0,-39.26245c0,-5.4883 -4.20475,-9.85079 -9.49459,-9.85079l-37.84271,0c-5.28984,0 -9.49459,4.50322 -9.49459,9.85079z" class="st9"/>
   <path stroke="null" id="svg_75" fill="#FFFFFF" d="m1305.07639,315.2353c-6.91748,0 -12.61424,5.91048 -12.61424,13.08748c0,7.17701 12.61424,22.09393 12.61424,22.09393s12.61424,-14.77619 12.61424,-22.09393c0,-7.17701 -5.56111,-13.08748 -12.61424,-13.08748zm0,18.01288c-2.5771,0 -4.74729,-2.25161 -4.74729,-4.9254c0,-2.67379 2.17019,-4.9254 4.74729,-4.9254c2.5771,0 4.74729,2.25161 4.74729,4.9254c0,2.81451 -2.03455,4.9254 -4.74729,4.9254z" class="st2"/>
   <g stroke="null" id="svg_76">
    <path stroke="null" id="svg_77" fill="#FFFFFF" d="m1208.09597,337.61068l0,-17.44998c0,-0.98508 0.81382,-1.82943 1.76328,-1.82943l16.95462,0c0.94946,0 1.76328,0.84435 1.76328,1.82943l0,17.5907c0,0.28145 -0.27127,0.5629 -0.54255,0.5629l-19.39608,0c-0.40691,-0.14073 -0.54255,-0.28145 -0.54255,-0.70363zm13.56369,6.0512c0,1.97016 -1.62764,3.65887 -3.52656,3.65887c-1.89892,0 -3.52656,-1.68871 -3.52656,-3.65887c0,-1.97016 1.62764,-3.65887 3.52656,-3.65887c1.89892,0 3.52656,1.68871 3.52656,3.65887zm-1.76328,0c0,-0.98508 -0.81382,-1.82943 -1.76328,-1.82943c-0.94946,0 -1.76328,0.84435 -1.76328,1.82943c0,0.98508 0.81382,1.82943 1.76328,1.82943c0.94946,0 1.76328,-0.84435 1.76328,-1.82943zm-4.74729,-3.65887l-7.86694,0c-0.27127,0 -0.54255,0.28145 -0.54255,0.5629l0,1.82943c0,0.28145 0.27127,0.5629 0.54255,0.5629l6.37494,0c0,-1.12581 0.67818,-2.25161 1.49201,-2.95524zm24.9572,3.65887c0,1.97016 -1.62764,3.65887 -3.52656,3.65887s-3.52656,-1.68871 -3.52656,-3.65887c0,-1.97016 1.62764,-3.65887 3.52656,-3.65887c1.89892,0 3.52656,1.68871 3.52656,3.65887zm-1.76328,0c0,-0.98508 -0.81382,-1.82943 -1.76328,-1.82943s-1.76328,0.84435 -1.76328,1.82943c0,0.98508 0.81382,1.82943 1.76328,1.82943c0.94946,0 1.76328,-0.84435 1.76328,-1.82943zm8.00258,-3.09596l0,1.82943c0,0.28145 -0.27127,0.5629 -0.54255,0.5629l-4.61166,0c-0.27127,-2.39234 -2.30583,-4.08104 -4.61166,-4.08104c-2.30583,0 -4.34038,1.82943 -4.61166,4.08104l-9.22331,0c-0.13564,-1.12581 -0.67818,-2.25161 -1.62764,-2.95524l8.8164,0l0,-16.88708c0,-0.70363 0.54255,-1.12581 1.0851,-1.12581l5.28984,0c1.49201,0 2.84838,0.84435 3.79783,2.11088l3.39092,5.34757c0.54255,0.84435 0.81382,1.68871 0.81382,2.67379l0,8.02136l1.35637,0c0.40691,-0.14073 0.67818,0.14073 0.67818,0.42218zm-5.69675,-11.11733l-2.71274,-4.08104c-0.13564,-0.14073 -0.27127,-0.28145 -0.40691,-0.28145l-4.47602,0c-0.27127,0 -0.54255,0.28145 -0.54255,0.5629l0,4.08104c0,0.28145 0.27127,0.5629 0.54255,0.5629l7.05312,0c0.54255,0.14073 0.81382,-0.42218 0.54255,-0.84435z" class="st2"/>
   </g>
  </g>
  <g stroke="null" id="svg_133">
   <circle stroke="null" id="svg_134" fill="#E87400" r="10.3716" cy="432.28234" cx="699.71322" class="st7"/>
   <path stroke="null" id="svg_135" fill="#E87400" d="m635.3693,359.53636c35.54483,-40.0249 93.40246,-40.0249 128.94729,0c0.5189,0.58431 0.5189,2.04507 0,2.62937l-7.78354,8.76458c-0.5189,0.58431 -1.81616,0.58431 -2.33506,0c-30.09635,-33.88969 -78.61374,-33.88969 -108.71009,0l0,0c-0.5189,0.58431 -1.81616,0.58431 -2.33506,0l0,0l-7.78354,-8.76458c-0.77835,-0.58431 -0.77835,-1.75292 0,-2.62937l0,0z" class="st7"/>
   <path stroke="null" id="svg_136" fill="#E87400" d="m699.71322,359.53636c17.12378,0 33.72867,7.59597 45.66343,21.32714c0.5189,0.58431 0.5189,2.04507 0,2.62937l-7.78354,8.76458c-0.5189,0.58431 -1.81616,0.58431 -2.33506,0c-19.7183,-22.20359 -51.37135,-22.20359 -71.08965,0c-0.5189,0.58431 -1.81616,0.58431 -2.33506,0l-7.78354,-8.76458c-0.5189,-0.58431 -0.5189,-2.04507 0,-2.62937c12.19421,-13.73117 28.53964,-21.32714 45.66343,-21.32714l0,0z" class="st7"/>
   <path stroke="null" id="svg_137" fill="#E87400" d="m699.71322,389.33591c10.1186,0 19.7183,4.38229 26.98293,12.56256c0.5189,0.58431 0.5189,2.04507 0,2.62937c0,0 0,0 0,0l-7.78354,8.76458c-0.5189,0.58431 -1.81616,0.58431 -2.33506,0l0,0c-9.34025,-10.51749 -24.38842,-10.51749 -33.72867,0l0,0c-0.5189,0.58431 -1.81616,0.58431 -2.33506,0l-7.78354,-8.76458c-0.5189,-0.58431 -0.5189,-2.04507 0,-2.62937l0,0c7.26464,-8.18027 16.86433,-12.56256 26.98293,-12.56256z" class="st7"/>
  </g>
  <g stroke="null" id="svg_139">
   <g stroke="null" id="svg_140">
    <path stroke="null" id="svg_141" fill="#ED8B00" d="m277.21961,279.49099l0,43.76567l-45.43838,0l0,-43.76567l13.02115,0l6.37494,6.61411l6.37494,0l6.37494,-6.61411l13.29242,0z" class="st0"/>
    <path stroke="null" id="svg_142" fill="#0A84F2" d="m244.66675,279.49099l19.39608,0l0,13.50966l-19.39608,0l0,-13.50966z" class="st3"/>
    <path stroke="null" id="svg_143" fill="#005EB8" d="m254.56824,279.49099l9.76586,0l0,13.50966l-9.76586,0l0,-13.50966z" class="st4"/>
    <path stroke="null" id="svg_144" fill="#ED8B00" d="m329.16857,279.49099l0,43.76567l-45.57401,0l0,-43.76567l13.02115,0l6.37494,6.61411l6.37494,0l6.37494,-6.61411l13.42806,0z" class="st0"/>
    <path stroke="null" id="svg_145" fill="#0A84F2" d="m296.6157,279.49099l19.39608,0l0,13.50966l-19.39608,0l0,-13.50966z" class="st3"/>
    <path stroke="null" id="svg_146" fill="#005EB8" d="m306.38156,279.49099l9.76586,0l0,13.50966l-9.76586,0l0,-13.50966z" class="st4"/>
    <path stroke="null" id="svg_147" fill="#FBB040" d="m303.26191,239.10273l0,40.38826l-45.43838,0l0,-40.38826l13.02115,0l6.37494,6.61411l6.37494,0l6.37494,-6.61411l13.29242,0z" class="st1"/>
    <path stroke="null" id="svg_148" fill="#0A84F2" d="m270.70904,239.10273l19.39608,0l0,13.50966l-19.39608,0l0,-13.50966z" class="st3"/>
    <path stroke="null" id="svg_149" fill="#005EB8" d="m280.4749,239.10273l9.76586,0l0,13.50966l-9.76586,0l0,-13.50966z" class="st4"/>
    <path stroke="null" id="svg_150" fill="#EAEAEA" d="m223.50738,323.25666l8.8164,0l0,18.29433l-8.8164,0l0,-18.29433z" class="st12"/>
    <path stroke="null" id="svg_151" fill="#EAEAEA" d="m258.63735,323.25666l8.8164,0l0,18.29433l-8.8164,0l0,-18.29433z" class="st12"/>
    <path stroke="null" id="svg_152" fill="#EAEAEA" d="m293.63169,323.25666l8.8164,0l0,18.29433l-8.8164,0l0,-18.29433z" class="st12"/>
    <path stroke="null" id="svg_153" fill="#EAEAEA" d="m328.76165,323.25666l8.8164,0l0,18.29433l-8.8164,0l0,-18.29433z" class="st12"/>
    <path stroke="null" id="svg_154" fill="#DADFE3" d="m205.73894,318.75344l149.74319,0l0,9.14717l-149.74319,0l0,-9.14717z" class="st5"/>
    <path stroke="null" id="svg_155" fill="#DADFE3" d="m205.73894,337.04777l149.74319,0l0,9.14717l-149.74319,0l0,-9.14717z" class="st5"/>
   </g>
  </g>
  <g stroke="null" id="svg_156">
   <path stroke="null" id="svg_157" fill="#9FCAF4" d="m1055.14804,210.11325l0,6.61411l-4.74729,0l0,-18.01288l5.69675,0c4.74729,0 7.05312,1.82943 7.05312,5.34757c0,2.11088 -0.94946,3.65887 -2.98401,4.9254l5.01857,7.88064l-5.28984,0l-3.6622,-6.61411l-1.0851,0l0,-0.14073zm0,-3.65887l0.94946,0c1.62764,0 2.44147,-0.70363 2.44147,-2.25161c0,-1.26653 -0.81382,-1.82943 -2.44147,-1.82943l-0.94946,0l0,4.08104z" class="st13"/>
   <path stroke="null" id="svg_158" fill="#9FCAF4" d="m1077.25686,216.72735l-10.30841,0l0,-18.01288l10.30841,0l0,3.94032l-5.69675,0l0,2.81451l5.1542,0l0,3.94032l-5.1542,0l0,3.37742l5.69675,0l0,3.94032z" class="st13"/>
   <path stroke="null" id="svg_159" fill="#9FCAF4" d="m1095.16094,207.29873c0,2.95524 -0.81382,5.34757 -2.44147,7.03628s-3.79783,2.39234 -6.78185,2.39234l-5.69675,0l0,-18.01288l5.96803,0c2.84838,0 5.01857,0.70363 6.51057,2.25161s2.44147,3.51814 2.44147,6.33265zm-4.88293,0.28145c0,-1.68871 -0.27127,-2.95524 -0.94946,-3.65887s-1.62764,-1.26653 -2.84838,-1.26653l-1.35637,0l0,10.13225l1.0851,0c1.49201,0 2.44147,-0.42218 3.11965,-1.26653s0.94946,-2.25161 0.94946,-3.94032z" class="st13"/>
   <path stroke="null" id="svg_160" fill="#9FCAF4" d="m1113.06502,198.71447l0,10.83587c0,2.39234 -0.67818,4.22177 -1.89892,5.4883c-1.35637,1.26653 -3.11965,1.97016 -5.56111,1.97016c-2.44147,0 -4.20475,-0.5629 -5.42548,-1.82943s-1.89892,-3.09596 -1.89892,-5.4883l0,-10.9766l4.74729,0l0,10.55442c0,1.26653 0.27127,2.25161 0.67818,2.81451s1.0851,0.84435 2.03455,0.84435c0.94946,0 1.62764,-0.28145 2.03455,-0.84435s0.67818,-1.54798 0.67818,-2.81451l0,-10.55442l4.61166,0z" class="st13"/>
   <path stroke="null" id="svg_161" fill="#9FCAF4" d="m1124.45852,202.37334c-1.0851,0 -2.03455,0.42218 -2.5771,1.40726c-0.67818,0.98508 -0.94946,2.25161 -0.94946,3.94032c0,3.51814 1.22073,5.20685 3.79783,5.20685c0.81382,0 1.49201,-0.14073 2.30583,-0.28145s1.49201,-0.42218 2.17019,-0.84435l0,4.08104c-1.49201,0.70363 -3.11965,0.98508 -4.88293,0.98508c-2.5771,0 -4.61166,-0.84435 -6.10366,-2.39234s-2.17019,-3.65887 -2.17019,-6.75483c0,-1.82943 0.40691,-3.51814 1.0851,-4.9254s1.62764,-2.53306 2.98401,-3.23669s2.71274,-1.12581 4.47602,-1.12581c1.89892,0 3.6622,0.42218 5.42548,1.26653l-1.49201,3.79959c-0.67818,-0.28145 -1.22073,-0.5629 -1.89892,-0.84435s-1.35637,-0.28145 -2.17019,-0.28145z" class="st13"/>
   <path stroke="null" id="svg_162" fill="#9FCAF4" d="m1142.90514,216.72735l-10.30841,0l0,-18.01288l10.30841,0l0,3.94032l-5.69675,0l0,2.81451l5.1542,0l0,3.94032l-5.1542,0l0,3.37742l5.69675,0l0,3.94032z" class="st13"/>
   <path stroke="null" id="svg_163" fill="#9FCAF4" d="m1160.80922,207.29873c0,2.95524 -0.81382,5.34757 -2.44147,7.03628s-3.79783,2.39234 -6.78185,2.39234l-5.69675,0l0,-18.01288l5.96803,0c2.84838,0 5.01857,0.70363 6.51057,2.25161s2.44147,3.51814 2.44147,6.33265zm-4.88293,0.28145c0,-1.68871 -0.27127,-2.95524 -0.94946,-3.65887s-1.62764,-1.26653 -2.84838,-1.26653l-1.35637,0l0,10.13225l1.0851,0c1.49201,0 2.44147,-0.42218 3.11965,-1.26653s0.94946,-2.25161 0.94946,-3.94032z" class="st13"/>
   <path stroke="null" id="svg_164" fill="#9FCAF4" d="m1177.76384,216.72735l-3.52656,-13.08748l-0.13564,0c0.27127,2.25161 0.27127,4.08104 0.27127,5.20685l0,7.88064l-4.20475,0l0,-18.01288l6.2393,0l3.6622,12.80603l0.13564,0l3.52656,-12.80603l6.2393,0l0,18.01288l-4.34038,0l0,-7.88064c0,-0.42218 0,-0.84435 0,-1.40726s0,-1.68871 0.13564,-3.65887l-0.13564,0l-3.52656,12.94676l-4.34038,0z" class="st13"/>
   <path stroke="null" id="svg_165" fill="#9FCAF4" d="m1204.48432,216.72735l-0.81382,-3.37742l-5.69675,0l-0.94946,3.37742l-5.01857,0l5.69675,-18.15361l6.2393,0l5.69675,18.15361l-5.1542,0zm-1.76328,-7.31773l-0.81382,-2.95524c-0.13564,-0.70363 -0.40691,-1.54798 -0.67818,-2.53306s-0.40691,-1.82943 -0.54255,-2.25161c-0.13564,0.42218 -0.27127,1.12581 -0.40691,2.11088s-0.67818,2.81451 -1.35637,5.76975l3.79783,0l0,-0.14073z" class="st13"/>
   <path stroke="null" id="svg_166" fill="#9FCAF4" d="m1228.22078,216.72735l-6.2393,0l-6.37494,-12.80603l-0.13564,0c0.13564,1.97016 0.27127,3.51814 0.27127,4.64395l0,8.16209l-4.20475,0l0,-18.01288l6.10366,0l6.37494,12.52458l0.13564,0c-0.13564,-1.82943 -0.13564,-3.23669 -0.13564,-4.36249l0,-8.16209l4.20475,0l0,18.01288z" class="st13"/>
   <path stroke="null" id="svg_167" fill="#9FCAF4" d="m1246.80305,198.71447l0,10.83587c0,2.39234 -0.67818,4.22177 -1.89892,5.4883c-1.35637,1.26653 -3.11965,1.97016 -5.56111,1.97016c-2.44147,0 -4.20475,-0.5629 -5.42548,-1.82943s-1.89892,-3.09596 -1.89892,-5.4883l0,-10.9766l4.74729,0l0,10.55442c0,1.26653 0.27127,2.25161 0.67818,2.81451s1.0851,0.84435 2.03455,0.84435c0.94946,0 1.62764,-0.28145 2.03455,-0.84435s0.67818,-1.54798 0.67818,-2.81451l0,-10.55442l4.61166,0z" class="st13"/>
   <path stroke="null" id="svg_168" fill="#9FCAF4" d="m1255.0769,216.72735l-4.61166,0l0,-18.01288l10.30841,0l0,3.94032l-5.69675,0l0,3.51814l5.1542,0l0,3.94032l-5.1542,0l0,6.61411z" class="st13"/>
   <path stroke="null" id="svg_169" fill="#9FCAF4" d="m1274.20171,216.72735l-0.81382,-3.37742l-5.69675,0l-0.94946,3.37742l-5.1542,0l5.69675,-18.15361l6.2393,0l5.69675,18.15361l-5.01857,0zm-1.76328,-7.31773l-0.81382,-2.95524c-0.13564,-0.70363 -0.40691,-1.54798 -0.67818,-2.53306s-0.27127,-1.82943 -0.40691,-2.39234c-0.13564,0.42218 -0.27127,1.12581 -0.40691,2.11088s-0.67818,2.81451 -1.35637,5.76975l3.6622,0z" class="st13"/>
   <path stroke="null" id="svg_170" fill="#9FCAF4" d="m1288.98614,202.37334c-1.0851,0 -2.03455,0.42218 -2.5771,1.40726c-0.67818,0.98508 -0.94946,2.25161 -0.94946,3.94032c0,3.51814 1.22073,5.20685 3.79783,5.20685c0.81382,0 1.49201,-0.14073 2.30583,-0.28145s1.49201,-0.42218 2.17019,-0.84435l0,4.08104c-1.49201,0.70363 -3.11965,0.98508 -4.88293,0.98508c-2.5771,0 -4.61166,-0.84435 -6.10366,-2.39234s-2.17019,-3.94032 -2.17019,-6.89556c0,-1.82943 0.40691,-3.51814 1.0851,-4.9254s1.62764,-2.53306 2.98401,-3.23669s2.71274,-1.12581 4.47602,-1.12581c1.89892,0 3.6622,0.42218 5.42548,1.26653l-1.49201,3.94032c-0.67818,-0.28145 -1.22073,-0.5629 -1.89892,-0.84435s-1.35637,-0.28145 -2.17019,-0.28145z" class="st13"/>
   <path stroke="null" id="svg_171" fill="#9FCAF4" d="m1304.85566,216.72735l-4.74729,0l0,-14.07256l-4.20475,0l0,-3.94032l13.15678,0l0,3.94032l-4.20475,0l0,14.07256z" class="st13"/>
   <path stroke="null" id="svg_172" fill="#9FCAF4" d="m1326.42193,198.71447l0,10.83587c0,2.39234 -0.67818,4.22177 -1.89892,5.4883c-1.35637,1.26653 -3.11965,1.97016 -5.56111,1.97016c-2.44147,0 -4.20475,-0.5629 -5.42548,-1.82943s-1.89892,-3.09596 -1.89892,-5.4883l0,-10.9766l4.74729,0l0,10.55442c0,1.26653 0.27127,2.25161 0.67818,2.81451s1.0851,0.84435 2.03455,0.84435c0.94946,0 1.62764,-0.28145 2.03455,-0.84435s0.67818,-1.54798 0.67818,-2.81451l0,-10.55442l4.61166,0z" class="st13"/>
   <path stroke="null" id="svg_173" fill="#9FCAF4" d="m1334.69579,210.11325l0,6.61411l-4.74729,0l0,-18.01288l5.69675,0c4.74729,0 7.05312,1.82943 7.05312,5.34757c0,2.11088 -0.94946,3.65887 -2.98401,4.9254l5.01857,7.88064l-5.28984,0l-3.6622,-6.61411l-1.0851,0l0,-0.14073zm0,-3.65887l0.94946,0c1.62764,0 2.44147,-0.70363 2.44147,-2.25161c0,-1.26653 -0.81382,-1.82943 -2.44147,-1.82943l-0.94946,0l0,4.08104z" class="st13"/>
   <path stroke="null" id="svg_174" fill="#9FCAF4" d="m1346.4962,216.72735l0,-18.01288l4.74729,0l0,18.01288l-4.74729,0z" class="st13"/>
   <path stroke="null" id="svg_175" fill="#9FCAF4" d="m1371.58904,216.72735l-6.2393,0l-6.37494,-12.80603l-0.13564,0c0.13564,1.97016 0.27127,3.51814 0.27127,4.64395l0,8.16209l-4.20475,0l0,-18.01288l6.10366,0l6.37494,12.52458l0.13564,0c-0.13564,-1.82943 -0.13564,-3.23669 -0.13564,-4.36249l0,-8.16209l4.20475,0l0,18.01288z" class="st13"/>
   <path stroke="null" id="svg_176" fill="#9FCAF4" d="m1382.43999,206.17293l7.46003,0l0,9.71007c-2.03455,0.70363 -4.34038,1.12581 -6.78185,1.12581c-2.71274,0 -4.74729,-0.84435 -6.2393,-2.39234s-2.17019,-3.94032 -2.17019,-6.89556c0,-2.95524 0.81382,-5.20685 2.44147,-6.75483s3.79783,-2.39234 6.78185,-2.39234c1.0851,0 2.17019,0.14073 3.11965,0.28145s1.76328,0.42218 2.5771,0.84435l-1.49201,3.79959c-1.22073,-0.70363 -2.5771,-0.98508 -4.06911,-0.98508c-1.35637,0 -2.44147,0.42218 -3.25529,1.40726c-0.81382,0.98508 -1.0851,2.25161 -1.0851,3.94032c0,1.68871 0.40691,2.95524 1.0851,3.79959s1.62764,1.26653 2.98401,1.26653c0.67818,0 1.35637,0 1.89892,-0.14073l0,-2.81451l-3.11965,0l0,-3.79959l-0.13564,0z" class="st13"/>
   <path stroke="null" id="svg_177" fill="#9FCAF4" d="m1058.13205,232.77008c-1.0851,0 -2.03455,0.42218 -2.5771,1.40726c-0.67818,0.98508 -0.94946,2.25161 -0.94946,3.94032c0,3.51814 1.22073,5.20685 3.79783,5.20685c0.81382,0 1.49201,-0.14073 2.30583,-0.28145s1.49201,-0.42218 2.17019,-0.84435l0,4.08104c-1.49201,0.70363 -3.11965,0.98508 -4.88293,0.98508c-2.5771,0 -4.61166,-0.84435 -6.10366,-2.39234s-2.17019,-3.94032 -2.17019,-6.89556c0,-1.82943 0.40691,-3.51814 1.0851,-4.9254s1.62764,-2.53306 2.98401,-3.23669s2.71274,-1.12581 4.47602,-1.12581c1.89892,0 3.6622,0.42218 5.42548,1.26653l-1.49201,3.79959c-0.67818,-0.28145 -1.22073,-0.5629 -1.89892,-0.84435s-1.35637,-0.14073 -2.17019,-0.14073z" class="st13"/>
   <path stroke="null" id="svg_178" fill="#9FCAF4" d="m1072.50957,235.72531l2.98401,-6.75483l5.1542,0l-5.69675,10.9766l0,7.03628l-4.74729,0l0,-6.89556l-5.69675,-11.11733l5.1542,0l2.84838,6.75483z" class="st13"/>
   <path stroke="null" id="svg_179" fill="#9FCAF4" d="m1090.27801,232.77008c-1.0851,0 -2.03455,0.42218 -2.5771,1.40726c-0.67818,0.98508 -0.94946,2.25161 -0.94946,3.94032c0,3.51814 1.22073,5.20685 3.79783,5.20685c0.81382,0 1.49201,-0.14073 2.30583,-0.28145s1.49201,-0.42218 2.17019,-0.84435l0,4.08104c-1.49201,0.70363 -3.11965,0.98508 -4.88293,0.98508c-2.5771,0 -4.61166,-0.84435 -6.10366,-2.39234s-2.17019,-3.94032 -2.17019,-6.89556c0,-1.82943 0.40691,-3.51814 1.0851,-4.9254s1.62764,-2.53306 2.98401,-3.23669s2.71274,-1.12581 4.47602,-1.12581c1.89892,0 3.6622,0.42218 5.42548,1.26653l-1.49201,3.79959c-0.67818,-0.28145 -1.22073,-0.5629 -1.89892,-0.84435s-1.49201,-0.14073 -2.17019,-0.14073z" class="st13"/>
   <path stroke="null" id="svg_180" fill="#9FCAF4" d="m1098.28059,247.12409l0,-18.01288l4.74729,0l0,14.07256l6.64621,0l0,3.94032l-11.3935,0z" class="st13"/>
   <path stroke="null" id="svg_181" fill="#9FCAF4" d="m1122.83088,247.12409l-10.30841,0l0,-18.01288l10.30841,0l0,3.94032l-5.69675,0l0,2.81451l5.1542,0l0,3.94032l-5.1542,0l0,3.37742l5.69675,0l0,3.94032z" class="st13"/>
   <path stroke="null" id="svg_182" fill="#9FCAF4" d="m1139.92113,247.12409l-4.74729,0l0,-14.07256l-4.20475,0l0,-3.94032l13.15678,0l0,3.94032l-4.20475,0l0,14.07256z" class="st13"/>
   <path stroke="null" id="svg_183" fill="#9FCAF4" d="m1146.70298,247.12409l0,-18.01288l4.74729,0l0,18.01288l-4.74729,0z" class="st13"/>
   <path stroke="null" id="svg_184" fill="#9FCAF4" d="m1162.84378,247.12409l-3.52656,-13.08748l-0.13564,0c0.13564,2.25161 0.27127,3.94032 0.27127,5.20685l0,7.88064l-4.20475,0l0,-18.01288l6.2393,0l3.6622,12.80603l0.13564,0l3.52656,-12.80603l6.2393,0l0,18.01288l-4.34038,0l0,-7.88064c0,-0.42218 0,-0.84435 0,-1.40726s0,-1.68871 0.13564,-3.65887l-0.13564,0l-3.52656,12.94676l-4.34038,0z" class="st13"/>
   <path stroke="null" id="svg_185" fill="#9FCAF4" d="m1189.15734,247.12409l-10.30841,0l0,-18.01288l10.30841,0l0,3.94032l-5.69675,0l0,2.81451l5.1542,0l0,3.94032l-5.1542,0l0,3.37742l5.69675,0l0,3.94032z" class="st13"/>
  </g>
  <g stroke="null" id="svg_186">
   <path stroke="null" id="svg_187" fill="#9FCAF4" d="m240.59764,556.86122l0,-18.01288l4.74729,0l0,14.07256l6.64621,0l0,3.94032l-11.3935,0z" class="st13"/>
   <path stroke="null" id="svg_188" fill="#9FCAF4" d="m271.11595,547.85478c0,3.09596 -0.67818,5.34757 -2.17019,6.89556s-3.52656,2.39234 -6.37494,2.39234c-2.71274,0 -4.88293,-0.84435 -6.2393,-2.39234s-2.17019,-3.94032 -2.17019,-6.89556c0,-2.95524 0.67818,-5.34757 2.17019,-6.89556s3.52656,-2.39234 6.37494,-2.39234c2.71274,0 4.88293,0.84435 6.2393,2.39234s2.17019,3.79959 2.17019,6.89556zm-12.07169,0c0,3.51814 1.22073,5.20685 3.52656,5.20685c1.22073,0 2.03455,-0.42218 2.71274,-1.26653s0.81382,-2.11088 0.81382,-3.94032c0,-1.82943 -0.27127,-3.09596 -0.81382,-3.94032s-1.49201,-1.26653 -2.5771,-1.26653c-2.44147,-0.14073 -3.6622,1.68871 -3.6622,5.20685z" class="st13"/>
   <path stroke="null" id="svg_189" fill="#9FCAF4" d="m293.08914,556.86122l-5.56111,0l-1.62764,-7.88064c-0.13564,-0.28145 -0.27127,-0.98508 -0.40691,-1.97016s-0.27127,-1.82943 -0.40691,-2.39234c0,0.5629 -0.13564,1.26653 -0.27127,1.97016c-0.13564,0.84435 -0.27127,1.54798 -0.40691,2.25161s-0.67818,3.37742 -1.76328,8.16209l-5.56111,0l-4.34038,-18.01288l4.47602,0l1.89892,9.00644c0.40691,1.97016 0.67818,3.65887 0.94946,4.78467c0.13564,-0.84435 0.27127,-1.97016 0.54255,-3.37742s0.54255,-2.67379 0.67818,-3.51814l1.49201,-6.89556l4.34038,0l1.49201,6.89556c0.27127,1.12581 0.54255,2.39234 0.81382,3.79959s0.40691,2.53306 0.54255,3.23669c0.13564,-0.98508 0.40691,-2.53306 0.81382,-4.78467l1.89892,-9.14717l4.47602,0l-4.06911,17.87216z" class="st13"/>
   <path stroke="null" id="svg_190" fill="#9FCAF4" d="m309.90812,556.86122l-10.30841,0l0,-18.01288l10.30841,0l0,3.94032l-5.69675,0l0,2.81451l5.1542,0l0,3.94032l-5.1542,0l0,3.37742l5.69675,0l0,3.94032z" class="st13"/>
   <path stroke="null" id="svg_191" fill="#9FCAF4" d="m317.63942,550.38784l0,6.61411l-4.74729,0l0,-18.01288l5.69675,0c4.74729,0 7.05312,1.82943 7.05312,5.34757c0,2.11088 -0.94946,3.65887 -2.98401,4.9254l5.01857,7.88064l-5.28984,0l-3.6622,-6.61411l-1.0851,0l0,-0.14073zm0,-3.79959l0.94946,0c1.62764,0 2.44147,-0.70363 2.44147,-2.25161c0,-1.26653 -0.81382,-1.82943 -2.44147,-1.82943l-0.94946,0l0,4.08104z" class="st13"/>
   <path stroke="null" id="svg_192" fill="#9FCAF4" d="m339.88388,556.86122l-10.30841,0l0,-18.01288l10.30841,0l0,3.94032l-5.69675,0l0,2.81451l5.1542,0l0,3.94032l-5.1542,0l0,3.37742l5.69675,0l0,3.94032z" class="st13"/>
   <path stroke="null" id="svg_193" fill="#9FCAF4" d="m357.65232,547.4326c0,2.95524 -0.81382,5.34757 -2.44147,7.03628s-3.79783,2.39234 -6.78185,2.39234l-5.69675,0l0,-18.01288l5.96803,0c2.84838,0 5.01857,0.70363 6.51057,2.25161s2.44147,3.51814 2.44147,6.33265zm-4.88293,0.28145c0,-1.68871 -0.27127,-2.95524 -0.94946,-3.65887s-1.62764,-1.26653 -2.84838,-1.26653l-1.35637,0l0,10.13225l1.0851,0c1.49201,0 2.44147,-0.42218 3.11965,-1.26653s0.94946,-2.25161 0.94946,-3.94032z" class="st13"/>
   <path stroke="null" id="svg_194" fill="#9FCAF4" d="m149.0427,578.25152c0,3.09596 -0.67818,5.34757 -2.17019,6.89556s-3.52656,2.39234 -6.37494,2.39234c-2.71274,0 -4.88293,-0.84435 -6.2393,-2.39234s-2.17019,-3.94032 -2.17019,-6.89556c0,-2.95524 0.67818,-5.34757 2.17019,-6.89556s3.52656,-2.39234 6.37494,-2.39234c2.71274,0 4.88293,0.84435 6.2393,2.39234s2.17019,3.79959 2.17019,6.89556zm-12.07169,0c0,3.51814 1.22073,5.20685 3.52656,5.20685c1.22073,0 2.03455,-0.42218 2.71274,-1.26653s0.81382,-2.11088 0.81382,-3.94032c0,-1.82943 -0.27127,-3.09596 -0.81382,-3.94032s-1.49201,-1.26653 -2.5771,-1.26653c-2.44147,-0.14073 -3.6622,1.68871 -3.6622,5.20685z" class="st13"/>
   <path stroke="null" id="svg_195" fill="#9FCAF4" d="m164.77659,575.01483c0,1.97016 -0.54255,3.51814 -1.76328,4.64395c-1.0851,1.12581 -2.71274,1.68871 -4.88293,1.68871l-1.35637,0l0,6.0512l-4.74729,0l0,-18.01288l5.96803,0c2.17019,0 3.79783,0.5629 5.01857,1.54798s1.76328,2.25161 1.76328,4.08104zm-7.86694,2.25161l0.81382,0c0.67818,0 1.22073,-0.14073 1.62764,-0.5629s0.67818,-0.98508 0.67818,-1.68871c0,-1.26653 -0.67818,-1.82943 -1.89892,-1.82943l-1.22073,0l0,4.08104z" class="st13"/>
   <path stroke="null" id="svg_196" fill="#9FCAF4" d="m177.93337,587.25796l-10.30841,0l0,-18.01288l10.30841,0l0,3.94032l-5.69675,0l0,2.81451l5.1542,0l0,3.94032l-5.1542,0l0,3.37742l5.69675,0l0,3.94032z" class="st13"/>
   <path stroke="null" id="svg_197" fill="#9FCAF4" d="m185.66468,580.78458l0,6.61411l-4.74729,0l0,-18.01288l5.69675,0c4.74729,0 7.05312,1.82943 7.05312,5.34757c0,2.11088 -0.94946,3.65887 -2.98401,4.9254l5.01857,7.88064l-5.28984,0l-3.6622,-6.61411l-1.0851,0l0,-0.14073zm0,-3.79959l0.94946,0c1.62764,0 2.44147,-0.70363 2.44147,-2.25161c0,-1.26653 -0.81382,-1.82943 -2.44147,-1.82943l-0.94946,0l0,4.08104z" class="st13"/>
   <path stroke="null" id="svg_198" fill="#9FCAF4" d="m208.18041,587.25796l-0.81382,-3.37742l-5.69675,0l-0.94946,3.37742l-5.1542,0l5.69675,-18.15361l6.2393,0l5.69675,18.15361l-5.01857,0zm-1.76328,-7.31773l-0.81382,-2.95524c-0.13564,-0.70363 -0.40691,-1.54798 -0.67818,-2.53306s-0.40691,-1.82943 -0.54255,-2.25161c-0.13564,0.42218 -0.27127,1.12581 -0.40691,2.11088s-0.67818,2.81451 -1.35637,5.76975l3.79783,0l0,-0.14073z" class="st13"/>
   <path stroke="null" id="svg_199" fill="#9FCAF4" d="m222.96484,587.25796l-4.74729,0l0,-14.07256l-4.20475,0l0,-3.94032l13.15678,0l0,3.94032l-4.20475,0l0,14.07256z" class="st13"/>
   <path stroke="null" id="svg_200" fill="#9FCAF4" d="m229.61105,587.25796l0,-18.01288l4.74729,0l0,18.01288l-4.74729,0z" class="st13"/>
   <path stroke="null" id="svg_201" fill="#9FCAF4" d="m254.70388,587.25796l-6.2393,0l-6.37494,-12.80603l-0.13564,0c0.13564,1.97016 0.27127,3.51814 0.27127,4.64395l0,8.16209l-4.20475,0l0,-18.01288l6.10366,0l6.37494,12.52458l0.13564,0c-0.13564,-1.82943 -0.13564,-3.23669 -0.13564,-4.36249l0,-8.16209l4.20475,0l0,18.01288z" class="st13"/>
   <path stroke="null" id="svg_202" fill="#9FCAF4" d="m265.55484,576.70354l7.46003,0l0,9.71007c-2.03455,0.70363 -4.34038,1.12581 -6.78185,1.12581c-2.71274,0 -4.74729,-0.84435 -6.2393,-2.39234s-2.17019,-3.94032 -2.17019,-6.89556c0,-2.95524 0.81382,-5.20685 2.44147,-6.75483s3.79783,-2.39234 6.78185,-2.39234c1.0851,0 2.17019,0.14073 3.11965,0.28145s1.76328,0.42218 2.5771,0.84435l-1.49201,3.79959c-1.22073,-0.70363 -2.5771,-0.98508 -4.06911,-0.98508c-1.35637,0 -2.44147,0.42218 -3.25529,1.40726c-0.81382,0.98508 -1.0851,2.25161 -1.0851,3.94032c0,1.68871 0.40691,2.95524 1.0851,3.79959s1.62764,1.26653 2.98401,1.26653c0.67818,0 1.35637,0 1.89892,-0.14073l0,-2.81451l-3.11965,0l0,-3.79959l-0.13564,0z" class="st13"/>
   <path stroke="null" id="svg_203" fill="#9FCAF4" d="m290.64767,572.90394c-1.0851,0 -2.03455,0.42218 -2.5771,1.40726c-0.67818,0.98508 -0.94946,2.25161 -0.94946,3.94032c0,3.51814 1.22073,5.20685 3.79783,5.20685c0.81382,0 1.49201,-0.14073 2.30583,-0.28145s1.49201,-0.42218 2.17019,-0.84435l0,4.08104c-1.49201,0.70363 -3.11965,0.98508 -4.88293,0.98508c-2.5771,0 -4.61166,-0.84435 -6.10366,-2.39234s-2.17019,-3.94032 -2.17019,-6.89556c0,-1.82943 0.40691,-3.51814 1.0851,-4.9254s1.62764,-2.53306 2.98401,-3.23669s2.71274,-1.12581 4.47602,-1.12581c1.89892,0 3.6622,0.42218 5.42548,1.26653l-1.49201,3.79959c-0.67818,-0.28145 -1.22073,-0.5629 -1.89892,-0.84435s-1.35637,-0.14073 -2.17019,-0.14073z" class="st13"/>
   <path stroke="null" id="svg_204" fill="#9FCAF4" d="m315.06232,578.25152c0,3.09596 -0.67818,5.34757 -2.17019,6.89556s-3.52656,2.39234 -6.37494,2.39234c-2.71274,0 -4.88293,-0.84435 -6.2393,-2.39234s-2.17019,-3.94032 -2.17019,-6.89556c0,-2.95524 0.67818,-5.34757 2.17019,-6.89556s3.52656,-2.39234 6.37494,-2.39234c2.71274,0 4.88293,0.84435 6.2393,2.39234s2.17019,3.79959 2.17019,6.89556zm-11.93605,0c0,3.51814 1.22073,5.20685 3.52656,5.20685c1.22073,0 2.03455,-0.42218 2.71274,-1.26653s0.81382,-2.11088 0.81382,-3.94032c0,-1.82943 -0.27127,-3.09596 -0.81382,-3.94032s-1.49201,-1.26653 -2.5771,-1.26653c-2.5771,-0.14073 -3.6622,1.68871 -3.6622,5.20685z" class="st13"/>
   <path stroke="null" id="svg_205" fill="#9FCAF4" d="m329.57548,581.76966c0,1.12581 -0.27127,2.11088 -0.81382,2.95524s-1.35637,1.54798 -2.30583,1.97016c-1.0851,0.42218 -2.30583,0.70363 -3.6622,0.70363c-1.22073,0 -2.17019,-0.14073 -2.98401,-0.28145c-0.81382,-0.14073 -1.62764,-0.42218 -2.44147,-0.84435l0,-4.22177c0.94946,0.42218 1.89892,0.84435 2.84838,1.12581c0.94946,0.28145 1.89892,0.42218 2.71274,0.42218c0.67818,0 1.22073,-0.14073 1.49201,-0.42218c0.27127,-0.28145 0.54255,-0.5629 0.54255,-0.98508c0,-0.28145 0,-0.42218 -0.13564,-0.70363c-0.13564,-0.14073 -0.40691,-0.42218 -0.67818,-0.5629s-1.0851,-0.5629 -2.30583,-1.12581c-1.0851,-0.5629 -2.03455,-1.12581 -2.5771,-1.54798s-0.94946,-1.12581 -1.22073,-1.68871s-0.40691,-1.40726 -0.40691,-2.25161c0,-1.68871 0.54255,-2.95524 1.76328,-3.94032s2.71274,-1.40726 4.88293,-1.40726c1.76328,0 3.6622,0.42218 5.56111,1.26653l-1.49201,3.79959c-1.62764,-0.84435 -2.98401,-1.12581 -4.20475,-1.12581c-0.67818,0 -1.0851,0.14073 -1.35637,0.28145s-0.40691,0.5629 -0.40691,0.84435c0,0.42218 0.13564,0.70363 0.54255,0.98508s1.35637,0.84435 2.84838,1.54798c1.49201,0.70363 2.5771,1.40726 3.11965,2.25161c0.40691,0.70363 0.67818,1.82943 0.67818,2.95524z" class="st13"/>
   <path stroke="null" id="svg_206" fill="#9FCAF4" d="m340.01952,587.25796l-4.74729,0l0,-14.07256l-4.20475,0l0,-3.94032l13.15678,0l0,3.94032l-4.20475,0l0,14.07256z" class="st13"/>
   <path stroke="null" id="svg_207" fill="#9FCAF4" d="m358.19487,581.76966c0,1.12581 -0.27127,2.11088 -0.81382,2.95524s-1.35637,1.54798 -2.30583,1.97016c-1.0851,0.42218 -2.30583,0.70363 -3.6622,0.70363c-1.22073,0 -2.17019,-0.14073 -2.98401,-0.28145c-0.81382,-0.14073 -1.62764,-0.42218 -2.44147,-0.84435l0,-4.22177c0.94946,0.42218 1.89892,0.84435 2.84838,1.12581c0.94946,0.28145 1.89892,0.42218 2.71274,0.42218c0.67818,0 1.22073,-0.14073 1.49201,-0.42218c0.27127,-0.28145 0.54255,-0.5629 0.54255,-0.98508c0,-0.28145 0,-0.42218 -0.13564,-0.70363c-0.13564,-0.14073 -0.40691,-0.42218 -0.67818,-0.5629s-1.0851,-0.5629 -2.30583,-1.12581c-1.0851,-0.5629 -2.03455,-1.12581 -2.5771,-1.54798s-0.94946,-1.12581 -1.22073,-1.68871s-0.40691,-1.40726 -0.40691,-2.25161c0,-1.68871 0.54255,-2.95524 1.76328,-3.94032s2.71274,-1.40726 4.88293,-1.40726c1.76328,0 3.6622,0.42218 5.56111,1.26653l-1.49201,3.79959c-1.62764,-0.84435 -2.98401,-1.12581 -4.20475,-1.12581c-0.67818,0 -1.0851,0.14073 -1.35637,0.28145s-0.40691,0.5629 -0.40691,0.84435c0,0.42218 0.13564,0.70363 0.54255,0.98508s1.35637,0.84435 2.84838,1.54798c1.49201,0.70363 2.5771,1.40726 3.11965,2.25161c0.27127,0.70363 0.67818,1.82943 0.67818,2.95524z" class="st13"/>
  </g>
  <g stroke="null" id="svg_208">
   <path stroke="null" id="svg_209" fill="#9FCAF4" d="m1226.13569,450.47264l0,-18.01288l4.74729,0l0,18.01288l-4.74729,0z" class="st13"/>
   <path stroke="null" id="svg_210" fill="#9FCAF4" d="m1242.14085,450.47264l-3.52656,-13.08748l-0.13564,0c0.13564,2.25161 0.27127,3.94032 0.27127,5.20685l0,7.88064l-4.20475,0l0,-18.01288l6.2393,0l3.6622,12.80603l0.13564,0l3.52656,-12.80603l6.2393,0l0,18.01288l-4.34038,0l0,-7.88064c0,-0.42218 0,-0.84435 0,-1.40726s0,-1.68871 0.13564,-3.65887l-0.13564,0l-3.52656,12.94676l-4.34038,0z" class="st13"/>
   <path stroke="null" id="svg_211" fill="#9FCAF4" d="m1270.89588,438.08878c0,1.97016 -0.54255,3.51814 -1.76328,4.64395c-1.0851,1.12581 -2.71274,1.68871 -4.88293,1.68871l-1.35637,0l0,6.0512l-4.74729,0l0,-18.01288l5.96803,0c2.17019,0 3.79783,0.5629 5.01857,1.54798s1.76328,2.25161 1.76328,4.08104zm-8.00258,2.39234l0.81382,0c0.67818,0 1.22073,-0.14073 1.62764,-0.5629s0.67818,-0.98508 0.67818,-1.68871c0,-1.26653 -0.67818,-1.82943 -1.89892,-1.82943l-1.22073,0l0,4.08104z" class="st13"/>
   <path stroke="null" id="svg_212" fill="#9FCAF4" d="m1278.35591,443.85853l0,6.61411l-4.74729,0l0,-18.01288l5.69675,0c4.74729,0 7.05312,1.82943 7.05312,5.34757c0,2.11088 -0.94946,3.65887 -2.98401,4.9254l5.01857,7.88064l-5.1542,0l-3.6622,-6.61411l-1.22073,0l0,-0.14073zm0,-3.65887l0.94946,0c1.62764,0 2.44147,-0.70363 2.44147,-2.25161c0,-1.26653 -0.81382,-1.82943 -2.44147,-1.82943l-0.94946,0l0,4.08104z" class="st13"/>
   <path stroke="null" id="svg_213" fill="#9FCAF4" d="m1306.43276,441.32547c0,3.09596 -0.67818,5.34757 -2.17019,6.89556s-3.52656,2.39234 -6.37494,2.39234c-2.71274,0 -4.88293,-0.84435 -6.2393,-2.39234s-2.17019,-3.94032 -2.17019,-6.89556c0,-2.95524 0.67818,-5.34757 2.17019,-6.89556s3.52656,-2.39234 6.37494,-2.39234c2.71274,0 4.88293,0.84435 6.2393,2.39234s2.17019,3.94032 2.17019,6.89556zm-11.93605,0c0,3.51814 1.22073,5.20685 3.52656,5.20685c1.22073,0 2.03455,-0.42218 2.71274,-1.26653s0.81382,-2.11088 0.81382,-3.94032c0,-1.82943 -0.27127,-3.09596 -0.81382,-3.94032s-1.49201,-1.26653 -2.5771,-1.26653c-2.44147,0 -3.6622,1.68871 -3.6622,5.20685z" class="st13"/>
   <path stroke="null" id="svg_214" fill="#9FCAF4" d="m1319.45391,432.31903l5.28984,0l-5.69675,18.01288l-5.56111,0l-5.69675,-18.01288l5.28984,0l2.30583,9.14717c0.54255,1.97016 0.81382,3.51814 0.81382,4.22177c0,-0.5629 0.13564,-1.26653 0.27127,-2.11088s0.27127,-1.54798 0.40691,-2.11088l2.5771,-9.14717z" class="st13"/>
   <path stroke="null" id="svg_215" fill="#9FCAF4" d="m1336.95107,450.47264l-10.30841,0l0,-18.01288l10.30841,0l0,3.94032l-5.69675,0l0,2.81451l5.1542,0l0,3.94032l-5.1542,0l0,3.37742l5.69675,0l0,3.94032z" class="st13"/>
   <path stroke="null" id="svg_216" fill="#9FCAF4" d="m1354.71951,441.04402c0,2.95524 -0.81382,5.34757 -2.44147,7.03628s-3.79783,2.39234 -6.78185,2.39234l-5.69675,0l0,-18.01288l5.96803,0c2.84838,0 5.01857,0.70363 6.51057,2.25161s2.44147,3.51814 2.44147,6.33265zm-4.88293,0.14073c0,-1.68871 -0.27127,-2.95524 -0.94946,-3.65887s-1.62764,-1.26653 -2.84838,-1.26653l-1.35637,0l0,10.13225l1.0851,0c1.49201,0 2.44147,-0.42218 3.11965,-1.26653s0.94946,-2.11088 0.94946,-3.94032z" class="st13"/>
   <path stroke="null" id="svg_217" fill="#9FCAF4" d="m1238.74992,468.48552c0,1.97016 -0.54255,3.51814 -1.76328,4.64395c-1.0851,1.12581 -2.71274,1.68871 -4.88293,1.68871l-1.35637,0l0,6.0512l-4.74729,0l0,-18.01288l5.96803,0c2.17019,0 3.79783,0.5629 5.01857,1.54798s1.76328,2.25161 1.76328,4.08104zm-8.00258,2.39234l0.81382,0c0.67818,0 1.22073,-0.14073 1.62764,-0.5629s0.67818,-0.98508 0.67818,-1.68871c0,-1.26653 -0.67818,-1.82943 -1.89892,-1.82943l-1.22073,0l0,4.08104z" class="st13"/>
   <path stroke="null" id="svg_218" fill="#9FCAF4" d="m1246.20996,474.25527l0,6.61411l-4.74729,0l0,-18.01288l5.69675,0c4.74729,0 7.05312,1.82943 7.05312,5.34757c0,2.11088 -0.94946,3.65887 -2.98401,4.9254l5.01857,7.88064l-5.28984,0l-3.6622,-6.61411l-1.0851,0l0,-0.14073zm0,-3.65887l0.94946,0c1.62764,0 2.44147,-0.70363 2.44147,-2.25161c0,-1.26653 -0.81382,-1.82943 -2.44147,-1.82943l-0.94946,0l0,4.08104z" class="st13"/>
   <path stroke="null" id="svg_219" fill="#9FCAF4" d="m1274.42244,471.72221c0,3.09596 -0.67818,5.34757 -2.17019,6.89556s-3.52656,2.39234 -6.37494,2.39234c-2.71274,0 -4.88293,-0.84435 -6.2393,-2.39234s-2.17019,-3.94032 -2.17019,-6.89556c0,-2.95524 0.67818,-5.34757 2.17019,-6.89556s3.52656,-2.39234 6.37494,-2.39234c2.71274,0 4.88293,0.84435 6.2393,2.39234s2.17019,3.94032 2.17019,6.89556zm-12.07169,0c0,3.51814 1.22073,5.20685 3.52656,5.20685c1.22073,0 2.03455,-0.42218 2.71274,-1.26653s0.81382,-2.11088 0.81382,-3.94032c0,-1.82943 -0.27127,-3.09596 -0.81382,-3.94032s-1.49201,-1.26653 -2.5771,-1.26653c-2.44147,0 -3.6622,1.68871 -3.6622,5.20685z" class="st13"/>
   <path stroke="null" id="svg_220" fill="#9FCAF4" d="m1292.32652,471.44076c0,2.95524 -0.81382,5.34757 -2.44147,7.03628s-3.79783,2.39234 -6.78185,2.39234l-5.69675,0l0,-18.01288l5.96803,0c2.84838,0 5.01857,0.70363 6.51057,2.25161s2.44147,3.51814 2.44147,6.33265zm-4.88293,0.14073c0,-1.68871 -0.27127,-2.95524 -0.94946,-3.65887s-1.62764,-1.26653 -2.84838,-1.26653l-1.35637,0l0,10.13225l1.0851,0c1.49201,0 2.44147,-0.42218 3.11965,-1.26653s0.94946,-2.11088 0.94946,-3.94032z" class="st13"/>
   <path stroke="null" id="svg_221" fill="#9FCAF4" d="m1310.23059,462.71577l0,10.83587c0,2.39234 -0.67818,4.22177 -1.89892,5.4883c-1.35637,1.26653 -3.11965,1.97016 -5.56111,1.97016c-2.44147,0 -4.20475,-0.5629 -5.42548,-1.82943s-1.89892,-3.09596 -1.89892,-5.4883l0,-10.9766l4.74729,0l0,10.55442c0,1.26653 0.27127,2.25161 0.67818,2.81451s1.0851,0.84435 2.03455,0.84435c0.94946,0 1.62764,-0.28145 2.03455,-0.84435s0.67818,-1.54798 0.67818,-2.81451l0,-10.55442l4.61166,0z" class="st13"/>
   <path stroke="null" id="svg_222" fill="#9FCAF4" d="m1321.6241,466.51536c-1.0851,0 -2.03455,0.42218 -2.5771,1.40726c-0.67818,0.98508 -0.94946,2.25161 -0.94946,3.94032c0,3.51814 1.22073,5.20685 3.79783,5.20685c0.81382,0 1.49201,-0.14073 2.30583,-0.28145s1.49201,-0.42218 2.17019,-0.84435l0,4.08104c-1.49201,0.70363 -3.11965,0.98508 -4.88293,0.98508c-2.5771,0 -4.61166,-0.84435 -6.10366,-2.39234s-2.17019,-3.94032 -2.17019,-6.89556c0,-1.82943 0.40691,-3.51814 1.0851,-4.9254s1.62764,-2.53306 2.98401,-3.23669s2.71274,-1.12581 4.47602,-1.12581c1.89892,0 3.6622,0.42218 5.42548,1.26653l-1.49201,3.79959c-0.67818,-0.28145 -1.22073,-0.5629 -1.89892,-0.84435s-1.35637,-0.14073 -2.17019,-0.14073z" class="st13"/>
   <path stroke="null" id="svg_223" fill="#9FCAF4" d="m1337.49362,480.86938l-4.74729,0l0,-14.07256l-4.20475,0l0,-3.94032l13.15678,0l0,3.94032l-4.20475,0l0,14.07256z" class="st13"/>
   <path stroke="null" id="svg_224" fill="#9FCAF4" d="m1344.13983,480.86938l0,-18.01288l4.74729,0l0,18.01288l-4.74729,0z" class="st13"/>
   <path stroke="null" id="svg_225" fill="#9FCAF4" d="m1368.96139,471.72221c0,3.09596 -0.67818,5.34757 -2.17019,6.89556s-3.52656,2.39234 -6.37494,2.39234c-2.71274,0 -4.88293,-0.84435 -6.2393,-2.39234s-2.17019,-3.94032 -2.17019,-6.89556c0,-2.95524 0.67818,-5.34757 2.17019,-6.89556s3.52656,-2.39234 6.37494,-2.39234c2.71274,0 4.88293,0.84435 6.2393,2.39234s2.17019,3.94032 2.17019,6.89556zm-11.93605,0c0,3.51814 1.22073,5.20685 3.52656,5.20685c1.22073,0 2.03455,-0.42218 2.71274,-1.26653s0.81382,-2.11088 0.81382,-3.94032c0,-1.82943 -0.27127,-3.09596 -0.81382,-3.94032s-1.49201,-1.26653 -2.5771,-1.26653c-2.5771,0 -3.6622,1.68871 -3.6622,5.20685z" class="st13"/>
   <path stroke="null" id="svg_226" fill="#9FCAF4" d="m1388.76439,480.86938l-6.2393,0l-6.37494,-12.80603l-0.13564,0c0.13564,1.97016 0.27127,3.51814 0.27127,4.64395l0,8.16209l-4.20475,0l0,-18.01288l6.10366,0l6.37494,12.52458l0.13564,0c-0.13564,-1.82943 -0.13564,-3.23669 -0.13564,-4.36249l0,-8.16209l4.20475,0l0,18.01288z" class="st13"/>
   <path stroke="null" id="svg_227" fill="#9FCAF4" d="m1242.41212,502.11895c0,4.08104 -1.22073,6.89556 -3.79783,8.30281l4.20475,5.06612l-5.83239,0l-3.11965,-4.08104l0,0l0,0l0,0c-2.71274,0 -4.88293,-0.84435 -6.2393,-2.39234s-2.17019,-3.94032 -2.17019,-6.89556c0,-2.95524 0.67818,-5.34757 2.17019,-6.89556s3.52656,-2.39234 6.37494,-2.39234c2.71274,0 4.88293,0.84435 6.2393,2.39234s2.17019,3.94032 2.17019,6.89556zm-11.93605,0c0,3.51814 1.22073,5.20685 3.52656,5.20685c1.22073,0 2.03455,-0.42218 2.71274,-1.26653s0.81382,-2.11088 0.81382,-3.94032c0,-1.82943 -0.27127,-3.09596 -0.81382,-3.94032s-1.49201,-1.26653 -2.5771,-1.26653c-2.5771,0 -3.6622,1.68871 -3.6622,5.20685z" class="st13"/>
   <path stroke="null" id="svg_228" fill="#9FCAF4" d="m1260.3162,493.11251l0,10.83587c0,2.39234 -0.67818,4.22177 -1.89892,5.4883c-1.35637,1.26653 -3.11965,1.97016 -5.56111,1.97016c-2.44147,0 -4.20475,-0.5629 -5.42548,-1.82943s-1.89892,-3.09596 -1.89892,-5.4883l0,-10.9766l4.74729,0l0,10.55442c0,1.26653 0.27127,2.25161 0.67818,2.81451s1.0851,0.84435 2.03455,0.84435c0.94946,0 1.62764,-0.28145 2.03455,-0.84435s0.67818,-1.54798 0.67818,-2.81451l0,-10.55442l4.61166,0z" class="st13"/>
   <path stroke="null" id="svg_229" fill="#9FCAF4" d="m1274.69371,511.26611l-0.81382,-3.37742l-5.69675,0l-0.94946,3.37742l-5.1542,0l5.69675,-18.15361l6.2393,0l5.69675,18.15361l-5.01857,0zm-1.76328,-7.45846l-0.81382,-2.95524c-0.13564,-0.70363 -0.40691,-1.54798 -0.67818,-2.53306s-0.40691,-1.82943 -0.54255,-2.25161c-0.13564,0.42218 -0.27127,1.12581 -0.40691,2.11088s-0.67818,2.81451 -1.35637,5.76975l3.79783,0l0,-0.14073z" class="st13"/>
   <path stroke="null" id="svg_230" fill="#9FCAF4" d="m1281.74684,511.26611l0,-18.01288l4.74729,0l0,14.07256l6.64621,0l0,3.94032l-11.3935,0z" class="st13"/>
   <path stroke="null" id="svg_231" fill="#9FCAF4" d="m1295.98871,511.26611l0,-18.01288l4.74729,0l0,18.01288l-4.74729,0z" class="st13"/>
   <path stroke="null" id="svg_232" fill="#9FCAF4" d="m1312.12951,511.26611l-4.74729,0l0,-14.07256l-4.20475,0l0,-3.94032l13.15678,0l0,3.94032l-4.20475,0l0,14.07256z" class="st13"/>
   <path stroke="null" id="svg_233" fill="#9FCAF4" d="m1325.15066,499.86734l2.98401,-6.75483l5.1542,0l-5.69675,10.9766l0,7.03628l-4.74729,0l0,-6.89556l-5.69675,-11.11733l5.1542,0l2.84838,6.75483z" class="st13"/>
  </g>
  <g stroke="null" id="svg_234">
   <path stroke="null" id="svg_235" fill="#9FCAF4" d="m59.65795,216.72735l0,-18.01288l4.74729,0l0,18.01288l-4.74729,0z" class="st13"/>
   <path stroke="null" id="svg_236" fill="#9FCAF4" d="m84.75079,216.72735l-6.2393,0l-6.37494,-12.80603l-0.13564,0c0.13564,1.97016 0.27127,3.51814 0.27127,4.64395l0,8.16209l-4.20475,0l0,-18.01288l6.10366,0l6.37494,12.52458l0.13564,0c-0.13564,-1.82943 -0.13564,-3.23669 -0.13564,-4.36249l0,-8.16209l4.20475,0l0,18.01288z" class="st13"/>
   <path stroke="null" id="svg_237" fill="#9FCAF4" d="m96.27993,202.37334c-1.0851,0 -2.03455,0.42218 -2.5771,1.40726c-0.67818,0.98508 -0.94946,2.25161 -0.94946,3.94032c0,3.51814 1.22073,5.20685 3.79783,5.20685c0.81382,0 1.49201,-0.14073 2.30583,-0.28145s1.49201,-0.42218 2.17019,-0.84435l0,4.08104c-1.49201,0.70363 -3.11965,0.98508 -4.88293,0.98508c-2.5771,0 -4.61166,-0.84435 -6.10366,-2.39234s-2.17019,-3.94032 -2.17019,-6.89556c0,-1.82943 0.40691,-3.51814 1.0851,-4.9254s1.62764,-2.53306 2.98401,-3.23669s2.71274,-1.12581 4.47602,-1.12581c1.89892,0 3.6622,0.42218 5.42548,1.26653l-1.62764,3.94032c-0.67818,-0.28145 -1.22073,-0.5629 -1.89892,-0.84435s-1.35637,-0.28145 -2.03455,-0.28145z" class="st13"/>
   <path stroke="null" id="svg_238" fill="#9FCAF4" d="m109.0298,210.11325l0,6.61411l-4.74729,0l0,-18.01288l5.69675,0c4.74729,0 7.05312,1.82943 7.05312,5.34757c0,2.11088 -0.94946,3.65887 -2.98401,4.9254l5.01857,7.88064l-5.28984,0l-3.6622,-6.61411l-1.0851,0l0,-0.14073zm0,-3.65887l0.94946,0c1.62764,0 2.44147,-0.70363 2.44147,-2.25161c0,-1.26653 -0.81382,-1.82943 -2.44147,-1.82943l-0.94946,0l0,4.08104z" class="st13"/>
   <path stroke="null" id="svg_239" fill="#9FCAF4" d="m131.13862,216.72735l-10.30841,0l0,-18.01288l10.30841,0l0,3.94032l-5.69675,0l0,2.81451l5.1542,0l0,3.94032l-5.1542,0l0,3.37742l5.69675,0l0,3.94032z" class="st13"/>
   <path stroke="null" id="svg_240" fill="#9FCAF4" d="m144.97359,216.72735l-0.94946,-3.37742l-5.56111,0l-0.94946,3.37742l-5.1542,0l5.69675,-18.15361l6.2393,0l5.69675,18.15361l-5.01857,0zm-1.89892,-7.31773l-0.81382,-2.95524c-0.13564,-0.70363 -0.40691,-1.54798 -0.67818,-2.53306s-0.27127,-1.82943 -0.40691,-2.39234c-0.13564,0.42218 -0.27127,1.12581 -0.40691,2.11088s-0.67818,2.81451 -1.35637,5.76975l3.6622,0z" class="st13"/>
   <path stroke="null" id="svg_241" fill="#9FCAF4" d="m163.42022,211.23905c0,1.12581 -0.27127,2.11088 -0.81382,2.95524s-1.35637,1.54798 -2.30583,1.97016c-1.0851,0.42218 -2.30583,0.70363 -3.6622,0.70363c-1.22073,0 -2.17019,-0.14073 -2.98401,-0.28145c-0.81382,-0.14073 -1.62764,-0.42218 -2.44147,-0.84435l0,-4.36249c0.94946,0.42218 1.89892,0.84435 2.84838,1.12581c0.94946,0.28145 1.89892,0.42218 2.71274,0.42218c0.67818,0 1.22073,-0.14073 1.49201,-0.42218c0.27127,-0.28145 0.54255,-0.5629 0.54255,-0.98508c0,-0.28145 0,-0.42218 -0.13564,-0.70363c-0.13564,-0.14073 -0.40691,-0.42218 -0.67818,-0.5629s-1.0851,-0.5629 -2.30583,-1.12581c-1.0851,-0.5629 -2.03455,-1.12581 -2.5771,-1.54798s-0.94946,-1.12581 -1.22073,-1.68871s-0.40691,-1.40726 -0.40691,-2.25161c0,-1.68871 0.54255,-2.95524 1.76328,-3.94032s2.71274,-1.40726 4.88293,-1.40726c1.76328,0 3.6622,0.42218 5.56111,1.26653l-1.76328,3.94032c-1.62764,-0.84435 -2.98401,-1.12581 -4.20475,-1.12581c-0.67818,0 -1.0851,0.14073 -1.35637,0.28145s-0.40691,0.5629 -0.40691,0.84435c0,0.42218 0.13564,0.70363 0.54255,0.98508s1.35637,0.84435 2.84838,1.54798c1.49201,0.70363 2.5771,1.40726 3.11965,2.25161c0.54255,0.70363 0.94946,1.82943 0.94946,2.95524z" class="st13"/>
   <path stroke="null" id="svg_242" fill="#9FCAF4" d="m176.44136,216.72735l-10.30841,0l0,-18.01288l10.30841,0l0,3.94032l-5.69675,0l0,2.81451l5.1542,0l0,3.94032l-5.1542,0l0,3.37742l5.69675,0l0,3.94032z" class="st13"/>
   <path stroke="null" id="svg_243" fill="#9FCAF4" d="m194.2098,207.29873c0,2.95524 -0.81382,5.34757 -2.44147,7.03628s-3.79783,2.39234 -6.78185,2.39234l-5.69675,0l0,-18.01288l5.96803,0c2.84838,0 5.01857,0.70363 6.51057,2.25161s2.44147,3.51814 2.44147,6.33265zm-4.88293,0.28145c0,-1.68871 -0.27127,-2.95524 -0.94946,-3.65887s-1.62764,-1.26653 -2.84838,-1.26653l-1.35637,0l0,10.13225l1.0851,0c1.49201,0 2.44147,-0.42218 3.11965,-1.26653s0.94946,-2.25161 0.94946,-3.94032z" class="st13"/>
   <path stroke="null" id="svg_244" fill="#9FCAF4" d="m80.81732,229.11121l5.28984,0l-5.69675,18.01288l-5.56111,0l-5.69675,-18.01288l5.28984,0l2.30583,9.14717c0.54255,1.97016 0.81382,3.51814 0.81382,4.22177c0,-0.5629 0.13564,-1.26653 0.27127,-2.11088s0.27127,-1.54798 0.40691,-2.11088l2.5771,-9.14717z" class="st13"/>
   <path stroke="null" id="svg_245" fill="#9FCAF4" d="m88.00608,247.12409l0,-18.01288l4.74729,0l0,18.01288l-4.74729,0z" class="st13"/>
   <path stroke="null" id="svg_246" fill="#9FCAF4" d="m107.94471,241.63579c0,1.12581 -0.27127,2.11088 -0.81382,2.95524s-1.35637,1.54798 -2.30583,1.97016c-1.0851,0.42218 -2.30583,0.70363 -3.6622,0.70363c-1.22073,0 -2.17019,-0.14073 -2.98401,-0.28145c-0.81382,-0.14073 -1.62764,-0.42218 -2.44147,-0.84435l0,-4.36249c0.94946,0.42218 1.89892,0.84435 2.84838,1.12581c0.94946,0.28145 1.89892,0.42218 2.71274,0.42218c0.67818,0 1.22073,-0.14073 1.49201,-0.42218c0.27127,-0.28145 0.54255,-0.5629 0.54255,-0.98508c0,-0.28145 0,-0.42218 -0.13564,-0.70363c-0.13564,-0.14073 -0.40691,-0.42218 -0.67818,-0.5629s-1.0851,-0.5629 -2.30583,-1.12581c-1.0851,-0.5629 -2.03455,-1.12581 -2.5771,-1.54798s-0.94946,-1.12581 -1.22073,-1.68871s-0.40691,-1.40726 -0.40691,-2.25161c0,-1.68871 0.54255,-2.95524 1.76328,-3.94032s2.71274,-1.40726 4.88293,-1.40726c1.76328,0 3.6622,0.42218 5.56111,1.26653l-1.49201,3.79959c-1.62764,-0.84435 -2.98401,-1.12581 -4.20475,-1.12581c-0.67818,0 -1.0851,0.14073 -1.35637,0.28145s-0.67818,0.70363 -0.67818,0.98508c0,0.42218 0.13564,0.70363 0.54255,0.98508s1.35637,0.84435 2.84838,1.54798c1.49201,0.70363 2.5771,1.40726 3.11965,2.25161c0.54255,0.70363 0.94946,1.82943 0.94946,2.95524z" class="st13"/>
   <path stroke="null" id="svg_247" fill="#9FCAF4" d="m110.52181,247.12409l0,-18.01288l4.74729,0l0,18.01288l-4.74729,0z" class="st13"/>
   <path stroke="null" id="svg_248" fill="#9FCAF4" d="m119.06694,229.11121l6.10366,0c2.30583,0 4.06911,0.42218 5.28984,1.12581c1.0851,0.70363 1.76328,1.82943 1.76328,3.37742c0,0.98508 -0.27127,1.82943 -0.81382,2.53306s-1.22073,1.12581 -2.03455,1.40726l0,0.14073c1.0851,0.28145 1.89892,0.84435 2.30583,1.54798s0.67818,1.54798 0.67818,2.67379c0,1.68871 -0.54255,2.95524 -1.76328,3.94032s-2.84838,1.40726 -4.88293,1.40726l-6.78185,0l0,-18.15361l0.13564,0zm4.74729,6.89556l1.35637,0c0.67818,0 1.22073,-0.14073 1.62764,-0.42218s0.54255,-0.70363 0.54255,-1.26653c0,-0.98508 -0.67818,-1.54798 -2.17019,-1.54798l-1.35637,0l0,3.23669zm0,3.51814l0,3.79959l1.62764,0c1.49201,0 2.17019,-0.70363 2.17019,-1.97016c0,-0.5629 -0.13564,-1.12581 -0.54255,-1.40726s-0.94946,-0.42218 -1.76328,-0.42218l-1.49201,0z" class="st13"/>
   <path stroke="null" id="svg_249" fill="#9FCAF4" d="m135.47901,247.12409l0,-18.01288l4.74729,0l0,18.01288l-4.74729,0z" class="st13"/>
   <path stroke="null" id="svg_250" fill="#9FCAF4" d="m144.02413,247.12409l0,-18.01288l4.74729,0l0,14.07256l6.64621,0l0,3.94032l-11.3935,0z" class="st13"/>
   <path stroke="null" id="svg_251" fill="#9FCAF4" d="m158.26601,247.12409l0,-18.01288l4.74729,0l0,18.01288l-4.74729,0z" class="st13"/>
   <path stroke="null" id="svg_252" fill="#9FCAF4" d="m174.40681,247.12409l-4.74729,0l0,-14.07256l-4.20475,0l0,-3.94032l13.15678,0l0,3.94032l-4.20475,0l0,14.07256z" class="st13"/>
   <path stroke="null" id="svg_253" fill="#9FCAF4" d="m187.42796,235.72531l2.98401,-6.75483l5.1542,0l-5.69675,10.9766l0,7.03628l-4.74729,0l0,-6.89556l-5.69675,-11.11733l5.1542,0l2.84838,6.75483z" class="st13"/>
   <path stroke="null" id="svg_254" fill="#9FCAF4" d="m28.05455,268.51439c0,3.09596 -0.67818,5.34757 -2.17019,6.89556s-3.52656,2.39234 -6.37494,2.39234c-2.71274,0 -4.88293,-0.84435 -6.2393,-2.39234s-2.17019,-3.94032 -2.17019,-6.89556c0,-2.95524 0.67818,-5.34757 2.17019,-6.89556s3.52656,-2.39234 6.37494,-2.39234c2.71274,0 4.88293,0.84435 6.2393,2.39234s2.17019,3.79959 2.17019,6.89556zm-12.07169,0c0,3.51814 1.22073,5.20685 3.52656,5.20685c1.22073,0 2.03455,-0.42218 2.71274,-1.26653s0.81382,-2.11088 0.81382,-3.94032c0,-1.82943 -0.27127,-3.09596 -0.81382,-3.94032s-1.49201,-1.26653 -2.5771,-1.26653c-2.44147,-0.14073 -3.6622,1.68871 -3.6622,5.20685z" class="st13"/>
   <path stroke="null" id="svg_255" fill="#9FCAF4" d="m35.78585,277.52083l-4.61166,0l0,-18.01288l10.30841,0l0,3.94032l-5.69675,0l0,3.37742l5.1542,0l0,3.94032l-5.1542,0l0,6.75483z" class="st13"/>
   <path stroke="null" id="svg_256" fill="#9FCAF4" d="m58.30158,277.52083l-4.74729,0l0,-14.07256l-4.20475,0l0,-3.94032l13.15678,0l0,3.94032l-4.20475,0l0,14.07256z" class="st13"/>
   <path stroke="null" id="svg_257" fill="#9FCAF4" d="m80.0035,277.52083l-4.74729,0l0,-7.31773l-5.42548,0l0,7.31773l-4.74729,0l0,-18.01288l4.74729,0l0,6.75483l5.42548,0l0,-6.75483l4.74729,0l0,18.01288z" class="st13"/>
   <path stroke="null" id="svg_258" fill="#9FCAF4" d="m94.10974,277.52083l-10.30841,0l0,-18.01288l10.30841,0l0,3.94032l-5.69675,0l0,2.81451l5.28984,0l0,3.94032l-5.1542,0l0,3.37742l5.69675,0l0,3.94032l-0.13564,0z" class="st13"/>
   <path stroke="null" id="svg_259" fill="#9FCAF4" d="m114.99783,272.03253c0,1.12581 -0.27127,2.11088 -0.81382,2.95524s-1.35637,1.54798 -2.30583,1.97016c-1.0851,0.42218 -2.30583,0.70363 -3.6622,0.70363c-1.22073,0 -2.17019,-0.14073 -2.98401,-0.28145c-0.81382,-0.14073 -1.62764,-0.42218 -2.44147,-0.84435l0,-4.36249c0.94946,0.42218 1.89892,0.84435 2.84838,1.12581c0.94946,0.28145 1.89892,0.42218 2.71274,0.42218c0.67818,0 1.22073,-0.14073 1.49201,-0.42218c0.27127,-0.28145 0.54255,-0.5629 0.54255,-0.98508c0,-0.28145 0,-0.42218 -0.13564,-0.70363c-0.13564,-0.14073 -0.40691,-0.42218 -0.67818,-0.5629s-1.0851,-0.5629 -2.30583,-1.12581c-1.35637,-0.28145 -2.17019,-0.84435 -2.71274,-1.40726s-1.0851,-0.98508 -1.35637,-1.68871s-0.40691,-1.40726 -0.40691,-2.25161c0,-1.68871 0.54255,-2.95524 1.76328,-3.94032s2.71274,-1.40726 4.88293,-1.40726c1.76328,0 3.6622,0.42218 5.56111,1.26653l-1.49201,3.79959c-1.62764,-0.84435 -2.98401,-1.12581 -4.20475,-1.12581c-0.67818,0 -1.0851,0.14073 -1.35637,0.28145s-0.40691,0.5629 -0.40691,0.84435c0,0.42218 0.13564,0.70363 0.54255,0.98508s1.35637,0.84435 2.84838,1.54798c1.49201,0.70363 2.5771,1.40726 3.11965,2.25161c0.54255,0.70363 0.94946,1.82943 0.94946,2.95524z" class="st13"/>
   <path stroke="null" id="svg_260" fill="#9FCAF4" d="m132.49499,259.50795l0,10.83587c0,2.39234 -0.67818,4.22177 -1.89892,5.4883c-1.35637,1.26653 -3.11965,1.97016 -5.56111,1.97016c-2.44147,0 -4.20475,-0.5629 -5.42548,-1.82943s-1.89892,-3.09596 -1.89892,-5.4883l0,-10.9766l4.74729,0l0,10.55442c0,1.26653 0.27127,2.25161 0.67818,2.81451s1.0851,0.84435 2.03455,0.84435c0.94946,0 1.62764,-0.28145 2.03455,-0.84435s0.67818,-1.54798 0.67818,-2.81451l0,-10.55442l4.61166,0z" class="st13"/>
   <path stroke="null" id="svg_261" fill="#9FCAF4" d="m148.77143,265.2777c0,1.97016 -0.54255,3.51814 -1.76328,4.64395c-1.0851,1.12581 -2.71274,1.68871 -4.88293,1.68871l-1.35637,0l0,6.0512l-4.74729,0l0,-18.15361l5.96803,0c2.17019,0 3.79783,0.5629 5.01857,1.54798s1.76328,2.39234 1.76328,4.22177zm-8.00258,2.25161l0.81382,0c0.67818,0 1.22073,-0.14073 1.62764,-0.5629s0.67818,-0.98508 0.67818,-1.68871c0,-1.26653 -0.67818,-1.82943 -1.89892,-1.82943l-1.22073,0l0,4.08104z" class="st13"/>
   <path stroke="null" id="svg_262" fill="#9FCAF4" d="m164.23404,265.2777c0,1.97016 -0.54255,3.51814 -1.76328,4.64395c-1.0851,1.12581 -2.71274,1.68871 -4.88293,1.68871l-1.35637,0l0,6.0512l-4.74729,0l0,-18.15361l5.96803,0c2.17019,0 3.79783,0.5629 5.01857,1.54798s1.76328,2.39234 1.76328,4.22177zm-8.00258,2.25161l0.81382,0c0.67818,0 1.22073,-0.14073 1.62764,-0.5629s0.67818,-0.98508 0.67818,-1.68871c0,-1.26653 -0.67818,-1.82943 -1.89892,-1.82943l-1.22073,0l0,4.08104z" class="st13"/>
   <path stroke="null" id="svg_263" fill="#9FCAF4" d="m166.94678,277.52083l0,-18.01288l4.74729,0l0,14.07256l6.64621,0l0,3.94032l-11.3935,0z" class="st13"/>
   <path stroke="null" id="svg_264" fill="#9FCAF4" d="m187.42796,266.12205l2.98401,-6.75483l5.1542,0l-5.69675,10.9766l0,7.03628l-4.74729,0l0,-6.89556l-5.69675,-11.11733l5.1542,0l2.84838,6.75483z" class="st13"/>
   <path stroke="null" id="svg_265" fill="#9FCAF4" d="m123.94987,293.56355c-1.0851,0 -2.03455,0.42218 -2.5771,1.40726c-0.67818,0.98508 -0.94946,2.25161 -0.94946,3.94032c0,3.51814 1.22073,5.20685 3.79783,5.20685c0.81382,0 1.49201,-0.14073 2.30583,-0.28145s1.49201,-0.42218 2.17019,-0.84435l0,4.08104c-1.49201,0.70363 -3.11965,0.98508 -4.88293,0.98508c-2.5771,0 -4.61166,-0.84435 -6.10366,-2.39234s-2.17019,-3.94032 -2.17019,-6.89556c0,-1.82943 0.40691,-3.51814 1.0851,-4.9254s1.62764,-2.53306 2.98401,-3.23669s2.71274,-1.12581 4.47602,-1.12581c1.89892,0 3.6622,0.42218 5.42548,1.26653l-1.49201,3.79959c-0.67818,-0.28145 -1.22073,-0.5629 -1.89892,-0.84435s-1.35637,-0.14073 -2.17019,-0.14073z" class="st13"/>
   <path stroke="null" id="svg_266" fill="#9FCAF4" d="m147.00815,307.91757l-4.74729,0l0,-7.31773l-5.42548,0l0,7.31773l-4.74729,0l0,-18.01288l4.74729,0l0,6.75483l5.42548,0l0,-6.75483l4.74729,0l0,18.01288z" class="st13"/>
   <path stroke="null" id="svg_267" fill="#9FCAF4" d="m161.5213,307.91757l-0.81382,-3.37742l-5.69675,0l-0.94946,3.37742l-5.1542,0l5.69675,-18.15361l6.2393,0l5.69675,18.15361l-5.01857,0zm-1.89892,-7.31773l-0.81382,-2.95524c-0.13564,-0.70363 -0.40691,-1.54798 -0.67818,-2.53306s-0.40691,-1.82943 -0.54255,-2.25161c-0.13564,0.42218 -0.27127,1.12581 -0.40691,2.11088s-0.67818,2.81451 -1.35637,5.76975l3.79783,0l0,-0.14073z" class="st13"/>
   <path stroke="null" id="svg_268" fill="#9FCAF4" d="m168.57442,307.91757l0,-18.01288l4.74729,0l0,18.01288l-4.74729,0z" class="st13"/>
   <path stroke="null" id="svg_269" fill="#9FCAF4" d="m193.66726,307.91757l-6.2393,0l-6.37494,-12.80603l-0.13564,0c0.13564,1.97016 0.27127,3.51814 0.27127,4.64395l0,8.16209l-4.20475,0l0,-18.01288l6.10366,0l6.37494,12.52458l0.13564,0c-0.13564,-1.82943 -0.13564,-3.23669 -0.13564,-4.36249l0,-8.16209l4.20475,0l0,18.01288z" class="st13"/>
  </g>
  <polygon stroke="null" id="svg_272" fill="#FBB040" points="575.756591796875,508.7629089355469 522.7224731445312,508.7629089355469 522.7224731445312,507.4963684082031 575.2139892578125,507.4963684082031 606.2747802734375,475.12945556640625 607.224365234375,476.1145935058594 " class="st1"/>
  <polygon stroke="null" id="svg_273" fill="#FBB040" points="575.756591796875,508.7629089355469 522.7224731445312,508.7629089355469 522.7224731445312,507.4963684082031 575.2139892578125,507.4963684082031 606.2747802734375,475.12945556640625 607.224365234375,476.1145935058594 " class="st1"/>
  <polygon stroke="null" id="svg_274" fill="#FBB040" points="575.756591796875,508.7629089355469 522.7224731445312,508.7629089355469 522.7224731445312,507.4963684082031 575.2139892578125,507.4963684082031 606.2747802734375,475.12945556640625 607.224365234375,476.1145935058594 " class="st1"/>
  <path id="svg_275" d="m459.49589,698.01037l0,-58.55568c0,-7.57221 -5.53512,-13.70365 -12.33624,-13.70365c-6.81585,0 -12.32888,6.13144 -12.32888,13.70365l0,58.09316c-7.75063,4.72342 -13.01341,13.87965 -13.01341,24.39888c0,15.35726 11.19536,27.80433 25.00002,27.80433c13.81203,0 25.00002,-12.44707 25.00002,-27.80433c0.00368,-10.20406 -4.95363,-19.10652 -12.32152,-23.93636zm-12.67482,47.1769c-11.51554,0 -20.88917,-10.42918 -20.88917,-23.24872c0,-8.48087 4.16606,-16.29048 10.8715,-20.37947l2.13823,-1.29341l0,-60.81506c0,-5.03859 3.6913,-9.13167 8.22907,-9.13167c4.5304,0 8.21435,4.09309 8.21435,9.13167l0,61.15888l2.01678,1.32616c6.46254,4.24044 10.32682,11.71032 10.32682,20.00291c-0.00736,12.81954 -9.38467,23.24872 -20.90757,23.24872zm8.49405,-39.30999l-4.04461,-2.64823l0,-39.94442l-8.21803,0l0,39.68246l-4.27278,2.59911c-5.3879,3.29493 -8.74062,9.55326 -8.74062,16.37234c0,10.29002 7.5335,18.66856 16.782,18.66856c9.25586,0 16.782,-8.37855 16.782,-18.66856c0.00736,-6.55712 -3.16871,-12.70903 -8.28795,-16.06127z" stroke="null" fill="#FBB040"/>
  <path stroke="null" id="svg_276" d="m712.80333,606.99277c-45.84016,0 -82.99999,33.35431 -82.99999,74.5c0,41.14569 37.15983,74.5 82.99999,74.5c45.84016,0 82.99999,-33.35431 82.99999,-74.5c0,-41.14569 -37.15983,-74.5 -82.99999,-74.5zm0,133.61714c-36.32606,0 -65.86775,-26.52147 -65.86775,-59.11714c0,-32.6008 29.54169,-59.12227 65.86775,-59.12227c36.32606,0 65.86204,26.51634 65.86204,59.12227c0,32.60592 -29.5474,59.11714 -65.86204,59.11714zm-0.00571,-114.86143c-3.15804,0 -5.70504,2.29641 -5.70504,5.12591l0,47.26603l-34.52717,13.55291c-2.88964,1.13795 -4.20311,4.16224 -2.93532,6.75595c0.93656,1.92222 3.0267,3.07042 5.22533,3.07042c0.76524,0 1.54761,-0.1384 2.29001,-0.4357l37.83941,-14.85489c0.02855,-0.01025 0.0514,-0.0205 0.07424,-0.03076l0.02284,-0.01025c0.08566,-0.03076 0.13135,-0.10252 0.2113,-0.12815c0.59392,-0.26655 1.14786,-0.57923 1.5933,-0.99955c0.19417,-0.17428 0.30267,-0.39982 0.45115,-0.59973c0.27412,-0.32806 0.57679,-0.65099 0.7424,-1.04569c0.13706,-0.30755 0.14848,-0.64074 0.21701,-0.9688c0.07424,-0.33318 0.21701,-0.62536 0.21701,-0.95855l0,-50.61838c0,-2.82438 -2.55841,-5.12079 -5.71646,-5.12079z" fill="#fbb040"/>
  <g id="svg_277">
   <polygon stroke="null" id="svg_32" fill="#FBB040" points="1123.187255859375,304.3461608886719 1078.6983642578125,258.32891845703125 1022.4090576171875,258.32891845703125 1022.4090576171875,256.921630859375 1079.3765869140625,256.921630859375 1124.13671875,303.36114501953125 " class="st1"/>
   <circle stroke="null" id="svg_138" fill="#ED8B00" r="4.74729" cy="257.62527" cx="1079.10524" class="st0"/>
  </g>
  <g id="svg_280">
   <polygon stroke="null" id="svg_278" fill="#FBB040" points="1123.187255859375,304.3461608886719 1078.6983642578125,258.32891845703125 1022.4090576171875,258.32891845703125 1022.4090576171875,256.921630859375 1079.3765869140625,256.921630859375 1124.13671875,303.36114501953125 " class="st1"/>
   <circle stroke="null" id="svg_279" fill="#ED8B00" r="4.74729" cy="257.62527" cx="1079.10524" class="st0"/>
  </g>
  <path id="svg_284" d="m745.41504,101.56096c-0.40036,-17.0894 -14.21489,-30.81751 -31.20216,-30.82622c-11.35642,0.00871 -21.27499,6.14783 -26.72503,15.31732c-2.56144,-1.42375 -5.51032,-2.25536 -8.65292,-2.25536c-9.81095,0.00871 -17.79229,7.86765 -18.1496,17.70331c-10.30171,3.42223 -17.75785,13.17081 -17.76646,24.75676c0,14.4204 11.56736,26.12392 25.82961,26.12392l0,-0.00871l68.34083,0c14.25794,0 25.82961,-11.70351 25.82961,-26.12392c-0.01722,-11.48582 -7.34422,-21.19085 -17.50386,-24.6871zm-8.33435,42.11175l-68.33653,0c-9.5096,-0.02612 -17.20682,-7.8067 -17.22404,-17.41594c-0.00861,-8.63395 6.24215,-15.75708 14.42153,-17.12423c1.14081,-0.18722 2.16108,-0.82726 2.82834,-1.80255c0.66726,-0.96658 0.91265,-2.16393 0.7017,-3.31774c-0.12054,-0.64874 -0.19372,-1.25395 -0.19372,-1.84609c0.01722,-5.33363 4.28341,-9.65279 9.55695,-9.6615c2.78529,0 5.23911,1.21041 7.02996,3.18276c1.00305,1.11897 2.527,1.63274 3.99067,1.34974c1.47229,-0.28736 2.69489,-1.34103 3.22009,-2.74737c3.2244,-8.67314 11.45974,-14.8558 21.14153,-14.84709c12.4757,0.01742 22.57508,10.23622 22.60521,22.85843c0,0.69664 -0.03874,1.41505 -0.11193,2.15958c-0.21525,2.25536 1.313,4.28432 3.50422,4.69795c8.00287,1.50213 14.09005,8.55994 14.08144,17.08069c-0.02152,9.62666 -7.70583,17.40724 -17.21543,17.43336zm-51.37078,31.02215c-3.37507,-0.00871 -6.1044,-2.76914 -6.1044,-6.16524c0,-3.41788 2.72933,-6.16524 6.1044,-6.17395c3.35785,0.00871 6.08287,2.75607 6.09579,6.17395c-0.00861,3.39611 -2.73363,6.15654 -6.09579,6.16524zm32.2827,0c-3.37076,-0.00871 -6.1044,-2.76914 -6.1044,-6.16524c0,-3.41788 2.73363,-6.16524 6.1044,-6.17395c3.35354,0.00871 6.08718,2.75607 6.08718,6.17395c0.0043,3.39611 -2.72072,6.15654 -6.08718,6.16524zm-49.50244,22.03988c-3.37076,-0.00871 -6.10009,-2.77349 -6.10009,-6.17395s2.72933,-6.15654 6.10009,-6.16524c3.35785,0.00871 6.09148,2.76478 6.09148,6.16524c-0.0043,3.40482 -2.72933,6.1696 -6.09148,6.17395zm32.2784,0c-3.36646,-0.00871 -6.10009,-2.77349 -6.10009,-6.17395s2.72933,-6.15654 6.10009,-6.16524c3.35785,0.00871 6.08287,2.76478 6.09148,6.16524c-0.0043,3.40482 -2.72072,6.1696 -6.09148,6.17395zm32.2827,0c-3.36646,-0.00871 -6.09579,-2.76043 -6.09579,-6.16524c0,-3.41788 2.72933,-6.17395 6.09579,-6.18266c3.36215,0.00871 6.08718,2.76478 6.1044,6.18266c-0.01291,3.40917 -2.73794,6.16089 -6.1044,6.16524z" stroke="null" fill="#057ED8"/>
  <g id="svg_285">
   <circle stroke="null" id="svg_282" fill="#E87400" r="4.74729" cy="681.41263" cx="553.57196" class="st7"/>
   <rect stroke="null" id="svg_283" height="1" width="161" y="680.11108" x="464.22222" fill="#E87400"/>
  </g>
  <g id="svg_288">
   <circle stroke="null" id="svg_286" fill="#E87400" r="4.74729" cy="681.41263" cx="553.57196" class="st7"/>
   <rect stroke="null" id="svg_287" height="1" width="161" y="680.11108" x="464.22222" fill="#E87400"/>
  </g>
  <rect stroke="null" id="svg_289" height="60" width="1" y="200.11111" x="701.22223" fill="#fbb040"/>
  <rect id="svg_290" height="41" width="2" y="583.11111" x="445.22222" stroke="null" fill="#fbb040"/>
 </g>
</svg>