<svg width="1400.0000000000002" height="800" xmlns="http://www.w3.org/2000/svg" xmlns:xlink="http://www.w3.org/1999/xlink" xml:space="preserve" version="1.1">
 <g>
  <title>Layer 1</title>
  <g stroke="null" id="svg_405">
   <g stroke="null" id="color_palette"/>
   <path stroke="null" id="svg_1" fill="#FBB040" d="m1003.7645,290.04531c1.14934,0.60388 1.14934,2.41553 -0.14367,2.86844l-3.30435,1.20776c-0.71834,0.15097 -1.00567,0.75485 -1.29301,1.20776l-1.43667,3.32135c-0.57467,1.20776 -2.29868,1.20776 -2.72968,-0.15097l-1.14934,-3.47232c-0.14367,-0.75485 -0.71834,-1.05679 -1.14934,-1.35873l-3.16068,-1.50971c-1.14934,-0.60388 -1.14934,-2.41553 0.14367,-2.86844l3.30435,-1.20776c0.71834,-0.15097 1.00567,-0.75485 1.29301,-1.20776l1.43667,-3.32135c0.57467,-1.20776 2.29868,-1.20776 2.72968,0.15097l1.14934,3.47232c0.14367,0.75485 0.71834,1.05679 1.14934,1.35873l3.16068,1.50971z" class="st0"/>
   <g stroke="null" id="svg_2">
    <path stroke="null" id="svg_3" fill="#EFEFEF" d="m1371.26574,494.76138c-1.43667,0 -2.58601,-1.20776 -2.58601,-2.71747l0,-19.02229c0,-1.50971 1.14934,-2.71747 2.58601,-2.71747s2.58601,1.20776 2.58601,2.71747l0,19.02229c-0.14367,1.66068 -1.29301,2.71747 -2.58601,2.71747z" class="st1"/>
    <path stroke="null" id="svg_4" fill="#EFEFEF" d="m1380.31678,485.25024l-18.10209,0c-1.43667,0 -2.58601,-1.20776 -2.58601,-2.71747s1.14934,-2.71747 2.58601,-2.71747l18.10209,0c1.43667,0 2.58601,1.20776 2.58601,2.71747s-1.29301,2.71747 -2.58601,2.71747z" class="st1"/>
   </g>
   <g stroke="null" id="svg_5">
    <path stroke="null" id="svg_6" fill="#EFEFEF" d="m1332.1882,252.1517c-1.43667,0 -2.58601,-1.20776 -2.58601,-2.71747l0,-18.87132c0,-1.50971 1.14934,-2.71747 2.58601,-2.71747s2.58601,1.20776 2.58601,2.71747l0,19.02229c0,1.35873 -1.14934,2.5665 -2.58601,2.5665z" class="st1"/>
    <path stroke="null" id="svg_7" fill="#EFEFEF" d="m1341.23925,242.64056l-18.10209,0c-1.43667,0 -2.58601,-1.20776 -2.58601,-2.71747s1.14934,-2.71747 2.58601,-2.71747l18.10209,0c1.43667,0 2.58601,1.20776 2.58601,2.71747s-1.14934,2.71747 -2.58601,2.71747z" class="st1"/>
   </g>
   <g stroke="null" id="svg_8">
    <path stroke="null" id="svg_9" fill="#EFEFEF" d="m982.35806,226.48671c-1.43667,0 -2.58601,-1.20776 -2.58601,-2.71747l0,-18.87132c0,-1.50971 1.14934,-2.71747 2.58601,-2.71747s2.58601,1.20776 2.58601,2.71747l0,19.02229c-0.14367,1.35873 -1.29301,2.5665 -2.58601,2.5665z" class="st1"/>
    <path stroke="null" id="svg_10" fill="#EFEFEF" d="m991.4091,216.97557l-18.10209,0c-1.43667,0 -2.58601,-1.20776 -2.58601,-2.71747s1.14934,-2.71747 2.58601,-2.71747l18.10209,0c1.43667,0 2.58601,1.20776 2.58601,2.71747s-1.29301,2.71747 -2.58601,2.71747z" class="st1"/>
   </g>
   <g stroke="null" id="svg_14">
    <path stroke="null" id="svg_15" fill="#EFEFEF" d="m600.49008,319.03166c-1.43667,0 -2.58601,-1.20776 -2.58601,-2.71747l0,-18.87132c0,-1.50971 1.14934,-2.71747 2.58601,-2.71747s2.58601,1.20776 2.58601,2.71747l0,19.02229c-0.14367,1.50971 -1.14934,2.5665 -2.58601,2.5665z" class="st1"/>
    <path stroke="null" id="svg_16" fill="#EFEFEF" d="m609.54113,309.52051l-18.10209,0c-1.43667,0 -2.58601,-1.20776 -2.58601,-2.71747s1.14934,-2.71747 2.58601,-2.71747l18.10209,0c1.43667,0 2.58601,1.20776 2.58601,2.71747s-1.14934,2.71747 -2.58601,2.71747z" class="st1"/>
   </g>
   <g stroke="null" id="svg_17">
    <path stroke="null" id="svg_18" fill="#EFEFEF" d="m295.7715,597.57233c-1.43667,0 -2.58601,-1.20776 -2.58601,-2.71747l0,-19.02229c0,-1.50971 1.14934,-2.71747 2.58601,-2.71747s2.58601,1.20776 2.58601,2.71747l0,19.02229c-0.14367,1.50971 -1.29301,2.71747 -2.58601,2.71747z" class="st1"/>
    <path stroke="null" id="svg_19" fill="#EFEFEF" d="m304.82255,588.06118l-18.10209,0c-1.43667,0 -2.58601,-1.20776 -2.58601,-2.71747s1.14934,-2.71747 2.58601,-2.71747l18.10209,0c1.43667,0 2.58601,1.20776 2.58601,2.71747s-1.29301,2.71747 -2.58601,2.71747z" class="st1"/>
   </g>
   <circle stroke="null" id="svg_149" fill="#D1D1D1" r="9.63057" cy="386.66647" cx="785.28495" class="st13"/>
   <polygon stroke="null" id="svg_150" fill="#9AD9FC" points="589.7150268554688,539.2977228689124 271.2043762207031,539.2977228689124 271.2043762207031,497.176906620778 275.51434326171875,497.176906620778 275.51434326171875,534.7686577838322 589.7150268554688,534.7686577838322 " class="st4"/>
   <rect stroke="null" id="svg_151" fill="#9AD9FC" height="4.52912" width="136.77137" class="st4" y="392.85626" x="411.42377"/>
   <polygon stroke="null" id="svg_152" fill="#9AD9FC" points="1059.2076416015625,389.3935599980323 793.4615478515625,389.3935599980323 793.4615478515625,384.8644665264583 1054.1234130859375,384.8644665264583 1054.1234130859375,359.5013897985773 1059.2076416015625,359.5013897985773 " class="st4"/>
   <polygon stroke="null" id="svg_153" fill="#9AD9FC" points="1168.1199951171875,578.248136784503 674.3351440429688,578.248136784503 674.3351440429688,573.7190149264352 1163.8099365234375,573.7190149264352 1163.8099365234375,497.62984151577984 1168.1199951171875,497.62984151577984 " class="st4"/>
   <rect stroke="null" id="svg_154" fill="#9AD9FC" height="4.52912" width="174.98691" class="st4" y="498.53564" x="820.87589"/>
   <polygon stroke="null" id="svg_155" fill="#9AD9FC" points="714.1310424804688,395.27180674672127 709.8209228515625,395.27180674672127 709.8209228515625,249.43425039725116 555.6658325195312,249.43425039725116 555.6658325195312,244.90515692567715 714.1310424804688,244.90515692567715 " class="st4"/>
   <path stroke="null" id="svg_156" fill="#DDDDDD" d="m1060.08213,260.75703c-1.14934,0 -2.15501,-1.05679 -2.15501,-2.26456l0,-0.15097c0,-1.20776 1.00567,-2.26456 2.15501,-2.26456s2.15501,1.05679 2.15501,2.26456l0,0.15097c0,1.20776 -1.00567,2.26456 -2.15501,2.26456zm0,-7.6995c-1.14934,0 -2.15501,-1.05679 -2.15501,-2.26456l0,-0.15097c0,-1.20776 1.00567,-2.26456 2.15501,-2.26456s2.15501,1.05679 2.15501,2.26456l0,0.15097c0,1.20776 -1.00567,2.26456 -2.15501,2.26456zm88.06812,-7.6995l0,0c-1.29301,0 -2.29868,-1.05679 -2.29868,-2.26456s1.00567,-2.26456 2.15501,-2.26456s2.15501,1.05679 2.15501,2.26456s-0.862,2.26456 -2.01134,2.26456zm-7.32704,0l-0.14367,0c-1.14934,0 -2.15501,-1.05679 -2.15501,-2.26456s1.00567,-2.26456 2.15501,-2.26456l0.14367,0c1.14934,0 2.15501,1.05679 2.15501,2.26456s-1.00567,2.26456 -2.15501,2.26456zm-7.32704,0l0,0c-1.29301,0 -2.29868,-1.05679 -2.29868,-2.26456s1.00567,-2.26456 2.15501,-2.26456s2.15501,1.05679 2.15501,2.26456s-0.862,2.26456 -2.01134,2.26456zm-7.32704,0l-0.14367,0c-1.14934,0 -2.15501,-1.05679 -2.15501,-2.26456s1.00567,-2.26456 2.15501,-2.26456l0.14367,0c1.14934,0 2.15501,1.05679 2.15501,2.26456s-1.00567,2.26456 -2.15501,2.26456zm-7.32704,0l0,0c-1.29301,0 -2.29868,-1.05679 -2.29868,-2.26456s1.00567,-2.26456 2.15501,-2.26456s2.15501,1.05679 2.15501,2.26456s-0.862,2.26456 -2.01134,2.26456zm-7.32704,0l0,0c-1.29301,0 -2.29868,-1.05679 -2.29868,-2.26456s1.00567,-2.26456 2.15501,-2.26456s2.15501,1.05679 2.15501,2.26456s-0.862,2.26456 -2.01134,2.26456zm-7.32704,0l-0.14367,0c-1.14934,0 -2.15501,-1.05679 -2.15501,-2.26456s1.00567,-2.26456 2.15501,-2.26456l0.14367,0c1.14934,0 2.15501,1.05679 2.15501,2.26456s-1.00567,2.26456 -2.15501,2.26456zm-7.32704,0l0,0c-1.29301,0 -2.29868,-1.05679 -2.29868,-2.26456s1.00567,-2.26456 2.15501,-2.26456s2.15501,1.05679 2.15501,2.26456s-0.862,2.26456 -2.01134,2.26456zm-7.32704,0l-0.14367,0c-1.14934,0 -2.15501,-1.05679 -2.15501,-2.26456s1.00567,-2.26456 2.15501,-2.26456l0.14367,0c1.14934,0 2.15501,1.05679 2.15501,2.26456s-1.00567,2.26456 -2.15501,2.26456zm-7.32704,0l0,0c-1.29301,0 -2.29868,-1.05679 -2.29868,-2.26456s1.00567,-2.26456 2.15501,-2.26456s2.15501,1.05679 2.15501,2.26456s-0.862,2.26456 -2.01134,2.26456zm-7.32704,0l0,0c-1.29301,0 -2.29868,-1.05679 -2.29868,-2.26456s1.00567,-2.26456 2.15501,-2.26456s2.15501,1.05679 2.15501,2.26456s-0.862,2.26456 -2.01134,2.26456zm-7.32704,0l-0.14367,0c-1.14934,0 -2.15501,-1.05679 -2.15501,-2.26456s1.00567,-2.26456 2.15501,-2.26456l0.14367,0c1.14934,0 2.15501,1.05679 2.15501,2.26456s-1.00567,2.26456 -2.15501,2.26456zm-7.32704,0l0,0c-1.29301,0 -2.29868,-1.05679 -2.29868,-2.26456s1.00567,-2.26456 2.15501,-2.26456s2.15501,1.05679 2.15501,2.26456s-0.862,2.26456 -2.01134,2.26456z" class="st2"/>
   <g stroke="null" id="svg_157">
    <path stroke="null" id="svg_158" fill="#EAEAEA" d="m181.98691,518.61473c-1.14934,0 -2.15501,-0.90582 -2.15501,-2.26456l0,-0.15097c0,-1.20776 1.00567,-2.26456 2.15501,-2.26456s2.15501,1.05679 2.15501,2.26456s-1.00567,2.41553 -2.15501,2.41553z" class="st14"/>
    <path stroke="null" id="svg_159" fill="#EAEAEA" d="m181.98691,511.21717c-1.14934,0 -2.15501,-0.90582 -2.15501,-2.26456l0,-0.15097c0,-1.20776 1.00567,-2.26456 2.15501,-2.26456s2.15501,1.05679 2.15501,2.26456s-1.00567,2.41553 -2.15501,2.41553zm0,-7.54853c-1.14934,0 -2.15501,-0.90582 -2.15501,-2.26456l0,0c0,-1.20776 1.00567,-2.26456 2.15501,-2.26456s2.15501,1.05679 2.15501,2.26456s-1.00567,2.26456 -2.15501,2.26456zm0,-7.54853c-1.14934,0 -2.15501,-0.90582 -2.15501,-2.26456l0,0c0,-1.20776 1.00567,-2.26456 2.15501,-2.26456s2.15501,1.05679 2.15501,2.26456s-1.00567,2.26456 -2.15501,2.26456zm0,-7.39756c-1.14934,0 -2.15501,-0.90582 -2.15501,-2.26456l0,-0.15097c0,-1.20776 1.00567,-2.26456 2.15501,-2.26456s2.15501,1.05679 2.15501,2.26456s-1.00567,2.41553 -2.15501,2.41553zm0,-7.54853c-1.14934,0 -2.15501,-0.90582 -2.15501,-2.26456l0,-0.15097c0,-1.20776 1.00567,-2.26456 2.15501,-2.26456s2.15501,1.05679 2.15501,2.26456s-1.00567,2.41553 -2.15501,2.41553zm0,-7.54853c-1.14934,0 -2.15501,-0.90582 -2.15501,-2.26456l0,-0.15097c0,-1.20776 1.00567,-2.26456 2.15501,-2.26456s2.15501,1.05679 2.15501,2.26456s-1.00567,2.41553 -2.15501,2.41553z" class="st14"/>
    <path stroke="null" id="svg_160" fill="#EAEAEA" d="m181.98691,466.22795c-1.14934,0 -2.15501,-0.90582 -2.15501,-2.26456l0,-2.26456l2.15501,0c1.14934,0 2.15501,1.05679 2.15501,2.26456c0,0.90582 -0.57467,1.81165 -1.29301,2.11359c-0.28733,0 -0.57467,0.15097 -0.862,0.15097z" class="st14"/>
    <path stroke="null" id="svg_161" fill="#EAEAEA" d="m195.20432,466.07698c-1.14934,0 -2.15501,-1.05679 -2.15501,-2.26456s0.862,-2.26456 2.15501,-2.26456l0.14367,0c1.14934,0 2.15501,1.05679 2.15501,2.26456s-1.14934,2.26456 -2.29868,2.26456zm-6.6087,0c-1.14934,0 -2.15501,-1.05679 -2.15501,-2.26456s0.862,-2.26456 2.15501,-2.26456l0.14367,0c1.14934,0 2.15501,1.05679 2.15501,2.26456s-1.14934,2.26456 -2.29868,2.26456z" class="st14"/>
    <path stroke="null" id="svg_162" fill="#EAEAEA" d="m201.81302,466.07698c-1.14934,0 -2.15501,-1.05679 -2.15501,-2.26456s0.862,-2.26456 2.15501,-2.26456l0,0c1.14934,0 2.15501,1.05679 2.15501,2.26456s-1.00567,2.26456 -2.15501,2.26456z" class="st14"/>
   </g>
   <g stroke="null" id="svg_163">
    <path stroke="null" id="svg_164" fill="#DDDDDD" d="m233.13251,305.14237c-1.14934,0 -2.15501,-1.05679 -2.15501,-2.26456s0.862,-2.26456 2.15501,-2.26456l0,0c1.14934,0 2.15501,1.05679 2.15501,2.26456s-1.00567,2.26456 -2.15501,2.26456z" class="st2"/>
    <path stroke="null" id="svg_165" fill="#DDDDDD" d="m402.94739,305.14237l-0.14367,0c-1.14934,0 -2.15501,-1.05679 -2.15501,-2.26456s1.00567,-2.26456 2.15501,-2.26456l0.14367,0c1.14934,0 2.15501,1.05679 2.15501,2.26456s-1.00567,2.26456 -2.15501,2.26456zm-7.32704,0l-0.14367,0c-1.14934,0 -2.15501,-1.05679 -2.15501,-2.26456s1.00567,-2.26456 2.15501,-2.26456l0.14367,0c1.14934,0 2.15501,1.05679 2.15501,2.26456s-1.00567,2.26456 -2.15501,2.26456zm-7.47071,0l-0.14367,0c-1.14934,0 -2.15501,-1.05679 -2.15501,-2.26456s1.00567,-2.26456 2.15501,-2.26456l0.14367,0c1.14934,0 2.15501,1.05679 2.15501,2.26456s-0.862,2.26456 -2.15501,2.26456zm-7.32704,0l-0.14367,0c-1.14934,0 -2.15501,-1.05679 -2.15501,-2.26456s1.00567,-2.26456 2.15501,-2.26456l0.14367,0c1.14934,0 2.15501,1.05679 2.15501,2.26456s-1.00567,2.26456 -2.15501,2.26456zm-7.47071,0l-0.14367,0c-1.14934,0 -2.15501,-1.05679 -2.15501,-2.26456s1.00567,-2.26456 2.15501,-2.26456l0.14367,0c1.14934,0 2.15501,1.05679 2.15501,2.26456s-0.862,2.26456 -2.15501,2.26456zm-7.32704,0l-0.14367,0c-1.14934,0 -2.15501,-1.05679 -2.15501,-2.26456s1.00567,-2.26456 2.15501,-2.26456l0.14367,0c1.14934,0 2.15501,1.05679 2.15501,2.26456s-1.00567,2.26456 -2.15501,2.26456zm-7.32704,0l-0.14367,0c-1.14934,0 -2.15501,-1.05679 -2.15501,-2.26456s1.00567,-2.26456 2.15501,-2.26456l0.14367,0c1.14934,0 2.15501,1.05679 2.15501,2.26456s-1.00567,2.26456 -2.15501,2.26456zm-7.47071,0l-0.14367,0c-1.14934,0 -2.15501,-1.05679 -2.15501,-2.26456s1.00567,-2.26456 2.15501,-2.26456l0.14367,0c1.14934,0 2.15501,1.05679 2.15501,2.26456s-1.00567,2.26456 -2.15501,2.26456zm-7.32704,0l-0.14367,0c-1.14934,0 -2.15501,-1.05679 -2.15501,-2.26456s1.00567,-2.26456 2.15501,-2.26456l0.14367,0c1.14934,0 2.15501,1.05679 2.15501,2.26456s-1.00567,2.26456 -2.15501,2.26456zm-7.47071,0l-0.14367,0c-1.14934,0 -2.15501,-1.05679 -2.15501,-2.26456s1.00567,-2.26456 2.15501,-2.26456l0.14367,0c1.14934,0 2.15501,1.05679 2.15501,2.26456s-0.862,2.26456 -2.15501,2.26456zm-7.32704,0l-0.14367,0c-1.14934,0 -2.15501,-1.05679 -2.15501,-2.26456s1.00567,-2.26456 2.15501,-2.26456l0.14367,0c1.14934,0 2.15501,1.05679 2.15501,2.26456s-1.00567,2.26456 -2.15501,2.26456zm-7.32704,0l-0.14367,0c-1.14934,0 -2.15501,-1.05679 -2.15501,-2.26456s1.00567,-2.26456 2.15501,-2.26456l0.14367,0c1.14934,0 2.15501,1.05679 2.15501,2.26456s-1.00567,2.26456 -2.15501,2.26456zm-7.47071,0l-0.14367,0c-1.14934,0 -2.15501,-1.05679 -2.15501,-2.26456s1.00567,-2.26456 2.15501,-2.26456l0.14367,0c1.14934,0 2.15501,1.05679 2.15501,2.26456s-1.00567,2.26456 -2.15501,2.26456zm-7.32704,0l-0.14367,0c-1.14934,0 -2.15501,-1.05679 -2.15501,-2.26456s1.00567,-2.26456 2.15501,-2.26456l0.14367,0c1.14934,0 2.15501,1.05679 2.15501,2.26456s-1.00567,2.26456 -2.15501,2.26456zm-7.47071,0l-0.14367,0c-1.14934,0 -2.15501,-1.05679 -2.15501,-2.26456s1.00567,-2.26456 2.15501,-2.26456l0.14367,0c1.14934,0 2.15501,1.05679 2.15501,2.26456s-0.862,2.26456 -2.15501,2.26456zm-7.32704,0l-0.14367,0c-1.14934,0 -2.15501,-1.05679 -2.15501,-2.26456s1.00567,-2.26456 2.15501,-2.26456l0.14367,0c1.14934,0 2.15501,1.05679 2.15501,2.26456s-1.00567,2.26456 -2.15501,2.26456zm-7.47071,0l-0.14367,0c-1.14934,0 -2.15501,-1.05679 -2.15501,-2.26456s1.00567,-2.26456 2.15501,-2.26456l0.14367,0c1.14934,0 2.15501,1.05679 2.15501,2.26456s-0.862,2.26456 -2.15501,2.26456zm-7.32704,0l-0.14367,0c-1.14934,0 -2.15501,-1.05679 -2.15501,-2.26456s1.00567,-2.26456 2.15501,-2.26456l0.14367,0c1.14934,0 2.15501,1.05679 2.15501,2.26456s-1.00567,2.26456 -2.15501,2.26456zm-7.32704,0l-0.14367,0c-1.14934,0 -2.15501,-1.05679 -2.15501,-2.26456s1.00567,-2.26456 2.15501,-2.26456l0.14367,0c1.14934,0 2.15501,1.05679 2.15501,2.26456s-1.00567,2.26456 -2.15501,2.26456zm-7.47071,0l-0.14367,0c-1.14934,0 -2.15501,-1.05679 -2.15501,-2.26456s1.00567,-2.26456 2.15501,-2.26456l0.14367,0c1.14934,0 2.15501,1.05679 2.15501,2.26456s-1.00567,2.26456 -2.15501,2.26456zm-7.32704,0l-0.14367,0c-1.14934,0 -2.15501,-1.05679 -2.15501,-2.26456s1.00567,-2.26456 2.15501,-2.26456l0.14367,0c1.14934,0 2.15501,1.05679 2.15501,2.26456s-1.00567,2.26456 -2.15501,2.26456zm-7.47071,0l-0.14367,0c-1.14934,0 -2.15501,-1.05679 -2.15501,-2.26456s1.00567,-2.26456 2.15501,-2.26456l0.14367,0c1.14934,0 2.15501,1.05679 2.15501,2.26456s-0.862,2.26456 -2.15501,2.26456zm-7.32704,0l-0.14367,0c-1.14934,0 -2.15501,-1.05679 -2.15501,-2.26456s1.00567,-2.26456 2.15501,-2.26456l0.14367,0c1.14934,0 2.15501,1.05679 2.15501,2.26456s-1.00567,2.26456 -2.15501,2.26456z" class="st2"/>
    <path stroke="null" id="svg_166" fill="#DDDDDD" d="m410.27443,305.29334c-0.862,0 -1.72401,-0.60388 -2.01134,-1.35873c-0.14367,-0.30194 -0.14367,-0.60388 -0.14367,-0.90582c0,-1.20776 0.862,-2.26456 2.15501,-2.26456l2.15501,0l0,2.26456c0,1.20776 -1.00567,2.26456 -2.15501,2.26456z" class="st2"/>
    <path stroke="null" id="svg_167" fill="#DDDDDD" d="m410.27443,313.74769c-1.14934,0 -2.15501,-1.05679 -2.15501,-2.26456l0,-0.15097c0,-1.20776 1.00567,-2.26456 2.15501,-2.26456s2.15501,1.05679 2.15501,2.26456l0,0.15097c0,1.35873 -1.00567,2.26456 -2.15501,2.26456z" class="st2"/>
    <path stroke="null" id="svg_168" fill="#DDDDDD" d="m410.27443,322.20204c-1.14934,0 -2.15501,-1.05679 -2.15501,-2.26456s1.00567,-2.26456 2.15501,-2.26456s2.15501,0.90582 2.15501,2.26456l0,0.15097c0,1.20776 -1.00567,2.11359 -2.15501,2.11359z" class="st2"/>
    <path stroke="null" id="svg_169" fill="#DDDDDD" d="m410.27443,340.77142c-1.14934,0 -2.15501,-1.05679 -2.15501,-2.26456l0,-0.15097c0,-1.20776 1.00567,-2.26456 2.15501,-2.26456s2.15501,1.05679 2.15501,2.26456l0,0.15097c0,1.20776 -1.00567,2.26456 -2.15501,2.26456z" class="st2"/>
    <path stroke="null" id="svg_170" fill="#DDDDDD" d="m410.27443,349.22577c-1.14934,0 -2.15501,-1.05679 -2.15501,-2.26456s1.00567,-2.26456 2.15501,-2.26456s2.15501,0.90582 2.15501,2.26456l0,0.15097c0,1.05679 -1.00567,2.11359 -2.15501,2.11359z" class="st2"/>
    <path stroke="null" id="svg_171" fill="#DDDDDD" d="m410.27443,331.86416c-1.14934,0 -2.15501,-1.05679 -2.15501,-2.26456l0,-0.15097c0,-1.20776 1.00567,-2.26456 2.15501,-2.26456s2.15501,1.05679 2.15501,2.26456l0,0.15097c0,1.35873 -1.00567,2.26456 -2.15501,2.26456z" class="st2"/>
   </g>
   <g stroke="null" id="svg_178">
    <path stroke="null" id="svg_179" fill="#DDDDDD" d="m1238.22971,432.56151c-1.14934,0 -2.15501,-1.05679 -2.15501,-2.26456s0.862,-2.26456 2.15501,-2.26456l0.14367,0c1.14934,0 2.15501,1.05679 2.15501,2.26456s-1.00567,2.26456 -2.29868,2.26456z" class="st2"/>
    <path stroke="null" id="svg_180" fill="#DDDDDD" d="m1265.52652,432.56151c-1.14934,0 -2.15501,-1.05679 -2.15501,-2.26456s0.862,-2.26456 2.15501,-2.26456l0.14367,0c1.14934,0 2.15501,1.05679 2.15501,2.26456s-1.14934,2.26456 -2.29868,2.26456zm-6.75237,0c-1.14934,0 -2.15501,-1.05679 -2.15501,-2.26456s0.862,-2.26456 2.15501,-2.26456l0.14367,0c1.14934,0 2.15501,1.05679 2.15501,2.26456s-1.14934,2.26456 -2.29868,2.26456zm-6.89604,0c-1.14934,0 -2.15501,-1.05679 -2.15501,-2.26456s0.862,-2.26456 2.15501,-2.26456l0.14367,0c1.14934,0 2.15501,1.05679 2.15501,2.26456s-1.00567,2.26456 -2.29868,2.26456zm-6.75237,0c-1.14934,0 -2.15501,-1.05679 -2.15501,-2.26456s0.862,-2.26456 2.15501,-2.26456l0.14367,0c1.14934,0 2.15501,1.05679 2.15501,2.26456s-1.14934,2.26456 -2.29868,2.26456z" class="st2"/>
    <path stroke="null" id="svg_181" fill="#DDDDDD" d="m1272.27889,432.56151c-0.862,0 -1.58034,-0.60388 -2.01134,-1.35873c-0.14367,-0.30194 -0.14367,-0.60388 -0.14367,-0.90582c0,-1.20776 0.862,-2.26456 2.15501,-2.26456l2.29868,0l0,2.26456c-0.14367,1.20776 -1.14934,2.26456 -2.29868,2.26456z" class="st2"/>
    <path stroke="null" id="svg_182" fill="#DDDDDD" d="m1272.27889,487.81674c-1.14934,0 -2.15501,-1.05679 -2.15501,-2.26456l0,-0.15097c0,-1.20776 1.00567,-2.26456 2.15501,-2.26456s2.15501,1.05679 2.15501,2.26456l0,0.15097c0,1.20776 -1.00567,2.26456 -2.15501,2.26456zm0,-8.00144c-1.14934,0 -2.15501,-1.05679 -2.15501,-2.26456l0,-0.15097c0,-1.20776 1.00567,-2.26456 2.15501,-2.26456s2.15501,1.05679 2.15501,2.26456l0,0.15097c0,1.35873 -1.00567,2.26456 -2.15501,2.26456zm0,-7.85047c-1.14934,0 -2.15501,-1.05679 -2.15501,-2.26456l0,-0.15097c0,-1.20776 1.00567,-2.26456 2.15501,-2.26456s2.15501,1.05679 2.15501,2.26456l0,0.15097c0,1.20776 -1.00567,2.26456 -2.15501,2.26456zm0,-7.85047c-1.14934,0 -2.15501,-1.05679 -2.15501,-2.26456l0,-0.15097c0,-1.20776 1.00567,-2.26456 2.15501,-2.26456s2.15501,1.05679 2.15501,2.26456l0,0.15097c0,1.20776 -1.00567,2.26456 -2.15501,2.26456zm0,-7.85047c-1.14934,0 -2.15501,-1.05679 -2.15501,-2.26456l0,-0.15097c0,-1.20776 1.00567,-2.26456 2.15501,-2.26456s2.15501,1.05679 2.15501,2.26456l0,0.15097c0,1.20776 -1.00567,2.26456 -2.15501,2.26456zm0,-7.85047c-1.14934,0 -2.15501,-1.05679 -2.15501,-2.26456l0,-0.15097c0,-1.20776 1.00567,-2.26456 2.15501,-2.26456s2.15501,1.05679 2.15501,2.26456l0,0.15097c0,1.20776 -1.00567,2.26456 -2.15501,2.26456zm0,-8.00144c-1.14934,0 -2.15501,-1.05679 -2.15501,-2.26456l0,-0.15097c0,-1.20776 1.00567,-2.26456 2.15501,-2.26456s2.15501,1.05679 2.15501,2.26456l0,0.15097c0,1.35873 -1.00567,2.26456 -2.15501,2.26456z" class="st2"/>
    <path stroke="null" id="svg_183" fill="#DDDDDD" d="m1272.27889,495.51623c-1.14934,0 -2.15501,-1.05679 -2.15501,-2.26456s1.00567,-2.26456 2.15501,-2.26456s2.15501,0.90582 2.15501,2.26456l0,0c0,1.35873 -1.00567,2.26456 -2.15501,2.26456z" class="st2"/>
    <path stroke="null" id="svg_184" fill="#DDDDDD" d="m1272.27889,504.4235c-1.14934,0 -2.15501,-1.05679 -2.15501,-2.26456l0,-0.15097c0,-1.20776 1.00567,-2.26456 2.15501,-2.26456s2.15501,1.05679 2.15501,2.26456l0,0.15097c0,1.20776 -1.00567,2.26456 -2.15501,2.26456z" class="st2"/>
    <path stroke="null" id="svg_185" fill="#DDDDDD" d="m1272.27889,512.12299c-1.14934,0 -2.15501,-1.05679 -2.15501,-2.26456s1.00567,-2.26456 2.15501,-2.26456s2.15501,0.90582 2.15501,2.26456l0,0c0,1.35873 -1.00567,2.26456 -2.15501,2.26456z" class="st2"/>
   </g>
   <circle stroke="null" id="svg_186" fill="#EAEAEA" r="9.63057" cy="405.23584" cx="709.53365" class="st14"/>
   <circle stroke="null" id="svg_187" fill="#D1D1D1" r="14.51004" cy="395.12082" cx="561.69988" class="st13"/>
   <circle stroke="null" id="svg_188" fill="#EAEAEA" r="12.32712" cy="500.8002" cx="810.53183" class="st14"/>
   <circle stroke="null" id="svg_189" fill="#D1D1D1" r="9.63057" cy="571.45442" cx="669.88144" class="st13"/>
   <circle stroke="null" id="svg_190" fill="#EAEAEA" r="13.48285" cy="537.03314" cx="581.81332" class="st14"/>
   <g stroke="null" id="svg_191">
    <g stroke="null" id="svg_192">
     <circle stroke="null" id="svg_193" fill="#005EB8" r="40.31995" cy="315.86128" cx="1059.07645" class="st9"/>
    </g>
    <g stroke="null" id="svg_194">
     <path stroke="null" id="svg_195" fill="#FBB040" d="m1059.07645,303.48169c6.46503,0 11.78073,5.58591 11.78073,12.37959c0,6.18979 -4.31002,11.32279 -9.91305,12.22861l0,15.70094c13.79207,-0.90582 24.85446,-13.13444 24.85446,-27.92955c0,-15.399 -11.9244,-27.92955 -26.57847,-27.92955c-6.75237,0 -12.7864,2.5665 -17.52742,6.94465l10.48772,11.02085c1.86768,-1.50971 4.31002,-2.41553 6.89604,-2.41553z" class="st0"/>
     <path stroke="null" id="svg_196" fill="#FFFFFF" d="m1032.49798,313.89866l14.94141,0c0.28733,-1.96262 1.00567,-3.77426 2.15501,-5.43494l-10.48772,-11.02085c-3.87902,4.52912 -6.1777,10.266 -6.6087,16.45579z" class="st12"/>
     <path stroke="null" id="svg_197" fill="#ED8B00" d="m1047.43939,317.67292l-14.94141,0c0.862,13.88929 11.49339,25.06111 24.71079,25.96693l0,-15.54997c-5.02836,-0.90582 -9.05105,-4.98203 -9.76938,-10.41697z" class="st15"/>
    </g>
   </g>
   <g stroke="null" id="svg_198">
    <g stroke="null" id="svg_199">
     <circle stroke="null" id="svg_200" fill="#FBB040" r="57.01302" cy="433.46734" cx="1162.80432" class="st0"/>
    </g>
    <g stroke="null" id="svg_201">
     <g stroke="null" id="svg_202">
      <path stroke="null" id="svg_203" fill="#AEE8FC" d="m1124.44513,425.76784l19.53877,0l0,13.73832l-19.53877,0l0,-13.73832z" class="st3"/>
      <path stroke="null" id="svg_204" fill="#1AA1FC" d="m1124.44513,456.56583l19.53877,0l0,13.73832l-19.53877,0l0,-13.73832z" class="st5"/>
      <path stroke="null" id="svg_205" fill="#1AA1FC" d="m1160.36198,425.76784l19.53877,0l0,13.73832l-19.53877,0l0,-13.73832z" class="st5"/>
      <path stroke="null" id="svg_206" fill="#AEE8FC" d="m1160.36198,456.56583l19.53877,0l0,13.73832l-19.53877,0l0,-13.73832z" class="st3"/>
     </g>
     <g stroke="null" id="svg_207">
      <path stroke="null" id="svg_208" fill="#005EB8" d="m1143.98389,430.90084l16.23442,0l0,3.47232l-16.23442,0l0,-3.47232z" class="st9"/>
      <path stroke="null" id="svg_209" fill="#005EB8" d="m1168.40735,439.35519l3.30435,0l0,17.05967l-3.30435,0l0,-17.05967z" class="st9"/>
      <path stroke="null" id="svg_210" fill="#005EB8" d="m1143.98389,461.69883l16.23442,0l0,3.47232l-16.23442,0l0,-3.47232z" class="st9"/>
     </g>
     <path stroke="null" id="svg_211" fill="#FFFFFF" d="m1202.74386,415.65281l0,-7.24659c0,-0.90582 -0.57467,-1.50971 -1.43667,-1.50971l-4.59736,0c-0.57467,0 -1.14934,-0.45291 -1.43667,-1.05679c-0.28733,-1.05679 -0.71834,-2.11359 -1.29301,-3.17038c-0.28733,-0.60388 -0.14367,-1.35873 0.28733,-1.81165l3.30435,-3.47232c0.57467,-0.60388 0.57467,-1.50971 0,-2.11359l-4.88469,-5.133c-0.57467,-0.60388 -1.43667,-0.60388 -2.01134,0l-3.30435,3.47232c-0.431,0.45291 -1.14934,0.60388 -1.72401,0.30194c-1.00567,-0.60388 -2.01134,-0.90582 -3.01702,-1.35873c-0.57467,-0.15097 -1.00567,-0.75485 -1.00567,-1.50971l0,-4.83106c0,-0.90582 -0.57467,-1.50971 -1.43667,-1.50971l-6.89604,0c-0.862,0 -1.43667,0.60388 -1.43667,1.50971l0,4.83106c0,0.60388 -0.431,1.20776 -1.00567,1.50971c-1.00567,0.30194 -2.01134,0.75485 -3.01702,1.35873c-0.57467,0.30194 -1.29301,0.15097 -1.72401,-0.30194l-3.30435,-3.47232c-0.57467,-0.60388 -1.43667,-0.60388 -2.01134,0l-4.88469,5.133c-0.57467,0.60388 -0.57467,1.50971 0,2.11359l3.30435,3.47232c0.431,0.45291 0.57467,1.20776 0.28733,1.81165c-0.57467,1.05679 -0.862,2.11359 -1.29301,3.17038c-0.14367,0.60388 -0.71834,1.05679 -1.43667,1.05679l-4.59736,0c-0.862,0 -1.43667,0.60388 -1.43667,1.50971l0,7.24659c0,0.90582 0.57467,1.50971 1.43667,1.50971l4.59736,0c0.57467,0 1.14934,0.45291 1.43667,1.05679c0.28733,1.05679 0.71834,2.11359 1.29301,3.17038c0.28733,0.60388 0.14367,1.35873 -0.28733,1.81165l-3.30435,3.47232c-0.57467,0.60388 -0.57467,1.50971 0,2.11359l3.59169,3.77426l1.29301,1.35873c0.57467,0.60388 1.43667,0.60388 2.01134,0l3.30435,-3.47232c0.431,-0.45291 1.14934,-0.60388 1.72401,-0.30194c1.00567,0.60388 2.01134,0.90582 3.01702,1.35873c0.57467,0.15097 1.00567,0.75485 1.00567,1.50971l0,4.83106c0,0.90582 0.57467,1.50971 1.43667,1.50971l6.89604,0c0.862,0 1.43667,-0.60388 1.43667,-1.50971l0,-4.83106c0,-0.60388 0.431,-1.20776 1.00567,-1.50971c1.00567,-0.30194 2.01134,-0.75485 3.01702,-1.35873c0.57467,-0.30194 1.29301,-0.15097 1.72401,0.30194l3.30435,3.47232c0.57467,0.60388 1.43667,0.60388 2.01134,0l4.88469,-5.133c0.57467,-0.60388 0.57467,-1.50971 0,-2.11359l-3.30435,-3.47232c-0.431,-0.45291 -0.57467,-1.20776 -0.28733,-1.81165c0.57467,-1.05679 0.862,-2.11359 1.29301,-3.17038c0.14367,-0.60388 0.71834,-1.05679 1.43667,-1.05679l4.59736,0c0.71834,0 1.43667,-0.75485 1.43667,-1.50971zm-31.03216,1.20776c-5.02836,-7.24659 2.58601,-15.24803 9.48205,-9.96406c0.14367,0 0.14367,0.15097 0.28733,0.30194c5.02836,7.24659 -2.58601,15.24803 -9.48205,9.96406c-0.14367,-0.15097 -0.14367,-0.15097 -0.28733,-0.30194z" class="st12"/>
    </g>
   </g>
   <g stroke="null" id="svg_212">
    <g stroke="null" id="svg_213">
     <circle stroke="null" id="svg_214" fill="#1AA1FC" r="33.51434" cy="500.8002" cx="987.24275" class="st5"/>
    </g>
    <g stroke="null" id="svg_215">
     <g stroke="null" id="svg_216">
      <polygon stroke="null" id="svg_217" fill="#AEE8FC" points="1003.1898803710938,512.8779021365044 1003.1898803710938,487.0619189001154 1008.79296875,487.0619189001154 999.0235595703125,473.6255410864105 989.1104736328125,487.0619189001154 994.7134399414062,487.0619189001154 994.7134399414062,512.8779021365044 " class="st3"/>
      <polygon stroke="null" id="svg_218" fill="#AEE8FC" points="1003.1898803710938,512.8779021365044 1003.1898803710938,487.0619189001154 1008.79296875,487.0619189001154 999.0235595703125,473.6255410864105 989.1104736328125,487.0619189001154 994.7134399414062,487.0619189001154 994.7134399414062,512.8779021365044 " class="st3"/>
      <rect stroke="null" id="svg_219" fill="#AEE8FC" height="23.24946" width="8.47638" class="st3" y="489.62838" x="983.07639"/>
      <rect stroke="null" id="svg_220" fill="#AEE8FC" height="19.77714" width="8.47638" class="st3" y="493.1007" x="971.43933"/>
     </g>
     <path stroke="null" id="svg_221" fill="#FBB040" d="m1002.9025,513.6327l0,-4.37815c0,-0.45291 -0.431,-0.90582 -0.862,-0.90582l-2.87335,0c-0.431,0 -0.71834,-0.30194 -0.862,-0.60388c-0.14367,-0.60388 -0.431,-1.35873 -0.71834,-1.96262c-0.14367,-0.30194 -0.14367,-0.75485 0.14367,-1.05679l2.01134,-2.11359c0.28733,-0.30194 0.28733,-0.90582 0,-1.35873l-3.01702,-3.17038c-0.28733,-0.30194 -0.862,-0.30194 -1.29301,0l-2.01134,2.11359c-0.28733,0.30194 -0.71834,0.30194 -1.00567,0.15097c-0.57467,-0.30194 -1.14934,-0.60388 -1.86768,-0.75485c-0.431,-0.15097 -0.57467,-0.45291 -0.57467,-0.90582l0,-3.01941c0,-0.45291 -0.431,-0.90582 -0.862,-0.90582l-4.16635,0c-0.431,0 -0.862,0.45291 -0.862,0.90582l0,3.01941c0,0.45291 -0.28733,0.75485 -0.57467,0.90582c-0.57467,0.15097 -1.29301,0.45291 -1.86768,0.75485c-0.28733,0.15097 -0.71834,0.15097 -1.00567,-0.15097l-2.01134,-2.11359c-0.28733,-0.30194 -0.862,-0.30194 -1.29301,0l-3.01702,3.17038c-0.28733,0.30194 -0.28733,0.90582 0,1.35873l2.01134,2.11359c0.28733,0.30194 0.28733,0.75485 0.14367,1.05679c-0.28733,0.60388 -0.57467,1.20776 -0.71834,1.96262c-0.14367,0.45291 -0.431,0.60388 -0.862,0.60388l-2.87335,0c-0.431,0 -0.862,0.45291 -0.862,0.90582l0,4.37815c0,0.45291 0.431,0.90582 0.862,0.90582l2.87335,0c0.431,0 0.71834,0.30194 0.862,0.60388c0.14367,0.60388 0.431,1.35873 0.71834,1.96262c0.14367,0.30194 0.14367,0.75485 -0.14367,1.05679l-2.01134,2.11359c-0.28733,0.30194 -0.28733,0.90582 0,1.35873l2.15501,2.26456l0.862,0.90582c0.28733,0.30194 0.862,0.30194 1.29301,0l2.01134,-2.11359c0.28733,-0.30194 0.71834,-0.30194 1.00567,-0.15097c0.57467,0.30194 1.14934,0.60388 1.86768,0.75485c0.431,0.15097 0.57467,0.45291 0.57467,0.90582l0,3.01941c0,0.45291 0.431,0.90582 0.862,0.90582l4.16635,0c0.431,0 0.862,-0.45291 0.862,-0.90582l0,-3.01941c0,-0.45291 0.28733,-0.75485 0.57467,-0.90582c0.57467,-0.15097 1.29301,-0.45291 1.86768,-0.75485c0.28733,-0.15097 0.71834,-0.15097 1.00567,0.15097l2.01134,2.11359c0.28733,0.30194 0.862,0.30194 1.29301,0l3.01702,-3.17038c0.28733,-0.30194 0.28733,-0.90582 0,-1.35873l-2.01134,-2.11359c-0.28733,-0.30194 -0.28733,-0.75485 -0.14367,-1.05679c0.28733,-0.60388 0.57467,-1.20776 0.71834,-1.96262c0.14367,-0.45291 0.431,-0.60388 0.862,-0.60388l2.87335,0c0.431,0 0.862,-0.30194 0.862,-0.90582z" class="st0"/>
    </g>
    <g stroke="null" id="XMLID_1_">
     <g stroke="null" id="svg_222">
      <path stroke="null" id="svg_223" fill="#1AA1FC" d="m990.1161,508.4997c3.01702,4.37815 -1.58034,9.2092 -5.7467,6.03882c0,0 -0.14367,-0.15097 -0.14367,-0.15097c-3.01702,-4.37815 1.58034,-9.2092 5.7467,-6.03882c0,0.15097 0,0.15097 0.14367,0.15097z" class="st5"/>
     </g>
     <g stroke="null" id="svg_224"/>
    </g>
   </g>
   <g stroke="null" id="svg_225">
    <g stroke="null" id="svg_226">
     <circle stroke="null" id="svg_227" fill="#1AA1FC" r="33.51441" cy="395.12082" cx="411.42377" class="st5"/>
    </g>
    <g stroke="null" id="svg_228">
     <path stroke="null" id="svg_229" fill="#ED8B00" d="m413.29145,371.87135l-21.40644,0c-2.58601,0 -4.88469,2.26456 -4.88469,5.133l0,15.09706c0,2.71747 2.15501,5.133 4.88469,5.133l1.58034,0l3.44802,4.68009l3.44802,-4.68009l12.7864,0c2.58601,0 4.88469,-2.26456 4.88469,-5.133l0,-15.09706c0,-3.01941 -2.15501,-5.133 -4.74102,-5.133z" class="st15"/>
     <path stroke="null" id="svg_230" fill="#FBB040" d="m431.1062,388.47811l-21.40644,0c-2.58601,0 -4.88469,2.26456 -4.88469,5.133l0,15.09706c0,2.71747 2.15501,5.133 4.88469,5.133l1.58034,0l3.44802,4.68009l3.44802,-4.68009l12.7864,0c2.58601,0 4.88469,-2.26456 4.88469,-5.133l0,-15.09706c0,-2.86844 -2.15501,-5.133 -4.74102,-5.133z" class="st0"/>
     <g stroke="null" id="svg_231">
      <path stroke="null" id="svg_232" fill="#FFFFFF" d="m400.93605,385.91161l0,-0.75485c0,-0.60388 0.14367,-1.05679 0.28733,-1.35873c0.14367,-0.45291 0.57467,-0.75485 1.14934,-1.05679c0.431,-0.30194 0.71834,-0.60388 1.00567,-0.75485c0.14367,-0.30194 0.28733,-0.45291 0.28733,-0.75485c0,-0.30194 -0.14367,-0.45291 -0.28733,-0.60388s-0.431,-0.15097 -0.862,-0.15097c-0.57467,0 -1.14934,0.15097 -1.86768,0.45291c-0.57467,0.30194 -1.29301,0 -1.58034,-0.60388l0,0c-0.28733,-0.60388 0,-1.50971 0.57467,-1.81165c1.00567,-0.45291 2.01134,-0.60388 3.01702,-0.60388c1.14934,0 2.15501,0.30194 2.87335,0.75485c0.71834,0.60388 1.00567,1.35873 1.00567,2.26456c0,0.75485 -0.14367,1.20776 -0.431,1.81165s-0.71834,0.90582 -1.43667,1.35873c-0.57467,0.45291 -0.862,0.60388 -1.00567,0.90582c-0.14367,0.15097 -0.14367,0.45291 -0.14367,0.60388l0,0.45291l-2.58601,0l0,-0.15097zm-0.28733,2.86844c0,-0.45291 0.14367,-0.90582 0.431,-1.20776c0.28733,-0.30194 0.71834,-0.45291 1.29301,-0.45291c0.57467,0 1.00567,0.15097 1.29301,0.45291c0.28733,0.30194 0.431,0.75485 0.431,1.20776s-0.14367,0.90582 -0.431,1.20776c-0.28733,0.30194 -0.71834,0.45291 -1.14934,0.45291c-0.57467,0 -1.00567,-0.15097 -1.29301,-0.45291s-0.57467,-0.60388 -0.57467,-1.20776z" class="st12"/>
     </g>
     <g stroke="null" id="svg_233">
      <path stroke="null" id="svg_234" fill="#FFFFFF" d="m417.17047,406.44361l-3.59169,-3.77426c-0.57467,-0.60388 -0.57467,-1.66068 0,-2.26456l0,0c0.57467,-0.60388 1.58034,-0.60388 2.15501,0l2.29868,2.41553l7.0397,-7.39756c0.57467,-0.60388 1.58034,-0.60388 2.15501,0l0,0c0.57467,0.60388 0.57467,1.66068 0,2.26456l-8.47638,8.90726c-0.431,0.30194 -1.14934,0.30194 -1.58034,-0.15097z" class="st12"/>
     </g>
    </g>
   </g>
   <g stroke="null" id="svg_235">
    <g stroke="null" id="svg_236">
     <circle stroke="null" id="svg_237" fill="#FBB040" r="40.32002" cy="248.0755" cx="514.28963" class="st0"/>
    </g>
    <g stroke="null" id="svg_238">
     <path stroke="null" id="svg_239" fill="#FFFFFF" d="m528.36904,248.22647l0,-3.47232c0,-0.60388 -0.431,-1.05679 -1.00567,-1.05679l-2.15501,0c-0.431,0 -0.71834,-0.30194 -0.862,-0.75485c-0.14367,-0.60388 -0.431,-1.35873 -0.71834,-1.96262c-0.14367,-0.45291 -0.14367,-0.90582 0.14367,-1.20776l1.43667,-1.50971c0.431,-0.45291 0.431,-1.05679 0,-1.35873l-2.01134,-2.11359c-0.431,-0.45291 -1.00567,-0.45291 -1.29301,0l-1.58034,1.66068c-0.28733,0.30194 -0.71834,0.45291 -1.14934,0.15097c-0.431,-0.30194 -1.00567,-0.45291 -1.43667,-0.60388c-0.431,-0.15097 -0.71834,-0.45291 -0.71834,-0.90582l0,-2.26456c0,-0.60388 -0.431,-1.05679 -1.00567,-1.05679l-2.87335,0c-0.57467,0 -1.00567,0.45291 -1.00567,1.05679l0,2.26456c0,0.45291 -0.28733,0.90582 -0.71834,0.90582c-0.57467,0.15097 -1.29301,0.45291 -1.86768,0.75485c-0.431,0.15097 -0.862,0.15097 -1.14934,-0.15097l-1.58034,-1.66068c-0.431,-0.45291 -1.00567,-0.45291 -1.29301,0l-2.01134,2.11359c-0.431,0.45291 -0.431,1.05679 0,1.35873l1.43667,1.50971c0.28733,0.30194 0.431,0.75485 0.14367,1.20776c-0.28733,0.60388 -0.57467,1.20776 -0.71834,1.96262c-0.14367,0.45291 -0.431,0.75485 -0.862,0.75485l-2.15501,0c-0.57467,0 -1.00567,0.45291 -1.00567,1.05679l0,3.47232c0,0.60388 0.431,1.05679 1.00567,1.05679l2.15501,0c0.431,0 0.71834,0.30194 0.862,0.75485c0.14367,0.60388 0.431,1.35873 0.71834,1.96262c0.14367,0.45291 0.14367,0.90582 -0.14367,1.20776l-1.43667,1.50971c-0.431,0.45291 -0.431,1.05679 0,1.35873l2.01134,2.11359c0.431,0.45291 1.00567,0.45291 1.29301,0l1.58034,-1.66068c0.28733,-0.30194 0.71834,-0.45291 1.14934,-0.15097c0.57467,0.30194 1.14934,0.60388 1.86768,0.75485c0.431,0.15097 0.71834,0.45291 0.71834,0.90582l0,2.26456c0,0.60388 0.431,1.05679 1.00567,1.05679l2.87335,0c0.57467,0 1.00567,-0.45291 1.00567,-1.05679l0,-2.26456c0,-0.45291 0.28733,-0.75485 0.71834,-0.90582c0.57467,-0.15097 1.00567,-0.45291 1.43667,-0.60388c0.431,-0.15097 0.862,-0.15097 1.14934,0.15097l1.58034,1.66068c0.431,0.45291 1.00567,0.45291 1.29301,0l2.01134,-2.11359c0.431,-0.45291 0.431,-1.05679 0,-1.35873l-1.43667,-1.50971c-0.28733,-0.30194 -0.431,-0.75485 -0.14367,-1.20776c0.28733,-0.60388 0.57467,-1.20776 0.71834,-1.96262c0.14367,-0.45291 0.431,-0.75485 0.862,-0.75485l2.15501,0c0.57467,-0.30194 1.00567,-0.75485 1.00567,-1.35873zm-14.07941,2.11359c-2.01134,0 -3.59169,-1.66068 -3.59169,-3.77426c0,-2.11359 1.58034,-3.77426 3.59169,-3.77426c2.01134,0 3.59169,1.66068 3.59169,3.77426s-1.58034,3.77426 -3.59169,3.77426z" class="st12"/>
     <g stroke="null" id="svg_240">
      <path stroke="null" id="svg_241" fill="#FFFFFF" d="m502.22157,234.48815c0.431,-0.15097 0.71834,-0.45291 0.71834,-0.90582l0,-3.01941c0,-0.45291 -0.431,-0.90582 -0.862,-0.90582s-0.862,0.45291 -0.862,0.90582l0,0.75485l-2.58601,-2.71747c-0.28733,-0.30194 -0.862,-0.30194 -1.29301,0c-0.28733,0.30194 -0.28733,0.90582 0,1.35873l2.58601,2.71747l-0.71834,0c-0.431,0 -0.862,0.45291 -0.862,0.90582c0,0.45291 0.431,0.90582 0.862,0.90582l2.87335,0c0,0.15097 0,0 0.14367,0c0,0 0,0 0,0l0,0z" class="st12"/>
      <path stroke="null" id="svg_242" fill="#FFFFFF" d="m531.38606,228.6003c-0.28733,-0.30194 -0.862,-0.30194 -1.29301,0l-2.58601,2.71747l0,-0.75485c0,-0.45291 -0.431,-0.90582 -0.862,-0.90582s-0.862,0.45291 -0.862,0.90582l0,3.01941c0,0.45291 0.431,0.90582 0.862,0.90582l2.87335,0c0.431,0 0.862,-0.45291 0.862,-0.90582c0,-0.45291 -0.431,-0.90582 -0.862,-0.90582l-0.71834,0l2.58601,-2.71747c0.28733,-0.30194 0.28733,-0.90582 0,-1.35873c-0.28733,-0.30194 0.28733,0.45291 0,0z" class="st12"/>
      <path stroke="null" id="svg_243" fill="#FFFFFF" d="m502.93991,259.09635c0,-0.45291 -0.431,-0.90582 -0.862,-0.90582l-2.87335,0c-0.431,0 -0.862,0.45291 -0.862,0.90582c0,0.45291 0.431,0.90582 0.862,0.90582l0.71834,0l-2.58601,2.71747c-0.28733,0.30194 -0.28733,0.90582 0,1.35873c0.14367,0.15097 0.431,0.30194 0.57467,0.30194c0.28733,0 0.431,-0.15097 0.57467,-0.30194l2.58601,-2.71747l0,0.75485c0,0.45291 0.431,0.90582 0.862,0.90582s0.862,-0.45291 0.862,-0.90582l0.14367,-3.01941c0,0.15097 0,0.15097 0,0l0,0z" class="st12"/>
      <path stroke="null" id="svg_244" fill="#FFFFFF" d="m531.38606,262.87061l-2.58601,-2.71747l0.71834,0c0.431,0 0.862,-0.45291 0.862,-0.90582s-0.28733,-0.90582 -0.862,-0.90582l-2.87335,0c-0.431,0 -0.862,0.45291 -0.862,0.90582l0,3.01941c0,0.45291 0.431,0.90582 0.862,0.90582s0.862,-0.45291 0.862,-0.90582l0,-0.75485l2.58601,2.71747c0.14367,0.15097 0.431,0.30194 0.57467,0.30194s0.431,-0.15097 0.57467,-0.30194c0.431,-0.30194 0.431,-0.90582 0.14367,-1.35873l0,0z" class="st12"/>
     </g>
     <circle stroke="null" id="svg_245" fill="#005EB8" r="4.75108" cy="223.01439" cx="491.87752" class="st9"/>
     <circle stroke="null" id="svg_246" fill="#1AA1FC" r="4.75108" cy="223.01439" cx="536.84542" class="st5"/>
     <circle stroke="null" id="svg_247" fill="#1AA1FC" r="4.75108" cy="270.1172" cx="491.87752" class="st5"/>
     <circle stroke="null" id="svg_248" fill="#005EB8" r="4.75108" cy="270.1172" cx="536.84542" class="st9"/>
    </g>
   </g>
   <path stroke="null" id="svg_319" fill="#EAEAEA" d="m1089.10294,511.51911c-0.71834,-11.92667 -9.05105,-18.26744 -17.24009,-18.26744c-8.18904,0 -16.52175,6.18979 -17.24009,18.26744c-2.44235,0.60388 -4.31002,3.01941 -4.31002,5.73688l0,26.41985c0,3.32135 2.58601,6.03882 5.7467,6.03882l31.60683,0c3.16068,0 5.7467,-2.71747 5.7467,-6.03882l0,-26.41985c0,-2.71747 -1.72401,-5.133 -4.31002,-5.73688zm-17.09642,-13.58735c3.30435,0 6.46503,1.35873 8.76371,3.77426c2.29868,2.41553 3.59169,5.73688 4.02269,9.66212l-25.5728,0c0.71834,-9.2092 6.89604,-13.43638 12.7864,-13.43638zm2.44235,33.21352l0,9.2092l-5.02836,0l0,-9.2092c-1.43667,-0.90582 -2.29868,-2.5665 -2.29868,-4.37815c0,-2.86844 2.15501,-5.133 4.88469,-5.133c2.72968,0 4.88469,2.26456 4.88469,5.133c0,1.81165 -1.00567,3.47232 -2.44235,4.37815z" class="st14"/>
   <path stroke="null" id="svg_320" fill="#EAEAEA" d="m197.934,432.56151l-0.14367,0c-1.14934,0 -2.15501,-1.05679 -2.15501,-2.26456s1.00567,-2.26456 2.15501,-2.26456l0.14367,0c1.14934,0 2.15501,1.05679 2.15501,2.26456s-1.00567,2.26456 -2.15501,2.26456zm-7.32704,0l0,0c-1.29301,0 -2.29868,-1.05679 -2.29868,-2.26456s1.00567,-2.26456 2.15501,-2.26456s2.15501,1.05679 2.15501,2.26456s-0.862,2.26456 -2.01134,2.26456zm-7.32704,0l-0.14367,0c-1.14934,0 -2.15501,-1.05679 -2.15501,-2.26456s1.00567,-2.26456 2.15501,-2.26456l0.14367,0c1.14934,0 2.15501,1.05679 2.15501,2.26456s-1.00567,2.26456 -2.15501,2.26456zm-7.32704,0l-0.14367,0c-1.14934,0 -2.15501,-1.05679 -2.15501,-2.26456s1.00567,-2.26456 2.15501,-2.26456l0.14367,0c1.14934,0 2.15501,1.05679 2.15501,2.26456s-1.00567,2.26456 -2.15501,2.26456zm-7.32704,0l-0.14367,0c-1.14934,0 -2.15501,-1.05679 -2.15501,-2.26456s1.00567,-2.26456 2.15501,-2.26456l0.14367,0c1.14934,0 2.15501,1.05679 2.15501,2.26456s-1.00567,2.26456 -2.15501,2.26456zm-7.32704,0l-0.14367,0c-1.14934,0 -2.15501,-1.05679 -2.15501,-2.26456s1.00567,-2.26456 2.15501,-2.26456l0.14367,0c1.14934,0 2.15501,1.05679 2.15501,2.26456s-1.00567,2.26456 -2.15501,2.26456zm-7.32704,0l0,0c-1.29301,0 -2.29868,-1.05679 -2.29868,-2.26456s1.00567,-2.26456 2.15501,-2.26456s2.15501,1.05679 2.15501,2.26456s-0.862,2.26456 -2.01134,2.26456zm-7.32704,0l-0.14367,0c-1.14934,0 -2.15501,-1.05679 -2.15501,-2.26456s1.00567,-2.26456 2.15501,-2.26456l0.14367,0c1.14934,0 2.15501,1.05679 2.15501,2.26456s-1.00567,2.26456 -2.15501,2.26456zm-7.32704,0l-0.14367,0c-1.14934,0 -2.15501,-1.05679 -2.15501,-2.26456s1.00567,-2.26456 2.15501,-2.26456l0.14367,0c1.14934,0 2.15501,1.05679 2.15501,2.26456s-1.00567,2.26456 -2.15501,2.26456zm-7.32704,0l-0.14367,0c-1.14934,0 -2.15501,-1.05679 -2.15501,-2.26456s1.00567,-2.26456 2.15501,-2.26456l0.14367,0c1.14934,0 2.15501,1.05679 2.15501,2.26456s-1.00567,2.26456 -2.15501,2.26456zm-7.32704,0l-0.14367,0c-1.14934,0 -2.15501,-1.05679 -2.15501,-2.26456s1.00567,-2.26456 2.15501,-2.26456l0.14367,0c1.14934,0 2.15501,1.05679 2.15501,2.26456s-1.00567,2.26456 -2.15501,2.26456zm-7.32704,0l0,0c-1.29301,0 -2.29868,-1.05679 -2.29868,-2.26456s1.00567,-2.26456 2.15501,-2.26456s2.15501,1.05679 2.15501,2.26456s-0.862,2.26456 -2.01134,2.26456z" class="st14"/>
   <path stroke="null" id="svg_321" fill="#EAEAEA" d="m460.84536,250.34006l-0.14367,0c-1.14934,0 -2.15501,-1.05679 -2.15501,-2.26456s1.00567,-2.26456 2.15501,-2.26456l0.14367,0c1.14934,0 2.15501,1.05679 2.15501,2.26456s-1.00567,2.26456 -2.15501,2.26456zm-7.32704,0l-0.14367,0c-1.14934,0 -2.15501,-1.05679 -2.15501,-2.26456s1.00567,-2.26456 2.15501,-2.26456l0.14367,0c1.14934,0 2.15501,1.05679 2.15501,2.26456s-1.00567,2.26456 -2.15501,2.26456zm-7.32704,0l0,0c-1.29301,0 -2.29868,-1.05679 -2.29868,-2.26456s1.00567,-2.26456 2.15501,-2.26456s2.15501,1.05679 2.15501,2.26456s-0.862,2.26456 -2.01134,2.26456zm-7.32704,0l-0.14367,0c-1.14934,0 -2.15501,-1.05679 -2.15501,-2.26456s1.00567,-2.26456 2.15501,-2.26456l0.14367,0c1.14934,0 2.15501,1.05679 2.15501,2.26456s-1.00567,2.26456 -2.15501,2.26456zm-7.32704,0l-0.14367,0c-1.14934,0 -2.15501,-1.05679 -2.15501,-2.26456s1.00567,-2.26456 2.15501,-2.26456l0.14367,0c1.14934,0 2.15501,1.05679 2.15501,2.26456s-1.00567,2.26456 -2.15501,2.26456zm-7.32704,0l-0.14367,0c-1.14934,0 -2.15501,-1.05679 -2.15501,-2.26456s1.00567,-2.26456 2.15501,-2.26456l0.14367,0c1.14934,0 2.15501,1.05679 2.15501,2.26456s-1.00567,2.26456 -2.15501,2.26456zm-7.32704,0l-0.14367,0c-1.14934,0 -2.15501,-1.05679 -2.15501,-2.26456s1.00567,-2.26456 2.15501,-2.26456l0.14367,0c1.14934,0 2.15501,1.05679 2.15501,2.26456s-1.00567,2.26456 -2.15501,2.26456zm-7.32704,0l0,0c-1.29301,0 -2.29868,-1.05679 -2.29868,-2.26456s1.00567,-2.26456 2.15501,-2.26456s2.15501,1.05679 2.15501,2.26456s-0.862,2.26456 -2.01134,2.26456z" class="st14"/>
   <path stroke="null" id="svg_322" fill="#DDDDDD" d="m1299.43203,382.8922l0,0c-1.29301,0 -2.29868,-1.05679 -2.29868,-2.26456s1.00567,-2.26456 2.15501,-2.26456s2.15501,1.05679 2.15501,2.26456s-0.862,2.26456 -2.01134,2.26456zm-7.32704,0l-0.14367,0c-1.14934,0 -2.15501,-1.05679 -2.15501,-2.26456s1.00567,-2.26456 2.15501,-2.26456l0.14367,0c1.14934,0 2.15501,1.05679 2.15501,2.26456s-1.00567,2.26456 -2.15501,2.26456zm-7.32704,0l0,0c-1.29301,0 -2.29868,-1.05679 -2.29868,-2.26456s1.00567,-2.26456 2.15501,-2.26456s2.15501,1.05679 2.15501,2.26456s-0.862,2.26456 -2.01134,2.26456zm-7.32704,0l-0.14367,0c-1.14934,0 -2.15501,-1.05679 -2.15501,-2.26456s1.00567,-2.26456 2.15501,-2.26456l0.14367,0c1.14934,0 2.15501,1.05679 2.15501,2.26456s-1.00567,2.26456 -2.15501,2.26456zm-7.32704,0l0,0c-1.29301,0 -2.29868,-1.05679 -2.29868,-2.26456s1.00567,-2.26456 2.15501,-2.26456s2.15501,1.05679 2.15501,2.26456s-0.862,2.26456 -2.01134,2.26456zm-7.32704,0l0,0c-1.29301,0 -2.29868,-1.05679 -2.29868,-2.26456s1.00567,-2.26456 2.15501,-2.26456s2.15501,1.05679 2.15501,2.26456s-0.862,2.26456 -2.01134,2.26456zm-7.32704,0l-0.14367,0c-1.14934,0 -2.15501,-1.05679 -2.15501,-2.26456s1.00567,-2.26456 2.15501,-2.26456l0.14367,0c1.14934,0 2.15501,1.05679 2.15501,2.26456s-1.00567,2.26456 -2.15501,2.26456zm-7.32704,0l0,0c-1.29301,0 -2.29868,-1.05679 -2.29868,-2.26456s1.00567,-2.26456 2.15501,-2.26456s2.15501,1.05679 2.15501,2.26456s-0.862,2.26456 -2.01134,2.26456zm-7.32704,0l-0.14367,0c-1.14934,0 -2.15501,-1.05679 -2.15501,-2.26456s1.00567,-2.26456 2.15501,-2.26456l0.14367,0c1.14934,0 2.15501,1.05679 2.15501,2.26456s-1.00567,2.26456 -2.15501,2.26456zm-7.32704,0l0,0c-1.29301,0 -2.29868,-1.05679 -2.29868,-2.26456s1.00567,-2.26456 2.15501,-2.26456s2.15501,1.05679 2.15501,2.26456s-0.862,2.26456 -2.01134,2.26456zm-7.32704,0l0,0c-1.29301,0 -2.29868,-1.05679 -2.29868,-2.26456s1.00567,-2.26456 2.15501,-2.26456s2.15501,1.05679 2.15501,2.26456s-0.862,2.26456 -2.01134,2.26456zm-7.32704,0l-0.14367,0c-1.14934,0 -2.15501,-1.05679 -2.15501,-2.26456s1.00567,-2.26456 2.15501,-2.26456l0.14367,0c1.14934,0 2.15501,1.05679 2.15501,2.26456s-1.00567,2.26456 -2.15501,2.26456z" class="st2"/>
   <path stroke="null" id="svg_323" fill="#EAEAEA" d="m1043.27304,531.5982l0,0c-1.29301,0 -2.29868,-1.05679 -2.29868,-2.26456s1.00567,-2.26456 2.15501,-2.26456s2.15501,1.05679 2.15501,2.26456s-0.862,2.26456 -2.01134,2.26456zm-7.32704,0l-0.14367,0c-1.14934,0 -2.15501,-1.05679 -2.15501,-2.26456s1.00567,-2.26456 2.15501,-2.26456l0.14367,0c1.14934,0 2.15501,1.05679 2.15501,2.26456s-1.00567,2.26456 -2.15501,2.26456zm-7.32704,0l0,0c-1.29301,0 -2.29868,-1.05679 -2.29868,-2.26456s1.00567,-2.26456 2.15501,-2.26456s2.15501,1.05679 2.15501,2.26456s-0.862,2.26456 -2.01134,2.26456z" class="st14"/>
   <g stroke="null" id="svg_325">
    <circle stroke="null" id="svg_326" fill="#005EB8" r="57.01301" cy="430.29696" cx="272.64105" class="st9"/>
   </g>
   <g stroke="null" id="svg_327">
    <g stroke="null" id="svg_328">
     <g stroke="null" id="svg_329">
      <path stroke="null" id="svg_330" fill="#1AA1FC" d="m263.73367,440.26101l-14.79774,-6.6427l0,-3.17038l14.79774,-6.6427l0,4.0762l-8.90738,4.0762l8.90738,3.92523l0,4.37815z" class="st5"/>
      <path stroke="null" id="svg_331" fill="#1AA1FC" d="m280.83009,419.27611l-9.05105,23.70238l-3.30435,-1.20776l9.05105,-23.70238l3.30435,1.20776z" class="st5"/>
      <path stroke="null" id="svg_332" fill="#1AA1FC" d="m297.78285,433.61831l-14.79774,6.6427l0,-4.0762l8.90738,-3.92523l-8.90738,-4.0762l0,-4.22718l14.79774,6.6427l0,3.01941l0,0z" class="st5"/>
     </g>
    </g>
    <g stroke="null" id="svg_333">
     <g stroke="null" id="svg_334">
      <g stroke="null" id="svg_335">
       <defs stroke="null" transform="translate(-11 -50) translate(136 136) translate(0 -123.441) translate(-69 0) translate(138 244) translate(194 209.441) scale(1.24063 1.20627) translate(-194 -209.441) translate(1116.37 488.745) scale(1.14442 1.17363) translate(-1116.37 -488.745) translate(16.3238 14.4048) scale(1 1.14645) translate(-16.3238 -14.4048) translate(980.583 12.5647) scale(1.01189 1) translate(-980.583 -12.5647) translate(4.80098 433.198) scale(1 0.930169) translate(-4.80098 -433.198)">
        <path stroke="null" d="m189.4,128.3c-1.2,-0.1 -2.3,-0.3 -3.5,-0.3c-16.5,0 -29.7,14.3 -27.8,31.2c1.4,12.9 11.8,23.2 24.6,24.6c16.9,1.9 31.2,-11.3 31.2,-27.8c0,-8.4 -3.6,-15.8 -9.4,-21c-0.8,-0.7 -2,-0.8 -3,-0.2l0,0c-0.7,0.5 -0.7,1.5 0,2c0,0 0,0 0,0c5.5,4.5 9.1,11.4 9.1,19.1c0,13.7 -11,24.6 -24.6,24.6c-15.5,0 -27.7,-14 -24.2,-30c2.4,-11.2 12.5,-19.1 24,-19.1c1.2,0 2.3,0.1 3.3,0.3c-0.6,2.6 -1.9,6.1 -1.9,6.1l9.7,-8.1l-9.7,-8.1c0.3,0.3 1.7,3.6 2.2,6.7z" id="SVGID_1_"/>
       </defs>
       <use stroke="null" transform="matrix(1.43667 0 0 1.50971 -273.008 -116.91)" x="194" y="206.55922" id="svg_336" fill="#AEE8FC" xlink:href="#SVGID_1_"/>
       <clipPath stroke="null" transform="translate(-11 -50) translate(136 136) translate(0 -123.441) translate(-69 0) translate(138 244) translate(194 209.441) scale(1.24063 1.20627) translate(-194 -209.441) translate(1116.37 488.745) scale(1.14442 1.17363) translate(-1116.37 -488.745) translate(16.3238 14.4048) scale(1 1.14645) translate(-16.3238 -14.4048) translate(980.583 12.5647) scale(1.01189 1) translate(-980.583 -12.5647) translate(4.80098 433.198) scale(1 0.930169) translate(-4.80098 -433.198)" id="SVGID_2_">
        <use stroke="null" id="svg_337" xlink:href="#SVGID_1_"/>
       </clipPath>
      </g>
     </g>
    </g>
   </g>
   <g stroke="null" id="svg_351">
    <path stroke="null" id="svg_352" fill="#EAEAEA" d="m724.71313,563.48753c-2.28024,-32.75265 -27.74298,-58.31569 -58.14625,-58.31569c-4.56049,0 -9.12098,0.79885 -13.68147,1.59769l19.76212,56.31858l52.06559,0l0,0.39942z" class="st14"/>
    <path stroke="null" id="svg_353" fill="#EAEAEA" d="m636.16361,514.35856c-15.58167,10.38499 -26.22282,28.359 -27.74298,49.12897l45.22486,0l-17.48188,-49.12897z" class="st14"/>
    <path stroke="null" id="svg_354" fill="#EAEAEA" d="m590.55871,563.48753c1.14012,-16.77575 6.46069,-32.35323 15.58167,-45.13475l-49.02527,-53.1232c-22.04237,27.56016 -34.20367,61.9105 -35.3438,98.25795c0.38004,0 0.76008,0 1.14012,0l67.64727,0z" class="st14"/>
    <path stroke="null" id="svg_355" fill="#EAEAEA" d="m618.30169,504.37299c3.42037,-3.19538 7.60082,-5.99134 11.40122,-8.38787l-5.32057,-14.77863c-1.9002,-5.19249 0.38004,-10.78441 5.32057,-12.3821c4.56049,-1.99711 9.88106,0.79885 11.40122,5.59192l4.94053,14.37921c3.42037,-1.19827 7.22078,-1.99711 11.02118,-2.39654l0,-75.09144c-32.68351,1.99711 -63.46682,16.37632 -87.78943,40.34168l49.02527,52.72378z" class="st14"/>
    <path stroke="null" id="svg_356" fill="#EAEAEA" d="m726.99337,518.35278c8.74094,12.78152 14.44155,27.95958 15.58167,45.13475l67.64727,0c0.38004,0 0.76008,0 1.14012,0c-1.14012,-36.34745 -13.30143,-71.09721 -35.3438,-98.25795l-49.02527,53.1232z" class="st14"/>
    <path stroke="null" id="svg_357" fill="#EAEAEA" d="m675.30782,486.39898c14.82159,1.99711 28.12302,8.38787 39.14421,17.97401l48.64523,-53.1232c-24.32261,-23.96535 -55.10592,-37.94514 -87.78943,-40.34168l0,75.49086z" class="st14"/>
   </g>
   <g stroke="null" id="svg_358">
    <g stroke="null" id="surface1">
     <path stroke="null" id="svg_359" fill="#EAEAEA" d="m195.2181,569.49468l-23.89445,0l0,-13.27586l38.47411,0c0,0 0,0 0,0c2.83493,0 5.26488,-1.77012 5.26488,-3.83525c0,-1.18008 -0.80998,-2.06513 -1.61996,-2.95019l-10.52976,-7.6705l10.52976,-7.6705c1.61996,-1.18008 2.02495,-2.95019 1.21497,-4.42529c-0.80998,-1.4751 -2.83493,-2.36015 -4.85989,-2.36015l-43.73899,0c-2.83493,0 -5.26488,1.77012 -5.26488,3.83525l0,38.64751l-6.07486,0c-10.93475,0 -19.84454,6.49042 -19.84454,14.45594l0,74.34483c0,2.06513 2.42994,3.83525 5.26488,3.83525l70.06338,0c2.83493,0 5.26488,-1.77012 5.26488,-3.83525l0,-74.34483c0,-7.96552 -9.31479,-14.75096 -20.24953,-14.75096z" class="st14"/>
     <path stroke="null" id="svg_360" fill="#EAEAEA" d="m29.57692,647.96978l0,10.62069c0,2.06513 2.42994,3.83525 5.26488,3.83525l18.62957,0l0,-29.2069l-4.04991,0c-10.93475,0 -19.84454,6.78544 -19.84454,14.75096z" class="st14"/>
     <path stroke="null" id="svg_361" fill="#EAEAEA" d="m64.40612,626.7284l0,31.86207c0,2.06513 2.42994,3.83525 5.26488,3.83525l18.62957,0l0,-50.44828l-4.04991,0c-10.93475,0 -19.84454,6.78544 -19.84454,14.75096z" class="st14"/>
     <path stroke="null" id="svg_362" fill="#EAEAEA" d="m99.64031,605.48702l0,53.10345c0,2.06513 2.42994,3.83525 5.26488,3.83525l18.62957,0l0,-71.68966l-4.04991,0c-10.93475,0 -19.84454,6.78544 -19.84454,14.75096z" class="st14"/>
    </g>
    <g stroke="null" id="svg_363">
     <path stroke="null" id="svg_364" fill="#FFFFFF" d="m39.2967,578.34525c0,-21.5364 23.89445,-38.94253 53.45877,-38.94253s53.45877,17.40613 53.45877,38.94253s-23.89445,38.94253 -53.45877,38.94253s-53.45877,-17.40613 -53.45877,-38.94253z" class="st12"/>
     <path stroke="null" id="svg_365" fill="#FFFFFF" d="m6.89744,538.22265c0,-5.90038 3.23993,-11.50575 8.90979,-15.63602c5.66987,-4.13027 13.36469,-6.49042 21.4645,-6.49042c8.09981,0 15.79464,2.36015 21.4645,6.49042l34.8292,25.37165c5.66987,4.13027 8.90979,9.73563 8.90979,15.63602s-3.23993,11.50575 -8.90979,15.63602c-5.66987,4.13027 -13.36469,6.49042 -21.4645,6.49042c-8.09981,0 -15.79464,-2.36015 -21.4645,-6.49042l-34.8292,-25.37165c-5.66987,-4.13027 -8.90979,-9.73563 -8.90979,-15.63602z" class="st12"/>
     <path stroke="null" id="svg_366" fill="#EAEAEA" d="m92.75546,548.2533c22.67948,0 41.30905,13.57088 41.30905,30.09196s-18.62957,30.09196 -41.30905,30.09196s-41.30905,-13.57088 -41.30905,-30.09196s18.62957,-30.09196 41.30905,-30.09196zm0,12.09579c-13.76968,0 -24.70443,7.96552 -24.70443,17.99617c0,10.03065 10.93475,17.99617 24.70443,17.99617s24.70443,-7.96552 24.70443,-17.99617c0,-10.03065 -10.93475,-17.99617 -24.70443,-17.99617z" class="st14"/>
     <path stroke="null" id="svg_367" fill="#EAEAEA" d="m34.8418,542.35291c0,-1.4751 0.80998,-2.95019 2.42994,-4.13027c3.23993,-2.36015 8.5048,-2.36015 11.74473,0l23.08447,16.81609c3.23993,2.36015 3.23993,6.1954 0,8.55556s-8.5048,2.36015 -11.74473,0l-23.08447,-16.81609c-1.61996,-1.4751 -2.42994,-2.95019 -2.42994,-4.42529l0,0z" class="st14"/>
    </g>
   </g>
   <g stroke="null" id="svg_368">
    <rect stroke="null" id="svg_369" fill="#DDDDDD" height="22.06774" width="82.38862" class="st2" y="653.55116" x="1231.07186"/>
    <path stroke="null" id="svg_370" fill="#DDDDDD" d="m1201.80815,539.04874c-3.15148,0 -5.85274,2.49823 -5.85274,5.41284l0,153.22505c0,2.91461 2.70127,5.41284 5.85274,5.41284l141.36627,0c3.15148,0 5.85274,-2.49823 5.85274,-5.41284l0,-153.22505c0,-2.91461 -2.70127,-5.41284 -5.85274,-5.41284l-35.11646,0l0,5.41284c0,9.16019 -8.1038,16.23852 -17.55823,16.23852l-35.11646,0c-9.90464,0 -17.55823,-7.4947 -17.55823,-16.23852l0,-5.41284l-36.01688,0zm23.41097,38.30626c3.15148,0 5.85274,2.49823 5.85274,5.41284c0,2.91461 -2.70127,5.41284 -5.85274,5.41284s-5.85274,-2.49823 -5.85274,-5.41284c0,-2.91461 2.70127,-5.41284 5.85274,-5.41284zm0,21.65137c3.15148,0 5.85274,2.49823 5.85274,5.41284c0,2.91461 -2.70127,5.41284 -5.85274,5.41284s-5.85274,-2.49823 -5.85274,-5.41284c0,-2.91461 2.70127,-5.41284 5.85274,-5.41284zm0,21.65137c3.15148,0 5.85274,2.49823 5.85274,5.41284c0,2.91461 -2.70127,5.41284 -5.85274,5.41284s-5.85274,-2.49823 -5.85274,-5.41284c0,-2.91461 2.70127,-5.41284 5.85274,-5.41284zm23.41097,-43.30273l70.68313,0c3.15148,0 5.85274,2.49823 5.85274,5.41284c0,2.91461 -2.70127,5.41284 -5.85274,5.41284l-70.68313,0c-3.15148,0 -5.85274,-2.49823 -5.85274,-5.41284c0,-2.91461 2.70127,-5.41284 5.85274,-5.41284zm0,21.65137l70.68313,0c3.15148,0 5.85274,2.49823 5.85274,5.41284c0,2.91461 -2.70127,5.41284 -5.85274,5.41284l-70.68313,0c-3.15148,0 -5.85274,-2.49823 -5.85274,-5.41284c0,-2.91461 2.70127,-5.41284 5.85274,-5.41284zm0,21.65137l70.68313,0c3.15148,0 5.85274,2.49823 5.85274,5.41284c0,2.91461 -2.70127,5.41284 -5.85274,5.41284l-70.68313,0c-3.15148,0 -5.85274,-2.49823 -5.85274,-5.41284c0,-2.91461 2.70127,-5.41284 5.85274,-5.41284zm70.68313,22.06774c3.15148,0 5.85274,2.49823 5.85274,5.41284l0,32.89342c0,2.91461 -2.70127,5.41284 -5.85274,5.41284l-94.09411,0c-3.15148,0 -5.85274,-2.49823 -5.85274,-5.41284l0,-32.89342c0,-2.91461 2.70127,-5.41284 5.85274,-5.41284l94.09411,0z" class="st2"/>
    <path stroke="null" id="svg_371" fill="#DDDDDD" d="m1290.04951,549.87442c3.15148,0 5.85274,-2.49823 5.85274,-5.41284l0,-10.82568c0,-2.91461 -2.70127,-5.41284 -5.85274,-5.41284l-5.85274,0c0,-5.82921 -5.40253,-10.82568 -11.70549,-10.82568s-11.70549,4.99647 -11.70549,10.82568l-5.85274,0c-3.15148,0 -5.85274,2.49823 -5.85274,5.41284l0,10.82568c0,2.91461 2.70127,5.41284 5.85274,5.41284l35.11646,0z" class="st2"/>
   </g>
   <g stroke="null" id="svg_372">
    <ellipse stroke="null" id="svg_373" fill="#1AA1FC" ry="3" rx="3" cy="103.12232" cx="341.49882" class="st5" transform="matrix(0.249606 -4.99077 3.95323 0.315116 218.809 2076.29)"/>
    <path stroke="null" id="svg_374" fill="#1AA1FC" d="m690.59513,375.0353c-1.58446,2.00031 -1.98057,5.00077 -0.79223,7.00108c0.79223,1.00015 1.98057,2.00031 2.7728,2.00031c0.79223,0 1.98057,-0.50008 2.7728,-1.00015c9.50675,-9.50147 23.37077,-9.00139 32.48141,0.50008c1.58446,2.00031 4.35726,1.50023 5.54561,-0.50008c1.58446,-2.00031 1.18834,-5.50085 -0.39611,-7.00108c-11.48733,-13.00201 -30.10472,-13.50209 -42.38428,-1.00015z" class="st5"/>
    <path stroke="null" id="svg_375" fill="#1AA1FC" d="m746.0512,353.53197c-20.59797,-15.00232 -47.53377,-16.00248 -68.92397,-1.50023c-1.98057,1.50023 -2.7728,4.5007 -1.58446,7.00108c0.79223,1.50023 1.98057,2.50039 3.16892,3.00046c0.79223,0 1.58446,0 1.98057,-0.50008c19.40962,-12.50193 42.7804,-12.00186 61.39779,1.50023c1.98057,1.50023 4.35726,0.50008 5.54561,-2.00031c1.18834,-3.00046 0.39611,-6.00093 -1.58446,-7.50116z" class="st5"/>
    <path stroke="null" id="svg_376" fill="#1AA1FC" d="m759.91522,331.52857c-30.10472,-19.00294 -66.15117,-20.0031 -97.04812,-3.00046c-1.98057,1.00015 -2.7728,4.00062 -1.98057,7.00108c0.79223,2.00031 1.98057,3.00046 3.56503,3.00046c0.79223,0 1.18834,0 1.98057,-0.50008c28.52026,-16.00248 62.19002,-15.00232 89.91806,2.50039c1.98057,1.50023 4.35726,0.50008 5.54561,-2.50039c0.79223,-2.00031 0,-5.50085 -1.98057,-6.50101z" class="st5"/>
   </g>
   <g stroke="null" id="svg_377">
    <ellipse stroke="null" id="svg_378" fill="#1AA1FC" ry="3" rx="3" cy="413.13324" cx="46.17361" class="st5" transform="matrix(0.0905298 -1.50669 1.4338 0.0951318 -245.875 536.886)"/>
    <path stroke="null" id="svg_379" fill="#1AA1FC" d="m342.89441,497.78079c-0.57467,0.60388 -0.71834,1.50971 -0.28733,2.11359c0.28733,0.30194 0.71834,0.60388 1.00567,0.60388c0.28733,0 0.71834,-0.15097 1.00567,-0.30194c3.44802,-2.86844 8.47638,-2.71747 11.78073,0.15097c0.57467,0.60388 1.58034,0.45291 2.01134,-0.15097c0.57467,-0.60388 0.431,-1.66068 -0.14367,-2.11359c-4.16635,-3.92523 -10.77506,-4.0762 -15.37241,-0.30194z" class="st5"/>
    <path stroke="null" id="svg_380" fill="#1AA1FC" d="m363.15152,491.28906c-7.47071,-4.52912 -17.24009,-4.83106 -24.99813,-0.45291c-0.71834,0.45291 -1.00567,1.35873 -0.57467,2.11359c0.28733,0.45291 0.71834,0.75485 1.14934,0.90582c0.28733,0 0.57467,0 0.71834,-0.15097c7.0397,-3.77426 15.51608,-3.62329 22.26845,0.45291c0.71834,0.45291 1.58034,0.15097 2.01134,-0.60388c0.431,-0.90582 0.14367,-1.81165 -0.57467,-2.26456z" class="st5"/>
    <path stroke="null" id="svg_381" fill="#1AA1FC" d="m368.17988,484.64635c-10.91872,-5.73688 -23.99246,-6.03882 -35.19852,-0.90582c-0.71834,0.30194 -1.00567,1.20776 -0.71834,2.11359c0.28733,0.60388 0.71834,0.90582 1.29301,0.90582c0.28733,0 0.431,0 0.71834,-0.15097c10.34405,-4.83106 22.55578,-4.52912 32.6125,0.75485c0.71834,0.45291 1.58034,0.15097 2.01134,-0.75485c0.28733,-0.60388 0,-1.66068 -0.71834,-1.96262z" class="st5"/>
   </g>
   <polygon stroke="null" id="svg_382" fill="#9AD9FC" points="1168.1199951171875,578.248136784503 674.3351440429688,578.248136784503 674.3351440429688,573.7190149264352 1163.8099365234375,573.7190149264352 1163.8099365234375,497.62984151577984 1168.1199951171875,497.62984151577984 " class="st4"/>
   <path stroke="null" id="svg_392" d="m1190.70839,249.58147l0,-50.35738c0,-6.51203 -6.16101,-11.78502 -13.73119,-11.78502c-7.58657,0 -13.723,5.27299 -13.723,11.78502l0,49.95962c-8.62706,4.0621 -14.48494,11.93638 -14.48494,20.98283c0,13.20711 12.4613,23.91149 27.82697,23.91149c15.37386,0 27.82697,-10.70438 27.82697,-23.91149c0.0041,-8.77541 -5.51378,-16.43145 -13.71481,-20.58507zm-14.10806,40.57173c-12.81769,0 -23.25127,-8.96901 -23.25127,-19.9937c0,-7.29348 4.63715,-14.00967 12.10082,-17.52617l2.38002,-1.11233l0,-52.30043c0,-4.33314 4.10871,-7.85316 9.15959,-7.85316c5.04269,0 9.14321,3.52002 9.14321,7.85316l0,52.59612l2.24484,1.14049c7.19331,3.64674 11.49455,10.07077 11.49455,17.20233c-0.00819,11.0247 -10.44587,19.9937 -23.27175,19.9937zm9.45453,-33.80626l-4.50196,-2.27745l0,-34.35186l-9.1473,0l0,34.12658l-4.75594,2.23521c-5.99716,2.83361 -9.72899,8.21572 -9.72899,14.08007c0,8.84933 8.38537,16.0548 18.67967,16.0548c10.30249,0 18.67967,-7.20548 18.67967,-16.0548c0.00819,-5.63907 -3.52702,-10.92966 -9.22513,-13.81255z" stroke-width="0" fill="#e5e5e5"/>
   <path stroke="null" id="svg_395" d="m567.34622,596.532c-43.89997,0 -79.50493,-39.42775 -79.50493,-88.04112l0,0c0.0265,-39.01689 22.97692,-71.88558 54.68614,-83.40429l0,0c1.09982,-33.16216 25.66684,-59.63319 55.86546,-59.66253l0,0c9.6731,0 18.74991,2.78797 26.63415,7.58621l0,0c16.77554,-30.88776 47.30543,-51.5921 82.2611,-51.60677l0,0c52.30099,0.02935 94.83613,46.29496 96.04195,103.87385l0,0c31.29844,11.79751 53.82483,44.51946 53.85134,83.21353l0,0c0,48.61337 -35.60496,88.04112 -79.50493,88.04112l0,0l-210.33028,0l0,0zm219.97688,-145.63469c-6.77117,-1.39398 -11.44871,-8.24652 -10.79942,-15.83273l0,0c0.22526,-2.50917 0.35777,-4.9303 0.35777,-7.29274l0,0c-0.09276,-42.53854 -31.16593,-76.96261 -69.58006,-77.02131l0,0c-29.8011,-0.02935 -55.14992,20.80705 -65.07478,50.0367l0,0c-1.6166,4.73955 -5.37983,8.27587 -9.91161,9.24432l0,0c-4.50528,0.96845 -9.19607,-0.76302 -12.28351,-4.53412l0,0c-5.51234,-6.6471 -13.06531,-10.72634 -21.63859,-10.72634l0,0c-16.23226,0.02935 -29.36382,14.57081 -29.41682,32.54587l0,0c0,1.9956 0.22526,4.04989 0.59629,6.22157l0,0c0.64929,3.90316 -0.10601,7.9237 -2.15988,11.18122l0,0c-2.05388,3.2722 -5.19432,5.44388 -8.70579,6.07484l0,0c-25.17656,4.59281 -44.41675,28.59869 -44.39025,57.68161l0,0c0.053,32.41381 23.74547,58.62071 53.01653,58.70875l0,0l210.34353,0c29.27106,-0.08804 52.92378,-26.29495 52.99003,-58.70875l0,0c0.053,-28.71608 -18.68366,-52.5312 -43.34344,-57.57889l0,0" fill="#1AA1FC"/>
   <polygon stroke="null" id="svg_396" fill="#9AD9FC" points="1061.2314453125,390.45995541044977 795.4853515625,390.45995541044977 795.4853515625,385.93083355238196 1056.147216796875,385.93083355238196 1056.147216796875,360.56778521099477 1061.2314453125,360.56778521099477 " class="st4"/>
   <path stroke="null" id="svg_397" d="m390.43563,207.99607l-21.44966,0l0,-8.66547l-53.62416,0l0,8.66547l-21.44966,0c-6.31478,0 -11.43982,5.17617 -11.43982,11.55395l0,59.93614c0,6.37778 5.12504,11.55395 11.43982,11.55395l96.52349,0c6.31478,0 11.43982,-5.17617 11.43982,-11.55395l0,-59.93614c0,-6.37778 -5.12504,-11.55395 -11.43982,-11.55395zm-48.2646,76.53917c-19.11594,0 -34.66266,-15.7076 -34.66266,-35.01426c0,-19.30666 15.54672,-35.02003 34.66266,-35.02003s34.6741,15.71338 34.6741,35.02003c0,19.30666 -15.56388,35.01426 -34.6741,35.01426zm0,-58.48612c-12.83548,0 -23.23428,10.50832 -23.23428,23.46608c0,12.96354 10.40452,23.46608 23.23428,23.46608c12.83548,0 23.23428,-10.50254 23.23428,-23.46608c0.00572,-12.95776 -10.39308,-23.46608 -23.23428,-23.46608z" stroke-width="0" fill="#e5e5e5"/>
   <path stroke="null" id="svg_398" d="m217.18589,278.31228l0,-9.34948l-0.00416,0c-0.00416,-11.54004 -11.81161,-20.89282 -26.38037,-20.89282s-26.38037,9.35608 -26.38037,20.89612l0,0l0,9.34618l-9.54175,0l0,40.13941l71.84423,0l0,-40.13941l-9.53758,0zm-44.43097,-9.34618c0,0 0,0 0,0c0,-7.8847 8.09653,-14.29804 18.04644,-14.29804c9.95824,0 18.05477,6.41333 18.05477,14.29474c0,0 0,0 0,0l0,9.34948l-36.10121,0l0,-9.34618z" stroke-width="0" fill="#e5e5e5"/>
   <path stroke="null" id="svg_400" d="m66.86427,395.74172c-27.43206,0 -49.0767,32.52276 -49.0767,32.52276s21.64464,32.52698 49.0767,32.52698c20.97938,0 49.0767,-32.52698 49.0767,-32.52698s-28.09732,-32.52276 -49.0767,-32.52276zm0,52.78941c-9.62994,0 -17.47494,-9.09406 -17.47494,-20.26665s7.845,-20.26665 17.47494,-20.26665s17.47494,9.09828 17.47494,20.26665s-7.845,20.26665 -17.47494,20.26665zm0,-32.09694c-5.6311,0 -10.20068,5.29538 -10.20068,11.83029c0,6.53491 4.56595,11.83029 10.20068,11.83029c5.63473,0 10.20068,-5.29538 10.20068,-11.83029c0,-6.53069 -4.56595,-11.83029 -10.20068,-11.83029z" stroke-width="0" fill="#e5e5e5"/>
   <g stroke="null" transform="matrix(-0.00911096 -1.06635 1.01185 -0.00960166 431.532 738.426)" id="svg_172">
    <path stroke="null" id="svg_173" fill="#EAEAEA" d="m505.67497,95.90376c-3.09518,0 -5.80347,-1.97698 -5.80347,-4.23639s2.32139,-4.23639 5.80347,-4.23639l0,0c3.09518,0 5.80347,1.97698 5.80347,4.23639s-2.70828,4.23639 -5.80347,4.23639z" class="st14"/>
    <path stroke="null" id="svg_174" fill="#EAEAEA" d="m561.77516,95.90376c-3.09518,0 -5.80347,-1.97698 -5.80347,-4.23639s2.32139,-4.23639 5.80347,-4.23639l0.3869,0c3.09518,0 5.80347,1.97698 5.80347,4.23639s-2.70828,4.23639 -6.19037,4.23639zm-18.5711,0c-3.09518,0 -5.80347,-1.97698 -5.80347,-4.23639s2.32139,-4.23639 5.80347,-4.23639l0.3869,0c3.09518,0 5.80347,1.97698 5.80347,4.23639s-3.09518,4.23639 -6.19037,4.23639zm-18.95799,0c-3.09518,0 -5.80347,-1.97698 -5.80347,-4.23639s2.32139,-4.23639 5.80347,-4.23639l0.3869,0c3.09518,0 5.80347,1.97698 5.80347,4.23639s-3.09518,4.23639 -6.19037,4.23639z" class="st14"/>
    <path stroke="null" id="svg_175" fill="#EAEAEA" d="m580.34625,96.18619c-2.32139,0 -4.64277,-1.12971 -5.41657,-2.54184c-0.3869,-0.56485 -0.3869,-1.12971 -0.3869,-1.69456c0,-2.25941 2.32139,-4.23639 5.80347,-4.23639l5.80347,0l0,4.23639c0,2.25941 -2.32139,4.23639 -5.80347,4.23639z" class="st14"/>
    <path stroke="null" id="svg_176" fill="#EAEAEA" d="m580.34625,109.46022c-3.09518,0 -5.80347,-1.97698 -5.80347,-4.23639s2.70828,-4.23639 5.80347,-4.23639s5.80347,1.69456 5.80347,4.23639l0,0.28243c0,1.97698 -2.32139,3.95397 -5.80347,3.95397z" class="st14"/>
    <path stroke="null" id="svg_177" fill="#EAEAEA" d="m580.34625,122.73426c-3.09518,0 -5.80347,-1.97698 -5.80347,-4.23639s2.70828,-4.23639 5.80347,-4.23639s5.80347,1.69456 5.80347,4.23639l0,0c0,2.25941 -2.32139,4.23639 -5.80347,4.23639z" class="st14"/>
   </g>
   <g stroke="null" id="svg_275">
    <g stroke="null" id="svg_276">
     <g stroke="null" id="svg_277">
      <path stroke="null" id="svg_278" fill="#EAEAEA" d="m563.95195,113.43964l9.87599,0c2.32376,0 4.06658,1.75634 4.06658,4.09814l0,0c0,2.34179 -1.74282,4.09814 -4.06658,4.09814l-9.87599,0c-2.32376,0 -4.06658,-1.75634 -4.06658,-4.09814l0,0c-0.29047,-2.34179 1.74282,-4.09814 4.06658,-4.09814z" class="st14"/>
     </g>
    </g>
    <g stroke="null" id="svg_279">
     <g stroke="null" id="svg_280">
      <path stroke="null" id="svg_281" fill="#EAEAEA" d="m563.95195,150.90833l9.87599,0c2.32376,0 4.06658,1.75634 4.06658,4.09814l0,0c0,2.34179 -1.74282,4.09814 -4.06658,4.09814l-9.87599,0c-2.32376,0 -4.06658,-1.75634 -4.06658,-4.09814l0,0c-0.29047,-2.04907 1.74282,-4.09814 4.06658,-4.09814z" class="st14"/>
     </g>
    </g>
    <g stroke="null" id="svg_282">
     <g stroke="null" id="svg_283">
      <path stroke="null" id="svg_284" fill="#EAEAEA" d="m555.23784,132.17399l18.5901,0c2.32376,0 4.06658,1.75634 4.06658,4.09814l0,0c0,2.34179 -1.74282,4.09814 -4.06658,4.09814l-18.5901,0c-2.32376,0 -4.06658,-1.75634 -4.06658,-4.09814l0,0c0,-2.04907 1.74282,-4.09814 4.06658,-4.09814z" class="st14"/>
     </g>
    </g>
    <g stroke="null" id="svg_285">
     <g stroke="null" id="svg_286">
      <path stroke="null" id="svg_287" fill="#EAEAEA" d="m683.04474,102.31612l1.16188,1.1709c1.74282,1.75634 4.35705,1.75634 5.8094,0l0,0c1.74282,-1.75634 1.74282,-4.39086 0,-5.85448l-8.42364,-8.489c-1.74282,-1.75634 -4.35705,-1.75634 -5.8094,0l0,0c-1.74282,1.75634 -1.74282,4.39086 0,5.85448l1.16188,1.1709l-5.8094,5.85448c-6.68082,-6.14721 -14.81398,-10.24535 -24.10903,-11.70897l0,-10.53807l1.45235,0c3.19517,0 5.8094,-2.63452 5.8094,-5.85448l0,0c0,-3.21997 -2.61423,-5.85448 -5.8094,-5.85448l-18.88057,0c-3.19517,0 -5.8094,2.63452 -5.8094,5.85448l0,0c0,3.21997 2.61423,5.85448 5.8094,5.85448l1.45235,0l0,10.53807c-23.23762,4.09814 -40.9563,24.88155 -40.08489,49.7631c0.87141,24.88155 20.91386,45.37224 45.60383,46.83586c27.88514,1.46362 50.83229,-20.78341 50.83229,-48.59221c0,-11.41624 -3.77611,-21.66159 -10.45693,-30.15059l6.09987,-5.85448zm-43.86101,73.18104c-20.33292,0 -36.88972,-16.68528 -36.88972,-37.17597c0,-20.49069 16.5568,-37.17597 36.88972,-37.17597s36.88972,16.68528 36.88972,37.17597c0,20.49069 -16.5568,37.17597 -36.88972,37.17597z" class="st14"/>
     </g>
    </g>
    <g stroke="null" id="svg_288">
     <g stroke="null" id="svg_289">
      <path stroke="null" id="svg_290" fill="#EAEAEA" d="m639.18374,109.3415c-15.68539,0 -28.46608,12.87986 -28.46608,28.68697s12.78069,28.68697 28.46608,28.68697c15.68539,0 28.46608,-12.87986 28.46608,-28.68697s-12.78069,-28.68697 -28.46608,-28.68697zm0,28.97969l0,0c-1.74282,-1.75634 -1.74282,-4.39086 0,-5.85448l6.09987,-6.14721c1.74282,-1.75634 4.35705,-1.75634 5.8094,0l0,0c1.74282,1.75634 1.74282,4.39086 0,5.85448l-6.09987,6.14721c-1.74282,1.46362 -4.35705,1.46362 -5.8094,0z" class="st14"/>
     </g>
    </g>
   </g>
   <text stroke="null" transform="matrix(1.37024 0 0 1.89931 -193.132 -473.345)" xml:space="preserve" text-anchor="start" font-family="Noto Sans JP" font-size="24" stroke-width="0" id="svg_402" y="591.28834" x="506.50126" fill="#000000">Smart Home Monitering</text>
   <path stroke="null" id="svg_403" d="m1325.13142,419.17991c-9.60743,-2.16689 -15.17328,-11.07544 -14.51676,-19.15698c-0.24595,-10.55601 0.89956,-21.66362 -5.03754,-31.36974c-3.38407,-7.24698 -9.14888,-13.64543 -11.55462,-21.19757c-2.99369,-11.71664 0.70416,-24.99626 11.84597,-32.86209c12.56534,-9.15412 32.63124,-10.34726 46.46319,-2.56681c9.75578,5.71334 16.79479,15.13662 16.53329,25.41962c1.14473,7.68368 -2.42206,14.91085 -6.618,21.51623c-3.00621,5.31846 -6.51703,10.52283 -9.24564,15.90059c-0.71933,11.0264 -0.30678,22.15394 -2.25788,33.0855c-3.25017,8.4707 -15.49882,14.22994 -25.61201,11.23125l0,0zm25.37465,-19.71539c-5.70174,-2.61304 -13.8951,-0.91417 -20.52254,-1.47672c-5.41374,0.92063 -15.03338,-1.8883 -17.91143,2.32521c6.58193,2.18907 14.31707,0.54811 21.32416,0.91028c5.60672,-0.45783 12.05738,0.43416 17.10981,-1.75879l0,0zm-0.42702,-4.91699c0.8391,-6.63867 -11.50847,-3.25108 -16.52451,-4.23934c-6.63907,1.14251 -17.20454,-2.44559 -21.37998,2.65512c2.47424,5.12583 13.5087,1.52089 19.3031,2.65818c6.17914,-0.18616 12.58969,0.18829 18.60139,-1.07397l0.00001,0zm0.07688,-11.63153c1.63003,-12.9323 10.93027,-23.70008 16.31552,-35.52985c4.4277,-14.16363 -4.34123,-30.34492 -20.21729,-36.29021c-15.80218,-6.65861 -36.85579,-1.62843 -45.78613,11.41898c-8.60444,10.7775 -6.96234,25.42111 1.44742,35.90214c6.00058,9.15987 10.78811,19.45364 10.00824,30.11363c12.45579,0 24.91159,0 37.36739,0c0.2883,-1.87153 0.5765,-3.74319 0.86485,-5.61468zm-27.57505,-18.32156c-4.93504,-7.29551 -10.00122,-14.64725 -13.43773,-22.5538c3.08964,-3.40034 3.98844,-7.18795 4.94823,-11.18317c8.67172,-1.4482 -1.10381,8.40191 7.08352,8.62388c7.2675,2.68839 4.07936,-13.04492 10.11734,-7.37381c-4.33427,6.22401 8.51366,12.41572 8.98519,3.51199c-0.62284,-6.72274 7.76564,-5.46317 4.49514,0.63573c0.26993,3.13739 6.27798,4.03684 6.38085,6.5602c-4.3252,7.97643 -8.08472,16.21147 -13.20624,23.84754c-1.1528,-2.95648 4.53405,-10.36639 6.35122,-14.71716c3.50648,-3.76087 6.51963,-13.89609 -2.62154,-12.51456c-5.30268,7.03194 -12.43592,-4.43256 -17.62799,2.3065c-4.40752,1.11779 -11.33959,-6.48981 -12.61817,0.82504c3.31956,8.68818 10.22683,16.09271 13.84083,24.6912c-1.22633,-0.61473 -1.92463,-1.69321 -2.69065,-2.65959l0,0zm-6.92686,-31.8411c-2.39978,-0.99578 1.01148,5.29378 -0.00005,0l0.00005,0zm14.34345,0.74289c-3.11517,-4.48237 -1.44445,5.43851 0,0zm13.90288,0c-3.11517,-4.48237 -1.44447,5.43851 0,0zm-64.72438,-33.12082c-5.50599,-4.75103 -11.59219,-9.20909 -16.3806,-14.44603c11.96248,8.41901 22.91155,17.90061 33.69205,27.40596c2.8627,3.34451 -4.99416,-3.12323 -6.45645,-4.20737c-3.6588,-2.88095 -7.26967,-5.80569 -10.855,-8.75256l0.00001,0zm85.02362,13.58369c9.30648,-9.85891 17.98963,-20.19458 28.02338,-29.52831c-1.68013,4.01864 -7.08861,8.82723 -10.48926,12.96607c-5.67906,6.00704 -10.98749,12.35838 -17.48164,17.74428c-0.81054,0.72841 -2.02087,-0.99688 -0.0524,-1.18203l-0.00008,0l-0.00001,0zm-20.15804,-9.35301c3.21547,-7.81952 7.87956,-15.26278 13.08301,-22.26108c-0.12093,3.8823 -5.63958,11.24056 -8.29218,16.05447c-1.50056,1.93716 -2.76624,5.02653 -4.79083,6.20661zm-41.17715,-10.02825c-2.23987,-2.77777 -8.98247,-9.24574 -7.72353,-10.12779c6.50074,6.1281 13.1125,12.45326 17.78232,19.70027c-3.97682,-2.59318 -6.83831,-6.33859 -10.05879,-9.57247l0.00001,0zm25.74273,-2.18614c-0.45332,-2.60871 0.95392,-15.0621 1.7357,-6.60599c0.00278,5.29815 0.65323,11.26256 -1.0813,16.08487c-0.74277,-3.10036 -0.56256,-6.32803 -0.6544,-9.47888z" stroke-width="0" fill="#e5e5e5"/>
  </g>
 </g>
</svg>