<?xml version="1.0" ?><svg id="Future_cultivation" viewBox="0 0 512 512" xmlns="http://www.w3.org/2000/svg"><title/><path d="M415.7,320.33H343.37V256.09c1.37.11,2.75.19,4.12.19A51.58,51.58,0,0,0,399,202.93a2,2,0,0,0-1.75-1.92,51.5,51.5,0,0,0-53.86,31V207.71a40.22,40.22,0,0,0-39.15-47.06h0a2,2,0,0,0-2,1.67,40.22,40.22,0,0,0,37.15,47V249c-.11,1.66-.14,3.32-.09,5a1.86,1.86,0,0,0,.09.48v20.89A72.1,72.1,0,0,0,256,228.54a2,2,0,0,0-1.58,2.06,72.2,72.2,0,0,0,72,68.36,73.29,73.29,0,0,0,12.91-1.18v22.55h-139V256.09c1.38.11,2.75.19,4.12.19A51.58,51.58,0,0,0,256,202.93a2,2,0,0,0-1.75-1.92,51.5,51.5,0,0,0-53.86,31V208.72a2,2,0,0,0,.51-1,40.23,40.23,0,0,0-39.16-47.06h0a2,2,0,0,0-2,1.67,40.2,40.2,0,0,0,36.64,46.93V249c-.1,1.66-.14,3.32-.08,5a1.85,1.85,0,0,0,.08.48v20.89a72.1,72.1,0,0,0-83.35-46.79,2,2,0,0,0-1.57,2.06,72.18,72.18,0,0,0,72,68.36,73.29,73.29,0,0,0,12.91-1.18v22.55H130.59a2,2,0,0,0-2,2V402a20.53,20.53,0,0,0,20.5,20.5H397.2A20.53,20.53,0,0,0,417.7,402V322.33A2,2,0,0,0,415.7,320.33ZM313.6,191.81a36.24,36.24,0,0,1-7.69-27.09,36.21,36.21,0,0,1,33.78,40.59A36.14,36.14,0,0,1,313.6,191.81Zm-29.45,88.37a68.26,68.26,0,0,1-25.6-48.07,68.19,68.19,0,0,1,80.67,61.65A68,68,0,0,1,284.15,280.18Zm74-62.53A47.45,47.45,0,0,1,395,204.8a47.56,47.56,0,0,1-51.64,47.3v-3A47.6,47.6,0,0,1,358.1,217.65Zm-187-25.84a36.28,36.28,0,0,1-7.69-27.09,36.21,36.21,0,0,1,33.78,40.59A36.14,36.14,0,0,1,171.15,191.81Zm-30,88.37a68.3,68.3,0,0,1-25.6-48.07,68.19,68.19,0,0,1,80.67,61.65A68,68,0,0,1,141.2,280.18Zm74-62.53a47.45,47.45,0,0,1,36.91-12.85,47.56,47.56,0,0,1-51.64,47.3v-3A47.64,47.64,0,0,1,215.15,217.65ZM341.32,394.49a2.39,2.39,0,1,1-2.38,2.38A2.39,2.39,0,0,1,341.32,394.49Zm-142.94,0a2.39,2.39,0,1,1-2.39,2.38A2.39,2.39,0,0,1,198.38,394.49ZM413.7,402a16.52,16.52,0,0,1-16.5,16.5H149.09a16.52,16.52,0,0,1-16.5-16.5V324.33h63.79v20.3l-16.11,16.11-12,11.63,1.39,1.43,1.39,1.44,12-11.65,13.3-13.3v40.52a6.38,6.38,0,1,0,4,0V368.89L226,394.54l2.82-2.83-28.47-28.48v-25.9a1.84,1.84,0,0,0,0-.41V324.33h138.9v20.3l-28.07,28.08,2.83,2.83,25.24-25.25v40.52a6.39,6.39,0,1,0,4,0V368.89L369,394.54l2.83-2.83-28.48-28.48v-25.9a1.84,1.84,0,0,0,.05-.41V324.33H413.7Z"/><path d="M223.61,347.13a5.39,5.39,0,1,0,5.39,5.39A5.4,5.4,0,0,0,223.61,347.13Zm0,6.78a1.39,1.39,0,1,1,1.39-1.39A1.39,1.39,0,0,1,223.61,353.91Z"/><path d="M364.49,360.77a5.39,5.39,0,1,0-5.38-5.39A5.39,5.39,0,0,0,364.49,360.77Zm0-6.77a1.39,1.39,0,1,1-1.38,1.38A1.38,1.38,0,0,1,364.49,354Z"/><path d="M314.5,391.19a5.39,5.39,0,1,0,5.39,5.39A5.4,5.4,0,0,0,314.5,391.19Zm0,6.78a1.39,1.39,0,1,1,1.39-1.39A1.39,1.39,0,0,1,314.5,398Z"/><path d="M173.29,391.19a5.39,5.39,0,1,0,5.39,5.39A5.4,5.4,0,0,0,173.29,391.19Zm0,6.78a1.39,1.39,0,1,1,1.39-1.39A1.39,1.39,0,0,1,173.29,398Z"/><rect height="4" width="83" x="338.77" y="68.57"/><rect height="4" width="83" x="338.77" y="83.57"/><rect height="4" width="83" x="338.77" y="98.57"/><rect height="4" width="55.7" x="366.08" y="113.57"/><rect height="4" width="17.86" x="338.71" y="113.57"/><path d="M198.89,85.7l9.78,13a2,2,0,0,0,1.6.8h15.55v36.12H210.35a2,2,0,0,0-2,2v6.61h-5.57l-.6,20,18.44,20,2.95-2.71-17.34-18.82.43-14.5h33.78v0H249l.43,14.5L232.07,181.6l2.94,2.71,18.44-20-.59-20h-5.58v-6.6a2,2,0,0,0-2-2H229.82V99.55h15.54a2,2,0,0,0,1.6-.8l9.79-13h20.52l4.29-20.76H174.07l4.29,20.76Zm44.39,58.45H212.35v-4.48h30.93Zm1.08-48.6H211.27l-7.38-9.85h47.86Zm32.29-26.61L274,81.7h-92.4L179,68.94Z"/></svg>