<?xml version="1.0" encoding="UTF-8"?>
<svg width="97px" height="97px" viewBox="0 0 97 97" version="1.1" xmlns="http://www.w3.org/2000/svg" xmlns:xlink="http://www.w3.org/1999/xlink">
    <!-- Generator: Sketch 52.4 (67378) - http://www.bohemiancoding.com/sketch -->
    <title>digital-transeformation-01</title>
    <desc>Created with Sketch.</desc>
    <defs>
        <linearGradient x1="0.318483904%" y1="50.0520291%" x2="99.9930426%" y2="50.0520291%" id="linearGradient-1">
            <stop stop-color="#3062EF" offset="0%"></stop>
            <stop stop-color="#00ABE5" offset="100%"></stop>
        </linearGradient>
    </defs>
    <g id="Page-1" stroke="none" stroke-width="1" fill="none" fill-rule="evenodd">
        <g id="digital-transeformation-01" fill="url(#linearGradient-1)" fill-rule="nonzero">
            <path d="M38.1,96.5 L38.1,94.6 C38.1,93.4 37.7,92.2 36.9,91.3 L33,86.5 C32.2,85.5 31.7,84.4 31.5,83.2 L28.7,66.3 C28.7,66.1 28.6,65.8 28.6,65.6 L28.6,64.6 C28.6,62.2 30.6,60.2 33,60.2 L36.7,60.2 L39.4,75.2 C39.5,75.7 39.8,76.2 40.1,76.6 L41.1,77.6 L41.1,42.1 L31.6,55.8 L8.6,55.8 L8.5,56.2 C7.9,57.8 6.4,58.9 4.6,58.9 C2.3,58.9 0.5,57.1 0.5,54.8 C0.5,52.5 2.3,50.7 4.6,50.7 C6.3,50.7 7.9,51.8 8.5,53.4 L8.6,53.8 L13,53.8 L13,47.5 L15,47.5 L15,53.8 L19.3,53.8 L19.3,41.3 L21.3,41.3 L21.3,53.8 L25.6,53.8 L25.6,44.4 L27.6,44.4 L27.6,53.8 L30.8,53.8 L39.6,41 L39.2,40.7 C37.5,39 36.5,36.8 36.5,34.4 C36.5,30.7 38.8,27.4 42.3,26.1 L42.8,25.9 L41.4,19.7 L36.9,19.7 L36.9,22.6 L32.8,24 L32.7,24.3 C32.6,24.5 32.5,24.7 32.4,24.9 L32.3,25.2 L34.2,29 L28.8,34.4 L25,32.5 L24.7,32.6 C24.5,32.7 24.3,32.8 24.1,32.9 L23.8,33 L22.4,37.1 L14.7,37.1 L13.3,33 L13,32.9 C12.8,32.8 12.6,32.7 12.4,32.6 L12.1,32.5 L8.3,34.4 L2.9,29 L4.8,25.2 L4.7,24.9 C4.6,24.7 4.5,24.5 4.4,24.3 L4.3,24 L0.2,22.6 L0.2,14.9 L4.3,13.5 L4.4,13.2 C4.5,13 4.6,12.8 4.7,12.6 L4.8,12.3 L2.9,8.5 L8.3,3.1 L12.1,5 L12.4,4.9 C12.6,4.8 12.8,4.7 13,4.6 L13.3,4.5 L14.7,0.4 L22.4,0.4 L23.8,4.5 L24.1,4.6 C24.3,4.7 24.5,4.8 24.7,4.9 L25,5 L28.8,3.1 L34.2,8.5 L32.3,12.3 L32.4,12.6 C32.5,12.8 32.6,13 32.7,13.2 L32.8,13.5 L36.9,14.9 L36.9,17.8 L43,17.8 L44.7,25.6 L45.2,25.6 C45.2,25.6 45.3,25.6 45.3,25.6 C46.6,25.6 47.9,25.9 49.2,26.5 L49.6,26.7 L60.6,14.6 L66.3,14.6 L66.4,14.1 C66.8,10.4 68.5,7 71.3,4.5 C74.1,2 77.7,0.6 81.4,0.6 C89.7,0.6 96.5,7.4 96.5,15.7 C96.5,24 89.7,30.8 81.4,30.8 C77.6,30.8 74,29.4 71.3,26.9 C68.5,24.4 66.8,21 66.4,17.3 L66.3,16.8 L61.4,16.8 L51.2,27.8 L51.6,28.2 C53.2,29.9 54.1,32.1 54.1,34.4 C54.1,36.1 53.6,37.8 52.7,39.2 L52.4,39.6 L67.6,53.7 L69.4,53.7 L69.4,44.3 L71.4,44.3 L71.4,53.7 L75.7,53.7 L75.7,47.4 L77.7,47.4 L77.7,53.7 L82,53.7 L82,41.3 L84,41.3 L84,53.8 L88.4,53.8 L88.5,53.4 C89.1,51.8 90.6,50.7 92.4,50.7 C94.7,50.7 96.5,52.5 96.5,54.8 C96.5,57.1 94.7,58.9 92.4,58.9 C90.7,58.9 89.1,57.8 88.5,56.2 L88.4,55.8 L66.9,55.8 L51.1,41.1 L50.7,41.4 C50.4,41.6 50.1,41.9 49.8,42 L49.5,42.2 L49.5,54.3 L50.3,54 C50.8,53.8 51.2,53.7 51.7,53.7 C54,53.7 55.8,55.5 55.8,57.8 L55.8,59 L56.6,58.7 C57.1,58.5 57.5,58.4 58,58.4 C59.8,58.4 61.5,59.7 62,61.4 L62.2,62 L62.8,61.8 C63.3,61.6 63.8,61.5 64.3,61.5 C66.6,61.5 68.4,63.3 68.4,65.6 L68.4,82.2 C68.4,83.8 67.8,85.4 66.8,86.7 L63.3,91.1 C62.6,92 62.1,93.2 62.1,94.4 L62.1,96.3 L38.1,96.3 L38.1,96.5 Z M33.1,62 C31.8,62 30.7,63.1 30.7,64.4 L30.7,65.4 C30.7,65.5 30.7,65.7 30.7,65.8 L33.5,82.7 C33.6,83.6 34,84.4 34.6,85.1 L38.5,89.9 C39.4,91 39.9,92.4 40.1,93.8 L40.1,94.3 L60,94.3 L60,93.8 C60.1,92.4 60.7,91 61.6,89.9 L65.1,85.5 C65.8,84.6 66.3,83.4 66.3,82.2 L66.3,65.7 C66.3,64.5 65.3,63.5 64.1,63.5 C62.9,63.5 61.9,64.5 61.9,65.7 L61.9,76.1 L59.9,76.1 L59.9,62.6 C59.9,61.4 58.9,60.4 57.7,60.4 C56.5,60.4 55.5,61.4 55.5,62.6 L55.5,76.1 L53.5,76.1 L53.5,57.9 C53.5,56.7 52.5,55.7 51.3,55.7 C50.1,55.7 49.1,56.7 49.1,57.9 L49.1,76.1 L47.1,76.1 L47.1,39.1 C47.1,37.9 46.1,36.9 44.9,36.9 C43.7,36.9 42.7,37.9 42.7,39.1 L42.7,79.3 L41.7,79.3 C39.4,79.3 37.5,77.7 37,75.4 L35.1,62 L33.1,62 Z M92.4,52.6 C91.2,52.6 90.2,53.6 90.2,54.8 C90.2,56 91.2,57 92.4,57 C93.6,57 94.6,56 94.6,54.8 C94.6,53.6 93.6,52.6 92.4,52.6 Z M4.6,52.6 C3.4,52.6 2.4,53.6 2.4,54.8 C2.4,56 3.4,57 4.6,57 C5.8,57 6.8,56 6.8,54.8 C6.8,53.6 5.8,52.6 4.6,52.6 Z M45.4,27.5 C41.6,27.5 38.5,30.6 38.5,34.4 C38.5,36.1 39.1,37.7 40.3,39 L41.2,40 L41.3,38.7 C41.5,36.6 43.3,35 45.4,35 C47.5,35 49.2,36.6 49.5,38.7 L49.6,40 L50.5,39 C51.6,37.7 52.3,36.1 52.3,34.4 C52.2,30.6 49.1,27.5 45.4,27.5 Z M16.3,35 L21.2,35 L22.4,31.4 L22.9,31.2 C23.5,31 24.1,30.8 24.7,30.5 L25.1,30.3 L28.5,32 L31.9,28.6 L30.2,25.2 L30.4,24.8 C30.7,24.2 30.9,23.6 31.1,23 L31.3,22.5 L34.5,21.4 L35,21.4 L35,20.8 L35,16.4 L31.4,15.2 L31.2,14.7 C31,14.1 30.7,13.5 30.5,12.9 L30.3,12.5 L32,9.1 L28.6,5.7 L25.2,7.4 L24.6,7 C24,6.7 23.4,6.5 22.8,6.3 L22.3,6.1 L21.1,2.5 L16.2,2.5 L15,6.1 L14.5,6.3 C13.9,6.5 13.3,6.7 12.7,7 L12.3,7.2 L8.9,5.5 L5.5,8.9 L7.2,12.3 L7,12.8 C6.7,13.4 6.5,14 6.3,14.6 L6.1,15.1 L2.5,16.3 L2.5,21.2 L6.1,22.4 L6.3,22.9 C6.5,23.5 6.8,24.1 7,24.7 L7.2,25.1 L5.5,28.5 L8.9,31.9 L12.3,30.2 L12.7,30.4 C13.3,30.7 13.9,31 14.5,31.1 L15,31.3 L16.3,35 Z M88.2,21.2 C86.9,22.8 85,23.9 82.9,24.3 L82.4,24.4 L82.4,28.7 L83.1,28.6 C86.6,28.2 89.7,26.3 91.9,23.5 L92.3,23 L88.6,20.8 L88.2,21.2 Z M70.6,23 L71,23.5 C73.2,26.3 76.3,28.1 79.8,28.6 L80.5,28.7 L80.5,24.4 L80,24.3 C77.9,23.9 76,22.9 74.7,21.2 L74.4,20.8 L70.6,23 Z M81.4,8.7 C77.6,8.7 74.5,11.8 74.5,15.6 C74.5,19.4 77.6,22.5 81.4,22.5 C85.2,22.5 88.3,19.4 88.3,15.6 C88.3,11.8 85.2,8.7 81.4,8.7 Z M89.5,12.1 L89.7,12.6 C90.1,13.6 90.3,14.6 90.3,15.7 C90.3,16.8 90.1,17.8 89.7,18.8 L89.5,19.3 L93.3,21.5 L93.6,20.9 C94.3,19.3 94.6,17.6 94.6,15.8 C94.6,14 94.3,12.3 93.6,10.7 L93.3,10.1 L89.5,12.1 Z M69.3,10.5 C68.6,12.1 68.3,13.8 68.3,15.6 C68.3,17.4 68.6,19.1 69.3,20.7 L69.6,21.3 L73.4,19.1 L73.2,18.6 C72.8,17.6 72.6,16.6 72.6,15.5 C72.6,14.4 72.8,13.4 73.2,12.4 L73.4,11.9 L69.6,9.7 L69.3,10.5 Z M79.8,2.6 C76.3,3 73.2,4.9 71,7.7 L70.6,8.2 L74.3,10.4 L74.6,10 C75.9,8.4 77.8,7.3 79.9,6.9 L80.4,6.8 L80.4,2.5 L79.8,2.6 Z M82.4,6.8 L82.9,6.9 C85,7.3 86.9,8.3 88.2,10 L88.5,10.4 L92.2,8.2 L91.8,7.7 C89.6,4.9 86.5,3.1 83,2.6 L82.3,2.5 L82.3,6.8 L82.4,6.8 Z" id="Shape"></path>
        </g>
    </g>
</svg>