<?xml version="1.0" encoding="UTF-8"?>
<svg width="87px" height="86px" viewBox="0 0 87 86" version="1.1" xmlns="http://www.w3.org/2000/svg" xmlns:xlink="http://www.w3.org/1999/xlink">
    <!-- Generator: Sketch 52.4 (67378) - http://www.bohemiancoding.com/sketch -->
    <title>services-application</title>
    <desc>Created with Sketch.</desc>
    <defs>
        <linearGradient x1="100%" y1="50%" x2="-2.22044605e-14%" y2="50%" id="linearGradient-1">
            <stop stop-color="#00ABE5" offset="0%"></stop>
            <stop stop-color="#3062EF" offset="100%"></stop>
        </linearGradient>
    </defs>
    <g id="Page-1" stroke="none" stroke-width="1" fill="none" fill-rule="evenodd">
        <g id="services-application" transform="translate(1.000000, 1.000000)" fill="url(#linearGradient-1)">
            <g id="data-analytics-icon_v2">
                <path d="M5.07132937,43.508982 L5.07132937,49.5449102 C5.07038487,50.8744147 6.15078669,51.9544955 7.48809524,51.9609581 L49.8093254,51.9609581 L49.8093254,52.9032335 L7.48809524,52.9032335 C5.63247894,52.8930872 4.13360289,51.3947343 4.13363095,49.5499401 L4.13363095,7.16095808 L5.07132937,7.16095808 L5.07132937,42.5667066 L49.8093254,42.5667066 L49.8093254,43.508982 L5.07132937,43.508982 Z" id="Shape" stroke="url(#linearGradient-1)" stroke-width="0.5"></path>
                <path d="M47.7737103,46.4431138 L34.3035714,49.9976048 C34.2246766,50.0194047 34.1412957,50.0194047 34.0624008,49.9976048 L21.1875992,46.4146108 L8.56071429,49.222994 L8.35664683,48.3041916 L21.0965278,45.468982 C21.1712847,45.4505212 21.2494494,45.4505212 21.3242063,45.468982 L34.1248016,49.028503 L34.1905754,49.0469461 L47.5325397,45.525988 L47.7737103,46.4431138 Z" id="Shape" stroke="url(#linearGradient-1)" stroke-width="0.5"></path>
                <path d="M49.3404762,19.9168862 L45.0112103,19.9168862 C44.8188905,19.9168815 44.6345204,19.9931762 44.4990055,20.128843 C44.3634906,20.2645099 44.2880369,20.4483303 44.2893849,20.639521 L44.2893849,22.565988 L37.074504,32.2 C37.0747957,32.0085766 36.9990283,31.8247853 36.8636905,31.6886228 C36.729696,31.5545772 36.5478251,31.4786381 36.3577381,31.4773653 L32.0234127,31.4773653 C31.8310928,31.4773606 31.6467228,31.5536552 31.5112079,31.6893221 C31.375693,31.8249889 31.3002393,32.0088094 31.3015873,32.2 L31.3015873,33.2998802 L25.5286706,30.9877844 L25.5286706,29.3111377 C25.5295671,29.1200823 25.4539676,28.9365221 25.3185504,28.8009531 C25.1831332,28.665384 24.9990259,28.5889463 24.8068452,28.588503 L20.4775794,28.588503 C20.2853987,28.5889463 20.1012914,28.665384 19.9658742,28.8009531 C19.830457,28.9365221 19.7548575,29.1200823 19.755754,29.3111377 L19.755754,29.9549701 L16.6896825,27.44 L21.2618056,21.7176048 C22.5223088,22.4297957 24.1204874,22.0776875 24.9603175,20.9027545 L31.337004,25.3726946 C31.3203214,25.479888 31.3096238,25.5879177 31.3049603,25.6962874 C31.2974538,26.8533191 31.9894535,27.9017072 33.0601206,28.3553768 C34.1307877,28.8090465 35.3707618,28.5792861 36.2051409,27.772622 C37.03952,26.9659579 37.305148,25.7401266 36.878869,24.6634731 L36.9227183,24.6986826 L44.3551587,15.2172455 C44.7748388,15.4525357 45.2478591,15.5777445 45.7296627,15.5810778 C47.0629191,15.5949411 48.2358072,14.7080043 48.5782931,13.4269464 C48.9207789,12.1458884 48.3456126,10.7970652 47.1813685,10.1510168 C46.0171243,9.50496832 44.5603992,9.72627865 43.6433742,10.6885202 C42.7263492,11.6507617 42.5826408,13.1087986 43.2943452,14.2297006 L36.0271825,23.491497 C35.4234996,22.9737139 34.6281209,22.7331177 33.8366558,22.8288788 C33.0451907,22.9246399 32.3310778,23.3478729 31.8699405,23.994491 L25.493254,19.5245509 C25.5098555,19.4173473 25.5205526,19.309322 25.5252976,19.2009581 C25.5282413,17.9785112 24.7520802,16.8883356 23.5914125,16.4846735 C22.4307447,16.0810115 21.1402631,16.4524411 20.3760451,17.4101287 C19.611827,18.3678163 19.5415698,19.7016101 20.2009921,20.7334132 L15.5715278,26.5245509 L13.2610119,24.6316168 L13.2610119,20.639521 C13.2623599,20.4483303 13.1869062,20.2645099 13.0513913,20.128843 C12.9158764,19.9931762 12.7315064,19.9168815 12.5391865,19.9168862 L8.20992063,19.9168862 C8.01773994,19.9173295 7.83363272,19.9937673 7.6982155,20.1293363 C7.56279828,20.2649054 7.48719877,20.4484655 7.48809524,20.639521 L7.48809524,24.9820359 C7.48719877,25.1730914 7.56279828,25.3566515 7.6982155,25.4922206 C7.83363272,25.6277896 8.01773994,25.7042274 8.20992063,25.7046707 L12.2828373,25.7046707 L14.672619,27.6529341 L12.0534722,30.9307784 C11.7468281,30.8205044 11.4233112,30.7637804 11.0972222,30.7631138 C9.71319895,30.7427329 8.50370018,31.6881872 8.19712677,33.0300924 C7.89055336,34.3719975 8.57057964,35.7441017 9.8276709,36.3200778 C11.0847622,36.8960538 12.5758154,36.5186981 13.4028681,35.4152671 C14.2299208,34.311836 14.1672422,32.7834934 13.2525794,31.7506587 L15.7823413,28.5767665 L19.7490079,31.8277844 L19.7490079,33.6536527 C19.7481115,33.8447081 19.823711,34.0282683 19.9591282,34.1638373 C20.0945454,34.2994064 20.2786526,34.3758441 20.4708333,34.3762874 L24.8000992,34.3762874 C24.9922799,34.3758441 25.1763871,34.2994064 25.3118043,34.1638373 C25.4472216,34.0282683 25.5228211,33.8447081 25.5219246,33.6536527 L25.5219246,32.5437126 L31.2948413,34.8558084 L31.2948413,36.5324551 C31.2939448,36.7235105 31.3695443,36.9070707 31.5049615,37.0426397 C31.6403787,37.1782088 31.824486,37.2546465 32.0166667,37.2550898 L36.3459325,37.2550898 C36.7457896,37.253242 37.0686922,36.9299774 37.0677579,36.5324551 L37.0677579,34.6043114 L44.2893849,24.9820359 C44.2880369,25.1732266 44.3634906,25.357047 44.4990055,25.4927139 C44.6345204,25.6283807 44.8188905,25.7046754 45.0112103,25.7046707 L49.3404762,25.7046707 C49.532796,25.7046754 49.7171661,25.6283807 49.852681,25.4927139 C49.9881959,25.357047 50.0636496,25.1732266 50.0623016,24.9820359 L50.0623016,20.639521 C50.0636496,20.4483303 49.9881959,20.2645099 49.852681,20.128843 C49.7171661,19.9931762 49.532796,19.9168815 49.3404762,19.9168862 Z M45.7330357,11.2452695 C46.3219342,11.2411943 46.8551292,11.5907273 47.0833369,12.1304521 C47.3115447,12.6701768 47.1896765,13.2934558 46.7747091,13.7088884 C46.3597417,14.124321 45.7336635,14.2498272 45.1891836,14.0267292 C44.6447037,13.8036312 44.2893992,13.2760083 44.2893849,12.6905389 C44.2884431,11.8958731 44.933709,11.2498837 45.7330357,11.2452695 Z M34.1872024,24.251018 C34.7761009,24.2469428 35.3092959,24.5964758 35.5375036,25.1362006 C35.7657114,25.6759253 35.6438431,26.2992043 35.2288758,26.7146369 C34.8139084,27.1300695 34.1878302,27.2555757 33.6433503,27.0324777 C33.0988704,26.8093797 32.7435659,26.2817568 32.7435516,25.6962874 C32.7416831,24.9012429 33.3874882,24.2547137 34.1872024,24.251018 Z M22.641369,17.748982 C23.2304148,17.7442264 23.7641245,18.0933238 23.9928649,18.6329901 C24.2216053,19.1726563 24.1001578,19.7962076 23.6853274,20.2119888 C23.2704971,20.62777 22.6442894,20.7535875 22.0996021,20.5305924 C21.5549148,20.3075973 21.1994242,19.7798723 21.1994048,19.1942515 C21.197533,18.3998579 21.8423146,17.7535984 22.641369,17.748982 Z M11.8190476,24.251018 L8.93849206,24.251018 L8.93849206,21.360479 L11.8190476,21.360479 L11.8190476,24.251018 Z M11.0972222,35.0905389 C10.5081765,35.0952945 9.97446677,34.7461971 9.74572639,34.2065309 C9.51698601,33.6668647 9.63843346,33.0433134 10.0532638,32.6275321 C10.4680942,32.2117509 11.0943018,32.0859334 11.6389892,32.3089285 C12.1836765,32.5319236 12.5391671,33.0596486 12.5391865,33.6452695 C12.5410583,34.439663 11.8962767,35.0859225 11.0972222,35.0905389 Z M24.0833333,32.9226347 L21.1994048,32.9226347 L21.1994048,30.0320958 L24.0850198,30.0320958 L24.0833333,32.9226347 Z M35.6291667,35.8131737 L32.7435516,35.8131737 L32.7435516,32.9226347 L35.6308532,32.9226347 L35.6291667,35.8131737 Z M48.6152778,24.2443114 L45.7330357,24.2443114 L45.7330357,21.360479 L48.6186508,21.360479 L48.6152778,24.2443114 Z" id="Shape" stroke="url(#linearGradient-1)" stroke-width="0.5" fill-rule="nonzero"></path>
                <rect id="Rectangle-path" x="7.02093254" y="7.16095808" width="1" height="1"></rect>
                <rect id="Rectangle-path" x="9.90654762" y="7.16095808" width="1" height="1"></rect>
                <rect id="Rectangle-path" x="12.7921627" y="7.16095808" width="1" height="1"></rect>
                <rect id="Rectangle-path" x="9.90654762" y="10.051497" width="1" height="1"></rect>
                <rect id="Rectangle-path" x="12.7921627" y="10.051497" width="1" height="1"></rect>
                <rect id="Rectangle-path" x="15.6794643" y="10.051497" width="1" height="1"></rect>
                <polygon id="Shape" points="36.8215278 13.6646707 36.8215278 14.6069461 35.377877 14.6069461 35.377877 16.0522156 34.4401786 16.0522156 34.4401786 14.6069461 32.9965278 14.6069461 32.9965278 13.6646707 34.4401786 13.6646707 34.4401786 12.2194012 35.377877 12.2194012 35.377877 13.6646707"></polygon>
                <path d="M78.7919643,23.0639521 L78.7919643,15.1434731 C79.8705653,14.8927239 80.6389832,13.9442126 80.6555556,12.8431138 C80.6306268,11.5023319 79.5183523,10.4348204 78.1696429,10.4572455 C77.3283324,10.454245 76.5418726,10.8719517 76.0766865,11.5688623 L65.7232143,8.80742515 C65.7232143,8.76047904 65.7383929,8.71688623 65.7383929,8.66826347 C65.6891238,7.33876657 64.5907038,6.28625937 63.2524802,6.28625937 C61.9142565,6.28625937 60.8158365,7.33876657 60.7665675,8.66826347 C60.769476,8.86719112 60.7978117,9.06494413 60.8508929,9.25676647 L57.172619,11.4598802 C56.7605118,11.1938115 56.2793802,11.0528212 55.787996,11.0541317 C54.4392865,11.0317067 53.3270121,12.0992181 53.3020833,13.44 C53.3139744,14.1317064 53.627914,14.784065 54.1622024,15.2273054 C54.486356,15.4530574 54.824309,15.6585633 55.1741071,15.8426347 L55.1741071,23.6608383 C54.0951773,23.9114665 53.3261919,24.8598199 53.3088294,25.9611976 C53.3346758,27.3013201 54.4466786,28.367821 55.7947421,28.3453892 C56.6356372,28.3500484 57.422371,27.9334566 57.8876984,27.2371257 L68.2411706,29.9968862 C68.2411706,30.0438323 68.2259921,30.0874251 68.2259921,30.1343713 C68.2611046,31.4746663 69.3641128,32.5430378 70.712748,32.5430378 C72.0613832,32.5430378 73.1643915,31.4746663 73.199504,30.1343713 C73.1969455,29.7606499 73.1019594,29.3932914 72.9229167,29.0646707 L76.3684524,26.994012 C76.8427285,27.4751323 77.4920406,27.7459103 78.1696429,27.7451497 C79.5183523,27.7675748 80.6306268,26.7000633 80.6555556,25.3592814 C80.636684,24.2600708 79.8687607,23.3142426 78.7919643,23.0639521 Z M78.1696429,11.651018 C78.8256461,11.6748827 79.3404096,12.2187029 79.3245505,12.8711164 C79.3086915,13.5235299 78.7681056,14.0419955 78.1117086,14.03433 C77.4553117,14.0266645 76.9271256,13.4957176 76.9266865,12.8431138 C76.9396097,12.1730525 77.4956111,11.6398021 78.1696429,11.651018 Z M65.3521825,9.94419162 L75.7056548,12.7039521 C75.7056548,12.7508982 75.6904762,12.794491 75.6904762,12.8431138 C75.693175,13.041623 75.7220931,13.2389197 75.7764881,13.4299401 L72.0948413,15.6330539 C71.6832151,15.3672974 71.2027152,15.2263205 70.7119048,15.2273054 C69.8707639,15.2233235 69.084099,15.6405089 68.6189484,16.3372455 L63.8748016,15.0730539 L63.8748016,10.9686228 C64.4766955,10.8221448 65.0014551,10.456602 65.3454365,9.94419162 L65.3521825,9.94419162 Z M63.8815476,18.8907784 L63.8815476,16.3104192 L68.2462302,17.474012 C68.2462302,17.5209581 68.2310516,17.5662275 68.2310516,17.6131737 C68.2484142,18.7145513 69.0173995,19.6629048 70.0963294,19.9135329 L70.0963294,22.4938922 L65.7299603,21.3302994 C65.7299603,21.2833533 65.7451389,21.2380838 65.7451389,21.1911377 C65.7278133,20.0880566 64.9560783,19.1388868 63.8748016,18.8907784 L63.8815476,18.8907784 Z M64.5021825,21.1911377 C64.5200562,21.694514 64.2288142,22.1582956 63.7660549,22.363367 C63.3032957,22.5684383 62.7616488,22.4737508 62.3970175,22.1240399 C62.0323863,21.774329 61.9177581,21.2395955 62.1072896,20.7724766 C62.296821,20.3053577 62.752574,19.9993554 63.2592262,19.9990419 C63.9306421,19.9915524 64.4825127,20.5237293 64.4954365,21.1911377 L64.5021825,21.1911377 Z M69.4756944,17.6131737 C69.4578208,17.1097974 69.7490628,16.6460158 70.211822,16.4409444 C70.6745813,16.2358731 71.2162282,16.3305606 71.5808595,16.6802715 C71.9454907,17.0299824 72.0601189,17.5647159 71.8705874,18.0318348 C71.681056,18.4989537 71.2253029,18.8049559 70.7186508,18.8052695 C70.3937706,18.8124578 70.0793756,18.6907811 69.8448963,18.4671104 C69.6104169,18.2434396 69.4751431,17.9361755 69.4689484,17.6131737 L69.4756944,17.6131737 Z M63.2524802,7.47616766 C63.9098943,7.49913042 64.4263472,8.04367479 64.4107742,8.69746496 C64.3952012,9.35125514 63.8534001,9.87088626 63.1956295,9.86288714 C62.5378589,9.85488803 62.0090055,9.32223673 62.0095238,8.66826347 C62.022447,7.99820221 62.5784484,7.4649518 63.2524802,7.47616766 Z M61.4512897,10.302994 C61.7746337,10.631061 62.1833813,10.8632654 62.6318452,10.9736527 L62.6318452,14.7461078 L58.2654762,13.5808383 C58.2654762,13.5338922 58.2806548,13.4902994 58.2806548,13.4433533 C58.277684,13.0696853 58.1827231,12.7024244 58.0040675,12.3736527 L61.4512897,10.302994 Z M54.5500992,13.44 C54.5315273,12.9356697 54.8229009,12.4706636 55.2864238,12.2648925 C55.7499466,12.0591214 56.2927226,12.1538244 56.6580621,12.5042146 C57.0234017,12.8546048 57.1380859,13.3904594 56.9478785,13.8583621 C56.757671,14.3262648 56.3006918,14.6324418 55.7930556,14.6320958 C55.1193912,14.6423857 54.56394,14.109663 54.5500992,13.44 Z M55.7930556,27.1616766 C55.1373139,27.1369026 54.623404,26.5927162 54.6398616,25.9405434 C54.6563193,25.2883706 55.1970306,24.7704872 55.8531969,24.7784333 C56.5093632,24.7863794 57.0372251,25.317203 57.0376984,25.9695808 C57.0247786,26.6403081 56.4677407,27.1738287 55.7930556,27.1616766 Z M57.172619,23.9760479 C56.9381105,23.8280699 56.6805032,23.7198503 56.4103175,23.6558084 L56.4103175,15.7403593 C57.0120048,15.5934284 57.5366133,15.2279908 57.8809524,14.7159281 L62.6267857,15.9801198 L62.6267857,18.8907784 C61.5478559,19.1414066 60.7788705,20.0897601 60.7615079,21.1911377 C60.764559,21.3895032 60.7928934,21.5866839 60.8458333,21.7779641 L57.172619,23.9760479 Z M68.6138889,28.8534132 L58.2604167,26.0953293 C58.2604167,26.0483832 58.2755952,26.0031138 58.2755952,25.9561677 C58.2724197,25.5825263 58.1774713,25.2153136 57.9990079,24.8864671 L61.4462302,22.8191617 C61.9778419,23.3571574 62.724245,23.6295864 63.4797292,23.5613667 C64.2352134,23.493147 64.920028,23.0914799 65.3454365,22.4670659 L70.0895833,23.7312575 L70.0895833,27.8323353 C69.4876308,27.979686 68.9629824,28.3457495 68.6189484,28.8584431 L68.6138889,28.8534132 Z M70.7068452,31.3231138 C70.0496499,31.3001587 69.5332779,30.755955 69.5485379,30.1023753 C69.5637979,29.4487956 70.1050126,28.9289968 70.7625714,28.9363811 C71.4201303,28.9437655 71.9493961,29.4755857 71.9498016,30.1293413 C71.940548,30.8000454 71.3865643,31.3365336 70.7119048,31.3281437 L70.7068452,31.3231138 Z M72.0897817,28.1508982 C71.8594353,28.003473 71.6057036,27.8957715 71.3392857,27.8323353 L71.3392857,24.0598802 L75.7056548,25.2234731 C75.7056548,25.2704192 75.6904762,25.314012 75.6904762,25.3609581 C75.6931637,25.5600189 75.7220805,25.7578712 75.7764881,25.9494611 L72.0897817,28.1508982 Z M76.071627,24.0833533 L71.3392857,22.8241916 L71.3392857,19.9135329 C72.4142022,19.6589631 73.1782251,18.7115901 73.1944444,17.6131737 C73.191886,17.2394523 73.0968999,16.8720938 72.9178571,16.5434731 L76.3650794,14.4761677 C76.6880933,14.8046595 77.0969704,15.0369373 77.5456349,15.1468263 L77.5456349,23.0673054 C76.9454381,23.2145226 76.4218152,23.5784971 76.0766865,24.0883832 L76.071627,24.0833533 Z M78.1696429,26.5580838 C77.5124475,26.5351288 76.9960755,25.9909251 77.0113355,25.3373454 C77.0265955,24.6837657 77.5678102,24.1639669 78.2253691,24.1713512 C78.8829279,24.1787355 79.4121937,24.7105558 79.4125992,25.3643114 C79.3996738,26.0346337 78.8439523,26.5683652 78.1696429,26.5580838 Z" id="Shape" fill-rule="nonzero"></path>
                <path d="M67.3945437,36.5307784 C59.9064484,36.5307784 54.0222222,39.4548503 54.0222222,43.1786826 L54.0222222,47.1674251 C54.0222222,50.8895808 59.9064484,53.8136527 67.3945437,53.8136527 C74.8826389,53.8136527 80.7685516,50.8895808 80.7685516,47.1674251 L80.7685516,43.1786826 C80.7685516,39.4548503 74.8809524,36.5307784 67.3945437,36.5307784 Z M58.4813492,39.2134132 L59.2503968,38.8780838 C60.300432,38.4622357 61.385819,38.1407119 62.4935516,37.9173653 L63.3705357,37.7497006 C64.0046627,37.6440719 64.6607143,37.5619162 65.3319444,37.5049102 L65.8378968,37.468024 L65.9424603,37.468024 C66.2797619,37.4501397 66.6170635,37.4378443 66.9543651,37.4311377 L66.9543651,42.7444311 L54.9632937,42.7444311 C55.1909722,41.388024 56.4980159,40.1506587 58.4813492,39.2083832 L58.4813492,39.2134132 Z M61.3382937,43.6263473 L65.7873016,43.6263473 L63.0315476,45.302994 L61.3382937,43.6263473 Z M62.2506944,45.7858683 L60.8087302,46.6661078 L57.4121032,43.6263473 L60.0784722,43.6263473 L62.2506944,45.7858683 Z M56.0797619,43.6263473 L60.0160714,47.1473054 L59.3650794,47.542994 C57.690377,46.8807186 56.3850198,46.0222754 55.6328373,45.0582036 C55.2953164,44.6399547 55.063941,44.1471316 54.9582341,43.6213174 L56.0797619,43.6263473 Z M79.8763889,47.1724551 C79.8763889,50.2742515 74.1709325,52.9334132 67.3962302,52.9334132 C60.6215278,52.9334132 54.9160714,50.2742515 54.9160714,47.1724551 L54.9160714,45.6198802 C55.8554563,46.8388024 57.4947421,47.8749701 59.599504,48.6143713 L59.6231151,48.6227545 L59.8524802,48.7015569 L59.8845238,48.7116168 L60.1391865,48.7954491 L60.1661706,48.8038323 L60.3803571,48.8692216 L60.4764881,48.8977246 L60.6265873,48.9413174 L60.7378968,48.9731737 L60.88125,49.0117365 L61.0954365,49.0687425 L61.2168651,49.1005988 L61.3669643,49.137485 L61.4681548,49.1626347 L61.6266865,49.199521 L61.7126984,49.2196407 C61.9032738,49.2632335 62.0938492,49.3051497 62.2877976,49.3437126 L62.365377,49.3588024 L62.5441468,49.394012 L62.6234127,49.4074251 C62.8241071,49.4443114 63.0264881,49.479521 63.2305556,49.5113772 L63.3081349,49.5247904 L63.4885913,49.5516168 L63.5847222,49.5650299 L63.7634921,49.5901796 L63.8579365,49.6035928 L64.175,49.6421557 L64.2896825,49.6572455 L64.4583333,49.674012 L64.589881,49.6891018 L64.7450397,49.7041916 L64.8985119,49.7176048 L65.0368056,49.731018 L65.3100198,49.7528144 L65.4348214,49.7611976 L65.6169643,49.7729341 L65.7451389,49.7813174 L65.9407738,49.7930539 L66.0487103,49.7930539 L66.3472222,49.8064671 L66.4231151,49.8064671 L66.6609127,49.8148503 L66.7671627,49.8148503 L66.9897817,49.8148503 L67.8178571,49.8148503 L68.0404762,49.8148503 L68.1349206,49.8148503 L68.3727183,49.8064671 L68.4486111,49.8064671 L68.747123,49.7930539 L68.8550595,49.7930539 L69.0506944,49.7813174 L69.178869,49.7729341 L69.3610119,49.7611976 L69.4858135,49.7528144 L69.7590278,49.731018 L69.8973214,49.7176048 L70.0507937,49.7041916 L70.2059524,49.6891018 L70.3375,49.674012 L70.5061508,49.6572455 L70.6208333,49.6421557 L70.9378968,49.6035928 L71.0323413,49.5901796 L71.2111111,49.5650299 L71.3072421,49.5516168 L71.4876984,49.5247904 L71.5652778,49.5113772 C71.7693452,49.479521 71.9717262,49.4443114 72.1724206,49.4074251 L72.2516865,49.394012 L72.4304563,49.3588024 L72.5080357,49.3437126 C72.7019841,49.3051497 72.894246,49.2632335 73.0831349,49.2196407 L73.1691468,49.199521 L73.3276786,49.1626347 L73.428869,49.137485 L73.5789683,49.1005988 L73.7020833,49.0687425 L73.9145833,49.0117365 L74.0579365,48.9731737 L74.169246,48.9413174 L74.3210317,48.8977246 L74.4154762,48.8692216 L74.6296627,48.8021557 L74.6566468,48.8021557 L74.9113095,48.7183234 L74.9433532,48.7082635 L75.1727183,48.6294611 L75.1963294,48.6210778 C77.3010913,47.8816766 78.940377,46.845509 79.8797619,45.6265868 L79.8763889,47.1724551 Z M67.3962302,48.9446707 C65.0449623,48.9613248 62.7048398,48.6221113 60.45625,47.9386826 L67.6205357,43.5794012 L67.6458333,43.5576048 C67.7750982,43.4763175 67.8504561,43.3322458 67.8431548,43.1803593 L67.8431548,37.4210778 C74.4205357,37.5350898 79.8780754,40.1439521 79.8780754,43.1786826 C79.8763889,46.2754491 74.1709325,48.9396407 67.3945437,48.9396407 L67.3962302,48.9446707 Z" id="Shape" stroke="url(#linearGradient-1)" stroke-width="0.5" fill-rule="nonzero"></path>
                <path d="M83.1802579,1.70347305 C82.1385941,0.628014186 80.7001784,0.0223364564 79.1984127,0.0268263473 L5.8015873,0.0268263473 C4.29982161,0.0223364564 2.86140589,0.628014186 1.81974206,1.70347305 C0.749254203,2.81020969 0.1566732,4.28931836 0.168650794,5.82467066 L0.168650794,60.4347305 C0.157996487,61.9683464 0.750481528,63.4454106 1.81974206,64.5508982 C2.86140589,65.6263571 4.29982161,66.2320348 5.8015873,66.2275449 L32.2426587,66.2275449 L32.303373,66.9988024 C32.5327381,69.8776048 31.2796627,72.6507784 29.0366071,74.2368862 L26.452877,76.1499401 L26.4242063,76.1717365 L26.3938492,76.1918563 C26.2594475,76.2734064 26.1494029,76.3891749 26.0750992,76.5271856 L25.9064484,76.8222754 L25.5843254,76.9245509 C24.1305556,77.3839521 23.1894841,78.7286228 23.1894841,80.3499401 C23.1894841,82.3971257 24.6837302,83.9396407 26.6636905,83.9396407 L58.33125,83.9396407 C60.3112103,83.9396407 61.8054563,82.3971257 61.8054563,80.3499401 C61.8054563,78.6414371 60.7497024,77.2397605 59.1795635,76.8608383 L58.8169643,76.7736527 L58.6381944,76.4550898 C58.5776237,76.3398317 58.4951496,76.2373418 58.3953373,76.1532934 L55.8234127,74.2486228 C53.5989087,72.6759281 52.3964286,69.9731737 52.6089286,67.0172455 L52.6645833,66.2392814 L79.1984127,66.2392814 C80.7001784,66.2437713 82.1385941,65.6380936 83.1802579,64.5626347 C84.2523849,63.4542336 84.845094,61.9723975 84.8313492,60.4347305 L84.8313492,5.82467066 C84.8433268,4.28931836 84.2507458,2.81020969 83.1802579,1.70347305 Z M60.6130952,80.36 C60.6130952,81.7013174 59.6534722,82.6754491 58.33125,82.6754491 L26.66875,82.6754491 C25.3465278,82.6754491 24.3869048,81.7013174 24.3869048,80.36 C24.3869048,79.0186826 25.3465278,78.0462275 26.66875,78.0462275 L58.33125,78.0462275 C59.6534722,78.0462275 60.6130952,79.0203593 60.6130952,80.36 Z M54.9801587,75.2814371 L56.850496,76.7736527 L27.9083333,76.7736527 L29.9000992,75.2646707 C32.3168651,73.4371257 33.7335317,70.3135329 33.5986111,67.1111377 L33.5615079,66.2376048 L51.4772817,66.2376048 L51.3997024,67.1463473 C51.1450397,70.1525749 52.5465278,73.3449102 54.9801587,75.2814371 Z M83.6507937,60.4364072 C83.6507937,62.9765269 81.7011905,64.9633533 79.2102183,64.9633533 L5.8015873,64.9633533 C3.31061508,64.9633533 1.3610119,62.9748503 1.3610119,60.4364072 L1.3610119,58.1528144 L83.6389881,58.1528144 L83.6507937,60.4364072 Z M83.6507937,56.8785629 L1.3610119,56.8785629 L1.3610119,5.82467066 C1.3610119,3.28622754 3.31061508,1.29772455 5.8015873,1.29772455 L79.1984127,1.29772455 C81.6893849,1.29772455 83.6389881,3.28790419 83.6389881,5.82467066 L83.6507937,56.8785629 Z" id="Shape" stroke="url(#linearGradient-1)" stroke-width="0.5" fill-rule="nonzero"></path>
            </g>
        </g>
    </g>
</svg>