<?xml version="1.0" encoding="UTF-8"?>
<svg width="100px" height="88px" viewBox="0 0 100 88" version="1.1" xmlns="http://www.w3.org/2000/svg" xmlns:xlink="http://www.w3.org/1999/xlink">
    <!-- Generator: Sketch 52.4 (67378) - http://www.bohemiancoding.com/sketch -->
    <title>services-art</title>
    <desc>Created with Sketch.</desc>
    <defs>
        <linearGradient x1="100%" y1="50%" x2="-2.22044605e-14%" y2="50%" id="linearGradient-1">
            <stop stop-color="#00ABE5" offset="0%"></stop>
            <stop stop-color="#3062EF" offset="100%"></stop>
        </linearGradient>
    </defs>
    <g id="Page-1" stroke="none" stroke-width="1" fill="none" fill-rule="evenodd">
        <g id="services-art" fill="url(#linearGradient-1)">
            <g id="artificialintelligencev2-01" transform="translate(-0.000000, 0.000000)">
                <path d="M32.5052632,32.725 L28.8210526,32.725 C28.1091369,32.7261669 27.5326306,33.3063914 27.5326316,34.0217308 L27.5326316,37.565 C27.5337907,38.2795134 28.109958,38.8584507 28.8210526,38.8596154 L32.5052632,38.8596154 C33.2171798,38.8596163 33.7946281,38.2803384 33.7957895,37.565 L33.7957895,34.0217308 C33.7946304,33.3060491 33.2175205,32.7261647 32.5052632,32.725 Z M32.8610526,37.9605769 L28.4652632,37.9605769 L28.4652632,33.6346154 L32.8610526,33.6346154 L32.8610526,37.9605769 Z" id="Shape" fill-rule="nonzero"></path>
                <path d="M36.7515789,49.9928846 L47.3473684,60.8913462" id="Shape"></path>
                <path d="M39.5936842,23.2057692 L35.9094737,23.2057692 C35.1972163,23.2069339 34.6201065,23.7868183 34.6189474,24.5025 L34.6189474,28.0457692 C34.6201087,28.7611076 35.197557,29.3403856 35.9094737,29.3403846 L39.5936842,29.3403846 C40.3047788,29.33922 40.8809462,28.7602826 40.8821053,28.0457692 L40.8821053,24.5025 C40.8821062,23.7871607 40.3055999,23.2069362 39.5936842,23.2057692 Z M39.9494737,28.4413462 L35.5536842,28.4413462 L35.5536842,24.1153846 L39.9494737,24.1153846 L39.9494737,28.4413462 Z" id="Shape" fill-rule="nonzero"></path>
                <path d="M40.1957895,6.45192308 C39.5563019,6.45192308 39.0378947,5.9310236 39.0378947,5.28846154 L39.0378947,1.16346154 C39.0378947,0.520899474 39.5563019,1.18036736e-16 40.1957895,0 C40.8352771,-1.18036736e-16 41.3536842,0.520899474 41.3536842,1.16346154 L41.3536842,5.28846154 C41.3536842,5.9310236 40.8352771,6.45192308 40.1957895,6.45192308 Z" id="Shape"></path>
                <path d="M30.0610526,6.93846154 L28.9347368,2.97211538" id="Shape"></path>
                <path d="M30.3789474,8.0575 C30.0835785,8.14229203 29.7667822,8.1056741 29.4982898,7.95570634 C29.2297973,7.80573857 29.0316161,7.5547133 28.9473684,7.25788462 L27.8210526,3.29153846 C27.6633448,2.67955317 28.0208248,2.05301539 28.6261062,1.88056037 C29.2313875,1.70810534 29.8629594,2.05284533 30.0484211,2.65692308 L31.1747368,6.62326923 C31.3477644,7.23996689 30.9919938,7.88116297 30.3789474,8.0575 Z" id="Shape"></path>
                <path d="M21.4021053,12.3559615 C21.1464542,12.5296483 20.8323777,12.5936043 20.5296004,12.5336315 C20.226823,12.4736586 19.9603988,12.2947195 19.7894737,12.0365385 L17.5115789,8.60961538 C17.1612848,8.07585635 17.3052689,7.35808881 17.8339942,7.00236064 C18.3627195,6.64663246 19.078049,6.78625089 19.4357895,7.315 L21.72,10.7419231 C22.0757708,11.2758371 21.933447,11.9984538 21.4021053,12.3559615 Z" id="Shape"></path>
                <path d="M14.0652632,19.1928846 C13.8651878,19.4272649 13.5805919,19.5721134 13.2741657,19.5955233 C12.9677394,19.6189332 12.6646204,19.518984 12.4315789,19.3176923 L9.31789474,16.6311538 C8.98557512,16.3660813 8.82415848,15.939603 8.89719656,15.5196289 C8.97023464,15.0996548 9.26602812,14.7534568 9.6681194,14.6173374 C10.0702107,14.4812179 10.5141923,14.5769809 10.8252632,14.8669231 L13.9410526,17.5576923 C14.4227096,17.9758037 14.4781884,18.706165 14.0652632,19.1928846 Z" id="Shape"></path>
                <path d="M8.97263158,27.8025 C8.84327356,28.0825909 8.60823155,28.2993875 8.31945277,28.404975 C8.03067399,28.5105625 7.71193612,28.4962469 7.43368421,28.3651923 L3.71368421,26.6221154 C3.13233187,26.3504869 2.88019752,25.6567435 3.15052637,25.0725962 C3.42085521,24.4884489 4.11127922,24.2351023 4.69263158,24.5067308 L8.42105263,26.2561538 C8.99656734,26.5317282 9.24290287,27.2223274 8.97263158,27.8025 Z" id="Shape"></path>
                <path d="M6.62526316,37.2307692 C6.59013703,37.8717932 6.04658882,38.3640944 5.40842105,38.3328846 L1.30736842,38.1213462 C0.667880816,38.0874656 0.176807878,37.5391005 0.210526316,36.8965385 C0.244244753,36.2539764 0.789986079,35.7605425 1.42947368,35.7944231 L5.52842105,36.0059615 C6.16778079,36.0401112 6.65870184,36.5883066 6.62526316,37.2307692 Z" id="Shape"></path>
                <path d="M6.91157895,47.3846154 C6.97027176,47.6875812 6.90675032,48.0015655 6.7349956,48.2574607 C6.56324087,48.5133559 6.29732995,48.6901887 5.99578947,48.7490385 L1.96631579,49.5401923 C1.33845523,49.6628632 0.73050505,49.2508791 0.608421053,48.62 C0.486337055,47.9891209 0.896349969,47.3782479 1.52421053,47.2555769 L5.55368421,46.4665385 C6.18089321,46.3436319 6.78861876,46.754517 6.91157895,47.3846154 Z" id="Shape"></path>
                <path d="M10.1178947,56.8848077 C10.258265,57.1593443 10.2840994,57.4787342 10.1896929,57.7724442 C10.0952864,58.0661542 9.88840535,58.3100219 9.61473684,58.4501923 L5.96210526,60.3307692 C5.59202296,60.5378434 5.13894491,60.525333 4.78073883,60.2981494 C4.42253274,60.0709658 4.21637758,59.6653734 4.24320497,59.2405981 C4.27003236,58.8158228 4.52555996,58.4396697 4.90947368,58.2598077 L8.56421053,56.3792308 C9.13233703,56.0895885 9.82660456,56.3155067 10.1178947,56.8848077 Z" id="Shape"></path>
                <path d="M15.9810526,64.9761538 C16.4234866,65.4390175 16.409357,66.1744471 15.9494737,66.6198077 L13.0021053,69.4819231 C12.7062584,69.7809821 12.2725308,69.8957913 11.868446,69.7820064 C11.4643612,69.6682216 11.1531748,69.3436548 11.0550799,68.933667 C10.956985,68.5236793 11.0873373,68.0924503 11.3957895,67.8065385 L14.3431579,64.9444231 C14.5644828,64.7302671 14.8614449,64.6132843 15.1686494,64.6192357 C15.4758538,64.6251871 15.7681076,64.7535848 15.9810526,64.9761538 Z" id="Shape"></path>
                <path d="M83.96,34.2121154 C84.223149,33.1139958 83.6811236,31.9814103 82.6631579,31.5023077 L78.9726316,29.7761538 L78.9726316,29.6513462 C78.9281384,28.9937272 78.838806,28.3399493 78.7052632,27.6946154 C78.6366636,27.3616514 78.3124235,27.1476091 77.9810526,27.2165385 C77.6496818,27.2854678 77.4366636,27.6112668 77.5052632,27.9442308 C77.6581824,28.6869219 77.7483281,29.4412758 77.7747368,30.1992308 C77.7825115,30.4309714 77.9192245,30.6386622 78.1284211,30.7365385 L82.1536842,32.6192308 C82.6462907,32.8457912 82.9108026,33.3906476 82.7852632,33.9201923 L82.2252632,36.2471154 C82.0958328,36.7741892 81.6156759,37.1373637 81.0757895,37.1165385 L76.6315789,36.9261538 C76.4005731,36.91619 76.1837863,37.038207 76.0715789,37.2413462 C75.5512187,38.1731949 74.9214537,39.0389349 74.1957895,39.82 C74.0367541,39.9899923 73.9870292,40.2357163 74.0673684,40.4546154 L75.5789474,44.6346154 C75.762531,45.1452471 75.5637777,45.7152128 75.1031579,45.9990385 L73.0736842,47.2407692 C72.6095735,47.5191808 72.014539,47.4307348 71.6505263,47.0292308 L68.6442105,43.7673077 C68.4886501,43.5955242 68.2498805,43.5267424 68.0273684,43.5896154 C67.0031805,43.8802871 65.9478405,44.045777 64.8842105,44.0825 C64.6535787,44.090312 64.4468816,44.2276823 64.3494737,44.4378846 L62.4757895,48.4825 C62.250313,48.9774747 61.7080636,49.2432583 61.1810526,49.1171154 L58.8652632,48.5544231 C58.3415106,48.4245292 57.9802937,47.9432404 58,47.4015385 L58.1894737,42.9423077 C58.1984026,42.7104286 58.0772395,42.4930841 57.8757895,42.3796154 C56.9483993,41.8567534 56.0868016,41.2239607 55.3094737,40.4948077 C55.1398284,40.3359156 54.895823,40.2860627 54.6778947,40.3657692 L50.5094737,41.8846154 C50.0012813,42.0682163 49.4345871,41.868699 49.1515789,41.4065385 L47.9157895,39.3673077 C47.63871,38.9009657 47.7267329,38.3030704 48.1263158,37.9373077 L51.3936842,34.9144231 C51.5638871,34.757644 51.6315051,34.5177969 51.5684211,34.2946154 C51.2801744,33.2652767 51.1154959,32.204989 51.0778947,31.1363462 C51.0701201,30.9046055 50.9334071,30.6969147 50.7242105,30.5990385 L46.6989474,28.7163462 C46.2069519,28.489157 45.9426982,27.9448325 46.0673684,27.4153846 L46.6273684,25.0884615 C46.7589404,24.5628126 47.2377259,24.2006754 47.7768421,24.2190385 L52.2126316,24.4030769 C52.4435191,24.4125424 52.6600632,24.290662 52.7726316,24.0878846 C53.2929919,23.1560359 53.9227568,22.2902959 54.6484211,21.5092308 C54.8074565,21.3392385 54.8571813,21.0935145 54.7768421,20.8746154 L53.2631579,16.6946154 C53.0804355,16.1839798 53.2789981,15.6145611 53.7389474,15.3301923 L55.7684211,14.0884615 C56.2325317,13.81005 56.8275663,13.898496 57.1915789,14.3 L60.1894737,17.5725 C60.3457021,17.7431985 60.5846018,17.8103792 60.8063158,17.7459615 C61.8308075,17.4570048 62.8860253,17.2922443 63.9494737,17.2551923 C64.1801055,17.2473803 64.3868026,17.11001 64.4842105,16.8998077 L66.3578947,12.8551923 C66.5833712,12.3602176 67.1256206,12.094434 67.6526316,12.2205769 L69.9684211,12.7832692 C70.4917007,12.9138824 70.8525722,13.3947109 70.8336842,13.9361538 L70.6442105,18.4038462 C70.6352816,18.6357253 70.7564447,18.8530698 70.9578947,18.9665385 C71.6320225,19.3459187 72.2716748,19.7840776 72.8694737,20.2759615 C73.131895,20.4907397 73.5177336,20.4519704 73.7326316,20.1892308 C73.9461558,19.9262394 73.9075438,19.5392098 73.6463158,19.3240385 C73.1251288,18.8937531 72.5750541,18.5000643 72,18.1457692 L71.8926316,18.0823077 L72.0589474,13.9953846 C72.1021965,12.8676647 71.349857,11.8650276 70.2589474,11.5965385 L67.9431579,11.0317308 C66.8504759,10.7690434 65.7243539,11.31317 65.2463158,12.3348077 L63.5284211,16.0430769 L63.4042105,16.0430769 C62.580129,16.100712 61.762434,16.2288036 60.96,16.4259615 L60.84,16.4555769 L58.0821053,13.4475 C57.3203963,12.6168234 56.0819077,12.4399303 55.12,13.0244231 L53.0905263,14.2661538 C52.132913,14.8562849 51.7196126,16.0411795 52.1010526,17.1028846 L53.4968421,20.9444231 L53.4147368,21.0396154 C52.8721797,21.6661285 52.3834148,22.337696 51.9536842,23.0471154 L51.8905263,23.1528846 L47.8231579,22.9857692 C46.7005743,22.9414801 45.7022692,23.6977892 45.4357895,24.7944231 L44.8736842,27.1213462 C44.6125073,28.2186919 45.1541021,29.3494942 46.1705263,29.8290385 L49.8610526,31.5551923 L49.8610526,31.68 C49.9184119,32.5080435 50.0458907,33.3296697 50.2421053,34.1359615 L50.2715789,34.2565385 L47.2778947,37.0276923 C46.4511927,37.7930633 46.2751459,39.0375062 46.8568421,40.0040385 L48.0926316,42.0432692 C48.6793961,43.0061624 49.8591685,43.4216426 50.9157895,43.0375 L54.7389474,41.635 L54.8336842,41.7175 C55.4571996,42.2626656 56.1255539,42.7537803 56.8315789,43.1855769 L56.9368421,43.2490385 L56.7705263,47.3359615 C56.7272772,48.4636815 57.4796167,49.4663186 58.5705263,49.7348077 L60.8863158,50.2996154 C61.9784111,50.5620479 63.1038029,50.0178493 63.5810526,48.9965385 L65.2989474,45.2882692 L65.4231579,45.2882692 C66.2472394,45.2306342 67.0649344,45.1025426 67.8673684,44.9053846 L67.9873684,44.8778846 L70.7452632,47.8838462 C71.5069721,48.7145228 72.7454607,48.8914159 73.7073684,48.3069231 L75.7368421,47.0651923 C76.6951281,46.4756068 77.1086203,45.2901624 76.7263158,44.2284615 L75.3326316,40.3869231 L75.4126316,40.2917308 C75.9551887,39.6652177 76.4439536,38.9936502 76.8736842,38.2842308 L76.9368421,38.1784615 L81.0042105,38.3455769 C82.1265347,38.3890339 83.1243744,37.6330774 83.3915789,36.5369231 L83.96,34.2121154 Z" id="Shape"></path>
                <path d="M59.8694737,37.1884615 C59.8248379,37.1881476 59.7803207,37.1931178 59.7368421,37.2032692 C59.577468,37.2365974 59.438412,37.3335647 59.3515789,37.4719231 C59.1731199,37.7575036 59.2555794,38.1341215 59.5368421,38.3180769 C62.8583788,40.4435808 67.1663932,40.1676834 70.1924961,37.6356587 C73.218599,35.1036341 74.2685409,30.8963802 72.7894737,27.2292308 C72.6507737,26.9325559 72.3050378,26.7971219 72.0030966,26.9211859 C71.7011554,27.0452499 71.5489223,27.3852933 71.6568421,27.6946154 C72.9414403,30.8659598 72.0353208,34.5080157 69.4166382,36.6988897 C66.7979555,38.8897636 63.069151,39.1254339 60.1978947,37.2815385 C60.0994505,37.2197781 59.9855265,37.1874912 59.8694737,37.1884615 Z" id="Shape"></path>
                <path d="M64.4084211,21.5769231 C61.1618917,21.5836642 58.1675354,23.3367478 56.5608323,26.1713925 C54.9541292,29.0060372 54.9811236,32.4881567 56.6315789,35.2973077 C56.7151167,35.4378059 56.8508973,35.539094 57.008914,35.5787881 C57.1669307,35.6184822 57.3341739,35.5933142 57.4736842,35.5088462 C57.6133867,35.4260207 57.7142351,35.2904017 57.7536842,35.1323077 C57.7960777,34.974039 57.7725145,34.8052486 57.6884211,34.6648077 C55.7515983,31.3534962 56.4813669,27.120515 59.4138148,24.65676 C62.3462626,22.1930049 66.6216423,22.2208102 69.5221053,24.7225 C69.7787201,24.9443354 70.1655325,24.9159651 70.3873684,24.6590385 C70.6073921,24.4013277 70.5781915,24.0132699 70.3221053,23.7917308 C68.6772649,22.367698 66.5795921,21.5820724 64.4084211,21.5769231 Z" id="Shape"></path>
                <path d="M65.6021053,25.7717308 C63.6311824,25.2903162 61.5657228,26.0492984 60.3688861,27.6947508 C59.1720494,29.3402032 59.0795441,31.5480658 60.134507,33.2887737 C61.18947,35.0294816 63.1841337,35.960215 65.1883519,35.6469567 C67.19257,35.3336984 68.8116262,33.8381423 69.2905263,31.8576923 C69.9406679,29.1542819 68.2908674,26.4320813 65.6021053,25.7717308 Z M68.4926316,31.6630769 C68.0965939,33.3304176 66.7384216,34.5928591 65.0532948,34.859992 C63.3681679,35.1271249 61.6891576,34.3461495 60.8014911,32.8823066 C59.9138245,31.4184638 59.9929521,29.561087 61.001868,28.1788207 C62.0107838,26.7965544 63.7500724,26.1626083 65.4063158,26.5734615 C67.6560029,27.1243603 69.0369103,29.4016021 68.4926316,31.6630769 Z" id="Shape" fill-rule="nonzero"></path>
                <path d="M99.8989474,19.2267308 C100.087284,18.4553007 99.7062922,17.6577513 98.9894737,17.3228846 L96.6315789,16.2207692 L96.6168421,16.0367308 C96.5761803,15.5952813 96.5058443,15.1571015 96.4063158,14.7251923 L96.3663158,14.5475 L98.2863158,12.7684615 C98.8651632,12.2307578 98.9874858,11.3580035 98.5789474,10.6805769 L97.7663158,9.34153846 C97.3550954,8.66521482 96.5268036,8.37334402 95.7852632,8.64346154 L93.3326316,9.5425 L93.1936842,9.42403846 C92.8556759,9.13950009 92.4990891,8.87801801 92.1263158,8.64134615 L91.9726316,8.54403846 L92.0778947,5.92307692 C92.1126235,5.12839468 91.5837056,4.41978038 90.8147368,4.23076923 L89.2968421,3.86057692 C88.529103,3.6713346 87.7353697,4.05415828 87.4021053,4.77442308 L86.2989474,7.15211538 L86.1178947,7.16692308 C85.6785575,7.2077804 85.2424742,7.27845457 84.8126316,7.37846154 L84.6336842,7.41865385 L82.8694737,5.5 C82.3343427,4.91836971 81.4657643,4.79545903 80.7915789,5.20596154 L79.4589474,6.0225 C78.7858597,6.43569738 78.4953854,7.26797138 78.7642105,8.01307692 L79.6589474,10.4775 L79.5410526,10.6171154 C79.2574049,10.9563784 78.9971501,11.3147123 78.7621053,11.6896154 L78.6652632,11.8440385 L76.0568421,11.7382692 C75.2690249,11.7132221 74.5692902,12.2405462 74.3726316,13.0075 L74.0042105,14.5326923 C73.8158737,15.3041224 74.1968657,16.1016718 74.9136842,16.4365385 L77.28,17.545 L77.2947368,17.7269231 C77.3353987,18.1683725 77.4057347,18.6065524 77.5052632,19.0384615 L77.5452632,19.2182692 L75.6252632,20.9951923 C75.0464158,21.5328961 74.9240932,22.4056503 75.3326316,23.0830769 L76.1452632,24.4221154 C76.5564835,25.098439 77.3847753,25.3903098 78.1263158,25.1201923 L80.5789474,24.2211538 L80.7178947,24.3396154 C81.1824608,24.7313916 81.6821384,25.0790943 82.2105263,25.3782692 C82.3898533,25.4773469 82.6107758,25.4589912 82.771471,25.3316623 C82.9321663,25.2043333 83.0014417,24.9927471 82.9473684,24.7944231 C82.9105963,24.6644596 82.8243783,24.5542691 82.7073684,24.4876923 C82.1079239,24.1432546 81.5522849,23.7270079 81.0526316,23.2480769 C80.9129133,23.1173132 80.7119634,23.0764395 80.5326316,23.1423077 L77.7957895,24.1471154 C77.5093124,24.2561561 77.1862659,24.1429029 77.0294737,23.8784615 L76.2105263,22.5373077 C76.0488577,22.2768903 76.0958382,21.9375393 76.3221053,21.7313462 L78.4694737,19.7428846 C78.6109791,19.6130752 78.667234,19.4140076 78.6147368,19.2288462 C78.4269143,18.5609537 78.3201743,17.8726868 78.2968421,17.1790385 C78.2901772,16.987456 78.1771172,16.8158249 78.0042105,16.7348077 L75.3578947,15.4973077 C75.0792527,15.3704675 74.9311308,15.0612137 75.0063158,14.7632692 L75.3684211,13.2380769 C75.4374572,12.9380927 75.7108359,12.7311812 76.0168421,12.7473077 L78.9326316,12.8678846 C79.123684,12.8766492 79.3031635,12.7758215 79.3957895,12.6076923 C79.7336642,12.0020658 80.1429293,11.4395505 80.6147368,10.9323077 C80.7453263,10.7921512 80.7860593,10.589963 80.72,10.4098077 L79.72,7.65980769 C79.6118552,7.37144287 79.7255072,7.04669112 79.9894737,6.88980769 L81.3221053,6.07326923 C81.5833094,5.91536334 81.9189059,5.96303175 82.1263158,6.1875 L84.1031579,8.34307692 C84.2323462,8.4852626 84.4304614,8.54178798 84.6147368,8.48903846 C85.2794337,8.30031291 85.9644074,8.19305977 86.6547368,8.16961538 C86.8458685,8.16439042 87.0173791,8.05032094 87.0968421,7.87557692 L88.3284211,5.21653846 C88.4549024,4.94024492 88.7586749,4.79295226 89.0526316,4.86538462 L90.5705263,5.23557692 C90.8666421,5.30867943 91.070753,5.58095703 91.0589474,5.88711538 L90.9473684,8.81057692 C90.9391454,9.00242889 91.0393537,9.18252485 91.2063158,9.27596154 C91.80889,9.61570227 92.3686862,10.0269147 92.8736842,10.5007692 C93.0134025,10.6315329 93.2143524,10.6724066 93.3936842,10.6065385 L96.1305263,9.60173077 C96.4175488,9.49840577 96.737354,9.61140543 96.8968421,9.8725 L97.7094737,11.2115385 C97.8718252,11.4729135 97.8238818,11.8136993 97.5957895,12.0196154 L95.4505263,14.0059615 C95.3090209,14.135771 95.252766,14.3348386 95.3052632,14.52 C95.4927643,15.187963 95.5994981,15.8761905 95.6231579,16.5698077 C95.6293401,16.7615451 95.7425522,16.9334072 95.9157895,17.0140385 L98.5621053,18.2515385 C98.8407473,18.3783786 98.9888692,18.6876325 98.9136842,18.9855769 L98.5452632,20.5192308 C98.4682978,20.8137226 98.1974819,21.0145086 97.8947368,21.0015385 L94.9789474,20.8809615 C94.7883647,20.8741718 94.6098437,20.9744611 94.5157895,21.1411538 C94.1784533,21.7471279 93.7691425,22.3097058 93.2968421,22.8165385 C93.1667041,22.9569284 93.1260259,23.1588445 93.1915789,23.3390385 L94.1915789,26.0890385 C94.2985452,26.3767982 94.1850449,26.7002255 93.9221053,26.8569231 L92.5894737,27.6734615 C92.3285771,27.8310511 91.9936072,27.7843528 91.7852632,27.5613462 L89.8084211,25.4036538 C89.6786994,25.2623373 89.4811167,25.2059639 89.2968421,25.2576923 C88.6321453,25.4464179 87.9471716,25.553671 87.2568421,25.5771154 C87.0661763,25.5838124 86.8953664,25.6974158 86.8147368,25.8711538 L85.5831579,28.5301923 C85.4569246,28.810174 85.1491504,28.959008 84.8526316,28.8834615 L83.3347368,28.5132692 C83.036188,28.4439012 82.8302664,28.1692082 82.8463158,27.8617308 L82.8463158,27.6819231 C82.8512477,27.5468463 82.8028129,27.4152915 82.7115789,27.3159615 C82.6201898,27.2162105 82.4927565,27.1575228 82.3578947,27.1530769 C82.0788321,27.1435193 81.8441089,27.3614463 81.8315789,27.6417308 L81.8315789,27.8215385 C81.7976854,28.615961 82.32625,29.3241021 83.0947368,29.5138462 L84.6126316,29.8840385 C85.380189,30.0715322 86.1728598,29.689221 86.5073684,28.9701923 L87.6105263,26.5903846 L87.7915789,26.5755769 C88.2310266,26.5355979 88.6671695,26.4649141 89.0968421,26.3640385 L89.2757895,26.3238462 L91.0442105,28.2530769 C91.5793415,28.8347072 92.4479199,28.9576179 93.1221053,28.5471154 L94.4547368,27.7305769 C95.1278245,27.3173795 95.4182988,26.4851055 95.1494737,25.74 L94.2547368,23.2755769 L94.3726316,23.1359615 C94.656807,22.7971143 94.917089,22.4387428 95.1515789,22.0634615 L95.2484211,21.9090385 L97.8568421,22.0169231 C98.6466919,22.0484825 99.3500468,21.5184302 99.5410526,20.7476923 L99.8989474,19.2267308 Z" id="Shape"></path>
                <path d="M91.2315789,17.9194231 C90.810365,19.6570099 89.3888337,20.9684818 87.6299682,21.2421856 C85.8711027,21.5158895 84.1213629,20.6979114 83.196804,19.1697455 C82.2722452,17.6415795 82.3549861,15.7042425 83.4064375,14.2612826 C84.4578889,12.8183226 86.2709369,12.1539728 88,12.5780769 C88.3290454,12.6581051 88.5312242,12.9910072 88.4515789,13.3216346 C88.3719336,13.652262 88.0406244,13.8554128 87.7115789,13.7753846 C86.0084806,13.3611754 84.2932029,14.4108121 83.8778947,16.1213462 C83.5503176,17.475258 84.1351599,18.886151 85.3223897,19.6060941 C86.5096195,20.3260372 88.0245132,20.1884362 89.0640076,19.2662352 C90.1035021,18.3440341 90.4270593,16.8506293 89.8631579,15.5776923 C89.725698,15.2675014 89.8641664,14.9040491 90.1726316,14.7653846 C90.4813383,14.6272639 90.8430516,14.766398 90.9810526,15.0763462 C91.3780679,15.9693681 91.4662593,16.9702008 91.2315789,17.9194231 Z" id="Shape"></path>
                <path d="M45.4,40.3678846 L45.4,36.8246154 C45.4000009,36.1092761 44.8234947,35.5290516 44.1115789,35.5278846 L40.4210526,35.5278846 C39.7087953,35.5290493 39.1316854,36.1089337 39.1305263,36.8246154 L39.1305263,40.3678846 C39.1282834,40.7132627 39.2632583,41.0452692 39.5055225,41.2902866 C39.7477866,41.5353039 40.0773197,41.6730843 40.4210526,41.6730769 L41.4378947,41.6730769 L41.4378947,50.3461538 C41.4390512,50.7592479 41.7720404,51.093838 42.1831579,51.095 L42.3410526,51.095 C42.7521701,51.093838 43.0851593,50.7592479 43.0863158,50.3461538 L43.0863158,41.6730769 L44.1052632,41.6730769 C44.4497252,41.6742136 44.7803442,41.5369313 45.0235213,41.2917905 C45.2666984,41.0466497 45.4022496,40.7139973 45.4,40.3678846 Z M40.0715789,40.7634615 L40.0715789,36.4269231 L44.4652632,36.4269231 L44.4652632,40.7634615 L40.0715789,40.7634615 Z" id="Shape" fill-rule="nonzero"></path>
                <path d="M68.3957895,49.06 L67.2273684,47.7907692 C65.2745032,55.4488877 60.0043341,61.8221307 52.8694737,65.1538462 L52.2694737,65.4373077 L52.2694737,57.3734615 L53.3747368,57.3734615 C54.0858315,57.3722969 54.6619988,56.7933595 54.6631579,56.0788462 L54.6631579,52.5355769 C54.6631588,51.8202376 54.0866526,51.2400131 53.3747368,51.2388462 L49.6842105,51.2388462 C48.9719532,51.2400108 48.3948433,51.8198953 48.3936842,52.5355769 L48.3936842,56.0788462 C48.3948456,56.7941845 48.9722939,57.3734625 49.6842105,57.3734615 L50.7894737,57.3734615 L50.7894737,72.8665385 L48.12,72.8665385 L48.12,61.1705769 C48.1195905,61.1090825 48.1110959,61.0479121 48.0947368,60.9886538 L48.0821053,60.9378846 L48.0821053,60.885 C48.0806087,60.6940152 48.0050886,60.5111366 47.8715789,60.3751923 L37.36,49.5613462 L38.2231579,48.7025 C38.7276276,48.1987519 38.7323313,47.3801446 38.2336842,46.8705769 L35.7515789,44.3511538 C35.5113949,44.1069822 35.1837757,43.9698179 34.8421053,43.9703846 C34.5024242,43.9683776 34.1759255,44.1023452 33.9347368,44.3426923 L31.3157895,46.9467308 C30.8165344,47.4543415 30.8165344,48.2710431 31.3157895,48.7786538 L33.7957895,51.2959615 C34.2995507,51.8010803 35.1151861,51.8010803 35.6189474,51.2959615 L36.3263158,50.5915385 L46.4842105,61.0394231 L46.4842105,72.8559615 L43.0673684,72.8559615 L43.0673684,60.7115385 C43.0673701,60.2976186 42.734043,59.9617429 42.3221053,59.9605769 L42.1642105,59.9605769 C41.9661891,59.9605761 41.7763088,60.0397625 41.6364842,60.1806563 C41.4966595,60.32155 41.418388,60.5125658 41.4189474,60.7115385 L41.4189474,72.8665385 L36.7115789,72.8665385 L36.7115789,61.655 L37.8168421,61.655 C38.5287588,61.655001 39.1062071,61.075723 39.1073684,60.3603846 L39.1073684,56.815 C39.1062093,56.0993183 38.5290994,55.5194339 37.8168421,55.5182692 L34.1326316,55.5182692 C33.4207159,55.5194362 32.8442096,56.0996607 32.8442105,56.815 L32.8442105,60.3582692 C32.8453696,61.0727826 33.4215369,61.65172 34.1326316,61.6528846 L35.2378947,61.6528846 L35.2378947,72.8644231 L32.3326316,72.8644231 L32.3326316,66 L31.8673684,65.8138462 C18.5722955,60.5869906 11.7936725,45.7114703 16.5421758,32.1830905 C21.2906791,18.6547108 35.8569091,11.3435129 49.4736842,15.6538462 C49.5428109,15.1615777 49.6847276,14.6824452 49.8947368,14.2323077 C47.2081295,13.3903478 44.4100368,12.9624109 41.5957895,12.9630769 C26.1831579,12.9630769 13.6421053,25.5623077 13.6421053,41.0511538 C13.6438546,52.2958644 20.3162602,62.4570235 30.6042105,66.8821154 L30.8589474,66.9921154 L30.8589474,72.8453846 L30.5389474,72.9257692 C29.2770896,73.2333204 28.3903922,74.371089 28.3957895,75.6757692 L28.3957895,77.4315385 C28.3981082,78.9902457 29.6550664,80.253247 31.2063158,80.2555769 L33.4736842,80.2555769 L33.4736842,84.9390385 C33.4748453,86.528604 34.7569874,87.8169103 36.3389474,87.8180769 L46.8463158,87.8180769 C48.4274535,87.8157444 49.7083145,86.5277791 49.7094737,84.9390385 L49.7094737,80.2598077 L51.9810526,80.2598077 C53.532302,80.2574778 54.7892602,78.9944765 54.7915789,77.4357692 L54.7915789,75.68 C54.7972101,74.3759412 53.9115475,73.2383829 52.6505263,72.93 L52.3284211,72.8496154 L52.3284211,67.0026923 L52.5852632,66.8926923 C60.22921,63.6034777 66.0213808,57.068748 68.3915789,49.06 L68.3957895,49.06 Z M34.7242105,50.9173077 L31.6884211,47.8351923 L34.8126316,44.7298077 L37.8484211,47.8076923 L34.7242105,50.9173077 Z M49.3347368,56.4807692 L49.3347368,52.1442308 L53.7284211,52.1442308 L53.7284211,56.4807692 L49.3347368,56.4807692 Z M33.7768421,60.7601923 L33.7768421,56.4173077 L38.1726316,56.4173077 L38.1726316,60.7538462 L33.7768421,60.7601923 Z M48.24,84.9496154 C48.2388445,85.7205515 47.6177711,86.3455564 46.8505263,86.3478846 L36.3431579,86.3478846 C35.5750908,86.3467197 34.9527383,85.7213751 34.9515789,84.9496154 L34.9515789,83.8284615 L48.24,83.8284615 L48.24,84.9496154 Z M48.24,82.5169231 L34.9473684,82.5169231 L34.9473684,80.2407692 L48.2357895,80.2407692 L48.24,82.5169231 Z M53.3221053,75.6863462 L53.3221053,77.4421154 C53.3209461,78.1834995 52.7231,78.7842198 51.9852632,78.7853846 L31.2063158,78.7853846 C30.468479,78.7842198 29.8706329,78.1834995 29.8694737,77.4421154 L29.8694737,75.6863462 C29.8706329,74.944962 30.468479,74.3442417 31.2063158,74.3430769 L51.9852632,74.3430769 C52.720646,74.3442241 53.3174811,74.9410954 53.3221053,75.68 L53.3221053,75.6863462 Z" id="Shape" fill-rule="nonzero"></path>
            </g>
        </g>
    </g>
</svg>