<?xml version="1.0" encoding="UTF-8"?>
<svg width="98px" height="81px" viewBox="0 0 98 81" version="1.1" xmlns="http://www.w3.org/2000/svg" xmlns:xlink="http://www.w3.org/1999/xlink">
    <!-- Generator: Sketch 52.4 (67378) - http://www.bohemiancoding.com/sketch -->
    <title>services-digital</title>
    <desc>Created with Sketch.</desc>
    <defs>
        <linearGradient x1="100%" y1="50%" x2="-2.22044605e-14%" y2="50%" id="linearGradient-1">
            <stop stop-color="#00ABE5" offset="0%"></stop>
            <stop stop-color="#3062EF" offset="100%"></stop>
        </linearGradient>
    </defs>
    <g id="Page-1" stroke="none" stroke-width="1" fill="none" fill-rule="evenodd">
        <g id="services-digital" fill="url(#linearGradient-1)">
            <g id="digitaltransformation" transform="translate(0.000000, 0.000000)">
                <g id="Document" transform="translate(49.000000, 40.500000) scale(-1, 1) rotate(-180.000000) translate(-49.000000, -40.500000) translate(0.000000, -0.000000)">
                    <g id="Spread" transform="translate(0.000000, 0.131441)">
                        <g id="Layer_1_1_">
                            <g id="Group">
                                <path d="M12.5487805,41.3617647 L40.9926829,41.3617647 C41.4707317,41.3617647 41.9487805,41 41.9487805,40.3970588 C41.9487805,39.9147059 41.5902439,39.4323529 40.9926829,39.4323529 L12.5487805,39.4323529 C12.6682927,40.1558824 12.6682927,40.7588235 12.5487805,41.3617647 Z" id="Shape"></path>
                                <path d="M29.6390244,54.5058824 L23.5439024,62.1029412 C23.902439,62.3441176 24.3804878,62.5852941 24.7390244,62.9470588 C24.8585366,63.0676471 24.8585366,63.0676471 24.9780488,63.1882353 L30.8341463,55.9529412 L40.8731707,55.9529412 C41.3512195,55.9529412 41.8292683,55.5911765 41.8292683,54.9882353 C41.8292683,54.5058824 41.4707317,54.0235294 40.8731707,54.0235294 L30.4756098,54.0235294 C30.1170732,54.1441176 29.8780488,54.2647059 29.6390244,54.5058824 Z" id="Shape"></path>
                                <path d="M12.5487805,24.1176471 L16.9707317,24.1176471 L23.304878,32.8 C23.4243902,33.0411765 23.7829268,33.1617647 24.0219512,33.1617647 L57.9634146,33.1617647 C58.4414634,33.1617647 58.9195122,32.8 58.9195122,32.1970588 L58.9195122,28.7 L73.8585366,40.3970588 L58.8,50.5264706 L58.8,46.9088235 C58.8,46.4264706 58.4414634,45.9441176 57.8439024,45.9441176 L38.4829268,45.9441176 C38.004878,45.9441176 37.5268293,46.3058824 37.5268293,46.9088235 C37.5268293,47.3911765 37.8853659,47.8735294 38.4829268,47.8735294 L57.0073171,47.8735294 L57.0073171,52.2147059 C57.0073171,52.9382353 57.8439024,53.4205882 58.4414634,52.9382353 L76.0097561,41.2411765 C76.4878049,40.8794118 76.4878049,40.1558824 76.0097561,39.7941176 L58.5609756,26.1676471 C57.9634146,25.6852941 57.1268293,26.1676471 57.1268293,26.8911765 L57.1268293,31.3529412 L24.5,31.3529412 L18.1658537,22.6705882 C18.0463415,22.4294118 17.6878049,22.3088235 17.4487805,22.3088235 L12.6682927,22.3088235 C12.6682927,22.9117647 12.6682927,23.5147059 12.5487805,24.1176471 Z" id="Shape"></path>
                                <path d="M24.7390244,16.2794118 C24.3804878,16.6411765 24.0219512,16.8823529 23.5439024,17.1235294 L29.6390244,24.7205882 C29.7585366,24.9617647 30.1170732,25.0823529 30.3560976,25.0823529 L40.7536585,25.0823529 C41.2317073,25.0823529 41.7097561,24.7205882 41.7097561,24.1176471 C41.7097561,23.6352941 41.3512195,23.1529412 40.7536585,23.1529412 L30.7146341,23.1529412 L24.8585366,15.9176471 C24.8585366,16.1588235 24.7390244,16.1588235 24.7390244,16.2794118 Z" id="Shape"></path>
                                <path d="M43.9804878,55.1088235 C43.9804878,55.5911765 44.3390244,56.0735294 44.9365854,56.0735294 L47.0878049,56.0735294 C47.5658537,56.0735294 48.0439024,55.7117647 48.0439024,55.1088235 C48.0439024,54.6264706 47.6853659,54.1441176 47.0878049,54.1441176 L44.9365854,54.1441176 C44.3390244,54.1441176 43.9804878,54.6264706 43.9804878,55.1088235 Z" id="Shape"></path>
                                <path d="M29.997561,47.0294118 C29.997561,47.5117647 30.3560976,47.9941176 30.9536585,47.9941176 L33.104878,47.9941176 C33.5829268,47.9941176 34.0609756,47.6323529 34.0609756,47.0294118 C34.0609756,46.5470588 33.702439,46.0647059 33.104878,46.0647059 L30.9536585,46.0647059 C30.3560976,46.0647059 29.997561,46.4264706 29.997561,47.0294118 Z" id="Shape"></path>
                                <path d="M44.4585366,40.3970588 C44.4585366,40.8794118 44.8170732,41.3617647 45.4146341,41.3617647 L47.5658537,41.3617647 C48.0439024,41.3617647 48.5219512,41 48.5219512,40.3970588 C48.5219512,39.9147059 48.1634146,39.4323529 47.5658537,39.4323529 L45.4146341,39.4323529 C44.8170732,39.5529412 44.4585366,39.9147059 44.4585366,40.3970588 Z" id="Shape"></path>
                                <path d="M49.8365854,40.3970588 C49.8365854,40.8794118 50.195122,41.3617647 50.7926829,41.3617647 L52.9439024,41.3617647 C53.4219512,41.3617647 53.9,41 53.9,40.3970588 C53.9,39.9147059 53.5414634,39.4323529 52.9439024,39.4323529 L50.7926829,39.4323529 C50.195122,39.5529412 49.8365854,39.9147059 49.8365854,40.3970588 Z" id="Shape"></path>
                                <path d="M43.9804878,24.2382353 C43.9804878,24.7205882 44.3390244,25.2029412 44.9365854,25.2029412 L47.0878049,25.2029412 C47.5658537,25.2029412 48.0439024,24.8411765 48.0439024,24.2382353 C48.0439024,23.7558824 47.6853659,23.2735294 47.0878049,23.2735294 L44.9365854,23.2735294 C44.3390244,23.3941176 43.9804878,23.7558824 43.9804878,24.2382353 Z" id="Shape"></path>
                                <path d="M68.7195122,10.8529412 C68.4804878,11.3352941 68.7195122,11.8176471 69.197561,12.0588235 C80.4317073,16.5205882 88.4390244,27.6147059 88.4390244,40.5176471 C88.4390244,57.4 74.8146341,71.1470588 58.0829268,71.1470588 C49.7170732,71.1470588 42.1878049,67.7705882 36.6902439,62.2235294 C36.3317073,61.8617647 35.7341463,61.8617647 35.3756098,62.2235294 C35.0170732,62.5852941 35.0170732,63.1882353 35.3756098,63.55 C41.2317073,69.4588235 49.2390244,73.0764706 58.0829268,73.0764706 C75.7707317,73.0764706 90.2317073,58.6058824 90.2317073,40.6382353 C90.2317073,26.8911765 81.7463415,15.1941176 69.9146341,10.4911765 C69.4365854,10.1294118 68.9585366,10.3705882 68.7195122,10.8529412 Z" id="Shape"></path>
                                <path d="M96.0878049,40.5176471 C96.0878049,59.3294118 82.702439,74.8852941 65.0146341,78.1411765 C64.5365854,78.2617647 64.1780488,78.7441176 64.297561,79.2264706 C64.4170732,79.7088235 64.895122,80.0705882 65.3731707,79.95 C83.897561,76.5735294 97.8804878,60.1735294 97.8804878,40.5176471 C97.8804878,40.0352941 97.5219512,39.5529412 96.9243902,39.5529412 C96.4463415,39.6735294 96.0878049,40.0352941 96.0878049,40.5176471 Z" id="Shape"></path>
                                <path d="M79.8341463,8.07941176 C79.595122,8.44117647 79.595122,9.04411765 80.0731707,9.28529412 C86.4073171,13.7470588 91.3073171,20.2588235 93.9365854,27.7352941 C94.0560976,28.2176471 94.6536585,28.4588235 95.1317073,28.3382353 C95.6097561,28.2176471 95.8487805,27.6147059 95.7292683,27.1323529 C92.9804878,19.2941176 87.8414634,12.5411765 81.2682927,7.83823529 C80.6707317,7.47647059 80.0731707,7.59705882 79.8341463,8.07941176 Z" id="Shape"></path>
                                <path d="M31.5512195,10.7323529 C31.1926829,11.0941176 31.1926829,11.6970588 31.4317073,12.0588235 C31.7902439,12.4205882 32.3878049,12.4205882 32.7463415,12.1794118 C38.7219512,6.75294118 46.4902439,3.13529412 54.9756098,2.53235294 C55.4536585,2.53235294 55.8121951,2.05 55.8121951,1.56764706 C55.8121951,1.08529412 55.3341463,0.723529412 54.8560976,0.723529412 C45.8926829,1.32647059 37.7658537,5.06470588 31.5512195,10.7323529 Z" id="Shape"></path>
                                <path d="M16.0146341,62.3441176 C13.504878,64.8764706 13.504878,69.0970588 16.0146341,71.75 C18.5243902,74.2823529 22.7073171,74.2823529 25.3365854,71.75 C27.8463415,69.2176471 27.8463415,64.9970588 25.3365854,62.3441176 C22.8268293,59.6911765 18.6439024,59.6911765 16.0146341,62.3441176 Z M24.0219512,63.55 C25.9341463,65.4794118 25.9341463,68.4941176 24.0219512,70.4235294 C22.1097561,72.3529412 19.1219512,72.3529412 17.2097561,70.4235294 C15.297561,68.4941176 15.297561,65.4794118 17.2097561,63.55 C19.1219512,61.7411765 22.2292683,61.7411765 24.0219512,63.55 Z" id="Shape" fill-rule="nonzero"></path>
                                <path d="M2.27073171,35.6941176 C-0.23902439,38.2264706 -0.23902439,42.4470588 2.27073171,45.1 C4.7804878,47.7529412 8.96341463,47.6323529 11.5926829,45.1 C14.102439,42.5676471 14.102439,38.3470588 11.5926829,35.6941176 C9.08292683,33.1617647 4.9,33.1617647 2.27073171,35.6941176 Z M10.397561,37.0205882 C12.3097561,38.95 12.3097561,41.9647059 10.397561,43.8941176 C8.48536585,45.8235294 5.49756098,45.8235294 3.58536585,43.8941176 C1.67317073,41.9647059 1.67317073,38.95 3.58536585,37.0205882 C5.49756098,35.0911765 8.48536585,35.0911765 10.397561,37.0205882 Z" id="Shape" fill-rule="nonzero"></path>
                                <path d="M23.304878,46.4264706 L16.9707317,55.1088235 L12.5487805,55.1088235 C12.6682927,55.7117647 12.6682927,56.3147059 12.6682927,56.9176471 L17.4487805,56.9176471 C17.6878049,56.9176471 18.0463415,56.7970588 18.1658537,56.5558824 L24.5,47.8735294 L26.8902439,47.8735294 C27.3682927,47.8735294 27.8463415,47.5117647 27.8463415,46.9088235 C27.8463415,46.4264706 27.4878049,45.9441176 26.8902439,45.9441176 L24.0219512,45.9441176 C23.6634146,46.0647059 23.4243902,46.1852941 23.304878,46.4264706 Z" id="Shape"></path>
                                <path d="M16.0146341,7.59705882 C13.504878,10.1294118 13.504878,14.35 16.0146341,17.0029412 C18.5243902,19.5352941 22.7073171,19.5352941 25.3365854,17.0029412 C27.8463415,14.4705882 27.8463415,10.25 25.3365854,7.59705882 C22.8268293,4.94411765 18.6439024,4.94411765 16.0146341,7.59705882 Z M24.0219512,8.80294118 C25.9341463,10.7323529 25.9341463,13.7470588 24.0219512,15.6764706 C22.1097561,17.6058824 19.1219512,17.6058824 17.2097561,15.6764706 C15.297561,13.7470588 15.297561,10.7323529 17.2097561,8.80294118 C19.1219512,6.99411765 22.2292683,6.99411765 24.0219512,8.80294118 Z" id="Shape" fill-rule="nonzero"></path>
                                <path d="M2.27073171,18.3294118 C-0.23902439,20.8617647 -0.23902439,25.0823529 2.27073171,27.7352941 C4.7804878,30.2676471 8.96341463,30.2676471 11.5926829,27.7352941 C14.102439,25.2029412 14.102439,20.9823529 11.5926829,18.3294118 C9.08292683,15.6764706 4.9,15.6764706 2.27073171,18.3294118 Z M10.397561,19.5352941 C12.3097561,21.4647059 12.3097561,24.4794118 10.397561,26.4088235 C8.48536585,28.3382353 5.49756098,28.3382353 3.58536585,26.4088235 C1.67317073,24.4794118 1.67317073,21.4647059 3.58536585,19.5352941 C5.49756098,17.7264706 8.48536585,17.7264706 10.397561,19.5352941 Z" id="Shape" fill-rule="nonzero"></path>
                                <path d="M2.27073171,51.6117647 C-0.23902439,54.1441176 -0.23902439,58.3647059 2.27073171,61.0176471 C4.7804878,63.55 8.96341463,63.55 11.5926829,61.0176471 C14.102439,58.4852941 14.102439,54.2647059 11.5926829,51.6117647 C9.08292683,48.9588235 4.9,48.9588235 2.27073171,51.6117647 Z M10.397561,52.8176471 C12.3097561,54.7470588 12.3097561,57.7617647 10.397561,59.6911765 C8.48536585,61.6205882 5.49756098,61.6205882 3.58536585,59.6911765 C1.67317073,57.7617647 1.67317073,54.7470588 3.58536585,52.8176471 C5.49756098,51.0088235 8.48536585,51.0088235 10.397561,52.8176471 Z" id="Shape" fill-rule="nonzero"></path>
                            </g>
                        </g>
                    </g>
                </g>
            </g>
        </g>
    </g>
</svg>