<svg id="Layer_1" data-name="Layer 1" xmlns="http://www.w3.org/2000/svg" xmlns:xlink="http://www.w3.org/1999/xlink" viewBox="0 0 250 250"><defs><style>.cls-1{fill:url(#linear-gradient);}.cls-2{fill:#a8c6cc;}.cls-3{fill:#dfeaef;}.cls-4{fill:url(#linear-gradient-2);}.cls-5{fill:url(#linear-gradient-3);}.cls-6,.cls-8{fill:none;stroke-miterlimit:10;}.cls-6{stroke:#fff;stroke-width:2.79px;}.cls-7{fill:url(#linear-gradient-4);}.cls-8{stroke:#e6e6e6;stroke-width:5.28px;}</style><linearGradient id="linear-gradient" x1="120.35" y1="31.82" x2="146.5" y2="31.82" gradientUnits="userSpaceOnUse"><stop offset="0" stop-color="#f8d349"/><stop offset="1" stop-color="#f8ae49"/></linearGradient><linearGradient id="linear-gradient-2" x1="5.13" y1="48.44" x2="71.59" y2="48.44" gradientUnits="userSpaceOnUse"><stop offset="0" stop-color="#db1162"/><stop offset="1" stop-color="#ff6817"/></linearGradient><linearGradient id="linear-gradient-3" x1="97.89" y1="138.99" x2="246.44" y2="138.99" gradientUnits="userSpaceOnUse"><stop offset="0" stop-color="#4279e8"/><stop offset="1" stop-color="#5fb6b8"/></linearGradient><linearGradient id="linear-gradient-4" x1="122.89" y1="192.21" x2="156.35" y2="192.21" xlink:href="#linear-gradient-2"/></defs><circle class="cls-1" cx="133.42" cy="31.82" r="13.08"/><circle class="cls-2" cx="34.66" cy="147.64" r="23.73"/><circle class="cls-3" cx="139.62" cy="186.27" r="57.82"/><path class="cls-4" d="M43.13,81.7H33.57a2.58,2.58,0,0,1-1.47-2.38c-.12-1.57-.38-3.13-.55-4.7,0-.38-.21-.52-.56-.67-1.82-.71-3.64-1.46-5.43-2.24a.72.72,0,0,0-.87.09L20.61,75a2,2,0,0,1-2.79-.06l-.11-.12C15.82,72.91,13.92,71,12,69.11a2,2,0,0,1-.31-2.8l.13-.15,3.18-4a.71.71,0,0,0,.11-.86q-1.19-2.74-2.28-5.5a.66.66,0,0,0-.62-.51c-1.7-.18-3.39-.41-5.09-.6a2,2,0,0,1-2-2,1.48,1.48,0,0,1,0-.21v-8A2,2,0,0,1,7,42.23h.18c1.7-.19,3.39-.43,5.09-.61.38,0,.49-.21.61-.53.72-1.81,1.47-3.64,2.25-5.43a.77.77,0,0,0-.12-.93c-1.07-1.32-2.13-2.67-3.19-4a2,2,0,0,1,.08-2.81l.1-.09c1.91-1.91,3.82-3.83,5.74-5.73a2,2,0,0,1,2.77-.26l.12.11C22,23,23.33,24,24.68,25.11a.65.65,0,0,0,.8.08c1.82-.78,3.66-1.54,5.5-2.28.32-.13.48-.25.52-.61.18-1.69.42-3.39.61-5.09a2,2,0,0,1,2-2h8.25A2,2,0,0,1,44.57,17a1.48,1.48,0,0,1,0,.21c.19,1.68.41,3.35.59,5a.74.74,0,0,0,.59.7c1.8.71,3.6,1.46,5.38,2.23a.74.74,0,0,0,.91-.09l4.08-3.18a2,2,0,0,1,2.76.08l.08.1c1.92,1.9,3.83,3.82,5.75,5.73a2,2,0,0,1,.22,2.79l-.07.07q-1.59,2.06-3.18,4.07a.7.7,0,0,0-.12.81c.8,1.85,1.54,3.7,2.33,5.55a.89.89,0,0,0,.56.46c1.58.23,3.19.46,4.76.58a2.59,2.59,0,0,1,2.37,1.49v9.6a2.59,2.59,0,0,1-2.37,1.49c-1.57.11-3.14.37-4.7.54a.69.69,0,0,0-.66.54c-.73,1.83-1.47,3.64-2.25,5.44a.79.79,0,0,0,.11.92c1.06,1.33,2.13,2.67,3.19,4a2,2,0,0,1,0,2.78l-.12.11Q61.89,71.94,59,74.79a2,2,0,0,1-2.81.25L56.11,75c-1.35-1.06-2.7-2.12-4-3.18a.75.75,0,0,0-.92-.11c-1.77.78-3.57,1.51-5.37,2.23-.35.14-.55.27-.59.69-.17,1.57-.44,3.13-.56,4.7A2.58,2.58,0,0,1,43.13,81.7ZM54.91,48.45A16.64,16.64,0,1,0,38.24,65.07,16.64,16.64,0,0,0,54.91,48.45Z"/><polygon class="cls-5" points="176.12 213.01 183.52 180.78 166.19 154.35 137.51 144.3 107.17 137.61 97.89 106.7 121.53 73.71 170.79 64.52 212.5 69.31 240.96 95.13 246.44 122.8 241.72 151.78 223.23 171.63 201.88 179.65 191.01 213.45 176.12 213.01"/><polyline class="cls-6" points="132.31 78.55 179 92.22 170.47 69.75 179 92.22 207.4 74.35 208.49 105.07 232.21 97.71 208.49 105.07 211.05 122.34 235.53 121.86 211.05 122.34 211.46 145.14 233.43 149.22 211.46 145.14 219.75 166.98 211.46 145.14 186.84 119.31 211.05 122.34 208.49 105.07 186.84 119.31 208.49 105.07 179 92.22 186.84 119.31 153.09 115.92 154.68 85.09 153.09 115.92 113.27 109.36 153.09 115.92 119.84 134.7 153.09 115.92 186.84 119.31 172.33 153.79 159.16 128.95 142.34 139.27 159.16 128.95 172.33 153.79 211.46 145.14 189.89 177.37"/><line class="cls-6" x1="159.16" y1="130.08" x2="153.09" y2="117.05"/><polygon class="cls-7" points="142.01 156.35 122.89 199.38 137.23 199.38 137.23 228.07 156.35 189.82 142.01 189.82 142.01 156.35"/><line class="cls-8" x1="156.12" y1="60.43" x2="145.4" y2="44.9"/><line class="cls-8" x1="115.46" y1="34.57" x2="74.7" y2="38.18"/><line class="cls-8" x1="34.66" y1="85.66" x2="33.41" y2="120.5"/><line class="cls-8" x1="62.32" y1="156.35" x2="79.61" y2="159.71"/><line class="cls-8" x1="93.61" y1="134.65" x2="64.12" y2="80.25"/></svg>