<svg width="1400" height="800" xmlns="http://www.w3.org/2000/svg" fill="none">
 <title>DevOps</title>
 <g>
  <title>Layer 1</title>
  <!-- Generator: Sketch 64 (93537) - https://sketch.com -->
  <desc>Created with Sketch.</desc>
  <defs transform="translate(-11 -218) translate(607 0) translate(0 307)">
   <path id="svg_103" d="m15.08216,82.41667l67.33451,-67.33451c8.05415,-8.05415 21.11251,-8.05415 29.16666,0l67.33451,67.33451c8.05415,8.05415 8.05415,21.11251 0,29.16666l-67.33451,67.33451c-8.05415,8.05415 -21.11251,8.05415 -29.16666,0l-67.33451,-67.33451c-8.05415,-8.05415 -8.05415,-21.11251 0,-29.16666z"/>
   <path id="svg_98" d="m104.25719,6.61332l68.13184,68.13184c8.14953,8.14952 8.14953,21.36251 0,29.51203l-68.13184,68.13184c-8.14952,8.14953 -21.36251,8.14953 -29.51203,0l-68.13184,-68.13184c-8.14953,-8.14952 -8.14953,-21.36251 0,-29.51203l68.13184,-68.13184c8.14952,-8.14953 21.36251,-8.14953 29.51203,0zm-3.5774,3.5774c-6.08558,-6.08559 -15.89825,-6.17252 -22.09032,-0.26081l-0.26691,0.26081l-68.13184,68.13184c-6.08559,6.08558 -6.17252,15.89825 -0.26081,22.09032l0.26081,0.26691l68.13184,68.13184c6.08558,6.08559 15.89825,6.17252 22.09032,0.26081l0.26691,-0.26081l68.13184,-68.13184c6.08559,-6.08558 6.17252,-15.89825 0.26081,-22.09032l-0.26081,-0.26691l-68.13184,-68.13184z"/>
   <path id="svg_92" d="m37.29335,5.95133c0,3.28588 -2.6597,5.95419 -5.95132,5.95419c-3.28588,0 -5.94838,-2.66544 -5.94838,-5.95419c0,-3.28589 2.66257,-5.95133 5.94838,-5.95133c3.29162,-0.00287 5.95132,2.66258 5.95132,5.95133z"/>
   <path id="svg_89" d="m20.2985,10.42052c0.03734,-3.17956 -2.51324,-5.78471 -5.69566,-5.82206c-2.80905,-0.0316 -5.16714,1.95309 -5.70714,4.60706l-5.83639,22.82279c-0.06894,0.26138 -0.09766,0.52562 -0.10915,0.78412c-0.01149,0.14361 -0.02585,0.28722 -0.02585,0.43084c-0.03447,3.18242 2.5161,5.79044 5.69853,5.82804c2.37536,0.02273 4.71044,-1.57135 5.32514,-3.43834c0.14649,-0.40498 6.14662,-23.73603 6.16383,-23.82206c0.11201,-0.44807 0.18095,-0.90764 0.1867,-1.39014l-0.00001,-0.00025z"/>
   <path id="svg_86" d="m30.18989,56.75002l-0.01436,12.73235c0.41934,2.01059 1.70037,3.11927 3.84595,3.3289c1.17478,0.06893 2.19728,-0.27574 3.06471,-1.03978c0.86456,-0.76978 1.32985,-1.70037 1.39875,-2.80618l0,-0.93919l-0.07755,-15.88382c0,-1.25515 -0.2901,-2.5075 -1.08574,-3.30022l-1.63434,-1.53956l6.5114,-11.20147c1.72912,0.10339 2.9728,-0.88177 3.22552,-2.59074c0.16658,-1.12588 -0.58594,-2.16853 -1.48493,-2.50456l-9.70477,-3.4581l-4.35434,-11.95441c-1.08,-2.08809 -2.82052,-3.54147 -4.87419,-3.92059c-4.8139,-0.89904 -6.49412,4.59559 -6.49412,4.59559l-3.58169,15.05662l10.16765,-5.93118l-0.92486,-1.99618c-0.20106,-0.4337 -0.01148,-0.95073 0.42222,-1.14603c0.43084,-0.20392 0.94787,-0.01436 1.1489,0.42222l1.21493,2.61662c0.00287,0.00862 0.00862,0.01149 0.01149,0.01436c0.01149,0.01436 0.00862,0.02872 0.01436,0.04309l2.34375,5.05228l0.23552,0.47966c0.13787,0.26999 0.63189,0.77552 1.09147,0.96507l9.42647,3.59603l-6.02022,10.34853l-7.89264,-7.41029l1.5797,-7.25816l-1.91867,-4.1475l-11.45442,6.68081l-4.43764,18.60956l-9.38383,14.68014c-0.34754,0.48828 -0.52275,1.07132 -0.52275,1.7664c-0.13786,1.17477 0.17521,2.19441 0.93633,3.06757c0.76117,0.86456 1.73198,1.36434 2.90956,1.50507c1.73198,0.135 3.04742,-0.56009 3.94647,-2.08235l10.00956,-15.70809c0.2068,-0.41935 0.48253,-1.00243 0.83294,-1.77508l1.99044,-8.38382l9.25147,7.58824"/>
   <path id="svg_83" d="m9.811,44.67754l50.05882,0c0.81219,0 1.47059,0.65841 1.47059,1.47059c0,0.81218 -0.6584,1.47059 -1.47059,1.47059l-50.05882,0c-0.81219,0 -1.47059,-0.65841 -1.47059,-1.47059c0,-0.81218 0.6584,-1.47059 1.47059,-1.47059z"/>
  </defs>
  <g id="svg_134">
   <path stroke="#f9f963" id="svg_39" d="m984.32394,436.46311l-6.25868,-21.08496c1.83416,-1.54866 3.5557,-3.20572 5.18071,-4.97893l21.88929,6.02427c2.30879,-3.23669 4.2958,-6.67471 6.07366,-10.24436l-16.29027,-15.17683c0.78032,-2.23007 1.45607,-4.49885 1.93874,-6.83732l21.95365,-5.29641c0.16089,-1.95131 0.31374,-3.91036 0.31374,-5.90812s-0.16089,-3.94907 -0.31374,-5.90038l-21.95365,-5.29641c-0.49072,-2.33847 -1.16646,-4.60725 -1.93874,-6.83732l16.29831,-15.17683c-1.7859,-3.56191 -3.77291,-7.00767 -6.0817,-10.24436l-21.88929,6.01653c-1.61696,-1.76547 -3.34654,-3.42253 -5.18071,-4.97893l6.25868,-21.07722c-3.36263,-2.21458 -6.94247,-4.13491 -10.65102,-5.84618l-15.76737,15.68789c-2.30879,-0.7511 -4.6739,-1.39379 -7.10336,-1.86613l-5.49445,-21.13916c-2.03528,-0.14712 -4.06251,-0.30199 -6.13801,-0.30199s-4.10273,0.15487 -6.12997,0.30199l-5.50249,21.13916c-2.42946,0.47234 -4.78652,1.11503 -7.10336,1.86613l-15.76737,-15.68789c-3.70051,1.7345 -7.2723,3.64709 -10.63493,5.86941l6.25868,21.07722c-1.83416,1.54866 -3.56375,3.21346 -5.17266,4.97119l-21.89734,-6.02427c-2.30879,3.23669 -4.2958,6.68245 -6.07366,10.25211l16.29831,15.17683c-0.77228,2.23007 -1.44802,4.49885 -1.93874,6.83732l-21.9617,5.29641c-0.15285,1.95131 -0.31374,3.91036 -0.31374,5.90038s0.16089,3.94907 0.31374,5.90812l21.9617,5.29641c0.49072,2.33847 1.16646,4.60725 1.93874,6.83732l-16.29831,15.17683c1.77785,3.56191 3.76486,7.00767 6.07366,10.24436l21.89734,-6.02427c1.60892,1.77321 3.3385,3.42253 5.17266,4.97893l-6.25868,21.08496c3.36263,2.21458 6.94247,4.12717 10.64298,5.84618l15.76737,-15.68789c2.31684,0.7511 4.6739,1.40153 7.10336,1.86613l5.50249,21.13142c2.02723,0.15487 4.06251,0.30199 6.13801,0.30199s4.10273,-0.15487 6.13801,-0.30199l5.49445,-21.13142c2.42946,-0.47234 4.79457,-1.12278 7.10336,-1.86613l15.76737,15.68789c3.69246,-1.7345 7.2723,-3.64709 10.63493,-5.86166zm-45.14617,-37.1755c-15.09967,0 -27.34352,-11.78528 -27.34352,-26.31942s12.24385,-26.31167 27.34352,-26.31167s27.33547,11.77753 27.33547,26.31167s-12.2358,26.31942 -27.33547,26.31942zm124.62659,55.01602c0.15285,-4.23558 -0.48267,-8.54858 -1.85025,-12.80739l10.00745,-13.72884c-1.51238,-2.71015 -3.21783,-5.28092 -5.15657,-7.61939l-17.07059,3.44576c-3.44308,-2.81855 -7.36079,-5.01765 -11.55201,-6.58953l-4.91524,-16.09828c-3.10521,-0.52654 -6.25064,-0.81304 -9.43629,-0.82079l-7.83542,14.991c-2.24444,0.41814 -4.48887,0.99114 -6.69309,1.80418c-2.06746,0.75884 -3.99815,1.70352 -5.84841,2.73338l-16.13742,-6.34175c-2.38924,2.02874 -4.56932,4.22009 -6.54024,6.59728l7.29643,15.23878c-2.08355,3.83292 -3.51548,7.96009 -4.17514,12.2731l-15.2123,8.20788c0.15285,3.00439 0.61139,6.00879 1.31931,9.02092l16.92579,4.01876c1.8583,4.05748 4.35212,7.68908 7.36883,10.78639l-2.83169,16.55514c2.57426,1.78095 5.30942,3.31412 8.14916,4.64597l13.79645,-10.22113c4.31189,1.0918 8.8249,1.50994 13.37009,1.16149l11.68073,12.44346c1.60892,-0.44137 3.20979,-0.91371 4.79457,-1.49445c1.4078,-0.51106 2.73516,-1.11503 4.06251,-1.72675l0.29765,-16.76421c3.66028,-2.62497 6.78158,-5.78423 9.26735,-9.3384l17.38433,-1.0376c1.22278,-2.77984 2.24444,-5.66808 2.9604,-8.63376l-13.4264,-10.70122zm-33.48957,15.54077c-9.66154,3.54642 -20.47345,-1.11503 -24.16591,-10.41472s1.15037,-19.7144 10.81191,-23.26856c9.66154,-3.54642 20.48954,1.11503 24.182,10.41472c3.68442,9.29968 -1.16646,19.7144 -10.828,23.26856z" fill="#fff"/>
   <g id="svg_40">
    <path d="m525.51946,384.90991l0,22.66212l9.16655,0c6.95832,0 11.54954,-4.50005 11.54954,-11.33106c0,-6.83101 -4.59122,-11.33106 -11.54954,-11.33106l-9.16655,0zm9.11889,4.22487c4.68654,0 6.95832,2.94608 6.95832,7.10619c0,4.11156 -2.27178,7.10619 -6.95832,7.10619l-4.68654,0l0,-14.21239l4.68654,0l0,0.00001z" fill="#3300FF" id="svg_6" stroke="null"/>
    <path d="m556.76257,391.46574c-4.60711,0 -7.78442,3.36694 -7.78442,8.30405c0,4.9371 3.27263,8.20692 7.99095,8.20692c2.58951,0 4.81363,-0.74461 6.56115,-2.37952l-2.43065,-2.71945c-1.11206,0.95505 -2.55774,1.50541 -3.89221,1.50541c-1.95405,0 -3.51093,-0.98742 -3.95576,-3.25363l10.91408,0c0.04766,-0.35612 0.07943,-0.93886 0.07943,-1.42448c-0.01589,-4.88854 -3.05022,-8.2393 -7.48258,-8.2393l0.00001,0zm-0.03177,3.64213c1.7793,0 2.97079,1.13311 3.35207,3.14032l-6.81534,0c0.36539,-1.94247 1.50922,-3.14032 3.46327,-3.14032z" fill="#3300FF" id="svg_7" stroke="null"/>
    <path d="m582.17965,391.88661l-4.36881,0l-4.0193,11.23394l-3.98753,-11.23394l-4.51179,0l6.08456,15.68542l4.78186,0l6.02101,-15.68542z" fill="#3300FF" id="svg_8" stroke="null"/>
    <path d="m591.04869,391.46574c-4.60711,0 -7.78442,3.36694 -7.78442,8.30405c0,4.9371 3.27263,8.20692 7.99095,8.20692c2.58951,0 4.81363,-0.74461 6.56115,-2.37952l-2.43065,-2.71945c-1.11206,0.95505 -2.55774,1.50541 -3.89221,1.50541c-1.95405,0 -3.51093,-0.98742 -3.95576,-3.25363l10.91408,0c0.04766,-0.35612 0.07943,-0.93886 0.07943,-1.42448c-0.01589,-4.88854 -3.05022,-8.2393 -7.48258,-8.2393l0.00001,0zm-0.03177,3.64213c1.7793,0 2.97079,1.13311 3.35207,3.14032l-6.81534,0c0.36539,-1.94247 1.50922,-3.14032 3.46327,-3.14032z" fill="#3300FF" id="svg_9" stroke="null"/>
    <path d="m606.04994,384.26242l-4.1464,0l0,23.30961l4.1464,0l0,-23.30961z" fill="#3300FF" id="svg_10" stroke="null"/>
    <path d="m617.76124,391.46574c-4.78186,0 -8.30868,3.52882 -8.30868,8.25549c0,4.72667 3.52682,8.25549 8.30868,8.25549c4.79774,0 8.34045,-3.52882 8.34045,-8.25549c0,-4.72667 -3.54271,-8.25549 -8.34045,-8.25549zm0,3.9335c2.33533,0 4.09874,1.7806 4.09874,4.32199c0,2.54139 -1.76341,4.32199 -4.09874,4.32199c-2.33533,0 -4.08285,-1.7806 -4.08285,-4.32199c0,-2.54139 1.74752,-4.32199 4.08285,-4.32199z" fill="#3300FF" id="svg_11" stroke="null"/>
    <path d="m638.13071,391.46574c-2.11291,0 -3.59037,0.87411 -4.59122,2.1529l0,-1.73203l-4.05108,0l0,22.16032l4.13051,0l0,-8.1098c1.00085,1.21404 2.46242,2.03959 4.52767,2.03959c4.24171,0 7.4508,-3.545 7.4508,-8.25549c0,-4.71048 -3.20909,-8.25549 -7.46669,-8.25549l0.00001,0zm-0.76256,3.9335c2.44653,0 3.97164,1.92628 3.97164,4.32199c0,2.39571 -1.52511,4.32199 -3.97164,4.32199c-2.35121,0 -3.95576,-1.84534 -3.95576,-4.32199c0,-2.47665 1.60454,-4.32199 3.95576,-4.32199z" fill="#3300FF" id="svg_12" stroke="null"/>
    <path d="m667.84727,391.46574c-2.01759,0 -4.03519,0.69605 -5.22668,2.68708c-1.03263,-1.66728 -2.85958,-2.68708 -5.0837,-2.68708c-1.74752,0 -3.4315,0.59893 -4.52767,2.26621l0,-1.84534l-4.03519,0l0,15.68542l4.1464,0l0,-8.59542c0,-2.36334 1.47745,-3.545 3.25675,-3.545c1.8905,0 3.00256,1.24642 3.00256,3.51263l0,8.62779l4.1464,0l0,-8.59542c0,-2.36334 1.47745,-3.545 3.25675,-3.545c1.87462,0 3.00256,1.24642 3.00256,3.51263l0,8.62779l4.13051,0l0,-9.98752c0,-3.64213 -2.44653,-6.11877 -6.06867,-6.11877l-0.00002,0z" fill="#3300FF" id="svg_13" stroke="null"/>
    <path d="m684.97155,391.46574c-4.60711,0 -7.78442,3.36694 -7.78442,8.30405c0,4.9371 3.27263,8.20692 7.99095,8.20692c2.58951,0 4.81363,-0.74461 6.56115,-2.37952l-2.43065,-2.71945c-1.11206,0.95505 -2.55774,1.50541 -3.89221,1.50541c-1.95405,0 -3.51093,-0.98742 -3.95576,-3.25363l10.91408,0c0.04766,-0.35612 0.07943,-0.93886 0.07943,-1.42448c-0.01589,-4.88854 -3.05022,-8.2393 -7.48258,-8.2393l0.00001,0zm-0.03177,3.64213c1.7793,0 2.97079,1.13311 3.35207,3.14032l-6.81534,0c0.36539,-1.94247 1.50922,-3.14032 3.46327,-3.14032z" fill="#3300FF" id="svg_14" stroke="null"/>
    <path d="m704.38927,391.46574c-1.74752,0 -3.4315,0.59893 -4.52767,2.26621l0,-1.84534l-4.03519,0l0,15.68542l4.1464,0l0,-8.59542c0,-2.36334 1.47745,-3.545 3.25675,-3.545c1.8905,0 3.00256,1.24642 3.00256,3.51263l0,8.62779l4.1464,0l0,-9.98752c0,-3.64213 -2.49419,-6.11877 -5.98924,-6.11877l-0.00001,0z" fill="#3300FF" id="svg_15" stroke="null"/>
    <path d="m725.61229,391.88661l-5.57619,0l0,-4.66192l-4.1464,0l0,4.66192l-2.97079,0l0,3.75544l2.97079,0l0,6.07021c0,4.06299 1.95405,6.26446 5.76683,6.26446c2.19235,0 3.74923,-0.71224 5.09959,-1.6511l-1.52511,-3.30219c-0.84199,0.51799 -1.90639,1.0198 -2.89136,1.0198c-1.28681,0 -2.30355,-0.71224 -2.30355,-2.67089l0,-5.73028l5.57619,0l0,-3.75544l0,-0.00001z" fill="#3300FF" id="svg_16" stroke="null"/>
    <path d="m253.71493,365.77984l0,22.66183l9.16655,0c6.95832,0 11.54954,-4.50005 11.54954,-11.33106c0,-6.83072 -4.59122,-11.33077 -11.54954,-11.33077l-9.16655,0zm9.11889,4.22487c4.68654,0 6.95832,2.94608 6.95832,7.1059c0,4.11156 -2.27178,7.10619 -6.95832,7.10619l-4.68654,0l0,-14.21209l4.68654,0z" fill="#3300FF" id="svg_17" stroke="null"/>
    <path d="m284.95732,372.33567c-4.60711,0 -7.78442,3.36665 -7.78442,8.30375c0,4.9371 3.27263,8.20692 7.99095,8.20692c2.58951,0 4.81406,-0.74461 6.56159,-2.37952l-2.43108,-2.71945c-1.11206,0.95505 -2.55774,1.50541 -3.89221,1.50541c-1.95405,0 -3.51093,-0.98742 -3.95576,-3.25363l10.91451,0c0.04766,-0.35612 0.07943,-0.93886 0.07943,-1.42448c-0.01589,-4.88854 -3.05066,-8.239 -7.48301,-8.239zm-0.03177,3.64183c1.7793,0 2.97079,1.13311 3.35207,3.14032l-6.81534,0c0.36539,-1.94247 1.50922,-3.14032 3.46327,-3.14032z" fill="#3300FF" id="svg_18" stroke="null"/>
    <path d="m308.1276,373.84079c-2.04937,-1.0195 -3.97164,-1.48893 -6.43406,-1.48893c-4.05108,0 -6.49761,1.9098 -6.49761,5.13106c0,2.67089 1.76341,4.25724 5.322,4.75905l1.25504,0.17806c1.7793,0.259 2.55774,0.67986 2.55774,1.44066c0,0.92267 -0.92142,1.47304 -2.8437,1.47304c-2.31944,0 -3.92398,-0.64749 -5.24257,-1.53779l-1.63632,3.20507c2.00171,1.44066 4.75009,1.84534 6.84711,1.84534c4.46413,0 7.06952,-2.08815 7.06952,-5.3256c0,-2.65471 -1.85873,-4.1763 -5.19491,-4.6943l-1.36625,-0.21043c-1.39802,-0.21043 -2.51008,-0.43706 -2.51008,-1.34354c0,-0.85792 0.79433,-1.42448 2.3671,-1.42448c1.73164,0.01619 3.68568,0.66368 4.90895,1.27879l1.39802,-3.28601l0.00002,0.00001z" fill="#3300ff" id="svg_19" stroke="null"/>
    <path d="m315.93802,372.75654l-4.1464,0l0,15.68513l4.1464,0l0,-15.68513zm-2.09703,-7.85081c-1.49334,0 -2.63717,1.19785 -2.63717,2.71945c0,1.5216 1.14383,2.68708 2.63717,2.68708c1.49334,0 2.65306,-1.16548 2.65306,-2.68708c0,-1.5216 -1.15972,-2.71945 -2.65306,-2.71945z" fill="#3300FF" id="svg_20" stroke="null"/>
    <path d="m326.42604,372.33567c-3.74923,0 -7.08541,3.18859 -7.08541,8.01238c0,4.80761 3.33618,7.99649 7.08541,7.99649c2.1288,0 3.68568,-0.80936 4.7342,-2.12053l0,1.10073c0,2.70327 -1.81107,4.16012 -4.38469,4.16012c-1.84284,0 -3.54271,-0.56655 -5.0837,-1.60254l-1.47745,3.44788c1.73164,1.24642 4.30526,1.89391 6.73591,1.89391c5.0837,0 8.30868,-3.0432 8.30868,-8.07743l0,-14.39015l-4.06696,0l0,1.74793c-1.04851,-1.32706 -2.62128,-2.16879 -4.76597,-2.16879l-0.00002,0zm1.04851,3.88464c2.30355,0 3.86044,1.7806 3.86044,4.12774c0,2.33096 -1.55688,4.11156 -3.86044,4.11156c-2.3671,0 -3.87632,-1.84534 -3.87632,-4.11156c0,-2.2824 1.50922,-4.12774 3.87632,-4.12774z" fill="#3300FF" id="svg_21" stroke="null"/>
    <path d="m348.18776,372.33567c-1.74752,0 -3.4315,0.59893 -4.52767,2.26592l0,-1.84505l-4.03519,0l0,15.68513l4.1464,0l0,-8.59542c0,-2.36334 1.47745,-3.545 3.25675,-3.545c1.8905,0 3.00256,1.24642 3.00256,3.51263l0,8.62779l4.1464,0l0,-9.98752c0,-3.64213 -2.49419,-6.11848 -5.98924,-6.11848l-0.00001,0z" fill="#3300FF" id="svg_22" stroke="null"/>
    <path d="m874.43337,365.35898c-6.84711,0 -11.67663,4.98567 -11.67663,11.75163c0,6.76626 4.82952,11.75193 11.67663,11.75193c6.84711,0 11.69252,-4.98567 11.69252,-11.75193c0,-6.76597 -4.8454,-11.75163 -11.69252,-11.75163zm0,4.33818c4.09874,0 7.05364,3.01082 7.05364,7.41346c0,4.40293 -2.9549,7.41375 -7.05364,7.41375c-4.08285,0 -7.05364,-3.01082 -7.05364,-7.41375c0,-4.40263 2.97079,-7.41346 7.05364,-7.41346z" fill="#3300FF" id="svg_23" stroke="null"/>
    <path d="m898.39466,372.33567c-2.11291,0 -3.59037,0.87411 -4.59122,2.15261l0,-1.73174l-4.05108,0l0,22.16002l4.13051,0l0,-8.1098c1.00085,1.21404 2.46242,2.03959 4.52767,2.03959c4.24171,0 7.4508,-3.545 7.4508,-8.25549c0,-4.71048 -3.20909,-8.25519 -7.46669,-8.25519l0.00001,0zm-0.76256,3.9332c2.44653,0 3.97164,1.92628 3.97164,4.32199c0,2.39571 -1.52511,4.32199 -3.97164,4.32199c-2.35121,0 -3.95576,-1.84534 -3.95576,-4.32199c0,-2.47665 1.60454,-4.32199 3.95576,-4.32199z" fill="#3300FF" id="svg_24" stroke="null"/>
    <path d="m916.06919,372.33567c-4.60711,0 -7.78442,3.36665 -7.78442,8.30375c0,4.9371 3.27263,8.20692 7.99095,8.20692c2.58951,0 4.81363,-0.74461 6.56115,-2.37952l-2.43065,-2.71945c-1.11206,0.95505 -2.55774,1.50541 -3.89221,1.50541c-1.95405,0 -3.51093,-0.98742 -3.95576,-3.25363l10.91408,0c0.04766,-0.35612 0.07943,-0.93886 0.07943,-1.42448c-0.01589,-4.88854 -3.05022,-8.239 -7.48258,-8.239l0.00001,0zm-0.03177,3.64183c1.7793,0 2.97079,1.13311 3.35207,3.14032l-6.81534,0c0.36539,-1.94247 1.50922,-3.14032 3.46327,-3.14032z" fill="#3300FF" id="svg_25" stroke="null"/>
    <path d="m935.28039,372.33567c-1.8905,0 -3.36795,0.66368 -4.33703,2.13642l0,-1.71555l-4.0193,0l0,15.68513l4.1464,0l0,-8.54686c0,-2.33096 1.31859,-3.52882 3.24086,-3.52882c0.84199,0 1.82696,0.19425 2.51008,0.5018l0.61958,-4.1922c-0.57192,-0.21043 -1.27093,-0.33993 -2.16057,-0.33993l-0.00002,0.00001z" fill="#3300FF" id="svg_26" stroke="null"/>
    <path d="m954.89453,372.75654l-4.05108,0l0,1.73174c-1.01674,-1.2785 -2.49419,-2.15261 -4.60711,-2.15261c-4.24171,0 -7.4508,3.54471 -7.4508,8.25519c0,4.71048 3.20909,8.25549 7.4508,8.25549c2.11291,0 3.60625,-0.87411 4.60711,-2.13671l0,1.73203l4.05108,0l0,-15.68513zm-7.89563,3.51233c2.3671,0 3.97164,1.84534 3.97164,4.32199c0,2.47665 -1.60454,4.32199 -3.97164,4.32199c-2.43065,0 -3.97164,-1.92628 -3.97164,-4.32199c0,-2.39571 1.541,-4.32199 3.97164,-4.32199z" fill="#3300FF" id="svg_27" stroke="null"/>
    <path d="m970.42438,372.75654l-5.57619,0l0,-4.66192l-4.1464,0l0,4.66192l-2.97079,0l0,3.75514l2.97079,0l0,6.07021c0,4.06299 1.95405,6.26446 5.76683,6.26446c2.19235,0 3.74923,-0.71224 5.09959,-1.6511l-1.52511,-3.30219c-0.84199,0.51799 -1.90639,1.0198 -2.89136,1.0198c-1.28681,0 -2.30355,-0.71224 -2.30355,-2.67089l0,-5.73028l5.57619,0l0,-3.75514l0,-0.00001z" fill="#3300FF" id="svg_28" stroke="null"/>
    <path d="m978.2348,372.75654l-4.1464,0l0,15.68513l4.1464,0l0,-15.68513zm-2.09703,-7.85081c-1.49334,0 -2.63717,1.19785 -2.63717,2.71945c0,1.5216 1.14383,2.68708 2.63717,2.68708c1.49334,0 2.65306,-1.16548 2.65306,-2.68708c0,-1.5216 -1.15972,-2.71945 -2.65306,-2.71945z" fill="#3300FF" id="svg_29" stroke="null"/>
    <path d="m989.94464,372.33567c-4.78186,0 -8.30868,3.52852 -8.30868,8.25519c0,4.72667 3.52682,8.25549 8.30868,8.25549c4.79774,0 8.34045,-3.52882 8.34045,-8.25549c0,-4.72667 -3.54271,-8.25519 -8.34045,-8.25519zm0,3.9332c2.33533,0 4.09874,1.7806 4.09874,4.32199c0,2.54139 -1.76341,4.32199 -4.09874,4.32199c-2.33533,0 -4.08285,-1.7806 -4.08285,-4.32199c0,-2.54139 1.74752,-4.32199 4.08285,-4.32199z" fill="#3300FF" id="svg_30" stroke="null"/>
    <path d="m1010.23469,372.33567c-1.74752,0 -3.4315,0.59893 -4.52767,2.26592l0,-1.84505l-4.03519,0l0,15.68513l4.1464,0l0,-8.59542c0,-2.36334 1.47745,-3.545 3.25675,-3.545c1.8905,0 3.00256,1.24642 3.00256,3.51263l0,8.62779l4.1464,0l0,-9.98752c0,-3.64213 -2.49419,-6.11848 -5.98924,-6.11848l-0.00001,0z" fill="#3300FF" id="svg_31" stroke="null"/>
    <path d="m1032.88316,373.84079c-2.04937,-1.0195 -3.97164,-1.48893 -6.43406,-1.48893c-4.05108,0 -6.49761,1.9098 -6.49761,5.13106c0,2.67089 1.76341,4.25724 5.322,4.75905l1.25504,0.17806c1.7793,0.259 2.55774,0.67986 2.55774,1.44066c0,0.92267 -0.92142,1.47304 -2.8437,1.47304c-2.31944,0 -3.92398,-0.64749 -5.24257,-1.53779l-1.63632,3.20507c2.00171,1.44066 4.75009,1.84534 6.84711,1.84534c4.46413,0 7.06952,-2.08815 7.06952,-5.3256c0,-2.65471 -1.85873,-4.1763 -5.19491,-4.6943l-1.36625,-0.21043c-1.39802,-0.21043 -2.51008,-0.43706 -2.51008,-1.34354c0,-0.85792 0.79433,-1.42448 2.3671,-1.42448c1.73164,0.01619 3.68568,0.66368 4.90895,1.27879l1.39802,-3.28601l0.00002,0.00001z" fill="#3300FF" id="svg_32" stroke="null"/>
    <path d="m447.00658,339.50738c3.92832,6.76935 7.62122,13.84008 11.07727,21.21189c1.71575,3.69599 3.40117,7.45304 4.98694,11.30148c0.78711,1.92893 1.57566,3.85815 2.32233,5.82858l0.58925,1.54367l0.93731,2.56788c0.61091,1.7129 1.22615,3.43611 1.84429,5.16961l-2.21401,5.37122l-1.06584,2.55905l-0.66868,1.5422c-0.90698,2.03076 -1.82551,4.06299 -2.78159,6.15409c-1.88473,4.06152 -3.89943,8.12305 -5.98346,12.18457c-4.17528,8.04211 -8.69284,15.96649 -13.55125,23.77021c-9.74713,15.76783 -20.9645,30.54383 -33.49612,44.1205l-4.8353,5.0151c-1.59588,1.68641 -3.34051,3.23009 -4.98694,4.8444l-2.52163,2.39571c-0.83766,0.7917 -1.74608,1.53337 -2.61262,2.29564c-1.76485,1.51277 -3.49071,3.04614 -5.27579,4.52801c-7.17495,5.83623 -14.7904,11.08825 -22.77557,15.70897l-6.03256,3.23892c-2.0537,1.01538 -4.13773,1.94983 -6.19287,2.924c-2.0537,0.97418 -4.19839,1.75705 -6.29253,2.60909l-3.15998,1.23906l-3.21198,1.01538l-3.21053,1.01538l-1.60454,0.51799l-1.62621,0.41645l-6.48172,1.62461l-6.51061,1.19785l-1.62621,0.28401l-1.63487,0.19425l-3.24086,0.38555c-6.41673,0.70488 -12.87535,0.93886 -19.32529,0.70047l-4.83674,-0.30461c-0.80733,0 -1.61523,-0.09124 -2.42285,-0.16334l-2.41317,-0.27371l-4.83631,-0.57833l-4.81638,-0.802c-0.80776,-0.14274 -1.61552,-0.26488 -2.41317,-0.42675l-2.39324,-0.52829c-1.59545,-0.35465 -3.201,-0.69016 -4.78648,-1.08602c-3.15103,-0.89324 -6.35203,-1.66581 -9.45323,-2.77243c-6.28949,-2.03812 -12.42778,-4.53242 -18.36791,-7.46378c-24.22081,-11.9138 -44.73038,-30.42316 -59.25735,-53.47524c-14.52712,-23.05356 -22.50475,-49.75071 -23.04945,-77.13509c-0.27153,-13.48543 1.24455,-26.9457 4.50722,-40.01762l1.32624,-4.82321l0.67807,-2.41661l0.78783,-2.36598l1.57551,-4.73167l1.79489,-4.63028c0.30907,-0.77169 0.59835,-1.55353 0.90741,-2.31507l0.99724,-2.26445c0.67807,-1.50276 1.32624,-3.04614 1.99434,-4.50829c1.49579,-2.92444 2.88182,-5.90966 4.55699,-8.72241c0.38893,0.23354 -0.19945,2.4066 -0.25924,3.59459c-0.05979,1.188 0.28928,1.38092 2.61262,-2.22383c2.32348,-3.6046 4.41748,-6.68135 6.3022,-9.34165l2.87186,-3.56413c0.87752,-1.09661 1.6951,-2.09168 2.51282,-2.96491c1.62534,-1.75661 2.99159,-3.2189 4.1682,-4.35613c1.17662,-1.13723 2.23365,-2.03076 3.07131,-2.62984c0.94901,-0.91164 2.11927,-1.54941 3.39034,-1.84814c0.25216,-0.02546 0.50649,0.01207 0.74118,0.10934c0.23454,0.09727 0.44222,0.25149 0.60499,0.44912c0.30921,0.29461 -3.83906,4.85367 -6.98013,8.93564l-2.1639,2.80245c-0.62824,0.83261 -1.08693,1.57399 -1.40596,2.03091c-0.61828,1.01538 -0.51862,1.01538 0.83751,-0.49754c-3.9403,5.48409 -7.48301,11.25336 -10.59995,17.26177c-2.84745,5.5712 -5.30655,11.33945 -7.35909,17.26191c-1.08274,2.9733 -1.93296,6.02901 -2.54286,9.13872c0,0.792 0.61828,-1.16783 2.82203,-6.87442l1.67531,-3.75691c0.68803,-1.53322 1.35614,-3.39152 2.30341,-5.32074c0.45869,-1.01538 0.92734,-2.03076 1.40611,-3.04614l0.73786,-1.59429l0.82769,-1.61446c1.11683,-2.17291 2.22369,-4.44751 3.53,-6.62043c0.62824,-1.09661 1.2663,-2.19322 1.88458,-3.27983l1.99434,-3.11722c0.6681,-1.01538 1.29634,-2.03076 1.99434,-2.97521l1.99434,-2.70091c0.63821,-0.85292 1.24652,-1.68553 1.84486,-2.43691c0.5982,-0.75138 1.22644,-1.41153 1.765,-2.03091c0.88113,-1.04849 1.81988,-2.04518 2.81207,-2.98522c3.09124,-2.64014 2.3333,-0.60923 1.57551,1.31999c-0.75793,1.92922 -1.36625,3.96013 1.51572,1.33015c1.28623,-1.46215 2.81192,-3.37106 4.61693,-5.34105c1.80486,-1.96984 3.7992,-4.06152 5.98303,-6.09243c2.18383,-2.03076 4.25789,-4.01075 6.2622,-5.7369c2.00431,-1.72629 3.98869,-3.1986 5.45458,-4.43736c3.39034,-1.91922 2.20376,-0.21323 0.9971,1.39107c-1.20651,1.6043 -2.34327,3.1986 0.61828,0.82246c5.00846,-3.50924 10.19788,-6.74286 15.54602,-9.68688c5.98129,-3.22435 12.17157,-6.03004 18.5275,-8.39749c13.87071,-5.07264 28.48939,-7.69953 43.22722,-7.76781c0,0.45692 1.99449,0.91384 1.99449,1.31999c0,0.20308 -0.48815,0.38584 -1.99449,0.55846c-1.50489,0.17261 -3.70879,0.35538 -7.3887,0.66c-24.56786,1.58179 -48.14281,10.45621 -67.81328,25.52755c-19.67047,15.07134 -34.5751,35.6793 -42.87324,59.2791c-2.02568,5.88111 -3.65478,11.89614 -4.87617,18.00314c-1.14094,6.12701 -1.88054,12.32393 -2.21372,18.55159c-0.05979,1.56427 -0.06976,3.11678 -0.10976,4.68105c0,0.7814 0,1.5628 0,2.34568l0.0699,2.33538c0.05979,1.5628 0.04983,3.12708 0.15959,4.68105l0.36886,4.66045c0.07987,1.56427 0.37897,3.04614 0.54852,4.63985c0.16941,1.59518 0.36886,3.09765 0.67807,4.62072l0.82769,4.60012l1.05689,4.54861c5.99617,24.36472 18.91268,46.38965 37.13486,63.32002c4.5258,4.18955 9.32311,8.06271 14.3593,11.59594c5.10869,3.45671 10.43892,6.56024 15.95474,9.29147c5.53358,2.65176 11.23325,4.9268 17.06175,6.81335c5.85204,1.7909 11.81513,3.18153 17.84943,4.16306c6.04975,0.90648 12.15308,1.38916 18.26797,1.44213c0.76833,0 1.52656,0 2.27322,0l2.25445,-0.08094l2.26311,-0.08094l1.1265,0l1.11784,-0.11184c2.99101,-0.33552 5.98202,-0.54889 8.97447,-1.15812c5.93436,-1.01097 11.77484,-2.52962 17.46079,-4.53831l4.22727,-1.65551c0.69756,-0.27371 1.41679,-0.52829 2.11436,-0.83291l2.06381,-0.96388l4.13773,-1.92039l4.03952,-2.18233c2.73249,-1.3715 5.29456,-3.11678 7.9274,-4.71195c1.32581,-0.7711 2.55196,-1.73645 3.83877,-2.60909l3.79978,-2.67089l3.67991,-2.8931c1.22615,-1.01538 2.48264,-1.87919 3.64958,-2.9446l3.54993,-3.09765l1.69409,-1.64521l1.70564,-1.64521c9.24165,-8.79849 17.74386,-18.36956 25.41852,-28.61313c1.99449,-2.53845 3.81855,-5.20934 5.70328,-7.81843l2.7426,-4.01149c0.9272,-1.3303 1.82407,-2.67089 2.70216,-4.06152c3.57015,-5.41242 6.92077,-10.97641 10.15152,-16.62281c3.23075,-5.64493 6.30119,-11.38256 9.18388,-17.20114c1.43557,-2.9137 2.84225,-5.8377 4.17817,-8.78231c0.67735,-1.46274 1.32581,-2.9343 1.99449,-4.40734l0.11987,-0.27371l-0.08088,-0.20308l-0.54736,-1.46274c-0.738,-1.94983 -1.49623,-3.88788 -2.29344,-5.81857c-1.57566,-3.87758 -3.26108,-7.71645 -4.98694,-11.51398c-3.52971,-7.59519 -7.37859,-15.03823 -11.55676,-22.25773c-4.16228,-7.16167 -8.67551,-14.10555 -13.52236,-20.80559c-2.38299,-3.39152 -4.9855,-6.58997 -7.49846,-9.84949l-0.99652,-1.2083l-0.99797,-1.16769l-1.99449,-2.33538c-1.34603,-1.53337 -2.61262,-3.15798 -4.03808,-4.59982l-4.18828,-4.43736c-1.38646,-1.49261 -2.90147,-2.82276 -4.33703,-4.24444l-2.19379,-2.10184c-0.71778,-0.71077 -1.50634,-1.33015 -2.26456,-2.03076l-4.55656,-3.92967c-6.19721,-4.99096 -12.76558,-9.48572 -19.64447,-13.44393c-6.87889,-3.78325 -14.07695,-6.93019 -21.50898,-9.40272l-5.55452,-1.64492c-1.88473,-0.49754 -3.78967,-0.88338 -5.68306,-1.3403c-1.89483,-0.45692 -3.83011,-0.75138 -5.75383,-1.01538c-1.92516,-0.264 -3.84022,-0.68031 -5.79427,-0.8123l-4.85551,-0.55846c-1.4269,-0.15231 -2.6935,-0.18277 -3.75934,-0.27415c-2.16491,-0.16246 -3.62069,-0.33508 -4.47713,-0.48738c-0.85787,-0.15245 -1.21749,-0.2743 -0.94742,-0.42661c0.71201,-0.25929 1.45723,-0.41322 2.21257,-0.45692c3.67124,-0.42764 7.36704,-0.58377 11.05994,-0.46708c1.18572,0 2.4422,0 3.72901,0.09138l3.98897,0.34523c1.34603,0.14215 2.73105,0.18277 4.1074,0.42646l4.14928,0.66014c-1.4659,-0.22015 -2.91735,-0.5252 -4.34859,-0.91399c-1.13661,-0.32492 -2.0537,-0.51784 -2.99101,-0.80215c-0.93731,-0.28431 -1.8154,-0.51784 -2.99245,-0.76154c-0.57769,-0.12185 -1.21604,-0.23354 -1.94394,-0.34523c-0.72789,-0.11169 -1.60599,-0.15231 -2.55196,-0.15231c0,-0.32492 0.99652,-0.70061 2.99101,-0.86307c0.99652,-0.05077 2.17357,-0.08123 3.61925,-0.06092l2.3541,0.05077l1.30559,0.05077l1.38646,0.15231c7.65877,0.66 19.24586,3.04614 33.24626,10.03226l-2.60251,-1.34045l-1.30703,-0.68031l-1.32581,-0.58892l-5.35522,-2.35568c-1.79518,-0.77169 -3.64958,-1.36061 -5.47509,-2.03091l-2.74116,-1.01538l-2.80181,-0.82246c-7.35982,-2.65014 0.35817,-1.3403 0.64702,-2.21353l2.84225,0.83261l2.69205,1.01538l4.78619,1.69569c2.75271,1.12722 4.60711,1.82783 4.70676,1.6146c0.18053,-0.41631 0.5387,-1.26937 0.72789,-1.68568c-1.86451,-0.78184 -4.11751,-1.91907 -6.75035,-2.80245c-2.63284,-0.88338 -5.42454,-2.03076 -8.35634,-2.84321l-4.31826,-1.26923c-1.41535,-0.42646 -2.85092,-0.67015 -4.19694,-1.01538l-3.87921,-0.96461c-1.18716,-0.29446 -2.32377,-0.396 -3.31163,-0.57877c0.99797,0.17261 1.99449,0.28431 2.99245,0.49754l2.84225,0.62954l4.9855,1.09661c2.92169,0.80215 4.88584,1.25907 4.9855,1.01538l0.51848,-1.76676c9.20844,2.61718 18.06881,6.36806 26.38615,11.16948c8.23213,4.86691 16.10032,10.34467 23.54246,16.38869l0.86798,-1.01553c-7.28327,-6.40617 -15.21934,-11.99915 -23.67388,-16.683c-8.5152,-4.63867 -17.47234,-8.38116 -26.73421,-11.16948l2.68339,0.59907c0.76689,0.18277 1.42546,0.38584 1.99449,0.51784c0.80299,0.22765 1.62332,0.38717 2.45231,0.47723c1.0774,0.09138 1.19727,-0.23354 1.35614,-0.67015c11.82539,4.31272 22.97921,10.33849 33.11628,17.89145c10.01432,7.48497 19.46972,15.71544 28.28965,24.62357l-4.29804,-4.5389c-0.72789,-0.75138 -1.41535,-1.53322 -2.17357,-2.25415l-2.26311,-2.16291c-1.51645,-1.43169 -2.99101,-2.90399 -4.54789,-4.30521l-4.76597,-4.06167c1.76485,1.14738 3.82866,2.56891 5.98346,4.31552c2.15335,1.74645 4.47713,3.8686 6.97998,6.09243c2.50286,2.22368 4.87573,4.90429 7.35837,7.65612l3.70013,4.29521l1.88473,2.20338c0.61813,0.74123 1.19727,1.53322 1.80529,2.29476c4.86562,6.09243 9.51317,12.73317 13.70145,19.16067c4.18683,6.42751 7.81764,12.77378 10.96896,18.15545l0.00001,-0.00001z" fill="#24244C" id="svg_33" stroke="null"/>
    <path d="m482.61561,429.76619c-3.69002,-6.09228 -7.27027,-12.43768 -10.67,-19.02882c-1.71575,-3.28895 -3.36073,-6.66031 -4.9855,-10.0817c-0.79866,-1.71732 -1.60599,-3.44346 -2.38443,-5.19904l-0.29896,-0.66073l-0.42894,-1.01538l-0.99652,-2.29417c-0.64846,-1.53337 -1.28681,-3.04614 -1.93527,-4.62072c0.65857,-1.87772 1.32725,-3.75691 1.99449,-5.64493l0.9272,-2.57966l0.60947,-1.63491c0.81744,-2.18233 1.65509,-4.35584 2.54185,-6.50859c1.75474,-4.32567 3.6308,-8.61734 5.62385,-12.87532c4.00197,-8.60749 8.42566,-17.00527 13.25373,-25.16172c9.79768,-16.6777 21.51331,-32.10575 34.89991,-45.95716l1.25648,-1.31999l1.31714,-1.25922l2.63284,-2.50799l2.63139,-2.49784c0.86798,-0.84291 1.82551,-1.59429 2.73249,-2.39645c1.8544,-1.56369 3.64958,-3.17814 5.54441,-4.68105c1.89483,-1.50276 3.83877,-2.95476 5.76394,-4.41691c7.79453,-5.67716 16.06999,-10.63516 24.72962,-14.81485c16.82821,-7.95367 35.01545,-12.49903 53.54786,-13.38298c19.81633,-1.1582 39.64566,2.0453 58.13619,9.39254l6.97998,3.04614l6.76046,3.40167c1.14672,0.54831 2.22412,1.19815 3.31163,1.83784l3.24953,1.8683c2.22412,1.22876 4.29804,2.66044 6.40229,4.06167c8.39533,5.60461 16.26641,11.98473 23.51357,19.05914c1.87462,1.69569 3.58026,3.54383 5.335,5.3512c1.75474,1.80738 3.5196,3.6046 5.1357,5.53397l4.9855,5.68628l4.67643,5.8792c6.15677,7.86994 11.84705,16.10585 17.04196,24.66419c5.16602,8.48284 9.89011,17.23778 14.1506,26.22787c2.15335,4.47798 4.14784,9.02688 6.07156,13.6064c0.95175,2.29476 1.87462,4.60689 2.77293,6.9349l0.65857,1.74675l0.39861,1.06689l0.59791,1.66434l2.37288,6.66178c-1.19583,2.87691 -2.38876,5.74352 -3.57881,8.59983c-0.65857,1.50247 -1.30703,3.04614 -1.99449,4.48828c-1.34603,2.97551 -2.73249,5.89951 -4.15939,8.80291c-2.84514,5.80827 -5.83615,11.50912 -8.97447,17.0996c-3.12099,5.58459 -6.42106,11.04852 -9.80202,16.44034c-3.37951,5.39182 -6.92943,10.63059 -10.65989,15.7281c-0.72789,-0.55772 3.07189,-8.19368 -2.19379,-1.64521c-1.28537,1.66581 -2.51297,3.19918 -3.70879,4.60012l-3.34051,3.94968c-2.16346,2.38688 -4.04819,4.39704 -5.6845,6.09228c-1.63487,1.69672 -3.10077,3.04614 -4.32692,4.12333c-1.2276,1.07571 -2.24434,1.92922 -3.0921,2.56788c-0.96619,0.88441 -2.1418,1.49953 -3.40984,1.78795c-0.25419,0.02207 -0.50837,-0.01913 -0.74378,-0.1192c-0.23397,-0.10154 -0.44049,-0.259 -0.60225,-0.45913c-0.17042,-0.17364 0.86798,-1.31999 2.2429,-3.04614c1.37635,-1.72762 3.2813,-3.80841 4.98694,-5.73764c3.27986,-3.97029 5.85348,-7.1886 2.92169,-4.2852l2.99101,-3.72601c0.99652,-1.29056 1.99449,-2.66059 3.06178,-4.06152c2.10425,-2.7224 4.1074,-5.6361 6.112,-8.46886c3.89943,-5.73764 7.52879,-11.35166 10.09231,-15.81051c1.67098,-2.69738 3.18309,-5.49483 4.52623,-8.37615c0.23974,-0.75197 -0.99652,0.93444 -4.30815,6.09228c-2.52163,3.24922 -7.9765,11.92116 -13.95996,20.15604c-1.48612,2.03076 -2.99101,4.06152 -4.55656,6.03048c-0.75822,0.96535 -1.48612,1.92922 -2.22412,2.83276l-2.19379,2.56935c-1.41535,1.64521 -2.72238,3.12708 -3.8691,4.36614c-0.93875,1.00067 -1.93816,1.93952 -2.99101,2.81363c-3.19176,2.59879 -2.3541,0.59893 -1.52656,-1.3715c0.82755,-1.97043 1.63632,-3.91878 -1.515,-1.38033c-1.33592,1.48187 -2.99245,3.41109 -4.82663,5.40212c-1.83418,1.98956 -3.98897,4.15276 -6.05278,6.28506l-6.31275,5.99075l-5.43465,4.69135c-1.62476,1.13752 -2.23279,1.15665 -2.21257,0.7814c0.27296,-0.7608 0.65568,-1.47598 1.13661,-2.122c1.1265,-1.72615 2.30355,-3.35076 -0.64846,-0.7917c-1.1265,0.93444 -2.35266,1.76588 -3.57015,2.66942l-3.72901,2.74153c-1.26659,0.92414 -2.61262,1.75705 -3.98897,2.67089c-1.37635,0.91384 -2.66172,1.85859 -4.08863,2.69149c-2.85092,1.65551 -5.68306,3.54353 -8.77517,5.0769c-1.52511,0.7814 -2.99101,1.67464 -4.62588,2.40601l-4.77753,2.27504l-1.21604,0.56802l-1.25648,0.47826l-2.51297,1.01538l-2.53319,1.01538c-0.83766,0.33405 -1.72442,0.55772 -2.58229,0.85204c-1.74463,0.52829 -3.4806,1.12722 -5.25557,1.62461l-5.3841,1.31999c-7.33671,1.5731 -14.80917,2.40307 -22.30764,2.47812c0,-0.46796 -1.99304,-0.92414 -1.99304,-1.3303c0,-0.20308 0.49826,-0.38555 1.99304,-0.5592c1.49623,-0.17217 3.70013,-0.41498 7.38004,-0.69016c7.96639,-0.61953 15.83747,-2.15879 23.46302,-4.58981l2.86247,-0.90354c0.99652,-0.28401 1.88473,-0.71077 2.82203,-1.01538l2.82203,-1.09632c0.93731,-0.36495 1.87462,-0.72107 2.78159,-1.17725l5.50398,-2.55905l5.36533,-2.90487c7.11718,-4.11156 13.89642,-8.79997 20.27271,-14.02255c1.60599,-1.31999 3.15132,-2.73123 4.73709,-4.06152c0.777,-0.69016 1.58432,-1.3509 2.34255,-2.03076l2.26311,-2.1735c1.50634,-1.47157 3.06178,-2.8622 4.51756,-4.39557l4.35725,-4.57951c11.51921,-12.60544 21.81804,-26.31308 30.75352,-40.93161c4.53778,-7.32104 8.79538,-14.85546 12.76414,-22.54145c1.99449,-3.83784 3.88932,-7.71689 5.70328,-11.63715c0.91709,-1.94983 1.79518,-3.90848 2.65306,-5.87891l0.64846,-1.47304l0.13865,-0.33405l0,-0.06181l0.09965,-0.25311l-0.10976,-0.26488l-0.81744,-2.1323c-0.81022,-2.07049 -1.64209,-4.1351 -2.49275,-6.19382c-1.72442,-4.11156 -3.52971,-8.20398 -5.46498,-12.23519c-3.82144,-8.07434 -8.04149,-15.94707 -12.64427,-23.58773c-4.58255,-7.6233 -9.57527,-14.9826 -14.95649,-22.0445c-2.76282,-3.43199 -5.40577,-6.99612 -8.34623,-10.24549l-2.1548,-2.47753l-1.0774,-1.24892l-1.1265,-1.188l-4.51612,-4.73182c-6.099,-6.15703 -12.64138,-11.8389 -19.57515,-16.99791c-6.93521,-4.92754 -14.30658,-9.18684 -22.01735,-12.72301l-2.91158,-1.28953c-0.99797,-0.40615 -1.91505,-0.88338 -2.91158,-1.2083l-5.98346,-2.1426l-5.98346,-1.75661c-0.50837,-0.14215 -0.99652,-0.31477 -1.515,-0.42646l-1.55688,-0.34523l-2.99101,-0.67015c-16.51481,-3.49011 -33.564,-3.43831 -50.05859,0.15231l-3.06033,0.69046l-1.52656,0.34523c-0.50837,0.12185 -0.99652,0.29446 -1.515,0.43661l-5.98346,1.79722l-5.90258,2.17306c-0.99797,0.33508 -1.93527,0.8123 -2.90291,1.22861l-2.88125,1.26923c-7.66599,3.57296 -14.9897,7.86287 -21.87726,12.8144c-6.92077,5.134 -13.45448,10.78879 -19.54482,16.91668l-4.48723,4.74197l-1.11784,1.188l-1.06584,1.24892l-2.13458,2.48783c-2.91158,3.24922 -5.5343,6.82351 -8.26679,10.25549c-5.31334,7.06528 -10.24251,14.42105 -14.76874,22.03435c-4.53489,7.63581 -8.6914,15.49809 -12.45363,23.55727c-1.91505,4.06167 -3.69002,8.1229 -5.39566,12.18442c-0.85065,2.03076 -1.66809,4.08948 -2.45231,6.17469l-0.5878,1.5525l-0.1502,0.38702c0,0.13097 0,0.09124 0,0.09124l0,-0.0515l0.07943,0.16334l0.61813,1.42153c0.82755,1.88802 1.69553,3.77604 2.58373,5.66553c1.74463,3.77751 3.61925,7.51382 5.51409,11.22952c3.84888,7.4476 7.9534,14.70389 12.31498,21.77035c4.36736,7.10914 8.97447,13.99312 13.88053,20.65343l3.72901,4.93563c1.24637,1.63491 2.57362,3.19771 3.84888,4.80319c2.53319,3.24922 5.27579,6.26446 7.97795,9.3415c5.37688,6.00988 11.12205,11.66658 17.20083,16.93626l2.26456,1.97043c0.76689,0.64013 1.56555,1.23906 2.34255,1.85859c1.57566,1.20816 3.11088,2.47665 4.70676,3.65537l4.85696,3.41109l1.21604,0.84321l1.25648,0.7711l2.49275,1.55397c6.6247,4.12627 13.64079,7.56091 20.94139,10.25534c7.19662,2.6444 14.64598,4.51624 22.22676,5.58459c3.60914,0.40615 6.43117,0.85351 8.58597,0.93444c2.15335,0.08094 3.60914,0.33552 4.46702,0.49739c0.85787,0.16334 1.22615,0.27371 0.99652,0.42675c-0.25707,0.1192 -0.52859,0.20013 -0.80733,0.24428c-0.3885,0.08094 -0.83766,0.14127 -1.42546,0.20308c-1.15683,0.13097 -2.72238,0.26341 -4.60711,0.38555c-0.99652,0.07211 -1.99449,0.08977 -2.99245,0.05003l-3.41995,-0.06033l-1.84429,-0.0515l-1.88473,-0.18247l-3.98897,-0.39585c-1.36625,-0.09124 -2.71227,-0.41645 -4.09874,-0.62983l-4.16806,-0.7402c2.48697,0.42087 4.92773,1.08454 7.28905,1.97926c2.41331,0.77552 4.90606,1.2626 7.42914,1.45244c0,0.16923 -0.25852,0.3311 -0.777,0.48709c-0.72356,0.1398 -1.45723,0.21779 -2.19379,0.23398c-2.91591,0.1398 -5.83904,-0.01324 -8.72606,-0.45766l-3.08055,-0.43706c-1.08751,-0.14127 -2.2039,-0.46649 -3.39106,-0.7196l-3.74923,-0.89471c-1.3157,-0.30461 -2.63284,-0.8123 -4.03808,-1.24789c-1.40668,-0.43706 -2.86247,-0.91384 -4.3587,-1.48334l-4.60566,-1.91892c-0.78855,-0.34582 -1.60599,-0.65926 -2.41331,-1.01538l-2.44364,-1.22876c-1.63487,-0.86234 -3.38095,-1.66434 -5.08515,-2.68119c6.84278,3.98353 14.01629,7.34459 21.43965,10.04344c3.66835,1.45096 3.58892,1.74675 2.52163,1.84829c-1.06584,0.10154 -3.12099,-0.07211 -3.25964,0.32374l-5.51553,-2.1117l-1.29548,-0.49739l-1.20738,-0.54889l-2.23279,-1.01538c-1.37635,-0.60923 -2.53319,-1.09632 -3.36073,-1.40093c-0.82755,-0.30461 -1.29692,-0.50769 -1.35614,-0.39585c-0.1993,0.41645 -0.59791,1.23906 -0.80733,1.65551c1.80385,0.95357 4.16806,1.94983 6.70991,3.14768c1.26659,0.62983 2.65306,1.12722 4.04963,1.67464l4.26771,1.64521c1.44568,0.51799 2.92169,0.93444 4.35725,1.3921c1.43557,0.45619 2.82203,0.92267 4.18828,1.26849c2.73249,0.65043 5.21513,1.27879 7.20962,1.71585c-7.97795,-1.67464 -15.74504,-4.37644 -15.89524,-3.93938l-0.59791,1.73645c-9.23588,-3.13444 -18.04859,-7.43141 -26.23595,-12.7938c-8.09493,-5.305 -15.83314,-11.153 -23.16407,-17.50575l-0.89831,1.01538c7.15618,6.70298 14.94927,12.66577 23.26516,17.80006c8.36789,5.17256 17.24415,9.4401 26.48436,12.73346c-2.32955,-0.85498 -4.72409,-1.5113 -7.15907,-1.96013c-1.08751,-0.15304 -1.21749,0.14127 -1.38646,0.57833c-11.71563,-5.01363 -22.68891,-11.66069 -32.60791,-19.74989c-9.76735,-7.97295 -19.05522,-16.53893 -27.81161,-25.64793c5.56319,6.33509 11.48022,12.33908 17.72075,17.98254c-2.03781,-1.42595 -4.00197,-2.95785 -5.88381,-4.58981c-2.2039,-1.78795 -4.42802,-4.00119 -6.82112,-6.36747c-2.3931,-2.36481 -4.80641,-5.0769 -7.28905,-7.83756c-2.48264,-2.76213 -4.87573,-5.84948 -7.36848,-8.91622c-4.85696,-6.21442 -9.57383,-12.8453 -13.8011,-19.29223c-4.22872,-6.4484 -8.06749,-12.68196 -11.36756,-18.05465l0.00004,0.00003z" fill="#24244C" id="svg_34" stroke="null"/>
    <path d="m806.02868,431.86906c-3.94854,-6.3969 -7.73821,-13.06604 -11.36756,-20.00447c-1.82551,-3.4626 -3.56004,-7.01643 -5.2859,-10.62029c-0.84777,-1.80708 -1.69409,-3.62594 -2.51297,-5.48306l-0.69756,-1.57458l-0.99652,-2.42661l-1.99449,-4.88413l1.94394,-5.51396l0.9272,-2.59879l0.59936,-1.59371c0.79722,-2.12347 1.61465,-4.24517 2.47253,-6.34701c1.70564,-4.22398 3.53982,-8.4075 5.46498,-12.57071c3.85899,-8.30596 8.13681,-16.52069 12.84357,-24.54234c4.72698,-8.06286 9.88,-15.85907 15.43597,-23.35434c1.35614,-1.90892 2.82203,-3.74675 4.27782,-5.58459c1.45579,-1.83799 2.88125,-3.70629 4.39769,-5.50351c3.09066,-3.55398 6.09178,-7.16873 9.41352,-10.52979c3.32029,-3.36106 6.66081,-6.66104 10.06053,-9.91041c1.75474,-1.56369 3.56004,-3.04614 5.335,-4.60983c0.90698,-0.75138 1.76485,-1.55368 2.70216,-2.26445l2.79315,-2.14245c3.65969,-2.9446 7.588,-5.50351 11.447,-8.12319c3.98897,-2.39645 7.97795,-4.88413 12.10557,-6.92504c8.13393,-4.24473 16.66646,-7.64641 25.46762,-10.1541c1.08751,-0.31477 2.14469,-0.70061 3.24086,-0.9443l3.2813,-0.77169c2.18368,-0.48738 4.33703,-1.09661 6.53083,-1.41153l6.52216,-1.11687l6.50194,-0.72093c26.07998,-2.56289 52.35059,2.21747 75.9436,13.8196c24.19525,11.93381 44.67738,30.45083 59.17893,53.50232c14.50155,23.0515 22.45784,49.73879 22.98932,77.10977c0.27007,13.47955 -1.24349,26.93702 -4.49734,40.006l-1.32725,4.83409l-0.67735,2.40601l-0.77844,2.37658l-1.58432,4.72078c-0.59936,1.55103 -1.19438,3.09765 -1.78507,4.64132c-0.30907,0.7711 -0.58925,1.5422 -0.91853,2.30447l-0.99652,2.26474c-0.67879,1.51277 -1.32581,3.04614 -1.99449,4.51771c-1.49623,2.92547 -2.88125,5.90981 -4.54645,8.72344c-0.40005,-0.23398 0.18919,-2.40748 0.25852,-3.59504c0.06932,-1.18755 -0.29896,-1.3818 -2.62273,2.22354c-2.32377,3.60534 -4.4078,6.69121 -6.29253,9.3518l-2.8307,3.56413c-0.86798,1.09632 -1.69553,2.0911 -2.51297,2.96521c-1.62621,1.75705 -2.99245,3.22862 -4.16806,4.35584c-1.17705,1.12722 -2.23423,1.98073 -3.07189,2.63999c-0.95175,0.90648 -2.12158,1.53926 -3.39106,1.83799c-0.2513,0.02649 -0.50693,-0.0103 -0.74089,-0.10742c-0.23541,-0.09859 -0.44194,-0.25311 -0.60513,-0.4503c-0.29896,-0.29578 3.84022,-4.8547 6.98143,-8.92652c0.777,-1.01538 1.52511,-2.03076 2.16346,-2.81216c0.63835,-0.7814 1.08606,-1.57458 1.40524,-2.03076c0.61813,-1.01538 0.51848,-1.01538 -0.82755,0.49739c3.93409,-5.48453 7.46958,-11.25454 10.58046,-17.26147c2.84659,-5.56988 5.30323,-11.33842 7.34971,-17.26294c1.59443,-4.89296 2.53174,-8.35555 2.53174,-9.13843c0,-0.7814 -0.60802,1.16842 -2.81192,6.87516c-0.41883,0.93444 -0.99652,2.21324 -1.6652,3.75691c-0.66724,1.54367 -1.36625,3.39049 -2.31366,5.33001c-0.94742,1.93952 -1.80385,4.12333 -2.99101,6.27623c-1.18716,2.15143 -2.22412,4.44707 -3.52971,6.61028l-1.87462,3.29925l-1.99449,3.11825c-0.67879,1.01538 -1.29692,2.03076 -1.99449,2.97404l-1.99449,2.7018c-0.64846,0.85204 -1.23626,1.68494 -1.8544,2.43691l-1.75474,2.03076c-0.87521,1.03451 -1.8154,2.01163 -2.81337,2.924c-3.12099,2.61939 -2.32233,0.62983 -1.57421,-1.31999c0.74667,-1.94983 1.3648,-3.94968 -1.55688,-1.3303c-1.28537,1.47304 -2.80181,3.38166 -4.61577,5.34179c-1.8154,1.95865 -3.79978,4.11156 -5.92425,6.09228c-2.12302,1.97926 -4.27782,3.95998 -6.27231,5.73617c-1.99304,1.77765 -3.98753,3.19918 -5.46354,4.42794c-3.39106,1.90862 -2.2039,0.21338 -0.99797,-1.3921c1.20738,-1.60401 2.3541,-3.19771 -0.61813,-0.82113c-5.01871,3.49644 -10.21507,6.72359 -15.56595,9.66672c-5.98202,3.22273 -12.17634,6.02165 -18.53674,8.37615c-13.88198,5.0563 -28.50484,7.67716 -43.24758,7.7478c0,-0.46649 -1.99449,-0.92414 -1.99449,-1.3303c0,-0.20308 0.48815,-0.38555 1.99449,-0.55772c1.50489,-0.17364 3.69868,-0.35612 7.3887,-0.66073c24.64152,-1.53926 48.29229,-10.43046 68.00464,-25.56552c19.71235,-15.13506 34.61107,-35.84441 42.84175,-59.54545c2.02048,-5.89951 3.63369,-11.93587 4.82663,-18.06495c1.13517,-6.14673 1.86451,-12.3641 2.18368,-18.61237c0.2383,-6.24091 0.0751,-12.49213 -0.4896,-18.71391c-0.63257,-6.21516 -1.69842,-12.37734 -3.19031,-18.43902c-6.099,-24.39827 -19.14765,-46.41482 -37.50531,-63.27941c-18.35766,-16.86459 -41.20255,-27.82364 -65.66209,-31.49843c-6.06145,-0.85248 -12.17056,-1.29689 -18.28833,-1.3303l-4.597,0.16246c-1.52656,0.06092 -3.07189,0 -4.58689,0.24369c-2.99245,0.31492 -6.10333,0.48753 -9.09434,1.01553c-12.07524,1.82886 -23.78798,5.59902 -34.70205,11.16933c-11.03395,5.68054 -21.28367,12.81955 -30.48344,21.2322c-9.32109,8.61631 -17.79441,18.13852 -25.29865,28.43125l-2.84225,3.89921l-2.72238,3.97029c-0.91709,1.35384 -1.80385,2.70768 -2.66172,4.06152c-0.86798,1.35046 -1.76485,2.69091 -2.60251,4.06167c-3.40406,5.4832 -6.60881,11.09502 -9.61282,16.83545c-2.99245,5.72689 -5.82315,11.58579 -8.43577,17.50546c-1.28681,2.97448 -2.5433,5.94998 -3.73046,8.95639c-0.59791,1.50247 -1.17561,3.00494 -1.73452,4.50741l-0.10976,0.27518l0,0.06033l0,-0.05003l0.07943,0.16187l0.61813,1.42153c0.83766,1.88802 1.69553,3.78781 2.58373,5.67583c1.75474,3.77751 3.62936,7.51382 5.5343,11.24129c3.83877,7.41228 7.9765,14.70242 12.32509,21.78948c4.34714,7.08853 8.97447,14.00342 13.90075,20.66373l3.72901,4.94593c1.25648,1.63491 2.57218,3.19771 3.85899,4.80172c2.53319,3.24922 5.28445,6.26593 7.9765,9.3518c5.41877,6.02165 11.20726,11.68424 17.33225,16.95833l2.26311,1.97926l2.35266,1.84829c1.57566,1.20816 3.11232,2.48842 4.71687,3.65537l4.85696,3.41256c0.79722,0.58863 1.63487,1.10662 2.47253,1.61431l2.50286,1.5525l2.50286,1.56427l2.57218,1.39063l2.57362,1.3921l1.28537,0.70047c0.42894,0.22368 0.87809,0.41645 1.31714,0.61953l5.27434,2.46634l5.38555,2.10287c7.20673,2.60026 14.65897,4.43089 22.23687,5.46245c3.57015,0.40615 6.35174,0.83291 8.47621,0.91384c2.12302,0.08094 3.56004,0.33552 4.4078,0.49739c0.84632,0.16334 1.20594,0.27518 0.99652,0.42675c-0.25419,0.11773 -0.52281,0.20013 -0.79722,0.24428c-0.46504,0.09124 -0.93442,0.15893 -1.40668,0.20308c-1.14672,0.13097 -2.69205,0.26341 -4.54645,0.38555c-0.45927,0 -0.99797,0.08094 -1.44712,0.08094l-1.54533,0l-3.37951,-0.06033l-1.8154,0c-0.60802,0 -1.22615,-0.11184 -1.86451,-0.17364l-3.90954,-0.37525c-1.33592,-0.09124 -2.68194,-0.37525 -4.03808,-0.59893l-4.11896,-0.72107c2.4552,0.41057 4.86562,1.05658 7.19951,1.92922c0.89831,0.26341 1.79518,0.53859 2.99245,0.7917c0.56758,0.12214 1.19583,0.25458 1.92372,0.36642c0.81455,0.1501 1.63776,0.23839 2.46386,0.26341c0,0.34582 -0.99797,0.67986 -2.93179,0.74167c-0.99797,0.05003 -2.16346,0.06033 -3.61058,0c-1.66953,-0.03826 -3.33474,-0.18836 -4.9855,-0.44736c-7.588,-0.94475 -19.03645,-3.78781 -32.79711,-11.31193c6.79656,3.85256 13.89497,7.1268 21.22013,9.78886c7.28905,2.75183 -0.40872,1.31999 -0.738,2.1838c-7.47824,-2.67089 -14.5781,-6.22473 -14.79762,-5.78767l-0.79866,1.65404l6.64203,3.04614c2.54185,1.10662 5.40432,2.122 8.21625,3.23009l4.30815,1.34943l2.09414,0.65043l0.99652,0.32522l0.99797,0.24281c2.70216,0.64013 5.14581,1.28026 7.12007,1.67611c-7.90862,-1.60401 -15.54718,-4.2852 -15.70604,-3.80841l-0.5878,1.74675c-9.08279,-3.07116 -17.76552,-7.25482 -25.85756,-12.45828c-1.0774,-0.69164 -2.16346,-1.3715 -3.25097,-2.03076c-1.08606,-0.66073 -2.08403,-1.47304 -3.12099,-2.19411c-1.99449,-1.48187 -4.14784,-2.84307 -5.98346,-4.39704l-5.5733,-4.33523c-1.73597,-1.47598 -3.39684,-2.86367 -4.9855,-4.16306l-0.8882,1.01538l4.86562,4.37644c1.7663,1.46274 3.65969,2.924 5.58485,4.44707c1.92516,1.52307 3.98897,2.9343 6.10333,4.40734c1.05573,0.72107 2.09414,1.48187 3.19031,2.1735l3.31018,2.03076c8.30434,5.02981 17.08384,9.19729 26.20562,12.43768c-7.91729,-2.55905 -8.11659,-2.1426 -8.45599,-1.29939c-11.58131,-4.89001 -22.44628,-11.38256 -32.28729,-19.29223c-9.73558,-7.8199 -19.00612,-16.22255 -27.76251,-25.16231l2.05514,2.33538l2.15335,2.24414l4.31826,4.48828c1.47601,1.47157 2.99101,2.88427 4.49734,4.32493c1.50489,1.44213 2.99101,2.88427 4.60711,4.21457c-2.04937,-1.3509 -4.0063,-2.84454 -5.85348,-4.46767c-1.07162,-0.9006 -2.18368,-1.86153 -3.34051,-2.88427c-1.11784,-1.01538 -2.25445,-2.18233 -3.44017,-3.35076c-1.18716,-1.16695 -2.38443,-2.39571 -3.62069,-3.65537c-1.23626,-1.25819 -2.3931,-2.65029 -3.61925,-4.06152c-1.22615,-1.41123 -2.49275,-2.78273 -3.71024,-4.2543l-3.61925,-4.50888c-2.48264,-3.04614 -4.78619,-6.21442 -7.14029,-9.37241c-2.35266,-3.15798 -4.52623,-6.4072 -6.61026,-9.59461c-4.24894,-6.27623 -8.06749,-12.40825 -11.30835,-17.68823l0.00001,0z" fill="#24244C" id="svg_35" stroke="null"/>
    <path d="m541.63711,276.83662c-3.79834,2.90414 -7.31938,6.22443 -10.96896,9.44333c-3.41995,3.45229 -6.97998,6.78289 -10.20062,10.52964l-2.47253,2.73152c-0.40872,0.46708 -0.83766,0.91384 -1.23626,1.38092l-1.17705,1.44184l-4.71687,5.76751c-1.54533,1.95968 -2.99101,4.06167 -4.50745,6.0112l-2.253,3.04629l-2.16491,3.10706c-5.77838,8.42634 -11.07294,17.18701 -15.8548,26.23803c-0.59791,1.14738 -1.21604,2.28475 -1.79518,3.44229l-0.88676,1.7363l-0.43905,0.86307l-0.62824,1.27938l-1.48612,3.04629c-0.49826,1.01538 -0.99652,1.97999 -1.49478,3.12737c-0.99797,2.22383 -1.99449,4.38659 -2.99245,6.6815c-1.99449,4.54891 -3.98897,9.27028 -5.91269,14.00284c-1.92516,4.73109 -3.89943,9.37241 -5.85348,14.07259l-7.46958,-17.8501c-2.52163,-6.09273 -5.06493,-11.911 -7.71799,-17.56682l-1.93383,-3.95998l-0.99797,-1.96999l-0.3885,-0.77169l-0.28885,-0.55846c-0.76833,-1.49261 -1.52511,-3.04614 -2.33388,-4.47798c-1.56122,-2.97168 -3.19031,-5.9129 -4.88584,-8.82381c-3.36073,-5.82843 -6.97998,-11.54517 -10.73932,-17.0893l-2.90147,-4.14275l-2.99245,-4.06167l-3.04156,-4.06167c-0.99652,-1.3403 -2.12302,-2.59937 -3.19031,-3.90922c-8.47765,-10.43635 -18.03993,-19.90764 -28.51929,-28.24863c-10.43892,-8.31376 -21.93791,-15.14551 -34.18357,-20.30806c-12.29476,-5.03364 -25.25676,-8.17852 -38.45995,-9.33164c-13.2884,-1.14002 -26.66893,-0.29858 -39.71817,2.49798c-6.51927,1.4308 -12.93326,3.32059 -19.1956,5.65582c-12.53465,4.73756 -24.32003,11.31958 -34.98079,19.53637c-5.30987,4.11347 -10.33739,8.59174 -15.04747,13.40332c-9.37813,9.65141 -17.34106,20.62915 -23.64298,32.59446c-3.11088,5.96293 -5.81304,12.13777 -8.08713,18.48037c-2.22239,6.3604 -4.01815,12.86723 -5.37472,19.47544c-5.1731,25.98462 -2.97888,52.93194 6.32647,77.69399c9.30549,24.76204 25.33778,46.31755 46.22458,62.14718l3.83921,2.78273c0.64817,0.45619 1.27641,0.92414 1.92459,1.37003l1.99434,1.28026c1.32624,0.85204 2.62258,1.74675 3.98869,2.54875l4.06841,2.36628c5.43075,3.05056 11.06153,5.71703 16.85233,7.9803c2.84196,1.20816 5.80351,2.03076 8.70526,3.10648c1.4659,0.44736 2.99159,0.84321 4.41748,1.26996l2.21372,0.62983l2.23365,0.52829l4.45748,1.01538l4.48723,0.7917l2.24362,0.40615l2.25358,0.27371l4.49734,0.5695l6.76046,0.48709c2.25445,0.08094 4.51756,0.09124 6.78068,0.15157c13.47903,-0.11037 26.84253,-2.53698 39.52868,-7.1783c8.53542,-3.23597 16.73867,-7.31663 24.48987,-12.18457c1.92516,-1.26996 3.90954,-2.43691 5.80438,-3.77751l5.64407,-4.06152c1.87462,-1.3715 3.64958,-2.91517 5.48376,-4.36614c0.89831,-0.74167 1.82551,-1.45244 2.71227,-2.21471l2.62273,-2.35451l2.63284,-2.35598c0.87809,-0.78287 1.75474,-1.56427 2.58229,-2.41631l5.04615,-4.98567c1.68542,-1.66581 3.24086,-3.4832 4.87573,-5.20934l2.42342,-2.61939c0.80733,-0.87411 1.54533,-1.81886 2.32377,-2.7224l4.63599,-5.48306l4.41791,-5.67583l2.2039,-2.84307l2.11436,-2.924c1.42546,-1.92922 2.78159,-3.94968 4.16806,-5.93041c5.46498,-8.02151 10.59346,-16.2976 15.38687,-24.82679c1.18572,-2.1426 2.38299,-4.2749 3.52971,-6.4278l0.67735,-1.25819l0.83766,-1.61431l1.6652,-3.24039l1.65509,-3.24922l1.6161,-3.33015l1.62476,-3.35076l1.59588,-3.45229l3.20042,-6.94579l6.34308,-13.81948c3.81855,8.22458 7.81764,16.91713 11.74595,25.27415l2.99245,6.09228l3.09066,5.97014l0.78855,1.49217l0.65713,1.21846l0.80733,1.48334l1.64643,2.9549c4.40058,7.85228 9.10734,15.51178 14.12027,22.97851c2.51152,3.7157 5.07504,7.41228 7.73676,10.98671c1.28681,1.82769 2.72238,3.52293 4.06841,5.30058c1.34747,1.77618 2.71372,3.53323 4.14928,5.22847l4.31682,5.0769c0.72789,0.83291 1.41679,1.70702 2.17502,2.51932l2.26311,2.41631c1.50634,1.61431 2.99101,3.25952 4.52767,4.84292l4.72553,4.61042c0.79866,0.7608 1.55544,1.56427 2.37432,2.28387l2.46242,2.1838c1.65509,1.42153 3.25097,2.9446 4.9855,4.3058l5.10537,4.06152l1.28681,1.01538l1.32581,0.94327l2.64295,1.87919l2.65306,1.88802c0.86654,0.65043 1.81396,1.16842 2.72238,1.75705c1.82407,1.14782 3.63947,2.31477 5.47365,3.43169l5.64407,3.09765l1.40668,0.7814l1.44568,0.68134l2.90147,1.35973c7.65877,3.6436 15.68294,6.43222 23.9324,8.31582c8.20903,1.83946 16.58414,2.80039 24.98958,2.86367c8.38811,-0.08535 16.74445,-1.07571 24.92892,-2.9549c8.25235,-1.90568 16.27796,-4.72226 23.9324,-8.39676l2.88125,-1.3715c0.47949,-0.23251 0.99797,-0.44588 1.44568,-0.69016l1.39657,-0.7814l5.62385,-3.11678l5.46498,-3.45377c1.84429,-1.10662 3.58026,-2.40601 5.34511,-3.66567l2.63284,-1.88802l1.32581,-0.95505l1.26659,-1.01538l5.09526,-4.06152c1.68542,-1.38033 3.2813,-2.8931 4.92628,-4.32493l2.45231,-2.1838c0.81744,-0.7299 1.57566,-1.53337 2.37432,-2.29417l4.70531,-4.62072c1.51645,-1.59371 2.99245,-3.22862 4.51756,-4.84292l2.25445,-2.42661c0.74667,-0.8123 1.44568,-1.68641 2.16346,-2.51785l4.30815,-5.0769c1.42546,-1.70702 2.76138,-3.5038 4.13773,-5.24025c1.37635,-1.73645 2.78159,-3.4832 4.07852,-5.30058c2.67183,-3.57443 5.21513,-7.24011 7.71799,-10.93521c4.9855,-7.43288 9.65326,-15.08944 13.95996,-22.94907l1.6161,-2.9446l0.79722,-1.48187l0.738,-1.3715l0.78855,-1.53337l3.15998,-6.17322l3.06178,-6.34687c3.98897,-8.71167 8.00394,-17.4204 12.04635,-26.12619l6.57126,14.26683l3.32029,7.1886l1.65509,3.58474l1.67531,3.4729l1.67531,3.4626l1.72586,3.37136l1.72442,3.36106l0.87809,1.67464l0.70767,1.31999c1.14672,2.1529 2.34399,4.2852 3.53982,6.4278c4.81652,8.49977 9.97244,16.76408 15.48652,24.72526c11.14804,15.82964 23.45291,30.64537 37.61363,42.93147c13.71445,12.3435 29.56202,21.9852 46.73685,28.43066c8.39244,2.97698 17.09106,4.97389 25.92689,5.95101c2.2039,0.22368 4.39769,0.51799 6.6117,0.52829l3.31018,0.11184c1.09617,0 2.19379,0.10154 3.3304,0c2.23423,-0.09271 4.47713,-0.06181 6.71135,-0.23398c2.23279,-0.17217 4.46702,-0.29431 6.68103,-0.5592c0,0.11184 -0.32929,0.28548 -0.8882,0.47826c-0.55747,0.19278 -1.35614,0.36495 -2.2429,0.56802c-1.75474,0.38555 -3.88932,0.88294 -5.31478,1.17872c-1.4269,0.29431 -2.1548,0.55772 -1.05718,0.7402c1.09617,0.18247 3.98897,0.21338 9.80202,-0.22368c10.2064,-1.00214 20.2756,-3.12266 30.03429,-6.32479c7.35837,-2.43397 14.52322,-5.43744 21.42954,-8.98685c8.27257,-4.38968 16.19997,-9.4195 23.71288,-15.04824c4.78619,-3.55383 7.17062,-5.41242 8.57586,-6.09228c1.40668,-0.67986 1.71575,-0.40615 1.99449,-0.08094c-0.55459,0.87264 -1.22615,1.6614 -1.99449,2.34568l-2.45231,2.48695l-3.30152,2.99611c-5.61374,4.96065 -11.61742,9.44746 -17.94894,13.41333c-1.58577,1.01538 -3.22064,1.90862 -4.72698,2.82246l-2.10425,1.24936l-2.12302,1.11692l-3.70013,1.92922l-2.85236,1.35973c-3.07044,1.48334 -2.99101,1.59518 2.57362,-0.7402c-8.74195,4.27931 -17.88973,7.63743 -27.30324,10.02137c-9.96521,2.53109 -20.16728,3.97323 -30.4329,4.3058c-9.86989,0.32963 -19.74412,-0.5018 -29.42771,-2.47812c-8.36067,-1.85859 -16.5437,-4.47209 -24.45088,-7.80813c-8.59752,-3.83932 -16.89176,-8.34672 -24.80905,-13.48396c-0.48815,-0.29578 -0.54881,-0.28548 -0.14009,0.07064c0.88676,0.73431 1.8154,1.4127 2.78304,2.03076l6.12211,4.06152c1.33592,0.8123 2.86247,1.65551 4.53778,2.61939c1.67531,0.96535 3.47916,2.03076 5.5733,3.04614l4.84685,2.46782c0.91709,0.49739 1.94394,0.89324 2.99101,1.3406l3.37084,1.40093c2.33388,1.01538 4.9855,1.85859 7.74831,2.79303c2.76138,0.93297 5.80293,1.70555 8.97447,2.51785l2.3931,0.60923l2.48264,0.44588l5.09526,0.92414c1.72586,0.29431 3.51093,0.41645 5.29601,0.62983c1.78507,0.21338 3.60914,0.46796 5.45343,0.47679c7.56634,0.40321 15.15146,0.19866 22.68603,-0.60923c14.52033,-1.60401 28.73159,-5.3668 42.1803,-11.16919c9.18388,-4.05122 18.01826,-8.87354 26.41504,-14.41841c1.30703,-0.84321 2.38443,-1.51277 3.25097,-2.03076c0.86798,-0.51799 1.48612,-1.01538 1.99449,-1.22876c0.93731,-0.53859 1.19727,-0.51799 0.99797,-0.14274c-0.51848,0.73578 -1.10628,1.41565 -1.75474,2.03076c-0.89831,0.92414 -2.09414,1.96013 -3.26108,3.04761c-2.32377,2.17203 -4.82663,4.13216 -5.30467,4.87383c-0.23974,0.36495 0,0.40615 0.99652,-0.0515c1.89628,-0.88883 3.71601,-1.93511 5.44476,-3.12708c6.28964,-4.48386 12.21533,-9.47541 17.71931,-14.9261c13.36061,-13.12196 24.24724,-28.62638 32.11976,-45.74511c0.87665,-2.03076 1.82407,-3.97912 2.5924,-5.93924l2.2039,-5.69643c0.65713,-1.85859 1.23626,-3.65537 1.80385,-5.36092c0.56903,-1.70702 1.05718,-3.36106 1.48612,-4.91503c0.99797,-3.04614 1.65509,-4.97537 1.99449,-6.09228c0.33939,-1.11692 0.56903,-1.20816 0.61813,-0.77257c0.02166,0.9315 -0.03899,1.863 -0.17909,2.78273c-0.20941,1.30969 -0.49826,2.924 -0.80733,4.52801c-0.5387,3.25069 -1.43701,6.39837 -1.49623,7.24011c0,0.41645 0.09965,0.24428 0.49826,-0.8123c0.78277,-2.00869 1.44857,-4.06447 1.99449,-6.15262c6.07445,-20.44594 7.89563,-41.95582 5.34511,-63.15844c-1.40524,-11.56651 -4.0814,-22.93583 -7.97795,-33.89429c-4.11462,-11.42362 -9.50739,-22.3266 -16.07432,-32.49292c-0.79722,-1.30984 -1.68542,-2.56891 -2.57218,-3.83829l-2.66317,-3.79752l-2.84081,-3.68598c-0.99797,-1.22861 -1.89483,-2.47753 -2.92169,-3.64522l-3.04156,-3.56413c-0.99797,-1.2083 -2.11436,-2.30491 -3.17154,-3.4626c-1.05718,-1.15753 -2.12447,-2.31507 -3.26108,-3.40153l-3.34051,-3.30013c-1.10628,-1.11692 -2.30355,-2.15261 -3.48927,-3.19845l-3.57015,-3.12752l-3.72035,-2.96491l-1.8544,-1.48246l-1.93383,-1.41153l-3.8691,-2.7923c-1.31714,-0.90369 -2.66317,-1.75661 -3.98897,-2.62984c-2.63284,-1.80752 -5.44476,-3.34075 -8.19747,-4.97551c-11.29969,-6.27638 -23.31716,-11.11219 -35.77801,-14.39847c-12.5605,-3.2252 -25.45896,-4.88233 -38.41084,-4.93487c0,-0.45694 -6.18277,-0.92403 -6.19287,-1.33018c0,-0.19294 1.52511,-0.38586 6.15244,-0.54832c8.75928,-0.20639 17.51856,0.41226 26.16663,1.84804l5.34367,1.0154l5.29601,1.23879c0.87665,0.21324 1.76485,0.39601 2.6415,0.6397l2.61262,0.76156c1.73597,0.51784 3.50082,1.0154 5.21657,1.55356c6.90055,2.25353 13.64945,4.96714 20.20194,8.12327c6.52216,3.22126 12.83057,6.87089 18.88625,10.92579c1.53666,1.01538 2.99245,2.11199 4.45835,3.15783c1.4659,1.04584 2.99101,2.1323 4.37747,3.30013l4.26771,3.42183l4.11751,3.62506c16.43249,14.76996 29.62557,32.89804 38.7228,53.20418c9.09579,20.30614 13.89064,42.33519 14.07262,64.65385c0.18053,22.31777 -4.25471,44.42511 -13.01977,64.88135c-8.76361,20.45624 -21.66062,38.8052 -37.85048,53.85049c-5.40432,4.99891 -11.12782,9.62846 -17.1315,13.85921c-1.47601,1.09632 -3.05167,2.03076 -4.57678,3.04614l-2.30355,1.51277c-0.76833,0.49886 -1.57566,0.93444 -2.36277,1.4127l-4.7472,2.78126l-4.87573,2.46782c-6.54094,3.33898 -13.30862,6.19382 -20.25249,8.5395l-2.60395,0.89324l-2.63139,0.78287c-1.76485,0.49739 -3.52104,1.01538 -5.2859,1.51277c-3.57015,0.82261 -7.10996,1.76588 -10.72921,2.35451c-14.46545,2.74889 -29.25151,3.29631 -43.87583,1.62608c-14.69219,-1.79973 -29.00455,-5.99222 -42.38971,-12.41855c-13.20752,-6.31743 -25.58027,-14.30362 -36.82508,-23.77168c-11.08161,-9.30766 -21.26634,-19.6719 -30.41412,-30.94851c-4.49734,-5.6361 -8.97447,-11.28103 -13.05299,-17.17171c-4.07852,-5.88921 -8.0776,-11.89025 -11.81672,-18.00314c-1.87462,-3.04614 -3.69002,-6.14232 -5.47509,-9.25909c-0.89687,-1.54367 -1.75474,-3.11825 -2.63284,-4.68105l-1.92372,-3.4626c-0.27007,-0.49739 -0.51848,-1.01538 -0.74811,-1.47304l-0.46793,1.01538l-0.23974,0.48709l-0.99797,1.91892l-1.73452,3.14768c-4.65332,8.40117 -9.63882,16.59632 -14.95793,24.58398c-2.68194,3.98059 -5.43465,7.93027 -8.3159,11.78872c-1.39657,1.94983 -2.93179,3.81724 -4.39769,5.72734c-1.4659,1.90862 -2.93179,3.81724 -4.48723,5.66553l-4.68654,5.52426c-0.79866,0.91384 -1.54533,1.85712 -2.37432,2.74153l-2.46242,2.66942c-1.65509,1.76735 -3.2813,3.56413 -4.9855,5.31088l-5.20502,5.0769c-0.87809,0.84321 -1.70564,1.71585 -2.62273,2.52815l-2.72238,2.42661c-1.83562,1.60548 -3.61058,3.28012 -5.50398,4.82379l-5.71483,4.58981l-1.43557,1.14782l-1.49623,1.07571l-2.99101,2.1426c-1.99449,1.43183 -3.98897,2.88427 -6.073,4.16306c-2.08403,1.27879 -4.14784,2.65029 -6.24198,3.93938l-6.48172,3.59504l-1.6161,0.89324c-0.54736,0.28401 -1.11639,0.53859 -1.67531,0.8123l-3.35062,1.59518c-8.98747,4.30433 -18.40532,7.60947 -28.09035,9.85949c-19.52604,4.62955 -39.83053,4.684 -59.38112,0.16187l-7.25872,-1.82769l-7.10996,-2.28534c-0.58925,-0.19278 -1.18716,-0.37525 -1.77496,-0.57833l-1.73597,-0.69016l-3.47049,-1.3715l-3.45894,-1.38033l-3.36073,-1.58341l-3.37084,-1.58488c-1.11639,-0.52829 -2.24434,-1.01538 -3.31018,-1.67464l-6.50194,-3.58474c-2.12447,-1.23906 -4.17817,-2.60026 -6.27231,-3.90995c-0.99652,-0.65926 -2.10425,-1.28909 -3.11088,-2.03076l-2.99245,-2.1426l-2.99101,-2.1426c-0.99652,-0.71077 -1.99449,-1.42153 -2.99101,-2.20293l-5.74372,-4.58981c-0.99797,-0.7505 -1.88473,-1.5628 -2.79315,-2.37511l-2.74116,-2.34568c-1.82551,-1.63491 -3.69002,-3.21979 -5.39566,-4.96654l-5.22524,-5.0769c-1.71431,-1.72615 -3.3304,-3.54353 -4.9855,-5.30941c-3.38095,-3.5038 -6.42106,-7.28131 -9.58249,-10.96758c-1.58577,-1.83799 -2.99101,-3.79664 -4.51756,-5.68613c-1.52511,-1.88802 -2.99101,-3.79664 -4.42658,-5.76707c-2.87258,-3.88935 -5.62529,-7.82873 -8.30723,-11.82992c-5.35811,-8.00091 -10.38404,-16.19459 -15.0778,-24.58251l-2.99101,-5.38152l-0.20941,-0.39585l-0.18919,0.43706l-0.09965,0.20308l-1.34603,2.48695l-1.78507,3.21832c-4.80641,8.5704 -9.91178,16.95833 -15.4172,25.11081c-2.73105,4.06299 -5.59352,8.12452 -8.52531,12.10363l-4.57678,5.87008l-2.29344,2.924c-0.76833,1.01538 -1.59588,1.89832 -2.3931,2.84307l-4.80641,5.66553c-1.64498,1.85859 -3.37084,3.65537 -5.05626,5.48306l-2.53319,2.7327c-0.84632,0.90354 -1.76485,1.75558 -2.65161,2.63999l-5.31478,5.19904c-7.35837,6.84278 -15.18323,13.14697 -23.41392,18.86548c-8.39389,5.70379 -17.26004,10.65267 -26.49447,14.79513c-9.40196,4.06888 -19.19387,7.13121 -29.2183,9.13843l-3.77956,0.66956c-1.26515,0.20308 -2.51152,0.49739 -3.79834,0.59893l-7.64866,0.82261c-5.10537,0.25458 -10.26128,0.48709 -15.28722,0.25458c-30.57674,-1.01538 -60.20318,-11.06912 -85.26526,-28.93541c-25.06208,-17.86629 -44.47648,-42.77401 -55.87511,-71.6844c-11.39862,-28.90892 -14.28876,-60.57261 -8.31794,-91.12571c5.97082,-30.55383 20.54454,-58.67782 41.94361,-80.94188c14.16476,-14.80307 30.98922,-26.69907 49.55946,-35.04164c18.56996,-8.32901 38.54992,-12.91186 58.83332,-13.49473l3.78967,-0.10154c1.26659,0 2.53319,0 3.79834,0.07108c2.52308,0.10154 5.05626,0.132 7.57934,0.29448l7.5779,0.74124c0.62824,0.07108 1.25648,0.11169 1.88473,0.20308l1.88473,0.30463l3.74923,0.6194c10.02009,1.69268 19.83944,4.44581 29.29773,8.21462c18.76349,7.53137 36.04663,18.43406 51.02478,32.18835l2.81192,2.49784l2.67328,2.57921c1.77496,1.76676 3.57015,3.51322 5.32489,5.30043l5.04471,5.53382c0.82755,0.9343 1.70564,1.82783 2.50286,2.78229l2.37432,2.88368c1.58577,1.92937 3.19031,3.82813 4.73564,5.77766l4.46846,5.96043l2.23279,2.97521l2.13458,3.04614c1.42546,2.03076 2.78159,4.06167 4.15795,6.16351c2.71227,4.15305 5.29456,8.36688 7.79742,12.63163c2.50286,4.26475 4.84685,8.61072 7.12007,12.98701l1.89483,3.69613c0.05055,0.10154 0,0.05077 0,0.05077l-0.07943,-0.17261l-0.07943,0.18277l1.71431,-3.36106c4.46702,-8.63088 9.32397,-17.06884 14.63875,-25.25311c2.67183,-4.06152 5.40432,-8.12319 8.33612,-12.03256l4.35725,-5.79797l1.10773,-1.46215l1.16694,-1.42153l2.34255,-2.83306c6.2362,-7.63463 12.98944,-14.81426 20.2135,-21.4859l5.54441,-4.91459c0.89687,-0.84277 1.88473,-1.59415 2.85092,-2.36584l2.91158,-2.30491l2.91302,-2.30506c0.99652,-0.76154 1.99304,-1.44184 2.99101,-2.16276c1.99449,-1.42153 4.04819,-2.86352 6.10189,-4.25459c8.36934,-5.40889 17.16472,-10.09936 26.29661,-14.02273c18.47897,-7.69447 38.26931,-11.59719 58.2344,-11.48422c9.93922,0.10601 19.84811,1.12556 29.60679,3.04622c9.7298,2.06473 19.25308,5.03542 28.44852,8.87463c9.09434,3.94234 17.84062,8.66769 26.14641,14.12425c3.98897,2.85337 8.14692,5.59489 11.96548,8.75288l2.8928,2.29476c0.47804,0.38584 0.99652,0.76154 1.43557,1.15753l1.37635,1.22861l5.50398,4.89428c7.14463,6.66958 13.83576,13.82787 20.02286,21.42512c3.18165,3.70614 5.98346,7.64596 8.97447,11.53487c2.99245,3.88906 5.52419,7.89996 8.16714,11.96148c5.23968,8.11834 10.07498,16.4992 14.48855,25.11095l1.44712,2.82291l0.20941,0.42646l0,0.06092l0,0.132l0,-0.07108l0.11843,-0.22338l1.65654,-3.22906c0.87665,-1.72615 1.81396,-3.43199 2.72238,-5.13797c1.86451,-3.40153 3.74923,-6.79304 5.74372,-10.15395c7.92162,-13.43481 17.00874,-26.12045 27.15304,-37.90504c10.31472,-11.95339 21.99424,-22.60929 34.79015,-31.74154l4.83674,-3.39152l5.03604,-3.11722c3.31018,-2.1426 6.83989,-3.93982 10.33061,-5.79797c0.87809,-0.45692 1.72586,-0.95446 2.63284,-1.36061l2.70216,-1.22871l5.39421,-2.3659c1.83562,-0.76155 3.70013,-1.42156 5.54441,-2.13234l2.77293,-1.01541l1.39513,-0.51784l1.41679,-0.43663l4.65621,-1.40125c1.51645,-0.42647 2.99245,-0.95449 4.41791,-1.23879l8.18592,-1.85819c2.58373,-0.44678 4.98694,-0.80218 7.27027,-1.15756c1.1265,-0.16246 2.2039,-0.38586 3.26108,-0.46709l3.05022,-0.264l5.37544,-0.44678c1.64498,-0.132 3.1311,-0.08123 4.47713,-0.12185c2.68194,0 4.77608,0 6.32286,0c2.89136,0.12185 3.75934,0.264 2.93035,0.42646c-0.40872,0.07109 -1.23626,0.15232 -2.45231,0.23355l-4.9855,0.396l-3.38095,0.16248l-1.86451,0.132c-0.63835,0.06092 -1.29692,0.16246 -1.99449,0.24369l-4.28793,0.54832l-2.30355,0.30463c-0.78711,0.09138 -1.58577,0.20308 -2.40321,0.37569c-7.4638,1.26313 -14.82651,3.08567 -22.02746,5.45273c-8.5152,2.77255 -16.769,6.32045 -24.66029,10.6008l-6.22176,3.4829c-2.04504,1.25907 -4.03952,2.58922 -6.03256,3.92952c-0.99797,0.67015 -2.05514,1.27953 -2.99245,2.03091l-2.99101,2.03076l-2.99245,2.16276c-0.99652,0.71091 -1.99304,1.42168 -2.89136,2.21368c1.22615,-1.01538 2.49275,-1.89891 3.64958,-2.75183l3.29141,-2.34553c0.99652,-0.72092 1.99449,-1.45199 2.99101,-2.03076l2.75271,-1.65522l4.80641,-2.82276c1.515,-0.82246 2.99101,-1.50276 4.4468,-2.23384l4.45691,-2.19337l5.11548,-2.21353c1.86595,-0.80215 3.8691,-1.78707 6.2622,-2.64014l3.76945,-1.46212c1.33736,-0.50771 2.73249,-1.1271 4.28793,-1.58404c0.06066,0.18277 -0.67735,0.51786 -2.12302,1.28956c-1.44568,0.7717 -3.64958,1.80736 -6.58137,3.14781c-1.48612,0.61938 -3.05167,1.55353 -4.84685,2.45722l-2.85236,1.49261c-0.99652,0.51784 -1.99449,1.01538 -3.05022,1.64506l-6.73157,3.95998c-2.37288,1.48246 -4.84685,3.1986 -7.51868,4.94505c-1.35614,0.84277 -2.62273,1.89876 -3.98897,2.89383l-4.18828,3.13767c-0.72789,0.51784 -1.42546,1.09661 -2.13313,1.69569l-2.14469,1.79722l-4.45691,3.73675c-6.5005,5.81504 -12.6486,12.02726 -18.40821,18.60222c-12.60383,14.21562 -25.36797,32.49292 -36.8944,55.0045c11.60586,-22.43035 26.11464,-43.43902 43.87438,-61.44216c2.28478,-2.16276 3.98897,-3.81798 5.29601,-4.9349c1.30559,-1.11692 2.2039,-1.75661 2.69205,-2.09168c0.99652,-0.66 0.52859,0 -0.51848,1.19815l-1.87462,2.09168l-1.99449,2.41675c-1.24637,1.53322 -2.19379,2.80245 -1.99449,2.96491c-8.04872,8.14659 -15.4533,16.92654 -22.14733,26.25848c-2.77148,3.78737 -4.89595,7.10781 -6.36185,9.38226c-0.82755,1.17652 -1.53522,2.43515 -2.11436,3.75706l1.51645,1.01538c1.67531,-2.61983 3.58892,-5.53397 5.74372,-8.63103c2.15335,-3.09691 4.62588,-6.33612 7.16918,-9.75796c1.24637,-1.72615 2.65306,-3.39152 4.0583,-5.07705l4.28793,-5.18874l4.62733,-5.07705l2.33388,-2.55876l2.43209,-2.47753c1.64498,-1.6146 3.27119,-3.26967 4.9855,-4.85367l5.11692,-4.55921c0.85643,-0.73107 1.65509,-1.53322 2.54185,-2.21353l2.60251,-2.03091c1.73597,-1.35046 3.38095,-2.75168 5.09526,-3.99045l5.05626,-3.55398c0.82755,-0.56861 1.60599,-1.16769 2.43353,-1.67538l2.43209,-1.50276l4.56811,-2.82291c1.47601,-0.87323 2.93179,-1.59415 4.27782,-2.32522c-1.34603,0.72092 -2.71227,1.42153 -4.03952,2.17291l-3.8691,2.39645l-3.81855,2.35568l-3.58026,2.5283l-3.46038,2.44721c-1.13661,0.78184 -2.16346,1.68553 -3.20042,2.49784c-2.0537,1.66522 -4.04819,3.16813 -5.77405,4.70136l-4.67643,4.22413l-1.93383,1.77692l-1.55544,1.6043c-1.05429,0.95416 -2.01326,2.01193 -2.86247,3.15798l1.2767,1.30984c-11.17404,11.52648 -21.17391,24.17518 -29.84509,37.75274c-4.72698,7.31089 -9.18533,15.0787 -13.34328,23.08019l-0.777,1.50276l-0.38994,0.75138l-0.49826,1.01538l-1.99449,4.06167l-1.99449,4.21383l-1.93383,4.30536c-2.56352,5.79797 -5.06637,11.68688 -7.44936,17.38332c-3.37951,-8.12275 -6.86011,-16.5304 -10.43026,-24.19667c-0.89687,-1.96984 -1.78507,-3.7469 -2.67183,-5.56443l-0.65857,-1.33015l-0.51848,-1.01538c-0.34517,-0.67692 -0.67879,-1.35399 -0.99797,-2.03091c-1.39513,-2.71107 -2.8307,-5.36121 -4.26771,-7.96073c-5.39421,-9.72705 -11.46577,-19.04854 -18.16846,-27.8931l-1.07595,0.82246c6.49039,8.90901 12.41897,18.22888 17.74963,27.90325c1.43557,2.57921 2.84803,5.21582 4.23738,7.91011c0.3495,0.68031 0.69756,1.35046 0.99797,2.03076l0.52715,1.01538l0.70912,1.45199c0.99652,2.03091 1.99449,3.93982 2.99101,6.09243c3.98897,8.51934 7.82775,17.94266 11.58709,26.91774c2.64295,-6.3866 5.42454,-13.01674 8.21625,-19.48501l2.11436,-4.80275l2.16491,-4.6709l2.14324,-4.4069l0.5387,-1.08646l0.37839,-0.75138l0.76833,-1.50276c4.08863,-7.99134 8.48632,-15.73884 13.15264,-23.03958c8.54409,-13.55151 18.50064,-26.12398 29.69634,-37.49889c-1.04707,1.09661 -2.07536,2.03076 -2.99245,3.04614l-2.45231,2.83306c-1.51645,1.76676 -2.83214,3.25937 -3.91965,4.57951c-2.08403,2.72122 -3.43006,4.56921 -4.28793,5.82843c-1.71431,2.5283 -1.44568,2.74153 -1.09617,3.04614l-5.66429,7.65612c-1.86451,2.56906 -3.6698,5.1989 -5.42454,7.84919c-3.50949,5.30029 -6.83123,10.75303 -9.97244,16.30731c-1.58432,2.77214 -3.11088,5.58474 -4.60566,8.41765l-2.26456,4.41705l-1.68542,3.42198l-0.84777,1.71599l-0.84632,1.82769l-1.70564,3.68598c-0.56903,1.23876 -1.11639,2.5283 -1.67531,3.78752c-1.10628,2.50799 -2.2039,5.0769 -3.30007,7.68658l-6.46295,15.35285l-5.98202,-14.38897c-1.99449,-4.82247 -3.98897,-9.63552 -6.12355,-14.21489l-1.57566,-3.41183l-1.48467,-3.15783l-1.47601,-3.04629l-0.99797,-2.03076c-1.3287,-2.66044 -2.72238,-5.29367 -4.17817,-7.89981c-5.68739,-10.41545 -12.13012,-20.38399 -19.27475,-29.82247c-7.0262,-9.45643 -14.86839,-18.25434 -23.43414,-26.28879c-8.52676,-7.91585 -17.89117,-14.84266 -27.91993,-20.65343c20.20194,12.18486 37.62229,29.22339 51.85233,48.73945c-9.83234,-12.41369 -20.85618,-23.79846 -32.90687,-33.98553c-7.69777,-6.29139 -15.93712,-11.86156 -24.61986,-16.64253c-9.35141,-5.14445 -19.2603,-9.15873 -29.52592,-11.96148c-31.4713,-8.51787 -64.9212,-4.90179 -93.93442,10.1541l-3.28996,1.75661c-1.08751,0.58892 -2.18513,1.12707 -3.21198,1.79722l-6.13222,3.79767c-1.99449,1.31999 -3.85899,2.71107 -5.74372,4.06152c-1.88473,1.3506 -3.63947,2.71121 -5.36533,4.10229l-0.00003,0.00017z" fill="#24244C" id="svg_36" stroke="null"/>
   </g>
  </g>
 </g>

</svg>