<svg id="e233dba3-8f9a-403a-9f7e-aa2b1dcbad00" data-name="Layer 1" xmlns="http://www.w3.org/2000/svg" xmlns:xlink="http://www.w3.org/1999/xlink" viewBox="0 0 500 500"><defs><style>.b59cdd5b-f7a3-416f-8530-ba2f01811b36{fill:#3c65af;opacity:0.06;isolation:isolate;}.acb0de46-acf8-4408-b61e-d542114fee7c{fill:#d1d3d4;}.ac11a69d-3f04-4cca-ac78-8ec49e331b84{fill:#bcbec0;}.b285a0c1-50c8-4a3d-9a0e-6f45629a9b6f{fill:#d0d2d3;}.bbf1da93-4cc7-4706-8bb1-3fc4088f7f81{fill:#f1f2f2;}.a0e3d40d-2dcd-4a5e-beae-3dd3048ba378{fill:#ffb62d;}.e9004722-a3a2-453f-8d75-860a07000468{fill:#3dba85;}.b4c8ba7e-769a-4b99-8d53-cfaa7c44065c{fill:#e6e7e8;}.b7c87d10-3a93-4b56-b5f7-886ff09ecb06{fill:url(#a5a1c3b5-dfc3-4e6a-83ac-a480df137d6b);}.a5062f66-b5cd-48a1-9882-39a536147bb4{fill:#fff;}.f3a8c0be-e38a-49fc-b5f8-bab2de1e7859{fill:#148f48;}.a64c2eea-085b-4d57-9b75-768ed0b4646c{fill:#ed9a15;}.f1c407e2-e29e-4eeb-989b-dd0b29c1df5f{fill:#0562e8;}.a93973d5-b7d7-4f26-b604-77751d65a792{fill:none;stroke:#fff;stroke-miterlimit:10;stroke-width:1.83px;}.b0409c7c-5948-4b46-a554-57701659efbf{fill:#f13624;}.a3fde0e1-68e5-4dba-9b93-e1952217cdfc{fill:#bac6ce;}</style><linearGradient id="a5a1c3b5-dfc3-4e6a-83ac-a480df137d6b" x1="218.1" y1="2001.54" x2="305.18" y2="2016.57" gradientTransform="matrix(1, 0, 0, -1, 0, 2200.73)" gradientUnits="userSpaceOnUse"><stop offset="0" stop-color="#e6e7e8" stop-opacity="0"/><stop offset="0.65" stop-color="#414042"/></linearGradient></defs><title>AI services Pages and sub Pages</title><path class="b59cdd5b-f7a3-416f-8530-ba2f01811b36" d="M72.33,79.38c-45.69,62.38-38.74,107.77,0,166s-42,93.12-14.53,157.26,82.62,79.4,151.88,43,119.74-12.91,162-3.52,116.21-7.45,52.82-47.75-147.91-63.69-76.3-140.62,162-74.54,76.3-130.33-82.17,62.84-147.91-13.49S133.37-4,72.33,79.38Z"/><rect class="acb0de46-acf8-4408-b61e-d542114fee7c" x="115.35" y="225.09" width="114.38" height="159.21" rx="32.68"/><path class="ac11a69d-3f04-4cca-ac78-8ec49e331b84" d="M126,362.23s5.82,24.21-14.66,46.52c0,0,28.2-7.8,32.05-42.43Z"/><rect class="b285a0c1-50c8-4a3d-9a0e-6f45629a9b6f" x="115.35" y="225.09" width="114.38" height="159.21" rx="32.68"/><rect class="bbf1da93-4cc7-4706-8bb1-3fc4088f7f81" x="124.86" y="266.97" width="26.26" height="4.09"/><rect class="bbf1da93-4cc7-4706-8bb1-3fc4088f7f81" x="124.86" y="274.06" width="12.95" height="4.09"/><rect class="bbf1da93-4cc7-4706-8bb1-3fc4088f7f81" x="124.86" y="280.58" width="19.34" height="4.09"/><rect class="bbf1da93-4cc7-4706-8bb1-3fc4088f7f81" x="124.85" y="287.11" width="12.77" height="4.09"/><rect class="a0e3d40d-2dcd-4a5e-beae-3dd3048ba378" x="143.78" y="293.71" width="19.3" height="4.09"/><rect class="bbf1da93-4cc7-4706-8bb1-3fc4088f7f81" x="165.76" y="293.71" width="16.08" height="4.09"/><rect class="bbf1da93-4cc7-4706-8bb1-3fc4088f7f81" x="151.62" y="287.11" width="12.77" height="4.09"/><rect class="bbf1da93-4cc7-4706-8bb1-3fc4088f7f81" x="124.84" y="293.71" width="5.41" height="4.09"/><rect class="bbf1da93-4cc7-4706-8bb1-3fc4088f7f81" x="124.86" y="300.18" width="6.97" height="4.09"/><rect class="bbf1da93-4cc7-4706-8bb1-3fc4088f7f81" x="135.03" y="300.18" width="19.53" height="4.09"/><rect class="e9004722-a3a2-453f-8d75-860a07000468" x="124.86" y="306.72" width="8.62" height="4.09"/><rect class="bbf1da93-4cc7-4706-8bb1-3fc4088f7f81" x="137.36" y="306.72" width="7.44" height="4.09"/><rect class="bbf1da93-4cc7-4706-8bb1-3fc4088f7f81" x="124.86" y="313.25" width="6.97" height="4.09"/><rect class="bbf1da93-4cc7-4706-8bb1-3fc4088f7f81" x="135.82" y="313.25" width="18.74" height="4.09"/><rect class="e9004722-a3a2-453f-8d75-860a07000468" x="124.86" y="319.79" width="6.97" height="4.09"/><rect class="a0e3d40d-2dcd-4a5e-beae-3dd3048ba378" x="134.51" y="319.79" width="7.1" height="4.09"/><rect class="bbf1da93-4cc7-4706-8bb1-3fc4088f7f81" x="143.89" y="319.79" width="7.1" height="4.09"/><rect class="bbf1da93-4cc7-4706-8bb1-3fc4088f7f81" x="153.77" y="319.79" width="15.35" height="4.09"/><rect class="e9004722-a3a2-453f-8d75-860a07000468" x="171.21" y="319.79" width="10.26" height="4.09"/><rect class="bbf1da93-4cc7-4706-8bb1-3fc4088f7f81" x="124.86" y="326.31" width="6.1" height="4.09"/><rect class="bbf1da93-4cc7-4706-8bb1-3fc4088f7f81" x="136.59" y="326.31" width="16.86" height="4.09"/><rect class="bbf1da93-4cc7-4706-8bb1-3fc4088f7f81" x="147.01" y="352.44" width="16.86" height="4.09"/><rect class="a0e3d40d-2dcd-4a5e-beae-3dd3048ba378" x="145.71" y="345.91" width="16.86" height="4.09"/><rect class="bbf1da93-4cc7-4706-8bb1-3fc4088f7f81" x="147.01" y="358.98" width="16.34" height="4.09"/><rect class="a0e3d40d-2dcd-4a5e-beae-3dd3048ba378" x="166.4" y="358.98" width="8.99" height="4.09"/><rect class="bbf1da93-4cc7-4706-8bb1-3fc4088f7f81" x="124.86" y="332.84" width="7.85" height="4.09"/><rect class="bbf1da93-4cc7-4706-8bb1-3fc4088f7f81" x="178.6" y="352.44" width="8.14" height="4.09"/><rect class="a0e3d40d-2dcd-4a5e-beae-3dd3048ba378" x="178.6" y="358.98" width="9.27" height="4.09"/><rect class="bbf1da93-4cc7-4706-8bb1-3fc4088f7f81" x="191.39" y="358.98" width="20.77" height="4.09"/><rect class="bbf1da93-4cc7-4706-8bb1-3fc4088f7f81" x="124.86" y="339.38" width="7.85" height="4.09"/><rect class="bbf1da93-4cc7-4706-8bb1-3fc4088f7f81" x="166.44" y="352.44" width="8.14" height="4.09"/><rect class="bbf1da93-4cc7-4706-8bb1-3fc4088f7f81" x="136.28" y="332.84" width="8.14" height="4.09"/><rect class="e9004722-a3a2-453f-8d75-860a07000468" x="133.94" y="345.91" width="8.68" height="4.09"/><rect class="e9004722-a3a2-453f-8d75-860a07000468" x="124.86" y="345.91" width="5.63" height="4.09"/><rect class="bbf1da93-4cc7-4706-8bb1-3fc4088f7f81" x="124.86" y="352.44" width="19.08" height="4.09"/><path class="bbf1da93-4cc7-4706-8bb1-3fc4088f7f81" d="M144.29,359v4.09H126c-.38-.41-.75-.83-1.1-1.25V359Z"/><path class="bbf1da93-4cc7-4706-8bb1-3fc4088f7f81" d="M154.82,365.51v4.09h-20.6a31.34,31.34,0,0,1-5.76-4.09Z"/><rect class="bbf1da93-4cc7-4706-8bb1-3fc4088f7f81" x="159.86" y="365.51" width="5.38" height="4.09"/><rect class="bbf1da93-4cc7-4706-8bb1-3fc4088f7f81" x="169.55" y="365.51" width="18.3" height="4.09"/><rect class="e9004722-a3a2-453f-8d75-860a07000468" x="193.14" y="365.51" width="5.74" height="4.09"/><path class="bbf1da93-4cc7-4706-8bb1-3fc4088f7f81" d="M160.62,372v1.66H150.07A32.41,32.41,0,0,1,139.78,372Z"/><rect class="bbf1da93-4cc7-4706-8bb1-3fc4088f7f81" x="163.35" y="372.03" width="7.55" height="1.66"/><rect class="bbf1da93-4cc7-4706-8bb1-3fc4088f7f81" x="141.42" y="274.06" width="16.27" height="4.09"/><rect class="bbf1da93-4cc7-4706-8bb1-3fc4088f7f81" x="160.64" y="274.06" width="18.74" height="4.09"/><rect class="e9004722-a3a2-453f-8d75-860a07000468" x="182.36" y="274.06" width="21.64" height="4.09"/><rect class="bbf1da93-4cc7-4706-8bb1-3fc4088f7f81" x="207.39" y="274.06" width="10.23" height="4.09"/><rect class="bbf1da93-4cc7-4706-8bb1-3fc4088f7f81" x="156.08" y="266.97" width="13.04" height="4.09"/><rect class="bbf1da93-4cc7-4706-8bb1-3fc4088f7f81" x="171.84" y="266.97" width="7.66" height="4.09"/><rect class="bbf1da93-4cc7-4706-8bb1-3fc4088f7f81" x="132.99" y="293.71" width="7.66" height="4.09"/><rect class="bbf1da93-4cc7-4706-8bb1-3fc4088f7f81" x="147.04" y="280.58" width="7.66" height="4.09"/><rect class="bbf1da93-4cc7-4706-8bb1-3fc4088f7f81" x="140.26" y="287.11" width="7.66" height="4.09"/><rect class="a0e3d40d-2dcd-4a5e-beae-3dd3048ba378" x="182.44" y="266.97" width="3.82" height="4.09"/><rect class="bbf1da93-4cc7-4706-8bb1-3fc4088f7f81" x="188.71" y="266.97" width="9.92" height="4.09"/><rect class="e9004722-a3a2-453f-8d75-860a07000468" x="201.6" y="266.97" width="10.94" height="4.09"/><path class="b4c8ba7e-769a-4b99-8d53-cfaa7c44065c" d="M267.25,265.36H128.44a28.23,28.23,0,0,1-28.22-28.22L95.1,177.29a28.22,28.22,0,0,1,28.21-28.22h138.8a28.22,28.22,0,0,1,28.22,28.22l5.12,59.85A28.22,28.22,0,0,1,267.25,265.36Z"/><path class="ac11a69d-3f04-4cca-ac78-8ec49e331b84" d="M146.31,265.36s-11.2,22.27,3.61,48.64c0,0-25.65-14.07-21.47-48.64Z"/><rect class="bbf1da93-4cc7-4706-8bb1-3fc4088f7f81" x="114.09" y="183.72" width="114.24" height="9.73"/><rect class="bbf1da93-4cc7-4706-8bb1-3fc4088f7f81" x="114.09" y="198.73" width="91.58" height="9.73"/><rect class="bbf1da93-4cc7-4706-8bb1-3fc4088f7f81" x="114.09" y="215.42" width="95.7" height="9.73"/><rect class="bbf1da93-4cc7-4706-8bb1-3fc4088f7f81" x="113.08" y="230.9" width="57.12" height="9.73"/><polygon class="b7c87d10-3a93-4b56-b5f7-886ff09ecb06" points="234.79 148.84 261.9 240.75 229.3 249.43 207.54 148.84 234.79 148.84"/><path class="b4c8ba7e-769a-4b99-8d53-cfaa7c44065c" d="M298.53,338.82s-10.55,22.55,5.05,48.51c0,0-26.06-13.29-22.9-48Z"/><rect class="bbf1da93-4cc7-4706-8bb1-3fc4088f7f81" x="215.4" y="237.52" width="186.85" height="103.43" rx="29.42" transform="translate(-19.44 22.27) rotate(-4)"/><path class="a5062f66-b5cd-48a1-9882-39a536147bb4" d="M164.07,190.35s10.09,22.76-6,48.4c0,0,26.32-12.76,23.86-47.51Z"/><rect class="b285a0c1-50c8-4a3d-9a0e-6f45629a9b6f" x="56.78" y="98.08" width="140.98" height="108.68" rx="48.26"/><path class="a5062f66-b5cd-48a1-9882-39a536147bb4" d="M234.42,279.36l-5.33-.82.68-3.11,5.3,1.48-1-5.57,3.4-.39.24,5.73,4.64-2.6,1.38,2.91-5.06,2,4,3.84L240.09,285l-3.43-4.31-2.4,4.83-2.94-1.47Z"/><path class="a5062f66-b5cd-48a1-9882-39a536147bb4" d="M249.5,277.62l-5.33-.83.68-3.11,5.3,1.49-1-5.57,3.38-.4.25,5.74,4.65-2.6,1.37,2.9-5,2.08,3.95,3.8-2.54,2.21L251.73,279l-2.39,4.84-3-1.48Z"/><path class="a5062f66-b5cd-48a1-9882-39a536147bb4" d="M265.71,281.32l9,1.86.78,4.86L260.84,284l-.72-4.22,13.35-7.33.56,4.85Z"/><path class="a5062f66-b5cd-48a1-9882-39a536147bb4" d="M281.08,291.35l-4,.43,5-26,4-.44Z"/><path class="a5062f66-b5cd-48a1-9882-39a536147bb4" d="M288.32,290.48l-3.56.44,5-26,3.58-.44Z"/><path class="a5062f66-b5cd-48a1-9882-39a536147bb4" d="M295.78,289.62l-3.78.44,5-26,3.8-.44Z"/><path class="a5062f66-b5cd-48a1-9882-39a536147bb4" d="M312.87,275.81l-9-1.93-.56-4.86,14.62,4.1.49,4.21-13.27,7.32-.56-4.85Z"/><path class="a5062f66-b5cd-48a1-9882-39a536147bb4" d="M336.58,273.33c.37,3.12-.05,5.57-1.26,7.43a8.24,8.24,0,0,1-11.54,1.61l-.33-.26c-1.61-1.53-2.58-3.85-2.94-6.94L320,271c-.36-3.12.07-5.57,1.27-7.42a8.25,8.25,0,0,1,11.57-1.6l.31.24q2.4,2.29,2.94,7Zm-5.9-4.28a8.5,8.5,0,0,0-1.08-3.64,2.2,2.2,0,0,0-2.21-1,2.08,2.08,0,0,0-1.85,1.37,7.82,7.82,0,0,0-.28,3.53l.69,5.89a8.26,8.26,0,0,0,1.08,3.72,2.21,2.21,0,0,0,2.2.92,2.15,2.15,0,0,0,1.86-1.39,7.9,7.9,0,0,0,.24-3.71Z"/><path class="a5062f66-b5cd-48a1-9882-39a536147bb4" d="M353.8,284.91l-14.3,1.67-.46-4,14.31-1.66Z"/><path class="a5062f66-b5cd-48a1-9882-39a536147bb4" d="M366.6,279.41l-5.35.61-2-17-5.09,2.14-.47-4.05,9.73-4.64.48-.06Z"/><path class="b4c8ba7e-769a-4b99-8d53-cfaa7c44065c" d="M276.42,238.77s-1.17,24.87-27.07,40.57c0,0,29.25.39,42.62-31.78Z"/><circle class="b285a0c1-50c8-4a3d-9a0e-6f45629a9b6f" cx="315.25" cy="175.79" r="85.5"/><path class="f3a8c0be-e38a-49fc-b5f8-bab2de1e7859" d="M327.65,309.63l10.41,3.64-.06,5.87-16.83-7,.05-5.08,17-6.7-.07,5.85Z"/><path class="f3a8c0be-e38a-49fc-b5f8-bab2de1e7859" d="M344.14,323.85l-4.57,0,9.85-30.13H354Z"/><path class="f3a8c0be-e38a-49fc-b5f8-bab2de1e7859" d="M366.57,310l-10.37-3.65.06-5.85L373,307.58l-.05,5.09L356,319.36l.07-5.85Z"/><circle class="a5062f66-b5cd-48a1-9882-39a536147bb4" cx="270.66" cy="172.46" r="15.72"/><circle class="a5062f66-b5cd-48a1-9882-39a536147bb4" cx="319.16" cy="172.46" r="15.72"/><circle class="a5062f66-b5cd-48a1-9882-39a536147bb4" cx="367.66" cy="172.46" r="15.72"/><circle class="a64c2eea-085b-4d57-9b75-768ed0b4646c" cx="270.66" cy="172.46" r="8.76"/><circle class="a0e3d40d-2dcd-4a5e-beae-3dd3048ba378" cx="319.16" cy="172.46" r="8.76"/><circle class="f1c407e2-e29e-4eeb-989b-dd0b29c1df5f" cx="367.66" cy="172.46" r="8.76"/><path class="e9004722-a3a2-453f-8d75-860a07000468" d="M388.05,225H370a1.26,1.26,0,0,1-1.29-1.24h0V206.18a1.26,1.26,0,0,1,1.29-1.24h18.1a1.26,1.26,0,0,1,1.28,1.24h0v17.58a1.25,1.25,0,0,1-1.28,1.24Z"/><rect class="ac11a69d-3f04-4cca-ac78-8ec49e331b84" x="394.26" y="208.65" width="35.66" height="4.79"/><rect class="ac11a69d-3f04-4cca-ac78-8ec49e331b84" x="394.26" y="216.03" width="16.36" height="4.79"/><polyline class="a93973d5-b7d7-4f26-b604-77751d65a792" points="372.05 214.97 375.51 219.5 386.13 210.85"/><rect class="a5062f66-b5cd-48a1-9882-39a536147bb4" x="84.86" y="130.24" width="17.85" height="17.85" rx="1.65"/><circle class="e9004722-a3a2-453f-8d75-860a07000468" cx="102.36" cy="130.87" r="3.84"/><rect class="a5062f66-b5cd-48a1-9882-39a536147bb4" x="117.36" y="130.24" width="17.85" height="17.85" rx="1.65"/><circle class="a0e3d40d-2dcd-4a5e-beae-3dd3048ba378" cx="134.86" cy="130.87" r="3.84"/><rect class="a5062f66-b5cd-48a1-9882-39a536147bb4" x="148.35" y="130.24" width="17.85" height="17.85" rx="1.65"/><circle class="b0409c7c-5948-4b46-a554-57701659efbf" cx="165.84" cy="130.87" r="3.84"/><rect class="a5062f66-b5cd-48a1-9882-39a536147bb4" x="84.86" y="159.21" width="17.85" height="17.85" rx="1.65"/><circle class="f1c407e2-e29e-4eeb-989b-dd0b29c1df5f" cx="102.36" cy="159.84" r="3.84"/><rect class="a5062f66-b5cd-48a1-9882-39a536147bb4" x="117.36" y="159.21" width="17.85" height="17.85" rx="1.65"/><circle class="ac11a69d-3f04-4cca-ac78-8ec49e331b84" cx="134.86" cy="159.84" r="3.84"/><rect class="a5062f66-b5cd-48a1-9882-39a536147bb4" x="148.35" y="159.21" width="17.85" height="17.85" rx="1.65"/><circle class="f1c407e2-e29e-4eeb-989b-dd0b29c1df5f" cx="165.84" cy="159.84" r="3.84"/><path class="a3fde0e1-68e5-4dba-9b93-e1952217cdfc" d="M195.14,43.52H218a0,0,0,0,1,0,0v20.2a20.2,20.2,0,0,1-20.2,20.2h-2.67a20.2,20.2,0,0,1-20.2-20.2v0A20.2,20.2,0,0,1,195.14,43.52Z" transform="translate(392.95 127.44) rotate(-180)"/><circle class="a5062f66-b5cd-48a1-9882-39a536147bb4" cx="196.48" cy="63.72" r="11.33"/><circle class="acb0de46-acf8-4408-b61e-d542114fee7c" cx="274.44" cy="63.72" r="4.76"/><circle class="e9004722-a3a2-453f-8d75-860a07000468" cx="255.88" cy="63.72" r="4.76"/><circle class="e9004722-a3a2-453f-8d75-860a07000468" cx="237.33" cy="63.72" r="4.76"/></svg>