<svg id="b4158fb1-d9bd-453c-9587-0980d708724c" data-name="Layer 1" xmlns="http://www.w3.org/2000/svg" xmlns:xlink="http://www.w3.org/1999/xlink" viewBox="0 0 600 450"><defs><style>.a140879a-dcbc-444a-b3a9-d912256474a3,.a23b3561-7948-4778-b290-73e3e9115f67,.a439c7ac-3f47-4b9d-8445-41138657152a,.abf080b9-414a-41da-ba77-b238546d81f0,.ac8741c3-adcf-49d5-bf3e-1f59b5002a45,.b2139ea3-ee10-4543-92fc-86f5469915b2,.b33b62ec-6288-441e-84b4-9c0e16e3dde4,.bbd12e1e-e8f6-4462-b5cc-04cfc776294f,.e110af6e-1565-47db-a966-0474f75bf547,.e8efe88f-d165-40d3-abc4-aac7447608a1,.ee7515eb-e13f-470f-a4fa-78227b14b366,.ef7a1d54-81d7-4f4e-a6c0-806c243fc79e,.f04e669d-86ba-4527-878b-1c100e60cfe0{opacity:0.15;isolation:isolate;}.b2139ea3-ee10-4543-92fc-86f5469915b2{fill:url(#bc3452ec-4e4e-41c3-a395-5f03e9c8144b);}.ef7a1d54-81d7-4f4e-a6c0-806c243fc79e{fill:url(#ab80864d-3603-425a-8cc1-e8f73dc3690e);}.b1f3cff2-539a-4ddd-81dc-7e80522030ca{fill:#d1d3d4;}.a55db479-04aa-4562-8bb6-e1998dc17af7{fill:#f1f2f2;}.e062bab3-cfbb-4f56-af6a-3662101c1781{fill:#fff;}.a9c1eaf0-1558-4dca-8260-1b18824595c4{fill:#0562e8;}.b4331a62-ff4b-4dd7-9c92-10fbff3bb6c5{fill:#3382e2;}.bd6ba406-b96c-42fd-b1a8-07d7cf2657bf{fill:#bcbec0;}.ab9455ac-9009-4040-aafe-fc8b969f2386{fill:#ff9000;}.a30ab1fd-e56e-471c-b93c-0e7a41530248{fill:#3470f2;}.b8a837ae-5408-49e2-bd4e-4afc76db59c9{fill:#bcc2c6;}.a21eab9b-74e3-40a8-8acb-2efe8d56ab5a{fill:#0053a5;}.a74acc86-1c61-4840-84ba-12f3fd35d6b1{fill:#0059c4;}.bafb4143-2af4-432a-97a0-6153257dd493{fill:#3dba85;}.baa77e30-46c7-478d-88a5-6e2c01ac31f3{fill:#c97212;}.a3ba3994-9091-40f6-98fa-fef5e277d790{fill:#f99316;}.b9acdaa1-0d0e-4e07-a17c-21a28700f90e{fill:#e6e7e8;}.a5b0e507-03b2-46d5-9b37-b7f88e6fc7aa{fill:#ebeff0;}.e8efe88f-d165-40d3-abc4-aac7447608a1{fill:url(#b0b5558c-e94c-47bc-8a56-97243bbe539f);}.e110af6e-1565-47db-a966-0474f75bf547{fill:url(#b2c57db2-e997-4bb8-bcec-7bd8259c8791);}.a439c7ac-3f47-4b9d-8445-41138657152a{fill:url(#b265c900-bf9c-4374-878f-469841ca5d37);}.ac8741c3-adcf-49d5-bf3e-1f59b5002a45{fill:url(#b763c540-35c9-4e98-b06c-a14679331adc);}.f04e669d-86ba-4527-878b-1c100e60cfe0{fill:url(#f10d6b5a-93aa-4f23-beea-0361ae46d993);}.a23b3561-7948-4778-b290-73e3e9115f67{fill:url(#bfc16b78-3d3a-415b-9d37-818816fbfdff);}.abf080b9-414a-41da-ba77-b238546d81f0{fill:url(#f6b5c3a4-8392-43a2-b132-9ac053d90a64);}.bbd12e1e-e8f6-4462-b5cc-04cfc776294f{fill:url(#a7561f1b-de40-4cc1-ad7b-dc1b36c03999);}.b33b62ec-6288-441e-84b4-9c0e16e3dde4{fill:url(#a64cf1c8-da03-42b1-8cc9-ea7dfff20335);}.ee7515eb-e13f-470f-a4fa-78227b14b366{fill:url(#bc0d1a1d-0b30-4863-9f83-762c96750007);}.a140879a-dcbc-444a-b3a9-d912256474a3{fill:url(#ac01c8aa-8468-4a57-80ec-eb1431183c0c);}.a818f0ad-7a15-4469-bab2-51c2ef0aba19{fill:none;stroke:#fff;stroke-miterlimit:10;stroke-width:2.89px;}.b5f7dec9-5073-4817-ba1f-b9e5699f5d8c{fill:#1b58bf;}</style><linearGradient id="bc3452ec-4e4e-41c3-a395-5f03e9c8144b" x1="-110.39" y1="1922.84" x2="279.21" y2="1927.16" gradientTransform="matrix(1, 0, 0, -1, 0, 2150.73)" gradientUnits="userSpaceOnUse"><stop offset="0" stop-color="#d1d3d4" stop-opacity="0"/><stop offset="1" stop-color="#bcbec0"/></linearGradient><linearGradient id="ab80864d-3603-425a-8cc1-e8f73dc3690e" x1="231.18" y1="1926.17" x2="575.05" y2="1926.17" xlink:href="#bc3452ec-4e4e-41c3-a395-5f03e9c8144b"/><linearGradient id="b0b5558c-e94c-47bc-8a56-97243bbe539f" x1="522.12" y1="1988.51" x2="522.22" y2="2042.52" gradientTransform="matrix(1, 0, 0, -1, 0, 2150.73)" gradientUnits="userSpaceOnUse"><stop offset="0" stop-color="#3470f2" stop-opacity="0"/><stop offset="1" stop-color="#3470f2"/></linearGradient><linearGradient id="b2c57db2-e997-4bb8-bcec-7bd8259c8791" x1="420.81" y1="1840.02" x2="420.92" y2="1894.03" xlink:href="#b0b5558c-e94c-47bc-8a56-97243bbe539f"/><linearGradient id="b265c900-bf9c-4374-878f-469841ca5d37" x1="218.23" y1="1971.63" x2="218.41" y2="2054.93" xlink:href="#b0b5558c-e94c-47bc-8a56-97243bbe539f"/><linearGradient id="b763c540-35c9-4e98-b06c-a14679331adc" x1="366.38" y1="1971.63" x2="366.55" y2="2054.93" xlink:href="#b0b5558c-e94c-47bc-8a56-97243bbe539f"/><linearGradient id="f10d6b5a-93aa-4f23-beea-0361ae46d993" x1="467.9" y1="1899.1" x2="468.07" y2="1982.39" xlink:href="#b0b5558c-e94c-47bc-8a56-97243bbe539f"/><linearGradient id="bfc16b78-3d3a-415b-9d37-818816fbfdff" x1="144.43" y1="1894.55" x2="144.6" y2="1977.85" xlink:href="#b0b5558c-e94c-47bc-8a56-97243bbe539f"/><linearGradient id="f6b5c3a4-8392-43a2-b132-9ac053d90a64" x1="349.73" y1="1914.13" x2="349.84" y2="1968.15" xlink:href="#b0b5558c-e94c-47bc-8a56-97243bbe539f"/><linearGradient id="a7561f1b-de40-4cc1-ad7b-dc1b36c03999" x1="250.57" y1="1908.77" x2="250.68" y2="1962.79" xlink:href="#b0b5558c-e94c-47bc-8a56-97243bbe539f"/><linearGradient id="a64cf1c8-da03-42b1-8cc9-ea7dfff20335" x1="192.49" y1="1830.07" x2="192.6" y2="1884.08" xlink:href="#b0b5558c-e94c-47bc-8a56-97243bbe539f"/><linearGradient id="bc0d1a1d-0b30-4863-9f83-762c96750007" x1="550.47" y1="1982.27" x2="550.79" y2="2141.23" xlink:href="#b0b5558c-e94c-47bc-8a56-97243bbe539f"/><linearGradient id="ac01c8aa-8468-4a57-80ec-eb1431183c0c" x1="57.59" y1="2028.4" x2="57.72" y2="2088.9" xlink:href="#b0b5558c-e94c-47bc-8a56-97243bbe539f"/></defs><title>AI services Pages and sub Pages</title><path class="b2139ea3-ee10-4543-92fc-86f5469915b2" d="M358.57,234,198.22,419.56a10.51,10.51,0,0,1-14.77,1.61,11.14,11.14,0,0,1-1.61-1.61L21.49,234a14.91,14.91,0,0,1,0-18.93L181.85,29.55a10.5,10.5,0,0,1,14.76-1.61,10.72,10.72,0,0,1,1.62,1.61L358.57,215.09A14.88,14.88,0,0,1,358.57,234Z"/><path class="ef7a1d54-81d7-4f4e-a6c0-806c243fc79e" d="M571.66,234,411.3,419.56a10.5,10.5,0,0,1-14.76,1.61,10.21,10.21,0,0,1-1.61-1.61L234.58,234a14.88,14.88,0,0,1,0-18.93L394.94,29.55a10.5,10.5,0,0,1,14.76-1.61,11.14,11.14,0,0,1,1.61,1.61L571.66,215.09A14.91,14.91,0,0,1,571.66,234Z"/><path class="b1f3cff2-539a-4ddd-81dc-7e80522030ca" d="M484.8,337.37s2.59-3.76,1.58-6.5H474.6c-2.9,0-11.94,2.89-11.94-15.42V275.78c0-6.88,1.43-16.67,15.17-22.91s51.58-13.25,65.7-18.21,20.88,1.65,20.88,18.72,5.28,49.76,5.28,54.73c0,15.05-12.15,23.8-32.39,23.8s-38.06-.51-38.06-.51S491.76,337.37,484.8,337.37Z"/><path class="a55db479-04aa-4562-8bb6-e1998dc17af7" d="M484.8,337.37a18.65,18.65,0,0,0,6.88-11.79H479.89c-2.89,0-11.94,2.89-11.94-15.42V270.48c0-6.88-.83-12.85,12.91-19.09s53.84-17.06,68-22,20.87,1.65,20.87,18.7v59.58c0,5-6.88,19-27.11,19s-38.07-.51-38.07-.51S497.91,338,484.8,337.37Z"/><path class="e062bab3-cfbb-4f56-af6a-3662101c1781" d="M517.15,247.66S555,228,560.1,235.84s2.61,46.73,2.61,46.73-.44-33-9.05-39.2C544.85,237,517.15,247.66,517.15,247.66Z"/><path class="e062bab3-cfbb-4f56-af6a-3662101c1781" d="M472.9,299.52s.22,14.19,4,17.75S495.11,321,495.11,321s-15.88,3.64-20.48-1.81S472.9,299.52,472.9,299.52Z"/><path class="b1f3cff2-539a-4ddd-81dc-7e80522030ca" d="M301.94,165.2s12.32,2.65,12.32-5.78H284.53c-13.14,0-34.38,3.14-34.38-20.94,0-20.57,5.27-6.06,5.27-10.42S254.06,92,280,92s33.35-5.28,42.19-5.28,18.89,3.42,23.76,24.38,4,27.24,3.16,33.6-8.84,13-18.12,12.9C331,157.59,321.07,170.35,301.94,165.2Z"/><path class="a55db479-04aa-4562-8bb6-e1998dc17af7" d="M301.94,165.2a11.65,11.65,0,0,0,7.08-11H279.25c-13.14,0-29.12,2.25-29.12-18.31v-13c0-4.36-1.35-36.07,24.58-36.07h42.17c8.84,0,18.93-1.85,23.78,19.09s4.07,27.23,3.18,33.6-8.83,13-18.12,13C325.72,152.4,320.86,169.21,301.94,165.2Z"/><path class="e062bab3-cfbb-4f56-af6a-3662101c1781" d="M285.93,92s-15.78-2.39-21.07,2.79c-7.71,7.55-7.71,23.07-7.71,23.07s4-13.88,10.31-19.51S285.93,92,285.93,92Z"/><path class="e062bab3-cfbb-4f56-af6a-3662101c1781" d="M338.83,126.58s-.19,11.82-3.32,14.79-15.19,3.09-15.19,3.09,13.25,3,17.07-1.49S338.83,126.58,338.83,126.58Z"/><path class="b1f3cff2-539a-4ddd-81dc-7e80522030ca" d="M446.1,193.76s11.31-1.84,12.89-6H427.93c-13.68,0-35.8,3-35.8-21,0-21.43,5.48-7.11,5.48-11.65s-1.41-37.59,25.6-37.59S457.38,112,466.59,112s20.24,3.59,25.31,25.41,4.23,28.36,3.31,35-9.23,13.55-18.87,13.47C476.34,185.85,467.35,201.34,446.1,193.76Z"/><path class="a55db479-04aa-4562-8bb6-e1998dc17af7" d="M446.1,193.76a12.14,12.14,0,0,0,7.37-11.48h-31c-13.69,0-30.33,2.33-30.33-19.1V149.62c0-4.55-1.41-37.59,25.61-37.59h43.92c9.21,0,19.7-1.93,24.76,19.89s4.24,28.36,3.32,35-9.21,13.5-18.87,13.45C470.88,180.35,465.81,197.93,446.1,193.76Z"/><path class="e062bab3-cfbb-4f56-af6a-3662101c1781" d="M433.78,115.64S412,114,404.45,120.46c-7.12,6.16-6.16,28-6.16,28s3.32-19.85,9.19-24.1S433.78,115.64,433.78,115.64Z"/><path class="e062bab3-cfbb-4f56-af6a-3662101c1781" d="M483.47,155.29s.3,11.93-2.52,14.6-16.34,3.41-16.34,3.41,14.59,2.09,18-1.93S483.47,155.29,483.47,155.29Z"/><path class="b1f3cff2-539a-4ddd-81dc-7e80522030ca" d="M84.19,319.23s-23.29-.56-23.29-10H48.26c-7.24,0-8.54-2-8.54-11.3s1-22.5,2.19-28.62,1.79-33,16.64-33c9.39,0,35.36,4.14,47.61,6.55s26.36,11.19,30.42,27.51c5.5,22.17-.38,25.6-6.19,29.09s-24.23,8.76-43.19,8.76c-10.46,0-12.16.54-12.16.54S74.71,311.44,84.19,319.23Z"/><path class="a55db479-04aa-4562-8bb6-e1998dc17af7" d="M84.29,318.94s-19.41-4.24-19.41-13.63H52.23c-7.25,0-8.54-2-8.54-11.32s1-22.48,2.19-28.6,3.79-29.07,13.18-29.07,38.81.18,51.09,2.6,20.48,9.93,25.06,26.11,5,27-.81,30.49-24.23,8.76-43.18,8.76c-10.47,0-12.17.54-12.17.54S74.81,311.16,84.29,318.94Z"/><path class="e062bab3-cfbb-4f56-af6a-3662101c1781" d="M79.39,240.36s36,2.51,41.14,7.24c4.69,4.34,11.48,22.63,11.48,22.63s-7.65-14-14.11-18.63C111.29,246.86,79.39,240.36,79.39,240.36Z"/><path class="e062bab3-cfbb-4f56-af6a-3662101c1781" d="M49,287.74s-.22,8.67,1.83,10.6,11.87,2.5,11.87,2.5-10.6,1.52-13.09-1.44S49,287.74,49,287.74Z"/><path class="b1f3cff2-539a-4ddd-81dc-7e80522030ca" d="M187.73,203.25s-6.42,5.95-22.11,2.55c0,0-1.71,4-25.32,4-26.6,0-45.88-2.81-49-20s-.69-35.17-1-41.63-.48-20.6,19.76-20.6,40.11-2.55,50.83-1.7c15.7,1.23,21.55,17.9,21.55,30.33s-1.48,38.56-3.86,44.25C178.58,200.54,179.7,202.76,187.73,203.25Z"/><path class="a55db479-04aa-4562-8bb6-e1998dc17af7" d="M187.73,203.25s-9.13,4.72-23.29-1.92c0,0-2.51,3.51-29.11,3.51s-41.69-1-44.84-18.15a401,401,0,0,1-5.19-43.43c-.31-6.45-.47-20.61,19.83-20.61s44.21,2,54.94,3.15,17.46,13.1,17.46,25.53-.62,34.61-1.57,38.39C175.93,189.72,173.1,199.16,187.73,203.25Z"/><path class="e062bab3-cfbb-4f56-af6a-3662101c1781" d="M132.73,131.11s-35.51-6-40.26,1.36,2.17,44.42,2.17,44.42-4.19-31.54,3.85-37.35C106.76,133.59,132.73,131.11,132.73,131.11Z"/><path class="e062bab3-cfbb-4f56-af6a-3662101c1781" d="M167.89,181.07s.27,10.84-2.29,13.26-14.82,3.09-14.82,3.09,13.24,1.93,16.38-1.78S167.89,181.07,167.89,181.07Z"/><path class="a9c1eaf0-1558-4dca-8260-1b18824595c4" d="M128.79,142c1.78-.64,3.55-1.27,5.31-1.93a1.06,1.06,0,0,0,.72-.76q.84-2.17,1.8-4.3a1.12,1.12,0,0,0,0-1c-.76-1.53-1.48-3.09-2.22-4.62a.63.63,0,0,1,.13-.87c1.26-1.21,2.5-2.44,3.72-3.71a.62.62,0,0,1,.86-.13q2.35,1.16,4.75,2.24a1.19,1.19,0,0,0,.79,0c1.5-.6,3-1.26,4.49-1.85a1,1,0,0,0,.66-.63c.57-1.64,1.17-3.26,1.73-4.89a.58.58,0,0,1,.65-.49h5.32a.6.6,0,0,1,.68.47c.55,1.63,1.16,3.25,1.71,4.89a1.07,1.07,0,0,0,.73.67c1.44.55,2.89,1.15,4.31,1.79a1.11,1.11,0,0,0,1.09,0c1.51-.76,3-1.45,4.55-2.2a.67.67,0,0,1,.92.15c1.19,1.24,2.4,2.44,3.62,3.63a.72.72,0,0,1,.17,1h0q-1.16,2.33-2.22,4.68a1.19,1.19,0,0,0,0,.79c.6,1.5,1.23,3,1.87,4.48a1.21,1.21,0,0,0,.58.62c1.64.62,3.3,1.18,4.94,1.78.18.07.43.31.43.48v6c-1.75.63-3.47,1.26-5.21,1.84a1.22,1.22,0,0,0-.85.87c-.52,1.42-1.1,2.81-1.74,4.2a1.11,1.11,0,0,0,0,1.14c.74,1.52,1.45,3.05,2.19,4.56a.62.62,0,0,1-.15.86q-1.87,1.83-3.71,3.72a.63.63,0,0,1-.86.13c-1.58-.77-3.16-1.53-4.75-2.25a1.08,1.08,0,0,0-.79,0c-1.49.6-3,1.26-4.48,1.84a1,1,0,0,0-.67.65c-.57,1.63-1.17,3.24-1.73,4.88a.57.57,0,0,1-.65.49h-5.33a.57.57,0,0,1-.66-.45h0c-.56-1.64-1.17-3.25-1.73-4.88a.94.94,0,0,0-.72-.68c-1.46-.56-2.92-1.17-4.36-1.82a1,1,0,0,0-1,0c-1.53.75-3.08,1.46-4.61,2.22a.67.67,0,0,1-.94-.13l0,0q-1.8-1.87-3.67-3.67a.67.67,0,0,1-.14-.92c.76-1.55,1.49-3.12,2.25-4.67a.9.9,0,0,0,0-.87c-.66-1.47-1.25-3-1.93-4.46a1.34,1.34,0,0,0-.59-.63c-1.61-.61-3.24-1.19-4.87-1.74-.38-.13-.53-.28-.53-.7C128.81,145.88,128.79,144,128.79,142Zm26.09,13.55a10.4,10.4,0,1,0-10.41-10.39v0a10.37,10.37,0,0,0,10.39,10.35Z"/><path class="b4331a62-ff4b-4dd7-9c92-10fbff3bb6c5" d="M181,148.3c-1.75.63-3.47,1.25-5.2,1.84a1.27,1.27,0,0,0-.87.87c-.52,1.41-1.1,2.81-1.74,4.18a1.2,1.2,0,0,0,0,1.16c.74,1.51,1.44,3,2.19,4.55a.63.63,0,0,1-.15.87q-1.87,1.83-3.71,3.72a.64.64,0,0,1-.87.12L168,164.35c.86-.87,1.73-1.72,2.6-2.58a.63.63,0,0,0,.15-.87c-.74-1.51-1.45-3-2.2-4.55a1.2,1.2,0,0,1,0-1.16c.64-1.37,1.22-2.76,1.75-4.18a1.21,1.21,0,0,1,.85-.87c1.74-.59,3.45-1.21,5.21-1.84v-6a.78.78,0,0,0-.44-.48c-1.64-.6-3.29-1.16-4.93-1.78a1.23,1.23,0,0,1-.58-.63c-.65-1.47-1.27-3-1.87-4.47a1.13,1.13,0,0,1-.05-.79c.72-1.57,1.45-3.13,2.22-4.68a.76.76,0,0,0-.15-1q-1.29-1.23-2.55-2.52c.87-.42,1.75-.82,2.6-1.25a.66.66,0,0,1,.92.15h0q1.78,1.85,3.62,3.62a.72.72,0,0,1,.17,1v0q-1.16,2.33-2.22,4.68a1.19,1.19,0,0,0,0,.79c.6,1.5,1.22,3,1.87,4.47a1.23,1.23,0,0,0,.58.63c1.64.62,3.3,1.18,4.93,1.78.19.07.44.31.44.48C181,144.31,181,146.3,181,148.3Z"/><path class="bd6ba406-b96c-42fd-b1a8-07d7cf2657bf" d="M117.65,166.63c-7.46,0-15.43,4.76-15.43,14.26,0,7,4.46,18.52,15.43,18.52a18.67,18.67,0,0,1-18.53-18.52c0-9.2,7.58-18.53,18.53-18.53v-5l7.71,7.71-7.59,7.56Z"/><path class="bd6ba406-b96c-42fd-b1a8-07d7cf2657bf" d="M123.28,202.71c7.46,0,15.42-4.74,15.42-14.24,0-7-4.45-18.53-15.42-18.53a18.67,18.67,0,0,1,18.52,18.53c0,9.2-7.57,18.51-18.52,18.51v5l-7.71-7.71,7.61-7.62Z"/><circle class="bd6ba406-b96c-42fd-b1a8-07d7cf2657bf" cx="120.8" cy="184.56" r="6.18"/><circle class="bd6ba406-b96c-42fd-b1a8-07d7cf2657bf" cx="120.8" cy="184.56" r="4.24"/><path class="ab9455ac-9009-4040-aafe-fc8b969f2386" d="M116.81,165.78c-7.46,0-15.42,4.75-15.42,14.25,0,7,4.44,18.52,15.42,18.52A18.68,18.68,0,0,1,98.28,180c0-9.2,7.58-18.52,18.53-18.52v-5l7.71,7.72-7.61,7.6Z"/><path class="ab9455ac-9009-4040-aafe-fc8b969f2386" d="M122.42,201.87c7.46,0,15.42-4.76,15.42-14.26,0-7-4.44-18.53-15.42-18.53a18.67,18.67,0,0,1,18.52,18.53c0,9.2-7.57,18.53-18.52,18.53v5l-7.71-7.71,7.6-7.61Z"/><circle class="b1f3cff2-539a-4ddd-81dc-7e80522030ca" cx="119.94" cy="183.71" r="6.18"/><circle class="a9c1eaf0-1558-4dca-8260-1b18824595c4" cx="119.94" cy="183.71" r="4.24"/><path class="e062bab3-cfbb-4f56-af6a-3662101c1781" d="M380.54,258.75V238.27a1.26,1.26,0,0,1,.85-.13h34a1.26,1.26,0,0,1,.85.13v20.48c-.13,2.22-2.42,3.5-4.16,3.49H384.61a3.64,3.64,0,0,1-4.07-3.49Z"/><path class="a30ab1fd-e56e-471c-b93c-0e7a41530248" d="M380.55,236.33c0-2.1-.07-4.2,0-6.3a3.85,3.85,0,0,1,4-3.63.41.41,0,0,1,.15.32c0,1.24.06,2.48,0,3.72-.14.26-.23.15-.28,0a5.39,5.39,0,0,1-.06-.8,2.77,2.77,0,0,0,.13,3.73,2.9,2.9,0,0,0,4,.1,2.77,2.77,0,0,0,.27-3.85c-.06.28,0,.55-.06.79s-.11.31-.27.06a33,33,0,0,1,0-3.72.34.34,0,0,1,.14-.32h19.87a.36.36,0,0,1,.14.32c0,1.24.07,2.48,0,3.71-.12.26-.22.16-.28,0s0-.51-.06-.79a2.75,2.75,0,0,0,.15,3.72,2.89,2.89,0,0,0,4,.11,2.79,2.79,0,0,0,.26-3.86c-.06.28,0,.55-.06.8s-.11.31-.28.06c-.11-1.24,0-2.48,0-3.72a.4.4,0,0,1,.15-.33,3.86,3.86,0,0,1,4,3.64c.07,2.1,0,4.2,0,6.3-.23.21-.52.15-.8.15H381.45C381.15,236.48,380.82,236.57,380.55,236.33Z"/><path class="b8a837ae-5408-49e2-bd4e-4afc76db59c9" d="M380.54,258.75a4.57,4.57,0,0,0,1.37,2.36,3.64,3.64,0,0,0,2.39,1h28.16a4.07,4.07,0,0,0,3.59-2.78,1.47,1.47,0,0,1,.18-.56,8,8,0,0,1-.25,2.75,3.87,3.87,0,0,1-3.55,2.55H384.34a3.92,3.92,0,0,1-3.81-3.86C380.53,259.75,380.54,259.25,380.54,258.75Z"/><path class="a21eab9b-74e3-40a8-8acb-2efe8d56ab5a" d="M380.55,236.33h35.66v1.93H380.52Z"/><path class="b8a837ae-5408-49e2-bd4e-4afc76db59c9" d="M388.45,226.4v4.15a1.53,1.53,0,0,1-.74,1.49,2.09,2.09,0,0,1-2.93-.43,2,2,0,0,1-.33-.65.49.49,0,0,1,0-.41v-6.2a2,2,0,0,1,3.92,0A20.07,20.07,0,0,1,388.45,226.4Z"/><path class="b8a837ae-5408-49e2-bd4e-4afc76db59c9" d="M408.31,230.55V224.3a2,2,0,0,1,3.91,0v6.26c.11.14,0,.29,0,.43a2.08,2.08,0,0,1-4,0A.5.5,0,0,1,408.31,230.55Z"/><path class="b8a837ae-5408-49e2-bd4e-4afc76db59c9" d="M386.48,246.19h-1.57c-.28,0-.39-.07-.39-.36v-3.2c0-.25.08-.36.35-.36h3.25c.27,0,.32.13.32.38v3.19c0,.31-.12.36-.38.35Z"/><path class="b8a837ae-5408-49e2-bd4e-4afc76db59c9" d="M392.4,246.19h-1.52c-.3,0-.41-.07-.41-.38v-3.15c0-.27.06-.39.35-.39H394c.3,0,.37.13.36.4v3.15c0,.32-.13.38-.41.37Z"/><path class="b8a837ae-5408-49e2-bd4e-4afc76db59c9" d="M400.34,244.26v1.53c0,.29-.07.41-.39.4H396.8c-.32,0-.39-.11-.39-.4v-3.1c0-.29.07-.42.39-.42H400c.32,0,.4.13.39.42C400.33,243.21,400.34,243.74,400.34,244.26Z"/><path class="b8a837ae-5408-49e2-bd4e-4afc76db59c9" d="M404.37,242.28H406c.26,0,.34.1.34.36v3.24c0,.24-.08.32-.32.32h-3.29c-.22,0-.31-.08-.3-.29v-3.3c0-.24.09-.33.33-.32Z"/><path class="ab9455ac-9009-4040-aafe-fc8b969f2386" d="M412.24,244.26v1.53c0,.29-.07.41-.38.4H408.7c-.31,0-.39-.11-.38-.4v-3.1c0-.29.06-.42.37-.42h3.16c.31,0,.4.12.39.42C412.23,243.21,412.24,243.74,412.24,244.26Z"/><path class="ab9455ac-9009-4040-aafe-fc8b969f2386" d="M386.5,248.23h1.62c.24,0,.32.08.32.32v3.24c0,.27-.08.36-.34.36h-3.25c-.23,0-.33-.08-.33-.32v-3.24c0-.26.09-.36.35-.35Z"/><path class="b8a837ae-5408-49e2-bd4e-4afc76db59c9" d="M394.41,250.19v1.58c0,.26-.06.38-.36.38h-3.2c-.29,0-.36-.11-.35-.38v-3.16c0-.31.12-.39.41-.38H394c.34,0,.43.12.42.43C394.41,249.16,394.41,249.67,394.41,250.19Z"/><path class="ab9455ac-9009-4040-aafe-fc8b969f2386" d="M400.34,250.19v1.58c0,.26-.07.38-.37.38h-3.19c-.3,0-.37-.11-.37-.38v-3.16c0-.31.12-.39.41-.38h3.1c.34,0,.43.12.42.43C400.33,249.16,400.34,249.67,400.34,250.19Z"/><path class="ab9455ac-9009-4040-aafe-fc8b969f2386" d="M404.34,252.14h-1.58c-.27,0-.39-.07-.39-.36v-3.2c0-.29.12-.36.39-.36h3.15c.32,0,.39.11.38.4v3.11c0,.33-.11.42-.43.41Z"/><path class="b8a837ae-5408-49e2-bd4e-4afc76db59c9" d="M410.31,248.23h1.53c.29,0,.41.07.41.38v3.16c0,.31-.12.38-.41.38h-3.11c-.29,0-.41-.08-.41-.38v-3.16c0-.32.12-.39.41-.38C409.26,248.24,409.83,248.23,410.31,248.23Z"/><path class="b8a837ae-5408-49e2-bd4e-4afc76db59c9" d="M388.44,256.16v1.52c0,.29-.05.43-.38.42h-3.15c-.26,0-.39-.06-.39-.36v-3.2c0-.29.12-.36.39-.36h3.15c.31,0,.39.11.38.4C388.42,255.11,388.44,255.63,388.44,256.16Z"/><path class="ab9455ac-9009-4040-aafe-fc8b969f2386" d="M394.41,256.16v1.53c0,.29-.07.42-.39.41h-3.15c-.32,0-.38-.12-.37-.41v-3.11c0-.29.07-.41.39-.4H394c.32,0,.39.12.38.41C394.41,255.11,394.41,255.64,394.41,256.16Z"/><path class="ab9455ac-9009-4040-aafe-fc8b969f2386" d="M398.38,258.1h-1.57c-.27,0-.4-.07-.39-.36v-3.2c0-.3.12-.36.39-.36H400c.32,0,.39.11.39.4v3.11c0,.34-.13.42-.44.41C399.4,258.08,398.89,258.1,398.38,258.1Z"/><path class="b8a837ae-5408-49e2-bd4e-4afc76db59c9" d="M406.29,256.15v1.58c0,.29-.09.37-.37.37h-3.15c-.31,0-.4-.11-.4-.41v-3.15c0-.28.11-.36.38-.36h3.15c.31,0,.4.1.39.4C406.28,255.1,406.29,255.63,406.29,256.15Z"/><path class="b8a837ae-5408-49e2-bd4e-4afc76db59c9" d="M412.24,256.17v1.57c0,.25-.08.36-.34.36h-3.24c-.28,0-.33-.13-.33-.37v-3.2c0-.25.08-.35.34-.35h3.24c.28,0,.34.12.33.36C412.23,255.08,412.24,255.62,412.24,256.17Z"/><path class="a74acc86-1c61-4840-84ba-12f3fd35d6b1" d="M408.31,230.55a2,2,0,0,0,3.95,0c.17-.39,0-.82.11-1.22a2.72,2.72,0,0,1,.74,2.94,3,3,0,0,1-5.65,0,2.73,2.73,0,0,1,.74-2.94C408.32,229.74,408.15,230.17,408.31,230.55Z"/><path class="a74acc86-1c61-4840-84ba-12f3fd35d6b1" d="M384.5,230.55a2,2,0,0,0,4,0c.16-.38,0-.79.09-1.18a2.53,2.53,0,0,1,.9,2.39,3,3,0,0,1-5.73.71,2.78,2.78,0,0,1,.68-3.14C384.51,229.74,384.35,230.17,384.5,230.55Z"/><path class="a9c1eaf0-1558-4dca-8260-1b18824595c4" d="M441.73,147.49v-20.9a20.9,20.9,0,1,0,20.88,20.91H441.73Z"/><path class="bafb4143-2af4-432a-97a0-6153257dd493" d="M443.8,145.29h20.81A20.79,20.79,0,0,0,444,124.45Z"/><path class="a21eab9b-74e3-40a8-8acb-2efe8d56ab5a" d="M457.54,161.07a20.85,20.85,0,0,1-31.77-27,21.39,21.39,0,0,1,2.38-2.38,20.73,20.73,0,0,0-5.08,13.6A21,21,0,0,0,444,166.16,20.75,20.75,0,0,0,457.54,161.07Z"/><rect class="a9c1eaf0-1558-4dca-8260-1b18824595c4" x="59.24" y="249.44" width="6.46" height="41.59"/><polygon class="a21eab9b-74e3-40a8-8acb-2efe8d56ab5a" points="59.23 291.04 57.63 291.04 57.63 252.3 59.23 249.44 59.23 291.04"/><rect class="ab9455ac-9009-4040-aafe-fc8b969f2386" x="68.8" y="260.86" width="6.46" height="30.18"/><polygon class="baa77e30-46c7-478d-88a5-6e2c01ac31f3" points="68.81 291.04 67.19 291.04 67.19 263.71 68.81 260.86 68.81 291.04"/><rect class="a9c1eaf0-1558-4dca-8260-1b18824595c4" x="78.37" y="267.24" width="6.46" height="23.8"/><polygon class="a21eab9b-74e3-40a8-8acb-2efe8d56ab5a" points="78.37 291.04 76.76 291.04 76.76 270.09 78.37 267.23 78.37 291.04"/><rect class="ab9455ac-9009-4040-aafe-fc8b969f2386" x="87.93" y="257.11" width="6.46" height="33.93"/><polygon class="baa77e30-46c7-478d-88a5-6e2c01ac31f3" points="87.94 291.04 86.32 291.04 86.32 259.96 87.94 257.1 87.94 291.04"/><path class="bd6ba406-b96c-42fd-b1a8-07d7cf2657bf" d="M100,274.91a13.14,13.14,0,1,0,13.13-13.14A13.14,13.14,0,0,0,100,274.91Zm1.46,0a11.69,11.69,0,1,1,11.69,11.67h0A11.68,11.68,0,0,1,101.5,274.91Z"/><polygon class="bd6ba406-b96c-42fd-b1a8-07d7cf2657bf" points="107.24 274.91 109.17 274.91 116.64 266.43 114.72 266.43 107.24 274.91"/><polygon class="bd6ba406-b96c-42fd-b1a8-07d7cf2657bf" points="114.72 283.38 116.64 283.38 109.17 274.91 107.24 274.91 114.72 283.38"/><path class="a3ba3994-9091-40f6-98fa-fef5e277d790" d="M100.66,273.93a13.14,13.14,0,1,0,13.14-13.14,13.14,13.14,0,0,0-13.14,13.14Zm1.46,0a11.68,11.68,0,1,1,11.69,11.67h0A11.68,11.68,0,0,1,102.12,273.93Z"/><polygon class="bafb4143-2af4-432a-97a0-6153257dd493" points="107.86 273.93 109.79 273.93 117.27 265.44 115.34 265.44 107.86 273.93"/><polygon class="bafb4143-2af4-432a-97a0-6153257dd493" points="115.34 282.41 117.27 282.41 109.79 273.93 107.86 273.93 115.34 282.41"/><rect class="a9c1eaf0-1558-4dca-8260-1b18824595c4" x="485.79" y="283.67" width="67.64" height="4.13"/><polygon class="b4331a62-ff4b-4dd7-9c92-10fbff3bb6c5" points="485.13 289.12 485.8 287.8 485.8 283.68 485.13 284.99 485.13 289.12"/><polygon class="a21eab9b-74e3-40a8-8acb-2efe8d56ab5a" points="485.13 289.12 552.76 289.12 553.43 287.8 485.8 287.8 485.13 289.12"/><rect class="a9c1eaf0-1558-4dca-8260-1b18824595c4" x="516.57" y="292.35" width="36.86" height="4.13"/><polygon class="b4331a62-ff4b-4dd7-9c92-10fbff3bb6c5" points="515.9 297.79 516.56 296.47 516.56 292.35 515.9 293.67 515.9 297.79"/><polygon class="a21eab9b-74e3-40a8-8acb-2efe8d56ab5a" points="515.9 297.79 552.76 297.79 553.43 296.47 516.56 296.47 515.9 297.79"/><rect class="a9c1eaf0-1558-4dca-8260-1b18824595c4" x="504.97" y="301.02" width="48.45" height="4.13"/><polygon class="b4331a62-ff4b-4dd7-9c92-10fbff3bb6c5" points="504.31 306.47 504.98 305.15 504.98 301.02 504.31 302.34 504.31 306.47"/><polygon class="a21eab9b-74e3-40a8-8acb-2efe8d56ab5a" points="504.31 306.47 552.76 306.47 553.43 305.15 504.98 305.15 504.31 306.47"/><rect class="a9c1eaf0-1558-4dca-8260-1b18824595c4" x="523.9" y="309.7" width="29.52" height="4.13"/><polygon class="b4331a62-ff4b-4dd7-9c92-10fbff3bb6c5" points="523.24 315.14 523.91 313.82 523.91 309.7 523.24 311.02 523.24 315.14"/><polygon class="a21eab9b-74e3-40a8-8acb-2efe8d56ab5a" points="523.24 315.14 552.76 315.14 553.43 313.82 523.91 313.82 523.24 315.14"/><circle class="bd6ba406-b96c-42fd-b1a8-07d7cf2657bf" cx="539.67" cy="268.91" r="7.18"/><circle class="b9acdaa1-0d0e-4e07-a17c-21a28700f90e" cx="540.4" cy="267.97" r="7.18"/><circle class="ab9455ac-9009-4040-aafe-fc8b969f2386" cx="540.4" cy="267.97" r="4.94"/><circle class="bd6ba406-b96c-42fd-b1a8-07d7cf2657bf" cx="520.98" cy="268.91" r="7.18"/><circle class="b9acdaa1-0d0e-4e07-a17c-21a28700f90e" cx="521.71" cy="267.97" r="7.18"/><circle class="ab9455ac-9009-4040-aafe-fc8b969f2386" cx="521.71" cy="267.97" r="4.94"/><circle class="bd6ba406-b96c-42fd-b1a8-07d7cf2657bf" cx="502.29" cy="268.91" r="7.18"/><circle class="b9acdaa1-0d0e-4e07-a17c-21a28700f90e" cx="503.02" cy="267.97" r="7.18"/><circle class="ab9455ac-9009-4040-aafe-fc8b969f2386" cx="503.02" cy="267.97" r="4.94"/><circle class="b1f3cff2-539a-4ddd-81dc-7e80522030ca" cx="119.94" cy="183.71" r="6.18"/><circle class="a30ab1fd-e56e-471c-b93c-0e7a41530248" cx="119.94" cy="183.71" r="4.24"/><rect class="a9c1eaf0-1558-4dca-8260-1b18824595c4" x="268.68" y="67.87" width="57.28" height="12.62"/><rect class="a21eab9b-74e3-40a8-8acb-2efe8d56ab5a" x="268.68" y="77.34" width="57.28" height="3.15"/><rect class="a21eab9b-74e3-40a8-8acb-2efe8d56ab5a" x="272.48" y="68.97" width="3.34" height="7.28" rx="1.67"/><rect class="b1f3cff2-539a-4ddd-81dc-7e80522030ca" x="273.23" y="64.51" width="1.85" height="11" rx="0.93"/><rect class="a21eab9b-74e3-40a8-8acb-2efe8d56ab5a" x="280.01" y="68.97" width="3.34" height="7.28" rx="1.67"/><rect class="a21eab9b-74e3-40a8-8acb-2efe8d56ab5a" x="287.52" y="68.97" width="3.34" height="7.28" rx="1.67"/><rect class="a21eab9b-74e3-40a8-8acb-2efe8d56ab5a" x="295.04" y="68.97" width="3.34" height="7.28" rx="1.67"/><rect class="a21eab9b-74e3-40a8-8acb-2efe8d56ab5a" x="302.56" y="68.97" width="3.34" height="7.28" rx="1.67"/><rect class="a21eab9b-74e3-40a8-8acb-2efe8d56ab5a" x="310.08" y="68.97" width="3.34" height="7.28" rx="1.67"/><rect class="a21eab9b-74e3-40a8-8acb-2efe8d56ab5a" x="317.6" y="68.97" width="3.34" height="7.28" rx="1.67"/><rect class="b9acdaa1-0d0e-4e07-a17c-21a28700f90e" x="268.68" y="80.5" width="57.28" height="64.32"/><rect class="bd6ba406-b96c-42fd-b1a8-07d7cf2657bf" x="268.68" y="141" width="57.28" height="3.82"/><rect class="b1f3cff2-539a-4ddd-81dc-7e80522030ca" x="280.75" y="64.51" width="1.85" height="11" rx="0.93"/><rect class="b1f3cff2-539a-4ddd-81dc-7e80522030ca" x="288.27" y="64.51" width="1.85" height="11" rx="0.93"/><rect class="b1f3cff2-539a-4ddd-81dc-7e80522030ca" x="295.78" y="64.51" width="1.85" height="11" rx="0.93"/><rect class="b1f3cff2-539a-4ddd-81dc-7e80522030ca" x="303.31" y="64.51" width="1.85" height="11" rx="0.93"/><rect class="b1f3cff2-539a-4ddd-81dc-7e80522030ca" x="310.83" y="64.51" width="1.85" height="11" rx="0.93"/><rect class="b1f3cff2-539a-4ddd-81dc-7e80522030ca" x="318.35" y="64.51" width="1.85" height="11" rx="0.93"/><rect class="b1f3cff2-539a-4ddd-81dc-7e80522030ca" x="268.68" y="89.14" width="57.28" height="8.65"/><rect class="b1f3cff2-539a-4ddd-81dc-7e80522030ca" x="268.68" y="106.43" width="57.28" height="8.65"/><rect class="b1f3cff2-539a-4ddd-81dc-7e80522030ca" x="268.68" y="123.71" width="57.28" height="8.65"/><rect class="ab9455ac-9009-4040-aafe-fc8b969f2386" x="273.24" y="83.97" width="37.47" height="1.7"/><rect class="b8a837ae-5408-49e2-bd4e-4afc76db59c9" x="273.24" y="92.62" width="31.04" height="1.7"/><rect class="b8a837ae-5408-49e2-bd4e-4afc76db59c9" x="273.24" y="101.25" width="46.94" height="1.7"/><rect class="b8a837ae-5408-49e2-bd4e-4afc76db59c9" x="273.24" y="109.9" width="32.53" height="1.7"/><rect class="ab9455ac-9009-4040-aafe-fc8b969f2386" x="273.24" y="118.55" width="28.7" height="1.7"/><rect class="b8a837ae-5408-49e2-bd4e-4afc76db59c9" x="273.24" y="127.19" width="43.74" height="1.7"/><rect class="ab9455ac-9009-4040-aafe-fc8b969f2386" x="273.24" y="135.83" width="27.92" height="1.7"/><path class="bd6ba406-b96c-42fd-b1a8-07d7cf2657bf" d="M277,188.88a2.42,2.42,0,0,1,2-.9h19.79v18.54a1,1,0,0,1-1-.19c-.8-.64-1.57-1.29-2.35-1.93-1.12-1-2.23-1.93-3.37-2.82l-2.45-2.06c-1.29-1.08-2.59-2.15-3.85-3.25l-3.22-2.68c-1.28-1.08-2.59-2.14-3.86-3.24-.21-.19-.44-.34-.64-.52C277.78,189.45,277.33,189.21,277,188.88Z"/><path class="bd6ba406-b96c-42fd-b1a8-07d7cf2657bf" d="M298.81,216.35H278.66a2.31,2.31,0,0,1-1.67-.86c.76-.68,1.54-1.33,2.31-1.93l2.74-2.34c.73-.62,1.46-1.26,2.22-1.87.56-.47,1.1-1,1.67-1.44s1.34-1.14,2-1.71c1.05-.86,2.07-1.75,3.11-2.64l.72-.61a.32.32,0,0,1,.35-.07c.54.43,1,1,1.53,1.39,1,.85,1.87,1.72,2.82,2.59.36.34.74.66,1.09,1a1.29,1.29,0,0,0,1.05.49.18.18,0,0,1,.18.07Z"/><path class="bd6ba406-b96c-42fd-b1a8-07d7cf2657bf" d="M298.81,208.35a1.39,1.39,0,0,1-1.25-.48c-1.69-1.58-3.4-3.14-5.1-4.71-.12-.1-.22-.22-.33-.32a4.52,4.52,0,0,1-1.1-.9c-1.27-1.19-2.57-2.36-3.85-3.54l-2.72-2.53c-1.08-1-2.16-2-3.26-3-.67-.61-1.3-1.26-2-1.87l-1.13-1c-.05,0-.12-.08-.13-.15s0-.16.12-.09c.76.57,1.46,1.2,2.2,1.81q2,1.67,4,3.36l3.17,2.65,3.56,3,3.43,2.9,3.45,2.89a1.2,1.2,0,0,0,1,.2Z"/><path class="bd6ba406-b96c-42fd-b1a8-07d7cf2657bf" d="M278.08,189.76c-.09,0-.12,0,0,.11l2.59,2.36c.29.26.56.54.86.8.66.6,1.3,1.24,1.93,1.84l3.14,2.89c1,.89,1.93,1.77,2.89,2.64.71.64,1.36,1.33,2.11,1.93a5.08,5.08,0,0,1,.54.5.27.27,0,0,0-.29.07l-4.67,4-4.27,3.6c-1.5,1.27-3,2.54-4.46,3.81l-1.2,1a.6.6,0,0,1-.25.13,2.38,2.38,0,0,1-.51-1.56V190.4a2.28,2.28,0,0,1,.51-1.52.29.29,0,0,1,.23.1C277.48,189.27,277.85,189.43,278.08,189.76Z"/><path class="bd6ba406-b96c-42fd-b1a8-07d7cf2657bf" d="M320.63,188.88a2.42,2.42,0,0,0-2-.9H298.81v18.54a1,1,0,0,0,1-.19l2.35-1.93c1.12-1,2.23-1.93,3.37-2.82l2.45-2.06c1.29-1.08,2.59-2.15,3.85-3.25l3.22-2.68c1.28-1.08,2.59-2.14,3.86-3.24.2-.19.43-.34.64-.52C319.89,189.45,320.31,189.21,320.63,188.88Z"/><path class="bd6ba406-b96c-42fd-b1a8-07d7cf2657bf" d="M298.81,216.35H319a2.31,2.31,0,0,0,1.66-.86c-.76-.68-1.54-1.33-2.31-1.93l-2.74-2.34c-.73-.62-1.46-1.26-2.21-1.87-.57-.47-1.11-1-1.68-1.44s-1.34-1.14-2-1.71c-1.05-.86-2.07-1.75-3.11-2.64-.24-.2-.49-.39-.72-.61a.32.32,0,0,0-.35-.07c-.54.43-1,1-1.53,1.39-1,.85-1.87,1.72-2.82,2.59-.36.34-.74.66-1.09,1a1.27,1.27,0,0,1-1.06.49.22.22,0,0,0-.18.07Z"/><path class="bd6ba406-b96c-42fd-b1a8-07d7cf2657bf" d="M298.81,208.35a1.38,1.38,0,0,0,1.25-.48c1.7-1.58,3.42-3.14,5.11-4.71.12-.1.22-.22.33-.32a4.52,4.52,0,0,0,1.1-.9c1.27-1.19,2.56-2.36,3.85-3.54l2.71-2.53c1.09-1,2.16-2,3.26-3,.69-.61,1.31-1.26,2-1.87l1.13-1c.05,0,.12-.08.13-.15s0-.16-.13-.09c-.76.57-1.45,1.2-2.18,1.81-1.34,1.11-2.67,2.23-4,3.36l-3.17,2.65-3.57,3-3.41,2.9-3.46,2.89a1.23,1.23,0,0,1-1,.2Z"/><path class="bd6ba406-b96c-42fd-b1a8-07d7cf2657bf" d="M319.54,189.76c.1,0,.13,0,0,.11L317,192.23l-.86.8c-.67.6-1.31,1.24-1.92,1.84-1.06,1-2.11,1.93-3.15,2.89s-1.92,1.77-2.89,2.64c-.71.64-1.37,1.33-2.11,1.93a5.08,5.08,0,0,0-.54.5.27.27,0,0,1,.29.07c1.55,1.33,3.1,2.66,4.67,4l4.28,3.6,4.45,3.81,1.19,1a.91.91,0,0,0,.26.13,2.38,2.38,0,0,0,.51-1.56V190.4a2.28,2.28,0,0,0-.52-1.52.28.28,0,0,0-.22.1C320.19,189.27,319.78,189.43,319.54,189.76Z"/><circle class="bd6ba406-b96c-42fd-b1a8-07d7cf2657bf" cx="320.63" cy="188.88" r="5.74"/><circle class="bd6ba406-b96c-42fd-b1a8-07d7cf2657bf" cx="320.63" cy="188.88" r="4.3"/><path class="a30ab1fd-e56e-471c-b93c-0e7a41530248" d="M276.3,188.2a2.47,2.47,0,0,1,2-.91h19.79v18.54a1,1,0,0,1-1-.19c-.79-.63-1.56-1.29-2.34-1.92-1.13-1-2.23-1.93-3.36-2.84-.83-.67-1.64-1.36-2.46-2l-3.86-3.25c-1.06-.91-2.14-1.78-3.21-2.69-1.29-1.08-2.59-2.14-3.86-3.24-.21-.18-.44-.34-.66-.52A11.68,11.68,0,0,0,276.3,188.2Z"/><path class="b1f3cff2-539a-4ddd-81dc-7e80522030ca" d="M298.13,215.67H278a2.31,2.31,0,0,1-1.67-.88l2.33-2,2.73-2.33c.74-.62,1.46-1.26,2.21-1.88.58-.46,1.11-1,1.69-1.43s1.34-1.15,2-1.71c1.05-.86,2.09-1.75,3.12-2.64l.73-.61a.33.33,0,0,1,.34-.08c.54.43,1,1,1.53,1.39,1,.86,1.93,1.73,2.81,2.6.37.33.75.65,1.09,1a1.32,1.32,0,0,0,1.06.49.2.2,0,0,1,.19.07Z"/><path class="a21eab9b-74e3-40a8-8acb-2efe8d56ab5a" d="M298.13,207.67a1.42,1.42,0,0,1-1.26-.48c-1.69-1.58-3.4-3.15-5.11-4.72a3.26,3.26,0,0,1-.31-.33,3.79,3.79,0,0,1-1.11-.88c-1.27-1.2-2.57-2.36-3.86-3.55l-2.72-2.52c-1.08-1-2.15-2-3.25-3-.68-.61-1.31-1.27-2-1.87l-1.14-1s-.11-.08-.12-.15,0-.15.12-.1c.77.57,1.47,1.22,2.19,1.82l4,3.3,3.16,2.66,3.58,3,3.41,2.89,3.46,2.89a1.24,1.24,0,0,0,1,.21Z"/><path class="a5b0e507-03b2-46d5-9b37-b7f88e6fc7aa" d="M277.39,189c-.09,0-.11,0,0,.12.87.78,1.74,1.56,2.6,2.35l.85.8c.68.6,1.31,1.24,2,1.84L286,197c1,.88,1.93,1.77,2.89,2.63.72.63,1.37,1.34,2.12,1.93a6.13,6.13,0,0,1,.54.49.29.29,0,0,0-.28.07l-4.77,4-4.28,3.61-4.39,3.8-1.2,1a.42.42,0,0,1-.26.12,2.44,2.44,0,0,1-.51-1.54v-23.5a2.35,2.35,0,0,1,.52-1.51.25.25,0,0,1,.22.09A7.41,7.41,0,0,1,277.39,189Z"/><path class="a9c1eaf0-1558-4dca-8260-1b18824595c4" d="M320,188.2a2.45,2.45,0,0,0-2-.91H298.13v18.54a1,1,0,0,0,1-.19c.79-.63,1.56-1.29,2.34-1.92,1.12-1,2.24-1.93,3.36-2.84l2.45-2,3.86-3.25c1.07-.91,2.16-1.78,3.23-2.69,1.28-1.08,2.57-2.14,3.85-3.24.22-.18.45-.34.66-.52C319.23,188.77,319.61,188.52,320,188.2Z"/><path class="b1f3cff2-539a-4ddd-81dc-7e80522030ca" d="M298.13,215.67h20.15a2.3,2.3,0,0,0,1.67-.88c-.76-.66-1.54-1.31-2.31-2l-2.73-2.33c-.74-.62-1.48-1.26-2.23-1.88-.57-.46-1.11-1-1.68-1.43s-1.34-1.15-2-1.71c-1.05-.86-2.07-1.75-3.1-2.64l-.74-.61a.31.31,0,0,0-.34-.08c-.54.43-1,1-1.54,1.39l-2.8,2.6c-.37.33-.75.65-1.1,1a1.29,1.29,0,0,1-1.05.49.18.18,0,0,0-.18.07Z"/><path class="a21eab9b-74e3-40a8-8acb-2efe8d56ab5a" d="M298.13,207.67a1.41,1.41,0,0,0,1.25-.48l5.11-4.72.32-.33a3.88,3.88,0,0,0,1.1-.88c1.27-1.2,2.57-2.36,3.86-3.55l2.72-2.52c1.08-1,2.16-2,3.26-3,.67-.61,1.31-1.27,2-1.87l1.13-1c.05,0,.12-.08.13-.15s0-.15-.12-.1c-.76.57-1.47,1.22-2.19,1.82-1.35,1.11-2.68,2.23-4,3.35l-3.17,2.66-3.57,3-3.41,2.89-3.46,2.89a1.22,1.22,0,0,1-1,.2Z"/><path class="a5b0e507-03b2-46d5-9b37-b7f88e6fc7aa" d="M318.86,189c.09,0,.12,0,0,.12l-2.53,2.39c-.28.26-.55.54-.84.8-.68.6-1.31,1.24-2,1.84l-3.13,2.89c-1,.89-1.93,1.78-2.89,2.64-.72.63-1.37,1.34-2.12,1.92-.19.15-.36.33-.54.5a.29.29,0,0,1,.28.07l4.68,4,4.28,3.61,4.44,3.8,1.21,1a.39.39,0,0,0,.25.12,2.37,2.37,0,0,0,.52-1.54v-23.5a2.37,2.37,0,0,0-.52-1.51.28.28,0,0,0-.23.09A10.66,10.66,0,0,0,318.86,189Z"/><circle class="a55db479-04aa-4562-8bb6-e1998dc17af7" cx="319.95" cy="188.2" r="5.74"/><circle class="ab9455ac-9009-4040-aafe-fc8b969f2386" cx="319.95" cy="188.2" r="4.3"/><path class="bd6ba406-b96c-42fd-b1a8-07d7cf2657bf" d="M185.64,231.35a19.4,19.4,0,0,1,12.75,4.42c7.71,6.48,7.41,17.36-.69,23.37a29.2,29.2,0,0,1-3.86,2.25.67.67,0,0,0-.45.85h0c.26,1.58.49,3.17.75,4.76a1.06,1.06,0,0,1-.45,1.2,1,1,0,0,1-1.28-.13c-2-1.49-4-2.95-6.06-4.47a3.12,3.12,0,0,0-1.81-.65,18.8,18.8,0,0,1-8-2.19c-4.25-2.26-7.33-5.56-8.44-10.34-1.28-5.48.42-10.16,4.44-14A18.9,18.9,0,0,1,185.64,231.35Zm-3.8,10.1-2.45-.43c-.8-.16-1.36.21-1.39.89a1,1,0,0,0,.79,1.07c.88.2,1.79.35,2.61.51v2.21a.79.79,0,0,1-.45.79,21,21,0,0,0-2.69,2,2.88,2.88,0,0,0-.89,2.52,3.26,3.26,0,0,0,3.53,3,3.3,3.3,0,0,0,1.23-.36,9,9,0,0,0,3.86-3.23c.72-1,1.35-2.12,2-3.2a2.75,2.75,0,0,1,2.37,2.17,2.43,2.43,0,0,1-1.52,2.73,17,17,0,0,1-2.49.86,1,1,0,0,0,.38,2,8.34,8.34,0,0,0,4-1.67,4.53,4.53,0,0,0,.77-6.35,4.59,4.59,0,0,0-1.52-1.25c-.41-.21-.84-.36-1.29-.56a2.71,2.71,0,0,0,.11-.51,1,1,0,0,0-2-.55,2.82,2.82,0,0,1-.19.51.83.83,0,0,1-.39.35c-1,.17-1.93.29-2.9.44l.16-1.93.69-.1c1.93-.37,3.93-.74,5.89-1.16a1,1,0,0,0,.93-1,1,1,0,0,0-.07-.34c-.16-.56-.7-.81-1.42-.63-.52.13-1,.3-1.57.4-1.3.26-2.62.49-4,.76.13-.46.22-.76.29-1.07a1,1,0,0,0-.67-1.29h0a1,1,0,0,0-1.26.68.29.29,0,0,0,0,.09C182.16,240.27,182,240.8,181.84,241.45Z"/><path class="bd6ba406-b96c-42fd-b1a8-07d7cf2657bf" d="M196.52,231.92a17.5,17.5,0,0,1,8-4.82c6.75-1.93,13-1,18.45,3.45a14.45,14.45,0,0,1,2.67,20.27,13.32,13.32,0,0,1-1.64,1.8,18.43,18.43,0,0,1-11.56,5.12,5.38,5.38,0,0,0-3,1.11c-1.74,1.39-3.58,2.65-5.37,4a1.19,1.19,0,0,1-1.38.24c-.55-.32-.56-.82-.46-1.37.26-1.61.49-3.21.74-4.82a1.86,1.86,0,0,1,.22-.55c5-7.37,3.31-16.91-4-22.56C198.35,233.12,197.45,232.57,196.52,231.92Zm12.6,16.87c.48,0,.78-.35,1-.85.32-1,.63-1.93,1-2.89a.7.7,0,0,1,.49-.36h3.19c.37,0,.48.15.59.45.29,1,.61,1.86,1,2.8.24.72.75,1,1.36.85a1.08,1.08,0,0,0,.64-1.38,1.17,1.17,0,0,1-.05-.11c-1.33-4-2.67-8-4-12-.17-.53-.46-.89-1.06-.88s-.87.38-1,.91c-.52,1.6-1.06,3.19-1.59,4.82-.8,2.39-1.6,4.82-2.39,7.18a1,1,0,0,0,1,1.44Z"/><path class="bd6ba406-b96c-42fd-b1a8-07d7cf2657bf" d="M181.84,241.45c.19-.65.32-1.18.48-1.69a1,1,0,0,1,1.2-.8l.09,0a1,1,0,0,1,.69,1.29v0c-.07.3-.16.6-.29,1.07,1.42-.27,2.74-.51,4-.77.53-.1,1.05-.27,1.57-.4a1.06,1.06,0,0,1,1.42.64,1,1,0,0,1-.53,1.25.94.94,0,0,1-.33.08c-1.93.41-3.92.78-5.89,1.15l-.69.1-.16,1.93c1-.15,1.93-.27,2.89-.44a.79.79,0,0,0,.4-.34,3.52,3.52,0,0,0,.19-.51,1,1,0,0,1,2,.54,4.36,4.36,0,0,1-.11.52c.45.19.88.34,1.29.55a4.54,4.54,0,0,1,2,6.08,4.59,4.59,0,0,1-1.25,1.52,8.34,8.34,0,0,1-4,1.67,1,1,0,0,1-.38-2,18.27,18.27,0,0,0,2.49-.85,2.45,2.45,0,0,0,1.52-2.74,2.76,2.76,0,0,0-2.37-2.17c-.67,1.08-1.3,2.18-2,3.2a9,9,0,0,1-3.86,3.23,3.26,3.26,0,0,1-4.4-1.37,3.3,3.3,0,0,1-.36-1.23,2.86,2.86,0,0,1,.89-2.53,21.62,21.62,0,0,1,2.68-2,.78.78,0,0,0,.46-.79v-2.21c-.82-.16-1.73-.31-2.61-.51a1,1,0,0,1-.79-1.06c0-.69.62-1,1.39-.9S181,241.3,181.84,241.45Zm-.34,6.88c-.67.61-1.31,1.1-1.85,1.69a1.07,1.07,0,0,0,0,1.35,1,1,0,0,0,1.13.48,4.89,4.89,0,0,0,1.22-.47.61.61,0,0,0,.19-.51C182,250.1,181.77,249.33,181.5,248.33Zm2.42,1.22.18,0,1.58-2.4-.12-.15-2,.53Z"/><path class="bd6ba406-b96c-42fd-b1a8-07d7cf2657bf" d="M209.12,248.79a1,1,0,0,1-1.08-1,1,1,0,0,1,.12-.52c.79-2.39,1.59-4.82,2.39-7.18.53-1.6,1.07-3.19,1.59-4.82.17-.53.44-.91,1-.91a1.05,1.05,0,0,1,1.06.88c1.32,4,2.66,8,4,12a1.07,1.07,0,0,1-.48,1.43l-.11.05c-.61.18-1.12-.13-1.36-.85-.32-1-.63-1.86-1-2.79-.11-.31-.22-.47-.59-.46h-3.19a.7.7,0,0,0-.49.36c-.36,1-.67,1.93-1,2.89C209.9,248.4,209.6,248.79,209.12,248.79Zm5.35-6.2-1.27-4-1.3,3.91Z"/><path class="bd6ba406-b96c-42fd-b1a8-07d7cf2657bf" d="M181.5,248.33c.27,1,.51,1.77.68,2.54a.61.61,0,0,1-.19.51,4.75,4.75,0,0,1-1.22.47,1,1,0,0,1-1.13-.48,1.1,1.1,0,0,1,0-1.35C180.19,249.43,180.83,248.94,181.5,248.33Z"/><path class="bd6ba406-b96c-42fd-b1a8-07d7cf2657bf" d="M183.92,249.55l-.4-1.93,2-.53.12.15-1.58,2.4Z"/><path class="bd6ba406-b96c-42fd-b1a8-07d7cf2657bf" d="M214.47,242.55h-2.61l1.3-3.91Z"/><path class="e062bab3-cfbb-4f56-af6a-3662101c1781" d="M184,229.74a19.44,19.44,0,0,1,12.78,4.43c7.71,6.47,7.4,17.35-.69,23.36a29.2,29.2,0,0,1-3.86,2.25.69.69,0,0,0-.46.85h0c.27,1.58.49,3.17.75,4.76a1.06,1.06,0,0,1-.45,1.2,1,1,0,0,1-1.28-.13c-2-1.49-4.05-3-6.06-4.47a3.12,3.12,0,0,0-1.81-.65,19,19,0,0,1-8-2.18c-4.25-2.27-7.34-5.57-8.44-10.34-1.28-5.49.42-10.17,4.44-14A18.91,18.91,0,0,1,184,229.74Zm-3.8,10.1-2.45-.43c-.8-.16-1.36.21-1.39.9a1,1,0,0,0,.79,1.06c.88.2,1.79.35,2.61.52v2.2a.79.79,0,0,1-.46.79,20.17,20.17,0,0,0-2.69,2,2.8,2.8,0,0,0-.89,2.51,3.27,3.27,0,0,0,3.54,3,3.43,3.43,0,0,0,1.22-.35,9,9,0,0,0,3.86-3.23c.73-1,1.35-2.13,2-3.21a2.75,2.75,0,0,1,2.37,2.18,2.47,2.47,0,0,1-1.53,2.72,17,17,0,0,1-2.49.86,1,1,0,1,0,.38,2h0a8.3,8.3,0,0,0,4-1.67,4.53,4.53,0,0,0,.78-6.35,4.59,4.59,0,0,0-1.52-1.25c-.41-.21-.84-.36-1.29-.56a3.84,3.84,0,0,0,.1-.51,1,1,0,0,0-.88-1.13,1,1,0,0,0-1.05.59,3.13,3.13,0,0,1-.19.51.86.86,0,0,1-.39.34c-1,.17-1.93.29-2.9.44l.16-1.93a2.86,2.86,0,0,0,.69-.1c1.93-.37,3.93-.74,5.89-1.15a1,1,0,0,0,.91-1.13.78.78,0,0,0,0-.21c-.17-.56-.71-.8-1.43-.63-.52.13-1,.31-1.56.4-1.31.26-2.63.5-4,.77.13-.47.22-.77.29-1.07a1,1,0,0,0-.66-1.3h0a1,1,0,0,0-1.27.69.29.29,0,0,0,0,.09C180.55,238.66,180.43,239.15,180.23,239.84Z"/><path class="e062bab3-cfbb-4f56-af6a-3662101c1781" d="M194.88,230.32a17.59,17.59,0,0,1,8-4.82c6.7-1.93,13-1,18.45,3.45a14.4,14.4,0,0,1,2.76,20.18,14.67,14.67,0,0,1-1.72,1.89,18.38,18.38,0,0,1-11.57,5.12,5.35,5.35,0,0,0-3,1.12c-1.74,1.38-3.57,2.64-5.37,4a1.17,1.17,0,0,1-1.38.24c-.55-.32-.55-.81-.46-1.37.26-1.6.49-3.21.75-4.82a1.4,1.4,0,0,1,.22-.54c5-7.38,3.3-16.92-4-22.57A28,28,0,0,0,194.88,230.32Zm12.6,16.82c.48,0,.78-.35,1-.85.31-1,.63-1.93,1-2.89a.66.66,0,0,1,.48-.36h3.19c.37,0,.49.15.59.46.29,1,.61,1.86,1,2.79a1,1,0,1,0,2-.5l-.06-.14c-1.33-4-2.67-8-4-12-.17-.53-.46-.89-1.06-.88s-.87.38-1,.91c-.52,1.6-1.06,3.19-1.6,4.82-.8,2.39-1.59,4.79-2.39,7.19a1,1,0,0,0,.55,1.35,1,1,0,0,0,.45.08Z"/><path class="a9c1eaf0-1558-4dca-8260-1b18824595c4" d="M180.23,239.84c.19-.65.32-1.18.48-1.69a1,1,0,0,1,1.21-.8l.09,0a1,1,0,0,1,.67,1.29h0c-.07.3-.16.6-.29,1.07,1.42-.27,2.74-.51,4.05-.77.52-.09,1-.27,1.56-.4a1.08,1.08,0,0,1,1.43.64,1,1,0,0,1-.66,1.28l-.21.05c-1.93.41-3.92.78-5.89,1.15a5,5,0,0,0-.69.1l-.16,1.93c1-.15,1.93-.27,2.89-.44a.79.79,0,0,0,.4-.34,3.41,3.41,0,0,0,.19-.5,1,1,0,0,1,1.34-.51,1,1,0,0,1,.59,1,3,3,0,0,1-.11.52c.46.19.89.34,1.3.55a4.53,4.53,0,0,1,2,6.08,4.59,4.59,0,0,1-1.25,1.52,8.21,8.21,0,0,1-4,1.67,1,1,0,0,1-.38-2,18.27,18.27,0,0,0,2.49-.85,2.49,2.49,0,0,0,1.53-2.73,2.77,2.77,0,0,0-2.37-2.18c-.68,1.08-1.3,2.19-2,3.21a9.05,9.05,0,0,1-3.86,3.23,3.26,3.26,0,0,1-4.4-1.39,3.3,3.3,0,0,1-.36-1.22,2.81,2.81,0,0,1,.89-2.52,20.17,20.17,0,0,1,2.69-2,.79.79,0,0,0,.46-.79v-2.2c-.82-.17-1.73-.32-2.61-.52a1,1,0,0,1-.79-1.06c0-.69.62-1.05,1.39-.9S179.39,239.7,180.23,239.84Zm-.33,6.88c-.67.61-1.32,1.11-1.86,1.7a1.08,1.08,0,0,0,0,1.34,1,1,0,0,0,1.14.48,4.65,4.65,0,0,0,1.25-.49.61.61,0,0,0,.19-.51C180.43,248.49,180.17,247.72,179.9,246.72Zm2.41,1.22h.18l1.58-2.4-.12-.15-2,.53Z"/><path class="ab9455ac-9009-4040-aafe-fc8b969f2386" d="M207.51,247.14a1,1,0,0,1-1.07-1,1,1,0,0,1,.11-.5c.79-2.41,1.58-4.8,2.39-7.2.54-1.6,1.08-3.19,1.6-4.81.16-.54.43-.92,1-.92a1.06,1.06,0,0,1,1.06.89c1.32,4,2.66,8,4,12a1.06,1.06,0,0,1-.46,1.43l-.13,0c-.61.18-1.12-.12-1.36-.85-.32-1-.63-1.86-1-2.79-.1-.31-.22-.46-.59-.45h-3.19a.63.63,0,0,0-.48.35c-.36,1-.68,1.93-1,2.89C208.29,246.79,208,247.13,207.51,247.14Zm5.35-6.2L211.55,237l-1.3,3.91Z"/><path class="e062bab3-cfbb-4f56-af6a-3662101c1781" d="M179.9,246.72c.27,1,.5,1.77.67,2.54a.58.58,0,0,1-.19.51,4.82,4.82,0,0,1-1.21.47,1,1,0,0,1-1.14-.48,1.08,1.08,0,0,1,0-1.34C178.58,247.82,179.23,247.33,179.9,246.72Z"/><path class="e062bab3-cfbb-4f56-af6a-3662101c1781" d="M182.35,247.94,182,246l2-.53.12.15-1.58,2.4Z"/><path class="e062bab3-cfbb-4f56-af6a-3662101c1781" d="M212.86,240.94h-2.61l1.3-3.91Z"/><circle class="e8efe88f-d165-40d3-abc4-aac7447608a1" cx="522.14" cy="148.03" r="10.81"/><circle class="e110af6e-1565-47db-a966-0474f75bf547" cx="420.84" cy="296.51" r="10.81"/><circle class="a439c7ac-3f47-4b9d-8445-41138657152a" cx="218.28" cy="157.21" r="16.67"/><circle class="ac8741c3-adcf-49d5-bf3e-1f59b5002a45" cx="366.43" cy="157.21" r="16.67"/><circle class="f04e669d-86ba-4527-878b-1c100e60cfe0" cx="467.95" cy="229.74" r="16.67"/><circle class="a23b3561-7948-4778-b290-73e3e9115f67" cx="144.47" cy="234.29" r="16.67"/><circle class="abf080b9-414a-41da-ba77-b238546d81f0" cx="349.76" cy="222.4" r="10.81"/><circle class="bbd12e1e-e8f6-4462-b5cc-04cfc776294f" cx="250.6" cy="227.76" r="10.81"/><circle class="b33b62ec-6288-441e-84b4-9c0e16e3dde4" cx="192.52" cy="306.47" r="10.81"/><circle class="ee7515eb-e13f-470f-a4fa-78227b14b366" cx="550.55" cy="126.68" r="31.81"/><circle class="a140879a-dcbc-444a-b3a9-d912256474a3" cx="57.63" cy="106.43" r="12.11"/><path class="b1f3cff2-539a-4ddd-81dc-7e80522030ca" d="M239.85,343.66l8.43-6a6.13,6.13,0,0,1,3.53-1.13h95.43a6.08,6.08,0,0,1,4.06,1.56l6.82,6.1Z"/><path class="ab9455ac-9009-4040-aafe-fc8b969f2386" d="M347.92,307.89c.82,3.78,1,9-2.81,13.59s-6.29,5.31-6.29,5.31a13.26,13.26,0,0,1-.08,5.25c-.46,1.93-3.19,9-11.46,8.87,0,0-4.95,8.41-14,8.41s-14.19-7.87-14.19-7.87-2.73,7.87-13.73,7.87a15.71,15.71,0,0,1-14.64-8.78c-14.4,0-11.19-13.64-11.19-13.64s-9.14-5.25-9.89-11.94c-1.06-9.46,4.09-13.09,4.09-13.09.41.06.81.09,1.19.11,0,0-5.21-5.85-5.28-12.73-.14-14,11.25-15.28,11.25-15.28-1.22-3.85,3-13.16,10.24-13.16,0-6.08,6.09-13,14.73-13s13.3,7.1,13.3,7.1,3.68-7.13,13.64-7.13,14.27,9.51,14.32,12.63a13.48,13.48,0,0,1,5.94,2.95c1.61,1.7,4.18,3.93,4.18,11.23,0,0,11.23,4.13,11.23,15.18,0,6-4.09,10.43-4.51,10.88A13.22,13.22,0,0,1,347.92,307.89Z"/><path class="a818f0ad-7a15-4469-bab2-51c2ef0aba19" d="M312.77,277.7a9.29,9.29,0,0,1,2.4-10.3c4.93-4.82,12-1,13.41.51s3.64,3.43,3.64,9.79c0,0,9.79,3.61,9.79,13.24,0,5.46-4,9.51-4,9.51"/><path class="a818f0ad-7a15-4469-bab2-51c2ef0aba19" d="M325.72,301.29s3.86-5.23,8.56-3.25a11.55,11.55,0,0,1,7.26,8.68c.71,3.28.87,7.84-2.46,11.84s-5.24,4.44-5.24,4.44"/><path class="a818f0ad-7a15-4469-bab2-51c2ef0aba19" d="M317.8,326s-.6-8.25,8.32-8.25,7.81,8.28,7.41,10-2.78,7.85-10,7.71c0,0-4.31,7.34-12.2,7.34S299,335.92,299,335.92l.07-75.38s3.21-6.19,11.89-6.19,12.48,8.39,12.48,11.06"/><path class="a818f0ad-7a15-4469-bab2-51c2ef0aba19" d="M299,309.18s1.93,6.17,7.82,6.17A8.35,8.35,0,0,0,312.58,301"/><path class="a818f0ad-7a15-4469-bab2-51c2ef0aba19" d="M308.17,284.77s-.15-7.3,7.41-7.3,8.28,8.6,4.88,12.24"/><path class="a818f0ad-7a15-4469-bab2-51c2ef0aba19" d="M299,260.54s-4.07-6.19-11.56-6.19-12.84,6.68-12.84,10.72"/><path class="a818f0ad-7a15-4469-bab2-51c2ef0aba19" d="M293.94,269.83a8,8,0,0,0-6.74-4.18c-3,0-5.94,2.49-5.94,2.49"/><path class="a818f0ad-7a15-4469-bab2-51c2ef0aba19" d="M281.87,278.07a11.35,11.35,0,0,0,1.24-5.05c0-2.89-2.2-7.37-8.5-7.37s-10,8.08-8.92,11.47c0,0-9.93,1.12-9.8,13.31.06,6,4.51,11,4.51,11"/><path class="a818f0ad-7a15-4469-bab2-51c2ef0aba19" d="M268.6,292.92s.24,9.76-9.14,8.51c0,0-4.5,3.17-3.57,11.41.65,5.78,8.62,10.4,8.62,10.4s-2.8,11.89,9.74,11.89c4.94,0,9.51-4.7,9.51-10.41s-4.52-10-8-10.7"/><path class="a818f0ad-7a15-4469-bab2-51c2ef0aba19" d="M290.06,310.28s3.76,10.13-6.75,11.4"/><path class="a818f0ad-7a15-4469-bab2-51c2ef0aba19" d="M274.25,335.13A13.72,13.72,0,0,0,287,342.78c9.58,0,12-6.86,12-6.86"/><path class="a818f0ad-7a15-4469-bab2-51c2ef0aba19" d="M299,294.59a7.82,7.82,0,0,1-6.74,4.19,10.69,10.69,0,0,1-10.71-10.67c0-.12,0-.23,0-.35"/><rect class="a55db479-04aa-4562-8bb6-e1998dc17af7" x="238.38" y="343.3" width="121.2" height="53.84" rx="3.37"/><path class="b5f7dec9-5073-4817-ba1f-b9e5699f5d8c" d="M354.34,336.55l7.47,6.46a.66.66,0,0,0,.72.1l13.19-6a.67.67,0,0,0,.34-.89.69.69,0,0,0-.29-.32l-9.31-5.38a.66.66,0,0,0-.61,0l-11.29,5a.68.68,0,0,0-.35.89A.63.63,0,0,0,354.34,336.55Z"/><path class="b5f7dec9-5073-4817-ba1f-b9e5699f5d8c" d="M245.55,335.87l-8.73,6.33a.69.69,0,0,1-.73.1l-13.18-6a.68.68,0,0,1-.32-.91.63.63,0,0,1,.27-.29l10.6-5.28a.72.72,0,0,1,.61,0l11.28,5a.68.68,0,0,1,.35.89A1.07,1.07,0,0,1,245.55,335.87Z"/><polygon class="b1f3cff2-539a-4ddd-81dc-7e80522030ca" points="311.82 368.74 257.41 368.74 250.6 375.92 250.6 354.08 311.82 354.08 311.82 368.74"/><polygon class="b1f3cff2-539a-4ddd-81dc-7e80522030ca" points="304.69 384.31 341.51 384.31 345.17 387.47 345.17 374.92 304.69 374.92 304.69 384.31"/><polygon class="ab9455ac-9009-4040-aafe-fc8b969f2386" points="252.24 380.24 248.96 380.24 247.31 383.09 248.96 385.92 252.24 385.92 253.87 383.09 252.24 380.24"/><polygon class="a9c1eaf0-1558-4dca-8260-1b18824595c4" points="346.81 388.7 343.54 388.7 341.9 391.54 343.54 394.37 346.81 394.37 348.45 391.54 346.81 388.7"/></svg>