<svg width="1480" height="400" xmlns="http://www.w3.org/2000/svg" data-name="Layer 1">
 <title>Factory</title>

 <g>
  <title>Layer 1</title>
  <rect stroke="null" transform="matrix(-1.00225 0 0 -0.865371 1826.75 1759.27)" id="svg_5" fill="#82b440" height="5" width="118" y="1630.3605" x="1333.1418"/>
  <rect stroke="null" transform="matrix(-1.00225 0 0 -0.865371 1802.7 1741.96)" id="svg_6" fill="#82b440" height="5" width="118" y="1615.3605" x="1315.1418"/>
  <rect stroke="null" transform="matrix(-1.00225 0 0 -0.865371 1830.76 1724.66)" id="svg_7" fill="#82b440" height="5" width="118" y="1600.3605" x="1336.1418"/>
  <rect stroke="null" transform="matrix(-1.00225 0 0 -0.865371 1878.87 1707.35)" id="svg_8" fill="#82b440" height="5" width="118" y="1585.3605" x="1372.1418"/>
  <rect stroke="null" transform="matrix(-1.00225 0 0 -0.865371 1248.04 1672.56)" id="svg_9" fill="#3f3d56" height="29.08849" width="4.09697" y="1543.16327" x="957.03595"/>
  <rect stroke="null" transform="matrix(-0.376934 -0.80184 0.928671 -0.325455 -840.17 1098.64)" id="svg_10" fill="#3f3d56" height="163.62126" width="4.09697" y="1381.99547" x="416.44494"/>
  <rect stroke="null" transform="matrix(-1.00225 0 0 -0.865371 1007.42 1849.12)" id="svg_11" fill="#3f3d56" height="13.9297" width="35.64365" y="1703.76448" x="761.20072"/>
  <rect stroke="null" transform="matrix(-1.00225 0 0 -0.865371 1301.42 1894.5)" id="svg_12" fill="#3f3d56" height="15.56849" width="175.76006" y="1742.2761" x="911.14987"/>
  <rect stroke="null" transform="matrix(-1.00225 0 0 -0.865371 1171.66 1753.39)" id="svg_14" fill="#fff" height="18.02667" width="18.02667" y="1618.75236" x="892.91834"/>
  <rect stroke="null" transform="matrix(-1.00225 0 0 -0.865371 1196.3 1833.52)" id="svg_16" fill="#3f3d56" height="7.78425" width="4.09697" y="1693.31723" x="918.31955"/>
  <rect stroke="null" transform="matrix(-1.00225 0 0 -0.865371 1246.4 1792.75)" id="svg_24" fill="#3f3d56" height="62.06911" width="8.60364" y="1630.8384" x="953.55352"/>
  <rect stroke="null" transform="matrix(-1.00225 0 0 -0.865371 1477.17 1867.55)" id="svg_25" fill="#3f3d56" height="3.68727" width="123.72853" y="1724.86398" x="1068.6784"/>
  <rect stroke="null" transform="matrix(-1.00225 0 0 -0.865371 1111.71 1790.97)" id="svg_26" fill="#3f3d56" height="1.63879" width="4.09697" y="1659.51727" x="855.02136"/>
  <rect stroke="null" transform="matrix(-1.00225 0 0 -0.865371 1854.11 1511.6)" id="svg_29" fill="#3f3d56" height="59.81578" width="4.09697" y="1388.29772" x="1410.57063"/>
  <rect stroke="null" transform="matrix(-1.00225 0 0 -0.865371 1518.06 1852.73)" id="svg_31" fill="#82b440" height="5" width="118" y="1711.36044" x="1102.1418"/>
  <rect stroke="null" transform="matrix(-1.00225 0 0 -0.865371 1546.12 1835.42)" id="svg_32" fill="#82b440" height="5" width="118" y="1696.36044" x="1123.1418"/>
  <rect stroke="null" transform="matrix(-1.00225 0 0 -0.865371 1526.07 1821.58)" id="svg_33" fill="#82b440" height="5" width="118" y="1684.36044" x="1108.1418"/>
  <rect stroke="null" transform="matrix(-1.00225 0 0 -0.865371 1554.14 1804.27)" id="svg_34" fill="#82b440" height="5" width="118" y="1669.36044" x="1129.1418"/>
  <rect stroke="null" transform="matrix(-1.00225 0 0 -0.865371 3102.69 1675.88)" id="svg_39" fill="#3f3d56" height="170.58898" width="147.45827" y="1475.2964" x="2273.21963"/>
  <rect stroke="null" transform="matrix(-1.00225 0 0 -0.865371 3102.69 1911.08)" id="svg_40" fill="#e2e2e2" height="34.69606" width="39.75591" y="1747.08226" x="2327.07081"/>
  <rect stroke="null" transform="matrix(-1.00225 0 0 -0.865371 3230.98 1486.52)" id="svg_47" fill="#fff" height="20" width="20" y="1386.47437" x="2432.94876"/>
  <rect stroke="null" transform="matrix(-1.00225 0 0 -0.865371 3102.69 1486.52)" id="svg_48" fill="#fff" height="20" width="20" y="1386.47437" x="2336.94876"/>
  <rect stroke="null" transform="matrix(-1.00225 0 0 -0.865371 2974.4 1486.52)" id="svg_49" fill="#fff" height="20" width="20" y="1386.47437" x="2240.94876"/>
  <rect stroke="null" transform="matrix(-1.00225 0 0 -0.865371 3230.98 1597.29)" id="svg_50" fill="#fff" height="20" width="20" y="1482.47437" x="2432.94876"/>
  <rect stroke="null" transform="matrix(-1.00225 0 0 -0.865371 3102.69 1597.29)" id="svg_51" fill="#fff" height="20" width="20" y="1482.47437" x="2336.94876"/>
  <rect stroke="null" transform="matrix(-1.00225 0 0 -0.865371 2974.4 1597.29)" id="svg_52" fill="#fff" height="20" width="20" y="1482.47437" x="2240.94876"/>
  <rect stroke="null" transform="matrix(-1.00225 0 0 -0.865371 3230.98 1708.06)" id="svg_53" fill="#fff" height="20" width="20" y="1578.47437" x="2432.94876"/>
  <rect stroke="null" transform="matrix(-1.00225 0 0 -0.865371 3102.69 1708.06)" id="svg_54" fill="#fff" height="20" width="20" y="1578.47437" x="2336.94876"/>
  <rect stroke="null" transform="matrix(-1.00225 0 0 -0.865371 2974.4 1708.06)" id="svg_55" fill="#fff" height="20" width="20" y="1578.47437" x="2240.94876"/>
  <rect stroke="null" transform="matrix(-1.00225 0 0 -0.865371 2688.3 1458.83)" id="svg_56" fill="#fff" height="20" width="20" y="1362.47437" x="2026.85282"/>
  <rect stroke="null" transform="matrix(-1.00225 0 0 -0.865371 2688.3 1569.6)" id="svg_57" fill="#fff" height="20" width="20" y="1458.47437" x="2026.85282"/>
  <rect stroke="null" transform="matrix(-1.00225 0 0 -0.865371 2688.3 1680.37)" id="svg_58" fill="#fff" height="20" width="20" y="1554.47437" x="2026.85282"/>
  <rect stroke="null" transform="matrix(-1.00225 0 0 -0.865371 2688.3 1791.13)" id="svg_59" fill="#fff" height="20" width="20" y="1650.47437" x="2026.85282"/>
  <rect stroke="null" transform="matrix(-1.00225 0 0 -0.865371 3516.42 1458.83)" id="svg_60" fill="#fff" height="20" width="20" y="1362.47437" x="2646.54404"/>
  <rect stroke="null" transform="matrix(-1.00225 0 0 -0.865371 3516.42 1569.6)" id="svg_61" fill="#fff" height="20" width="20" y="1458.47437" x="2646.54404"/>
  <rect stroke="null" transform="matrix(-1.00225 0 0 -0.865371 3516.42 1680.37)" id="svg_62" fill="#fff" height="20" width="20" y="1554.47437" x="2646.54404"/>
  <rect stroke="null" transform="matrix(-1.00225 0 0 -0.865371 3516.42 1791.13)" id="svg_63" fill="#fff" height="20" width="20" y="1650.47437" x="2646.54404"/>
  <g transform="rotate(0.9778 966.414 161.071)" stroke="null" id="svg_69">
   <path stroke="null" id="svg_17" fill="#3f3d56" d="m253.12393,342.15258l-0.20531,0a-3.90089,-4.20878 0 0 1 -3.90089,-4.20878l0,0a-3.90089,-4.20878 0 0 1 3.90089,-4.20878l0.20531,0a0,0 0 0 1 0,0l0,8.41757a0,0 0 0 1 0,-0.00001z"/>
   <path stroke="null" id="svg_1" fill="#e2e2e2" d="m308.18255,392.06987l-21.9237,-37.53817l21.93386,41.62754l0.01176,4.27728q2.34611,-0.02959 4.64486,-0.19406l-1.78819,-54.94623l0.02351,-0.4247l-0.04029,-0.0811l-0.17026,-5.19206l22.92315,-41.1418l-22.9468,37.25359l-0.06866,1.09974l-1.35082,-41.51402l19.7066,-42.56649l-19.86063,35.27187l-0.92384,-86.04701l-0.00423,-0.28638l-0.00318,0.2818l-0.44982,67.84223l-18.83075,-27.14476l18.84741,32.98801l0.08739,37.15767l-17.47216,-35.88699l17.48181,41.34986l0.04835,20.66153l-25.37992,-49.96758l25.39993,57.17539l0.10461,45.94482z"/>
   <path stroke="null" id="svg_2" fill="#e2e2e2" d="m496.31693,392.06987l-21.9237,-37.53817l21.93389,41.62754l0.01176,4.27728q2.34611,-0.02959 4.64486,-0.19406l-1.78817,-54.94623l0.02351,-0.4247l-0.04029,-0.0811l-0.17026,-5.19206l22.92313,-41.14178l-22.94681,37.25359l-0.06865,1.09974l-1.35082,-41.51402l19.7066,-42.56649l-19.86063,35.27187l-0.92384,-86.04701l-0.00424,-0.28638l-0.00318,0.2818l-0.44981,67.84223l-18.83075,-27.14476l18.84741,32.98801l0.08739,37.15767l-17.47217,-35.88699l17.48182,41.34986l0.04834,20.66153l-25.37991,-49.96754l25.39993,57.17539l0.10457,45.94475z"/>
   <path stroke="null" id="svg_3" fill="#e2e2e2" d="m119.86947,394.48414l-15.83098,-27.10611l15.83832,30.05903l0.00849,3.0886q1.69411,-0.02136 3.35403,-0.14013l-1.29124,-39.67637l0.01698,-0.30667l-0.02907,-0.05856l-0.12295,-3.74915l16.55268,-29.70828l-16.56976,26.90062l-0.04957,0.7941l-0.97542,-29.97705l14.23004,-30.73703l-14.34123,25.46962l-0.6671,-62.13412l-0.00306,-0.20679l-0.0023,0.20348l-0.32481,48.98852l-13.59756,-19.60109l13.60958,23.82046l0.06314,26.83136l-12.61656,-25.9138l12.62353,29.85849l0.03492,14.91959l-18.32679,-36.08127l18.34116,41.28605l0.07554,33.1765z"/>
   <path stroke="null" id="svg_4" fill="#e2e2e2" d="m953.87736,392.06987l-21.9237,-37.53817l21.93385,41.62754l0.01176,4.27728q2.34611,-0.02959 4.64487,-0.19406l-1.7882,-54.94623l0.02351,-0.4247l-0.04028,-0.0811l-0.17027,-5.19206l22.92315,-41.1418l-22.9468,37.25359l-0.06865,1.09974l-1.35082,-41.51402l19.70659,-42.56649l-19.86063,35.27187l-0.92384,-86.04701l-0.00423,-0.28638l-0.00318,0.2818l-0.44982,67.84223l-18.83075,-27.14476l18.84741,32.98801l0.0874,37.15767l-17.47217,-35.88699l17.48181,41.34986l0.04835,20.66153l-25.37992,-49.96754l25.39993,57.17539l0.10462,45.94477z"/>
   <polygon stroke="null" id="svg_13" fill="#e2e2e2" points="227.98109436035156,374.93676271455115 270.275146484375,374.93676271455115 270.275146484375,317.5642278556734 238.65708923339844,317.5642278556734 227.98109436035156,346.50031414336263 227.98109436035156,374.93676271455115 "/>
   <polygon stroke="null" id="svg_15" fill="#fff" points="232.0873260498047,340.82316056903073 243.5851593017578,340.82316056903073 243.5851593017578,321.3305779602524 238.65708923339844,321.3305779602524 232.0873260498047,340.82316056903073 "/>
   <path stroke="null" id="svg_18" fill="#3f3d56" d="m392.84522,374.93673l-0.20531,0a-3.90089,-4.20878 0 0 1 -3.90089,-4.20878l0,0a-3.90089,-4.20878 0 0 1 3.90089,-4.20878l0.20531,0a0,0 0 0 1 0,0l0,8.41757a0,0 0 0 1 0,-0.00001z"/>
   <path stroke="null" id="svg_19" fill="#e2e2e2" d="m211.55656,366.45562a20.31605,21.91959 0 0 0 -15.79107,8.4811l-8.02488,0l7.80178,-23.44783l36.33985,-7.7328l-1.02655,31.18063l-3.50801,0a20.31607,21.91961 0 0 0 -15.79113,-8.4811z"/>
   <circle stroke="null" id="svg_20" fill="#3f3d56" r="12.22974" cy="380.47462" cx="211.14594"/>
   <circle stroke="null" id="svg_21" fill="#e2e2e2" r="6.43671" cy="380.47462" cx="211.14594"/>
   <circle stroke="null" id="svg_22" fill="#3f3d56" r="10.68346" cy="382.68978" cx="372.51954"/>
   <circle stroke="null" id="svg_23" fill="#e2e2e2" r="5.62286" cy="382.68978" cx="372.51954"/>
   <path stroke="null" id="svg_27" fill="#3f3d56" d="m419.12489,335.36195a0.41063,0.44304 0 0 1 -0.10445,-0.34439l5.66307,-57.77926a0.41079,0.44322 0 0 1 0.4066,-0.39652l0.0018,0a0.41077,0.4432 0 0 1 0.40802,0.39263l6.1248,57.65943a0.41067,0.44309 0 0 1 -0.40421,0.49342l-11.78788,0.11985l-0.00381,0a0.4102,0.44258 0 0 1 -0.30394,-0.14516zm5.98345,-54.03169l-5.22274,53.28601l10.87118,-0.11032l-5.64844,-53.17569z"/>
   <path stroke="null" id="svg_28" fill="#3f3d56" d="m195.61791,351.83076l0.19204,0.07836a3.64864,3.93663 0 0 1 2.26867,5.42552l0,0a3.64864,3.93663 0 0 1 -5.02861,2.44773l-0.19204,-0.07836a0,0 0 0 1 0,0l2.75995,-7.87326a0,0 0 0 1 0,0.00001z"/>
   <circle stroke="null" id="svg_30" fill="#3f3d56" r="3.936" cy="290.76109" cx="273.76547"/>
   <path stroke="null" id="svg_35" fill="#e2e2e2" d="m247.19839,190.42944a15.63079,16.86452 0 0 1 10.25963,4.12446a15.64146,16.87603 0 0 1 6.90266,-0.32724a15.6952,16.93401 0 0 1 28.61915,9.61004l-61.13432,0a15.70012,16.93932 0 0 1 15.35288,-13.40726z"/>
   <path stroke="null" id="svg_36" fill="#e2e2e2" d="m155.22602,243.79246a14.77738,15.94375 0 0 1 9.69948,3.89927a14.78776,15.95495 0 0 1 6.52579,-0.30938a14.83828,16.00946 0 0 1 27.05662,9.0853l-57.79654,0a14.84293,16.01448 0 0 1 14.51465,-12.6752z"/>
   <path stroke="null" id="svg_37" fill="#e2e2e2" d="m63.27201,155.77837a15.3753,16.58886 0 0 1 10.09195,4.05705a15.3859,16.6003 0 0 1 6.78985,-0.3219a15.43869,16.65726 0 0 1 28.1514,9.45292l-60.13513,0a15.44352,16.66247 0 0 1 15.10194,-13.18807z"/>
   <path stroke="null" id="svg_38" fill="#e2e2e2" d="m690.33885,167.66565l0,135.06801l48.68365,0l0,-136.94402l-11.30128,0.43547l0,-27.6367l-8.19713,0l-1.3507,-61.209c3.30772,-2.32548 5.63571,-7.8487 5.63571,-14.29773a21.71755,23.43171 0 0 0 -0.59509,-5.49763a10.42382,11.24657 0 0 0 1.12264,-13.69837a10.43078,11.25407 0 1 0 13.51768,-17.1411a10.43316,11.25665 0 1 0 -14.04523,-10.56164c0,0.16487 0.00489,0.32842 0.01126,0.49132a10.43895,11.26289 0 0 0 -13.36793,9.06457a10.43244,11.25587 0 1 0 -7.50221,20.68338c-0.002,0.08171 -0.00587,0.16276 -0.00587,0.24499a50.7133,54.71607 0 0 0 3.68455,9.1208a21.07329,22.73659 0 0 0 -1.07615,7.29363c0,6.44909 2.32749,11.9723 5.63521,14.29773l-1.35069,61.209l-8.19664,0l0,28.64168l-11.3018,0.4356zm30.40031,-128.97203l0.02692,0.00066c0.15073,0 0.29998,-0.00528 0.44876,-0.01214q0.14095,0.49897 0.3225,0.97707a10.47638,11.30328 0 0 0 -0.79815,-0.96559l-0.00003,0z"/>
   <path stroke="null" id="svg_41" fill="#e2e2e2" d="m613.27976,82.90362c-0.00283,0.13625 -0.00955,0.27131 -0.00955,0.40819a17.33155,18.69951 0 0 0 5.27185,13.44939a17.36827,18.73914 0 0 0 0.86914,1.75212a35.10823,37.8793 0 0 0 -1.79417,12.15604c0,14.24577 6.81131,25.79426 15.21372,25.79426s15.21371,-11.54849 15.21371,-25.79426a36.18655,39.04273 0 0 0 -0.99154,-9.16284a17.3731,18.74435 0 0 0 1.87094,-22.83032a17.38465,18.75681 0 1 0 22.52945,-28.56859a17.3887,18.76117 0 1 0 -23.40885,-17.60264c0,0.27467 0.00849,0.54717 0.0191,0.8189a17.3983,18.77153 0 0 0 -22.28007,15.10752a17.38742,18.7598 0 1 0 -12.5037,34.47224l-0.00003,0zm29.69342,-12.87976c0.2508,0 0.49983,-0.00906 0.74816,-0.02042q0.23401,0.83168 0.53699,1.62853a17.42625,18.80169 0 0 0 -1.33007,-1.60933l0.04492,0.00122z"/>
   <path stroke="null" id="svg_42" fill="#82b440" d="m624.1347,262.15415l17.38918,0l-0.62103,-28.13697l0,-0.01081l-2.27562,-103.1725a11.11968,11.99735 0 0 1 -11.59588,0l-2.27511,103.1725l0,0.01081l-0.62154,28.13697z"/>
   <polygon stroke="null" id="svg_43" fill="#82b440" points="593.262939453125,283.78243366094466 593.262939453125,398.8758998203084 674.396240234375,398.8758998203084 674.396240234375,282.18463785239146 655.56298828125,282.5550760128317 655.56298828125,259.0089526688098 612.0952758789062,259.0089526688098 612.0952758789062,283.4119955005044 593.262939453125,283.78243366094466 "/>
   <path stroke="null" id="svg_44" fill="#e2e2e2" d="m816.47607,69.15813c-0.00283,0.13625 -0.00955,0.27131 -0.00955,0.40819a17.33155,18.69951 0 0 0 5.27185,13.44939a17.36827,18.73914 0 0 0 0.86914,1.75212a35.10823,37.8793 0 0 0 -1.79417,12.15604c0,14.24577 6.81131,25.79426 15.21371,25.79426s15.21372,-11.54849 15.21372,-25.79426a36.18708,39.0433 0 0 0 -0.99154,-9.16284a17.3731,18.74435 0 0 0 1.87094,-22.83032a17.38465,18.75681 0 1 0 22.52944,-28.56859a17.3887,18.76117 0 1 0 -23.40884,-17.60264c0,0.27467 0.00849,0.54717 0.0191,0.8189a17.3983,18.77153 0 0 0 -22.28007,15.10752a17.38742,18.7598 0 1 0 -12.5037,34.47224l-0.00003,0zm29.69344,-12.87977c0.2508,0 0.49983,-0.00906 0.74816,-0.02042q0.234,0.83168 0.53698,1.62853a17.42444,18.79973 0 0 0 -1.33006,-1.60933l0.04492,0.00122z"/>
   <path stroke="null" id="svg_45" fill="#82b440" d="m829.33346,253.4069l17.38707,0l-2.89779,-131.31619a17.1393,18.4921 0 0 1 -11.5914,0l-2.89788,131.31619z"/>
   <polygon stroke="null" id="svg_46" fill="#82b440" points="800.45849609375,270.4150464163904 800.45849609375,398.8758998203084 881.6008911132812,398.8758998203084 881.6008911132812,268.63168831746225 874.9359741210938,268.77976443203806 862.758544921875,269.04514215064046 862.758544921875,242.76428215851774 819.2908935546875,242.76428215851774 819.2908935546875,270.0015925832122 800.45849609375,270.4150464163904 "/>
   <rect stroke="null" x="94.00003" id="svg_64" fill="#3f3d56" height="2.16272" width="889.99997" y="398.11395"/>
  </g>
  <path transform="rotate(0.9778 1031.64 192.092)" stroke="null" id="svg_70" d="m1046.61504,168.96527l-14.45976,-2.65954l5.32728,-2.88888c2.92999,-1.58891 5.58661,-3.12708 5.90359,-3.41815c0.78738,-0.72302 -9.01821,-16.45915 -10.24798,-16.44612c-0.54059,0.00636 -4.30751,6.0997 -8.37093,13.5422c-4.09282,7.49624 -8.16608,13.2052 -9.13248,12.7996c-11.43794,-4.79993 -20.77043,-9.65641 -20.77043,-10.80856c0,-0.78698 3.58874,-7.80719 7.97503,-15.60048l7.97504,-14.1696l21.74421,0l21.74421,0l5.67584,9.32259l5.67589,9.32259l5.9212,-3.15477c4.1047,-2.18699 5.66766,-2.50103 5.09465,-1.02384c-5.04505,13.00761 -12.57305,28.1747 -13.91119,28.02758c-0.92644,-0.10178 -8.1913,-1.38187 -16.14418,-2.84459l0,0zm-67.43829,58.03249c-5.50277,-9.84126 -10.43452,-19.0555 -10.95941,-20.47616c-0.53868,-1.4578 1.03077,-6.667 3.60309,-11.95897l4.55746,-9.37613l-4.65886,-2.8581c-6.19999,-3.8035 -3.8954,-4.97495 12.5514,-6.38007l12.99834,-1.11048l5.09856,13.99053c2.80425,7.69479 5.45739,14.98427 5.89593,16.19894c0.45735,1.26677 -1.73148,0.42392 -5.13321,-1.97666l-5.93053,-4.18518l-4.13996,8.29952c-2.27694,4.56481 -4.17225,8.80825 -4.21173,9.42987c-0.03957,0.62161 6.94876,1.33296 15.52951,1.58072l15.60132,0.45045l1.01814,11.85179c0.56,6.51852 0.90243,11.93891 0.76104,12.04533c-0.14139,0.10631 -7.52883,0.68268 -16.41652,1.28067l-16.15946,1.08721l-10.00509,-17.89331l0,0.00001zm61.58427,17.38843c-9.44676,-14.80753 -9.61096,-13.70611 4.4299,-29.71191l9.01328,-10.27464l-0.95729,7.50839l-0.95733,7.5084l10.1004,0c5.55521,0 10.10045,-0.46137 10.10045,-1.02519c0,-0.56392 -3.08224,-6.89739 -6.8494,-14.07457c-3.76716,-7.17718 -6.8351,-13.65122 -6.81768,-14.38677c0.03911,-1.64931 19.78605,-15.26851 20.72482,-14.29358c0.37197,0.3863 4.0366,7.26652 8.14363,15.28953l7.46743,14.58707l-10.04763,16.83125c-5.52628,9.25708 -10.83581,17.73411 -11.7989,18.83775c-0.9632,1.10363 -6.34886,2.45251 -11.96818,2.99741c-10.7259,1.04023 -10.43392,0.78968 -12.00658,10.30166c-0.27521,1.66465 -3.48446,-2.1125 -8.57693,-10.0948l0,0.00001z" fill="#e2e2e2"/>
  <path stroke="null" id="svg_72" d="m464.27956,131.07792l-2.92838,-9.42741c0.85819,-0.69243 1.66368,-1.43333 2.424,-2.22616l10.24179,2.69354c1.08026,-1.44717 2.00996,-2.98436 2.8418,-4.58041l-7.62206,-6.78579c0.36511,-0.9971 0.68128,-2.0115 0.90712,-3.05707l10.2719,-2.3681c0.07528,-0.87246 0.1468,-1.74838 0.1468,-2.64161s-0.07528,-1.76569 -0.1468,-2.63815l-10.2719,-2.3681c-0.2296,-1.04557 -0.54578,-2.05997 -0.90712,-3.05707l7.62582,-6.78579c-0.8356,-1.59258 -1.76531,-3.13324 -2.84557,-4.58041l-10.24179,2.69008c-0.75656,-0.78937 -1.56582,-1.53027 -2.424,-2.22616l2.92838,-9.42395c-1.57334,-0.99017 -3.24831,-1.84878 -4.98351,-2.61392l-7.3774,7.0143c-1.08026,-0.33583 -2.18687,-0.62319 -3.32359,-0.83438l-2.5708,-9.45164c-0.95229,-0.06578 -1.90081,-0.13502 -2.87192,-0.13502s-1.91963,0.06924 -2.86815,0.13502l-2.57456,9.45164c-1.13672,0.21119 -2.23957,0.49855 -3.32359,0.83438l-7.3774,-7.0143c-1.73143,0.77552 -3.40264,1.63067 -4.97598,2.6243l2.92838,9.42395c-0.85819,0.69243 -1.66744,1.43679 -2.42024,2.22269l-10.24555,-2.69354c-1.08026,1.44717 -2.00996,2.98783 -2.8418,4.58387l7.62582,6.78579c-0.36134,0.9971 -0.67752,2.0115 -0.90712,3.05707l-10.27566,2.3681c-0.07152,0.87246 -0.1468,1.74838 -0.1468,2.63815s0.07528,1.76569 0.1468,2.64161l10.27566,2.3681c0.2296,1.04557 0.54578,2.05997 0.90712,3.05707l-7.62582,6.78579c0.83184,1.59258 1.76154,3.13324 2.8418,4.58041l10.24555,-2.69354c0.7528,0.79283 1.56205,1.53027 2.42024,2.22616l-2.92838,9.42741c1.57334,0.99017 3.24831,1.84532 4.97974,2.61392l7.3774,-7.0143c1.08403,0.33583 2.18687,0.62665 3.32359,0.83438l2.57456,9.44818c0.94852,0.06924 1.90081,0.13502 2.87192,0.13502s1.91963,-0.06924 2.87192,-0.13502l2.5708,-9.44818c1.13672,-0.21119 2.24333,-0.50201 3.32359,-0.83438l7.3774,7.0143c1.72767,-0.77552 3.40264,-1.63067 4.97598,-2.62084zm-21.12345,-16.62173c-7.06499,0 -12.79376,-5.26938 -12.79376,-11.76781s5.72878,-11.76435 12.79376,-11.76435s12.79,5.26591 12.79,11.76435s-5.72501,11.76781 -12.79,11.76781zm58.31156,24.5985c0.07152,-1.89379 -0.22584,-3.8222 -0.86572,-5.72638l4.68239,-6.13837c-0.70763,-1.21175 -1.50559,-2.36118 -2.41271,-3.40675l-7.98716,1.54065c-1.61098,-1.26022 -3.44404,-2.24347 -5.40507,-2.94628l-2.29979,-7.19779c-1.4529,-0.23543 -2.92461,-0.36352 -4.41515,-0.36699l-3.66612,6.7027c-1.05015,0.18696 -2.1003,0.44315 -3.13163,0.80668c-0.96734,0.33929 -1.8707,0.76167 -2.73641,1.22214l-7.55054,-2.83549c-1.1179,0.90708 -2.13794,1.88687 -3.06011,2.94974l3.41393,6.81349c-0.97487,1.71376 -1.64486,3.55908 -1.9535,5.48749l-7.11768,3.66987c0.07152,1.34331 0.28606,2.68662 0.61729,4.03339l7.91941,1.79685c0.86948,1.81416 2.03631,3.43791 3.4478,4.82276l-1.32492,7.40206c1.20447,0.79629 2.48423,1.4818 3.81291,2.07728l6.45522,-4.57002c2.01749,0.48816 4.12908,0.67512 6.25573,0.51932l5.4653,5.56366c0.7528,-0.19734 1.50183,-0.40853 2.24333,-0.66819c0.6587,-0.2285 1.27975,-0.49855 1.90081,-0.77206l0.13927,-7.49553c1.71261,-1.17367 3.17303,-2.58622 4.3361,-4.17534l8.13396,-0.46393c0.57212,-1.24291 1.05015,-2.53429 1.38514,-3.86029l-6.28208,-4.78468zm-15.66944,6.94852c-4.52054,1.58566 -9.57933,-0.49855 -11.30699,-4.65658s0.53825,-8.81461 5.05879,-10.40373c4.52054,-1.58566 9.58685,0.49855 11.31452,4.65658c1.7239,4.15803 -0.54578,8.81461 -5.06632,10.40373z" fill="#e2e2e2"/>
  <path transform="rotate(90.8036 1266.14 199.438)" id="svg_73" d="m1266.58312,88.43833c-1.79046,0 -3.38342,0.95234 -4.72747,2.6798c-1.34291,1.72604 -2.45369,4.19931 -3.37801,7.28816c-1.84838,6.17684 -2.98539,14.8539 -3.60733,25.24548c-0.62072,10.37159 -0.72532,22.44834 -0.46744,35.37626c-22.11662,11.75629 -66.97324,36.02986 -70.57662,41.44964c-4.79748,7.21582 -3.24743,15.48555 -1.31416,20.97533l73.74294,-19.44761c1.55876,25.34356 3.77509,50.44501 5.70645,70.11393c-7.21161,2.73475 -20.67335,8.13462 -23.45202,11.48316c-3.82785,4.61289 -3.82782,19.51009 -3.82782,19.51009l30.18161,-3.18067c0.71084,6.42144 1.15539,10.16831 1.15539,10.16831l0.04411,0.33811l0.23814,0l0.55564,0l0.23814,0l0.04411,-0.33811c0,0 0.4437,-3.74694 1.15538,-10.16831l30.19043,3.18067c0,0 0.00003,-14.89721 -3.82783,-19.51009c-2.77971,-3.34983 -16.25128,-8.76195 -23.46085,-11.49576c1.92737,-19.60855 4.13979,-44.61396 5.69763,-69.87587l72.87862,19.22214c1.93324,-5.48979 3.49216,-13.75952 -1.30534,-20.97533c-3.5588,-5.3527 -47.33152,-29.08639 -69.7211,-40.99887c0.26751,-13.09549 0.16918,-25.33682 -0.45863,-35.82704l0,-0.02504c-0.62225,-10.38012 -1.76047,-19.04872 -3.60731,-25.22043c-0.92406,-3.08799 -2.02579,-5.56152 -3.36918,-7.28816c-1.34406,-1.72746 -2.937,-2.6798 -4.72745,-2.6798l-0.00003,0.00001z" stroke="null" fill="#e5e5e5"/>
 </g>
</svg>