<?xml version="1.0" encoding="utf-8"?>
<!-- Generator: Adobe Illustrator 24.3.0, SVG Export Plug-In . SVG Version: 6.00 Build 0)  -->
<svg version="1.1" id="Layer_1" xmlns="http://www.w3.org/2000/svg" xmlns:xlink="http://www.w3.org/1999/xlink" x="0px" y="0px"
	 viewBox="0 0 334.2 132.4" style="enable-background:new 0 0 334.2 132.4;" xml:space="preserve">
<style type="text/css">
	.st0{opacity:0.54;fill:#FFFFFF;stroke:#DADADA;stroke-width:0.5;stroke-miterlimit:10;enable-background:new    ;}
	.st1{fill:#FFFFFF;stroke:#DADADA;stroke-width:0.5;stroke-miterlimit:10;}
	.st2{fill:none;stroke:#E65214;stroke-width:0.25;stroke-miterlimit:10;}
	.st3{fill:none;stroke:#19B3B1;stroke-width:0.25;stroke-miterlimit:10;}
	.st4{fill:#18385F;stroke:#18385F;stroke-width:0.25;stroke-miterlimit:10;}
	.st5{fill:none;stroke:#AFB0B0;stroke-width:0.25;stroke-miterlimit:10;}
	.st6{fill:none;stroke:#E2DBD9;stroke-width:0.25;stroke-miterlimit:10;}
	.st7{fill:#AFB0B0;stroke:#AFB0B0;stroke-width:0.5;stroke-miterlimit:10;}
	.st8{fill:#18385F;}
	.st9{fill:#DADADA;stroke:#DADADA;stroke-width:0.5;stroke-miterlimit:10;}
	.st10{fill:#19B3B1;}
	.st11{fill:#E65214;}
	.st12{fill:none;}
	.st13{fill:#838484;}
	.st14{fill:#FFFFFF;}
	.st15{fill:#C3C3C3;}
	.st16{fill:#143156;}
	.st17{fill:#143156;stroke:#FFFFFF;stroke-width:0.25;stroke-miterlimit:10;}
	.st18{fill:none;stroke:#838484;stroke-width:0.25;stroke-miterlimit:10;}
	.st19{opacity:0.54;fill:none;stroke:#DADADA;stroke-width:0.5;stroke-miterlimit:10;enable-background:new    ;}
	.st20{fill:#AFB0B0;}
</style>
<g>
	<polygon class="st0" points="2,5.4 152.8,4.9 153,129.6 2,129.6 	"/>
	<g>
		<g>
			<polygon class="st1" points="23.2,15.6 11.2,15.5 11.2,12.8 23.2,12.9 			"/>
			<polygon class="st1" points="29.4,15.6 25,15.6 25,12.9 29.4,12.9 			"/>
			<polygon class="st1" points="34.1,15.7 31.2,15.7 31.2,12.9 34.1,13 			"/>
			<polygon class="st1" points="17.7,21.8 11.2,21.7 11.2,19 17.7,19 			"/>
			<polygon class="st1" points="27.6,21.8 19.6,21.8 19.6,19 27.6,19.1 			"/>
			<polygon class="st1" points="32.4,21.9 29.4,21.9 29.4,19.1 32.4,19.2 			"/>
			<polygon class="st1" points="36.9,21.9 34,21.9 34,19.2 36.9,19.2 			"/>
			<polygon class="st1" points="15.9,28 11.2,27.9 11.2,25.2 15.9,25.2 			"/>
			<polygon class="st1" points="19.4,28 17.8,28 17.8,25.3 19.4,25.3 			"/>
			<polygon class="st1" points="24.2,28 21.2,28 21.2,25.3 24.2,25.3 			"/>
			<polygon class="st1" points="28.7,34.3 11.2,34.1 11.2,31.4 28.7,31.6 			"/>
			<polygon class="st1" points="34.8,34.4 30.5,34.3 30.5,31.6 34.8,31.6 			"/>
			<polygon class="st1" points="16,40.4 11.2,40.4 11.2,37.6 16,37.7 			"/>
			<polygon class="st1" points="27.1,40.5 17.8,40.4 17.8,37.7 27.1,37.8 			"/>
			<polygon class="st1" points="31.8,40.5 28.9,40.5 28.9,37.8 31.8,37.8 			"/>
			<polygon class="st1" points="20.9,46.7 11.2,46.6 11.2,43.9 20.9,43.9 			"/>
			<polygon class="st1" points="29.8,46.7 22.8,46.7 22.8,44 29.8,44 			"/>
			<polygon class="st1" points="36.3,46.8 31.6,46.8 31.6,44 36.3,44.1 			"/>
			<polygon class="st1" points="14.5,52.8 11.2,52.8 11.2,50.1 14.5,50.1 			"/>
			<polygon class="st1" points="20.7,52.9 16.4,52.8 16.3,50.1 20.7,50.2 			"/>
			<polygon class="st1" points="29.5,53 22.5,52.9 22.5,50.2 29.5,50.3 			"/>
			<polygon class="st1" points="21.3,59.1 11.3,59 11.3,56.3 21.3,56.4 			"/>
			<polygon class="st1" points="32.5,59.2 23.1,59.1 23.1,56.4 32.5,56.5 			"/>
			<polygon class="st1" points="37.3,59.3 34.3,59.2 34.3,56.5 37.3,56.5 			"/>
			<polygon class="st1" points="41.9,59.3 38.9,59.3 38.9,56.6 41.9,56.6 			"/>
			<polygon class="st1" points="17.3,65.3 11.3,65.2 11.3,62.5 17.3,62.6 			"/>
			<polygon class="st1" points="42.3,15.8 50.6,15.8 50.6,13.1 42.3,13 			"/>
			<polygon class="st1" points="44.1,22 50.6,22.1 50.6,19.3 44.1,19.3 			"/>
			<polygon class="st1" points="45.9,28.2 50.6,28.3 50.6,25.6 45.9,25.5 			"/>
			<polygon class="st1" points="43.8,34.4 50.7,34.5 50.7,31.8 43.8,31.7 			"/>
			<polygon class="st1" points="45.9,40.7 50.7,40.7 50.7,38 45.9,38 			"/>
			<polygon class="st1" points="44.7,46.9 50.7,46.9 50.7,44.2 44.7,44.2 			"/>
			<polygon class="st1" points="47.4,53.1 50.7,53.2 50.7,50.4 47.4,50.4 			"/>
			<polygon class="st1" points="44.4,59.3 50.7,59.4 50.7,56.7 44.4,56.6 			"/>
			<polygon class="st1" points="44.7,65.5 50.7,65.6 50.7,62.9 44.7,62.8 			"/>
			<polygon class="st1" points="21.7,65.3 19.1,65.3 19.1,62.6 21.7,62.6 			"/>
			<polygon class="st1" points="29.2,65.4 23.5,65.4 23.5,62.6 29.2,62.7 			"/>
			<polygon class="st1" points="23.3,71.6 11.3,71.5 11.3,68.8 23.3,68.9 			"/>
			<polygon class="st1" points="29.5,71.7 25.1,71.6 25.1,68.9 29.4,68.9 			"/>
			<polygon class="st1" points="34.2,71.7 31.3,71.7 31.3,69 34.2,69 			"/>
			<polygon class="st1" points="17.8,77.8 11.3,77.7 11.3,75 17.8,75.1 			"/>
			<polygon class="st1" points="27.7,77.9 19.7,77.8 19.7,75.1 27.7,75.2 			"/>
			<polygon class="st1" points="32.5,77.9 29.5,77.9 29.5,75.2 32.5,75.2 			"/>
			<polygon class="st1" points="37,78 34.1,77.9 34.1,75.2 37,75.2 			"/>
			<polygon class="st1" points="16,84 11.3,83.9 11.3,81.2 16,81.3 			"/>
			<polygon class="st1" points="19.5,84 17.9,84 17.9,81.3 19.5,81.3 			"/>
			<polygon class="st1" points="24.3,84.1 21.3,84 21.3,81.3 24.3,81.3 			"/>
			<polygon class="st1" points="28.8,90.3 11.3,90.2 11.3,87.4 28.8,87.6 			"/>
			<polygon class="st1" points="34.9,90.4 30.6,90.3 30.6,87.6 34.9,87.7 			"/>
			<polygon class="st1" points="16.1,96.4 11.3,96.4 11.3,93.7 16.1,93.7 			"/>
			<polygon class="st1" points="27.2,96.5 17.9,96.4 17.9,93.7 27.2,93.8 			"/>
			<polygon class="st1" points="31.9,96.6 29,96.5 29,93.8 31.9,93.9 			"/>
			<polygon class="st1" points="21,102.7 11.3,102.6 11.3,99.9 21,100 			"/>
			<polygon class="st1" points="29.9,102.8 22.9,102.7 22.9,100 29.9,100.1 			"/>
			<polygon class="st1" points="36.4,102.8 31.7,102.8 31.7,100.1 36.4,100.1 			"/>
			<polygon class="st1" points="14.6,108.9 11.3,108.8 11.3,106.1 14.6,106.1 			"/>
			<polygon class="st1" points="20.8,108.9 16.5,108.9 16.4,106.2 20.8,106.2 			"/>
			<polygon class="st1" points="29.6,109 22.6,108.9 22.6,106.2 29.6,106.3 			"/>
			<polygon class="st1" points="21.4,115.1 11.4,115.1 11.3,112.3 21.4,112.4 			"/>
			<polygon class="st1" points="32.6,115.2 23.2,115.2 23.2,112.4 32.6,112.5 			"/>
			<polygon class="st1" points="37.4,115.3 34.4,115.3 34.4,112.5 37.4,112.6 			"/>
			<polygon class="st1" points="42,115.3 39,115.3 39,112.6 42,112.6 			"/>
			<polygon class="st1" points="17.4,121.3 11.4,121.3 11.4,118.6 17.4,118.6 			"/>
			<polygon class="st1" points="42.4,71.8 50.7,71.9 50.7,69.1 42.4,69.1 			"/>
			<polygon class="st1" points="44.2,78 50.7,78.1 50.7,75.4 44.2,75.3 			"/>
			<polygon class="st1" points="46,84.3 50.7,84.3 50.7,81.6 46,81.5 			"/>
			<polygon class="st1" points="43.9,90.5 50.8,90.5 50.8,87.8 43.9,87.7 			"/>
			<polygon class="st1" points="46,96.7 50.8,96.7 50.8,94 46,94 			"/>
			<polygon class="st1" points="44.8,102.9 50.8,103 50.8,100.2 44.8,100.2 			"/>
			<polygon class="st1" points="47.5,109.2 50.8,109.2 50.8,106.5 47.5,106.4 			"/>
			<polygon class="st1" points="44.5,115.4 50.8,115.4 50.8,112.7 44.5,112.6 			"/>
			<polygon class="st1" points="44.8,121.6 50.8,121.6 50.8,118.9 44.8,118.9 			"/>
			<polygon class="st1" points="21.8,121.4 19.2,121.3 19.2,118.6 21.8,118.6 			"/>
			<polygon class="st1" points="29.3,121.4 23.6,121.4 23.6,118.7 29.3,118.7 			"/>
		</g>
		<g>
			<polygon class="st1" points="69.7,15.9 57.7,15.8 57.7,13.1 69.7,13.2 			"/>
			<polygon class="st1" points="75.9,16 71.5,15.9 71.5,13.2 75.9,13.2 			"/>
			<polygon class="st1" points="80.6,16 77.7,16 77.7,13.3 80.6,13.3 			"/>
			<polygon class="st1" points="64.2,22.1 57.7,22 57.7,19.3 64.2,19.4 			"/>
			<polygon class="st1" points="74.1,22.2 66.1,22.1 66.1,19.4 74.1,19.4 			"/>
			<polygon class="st1" points="78.9,22.2 75.9,22.2 75.9,19.5 78.9,19.5 			"/>
			<polygon class="st1" points="83.4,22.3 80.5,22.2 80.5,19.5 83.4,19.5 			"/>
			<polygon class="st1" points="62.4,28.3 57.7,28.2 57.7,25.5 62.4,25.6 			"/>
			<polygon class="st1" points="65.9,28.3 64.3,28.3 64.3,25.6 65.9,25.6 			"/>
			<polygon class="st1" points="70.7,28.4 67.7,28.3 67.7,25.6 70.7,25.6 			"/>
			<polygon class="st1" points="75.2,34.6 57.7,34.5 57.7,31.7 75.2,31.9 			"/>
			<polygon class="st1" points="81.4,34.7 77,34.6 77,31.9 81.4,32 			"/>
			<polygon class="st1" points="62.5,40.7 57.7,40.7 57.7,38 62.5,38 			"/>
			<polygon class="st1" points="73.6,40.8 64.3,40.7 64.3,38 73.6,38.1 			"/>
			<polygon class="st1" points="78.4,40.9 75.4,40.8 75.4,38.1 78.3,38.1 			"/>
			<polygon class="st1" points="67.4,47 57.7,46.9 57.7,44.2 67.4,44.3 			"/>
			<polygon class="st1" points="76.3,47.1 69.3,47 69.3,44.3 76.3,44.3 			"/>
			<polygon class="st1" points="82.8,47.1 78.1,47.1 78.1,44.4 82.8,44.4 			"/>
			<polygon class="st1" points="61,53.2 57.8,53.1 57.7,50.4 61,50.4 			"/>
			<polygon class="st1" points="67.2,53.2 62.9,53.2 62.9,50.4 67.2,50.5 			"/>
			<polygon class="st1" points="76,53.3 69,53.2 69,50.5 76,50.6 			"/>
			<polygon class="st1" points="67.8,59.4 57.8,59.3 57.8,56.6 67.8,56.7 			"/>
			<polygon class="st1" points="79,59.5 69.6,59.5 69.6,56.7 79,56.8 			"/>
			<polygon class="st1" points="83.8,59.6 80.8,59.6 80.8,56.8 83.8,56.9 			"/>
			<polygon class="st1" points="88.4,59.6 85.4,59.6 85.4,56.9 88.4,56.9 			"/>
			<polygon class="st1" points="63.8,65.6 57.8,65.6 57.8,62.8 63.8,62.9 			"/>
			<polygon class="st1" points="88.8,16.1 97.1,16.2 97.1,13.4 88.8,13.4 			"/>
			<polygon class="st1" points="90.6,22.3 97.1,22.4 97.1,19.7 90.6,19.6 			"/>
			<polygon class="st1" points="92.4,28.6 97.2,28.6 97.2,25.9 92.4,25.8 			"/>
			<polygon class="st1" points="90.3,34.8 97.2,34.8 97.2,32.1 90.3,32 			"/>
			<polygon class="st1" points="92.4,41 97.2,41 97.2,38.3 92.4,38.3 			"/>
			<polygon class="st1" points="91.2,47.2 97.2,47.3 97.2,44.5 91.2,44.5 			"/>
			<polygon class="st1" points="93.9,53.5 97.2,53.5 97.2,50.8 93.9,50.7 			"/>
			<polygon class="st1" points="90.9,59.6 97.2,59.7 97.2,57 90.9,56.9 			"/>
			<polygon class="st1" points="91.2,65.9 97.2,65.9 97.2,63.2 91.2,63.1 			"/>
			<polygon class="st1" points="68.2,65.7 65.6,65.6 65.6,62.9 68.2,62.9 			"/>
			<polygon class="st1" points="75.8,65.7 70,65.7 70,63 75.7,63 			"/>
			<polygon class="st1" points="69.8,71.9 57.8,71.8 57.8,69.1 69.8,69.2 			"/>
			<polygon class="st1" points="76,72 71.6,72 71.6,69.2 76,69.3 			"/>
			<polygon class="st1" points="80.7,72 77.8,72 77.8,69.3 80.7,69.3 			"/>
			<polygon class="st1" points="64.3,78.1 57.8,78 57.8,75.3 64.3,75.4 			"/>
			<polygon class="st1" points="74.2,78.2 66.2,78.1 66.2,75.4 74.2,75.5 			"/>
			<polygon class="st1" points="79,78.2 76,78.2 76,75.5 79,75.5 			"/>
			<polygon class="st1" points="83.5,78.3 80.6,78.3 80.6,75.5 83.5,75.6 			"/>
			<polygon class="st1" points="62.5,84.3 57.8,84.3 57.8,81.5 62.5,81.6 			"/>
			<polygon class="st1" points="66,84.3 64.4,84.3 64.4,81.6 66,81.6 			"/>
			<polygon class="st1" points="70.8,84.4 67.8,84.4 67.8,81.6 70.8,81.7 			"/>
			<polygon class="st1" points="75.3,90.7 57.8,90.5 57.8,87.8 75.3,87.9 			"/>
			<polygon class="st1" points="81.5,90.7 77.1,90.7 77.1,87.9 81.4,88 			"/>
			<polygon class="st1" points="62.6,96.7 57.8,96.7 57.8,94 62.6,94 			"/>
			<polygon class="st1" points="73.7,96.9 64.4,96.8 64.4,94 73.7,94.1 			"/>
			<polygon class="st1" points="78.5,96.9 75.5,96.9 75.5,94.1 78.4,94.2 			"/>
			<polygon class="st1" points="67.5,103 57.8,102.9 57.8,100.2 67.5,100.3 			"/>
			<polygon class="st1" points="76.4,103.1 69.4,103 69.4,100.3 76.4,100.4 			"/>
			<polygon class="st1" points="82.9,103.2 78.2,103.1 78.2,100.4 82.9,100.4 			"/>
			<polygon class="st1" points="61.1,109.2 57.8,109.2 57.8,106.4 61.1,106.5 			"/>
			<polygon class="st1" points="67.3,109.2 63,109.2 63,106.5 67.3,106.5 			"/>
			<polygon class="st1" points="76.1,109.3 69.1,109.3 69.1,106.5 76.1,106.6 			"/>
			<polygon class="st1" points="67.9,115.5 57.9,115.4 57.9,112.7 67.9,112.7 			"/>
			<polygon class="st1" points="79.1,115.6 69.7,115.5 69.7,112.8 79.1,112.8 			"/>
			<polygon class="st1" points="83.9,115.6 80.9,115.6 80.9,112.9 83.9,112.9 			"/>
			<polygon class="st1" points="88.5,115.7 85.5,115.6 85.5,112.9 88.5,112.9 			"/>
			<polygon class="st1" points="63.9,121.6 57.9,121.6 57.9,118.9 63.9,118.9 			"/>
			<polygon class="st1" points="88.9,72.1 97.2,72.2 97.2,69.5 88.9,69.4 			"/>
			<polygon class="st1" points="90.7,78.3 97.2,78.4 97.2,75.7 90.7,75.6 			"/>
			<polygon class="st1" points="92.5,84.6 97.3,84.6 97.2,81.9 92.5,81.9 			"/>
			<polygon class="st1" points="90.4,90.8 97.3,90.8 97.3,88.1 90.4,88.1 			"/>
			<polygon class="st1" points="92.5,97 97.3,97.1 97.3,94.3 92.5,94.3 			"/>
			<polygon class="st1" points="91.3,103.2 97.3,103.3 97.3,100.6 91.3,100.5 			"/>
			<polygon class="st1" points="94,109.5 97.3,109.5 97.3,106.8 94,106.8 			"/>
			<polygon class="st1" points="91,115.7 97.3,115.7 97.3,113 91,113 			"/>
			<polygon class="st1" points="91.3,121.9 97.3,122 97.3,119.2 91.3,119.2 			"/>
			<polygon class="st1" points="68.3,121.7 65.7,121.7 65.7,118.9 68.3,119 			"/>
			<polygon class="st1" points="75.8,121.8 70.1,121.7 70.1,119 75.8,119 			"/>
		</g>
		<g>
			<polygon class="st1" points="116.2,15.4 104.2,15.3 104.2,12.6 116.2,12.7 			"/>
			<polygon class="st1" points="122.4,15.5 118,15.4 118,12.7 122.4,12.7 			"/>
			<polygon class="st1" points="127.1,15.5 124.2,15.5 124.2,12.8 127.1,12.8 			"/>
			<polygon class="st1" points="110.8,21.6 104.2,21.5 104.2,18.8 110.7,18.9 			"/>
			<polygon class="st1" points="120.6,21.7 112.6,21.6 112.6,18.9 120.6,18.9 			"/>
			<polygon class="st1" points="125.4,21.7 122.4,21.7 122.4,19 125.4,19 			"/>
			<polygon class="st1" points="129.9,21.8 127,21.7 127,19 129.9,19 			"/>
			<polygon class="st1" points="109,27.8 104.2,27.7 104.2,25 109,25.1 			"/>
			<polygon class="st1" points="112.4,27.8 110.8,27.8 110.8,25.1 112.4,25.1 			"/>
			<polygon class="st1" points="117.2,27.9 114.2,27.8 114.2,25.1 117.2,25.1 			"/>
			<polygon class="st1" points="121.7,34.1 104.2,34 104.2,31.2 121.7,31.4 			"/>
			<polygon class="st1" points="127.9,34.2 123.5,34.1 123.5,31.4 127.9,31.5 			"/>
			<polygon class="st1" points="109,40.2 104.2,40.2 104.2,37.5 109,37.5 			"/>
			<polygon class="st1" points="120.1,40.3 110.8,40.2 110.8,37.5 120.1,37.6 			"/>
			<polygon class="st1" points="124.9,40.4 121.9,40.3 121.9,37.6 124.9,37.6 			"/>
			<polygon class="st1" points="113.9,46.5 104.2,46.4 104.2,43.7 113.9,43.8 			"/>
			<polygon class="st1" points="122.8,46.6 115.8,46.5 115.8,43.8 122.8,43.8 			"/>
			<polygon class="st1" points="129.4,46.6 124.6,46.6 124.6,43.9 129.3,43.9 			"/>
			<polygon class="st1" points="107.5,52.7 104.3,52.6 104.3,49.9 107.5,49.9 			"/>
			<polygon class="st1" points="113.7,52.7 109.4,52.7 109.4,49.9 113.7,50 			"/>
			<polygon class="st1" points="122.5,52.8 115.5,52.7 115.5,50 122.5,50.1 			"/>
			<polygon class="st1" points="114.3,58.9 104.3,58.8 104.3,56.1 114.3,56.2 			"/>
			<polygon class="st1" points="125.5,59 116.1,59 116.1,56.2 125.5,56.3 			"/>
			<polygon class="st1" points="130.3,59.1 127.4,59.1 127.4,56.3 130.3,56.4 			"/>
			<polygon class="st1" points="134.9,59.1 131.9,59.1 131.9,56.4 134.9,56.4 			"/>
			<polygon class="st1" points="110.3,65.1 104.3,65.1 104.3,62.3 110.3,62.4 			"/>
			<polygon class="st1" points="135.3,15.6 143.6,15.7 143.6,12.9 135.3,12.9 			"/>
			<polygon class="st1" points="137.1,21.8 143.7,21.9 143.6,19.2 137.1,19.1 			"/>
			<polygon class="st1" points="138.9,28.1 143.7,28.1 143.7,25.4 138.9,25.3 			"/>
			<polygon class="st1" points="136.8,34.3 143.7,34.3 143.7,31.6 136.8,31.5 			"/>
			<polygon class="st1" points="139,40.5 143.7,40.5 143.7,37.8 138.9,37.8 			"/>
			<polygon class="st1" points="137.7,46.7 143.7,46.8 143.7,44 137.7,44 			"/>
			<polygon class="st1" points="140.4,52.9 143.7,53 143.7,50.3 140.4,50.2 			"/>
			<polygon class="st1" points="137.4,59.1 143.7,59.2 143.7,56.5 137.4,56.4 			"/>
			<polygon class="st1" points="137.7,65.4 143.7,65.4 143.7,62.7 137.7,62.6 			"/>
			<polygon class="st1" points="114.7,65.2 112.1,65.1 112.1,62.4 114.7,62.4 			"/>
			<polygon class="st1" points="122.3,65.2 116.5,65.2 116.5,62.4 122.3,62.5 			"/>
			<polygon class="st1" points="116.3,71.4 104.3,71.3 104.3,68.6 116.3,68.7 			"/>
			<polygon class="st1" points="122.5,71.5 118.1,71.5 118.1,68.7 122.5,68.8 			"/>
			<polygon class="st1" points="127.2,71.5 124.3,71.5 124.3,68.8 127.2,68.8 			"/>
			<polygon class="st1" points="110.8,77.6 104.3,77.5 104.3,74.8 110.8,74.9 			"/>
			<polygon class="st1" points="120.7,77.7 112.7,77.6 112.7,74.9 120.7,75 			"/>
			<polygon class="st1" points="125.5,77.7 122.5,77.7 122.5,75 125.5,75 			"/>
			<polygon class="st1" points="130,77.8 127.1,77.7 127.1,75 130,75 			"/>
			<polygon class="st1" points="109.1,83.8 104.3,83.8 104.3,81 109,81.1 			"/>
			<polygon class="st1" points="112.5,83.8 110.9,83.8 110.9,81.1 112.5,81.1 			"/>
			<polygon class="st1" points="117.3,83.9 114.3,83.8 114.3,81.1 117.3,81.2 			"/>
			<polygon class="st1" points="121.8,90.1 104.3,90 104.3,87.3 121.8,87.4 			"/>
			<polygon class="st1" points="128,90.2 123.6,90.2 123.6,87.4 128,87.5 			"/>
			<polygon class="st1" points="109.1,96.3 104.3,96.2 104.3,93.5 109.1,93.5 			"/>
			<polygon class="st1" points="120.2,96.4 110.9,96.3 110.9,93.5 120.2,93.6 			"/>
			<polygon class="st1" points="125,96.4 122,96.4 122,93.6 125,93.7 			"/>
			<polygon class="st1" points="114,102.5 104.3,102.4 104.3,99.7 114,99.8 			"/>
			<polygon class="st1" points="122.9,102.6 115.9,102.5 115.9,99.8 122.9,99.9 			"/>
			<polygon class="st1" points="129.4,102.7 124.7,102.6 124.7,99.9 129.4,99.9 			"/>
			<polygon class="st1" points="107.6,108.7 104.4,108.7 104.4,105.9 107.6,106 			"/>
			<polygon class="st1" points="113.8,108.7 109.5,108.7 109.5,106 113.8,106 			"/>
			<polygon class="st1" points="122.6,108.8 115.6,108.7 115.6,106 122.6,106.1 			"/>
			<polygon class="st1" points="114.4,115 104.4,114.9 104.4,112.1 114.4,112.2 			"/>
			<polygon class="st1" points="125.6,115.1 116.2,115 116.2,112.3 125.6,112.3 			"/>
			<polygon class="st1" points="130.4,115.1 127.5,115.1 127.5,112.4 130.4,112.4 			"/>
			<polygon class="st1" points="135,115.2 132,115.1 132,112.4 135,112.4 			"/>
			<polygon class="st1" points="110.4,121.1 104.4,121.1 104.4,118.4 110.4,118.4 			"/>
			<polygon class="st1" points="135.4,71.6 143.7,71.7 143.7,69 135.4,68.9 			"/>
			<polygon class="st1" points="137.2,77.8 143.7,77.9 143.7,75.2 137.2,75.1 			"/>
			<polygon class="st1" points="139,84.1 143.8,84.1 143.8,81.4 139,81.4 			"/>
			<polygon class="st1" points="136.9,90.3 143.8,90.3 143.8,87.6 136.9,87.6 			"/>
			<polygon class="st1" points="139.1,96.5 143.8,96.6 143.8,93.8 139,93.8 			"/>
			<polygon class="st1" points="137.8,102.7 143.8,102.8 143.8,100.1 137.8,100 			"/>
			<polygon class="st1" points="140.5,109 143.8,109 143.8,106.3 140.5,106.3 			"/>
			<polygon class="st1" points="137.5,115.2 143.8,115.2 143.8,112.5 137.5,112.4 			"/>
			<polygon class="st1" points="137.8,121.4 143.8,121.5 143.8,118.7 137.8,118.7 			"/>
			<polygon class="st1" points="114.8,121.2 112.2,121.2 112.2,118.4 114.8,118.5 			"/>
			<polygon class="st1" points="122.4,121.3 116.6,121.2 116.6,118.5 122.4,118.5 			"/>
		</g>
	</g>
</g>
<line class="st2" x1="172.2" y1="60.5" x2="114.2" y2="100.2"/>
<line class="st3" x1="173" y1="87.4" x2="57.9" y2="121.6"/>
<line class="st4" x1="172.2" y1="36.3" x2="16.4" y2="59.9"/>
<line class="st5" x1="172.2" y1="116.5" x2="62.4" y2="21"/>
<line class="st6" x1="173.7" y1="17.6" x2="11.4" y2="121.3"/>
<circle class="st7" cx="64.8" cy="21.5" r="4.1"/>
<circle class="st8" cx="17.2" cy="59.9" r="4.1"/>
<circle class="st9" cx="12.9" cy="120.6" r="4.1"/>
<circle class="st10" cx="59.5" cy="120.6" r="4.1"/>
<circle class="st11" cx="114.2" cy="99.2" r="4.1"/>
<rect x="172.2" y="32.6" class="st8" width="51.5" height="6.2"/>
<rect x="172.2" y="14.6" class="st9" width="51.5" height="6.2"/>
<rect x="172.2" y="57.7" class="st11" width="51.5" height="6.2"/>
<rect x="172.2" y="84.5" class="st10" width="51.5" height="6.2"/>
<rect x="172.2" y="113" class="st7" width="51.5" height="6.2"/>
<g>
	<g>
		<path class="st12" d="M294.5,80.6l-10.4-2.7l-11.6,18.2c0.6,0.4,1.1,0.9,1.5,1.5l20.7-14.2c-0.2-0.5-0.4-1.1-0.4-1.7
			C294.3,81.4,294.4,80.9,294.5,80.6z"/>
		<path class="st12" d="M283.8,77.8l-7.6-2l-1.7,1.3c0.5,0.7,0.8,1.5,0.8,2.3c0,2.2-1.8,4-4,4c-0.1,0-0.2,0-0.2,0l-1.2,11.7
			c0.9,0.1,1.6,0.4,2.3,0.8L283.8,77.8z"/>
		<path class="st12" d="M287.4,41.6l-9.9,4.7l11,11.9c0.7-0.6,1.5-1,2.4-1.3L287.4,41.6z"/>
		<path class="st12" d="M297.4,66l9.9,10l12.9-7.3c-0.5-0.8-0.7-1.7-0.7-2.8c0-0.2,0-0.4,0.1-0.6l-21.1-2.5
			C298.4,64.1,298,65.1,297.4,66z"/>
		<path class="st12" d="M294.5,68.2l2.7,9.8c0.4-0.1,0.8-0.2,1.2-0.2c1.3,0,2.3,0.6,3.1,1.5l5.7-3.2l-9.9-9.9
			C296.5,67.1,295.6,67.9,294.5,68.2z"/>
		<path class="st12" d="M275.1,101.1c0,1-0.2,1.9-0.7,2.7c2.9,0.6,5.8,0.9,8.8,0.9c4.3,0,8.5-0.7,12.4-1.9c-0.2-0.6-0.4-1.3-0.4-2"
			/>
		<path class="st12" d="M254.1,66.4l-1.7-5.2l-5.6,3.5c0.2,0.7,0.5,1.5,0.5,2.2c0,0.8-0.2,1.6-0.4,2.2l5.2,0.5
			C252.1,68.2,252.9,67.1,254.1,66.4z"/>
		<path class="st12" d="M306.9,33.1l4,13.2l-0.2,0.1l-4-13.3c-0.4,0.1-0.9,0.2-1.3,0.2c-0.6,0-1.3-0.1-1.8-0.3l-3.8,10.3l9,4.9
			c0.7-1.1,2-2,3.4-2c1.5,0,2.8,0.8,3.5,2.1l2.5-1.5c-0.5-0.7-0.9-1.6-0.9-2.5c0-1.4,0.7-2.6,1.8-3.3c-2.4-4-5.5-7.4-9-10.4
			C309.4,31.9,308.2,32.8,306.9,33.1z"/>
		<path class="st12" d="M256,65.9c0.7,0,1.3,0.2,1.9,0.5l7.1-11.7c-0.4-0.2-0.7-0.5-0.9-0.9l-11.5,7.3l1.7,5.2
			C254.8,66,255.4,65.9,256,65.9z"/>
		<path class="st12" d="M270.8,75.6l-0.2-1.2l-11.1-2.9c-0.6,1.3-2,2.3-3.6,2.3c-0.6,0-1.1-0.1-1.6-0.4l-2.9,11
			c1.3,0.4,2.3,1.5,2.6,2.8l13.6-6.2c-0.2-0.5-0.4-1-0.4-1.6C267.4,77.5,268.9,75.8,270.8,75.6z"/>
		<path class="st12" d="M320.4,69l-12.8,7.2l7.5,7.5c0.7-0.5,1.5-0.8,2.3-0.8c0.8,0,1.6,0.2,2.2,0.7c2.1-3.7,3.7-7.8,4.6-12.1
			C322.6,71.3,321.2,70.3,320.4,69z"/>
		<path class="st12" d="M287.8,66.2l-11.4,9.4l7.6,2l6-9.4l0.2,0.2l-6,9.4l10.3,2.7c0.4-1,1.2-1.8,2.2-2.2l-2.7-9.8
			c-0.5,0.2-1.1,0.2-1.7,0.2C290.6,68.6,288.9,67.6,287.8,66.2z"/>
		<path class="st12" d="M295.3,100.6c0.1-2.9,2.2-5.4,5.1-5.8l-1.1-9.2l0.2-0.1l1.1,9.2c0.2,0,0.4-0.1,0.5-0.1
			c2.2,0,4.1,1.3,5.2,3.1c3.2-2.2,6.2-4.8,8.7-7.8c-1-0.7-1.7-1.9-1.7-3.2c0-0.5,0.1-1.1,0.3-1.6L302,83.1l0.1-0.2l11.8,2.2
			c0.2-0.5,0.5-0.9,1-1.2l-7.6-7.6l-5.7,3.3c0.4,0.6,0.7,1.4,0.7,2.2c0,2.2-1.8,4-4,4c-1.5,0-2.8-0.8-3.5-2.1L274,97.9
			c0.6,0.9,0.9,1.9,1,3.1"/>
		<path class="st12" d="M292.3,56.7l-0.2-13.6c-0.2,0.1-0.4,0.1-0.6,0.1c-1.5,0-2.7-0.8-3.4-1.9l-0.5,0.2l3.5,15.3
			C291.6,56.7,292,56.7,292.3,56.7z"/>
		<path class="st12" d="M318.3,47.2l-2.6,1.5c0.2,0.5,0.4,1.1,0.4,1.7c0,0.9-0.3,1.7-0.8,2.3l6.6,8.8c0.9-0.7,2-1,3.2-1
			c0,0,0,0,0.1,0c-0.2-4.3-1.1-8.4-2.6-12.2c-0.4,0.1-0.8,0.2-1.3,0.2C320.1,48.4,319.1,47.9,318.3,47.2z"/>
		<path class="st12" d="M312.2,54.3c-1.3,0-2.5-0.7-3.2-1.7l-11.5,6.7c0.7,1,1.1,2.1,1.1,3.4l21.1,2.5c0.2-1.4,1-2.7,2.1-3.5
			l-6.4-8.8C314.4,53.7,313.3,54.3,312.2,54.3z"/>
		<path class="st12" d="M264.7,32.4l8.1,8.7l9.2-16.2c-1.3-0.7-2.1-2-2.1-3.5c0-0.1,0-0.2,0-0.2c-5.1,0.4-10,1.8-14.5,4
			c0.7,0.9,1.1,2.1,1.1,3.3C266.4,30,265.7,31.4,264.7,32.4z"/>
		<path class="st12" d="M285.6,24.9l4.9,10.5c0.4-0.1,0.7-0.2,1-0.2c2.2,0,4,1.8,4,4c0,0.6-0.2,1.2-0.4,1.7l4.4,2.3l3.8-10.3
			c-2.1-0.8-3.5-2.8-3.5-5.2c0-1.1,0.4-2.1,0.9-3c-4-1.9-8.4-3.1-13.1-3.5c0,0.1,0,0.1,0,0.2C287.7,23,286.8,24.2,285.6,24.9z"/>
		<path class="st12" d="M246.7,64.5l5.6-3.5l-4.3-13.3c-0.2,0.1-0.5,0.1-0.7,0.1c-1,0-1.9-0.4-2.7-1c-1.9,4.4-3,9.3-3.2,14.4
			C243.8,61.1,245.8,62.5,246.7,64.5z"/>
		<path class="st12" d="M269.1,95.2c0.2,0,0.3,0,0.5,0.1l1.2-11.7c-1.3-0.2-2.4-1-3-2.1l-13.8,6.3c0.1,0.2,0.1,0.4,0.1,0.6
			c0,1.3-0.6,2.3-1.5,3.1c3.1,3.3,6.7,6.1,10.7,8.4C264,97.1,266.4,95.2,269.1,95.2z"/>
		<path class="st12" d="M297.2,59l11.5-6.7c-0.4-0.6-0.6-1.3-0.6-2.1c0-0.6,0.2-1.3,0.4-1.8l-9-4.8l-5,13.4
			C295.7,57.5,296.6,58.2,297.2,59z"/>
		<path class="st12" d="M288,41c-0.2-0.5-0.4-1.1-0.4-1.8c0-1.7,1.1-3.2,2.7-3.7l-4.8-10.4c-0.4,0.2-0.9,0.4-1.5,0.4l3.6,15.8
			L288,41z"/>
		<path class="st12" d="M271.1,75.6c0.1,0,0.1,0,0.2,0c1.2,0,2.3,0.5,3,1.4l1.5-1.3l-4.8-1.3L271.1,75.6z"/>
		<path class="st12" d="M251.4,43.8c0,0.5-0.1,1-0.2,1.5l12.5,5l-0.1,0.2l-12.5-5c-0.5,1.1-1.5,1.9-2.7,2.2l4.2,13.2l11.4-7.2
			c-0.4-0.6-0.6-1.3-0.6-2.1c0-1.7,1.1-3.2,2.7-3.7L262.1,34c-0.4,0.1-0.8,0.2-1.3,0.2c-2.1,0-3.8-1.1-4.8-2.8
			c-2.9,2.5-5.5,5.5-7.6,8.7C250.1,40.3,251.4,41.9,251.4,43.8z"/>
		<path class="st12" d="M272.8,41.6l-3.5,6.2l-0.2-0.2l3.5-6.3l-8-8.7c-0.6,0.5-1.3,1-2.2,1.2l3.9,13.8c0.4-0.1,0.7-0.2,1-0.2
			c1.4,0,2.6,0.7,3.3,1.8l6.5-3.1L272.8,41.6z"/>
		<path class="st12" d="M287.4,41.3l-3.7-15.9c-0.6,0-1.1-0.1-1.6-0.4l-9.2,16.3l4.4,4.8L287.4,41.3z"/>
		<path class="st12" d="M288.3,58.4l-11.1-12l-6.5,3.1c0.3,0.6,0.5,1.3,0.5,2c0,0.8-0.2,1.5-0.6,2.1l16.5,6.6
			C287.4,59.4,287.9,58.9,288.3,58.4z"/>
		<path class="st12" d="M294.4,57l5-13.5l-4.4-2.4c-0.5,0.9-1.5,1.7-2.5,1.9l0.2,13.6C293.2,56.7,293.8,56.8,294.4,57z"/>
		<path class="st12" d="M251.2,84.5l2.9-11.2c-1.3-0.7-2.1-1.9-2.1-3.4l-5.4-0.5c-0.8,1.7-2.3,2.9-4,3.3c1.1,4.4,2.9,8.6,5.2,12.3
			c0.7-0.5,1.5-0.8,2.3-0.8C250.5,84.3,250.8,84.4,251.2,84.5z"/>
		<path class="st13" d="M252.7,91.4c-0.1,0.1-0.2,0.1-0.2,0.2c3.1,3.4,6.8,6.2,10.9,8.5c0.1-0.1,0.1-0.2,0.1-0.2
			C259.4,97.5,255.8,94.7,252.7,91.4z"/>
		<path class="st13" d="M283.3,104.7c-3,0-6-0.4-8.8-0.9c-0.1,0.1-0.1,0.2-0.1,0.2c2.9,0.6,5.9,1,9,1c4.3,0,8.5-0.7,12.5-1.9
			c-0.1-0.1-0.1-0.2-0.1-0.2C291.8,104.1,287.6,104.7,283.3,104.7z"/>
		<path class="st13" d="M242.6,72.8c-0.1,0-0.2,0.1-0.2,0.1c1.1,4.5,2.9,8.7,5.2,12.4c0.1-0.1,0.2-0.1,0.2-0.2
			C245.5,81.4,243.7,77.2,242.6,72.8z"/>
		<path class="st13" d="M279.8,21.2c0-0.1,0-0.2,0.1-0.2c-5.2,0.4-10.2,1.8-14.7,4c0.1,0.1,0.1,0.2,0.2,0.2
			C269.7,23,274.6,21.6,279.8,21.2z"/>
		<path class="st13" d="M256,31.3c-0.1-0.1-0.1-0.2-0.1-0.2c-3,2.6-5.6,5.6-7.8,8.9c0.1,0,0.2,0.1,0.2,0.1
			C250.5,36.7,253.1,33.7,256,31.3z"/>
		<path class="st13" d="M306.4,97.8c0.1,0.1,0.1,0.2,0.1,0.2c3.3-2.2,6.2-4.8,8.8-7.8c-0.1-0.1-0.2-0.1-0.2-0.2
			C312.5,93,309.6,95.6,306.4,97.8z"/>
		<path class="st13" d="M319.7,83.6c0.1,0.1,0.2,0.1,0.2,0.2c2.2-3.7,3.7-7.9,4.7-12.3c-0.1,0-0.2-0.1-0.2-0.1
			C323.3,75.8,321.7,79.9,319.7,83.6z"/>
		<path class="st13" d="M241.5,61c0.2-5.1,1.3-9.9,3.2-14.4c-0.1-0.1-0.2-0.1-0.2-0.2c-1.9,4.5-3.1,9.4-3.3,14.6c0.1,0,0.1,0,0.1,0
			C241.4,61,241.5,61,241.5,61z"/>
		<path class="st13" d="M325,60.4c0.1,0,0.2,0,0.2,0c-0.2-4.3-1.1-8.5-2.6-12.3c-0.1,0.1-0.2,0.1-0.2,0.1
			C323.9,52.1,324.8,56.2,325,60.4z"/>
		<path class="st13" d="M300.7,24.8c0.1-0.1,0.1-0.2,0.2-0.2c-4.1-1.9-8.5-3.1-13.2-3.6c0,0.1,0,0.2,0.1,0.2
			C292.2,21.7,296.6,23,300.7,24.8z"/>
		<path class="st13" d="M319.1,41.2c0.1-0.1,0.2-0.1,0.2-0.2c-2.4-4-5.5-7.5-9.1-10.5c-0.1,0.1-0.1,0.2-0.2,0.2
			C313.6,33.7,316.6,37.3,319.1,41.2z"/>
		<path class="st13" d="M272.6,41.4l0.2-0.2l-8.1-8.7c-0.1,0.1-0.1,0.1-0.2,0.2L272.6,41.4z"/>
		<path class="st13" d="M277.5,46.3l-0.2,0.1l11.1,12c0.1-0.1,0.2-0.1,0.2-0.2L277.5,46.3z"/>
		<polygon class="st13" points="277.3,46 272.9,41.3 272.8,41.6 277.1,46.2 		"/>
		<path class="st13" d="M262.3,33.8c-0.1,0.1-0.2,0.1-0.2,0.1l3.9,13.8c0.1-0.1,0.2-0.1,0.2-0.1L262.3,33.8z"/>
		<path class="st13" d="M282.1,25c-0.1-0.1-0.2-0.1-0.2-0.1l-9.2,16.2l0.2,0.2L282.1,25z"/>
		<polygon class="st13" points="269.1,47.9 272.8,41.6 272.6,41.4 268.8,47.8 		"/>
		<polygon class="st13" points="272.8,41.6 272.9,41.3 272.7,41.1 272.6,41.4 		"/>
		<path class="st13" d="M263.4,50.4l0.1-0.2l-12.5-5c-0.1,0.1-0.1,0.2-0.1,0.2L263.4,50.4z"/>
		<path class="st13" d="M248.4,47.5c-0.1,0.1-0.2,0.1-0.2,0.1l4.3,13.3l0.2-0.2L248.4,47.5z"/>
		<path class="st13" d="M254.3,66.2l-1.7-5.2l-0.2,0.2l1.7,5.2C254.1,66.3,254.2,66.3,254.3,66.2z"/>
		<path class="st13" d="M252.4,61.2l-0.1-0.2l-5.6,3.6c0.1,0.1,0.1,0.2,0.1,0.2L252.4,61.2z"/>
		<path class="st13" d="M264.1,53.8c-0.1-0.1-0.1-0.2-0.2-0.2l-11.4,7.2l0.1,0.2L264.1,53.8z"/>
		<polygon class="st13" points="252.6,61 252.6,60.8 252.4,60.9 252.4,61.2 		"/>
		<path class="st13" d="M265.3,54.8c-0.1-0.1-0.2-0.1-0.2-0.2l-7.1,11.7c0.1,0.1,0.2,0.1,0.2,0.2L265.3,54.8z"/>
		<path class="st13" d="M287,60.3c0.1-0.1,0.1-0.2,0.1-0.2l-16.5-6.6c-0.1,0.1-0.1,0.2-0.2,0.2L287,60.3z"/>
		<path class="st13" d="M274.3,76.9c0.1,0.1,0.1,0.2,0.2,0.2l1.7-1.3l-0.3-0.1L274.3,76.9z"/>
		<path class="st13" d="M287.6,66l-11.5,9.6l0.3,0.1l11.4-9.4C287.7,66.1,287.7,66,287.6,66z"/>
		<polygon class="st13" points="276.4,75.6 276.1,75.8 283.8,77.8 283.9,77.6 		"/>
		<path class="st13" d="M259.7,71.3c-0.1,0.1-0.1,0.2-0.1,0.2l11.1,2.9l-0.1-0.3L259.7,71.3z"/>
		<polygon class="st13" points="271,74.5 275.8,75.7 276.1,75.6 270.9,74.2 		"/>
		<path class="st13" d="M284.3,77.6l-0.2,0.2l10.4,2.7c0.1-0.1,0.1-0.2,0.1-0.2L284.3,77.6z"/>
		<polygon class="st13" points="270.9,74.2 270.6,74.1 270.7,74.4 271,74.5 		"/>
		<polygon class="st13" points="276.1,75.6 275.8,75.7 276.1,75.8 276.4,75.6 		"/>
		<polygon class="st13" points="289.9,68.1 283.9,77.6 284.3,77.6 290.1,68.2 		"/>
		<path class="st13" d="M272.2,96c0.1,0.1,0.2,0.1,0.2,0.2l11.6-18.2l-0.2-0.1L272.2,96z"/>
		<polygon class="st13" points="283.9,77.6 283.8,77.8 284.1,77.9 284.3,77.6 		"/>
		<path class="st13" d="M271.1,83.5c-0.1,0-0.2,0-0.2-0.1l-1.2,11.7c0.1,0,0.2,0,0.2,0.1L271.1,83.5z"/>
		<path class="st13" d="M254,87.4c0.1,0.1,0.1,0.2,0.1,0.2l13.8-6.3c-0.1-0.1-0.1-0.2-0.1-0.2L254,87.4z"/>
		<path class="st13" d="M252,69.6l-5.2-0.5c-0.1,0.1-0.1,0.2-0.1,0.2l5.4,0.5c0-0.1,0-0.1,0-0.1C252,69.8,252,69.7,252,69.6z"/>
		<path class="st13" d="M274,97.7c0.1,0.1,0.1,0.2,0.2,0.2l20.7-14.2c-0.1-0.1-0.1-0.2-0.1-0.2L274,97.7z"/>
		<path class="st13" d="M275.1,100.9c0,0.1,0,0.2,0,0.2v0.1"/>
		<path class="st13" d="M295.3,100.9c0-0.1,0-0.2,0-0.2v-0.1"/>
		<path class="st13" d="M277.1,46.2l-6.5,3.1c0.1,0.1,0.1,0.2,0.2,0.2l6.6-3.1L277.1,46.2z"/>
		<polygon class="st13" points="287.4,41.6 287.4,41.3 277.3,46 277.5,46.3 		"/>
		<path class="st13" d="M287.7,41.4l0.5-0.2c-0.1-0.1-0.1-0.2-0.2-0.2l-0.4,0.2L287.7,41.4z"/>
		<polygon class="st13" points="277.3,46 277.1,46.2 277.3,46.4 277.5,46.3 		"/>
		<path class="st13" d="M287.6,41.2L284,25.4c-0.1,0-0.2,0-0.2,0l0,0l3.7,15.9L287.6,41.2z"/>
		<path class="st13" d="M291,56.9c0.1-0.1,0.2-0.1,0.2-0.1l-3.5-15.3l-0.2,0.1L291,56.9z"/>
		<polygon class="st13" points="287.7,41.4 287.6,41.2 287.4,41.3 287.4,41.6 		"/>
		<path class="st13" d="M290.2,35.5c0.1-0.1,0.2-0.1,0.2-0.1L285.6,25c-0.1,0.1-0.2,0.1-0.2,0.1L290.2,35.5z"/>
		<path class="st13" d="M292.3,56.7c0.1,0,0.1,0,0.2,0s0.1,0,0.1,0l-0.2-13.6c-0.1,0.1-0.2,0.1-0.2,0.1L292.3,56.7z"/>
		<path class="st13" d="M303.5,33.1c-0.1-0.1-0.2-0.1-0.2-0.1l-3.8,10.3l0.2,0.1L303.5,33.1z"/>
		<path class="st13" d="M294.7,57.1l4.9-13.4l-0.2-0.1l-5,13.5C294.5,57,294.6,57.1,294.7,57.1z"/>
		<path class="st13" d="M296.8,78.1c0.1-0.1,0.2-0.1,0.2-0.1l-2.7-9.8c-0.1,0.1-0.2,0.1-0.2,0.1L296.8,78.1z"/>
		<path class="st13" d="M308.6,48.5c0.1-0.1,0.1-0.2,0.1-0.2l-9-4.9l-0.1,0.2L308.6,48.5z"/>
		<path class="st13" d="M299.4,43.6l0.1-0.2l-4.4-2.3c-0.1,0.1-0.1,0.2-0.1,0.2L299.4,43.6z"/>
		<polygon class="st13" points="299.6,43.7 299.8,43.4 299.5,43.3 299.4,43.6 		"/>
		<path class="st14" d="M265.4,54.6l-0.2-0.2v0.1C265.3,54.5,265.3,54.6,265.4,54.6L265.4,54.6z"/>
		<path class="st14" d="M267.5,55.1c0.1,0,0.2,0,0.2-0.1l0,0L267.5,55.1z"/>
		<path class="st15" d="M270.5,53.7l-0.1-0.1c-0.6,0.8-1.5,1.4-2.5,1.5l0.1,0.2C268.9,55.2,269.9,54.6,270.5,53.7z"/>
		<path class="st15" d="M265,54.7l0.1-0.1c-0.4-0.2-0.6-0.5-0.9-0.9l-0.1,0.1C264.4,54.1,264.7,54.4,265,54.7z"/>
		<path class="st15" d="M267.6,55.4l-0.1-0.2c-0.1,0-0.2,0-0.2,0c-0.7,0-1.4-0.2-2-0.5l-0.1,0.1c0.6,0.4,1.3,0.6,2,0.6
			C267.4,55.4,267.5,55.4,267.6,55.4z"/>
		<path class="st15" d="M266.3,47.7L266.3,47.7c-0.1,0-0.2,0-0.2,0.1v0.1L266.3,47.7z"/>
		<path class="st15" d="M264.2,53.7c-0.1-0.1-0.1-0.2-0.2-0.2l-0.1,0.1c0.1,0.1,0.1,0.2,0.2,0.2L264.2,53.7z"/>
		<path class="st15" d="M265.3,54.7c-0.1-0.1-0.2-0.1-0.2-0.2l-0.1,0.1c0.1,0.1,0.2,0.1,0.2,0.2L265.3,54.7z"/>
		<path class="st15" d="M267.6,55.4c0.1,0,0.2-0.1,0.2-0.1l-0.1-0.2c-0.1,0-0.2,0.1-0.2,0.1L267.6,55.4z"/>
		<path class="st15" d="M270.5,53.7c0.1-0.1,0.1-0.2,0.2-0.2l-0.1-0.1c-0.1,0.1-0.1,0.2-0.2,0.2L270.5,53.7z"/>
		<path class="st15" d="M270.5,49.3l0.1,0.2l0.1-0.1C270.7,49.4,270.6,49.3,270.5,49.3L270.5,49.3z"/>
		<path class="st15" d="M267.5,55.2l-0.1-0.2l0,0c-0.1,0-0.2,0-0.2,0c-0.7,0-1.3-0.2-1.9-0.5l-0.1,0.1c0.6,0.4,1.3,0.5,2,0.5
			C267.4,55.2,267.5,55.2,267.5,55.2z"/>
		<path class="st15" d="M270.7,49.4L270.7,49.4l-0.2-0.2l0.1-0.1c-0.7-1.1-1.9-1.8-3.3-1.8c-0.4,0-0.7,0.1-1,0.2v0.1l-0.2,0.1v-0.1
			c-1.6,0.5-2.7,2-2.7,3.7c0,0.8,0.2,1.5,0.6,2.1l0.1-0.1c-0.4-0.6-0.6-1.3-0.6-2.1l0,0c0,0.7,0.2,1.5,0.6,2.1l0.1-0.1l0.2,0.2
			l-0.1,0.1c0.2,0.4,0.5,0.6,0.9,0.9l0.1-0.1c-0.9-0.7-1.6-1.8-1.6-3c0-2.1,1.7-3.7,3.7-3.7s3.7,1.7,3.7,3.7c0,1.9-1.4,3.4-3.2,3.6
			l0.1,0.2c1-0.2,1.9-0.7,2.5-1.5l-0.1-0.1l0.1-0.2l0.1,0.1c0.1-0.2,0.2-0.3,0.2-0.5c-0.1,0.2-0.2,0.3-0.2,0.5l0.1,0.1
			c0.4-0.6,0.6-1.3,0.6-2.1C271.3,50.7,271,50.1,270.7,49.4z M271.1,51.6c0-0.1,0-0.2,0-0.2l0,0C271.1,51.5,271.1,51.6,271.1,51.6z"
			/>
		<path class="st15" d="M264.1,53.4l-0.1,0.1c0.1,0.1,0.1,0.2,0.2,0.2l0.1-0.1L264.1,53.4z"/>
		<path class="st15" d="M265.4,54.6c-0.1-0.1-0.2-0.1-0.2-0.2l-0.1,0.1c0.1,0.1,0.2,0.1,0.2,0.2L265.4,54.6z"/>
		<path class="st15" d="M267.5,55.1l0.1,0.2c0.1,0,0.2,0,0.2-0.1l-0.1-0.2C267.7,55.1,267.6,55.1,267.5,55.1L267.5,55.1z"/>
		<path class="st15" d="M270.3,53.7L270.3,53.7c0.1,0,0.2-0.1,0.2-0.2l-0.1-0.1L270.3,53.7z"/>
		<path class="st14" d="M288.3,40.9c0.1,0.1,0.1,0.1,0.1,0.1L288.3,40.9L288.3,40.9z"/>
		<path class="st15" d="M291.6,43.2c0.2,0,0.4-0.1,0.6-0.1V43c-0.2,0.1-0.4,0.1-0.6,0.1c-1.4,0-2.6-0.7-3.2-1.9l-0.1,0.1
			C288.9,42.4,290.1,43.2,291.6,43.2z"/>
		<path class="st15" d="M290.2,35.6L290.2,35.6c-1.6,0.5-2.7,2-2.7,3.7c0,0.7,0.2,1.3,0.4,1.8l0.1-0.1c-0.2-0.5-0.4-1.1-0.4-1.7
			c0-2.1,1.7-3.8,3.8-3.8c2.2,0,3.8,1.7,3.8,3.8c0,1.9-1.3,3.4-3.1,3.7h0.1v0.1c1.1-0.2,2-1,2.5-1.9l-0.1-0.1l0.1-0.2l0.1,0.1
			c0.2-0.5,0.4-1.1,0.4-1.7c0-2.2-1.8-4-4-4c-0.4,0-0.7,0.1-1,0.2v0.1L290.2,35.6L290.2,35.6z"/>
		<path class="st15" d="M288.3,41.2c-0.1-0.1-0.1-0.2-0.2-0.2L288,41c0.1,0.1,0.1,0.2,0.2,0.2L288.3,41.2z"/>
		<path class="st15" d="M292.2,43.2c0.1,0,0.2-0.1,0.2-0.1V43h-0.1c-0.1,0-0.1,0.1-0.2,0.1L292.2,43.2L292.2,43.2z"/>
		<path class="st15" d="M294.9,41.2L294.9,41.2c0.1,0,0.1-0.1,0.2-0.2l-0.1-0.1L294.9,41.2z"/>
		<path class="st15" d="M287.9,39.2c0-2.1,1.7-3.7,3.7-3.7s3.7,1.7,3.7,3.7c0,2-1.7,3.7-3.7,3.7c-1.4,0-2.6-0.8-3.2-1.9l0.1,0.2
			l-0.1,0.1c0.7,1.1,1.9,1.9,3.2,1.9c0.2,0,0.4-0.1,0.6-0.1V43h0.2c1.7-0.4,3.1-1.9,3.1-3.7c0-2.1-1.7-3.8-3.8-3.8
			c-2.2,0-3.8,1.7-3.8,3.8c0,0.6,0.2,1.2,0.4,1.7l0.1-0.1C288,40.4,287.9,39.8,287.9,39.2z"/>
		<path class="st15" d="M288.4,41.2l-0.1-0.2c-0.1-0.1-0.1-0.1-0.1-0.1l-0.1,0.1C288.2,41,288.2,41.1,288.4,41.2L288.4,41.2
			L288.4,41.2z"/>
		<path class="st15" d="M292.2,43c0.1,0,0.1,0,0.2-0.1L292.2,43L292.2,43z"/>
		<path class="st14" d="M282.2,24.8l-0.2-0.2v0.1C282.1,24.8,282.1,24.8,282.2,24.8L282.2,24.8z"/>
		<path class="st15" d="M283.7,17.7c1.9,0,3.5,1.5,3.8,3.4c0.1,0,0.1,0,0.2,0c-0.2-2-1.9-3.5-4-3.5c-2,0-3.6,1.5-3.9,3.4
			c0.1,0,0.1,0,0.2,0C280.2,19.1,281.8,17.7,283.7,17.7z"/>
		<path class="st15" d="M281.8,24.9l0.1-0.1c-1.2-0.7-2-1.9-2-3.4c0-0.1,0-0.2,0-0.2c-0.1,0-0.1,0-0.1,0c0,0.1,0,0.2,0,0.2
			C279.8,23,280.6,24.3,281.8,24.9z"/>
		<path class="st15" d="M283.7,25.4L283.7,25.4l0.2-0.1l0.1,0.1c0.5-0.1,1-0.2,1.5-0.4l-0.1-0.1c-0.5,0.2-1,0.4-1.6,0.4
			c-0.5,0-1.1-0.1-1.6-0.4l-0.1,0.1C282.6,25.3,283.2,25.4,283.7,25.4z"/>
		<path class="st15" d="M285.6,24.8l0.1,0.1c1.2-0.7,2-2,2-3.4c0-0.1,0-0.1,0-0.2c-0.1,0-0.1,0-0.2,0c0,0.1,0,0.2,0,0.2
			C287.6,22.9,286.8,24.2,285.6,24.8z"/>
		<path class="st15" d="M287.6,21.3c0.1,0,0.1,0,0.2,0c0-0.1,0-0.2-0.1-0.2c-0.1,0-0.1,0-0.2,0C287.5,21.1,287.5,21.1,287.6,21.3z"
			/>
		<path class="st15" d="M279.9,21.2c0-0.1,0-0.2,0.1-0.2c-0.1,0-0.1,0-0.2,0c0,0.1-0.1,0.2-0.1,0.2
			C279.8,21.2,279.9,21.2,279.9,21.2z"/>
		<path class="st15" d="M282.1,24.9c-0.1-0.1-0.2-0.1-0.2-0.1l-0.1,0.1c0.1,0.1,0.2,0.1,0.2,0.1L282.1,24.9z"/>
		<path class="st15" d="M284,25.4l-0.1-0.1l-0.2,0.1v0.1l0,0C283.8,25.4,283.9,25.4,284,25.4z"/>
		<path class="st15" d="M285.6,24.9l-0.1-0.1c-0.1,0.1-0.2,0.1-0.2,0.1l0.1,0.1C285.5,25,285.6,24.9,285.6,24.9z"/>
		<path class="st15" d="M283.7,17.8c1.9,0,3.4,1.4,3.6,3.2c0.1,0,0.1,0,0.2,0c-0.2-1.9-1.9-3.4-3.8-3.4c-1.9,0-3.5,1.5-3.8,3.3
			c0.1,0,0.1,0,0.2,0C280.4,19.1,281.8,17.8,283.7,17.8z"/>
		<path class="st15" d="M281.9,24.8l0.1-0.1c-1.1-0.6-1.9-1.9-1.9-3.2c0-0.1,0-0.2,0-0.3c-0.1,0-0.1,0-0.2,0c0,0.1,0,0.2,0,0.2
			C279.9,22.9,280.7,24.2,281.9,24.8z"/>
		<path class="st15" d="M287.4,21.5c0,2.1-1.7,3.7-3.7,3.7c-0.5,0-1-0.1-1.5-0.3l-0.1,0.1c0.5,0.2,1,0.4,1.6,0.4s1.1-0.2,1.6-0.4
			l-0.1-0.1l0.2-0.1l0.1,0.1c1.1-0.7,1.9-1.9,1.9-3.3c0-0.1,0-0.2,0-0.2c-0.1,0-0.1,0-0.2,0C287.4,21.3,287.4,21.4,287.4,21.5z"/>
		<path class="st15" d="M280.1,20.9c-0.1,0-0.1,0-0.2,0c0,0.1-0.1,0.2-0.1,0.2c0.1,0,0.1,0,0.2,0C280,21.1,280,21,280.1,20.9z"/>
		<path class="st15" d="M287.4,21.3c0.1,0,0.1,0,0.2,0c0-0.1,0-0.2-0.1-0.2c-0.1,0-0.1,0-0.2,0C287.4,21.1,287.4,21.1,287.4,21.3z"
			/>
		<path class="st15" d="M282.2,24.8c-0.1-0.1-0.2-0.1-0.2-0.1l-0.1,0.1c0.1,0.1,0.2,0.1,0.2,0.1L282.2,24.8z"/>
		<path class="st15" d="M285.5,24.7l-0.2,0.1l0.1,0.1c0.1-0.1,0.2-0.1,0.2-0.1L285.5,24.7z"/>
		<path class="st15" d="M317.3,44.5c0,0.9,0.3,1.8,0.9,2.5l0.1-0.1c-0.5-0.7-0.9-1.5-0.9-2.4c0-1.3,0.7-2.5,1.7-3.2
			c-0.1-0.1-0.1-0.1-0.1-0.1C318,41.9,317.3,43.1,317.3,44.5z"/>
		<path class="st15" d="M321.2,40.7c2.1,0,3.8,1.7,3.8,3.8c0,1.6-1,2.9-2.3,3.5c0,0.1,0.1,0.1,0.1,0.1c1.5-0.6,2.4-2,2.4-3.7
			c0-2.2-1.8-4-4-4c-0.7,0-1.4,0.2-1.9,0.5c0.1,0.1,0.1,0.1,0.1,0.1C319.9,40.8,320.5,40.7,321.2,40.7z"/>
		<path class="st15" d="M318.3,47l0.1,0.1l-0.1,0.1c0.7,0.8,1.8,1.3,2.9,1.3c0.4,0,0.9-0.1,1.3-0.2c0-0.1-0.1-0.1-0.1-0.1
			c-0.4,0.1-0.8,0.2-1.2,0.2C320.1,48.3,319.1,47.8,318.3,47z"/>
		<path class="st15" d="M322.5,48.1c0,0.1,0.1,0.1,0.1,0.1c0.1-0.1,0.2-0.1,0.2-0.1c0-0.1-0.1-0.1-0.1-0.1
			C322.6,48.1,322.5,48.1,322.5,48.1z"/>
		<path class="st15" d="M319.1,41.3c0.1-0.1,0.2-0.1,0.2-0.2c-0.1-0.1-0.1-0.1-0.1-0.1c-0.1,0.1-0.2,0.1-0.2,0.2
			C319.1,41.2,319.1,41.3,319.1,41.3z"/>
		<path class="st15" d="M317.3,44.5c0,0.9,0.3,1.7,0.9,2.4h0.1l0.1,0.1c0.7,0.8,1.7,1.3,2.9,1.3c0.4,0,0.8-0.1,1.2-0.2
			c0-0.1-0.1-0.1-0.1-0.1c-0.4,0.1-0.7,0.2-1.1,0.2c-2.1,0-3.7-1.7-3.7-3.7c0-1.3,0.7-2.4,1.7-3.1c-0.1-0.1-0.1-0.1-0.1-0.1
			C318.1,42,317.3,43.2,317.3,44.5z"/>
		<path class="st15" d="M321.2,40.8c2.1,0,3.7,1.7,3.7,3.7c0,1.6-0.9,2.9-2.3,3.4c0,0.1,0.1,0.1,0.1,0.1c1.4-0.6,2.3-1.9,2.3-3.5
			c0-2.1-1.7-3.8-3.8-3.8c-0.7,0-1.3,0.2-1.9,0.5c0.1,0.1,0.1,0.1,0.1,0.1C320,41,320.5,40.8,321.2,40.8z"/>
		<path class="st15" d="M319.4,41.3c-0.1-0.1-0.1-0.1-0.1-0.1c-0.1,0.1-0.2,0.1-0.2,0.2c0.1,0.1,0.1,0.1,0.1,0.1
			C319.3,41.4,319.4,41.3,319.4,41.3z"/>
		<path class="st15" d="M322.3,47.9c0,0.1,0.1,0.1,0.1,0.1c0.1-0.1,0.2-0.1,0.2-0.1c0-0.1-0.1-0.1-0.1-0.1
			C322.6,47.9,322.5,47.9,322.3,47.9z"/>
		<path class="st15" d="M248.1,47.7l-0.1-0.1c-0.2,0.1-0.4,0.1-0.6,0.1c-1,0-1.9-0.4-2.6-1c0,0.1-0.1,0.1-0.1,0.1
			c0.7,0.6,1.6,1,2.7,1C247.6,47.7,247.8,47.7,248.1,47.7z"/>
		<path class="st15" d="M248.3,47.4l0.1,0.1c1.1-0.3,2.1-1.1,2.7-2.2l-0.1-0.1C250.4,46.4,249.4,47.2,248.3,47.4z"/>
		<path class="st15" d="M244.7,46.7c0-0.1,0.1-0.1,0.1-0.1c-0.1-0.1-0.2-0.2-0.2-0.2c0,0.1-0.1,0.1-0.1,0.2
			C244.6,46.5,244.7,46.6,244.7,46.7z"/>
		<path class="st15" d="M251,45.4c0.1-0.1,0.1-0.2,0.1-0.2L251,45c-0.1,0.1-0.1,0.2-0.1,0.2L251,45.4z"/>
		<path class="st15" d="M248.3,47.4c-0.1,0.1-0.2,0.1-0.2,0.1l0.1,0.1c0.1,0,0.2-0.1,0.2-0.1L248.3,47.4z"/>
		<path class="st15" d="M248,47.5l-0.1-0.1c-0.2,0.1-0.4,0.1-0.6,0.1c-1,0-1.9-0.4-2.5-1c0,0.1-0.1,0.1-0.1,0.2c0.7,0.6,1.6,1,2.6,1
			C247.6,47.5,247.8,47.5,248,47.5z"/>
		<path class="st15" d="M250.8,45.4l-0.1-0.1c-0.5,1-1.4,1.7-2.5,2l0.1,0.1C249.4,47.2,250.4,46.4,250.8,45.4z"/>
		<path class="st15" d="M244.7,46.2c0,0.1-0.1,0.1-0.1,0.2c0.1,0.1,0.2,0.2,0.2,0.2c0-0.1,0.1-0.1,0.1-0.2
			C244.8,46.3,244.7,46.2,244.7,46.2z"/>
		<path class="st15" d="M250.8,45.4c0.1-0.1,0.1-0.2,0.1-0.2l-0.1-0.1c-0.1,0.1-0.1,0.2-0.1,0.2L250.8,45.4z"/>
		<path class="st15" d="M248.3,47.3c-0.1,0.1-0.2,0.1-0.2,0.1l0.1,0.1c0.1,0,0.2-0.1,0.2-0.1L248.3,47.3z"/>
		<path class="st14" d="M274,77.1l0.2,0.2l0.1-0.1c-0.1-0.1-0.1-0.2-0.2-0.2L274,77.1z"/>
		<path class="st14" d="M268.3,80.8L268,81c0.1,0.1,0.1,0.2,0.1,0.2l0.4-0.2L268.3,80.8z"/>
		<path class="st15" d="M267.9,81.3l-0.1,0.1c0.6,1.1,1.7,1.9,3,2.1v-0.2C269.6,83.2,268.5,82.4,267.9,81.3z"/>
		<path class="st15" d="M275.2,79.5c0-0.9-0.3-1.7-0.8-2.3l-0.1,0.1c0.5,0.6,0.7,1.4,0.7,2.2c0,2.1-1.7,3.8-3.8,3.8
			c-0.1,0-0.1,0-0.2,0v0.2c0.1,0,0.2,0,0.2,0C273.5,83.5,275.2,81.7,275.2,79.5z"/>
		<path class="st15" d="M271.3,75.6c-0.1,0-0.1,0-0.2,0l0.1,0.2c0.1,0,0.1,0,0.2,0c1.1,0,2.2,0.5,2.9,1.3l0.1-0.1
			C273.6,76.1,272.5,75.6,271.3,75.6z"/>
		<path class="st15" d="M270.9,75.7l-0.1-0.2c-2,0.2-3.5,1.9-3.5,4c0,0.6,0.1,1.1,0.4,1.6l0.1-0.1c-0.2-0.5-0.3-1-0.3-1.6
			C267.5,77.6,269,75.9,270.9,75.7z"/>
		<path class="st15" d="M270.8,75.6l0.1,0.2c0.1,0,0.2,0,0.2,0l-0.1-0.2C271,75.6,271,75.6,270.8,75.6z"/>
		<path class="st15" d="M274.2,77c0.1,0.1,0.1,0.2,0.2,0.2l0.1-0.1c-0.1-0.1-0.1-0.2-0.2-0.2L274.2,77z"/>
		<path class="st15" d="M271.1,83.3c-0.1,0-0.2,0-0.2-0.1v0.2c0.1,0,0.2,0,0.2,0.1V83.3z"/>
		<path class="st15" d="M267.8,81l-0.1,0.1c0.1,0.1,0.1,0.2,0.1,0.2l0.1-0.1C267.9,81.2,267.9,81.1,267.8,81z"/>
		<path class="st15" d="M267.6,79.5c0-2.1,1.7-3.7,3.7-3.7c1.1,0,2.1,0.5,2.8,1.3l0.1-0.1c-0.7-0.8-1.7-1.3-2.9-1.3
			c-0.1,0-0.1,0-0.2,0v0.1l-0.2,0.1v-0.1c-1.9,0.2-3.4,1.8-3.4,3.8c0,0.5,0.1,1.1,0.3,1.6l0.1-0.1C267.7,80.5,267.6,80,267.6,79.5z"
			/>
		<path class="st15" d="M275.2,79.5c0-0.9-0.2-1.6-0.7-2.2l-0.2,0.1c0.5,0.6,0.7,1.3,0.7,2.2c0,2.1-1.7,3.7-3.7,3.7
			c-0.1,0-0.1,0-0.2,0v0.2c0.1,0,0.1,0,0.2,0C273.4,83.4,275.2,81.6,275.2,79.5z"/>
		<path class="st15" d="M268.1,81.2l-0.1,0.1c0.6,1.1,1.7,1.9,2.9,2v-0.2C269.6,83,268.6,82.3,268.1,81.2z"/>
		<path class="st15" d="M270.9,75.8l0.2-0.1v-0.1c-0.1,0-0.2,0-0.2,0V75.8z"/>
		<path class="st15" d="M274.1,77.1c0.1,0.1,0.1,0.2,0.2,0.2l0.1-0.1c-0.1-0.1-0.1-0.2-0.2-0.2L274.1,77.1z"/>
		<path class="st15" d="M270.8,83.2v0.2c0.1,0,0.2,0,0.2,0.1v-0.2C271,83.2,270.9,83.2,270.8,83.2z"/>
		<path class="st15" d="M268,81l-0.1,0.1c0.1,0.1,0.1,0.2,0.1,0.2l0.1-0.1C268,81.1,268,81.1,268,81z"/>
		<path class="st14" d="M294.9,83.3c0.1,0.1,0.1,0.2,0.1,0.2l0.1-0.1L294.9,83.3z"/>
		<path class="st15" d="M294.6,80.6l-0.1-0.1c-0.1,0.4-0.2,0.8-0.2,1.2c0,0.6,0.2,1.1,0.4,1.7l0.1-0.1c-0.2-0.5-0.4-1-0.4-1.6
			C294.5,81.4,294.5,81,294.6,80.6z"/>
		<path class="st15" d="M296.8,78.1c-1,0.4-1.8,1.2-2.2,2.2l0.1,0.1c0.4-1,1.1-1.7,2.1-2.1l0,0L296.8,78.1L296.8,78.1z"/>
		<path class="st15" d="M298.2,77.8c-0.4,0-0.8,0.1-1.2,0.2l0.1,0.1c0.4-0.1,0.7-0.2,1.1-0.2c1.3,0,2.3,0.6,3.1,1.6l-0.1-0.1
			l0.1-0.1C300.7,78.4,299.5,77.8,298.2,77.8z"/>
		<path class="st15" d="M302.1,81.8c0,2.1-1.7,3.8-3.8,3.8c-1.5,0-2.7-0.8-3.4-2l-0.1,0.1c0.7,1.3,2,2.1,3.5,2.1c2.2,0,4-1.8,4-4
			c0-0.8-0.2-1.6-0.7-2.2l-0.1,0.1C301.9,80.2,302.1,81,302.1,81.8z"/>
		<path class="st15" d="M294.5,80.6l0.1,0.1c0.1-0.1,0.1-0.2,0.1-0.2l-0.1-0.1C294.6,80.4,294.5,80.5,294.5,80.6z"/>
		<path class="st15" d="M294.8,83.4l-0.1,0.1c0.1,0.1,0.1,0.2,0.1,0.2l0.1-0.1C294.9,83.5,294.8,83.5,294.8,83.4z"/>
		<path class="st15" d="M296.9,78.2L296.9,78.2c0.1-0.1,0.2-0.1,0.2-0.1l-0.1-0.1C297,78.1,296.9,78.1,296.9,78.2L296.9,78.2z"/>
		<path class="st15" d="M294.9,83.3c-0.2-0.5-0.4-1-0.4-1.5c0-0.4,0.1-0.8,0.2-1.1l-0.1-0.1c-0.1,0.4-0.2,0.8-0.2,1.1
			c0,0.6,0.1,1.1,0.4,1.6L294.9,83.3L294.9,83.3z"/>
		<path class="st15" d="M298.2,78c-0.4,0-0.8,0.1-1.1,0.2v0.1l-0.2,0.1c-1,0.4-1.7,1.1-2.1,2.1l0.1,0.1c0.5-1.3,1.9-2.3,3.4-2.3
			c2.1,0,3.7,1.7,3.7,3.7c0,2-1.7,3.7-3.7,3.7c-1.4,0-2.7-0.8-3.2-1.9l-0.1,0.1c0.7,1.2,1.9,2,3.4,2c2.1,0,3.8-1.7,3.8-3.8
			c0-0.8-0.2-1.6-0.7-2.2l0,0l-0.1-0.1C300.7,78.5,299.5,78,298.2,78z"/>
		<path class="st15" d="M294.8,80.6c0.1-0.1,0.1-0.2,0.1-0.2l-0.1-0.1c-0.1,0.1-0.1,0.2-0.1,0.2L294.8,80.6z"/>
		<path class="st15" d="M294.9,83.3L294.9,83.3l-0.1,0.1c0.1,0.1,0.1,0.2,0.1,0.2l0.1-0.1C295,83.5,294.9,83.4,294.9,83.3z"/>
		<path class="st15" d="M297.1,78.2L297.1,78.2c-0.1,0-0.2,0.1-0.2,0.1L297.1,78.2z"/>
		<path class="st15" d="M251.1,84.6l0.1-0.1c-0.3-0.1-0.7-0.2-1-0.2c-0.9,0-1.7,0.3-2.3,0.8c0.1,0.1,0.1,0.1,0.1,0.1
			c0.6-0.5,1.5-0.8,2.3-0.8C250.5,84.5,250.8,84.5,251.1,84.6z"/>
		<path class="st15" d="M250.2,92.1c-2.1,0-3.8-1.7-3.8-3.8c0-1.1,0.5-2.2,1.3-2.9c-0.1-0.1-0.1-0.1-0.1-0.1c-0.9,0.7-1.4,1.8-1.4,3
			c0,2.2,1.8,4,4,4c0.9,0,1.6-0.2,2.2-0.7c-0.1-0.1-0.1-0.1-0.1-0.1C251.7,91.8,251,92.1,250.2,92.1z"/>
		<path class="st15" d="M251.4,84.5l-0.1,0.1c1.3,0.4,2.2,1.5,2.5,2.8l0.1-0.1C253.7,86.1,252.7,85,251.4,84.5z"/>
		<path class="st15" d="M254.1,88.3c0-0.2-0.1-0.4-0.1-0.6l-0.1,0.1c0.1,0.2,0.1,0.4,0.1,0.6c0,1.2-0.6,2.3-1.5,2.9
			c0.1,0.1,0.1,0.1,0.1,0.1C253.5,90.6,254.1,89.5,254.1,88.3z"/>
		<path class="st15" d="M252.6,91.3c-0.1,0.1-0.2,0.1-0.2,0.2c0.1,0.1,0.1,0.1,0.1,0.1c0.1-0.1,0.2-0.1,0.2-0.2
			C252.6,91.3,252.6,91.3,252.6,91.3z"/>
		<path class="st15" d="M248,85.2c-0.1-0.1-0.1-0.1-0.1-0.1c-0.1,0.1-0.2,0.1-0.2,0.2c0.1,0.1,0.1,0.1,0.1,0.1
			C247.8,85.3,247.8,85.3,248,85.2z"/>
		<path class="st15" d="M253.9,87.4c0,0.1,0.1,0.2,0.1,0.2l0.1-0.1c0-0.1-0.1-0.2-0.1-0.2L253.9,87.4z"/>
		<path class="st15" d="M251.4,84.7l-0.1,0.1c1.2,0.4,2.1,1.5,2.4,2.7l0.1-0.1C253.6,86.1,252.7,85.1,251.4,84.7z"/>
		<path class="st15" d="M250.2,91.9c-2.1,0-3.7-1.7-3.7-3.7c0-1.1,0.5-2.1,1.3-2.8c-0.1-0.1-0.1-0.1-0.1-0.1
			c-0.8,0.7-1.3,1.7-1.3,2.9c0,2.1,1.7,3.8,3.8,3.8c0.8,0,1.6-0.2,2.2-0.7c-0.1-0.1-0.1-0.1-0.1-0.1C251.7,91.7,251,91.9,250.2,91.9
			z"/>
		<path class="st15" d="M253.9,88.3c0-0.2,0-0.4-0.1-0.6l-0.1,0.1c0.1,0.2,0.1,0.4,0.1,0.5c0,1.1-0.5,2.2-1.4,2.9
			c0.1,0.1,0.1,0.1,0.1,0.1C253.4,90.6,253.9,89.5,253.9,88.3z"/>
		<path class="st15" d="M250.2,84.6c0.3,0,0.7,0.1,0.9,0.1l0.1-0.1c-0.3-0.1-0.6-0.1-1-0.1c-0.9,0-1.6,0.2-2.3,0.8
			c0.1,0.1,0.1,0.1,0.1,0.1C248.6,84.9,249.3,84.6,250.2,84.6z"/>
		<path class="st15" d="M252.2,91.3c0.1,0.1,0.1,0.1,0.1,0.1c0.1-0.1,0.2-0.1,0.2-0.2c-0.1-0.1-0.1-0.1-0.1-0.1
			C252.4,91.2,252.4,91.3,252.2,91.3z"/>
		<path class="st15" d="M248,85.3c-0.1-0.1-0.1-0.1-0.1-0.1c-0.1,0.1-0.2,0.1-0.2,0.2c0.1,0.1,0.1,0.1,0.1,0.1
			C247.8,85.4,248,85.4,248,85.3z"/>
		<path class="st15" d="M253.8,87.5c0,0.1,0.1,0.2,0.1,0.2l0.1-0.1c0-0.1-0.1-0.2-0.1-0.2L253.8,87.5z"/>
		<path class="st15" d="M265.1,25.2c0.1-0.1,0.1-0.1,0.1-0.1c-0.1-0.1-0.1-0.2-0.2-0.2c-0.1,0.1-0.1,0.1-0.1,0.1
			C265,25,265.1,25.2,265.1,25.2z"/>
		<path class="st15" d="M262.3,33.7c-0.1,0.1-0.2,0.1-0.2,0.1l0.1,0.1c0.1-0.1,0.2-0.1,0.2-0.1L262.3,33.7z"/>
		<path class="st15" d="M265,25.3c0.1-0.1,0.1-0.1,0.1-0.1c-0.1-0.1-0.1-0.2-0.2-0.2c-0.1,0.1-0.1,0.1-0.1,0.1
			C264.9,25.1,265,25.2,265,25.3z"/>
		<path class="st15" d="M262.2,33.6c-0.1,0.1-0.2,0.1-0.2,0.1l0.1,0.1c0.1-0.1,0.2-0.1,0.2-0.1L262.2,33.6z"/>
		<path class="st15" d="M325.4,60.4c0,0.1,0,0.1,0,0.2c2.9,0.2,5.1,2.5,5.1,5.4c0,3-2.4,5.4-5.4,5.4c-0.2,0-0.4,0-0.5-0.1
			c0,0.1-0.1,0.1-0.1,0.2c0.2,0,0.4,0.1,0.5,0.1c3.1,0,5.6-2.5,5.6-5.6C330.6,63,328.3,60.5,325.4,60.4z"/>
		<path class="st15" d="M321.6,61.6c-1.1,0.9-1.8,2.1-2.1,3.5h0.1v0.1c0.2-1.5,1-2.8,2.1-3.6L321.6,61.6L321.6,61.6z"/>
		<path class="st15" d="M321.8,61.5l0.1,0.1c0.9-0.6,2-1,3.1-1h0.1c0-0.1,0-0.1,0-0.2c0,0,0,0-0.1,0
			C323.8,60.4,322.7,60.8,321.8,61.5z"/>
		<path class="st15" d="M319.5,66c0,1,0.2,1.9,0.7,2.8l0.1-0.1c-0.4-0.8-0.7-1.7-0.7-2.7c0-0.2,0-0.4,0.1-0.6h-0.2
			C319.5,65.6,319.5,65.8,319.5,66z"/>
		<path class="st15" d="M320.4,68.8l0.1,0.1l-0.1,0.1c0.9,1.3,2.3,2.3,3.9,2.5c0-0.1,0.1-0.1,0.1-0.2
			C322.7,71.2,321.2,70.1,320.4,68.8z"/>
		<path class="st15" d="M324.3,71.4c0,0.1-0.1,0.1-0.1,0.2c0.1,0,0.2,0.1,0.2,0.1c0-0.1,0.1-0.1,0.1-0.2
			C324.4,71.4,324.4,71.4,324.3,71.4z"/>
		<path class="st15" d="M325,60.5c0.1,0,0.2,0,0.2,0c0-0.1,0-0.1,0-0.2c-0.1,0-0.2,0-0.2,0C325,60.5,325,60.5,325,60.5z"/>
		<path class="st15" d="M330.3,66c0,2.9-2.3,5.3-5.3,5.3c-0.2,0-0.3,0-0.5-0.1c0,0.1,0,0.1-0.1,0.2c0.2,0,0.4,0.1,0.5,0.1
			C328,71.4,330.4,69,330.3,66c0.1-2.9-2.2-5.2-5-5.4c0,0.1,0,0.1,0,0.2C328.1,60.9,330.3,63.2,330.3,66z"/>
		<path class="st15" d="M319.8,66c0-2.9,2.3-5.3,5.3-5.3h0.1c0-0.1,0-0.1,0-0.2H325c-1.1,0-2.2,0.4-3.1,1l0,0l-0.1,0.1
			c-1.1,0.9-1.9,2.1-2.1,3.6v0.2l0,0C319.7,65.6,319.7,65.7,319.8,66c-0.1,1,0.2,1.9,0.7,2.7l0,0l0.1,0.1c0.8,1.4,2.2,2.3,3.9,2.6
			c0-0.1,0.1-0.1,0.1-0.2C321.7,70.8,319.8,68.7,319.8,66z"/>
		<path class="st15" d="M324.3,71.2c0,0.1-0.1,0.1-0.1,0.2c0.1,0,0.2,0.1,0.2,0.1c0-0.1,0-0.1,0.1-0.2
			C324.5,71.3,324.4,71.2,324.3,71.2z"/>
		<path class="st15" d="M325,60.7c0.1,0,0.2,0,0.2,0c0-0.1,0-0.1,0-0.2c-0.1,0-0.2,0-0.2,0C325,60.6,325,60.7,325,60.7z"/>
		<path class="st15" d="M272.2,96c-0.7-0.4-1.5-0.7-2.3-0.8v0.2c0.8,0.1,1.6,0.4,2.3,0.8L272.2,96z"/>
		<path class="st15" d="M272.5,96.1l-0.1,0.1c0.6,0.4,1.1,0.9,1.5,1.5l0.1-0.1C273.5,97,273.1,96.6,272.5,96.1z"/>
		<path class="st15" d="M269.1,106.9c-3.2,0-5.8-2.6-5.8-5.8c0-0.4,0.1-0.7,0.1-1c-0.1-0.1-0.1-0.1-0.1-0.1
			c-0.1,0.4-0.1,0.7-0.1,1.1c0,3.3,2.7,6,6,6c2.2,0,4.1-1.2,5.1-2.9c-0.1,0-0.1,0-0.2-0.1C273.2,105.8,271.3,106.9,269.1,106.9z"/>
		<path class="st15" d="M269.1,95.3c0.2,0,0.3,0,0.5,0.1v-0.2c-0.2,0-0.3-0.1-0.5-0.1c-2.8,0-5.1,1.9-5.8,4.6
			c0.1,0.1,0.1,0.1,0.1,0.1C264.1,97.2,266.4,95.3,269.1,95.3z"/>
		<path class="st15" d="M275,101.1c0,0.9-0.2,1.9-0.7,2.7c0.1,0,0.1,0,0.1,0.1c0.4-0.8,0.7-1.7,0.7-2.7L275,101.1L275,101.1z"/>
		<path class="st15" d="M274.9,100.9h0.1c-0.1-1.1-0.4-2.2-1-3.1l-0.1,0.1C274.6,98.8,274.9,99.8,274.9,100.9z"/>
		<path class="st15" d="M274.3,103.8c-0.1,0.1-0.1,0.2-0.2,0.2c0.1,0,0.1,0,0.2,0.1c0.1-0.1,0.1-0.2,0.1-0.2
			C274.4,103.8,274.4,103.8,274.3,103.8z"/>
		<path class="st15" d="M263.5,99.8c-0.1-0.1-0.1-0.1-0.1-0.1c-0.1,0.1-0.1,0.2-0.1,0.2c0.1,0.1,0.1,0.1,0.1,0.1
			C263.5,99.9,263.5,99.9,263.5,99.8z"/>
		<path class="st15" d="M272.2,96.1c0.1,0.1,0.2,0.1,0.2,0.2l0.1-0.1c-0.1-0.1-0.2-0.1-0.2-0.2L272.2,96.1z"/>
		<path class="st15" d="M269.9,95.2c-0.1,0-0.2,0-0.2-0.1v0.2c0.1,0,0.2,0,0.2,0.1V95.2z"/>
		<path class="st15" d="M273.9,97.7c0.1,0.1,0.1,0.2,0.2,0.2l0.1-0.1c-0.1-0.1-0.1-0.2-0.2-0.2L273.9,97.7z"/>
		<path class="st15" d="M275,101.1L275,101.1l0.1,0.1v-0.1c0-0.1,0-0.2,0-0.2H275C274.9,100.9,275,101,275,101.1z"/>
		<path class="st15" d="M274.8,100.9h0.1c-0.1-1.1-0.4-2.1-0.9-2.9L274,98C274.5,98.8,274.8,99.8,274.8,100.9z"/>
		<path class="st15" d="M274.8,101.1c0,0.9-0.2,1.8-0.7,2.6c0.1,0,0.1,0,0.2,0.1c0.4-0.8,0.7-1.7,0.7-2.7L274.8,101.1L274.8,101.1z"
			/>
		<path class="st15" d="M272.4,96.3l-0.1,0.1c0.5,0.4,1,0.9,1.5,1.4l0.1-0.1C273.5,97.1,273,96.7,272.4,96.3z"/>
		<path class="st15" d="M272.2,96.1c-0.7-0.4-1.5-0.7-2.3-0.8v0.2c0.8,0.1,1.6,0.4,2.2,0.8L272.2,96.1z"/>
		<path class="st15" d="M269.1,95.4c0.2,0,0.3,0,0.4,0.1v-0.2c-0.2,0-0.3-0.1-0.5-0.1c-2.8,0-5,1.9-5.6,4.5c0.1,0.1,0.1,0.1,0.1,0.1
			C264.2,97.3,266.4,95.4,269.1,95.4z"/>
		<path class="st15" d="M269.1,106.8c-3.1,0-5.6-2.5-5.6-5.6c0-0.4,0.1-0.7,0.1-1c-0.1-0.1-0.1-0.1-0.1-0.1c-0.1,0.4-0.1,0.7-0.1,1
			c0,3.2,2.6,5.8,5.8,5.8c2.1,0,4-1.1,5-2.9c-0.1,0-0.1,0-0.2-0.1C273.1,105.6,271.3,106.8,269.1,106.8z"/>
		<path class="st15" d="M263.6,99.8c-0.1-0.1-0.1-0.1-0.1-0.1c-0.1,0.1-0.1,0.2-0.1,0.2c0.1,0.1,0.1,0.1,0.1,0.1
			C263.6,100,263.6,99.9,263.6,99.8z"/>
		<path class="st15" d="M274,104c0.1,0,0.1,0,0.2,0.1c0.1-0.1,0.1-0.2,0.2-0.2c-0.1,0-0.1,0-0.2-0.1
			C274.1,103.8,274.1,103.9,274,104z"/>
		<path class="st15" d="M272.1,96.3c0.1,0.1,0.2,0.1,0.2,0.2l0.1-0.1c-0.1-0.1-0.2-0.1-0.2-0.2L272.1,96.3z"/>
		<path class="st15" d="M269.9,95.3c-0.1,0-0.2,0-0.2-0.1v0.2c0.1,0,0.2,0,0.2,0.1V95.3z"/>
		<path class="st15" d="M273.9,98L274,98c-0.1-0.1-0.1-0.2-0.2-0.2l-0.1,0.1C273.8,97.9,273.9,98,273.9,98z"/>
		<path class="st15" d="M274.9,100.9h-0.1c0,0.1,0,0.2,0,0.2v0.1h0.1v-0.1C275,101,274.9,100.9,274.9,100.9z"/>
		<path class="st13" d="M298.4,62.7c0,0.1,0,0.2,0,0.2l21.1,2.5c0-0.1,0.1-0.2,0.1-0.2L298.4,62.7C298.4,62.6,298.4,62.6,298.4,62.7
			z"/>
		<path class="st13" d="M319.5,65.1c0,0.1-0.1,0.2-0.1,0.2h0.2c0-0.1,0-0.1,0.1-0.2v-0.1L319.5,65.1L319.5,65.1z"/>
		<path class="st13" d="M319.7,65.4v-0.2C319.7,65.3,319.7,65.4,319.7,65.4L319.7,65.4z"/>
		<path class="st13" d="M302.1,83l-0.1,0.2l11.7,2.1c0.1-0.1,0.1-0.2,0.1-0.2L302.1,83z"/>
		<path class="st13" d="M307.3,75.9l0.2,0.2l12.8-7.2c-0.1-0.1-0.1-0.2-0.2-0.2L307.3,75.9z"/>
		<path class="st13" d="M301.4,79.3c0.1,0.1,0.1,0.2,0.2,0.2l5.8-3.2l-0.2-0.2L301.4,79.3z"/>
		<path class="st13" d="M301.3,79.4l0.1,0.1c0.1,0.1,0.1,0.1,0.1,0.1l0.1-0.1C301.4,79.5,301.4,79.4,301.3,79.4L301.3,79.4z"/>
		<path class="st13" d="M301.4,79.6c-0.1-0.1-0.1-0.1-0.1-0.1L301.4,79.6L301.4,79.6z"/>
		<path class="st13" d="M320.4,69l0.1-0.1l-0.1-0.1c-0.1-0.1-0.1-0.1-0.1-0.1l-0.1,0.1C320.3,68.8,320.3,68.9,320.4,69z"/>
		<path class="st13" d="M320.3,68.7L320.3,68.7c0.1,0.1,0.1,0.1,0.1,0.1L320.3,68.7z"/>
		<path class="st13" d="M297.2,59c0.1,0.1,0.1,0.2,0.2,0.2l11.5-6.7c-0.1-0.1-0.1-0.2-0.2-0.2L297.2,59z"/>
		<path class="st13" d="M318.3,47.2c-0.1-0.1-0.1-0.2-0.2-0.2l-2.5,1.5c0.1,0.1,0.1,0.2,0.1,0.2L318.3,47.2z"/>
		<path class="st13" d="M318.4,47.1l-0.1-0.1c-0.1-0.1-0.1-0.1-0.1-0.1l-0.1,0.1C318.2,47,318.3,47.1,318.4,47.1L318.4,47.1z"/>
		<path class="st13" d="M318.3,46.9L318.3,46.9c0,0.1,0.1,0.1,0.1,0.1L318.3,46.9z"/>
		<path class="st15" d="M246.7,69.5h-0.2c-0.8,1.6-2.2,2.8-4,3.2c0,0.1,0.1,0.1,0.1,0.1C244.5,72.4,246,71.2,246.7,69.5z"/>
		<path class="st15" d="M246.6,64.5l0.1-0.1c-0.9-2-2.9-3.4-5.2-3.4c0,0.1,0,0.1,0,0.2C243.7,61.2,245.6,62.6,246.6,64.5z"/>
		<path class="st15" d="M241.3,72.8c-3.2,0-5.8-2.6-5.8-5.8c0-3.2,2.5-5.8,5.7-5.8c0-0.1,0-0.1,0-0.2c-3.2,0.1-5.9,2.7-5.9,6
			c0,3.3,2.7,6,6,6c0.4,0,0.7-0.1,1-0.1c0-0.1-0.1-0.1-0.1-0.1C242,72.8,241.6,72.8,241.3,72.8z"/>
		<path class="st15" d="M246.8,64.7l-0.1,0.1c0.2,0.7,0.4,1.4,0.4,2.2s-0.2,1.6-0.5,2.2h0.2c0.2-0.7,0.4-1.5,0.4-2.2
			C247.3,66.2,247.1,65.4,246.8,64.7z"/>
		<path class="st15" d="M241.3,61.2c0.1,0,0.1,0,0.2,0c0-0.1,0-0.1,0-0.2c-0.1,0-0.1,0-0.2,0c-0.1,0-0.1,0-0.1,0
			C241.3,61,241.3,61,241.3,61.2C241.2,61.2,241.3,61.2,241.3,61.2z"/>
		<path class="st15" d="M242.6,72.6c-0.1,0-0.2,0.1-0.2,0.1c0,0.1,0.1,0.1,0.1,0.1c0.1,0,0.2-0.1,0.2-0.1
			C242.6,72.7,242.6,72.7,242.6,72.6z"/>
		<path class="st15" d="M246.8,64.7c-0.1-0.1-0.1-0.2-0.1-0.2l-0.1,0.1c0.1,0.1,0.1,0.2,0.1,0.2L246.8,64.7z"/>
		<path class="st15" d="M246.7,69.2c-0.1,0.1-0.1,0.2-0.1,0.2h0.2c0.1-0.1,0.1-0.2,0.1-0.2H246.7z"/>
		<path class="st15" d="M246.6,69.5h-0.2c-0.7,1.6-2.2,2.7-3.8,3.1c0,0.1,0.1,0.1,0.1,0.1C244.4,72.3,245.8,71.1,246.6,69.5z"/>
		<path class="st15" d="M246.7,64.8l-0.1,0.1c0.2,0.7,0.4,1.3,0.4,2.1s-0.2,1.6-0.5,2.2h0.2c0.2-0.7,0.5-1.5,0.5-2.2
			S246.9,65.4,246.7,64.8z"/>
		<path class="st15" d="M246.4,64.6l0.1-0.1c-0.9-1.9-2.8-3.3-5.1-3.4c0,0.1,0,0.1,0,0.2C243.7,61.3,245.6,62.7,246.4,64.6z"/>
		<path class="st15" d="M241.3,72.6c-3.1,0-5.6-2.5-5.6-5.6c0-3.1,2.5-5.6,5.6-5.6c0-0.1,0-0.1,0-0.2c-3.2,0.1-5.7,2.7-5.7,5.8
			c0,3.2,2.6,5.8,5.8,5.8c0.4,0,0.7-0.1,1-0.1c0-0.1-0.1-0.1-0.1-0.2C242,72.6,241.6,72.6,241.3,72.6z"/>
		<path class="st15" d="M242.3,72.6c0,0.1,0.1,0.1,0.1,0.2c0.1,0,0.2-0.1,0.2-0.1c0-0.1-0.1-0.1-0.1-0.1
			C242.5,72.5,242.4,72.5,242.3,72.6z"/>
		<path class="st15" d="M241.3,61.3c0.1,0,0.1,0,0.2,0c0-0.1,0-0.1,0-0.2c-0.1,0-0.1,0-0.2,0c-0.1,0-0.1,0-0.1,0c0,0.1,0,0.1,0,0.2
			C241.2,61.3,241.3,61.3,241.3,61.3z"/>
		<path class="st15" d="M246.7,64.8c-0.1-0.1-0.1-0.2-0.1-0.2l-0.1,0.1c0.1,0.1,0.1,0.2,0.1,0.2L246.7,64.8z"/>
		<path class="st15" d="M246.5,69.2c-0.1,0.1-0.1,0.2-0.1,0.2h0.2c0.1-0.1,0.1-0.2,0.1-0.2H246.5z"/>
		<path class="st13" d="M254.4,73.4c-0.1-0.1-0.2-0.1-0.2-0.1l-2.9,11.2c0.1,0.1,0.2,0.1,0.2,0.1L254.4,73.4z"/>
		<path class="st13" d="M251.4,84.5c-0.1-0.1-0.2-0.1-0.2-0.1l-0.1,0.1c0.1,0.1,0.2,0.1,0.2,0.1L251.4,84.5z"/>
		<path class="st13" d="M251.4,84.7c-0.1-0.1-0.2-0.1-0.2-0.1l-0.1,0.1c0.1,0.1,0.2,0.1,0.2,0.1L251.4,84.7z"/>
		<path class="st13" d="M314.8,83.9c0.1-0.1,0.2-0.1,0.2-0.2l-7.5-7.5l-0.2,0.2L314.8,83.9z"/>
		<path class="st13" d="M297.2,66.2l9.9,9.9l0.2-0.2l-9.9-10C297.4,66.1,297.3,66.1,297.2,66.2z"/>
		<polygon class="st13" points="307.1,76.1 307.3,76.3 307.6,76.1 307.3,75.9 		"/>
		<path class="st13" d="M299.6,85.6l-0.2,0.1l1.1,9.2c0.1,0,0.2-0.1,0.2-0.1L299.6,85.6z"/>
		<path class="st13" d="M321.6,61.6c0.1-0.1,0.2-0.1,0.2-0.2l-6.5-8.8c-0.1,0.1-0.1,0.2-0.2,0.2L321.6,61.6z"/>
		<path class="st13" d="M321.6,61.6l0.1,0.1l0.1-0.1c0.1-0.1,0.1-0.1,0.1-0.1l-0.1-0.1C321.7,61.5,321.7,61.6,321.6,61.6z"/>
		<path class="st13" d="M321.9,61.6L321.9,61.6C321.9,61.6,321.9,61.6,321.9,61.6L321.9,61.6z"/>
		<path class="st14" d="M259.2,71.2l-0.1,0.2h0.1c0.1-0.1,0.1-0.2,0.1-0.2H259.2z"/>
		<path class="st14" d="M254.3,72.8l-0.1,0.3c0.1,0.1,0.2,0.1,0.2,0.1l0.1-0.4L254.3,72.8z"/>
		<path class="st15" d="M254.2,66.5l-0.1,0.1l-0.1-0.1c-1.1,0.7-2,1.9-2,3.3h0.1C252.2,68.2,253,67.1,254.2,66.5z"/>
		<path class="st15" d="M259.9,69.8c0-0.2-0.1-0.5-0.1-0.7h-0.1l-0.1-0.2h0.1c-0.2-1-0.9-1.8-1.7-2.3l-0.1,0.1l-0.2-0.2l0.1-0.1
			c-0.6-0.3-1.3-0.5-1.9-0.5c-0.6,0-1.1,0.2-1.7,0.4l0.1,0.1c0.5-0.2,1-0.4,1.7-0.4C258.1,66,259.9,67.6,259.9,69.8
			c-0.1,0.5-0.2,1-0.3,1.4l0.1,0.1C259.9,70.8,259.9,70.3,259.9,69.8z"/>
		<path class="st15" d="M252.2,69.8V70H252c0.1,1.5,0.9,2.8,2.1,3.4l0.1-0.1C253,72.5,252.2,71.3,252.2,69.8z"/>
		<path class="st15" d="M259.6,71.5l-0.1-0.1c-0.6,1.3-1.9,2.2-3.4,2.2c-0.5,0-1.1-0.1-1.6-0.4l-0.1,0.2c0.5,0.2,1,0.4,1.6,0.4
			C257.6,73.8,258.9,72.8,259.6,71.5z"/>
		<path class="st15" d="M254.1,66.4l0.1,0.1l0.1-0.1c0.1-0.1,0.1-0.1,0.1-0.1l-0.1-0.1C254.2,66.3,254.1,66.3,254.1,66.4z"/>
		<path class="st15" d="M258.1,66.7l0.1-0.1c-0.1-0.1-0.2-0.1-0.2-0.2l-0.1,0.1L258.1,66.7z"/>
		<path class="st15" d="M259.8,68.8l0.1,0.2h0.1C259.9,69,259.9,68.9,259.8,68.8L259.8,68.8z"/>
		<path class="st15" d="M259.6,71.2c-0.1,0.1-0.1,0.2-0.1,0.2l0.1,0.1c0.1-0.1,0.1-0.2,0.1-0.2L259.6,71.2z"/>
		<path class="st15" d="M252.2,69.8L252.2,69.8c0-0.1,0-0.1,0-0.2H252c0,0.1,0,0.1,0,0.2s0,0.1,0,0.1h0.1V69.8z"/>
		<path class="st15" d="M254.4,73.3c-0.1-0.1-0.2-0.1-0.2-0.1l-0.1,0.1c0.1,0.1,0.2,0.1,0.2,0.1L254.4,73.3z"/>
		<path class="st15" d="M252.4,69.8c0-2.1,1.7-3.7,3.7-3.7c2,0,3.7,1.7,3.7,3.7c0,0.5-0.1,0.9-0.2,1.3l0.1,0.1
			c0.2-0.4,0.2-0.9,0.2-1.4c0-2.1-1.7-3.8-3.8-3.8c-0.6,0-1.1,0.2-1.7,0.4v0.1l-0.1,0.1c-1.1,0.6-2,1.9-2.1,3.2l0,0v0.2
			c0,1.5,0.8,2.7,2,3.4l0.1-0.2C253.1,72.4,252.4,71.2,252.4,69.8z"/>
		<path class="st15" d="M259.4,71.4l-0.1-0.1c-0.6,1.3-1.9,2.1-3.3,2.1c-0.5,0-1-0.1-1.5-0.4l-0.1,0.2c0.5,0.2,1,0.4,1.6,0.4
			C257.5,73.7,258.8,72.8,259.4,71.4z"/>
		<path class="st15" d="M254.3,66.4L254.3,66.4c-0.1,0-0.1,0.1-0.2,0.1L254.3,66.4z"/>
		<path class="st15" d="M259.4,71.2c-0.1,0.1-0.1,0.2-0.1,0.2l0.1,0.1c0.1-0.1,0.1-0.2,0.1-0.2L259.4,71.2z"/>
		<path class="st15" d="M252.2,69.6c0,0.1,0,0.1,0,0.2l0,0V69.6L252.2,69.6z"/>
		<path class="st15" d="M254.2,73.1l-0.1,0.2c0.1,0.1,0.2,0.1,0.2,0.1l0.1-0.2C254.4,73.1,254.3,73.1,254.2,73.1z"/>
		<path class="st15" d="M315.1,83.7l0.1,0.1c0.6-0.5,1.4-0.7,2.2-0.7c0.8,0,1.6,0.2,2.2,0.7c0.1-0.1,0.1-0.1,0.1-0.1
			c-0.6-0.4-1.4-0.7-2.2-0.7C316.5,83,315.7,83.2,315.1,83.7z"/>
		<path class="st15" d="M313.6,86.9c0-0.5,0.1-1,0.3-1.6l-0.2-0.1c-0.2,0.5-0.3,1-0.3,1.6c0,1.3,0.7,2.5,1.6,3.2
			c0.1-0.1,0.1-0.1,0.1-0.1C314.2,89.3,313.6,88.2,313.6,86.9z"/>
		<path class="st15" d="M321.2,86.9c0,2.1-1.7,3.8-3.8,3.8c-0.7,0-1.5-0.2-2-0.6c-0.1,0.1-0.1,0.1-0.1,0.1c0.6,0.4,1.3,0.6,2.1,0.6
			c2.2,0,4-1.8,4-4c0-1.3-0.6-2.3-1.5-3.1c-0.1,0.1-0.1,0.1-0.1,0.1C320.6,84.6,321.2,85.7,321.2,86.9z"/>
		<path class="st15" d="M315,83.9l-0.1-0.1c-0.4,0.4-0.7,0.7-1,1.2l0.2,0.1C314.2,84.7,314.6,84.3,315,83.9z"/>
		<path class="st15" d="M319.5,83.7c0.1,0.1,0.2,0.1,0.2,0.2c0.1-0.1,0.1-0.1,0.1-0.1c-0.1-0.1-0.2-0.1-0.2-0.2
			C319.6,83.6,319.6,83.7,319.5,83.7z"/>
		<path class="st15" d="M315.1,90c-0.1,0.1-0.1,0.1-0.1,0.1c0.1,0.1,0.2,0.1,0.2,0.2c0.1-0.1,0.1-0.1,0.1-0.1
			C315.3,90.1,315.2,90,315.1,90z"/>
		<path class="st15" d="M313.9,85.1c-0.1,0.1-0.1,0.2-0.1,0.2l0.2,0.1c0.1-0.1,0.1-0.2,0.1-0.2L313.9,85.1z"/>
		<path class="st15" d="M315,83.9c0.1-0.1,0.2-0.1,0.2-0.2l-0.1-0.1c-0.1,0.1-0.2,0.1-0.2,0.2L315,83.9z"/>
		<path class="st15" d="M314,85.1l0.2,0.1c0.2-0.4,0.5-0.8,0.9-1L315,84C314.6,84.3,314.2,84.7,314,85.1z"/>
		<path class="st15" d="M313.7,86.9c0-0.5,0.1-1,0.3-1.5l-0.2-0.1c-0.2,0.5-0.3,1-0.3,1.6c0,1.3,0.6,2.4,1.6,3.1
			c0.1-0.1,0.1-0.1,0.1-0.1C314.4,89.2,313.7,88.2,313.7,86.9z"/>
		<path class="st15" d="M321.1,86.9c0,2.1-1.7,3.7-3.7,3.7c-0.7,0-1.3-0.2-1.9-0.5c-0.1,0.1-0.1,0.1-0.1,0.1c0.6,0.4,1.3,0.6,2,0.6
			c2.1,0,3.8-1.7,3.8-3.8c0-1.2-0.6-2.3-1.5-2.9c-0.1,0.1-0.1,0.1-0.1,0.1C320.5,84.7,321.1,85.8,321.1,86.9z"/>
		<path class="st15" d="M315.1,83.8l0.1,0.1c0.6-0.4,1.3-0.7,2.2-0.7c0.8,0,1.5,0.2,2.1,0.7c0.1-0.1,0.1-0.1,0.1-0.1
			c-0.6-0.4-1.3-0.7-2.2-0.7C316.6,83.1,315.8,83.4,315.1,83.8z"/>
		<path class="st15" d="M319.7,84c0.1-0.1,0.1-0.1,0.1-0.1c-0.1-0.1-0.2-0.1-0.2-0.2c-0.1,0.1-0.1,0.1-0.1,0.1
			C319.6,83.9,319.7,83.9,319.7,84z"/>
		<path class="st15" d="M315.3,89.9c-0.1,0.1-0.1,0.1-0.1,0.1c0.1,0.1,0.2,0.1,0.2,0.2c0.1-0.1,0.1-0.1,0.1-0.1
			C315.5,90,315.3,89.9,315.3,89.9z"/>
		<path class="st15" d="M314,85.1c-0.1,0.1-0.1,0.2-0.1,0.2l0.2,0.1c0.1-0.1,0.1-0.2,0.1-0.2L314,85.1z"/>
		<path class="st15" d="M315,84c0.1-0.1,0.2-0.1,0.2-0.2l-0.1-0.1c-0.1,0.1-0.2,0.1-0.2,0.2L315,84z"/>
		<path class="st15" d="M300.3,94.9v-0.2c-2.9,0.4-5.1,2.9-5.1,5.8h0.2C295.4,97.7,297.6,95.3,300.3,94.9z"/>
		<path class="st15" d="M307,100.6c0,3.2-2.6,5.8-5.8,5.8c-2.3,0-4.4-1.4-5.3-3.4c-0.1,0-0.1,0.1-0.1,0.1c0.9,2.1,3,3.5,5.4,3.5
			c3.3,0,6-2.7,6-6c0-1-0.2-1.9-0.6-2.7c-0.1,0.1-0.1,0.1-0.1,0.1C306.8,98.8,307,99.8,307,100.6z"/>
		<path class="st15" d="M301.2,94.8c-0.2,0-0.4,0-0.5,0.1V95c0.2,0,0.4-0.1,0.5-0.1c2.2,0,4.1,1.2,5.1,3c0.1-0.1,0.1-0.1,0.1-0.1
			C305.3,96,303.4,94.8,301.2,94.8z"/>
		<path class="st15" d="M295.3,100.9c0.1,0.7,0.2,1.3,0.4,2c0.1,0,0.1-0.1,0.1-0.1c-0.2-0.6-0.4-1.3-0.4-2L295.3,100.9L295.3,100.9z
			"/>
		<path class="st15" d="M306.2,97.9c0.1,0.1,0.1,0.2,0.1,0.2c0.1-0.1,0.1-0.1,0.1-0.1c-0.1-0.1-0.1-0.2-0.1-0.2
			C306.4,97.8,306.3,97.8,306.2,97.9z"/>
		<path class="st15" d="M295.8,102.8c-0.1,0-0.1,0.1-0.1,0.1c0.1,0.1,0.1,0.2,0.1,0.2c0.1,0,0.1-0.1,0.1-0.1
			C295.9,103,295.8,103,295.8,102.8z"/>
		<path class="st15" d="M295.3,100.9h0.2c0-0.1,0-0.2,0-0.2v-0.1h-0.2v0.1C295.3,100.8,295.3,100.8,295.3,100.9z"/>
		<path class="st15" d="M300.7,94.9v-0.1c-0.1,0-0.2,0.1-0.2,0.1V95C300.5,94.9,300.5,94.9,300.7,94.9z"/>
		<path class="st15" d="M306.8,100.6c0,3.1-2.5,5.6-5.6,5.6c-2.3,0-4.3-1.3-5.1-3.3c-0.1,0-0.1,0.1-0.1,0.1c0.9,2,2.9,3.4,5.3,3.4
			c3.2,0,5.8-2.6,5.8-5.8c0-0.9-0.2-1.8-0.6-2.5c-0.1,0.1-0.1,0.1-0.1,0.1C306.6,99,306.8,99.8,306.8,100.6z"/>
		<path class="st15" d="M301.2,94.8c-0.2,0-0.4,0-0.5,0.1V95c0.2,0,0.4-0.1,0.5-0.1c2.1,0,4,1.2,5,2.9c0.1-0.1,0.1-0.1,0.1-0.1
			C305.3,96.1,303.4,94.8,301.2,94.8z"/>
		<path class="st15" d="M300.3,95.1v-0.2c-2.8,0.4-5,2.8-5,5.6h0.2C295.6,97.8,297.6,95.4,300.3,95.1z"/>
		<path class="st15" d="M295.5,100.9h-0.2c0.1,0.7,0.2,1.3,0.4,2c0.1,0,0.1-0.1,0.1-0.1C295.7,102.2,295.6,101.6,295.5,100.9z"/>
		<path class="st15" d="M295.9,102.8c-0.1,0-0.1,0.1-0.1,0.1c0.1,0.1,0.1,0.2,0.1,0.2c0.1,0,0.1-0.1,0.1-0.1
			C296,103,296,102.9,295.9,102.8z"/>
		<path class="st15" d="M306.2,98.2c0.1-0.1,0.1-0.1,0.1-0.1c-0.1-0.1-0.1-0.2-0.1-0.2c-0.1,0.1-0.1,0.1-0.1,0.1
			C306.2,98,306.2,98.1,306.2,98.2z"/>
		<path class="st15" d="M295.5,100.6h-0.2v0.1c0,0.1,0,0.2,0,0.2h0.2C295.5,100.8,295.5,100.6,295.5,100.6
			C295.5,100.6,295.5,100.6,295.5,100.6z"/>
		<path class="st15" d="M300.3,95.1c0.1,0,0.2-0.1,0.2-0.1v-0.2c-0.1,0-0.2,0.1-0.2,0.1V95.1z"/>
		<path class="st14" d="M287,63.2l-0.1,0.1c0,0.1,0.1,0.2,0.1,0.2l0.2-0.1L287,63.2z"/>
		<path class="st14" d="M287.4,60.2L287.4,60.2c-0.1,0.1-0.1,0.2-0.1,0.2h0.1L287.4,60.2z"/>
		<path class="st15" d="M298.3,62.6h0.2c0-1.3-0.4-2.4-1.1-3.4l-0.1,0.1C297.9,60.3,298.3,61.3,298.3,62.6z"/>
		<path class="st15" d="M297.2,66l0.1-0.1l0.1,0.1c0.6-0.9,1-2,1-3.1h-0.1C298.2,64.1,297.8,65.1,297.2,66z"/>
		<path class="st15" d="M297,59.1l0.1-0.1c-0.7-0.9-1.5-1.5-2.5-1.9l-0.1,0.1C295.6,57.6,296.4,58.3,297,59.1z"/>
		<path class="st15" d="M294.4,57.1l0.1-0.1c-0.6-0.2-1.2-0.3-1.9-0.3v0.2C293.2,56.8,293.8,56.9,294.4,57.1z"/>
		<path class="st15" d="M286.8,63.5l-0.2,0.1c0.2,0.9,0.5,1.7,1,2.4l0,0l0.2,0.2l-0.1,0.1c1.1,1.5,2.8,2.3,4.8,2.3
			c0.6,0,1.1-0.1,1.7-0.2l-0.1-0.1c-0.5,0.2-1.1,0.2-1.7,0.2C289.6,68.5,287.3,66.3,286.8,63.5z"/>
		<path class="st15" d="M291,56.9c-0.9,0.2-1.7,0.7-2.4,1.3l0.1,0.1c0.7-0.6,1.5-1,2.3-1.3L291,56.9L291,56.9z"/>
		<path class="st15" d="M291.2,56.9c0.4-0.1,0.7-0.1,1-0.1v-0.1c-0.4,0-0.7,0.1-1.1,0.1L291.2,56.9z"/>
		<path class="st15" d="M288.5,58.5l-0.1-0.1c-0.5,0.5-0.9,1-1.2,1.7l0.1,0.1C287.6,59.5,288,59,288.5,58.5z"/>
		<path class="st15" d="M294.4,68.1l0.1,0.1c1.1-0.4,2.1-1.1,2.8-2.1l-0.1-0.1C296.4,67,295.5,67.7,294.4,68.1z"/>
		<path class="st15" d="M286.6,63.3l0.2-0.1c-0.1-0.2-0.1-0.4-0.1-0.7c0-0.8,0.2-1.6,0.5-2.3l-0.1-0.1c-0.3,0.7-0.5,1.5-0.5,2.3
			C286.5,62.9,286.6,63.1,286.6,63.3z"/>
		<path class="st15" d="M288.7,58.3l-0.1-0.1c-0.1,0.1-0.2,0.1-0.2,0.2l0.1,0.1C288.5,58.4,288.6,58.4,288.7,58.3z"/>
		<path class="st15" d="M286.8,63.5c0-0.1-0.1-0.2-0.1-0.2l-0.2,0.1c0,0.1,0.1,0.2,0.1,0.2L286.8,63.5z"/>
		<path class="st15" d="M287.3,60.1l-0.1-0.1c-0.1,0.1-0.1,0.2-0.1,0.2l0.1,0.1C287.2,60.3,287.3,60.2,287.3,60.1z"/>
		<path class="st15" d="M287.8,66.2l-0.2-0.2l0,0C287.7,66,287.7,66.1,287.8,66.2L287.8,66.2z"/>
		<path class="st15" d="M291.2,56.9l-0.1-0.1c-0.1,0.1-0.2,0.1-0.2,0.1l0.1,0.1C291.1,57,291.2,57,291.2,56.9z"/>
		<path class="st15" d="M292.5,56.8C292.5,56.8,292.5,56.8,292.5,56.8l0.1-0.1c-0.1,0-0.1,0-0.1,0c-0.1,0-0.1,0-0.2,0v0.2
			C292.4,56.8,292.4,56.8,292.5,56.8z"/>
		<path class="st15" d="M294.6,57.3l0.1-0.1c-0.1-0.1-0.2-0.1-0.2-0.1l-0.1,0.1C294.5,57.1,294.6,57.2,294.6,57.3z"/>
		<path class="st15" d="M294.2,68.2l0.1,0.1c0.1-0.1,0.2-0.1,0.2-0.1l-0.1-0.1C294.3,68.1,294.2,68.1,294.2,68.2z"/>
		<path class="st15" d="M298.3,62.7c0,0.1,0,0.2,0,0.2h0.2c0-0.1,0-0.2,0-0.2l0,0H298.3C298.3,62.6,298.3,62.6,298.3,62.7z"/>
		<path class="st15" d="M297,59.1c0.1,0.1,0.1,0.2,0.2,0.2l0.1-0.1c-0.1-0.1-0.1-0.2-0.2-0.2L297,59.1z"/>
		<path class="st15" d="M297.2,66c-0.1,0.1-0.1,0.1-0.1,0.1l0.1,0.1c0.1-0.1,0.1-0.2,0.2-0.2l-0.1-0.1L297.2,66z"/>
		<path class="st15" d="M291,57.1L291,57c-0.9,0.2-1.7,0.7-2.3,1.3l0.1,0.1C289.4,57.8,290.1,57.4,291,57.1z"/>
		<path class="st15" d="M298.1,62.6h0.2c0-1.3-0.4-2.3-1-3.3l-0.1,0.1C297.8,60.3,298.1,61.3,298.1,62.6z"/>
		<path class="st15" d="M288.5,58.5l-0.1-0.1c-0.5,0.5-0.9,1-1.1,1.6l0.1,0.1C287.7,59.6,288.1,59,288.5,58.5z"/>
		<path class="st15" d="M292.5,68.2c-2.8,0-5.2-2.1-5.6-4.8l-0.2,0.1c0.4,2.8,2.8,4.9,5.7,4.9c0.6,0,1.1-0.1,1.7-0.2L294,68
			C293.6,68.2,293.1,68.2,292.5,68.2z"/>
		<path class="st15" d="M294.4,68l0.1,0.2c1.1-0.4,2.1-1.1,2.8-2l0,0l0.1-0.1c0.6-0.9,1-2,1.1-3.1h-0.2
			C298.1,65.3,296.5,67.3,294.4,68z"/>
		<path class="st15" d="M294.6,57.3l-0.1,0.1c1,0.4,1.8,1,2.4,1.8l0.1-0.1C296.4,58.3,295.6,57.6,294.6,57.3z"/>
		<path class="st15" d="M286.8,62.7c0-0.8,0.2-1.6,0.5-2.2l-0.1-0.1c-0.3,0.7-0.5,1.5-0.5,2.3c0,0.2,0,0.4,0.1,0.7l0.2-0.1
			C286.8,63,286.8,62.9,286.8,62.7z"/>
		<path class="st15" d="M292.3,57v-0.2c-0.4,0-0.7,0.1-1,0.1l0.1,0.1C291.6,57,292,57,292.3,57z"/>
		<path class="st15" d="M294.3,57.3l0.1-0.1c-0.6-0.2-1.2-0.3-1.8-0.3V57C293.2,57,293.8,57.1,294.3,57.3z"/>
		<path class="st15" d="M288.8,58.4l-0.1-0.1c-0.1,0.1-0.2,0.1-0.2,0.2l0.1,0.1C288.7,58.5,288.7,58.5,288.8,58.4z"/>
		<path class="st15" d="M287,63.5c0-0.1-0.1-0.2-0.1-0.2l-0.2,0.1c0,0.1,0.1,0.2,0.1,0.2L287,63.5z"/>
		<path class="st15" d="M287.4,60.2l-0.1-0.1c-0.1,0.1-0.1,0.2-0.1,0.2l0.1,0.1C287.4,60.3,287.4,60.2,287.4,60.2z"/>
		<path class="st15" d="M291,57.1c0.1-0.1,0.2-0.1,0.2-0.1l-0.1-0.1c-0.1,0.1-0.2,0.1-0.2,0.1L291,57.1z"/>
		<path class="st15" d="M292.5,57C292.5,57,292.5,57,292.5,57l0.1-0.2c-0.1,0-0.1,0-0.1,0c-0.1,0-0.1,0-0.2,0V57
			C292.4,57,292.4,57,292.5,57z"/>
		<path class="st15" d="M294.6,57.4l0.1-0.1c-0.1-0.1-0.2-0.1-0.2-0.1l-0.1,0.1C294.4,57.3,294.5,57.3,294.6,57.4z"/>
		<path class="st15" d="M294.1,68.1l0.1,0.1c0.1-0.1,0.2-0.1,0.2-0.1l-0.1-0.2C294.3,68,294.2,68.1,294.1,68.1z"/>
		<path class="st15" d="M298.1,62.7c0,0.1,0,0.2,0,0.2h0.2c0-0.1,0-0.2,0-0.2v-0.1L298.1,62.7C298.1,62.6,298.1,62.6,298.1,62.7z"/>
		<path class="st15" d="M297.1,59.4l0.1-0.1c-0.1-0.1-0.1-0.2-0.2-0.2l-0.1,0.1C297,59.3,297,59.3,297.1,59.4z"/>
		<path class="st15" d="M297.1,66.1c0.1-0.1,0.1-0.1,0.1-0.1L297.1,66.1L297.1,66.1z"/>
		<path class="st15" d="M312.2,54.1c-1.3,0-2.4-0.6-3.1-1.6l-0.1,0.1c0.7,1,1.9,1.7,3.2,1.7c1.2,0,2.3-0.5,3-1.4l-0.1-0.1
			C314.4,53.6,313.3,54.1,312.2,54.1z"/>
		<path class="st15" d="M312.2,46.5c1.5,0,2.7,0.8,3.4,2l0.1-0.1c-0.7-1.3-2-2.1-3.5-2.1c-1.5,0-2.8,0.8-3.4,2l0.1,0.1
			C309.5,47.2,310.8,46.5,312.2,46.5z"/>
		<path class="st15" d="M316,50.3c0,0.9-0.3,1.7-0.8,2.3l0.1-0.1l0.1,0.1c0.5-0.7,0.8-1.5,0.8-2.3c0-0.6-0.2-1.1-0.4-1.7l-0.1,0.1
			C315.9,49.2,316,49.7,316,50.3z"/>
		<path class="st15" d="M308.8,52.3l0.1-0.1c-0.4-0.6-0.5-1.3-0.5-2c0-0.6,0.2-1.2,0.4-1.7l-0.1-0.1c-0.2,0.5-0.4,1.1-0.4,1.8
			C308.2,51.1,308.4,51.7,308.8,52.3z"/>
		<path class="st15" d="M308.8,48.6c0.1-0.1,0.1-0.2,0.1-0.2l-0.1-0.1c-0.1,0.1-0.1,0.2-0.1,0.2L308.8,48.6z"/>
		<path class="st15" d="M315.6,48.7l0.1-0.1c-0.1-0.1-0.1-0.2-0.1-0.2l-0.1,0.1C315.6,48.5,315.6,48.6,315.6,48.7z"/>
		<path class="st15" d="M308.9,52.3l-0.1,0.1c0.1,0.1,0.1,0.2,0.2,0.2l0.1-0.1C309,52.4,309,52.4,308.9,52.3z"/>
		<path class="st15" d="M315.1,52.6c-0.1,0.1-0.1,0.1-0.1,0.1l0.1,0.1c0.1-0.1,0.1-0.2,0.2-0.2l-0.1-0.1L315.1,52.6z"/>
		<path class="st15" d="M308.9,52.3l0.1-0.1c-0.4-0.5-0.5-1.2-0.5-1.9c0-0.6,0.2-1.1,0.4-1.6l-0.1-0.1c-0.2,0.5-0.4,1.1-0.4,1.7
			C308.3,51,308.5,51.7,308.9,52.3z"/>
		<path class="st15" d="M315.8,50.3c0,2.1-1.7,3.7-3.7,3.7c-1.3,0-2.3-0.6-2.9-1.6l-0.1,0.1c0.7,1,1.8,1.6,3.1,1.6
			c1.1,0,2.2-0.5,2.9-1.3l-0.1-0.1l0.1-0.1c0.5-0.7,0.8-1.5,0.8-2.3c0-0.6-0.1-1.1-0.4-1.6l-0.1,0.1
			C315.7,49.3,315.8,49.7,315.8,50.3z"/>
		<path class="st15" d="M312.2,46.6c1.4,0,2.6,0.8,3.2,1.9l0.1-0.1c-0.7-1.2-1.9-2-3.4-2c-1.4,0-2.7,0.8-3.3,1.9l0.1,0.1
			C309.6,47.3,310.8,46.6,312.2,46.6z"/>
		<path class="st15" d="M309,48.4l-0.1-0.1c-0.1,0.1-0.1,0.2-0.1,0.2l0.1,0.1C308.9,48.6,309,48.5,309,48.4z"/>
		<path class="st15" d="M309.2,52.4c-0.1-0.1-0.1-0.2-0.2-0.2l-0.1,0.1c0.1,0.1,0.1,0.2,0.2,0.2L309.2,52.4z"/>
		<path class="st15" d="M315.5,48.8l0.1-0.1c-0.1-0.1-0.1-0.2-0.1-0.2l-0.1,0.1C315.5,48.6,315.5,48.7,315.5,48.8z"/>
		<path class="st15" d="M315.1,52.7c0.1-0.1,0.1-0.1,0.1-0.1L315.1,52.7L315.1,52.7z"/>
		<path class="st13" d="M310.8,46.5l0.2-0.1l-4-13.2c-0.1,0.1-0.2,0.1-0.2,0.1L310.8,46.5z"/>
		<path class="st15" d="M305.4,22.5c3,0,5.4,2.4,5.4,5.4c0,0.9-0.2,1.8-0.7,2.6c0.1,0.1,0.1,0.1,0.1,0.1c0.4-0.8,0.7-1.7,0.7-2.7
			c0-3.1-2.5-5.6-5.6-5.6c-1.9,0-3.5,0.9-4.5,2.3c0.1,0.1,0.1,0.1,0.1,0.1C301.9,23.3,303.5,22.5,305.4,22.5z"/>
		<path class="st15" d="M306.9,33l0.1,0.1c1.3-0.4,2.4-1.3,3.1-2.4c-0.1-0.1-0.1-0.1-0.1-0.1C309.3,31.9,308.2,32.7,306.9,33z"/>
		<path class="st15" d="M305.4,33.3c-0.6,0-1.2-0.1-1.7-0.3l-0.1,0.1c0.6,0.2,1.1,0.3,1.8,0.3c0.5,0,0.9-0.1,1.3-0.2l-0.1-0.1
			C306.2,33.2,305.8,33.3,305.4,33.3z"/>
		<path class="st15" d="M303.3,33l0.1-0.1c-2-0.8-3.4-2.8-3.4-5c0-1.1,0.3-2.1,0.9-2.9c-0.1-0.1-0.1-0.1-0.1-0.1
			c-0.5,0.9-0.9,1.9-0.9,3C299.8,30.2,301.3,32.2,303.3,33z"/>
		<path class="st15" d="M300.8,24.9c0.1-0.1,0.1-0.2,0.2-0.2c-0.1-0.1-0.1-0.1-0.1-0.1c-0.1,0.1-0.1,0.2-0.2,0.2
			C300.8,24.9,300.8,24.9,300.8,24.9z"/>
		<path class="st15" d="M310,30.7c0.1,0.1,0.1,0.1,0.1,0.1c0.1-0.1,0.1-0.2,0.2-0.2c-0.1-0.1-0.1-0.1-0.1-0.1
			C310,30.5,310,30.6,310,30.7z"/>
		<path class="st15" d="M303.6,33c-0.1-0.1-0.2-0.1-0.2-0.1l-0.1,0.1c0.1,0.1,0.2,0.1,0.2,0.1L303.6,33z"/>
		<path class="st15" d="M306.7,33.3c0.1-0.1,0.2-0.1,0.2-0.1l-0.1-0.1c-0.1,0.1-0.2,0.1-0.2,0.1L306.7,33.3z"/>
		<path class="st15" d="M306.8,32.9l0.1,0.1c1.3-0.4,2.4-1.3,3.1-2.3c-0.1-0.1-0.1-0.1-0.1-0.1C309.2,31.7,308.1,32.5,306.8,32.9z"
			/>
		<path class="st15" d="M305.4,22.6c2.9,0,5.3,2.3,5.3,5.3c0,0.9-0.2,1.8-0.6,2.5c0.1,0.1,0.1,0.1,0.1,0.1c0.4-0.8,0.7-1.7,0.7-2.6
			c0-3-2.4-5.4-5.4-5.4c-1.8,0-3.4,0.9-4.4,2.2c0.1,0.1,0.1,0.1,0.1,0.1C302,23.4,303.6,22.6,305.4,22.6z"/>
		<path class="st15" d="M306.6,33.1l-0.1-0.1c-0.4,0.1-0.8,0.2-1.3,0.2c-0.6,0-1.1-0.1-1.7-0.2l-0.1,0.1c0.5,0.2,1.1,0.3,1.7,0.3
			C305.8,33.3,306.2,33.2,306.6,33.1z"/>
		<path class="st15" d="M303.4,32.9l0.1-0.1c-1.9-0.8-3.3-2.7-3.3-4.9c0-1.1,0.3-2.1,0.9-2.9c-0.1-0.1-0.1-0.1-0.1-0.1
			c-0.5,0.9-0.9,1.9-0.9,2.9C299.9,30.2,301.4,32.1,303.4,32.9z"/>
		<path class="st15" d="M301.1,24.8c-0.1-0.1-0.1-0.1-0.1-0.1c-0.1,0.1-0.1,0.2-0.2,0.2c0.1,0.1,0.1,0.1,0.1,0.1
			C300.9,24.9,301.1,24.8,301.1,24.8z"/>
		<path class="st15" d="M309.8,30.6c0.1,0.1,0.1,0.1,0.1,0.1c0.1-0.1,0.1-0.2,0.2-0.2c-0.1-0.1-0.1-0.1-0.1-0.1
			C310,30.5,309.9,30.5,309.8,30.6z"/>
		<path class="st15" d="M303.7,32.8c-0.1-0.1-0.2-0.1-0.2-0.1l-0.1,0.1c0.1,0.1,0.2,0.1,0.2,0.1L303.7,32.8z"/>
		<path class="st15" d="M306.6,33.1c0.1-0.1,0.2-0.1,0.2-0.1l-0.1-0.1c-0.1,0.1-0.2,0.1-0.2,0.1L306.6,33.1z"/>
	</g>
	<circle class="st11" cx="292.5" cy="62.6" r="4.1"/>
	<circle class="st11" cx="325" cy="66" r="4.1"/>
	<circle class="st11" cx="267.2" cy="51.4" r="2.8"/>
	<circle class="st11" cx="247.4" cy="43.6" r="2.8"/>
	<circle class="st16" cx="241.4" cy="67" r="4.1"/>
	<circle class="st9" cx="260.9" cy="28.5" r="4.3"/>
	<circle class="st10" cx="291.6" cy="39.2" r="2.9"/>
	<ellipse class="st10" cx="312.2" cy="50.3" rx="2.9" ry="2.9"/>
	<circle class="st10" cx="321.2" cy="44.5" r="2.9"/>
	<circle class="st16" cx="256" cy="69.8" r="2.9"/>
	<path class="st14" d="M249.7,85.4c2.2-0.4,4.1,1.7,3.2,4c-0.3,0.7-0.8,1.2-1.5,1.5c-2.3,0.9-4.4-1-4-3.2
		C247.5,86.5,248.5,85.6,249.7,85.4z"/>
	<path class="st14" d="M283.1,18.6c2.2-0.4,4.1,1.7,3.2,4c-0.3,0.7-0.8,1.2-1.5,1.5c-2.3,0.9-4.4-1-4-3.2
		C281,19.8,281.9,18.9,283.1,18.6z"/>
	<path class="st14" d="M316.9,84.1c2.2-0.4,4.1,1.7,3.2,4c-0.3,0.7-0.8,1.2-1.5,1.5c-2.3,0.9-4.4-1-4-3.2
		C314.8,85.2,315.7,84.3,316.9,84.1z"/>
	<circle class="st16" cx="298.2" cy="81.8" r="2.9"/>
	<circle class="st16" cx="271.4" cy="79.5" r="2.9"/>
	<circle class="st17" cx="269.1" cy="101.1" r="4.3"/>
	<circle class="st14" cx="301.2" cy="100.6" r="4.3"/>
	<circle class="st7" cx="305.4" cy="27.9" r="4.4"/>
	<path class="st18" d="M287.7,64.9"/>
	<path class="st15" d="M248.4,39.9l-0.3-0.1l0,0c-0.2-0.1-0.4-0.1-0.7-0.1c-2.2,0-4,1.8-4,4c0,1,0.4,2,1.1,2.8
		c0-0.1,0.1-0.1,0.1-0.2c-0.6-0.7-1-1.6-1-2.6l0,0c0,1,0.4,1.9,1,2.6c0-0.1,0.1-0.1,0.1-0.2c-0.6-0.7-1-1.5-1-2.4
		c0-2.1,1.7-3.7,3.7-3.7c0.2,0,0.4,0,0.5,0.1l0.3,0.1c1.6,0.4,2.9,1.9,2.9,3.6c0,0.5-0.1,0.9-0.2,1.3l0.1,0.1
		c0.2-0.4,0.2-0.9,0.2-1.3l0,0c0,0.5-0.1,0.9-0.2,1.3l0.1,0.1c0.2-0.4,0.2-0.9,0.2-1.5C251.4,41.9,250.1,40.3,248.4,39.9z"/>
	<path class="st15" d="M265.1,24.9c-1-1.2-2.5-2-4.3-2c-3.1,0-5.6,2.5-5.6,5.6c0,0.9,0.2,1.7,0.6,2.5l0.2,0.2l0,0
		c1,1.7,2.8,2.8,4.8,2.8c0.4,0,0.9-0.1,1.3-0.2l-0.1-0.1l-0.1-0.1c-0.4,0.1-0.8,0.1-1.1,0.1c-2,0-3.7-1.1-4.6-2.8l-0.1-0.2
		c-0.4-0.7-0.5-1.5-0.5-2.3c0-2.9,2.3-5.3,5.3-5.3c1.6,0,3,0.7,4,1.9c0.1-0.1,0.1-0.1,0.1-0.1l0,0C265,24.9,265.1,24.9,265.1,24.9z
		 M255.4,28.5L255.4,28.5"/>
	<path class="st15" d="M265.3,25.2c-0.1,0.1-0.1,0.1-0.1,0.1c0.2,0.2,0.3,0.4,0.5,0.7c-0.1-0.2-0.2-0.5-0.5-0.7
		c-0.1,0.1-0.1,0.1-0.1,0.1c0.7,0.9,1.1,2,1.1,3.2c0,1.5-0.6,2.8-1.6,3.8l-0.2,0.2c-0.6,0.5-1.3,0.9-2.1,1.1l0.1,0.1
		c0.7-0.2,1.5-0.6,2-1.1l0,0c-0.6,0.5-1.3,0.9-2,1.1l0.1,0.1c0.8-0.2,1.6-0.7,2.2-1.2l0.2-0.2c1-1,1.7-2.4,1.7-4
		C266.4,27.2,266,26.1,265.3,25.2z M264.6,32.4L264.6,32.4c1-1,1.6-2.3,1.6-3.8c0-0.9-0.2-1.8-0.7-2.5c0.4,0.8,0.7,1.6,0.7,2.5
		C266.3,30,265.6,31.4,264.6,32.4z"/>
</g>
<rect x="162.3" y="4.9" class="st19" width="72.3" height="124.7"/>
<g>
	<path class="st20" d="M185,49.2c-0.1,0.8-0.4,1.4-0.9,1.9c-0.5,0.4-1.1,0.6-2,0.6c-0.6,0-1.1-0.1-1.5-0.4c-0.4-0.3-0.8-0.7-1-1.2
		c-0.2-0.5-0.4-1.1-0.4-1.8v-1c0-0.7,0.1-1.3,0.4-1.8c0.2-0.5,0.6-0.9,1-1.2c0.4-0.3,1-0.4,1.6-0.4c0.8,0,1.5,0.2,2,0.7
		c0.5,0.4,0.8,1.1,0.8,1.8h-0.7c-0.2-1.3-0.9-2-2.1-2c-0.7,0-1.3,0.3-1.7,0.8c-0.4,0.5-0.6,1.2-0.6,2.2v0.9c0,0.9,0.2,1.6,0.6,2.1
		c0.4,0.5,1,0.8,1.6,0.8c0.7,0,1.2-0.2,1.5-0.5s0.6-0.8,0.6-1.5H185z"/>
	<path class="st20" d="M186,48.6c0-0.6,0.1-1,0.3-1.5c0.2-0.4,0.5-0.8,0.9-1s0.8-0.4,1.3-0.4c0.8,0,1.4,0.3,1.9,0.8
		c0.5,0.5,0.7,1.2,0.7,2.1v0.1c0,0.6-0.1,1.1-0.3,1.5c-0.2,0.4-0.5,0.8-0.9,1c-0.4,0.2-0.8,0.4-1.3,0.4c-0.8,0-1.4-0.3-1.9-0.8
		s-0.7-1.2-0.7-2.1V48.6z M186.7,48.8c0,0.7,0.2,1.2,0.5,1.7c0.4,0.4,0.8,0.7,1.4,0.7c0.6,0,1-0.2,1.4-0.7c0.4-0.4,0.5-1,0.5-1.7
		v-0.1c0-0.4-0.1-0.8-0.2-1.2c-0.2-0.4-0.4-0.6-0.7-0.8c-0.3-0.2-0.6-0.3-1-0.3c-0.6,0-1,0.2-1.4,0.7c-0.4,0.4-0.5,1-0.5,1.7V48.8z"
		/>
	<path class="st20" d="M193.1,45.8l0,1c0.2-0.4,0.5-0.6,0.8-0.8s0.7-0.3,1.1-0.3c0.6,0,1.1,0.2,1.4,0.5c0.3,0.3,0.5,0.9,0.5,1.6v3.8
		h-0.6v-3.8c0-0.5-0.1-0.9-0.3-1.1c-0.2-0.3-0.6-0.4-1-0.4c-0.4,0-0.7,0.1-1,0.4s-0.5,0.6-0.7,1v3.9h-0.6v-5.7H193.1z"/>
	<path class="st20" d="M200.5,51.1c0.4,0,0.8-0.1,1.1-0.4c0.3-0.2,0.5-0.6,0.5-1h0.6c0,0.3-0.1,0.7-0.3,1c-0.2,0.3-0.5,0.5-0.8,0.7
		c-0.3,0.2-0.7,0.2-1.1,0.2c-0.8,0-1.3-0.3-1.8-0.8s-0.7-1.2-0.7-2.1v-0.2c0-0.6,0.1-1.1,0.3-1.5c0.2-0.4,0.5-0.8,0.8-1
		c0.4-0.2,0.8-0.4,1.3-0.4c0.6,0,1.1,0.2,1.6,0.6c0.4,0.4,0.6,0.9,0.7,1.5h-0.6c0-0.4-0.2-0.8-0.5-1.1s-0.7-0.4-1.1-0.4
		c-0.6,0-1,0.2-1.3,0.6c-0.3,0.4-0.5,1-0.5,1.7v0.2c0,0.7,0.2,1.3,0.5,1.7C199.5,50.9,200,51.1,200.5,51.1z"/>
	<path class="st20" d="M206.2,51.7c-0.5,0-0.9-0.1-1.3-0.4s-0.7-0.6-0.9-1c-0.2-0.4-0.3-0.9-0.3-1.4v-0.2c0-0.6,0.1-1,0.3-1.5
		c0.2-0.4,0.5-0.8,0.9-1c0.4-0.3,0.8-0.4,1.2-0.4c0.7,0,1.2,0.2,1.7,0.7c0.4,0.5,0.6,1.1,0.6,1.9v0.4h-4.1v0.1
		c0,0.6,0.2,1.2,0.6,1.6c0.4,0.4,0.8,0.6,1.4,0.6c0.3,0,0.6-0.1,0.9-0.2c0.3-0.1,0.5-0.3,0.7-0.6l0.4,0.3
		C207.8,51.3,207.1,51.7,206.2,51.7z M206.1,46.3c-0.5,0-0.9,0.2-1.2,0.5c-0.3,0.3-0.5,0.8-0.6,1.4h3.4v-0.1c0-0.6-0.2-1-0.5-1.3
		C207,46.4,206.6,46.3,206.1,46.3z"/>
	<path class="st20" d="M214.2,48.7c0,0.9-0.2,1.6-0.6,2.1c-0.4,0.5-0.9,0.8-1.6,0.8c-0.8,0-1.4-0.3-1.8-0.8v2.9h-0.6v-7.9h0.6l0,0.8
		c0.4-0.6,1-0.9,1.8-0.9c0.7,0,1.2,0.3,1.6,0.8C214,47,214.2,47.7,214.2,48.7L214.2,48.7z M213.6,48.6c0-0.7-0.2-1.3-0.5-1.7
		c-0.3-0.4-0.7-0.6-1.3-0.6c-0.4,0-0.7,0.1-1,0.3c-0.3,0.2-0.5,0.5-0.6,0.8v2.7c0.2,0.3,0.4,0.6,0.7,0.8c0.3,0.2,0.6,0.3,1,0.3
		c0.5,0,0.9-0.2,1.2-0.6C213.4,50.1,213.6,49.4,213.6,48.6z"/>
	<path class="st20" d="M216.6,44.4v1.5h1.2v0.5h-1.2v3.8c0,0.3,0.1,0.6,0.2,0.7c0.1,0.2,0.3,0.2,0.6,0.2c0.1,0,0.3,0,0.5-0.1l0,0.5
		c-0.2,0.1-0.4,0.1-0.7,0.1c-0.4,0-0.8-0.1-0.9-0.4c-0.2-0.3-0.3-0.6-0.3-1.1v-3.8h-1.1v-0.5h1.1v-1.5H216.6z"/>
</g>
<g>
	<path class="st20" d="M179.8,73.9h-3.6V77h4.1v0.6h-4.8v-7.7h4.8v0.6h-4.1v2.9h3.6V73.9z"/>
	<path class="st20" d="M183.3,74.2l1.5-2.3h0.8l-1.9,2.8l2,2.9H185l-1.6-2.4l-1.6,2.4H181l2-2.9l-1.9-2.8h0.7L183.3,74.2z"/>
	<path class="st20" d="M187.8,70.4v1.5h1.2v0.5h-1.2v3.8c0,0.3,0.1,0.6,0.2,0.7c0.1,0.2,0.3,0.2,0.6,0.2c0.1,0,0.3,0,0.5-0.1l0,0.5
		c-0.2,0.1-0.4,0.1-0.7,0.1c-0.4,0-0.8-0.1-0.9-0.4c-0.2-0.3-0.3-0.6-0.3-1.1v-3.8h-1.1v-0.5h1.1v-1.5H187.8z"/>
	<path class="st20" d="M192.9,72.4c-0.1,0-0.3,0-0.4,0c-0.4,0-0.7,0.1-1,0.3s-0.5,0.5-0.6,1v3.9h-0.6v-5.7h0.6l0,0.9
		c0.3-0.7,0.9-1,1.6-1c0.2,0,0.3,0,0.4,0.1L192.9,72.4z"/>
	<path class="st20" d="M197.4,77.6c-0.1-0.2-0.1-0.4-0.1-0.8c-0.2,0.3-0.5,0.5-0.8,0.7s-0.7,0.2-1.1,0.2c-0.6,0-1-0.2-1.3-0.5
		c-0.3-0.3-0.5-0.7-0.5-1.2c0-0.6,0.2-1,0.7-1.3c0.5-0.3,1.1-0.5,1.9-0.5h1.1v-0.7c0-0.4-0.1-0.7-0.4-1c-0.3-0.2-0.6-0.4-1.1-0.4
		c-0.4,0-0.8,0.1-1.1,0.3c-0.3,0.2-0.4,0.5-0.4,0.8l-0.6,0c0-0.5,0.2-0.8,0.6-1.2c0.4-0.3,0.9-0.5,1.6-0.5c0.6,0,1.1,0.2,1.5,0.5
		s0.6,0.8,0.6,1.3v2.7c0,0.6,0.1,1,0.2,1.2v0.1H197.4z M195.4,77.1c0.4,0,0.8-0.1,1.1-0.3c0.3-0.2,0.6-0.5,0.7-0.8v-1.3h-1.1
		c-0.6,0-1.1,0.1-1.5,0.3c-0.4,0.2-0.5,0.5-0.5,0.9c0,0.3,0.1,0.6,0.4,0.8C194.7,77,195,77.1,195.4,77.1z"/>
	<path class="st20" d="M201.7,77.1c0.4,0,0.8-0.1,1.1-0.4c0.3-0.2,0.5-0.6,0.5-1h0.6c0,0.3-0.1,0.7-0.3,1c-0.2,0.3-0.5,0.5-0.8,0.7
		c-0.3,0.2-0.7,0.2-1.1,0.2c-0.8,0-1.3-0.3-1.8-0.8s-0.7-1.2-0.7-2.1v-0.2c0-0.6,0.1-1.1,0.3-1.5c0.2-0.4,0.5-0.8,0.8-1
		c0.4-0.2,0.8-0.4,1.3-0.4c0.6,0,1.1,0.2,1.6,0.6c0.4,0.4,0.6,0.9,0.7,1.5h-0.6c0-0.4-0.2-0.8-0.5-1.1s-0.7-0.4-1.1-0.4
		c-0.6,0-1,0.2-1.3,0.6c-0.3,0.4-0.5,1-0.5,1.7v0.2c0,0.7,0.2,1.3,0.5,1.7C200.6,76.9,201.1,77.1,201.7,77.1z"/>
	<path class="st20" d="M206.1,70.4v1.5h1.2v0.5h-1.2v3.8c0,0.3,0.1,0.6,0.2,0.7c0.1,0.2,0.3,0.2,0.6,0.2c0.1,0,0.3,0,0.5-0.1l0,0.5
		c-0.2,0.1-0.4,0.1-0.7,0.1c-0.4,0-0.8-0.1-0.9-0.4c-0.2-0.3-0.3-0.6-0.3-1.1v-3.8h-1.1v-0.5h1.1v-1.5H206.1z"/>
	<path class="st20" d="M208.6,70.2c0-0.1,0-0.2,0.1-0.3c0.1-0.1,0.2-0.1,0.3-0.1c0.1,0,0.2,0,0.3,0.1c0.1,0.1,0.1,0.2,0.1,0.3
		c0,0.1,0,0.2-0.1,0.3c-0.1,0.1-0.2,0.1-0.3,0.1c-0.1,0-0.2,0-0.3-0.1C208.6,70.4,208.6,70.3,208.6,70.2z M209.3,77.6h-0.6v-5.7h0.6
		V77.6z"/>
	<path class="st20" d="M210.7,74.6c0-0.6,0.1-1,0.3-1.5c0.2-0.4,0.5-0.8,0.9-1s0.8-0.4,1.3-0.4c0.8,0,1.4,0.3,1.9,0.8
		c0.5,0.5,0.7,1.2,0.7,2.1v0.1c0,0.6-0.1,1.1-0.3,1.5c-0.2,0.4-0.5,0.8-0.9,1c-0.4,0.2-0.8,0.4-1.3,0.4c-0.8,0-1.4-0.3-1.9-0.8
		s-0.7-1.2-0.7-2.1V74.6z M211.3,74.8c0,0.7,0.2,1.2,0.5,1.7c0.4,0.4,0.8,0.7,1.4,0.7c0.6,0,1-0.2,1.4-0.7c0.4-0.4,0.5-1,0.5-1.7
		v-0.1c0-0.4-0.1-0.8-0.2-1.2c-0.2-0.4-0.4-0.6-0.7-0.8c-0.3-0.2-0.6-0.3-1-0.3c-0.6,0-1,0.2-1.4,0.7c-0.4,0.4-0.5,1-0.5,1.7V74.8z"
		/>
	<path class="st20" d="M217.7,71.8l0,1c0.2-0.4,0.5-0.6,0.8-0.8s0.7-0.3,1.1-0.3c0.6,0,1.1,0.2,1.4,0.5c0.3,0.3,0.5,0.9,0.5,1.6v3.8
		h-0.6v-3.8c0-0.5-0.1-0.9-0.3-1.1c-0.2-0.3-0.6-0.4-1-0.4c-0.4,0-0.7,0.1-1,0.4s-0.5,0.6-0.7,1v3.9h-0.6v-5.7H217.7z"/>
</g>
<g>
	<path class="st20" d="M185.4,103.5c0-0.4-0.2-0.8-0.5-1s-0.8-0.5-1.6-0.7c-0.8-0.2-1.4-0.5-1.7-0.7c-0.5-0.4-0.8-0.9-0.8-1.5
		c0-0.6,0.2-1.1,0.7-1.4s1.1-0.6,1.9-0.6c0.5,0,1,0.1,1.4,0.3c0.4,0.2,0.7,0.5,0.9,0.8s0.3,0.7,0.3,1.2h-0.7c0-0.5-0.2-1-0.5-1.3
		c-0.4-0.3-0.8-0.5-1.5-0.5c-0.6,0-1.1,0.1-1.4,0.4s-0.5,0.6-0.5,1c0,0.4,0.2,0.7,0.5,1c0.3,0.2,0.8,0.5,1.5,0.7
		c0.7,0.2,1.2,0.4,1.6,0.6s0.6,0.4,0.8,0.7c0.2,0.3,0.3,0.6,0.3,1c0,0.6-0.2,1.1-0.7,1.5s-1.1,0.5-1.9,0.5c-0.5,0-1-0.1-1.5-0.3
		c-0.5-0.2-0.8-0.5-1-0.8c-0.2-0.3-0.4-0.8-0.4-1.2h0.7c0,0.5,0.2,1,0.6,1.3c0.4,0.3,0.9,0.5,1.6,0.5c0.6,0,1.1-0.1,1.4-0.4
		C185.3,104.3,185.4,103.9,185.4,103.5z"/>
	<path class="st20" d="M189.6,105.5c-0.5,0-0.9-0.1-1.3-0.4s-0.7-0.6-0.9-1c-0.2-0.4-0.3-0.9-0.3-1.4v-0.2c0-0.6,0.1-1,0.3-1.5
		c0.2-0.4,0.5-0.8,0.9-1c0.4-0.3,0.8-0.4,1.2-0.4c0.7,0,1.2,0.2,1.7,0.7c0.4,0.5,0.6,1.1,0.6,1.9v0.4h-4.1v0.1
		c0,0.6,0.2,1.2,0.6,1.6c0.4,0.4,0.8,0.6,1.4,0.6c0.3,0,0.6-0.1,0.9-0.2c0.3-0.1,0.5-0.3,0.7-0.6l0.4,0.3
		C191.1,105.2,190.5,105.5,189.6,105.5z M189.4,100.1c-0.5,0-0.9,0.2-1.2,0.5c-0.3,0.3-0.5,0.8-0.6,1.4h3.4V102c0-0.6-0.2-1-0.5-1.3
		C190.3,100.3,189.9,100.1,189.4,100.1z"/>
	<path class="st20" d="M195.6,100.2c-0.1,0-0.3,0-0.4,0c-0.4,0-0.7,0.1-1,0.3s-0.5,0.5-0.6,1v3.9h-0.6v-5.7h0.6l0,0.9
		c0.3-0.7,0.9-1,1.6-1c0.2,0,0.3,0,0.4,0.1L195.6,100.2z"/>
	<path class="st20" d="M198.5,104.5l1.7-4.9h0.7l-2.1,5.7h-0.5l-2.1-5.7h0.7L198.5,104.5z"/>
	<path class="st20" d="M201.9,98c0-0.1,0-0.2,0.1-0.3c0.1-0.1,0.2-0.1,0.3-0.1c0.1,0,0.2,0,0.3,0.1c0.1,0.1,0.1,0.2,0.1,0.3
		c0,0.1,0,0.2-0.1,0.3c-0.1,0.1-0.2,0.1-0.3,0.1c-0.1,0-0.2,0-0.3-0.1C201.9,98.2,201.9,98.1,201.9,98z M202.6,105.4H202v-5.7h0.6
		V105.4z"/>
	<path class="st20" d="M206.5,105c0.4,0,0.8-0.1,1.1-0.4c0.3-0.2,0.5-0.6,0.5-1h0.6c0,0.3-0.1,0.7-0.3,1c-0.2,0.3-0.5,0.5-0.8,0.7
		c-0.3,0.2-0.7,0.2-1.1,0.2c-0.8,0-1.3-0.3-1.8-0.8s-0.7-1.2-0.7-2.1v-0.2c0-0.6,0.1-1.1,0.3-1.5c0.2-0.4,0.5-0.8,0.8-1
		c0.4-0.2,0.8-0.4,1.3-0.4c0.6,0,1.1,0.2,1.6,0.6c0.4,0.4,0.6,0.9,0.7,1.5H208c0-0.4-0.2-0.8-0.5-1.1s-0.7-0.4-1.1-0.4
		c-0.6,0-1,0.2-1.3,0.6c-0.3,0.4-0.5,1-0.5,1.7v0.2c0,0.7,0.2,1.3,0.5,1.7C205.4,104.8,205.9,105,206.5,105z"/>
	<path class="st20" d="M212.1,105.5c-0.5,0-0.9-0.1-1.3-0.4s-0.7-0.6-0.9-1c-0.2-0.4-0.3-0.9-0.3-1.4v-0.2c0-0.6,0.1-1,0.3-1.5
		c0.2-0.4,0.5-0.8,0.9-1c0.4-0.3,0.8-0.4,1.2-0.4c0.7,0,1.2,0.2,1.7,0.7c0.4,0.5,0.6,1.1,0.6,1.9v0.4h-4.1v0.1
		c0,0.6,0.2,1.2,0.6,1.6c0.4,0.4,0.8,0.6,1.4,0.6c0.3,0,0.6-0.1,0.9-0.2c0.3-0.1,0.5-0.3,0.7-0.6l0.4,0.3
		C213.7,105.2,213,105.5,212.1,105.5z M212,100.1c-0.5,0-0.9,0.2-1.2,0.5c-0.3,0.3-0.5,0.8-0.6,1.4h3.4V102c0-0.6-0.2-1-0.5-1.3
		C212.9,100.3,212.5,100.1,212,100.1z"/>
</g>
<line class="st4" x1="223.7" y1="35.6" x2="241.4" y2="66.8"/>
<line class="st2" x1="223.7" y1="60.4" x2="292.6" y2="62.6"/>
<line class="st3" x1="223.5" y1="88" x2="312" y2="50.6"/>
<line class="st5" x1="223.7" y1="116.5" x2="306.4" y2="27.9"/>
<line class="st6" x1="223.5" y1="17.7" x2="261.1" y2="28.3"/>
</svg>
