<svg id="fc382a7d-47c3-4c5a-91e9-09394d0a7277" data-name="Layer 1" xmlns="http://www.w3.org/2000/svg" xmlns:xlink="http://www.w3.org/1999/xlink" viewBox="0 0 700 500"><defs><style>.a5814cbd-8b69-4102-9559-1a207bfa3f57,.ebbda60f-592e-4b34-8476-6ba1a7f13aa3{fill:#f2f2f2;}.b2fdc122-69c6-4eaa-b6d4-b05e06eb8469{fill:#d7ffed;}.e3153bfa-c182-4b8f-8ff2-7c4aafc16428{fill:#e6e6e6;}.e435fff4-3070-4996-ae4a-e03bdd75499b,.ebbda60f-592e-4b34-8476-6ba1a7f13aa3{stroke:#3dba85;}.a0ce4ca6-a4e8-428d-bd67-97ea9fca482d,.a25f73f6-dab5-403f-905d-7181543e8b8b,.ad846ee4-6d36-4954-aec4-49e5a82551f6,.e435fff4-3070-4996-ae4a-e03bdd75499b,.ebbda60f-592e-4b34-8476-6ba1a7f13aa3,.ecd1156a-462c-4ea4-9875-1412aa8db012{stroke-miterlimit:10;}.ebbda60f-592e-4b34-8476-6ba1a7f13aa3{stroke-width:1px;}.ad0856dc-956b-417d-bade-fc77b854f7f2,.ef003faa-33a9-4a0f-ba1f-6db655539780{opacity:0.25;}.ef003faa-33a9-4a0f-ba1f-6db655539780{fill:url(#ef15a598-80b3-44c3-8135-c891d53d76be);}.fd322d8a-3ad4-4aef-a3c1-3fe0021cd2ff{fill:url(#e28384d6-f6ff-4aae-a6a6-7af5e90f597c);}.b0367d3d-a07f-45e9-b010-4154c0001312{fill:#d35400;}.b7eb82b0-a2a4-4b87-8ee8-4b3f7d15e717{fill:#8ac1bf;}.a99e3a53-4c6e-49f5-afe0-6eb8f98e2e76{opacity:0.88;}.b544bed2-05cf-47cf-af0c-8cdd7185bedf{opacity:0.45;}.f7ba0c7d-1cca-4bec-961e-de9a490e838b{fill:#ccc;}.b0896ead-cc33-4778-b6a1-0fed27d371ba{fill:url(#b1739fd3-f09e-49be-949c-77612189eb49);}.a96a5e02-31c9-4935-873b-9a492da7ef4c,.b5810601-aa5d-49db-b4c2-01d90fce8800,.e084dbaf-96ab-4b17-968f-d655adf516db{opacity:0.43;}.e084dbaf-96ab-4b17-968f-d655adf516db{fill:url(#f19cf4c3-4735-4341-9cba-6c221f4991af);}.e0e49700-47c0-45aa-ac6b-d4437d04537b{opacity:0.58;}.fe39ab2e-7426-437b-bed8-8150f2ba1c17{fill:#f1f2f2;}.b9ec799e-35c5-4e65-ad16-b24dfb873f6f{fill:#4279e8;}.b282f264-a33d-4310-bd62-51d0b149a2a0{fill:#3dba85;}.a0ce4ca6-a4e8-428d-bd67-97ea9fca482d,.a25f73f6-dab5-403f-905d-7181543e8b8b,.a5fba705-4511-4800-a3f3-a967d357a4ce,.a620dcc0-7df4-4fb3-9b5a-f7cb206139cd,.a6b03330-4cc2-4e64-9dd0-572ee181ab56,.ad846ee4-6d36-4954-aec4-49e5a82551f6,.e435fff4-3070-4996-ae4a-e03bdd75499b,.ecd1156a-462c-4ea4-9875-1412aa8db012{fill:none;}.e435fff4-3070-4996-ae4a-e03bdd75499b{stroke-width:0.42px;}.b4f4ee97-04cd-40ce-9ea6-d655bc2fa3db{fill:url(#a4cbba26-181f-4ffd-808c-57e984c38606);}.a2f441fa-d35c-4db7-ae50-d7b3f23f51da{fill:url(#a7eabd35-1cb5-4ca0-9a5c-e42449969d86);}.a9938c39-022f-4627-bc9a-d338322d139c{fill:url(#be11addf-b341-4faa-a878-c2ff4e2c5c68);}.a1c2ebc1-a880-409e-91d3-10585fac8edc{fill:url(#b26b143a-24b5-4ee2-8012-c700b80131f6);}.b3cfdfd3-9d15-4ee5-9923-5becf164fbee{fill:url(#a59dbce9-5acc-49c9-851e-4a72d308d621);}.f3a1e348-3b4c-43ec-b14c-9b7ec4a654d8{fill:url(#b126e0b1-50ef-49b3-aa8a-8a0c56cc38c0);}.fe83dbd8-510e-4b38-9625-45be38e185ad{fill:url(#b445eea8-49e4-4907-b58b-2d5b0c9f75f7);}.badb3cb8-35eb-475f-8612-fa7149b6c3a1{fill:url(#bee14fd2-64a0-4682-a2cd-50368a80d7a5);}.afa33a02-b7f3-4b09-a451-17537c6b1ee0{fill:#f09171;}.a5fba705-4511-4800-a3f3-a967d357a4ce{stroke:#266646;stroke-width:0.73px;}.a5fba705-4511-4800-a3f3-a967d357a4ce,.a620dcc0-7df4-4fb3-9b5a-f7cb206139cd,.a6b03330-4cc2-4e64-9dd0-572ee181ab56{stroke-linejoin:round;}.af2bcf1b-a9ed-40d3-a7a9-a4bda1fbf966{fill:#383838;}.ecd1156a-462c-4ea4-9875-1412aa8db012{stroke:#4b4e54;stroke-width:0.56px;}.ff00f329-e751-4d7f-aeb2-26d6421761a1{fill:#68c1c1;}.a1787775-01f4-4d52-85d2-2a96e754d628{fill:#70cacd;}.a620dcc0-7df4-4fb3-9b5a-f7cb206139cd,.a6b03330-4cc2-4e64-9dd0-572ee181ab56{stroke:#3d7f7d;}.a620dcc0-7df4-4fb3-9b5a-f7cb206139cd{stroke-width:0.62px;}.a6b03330-4cc2-4e64-9dd0-572ee181ab56{stroke-width:0.67px;}.a4763fd1-6401-4c63-9b6c-94d6939bf4ef{fill:#383a45;}.ac01706d-085e-4698-8952-3f49d6fadc57{fill:#d6826b;}.a93c1929-6e37-4382-a14f-dcafd75ae93d{fill:#dd9828;}.af1b11c1-e018-451a-80fe-07e43a682e34{fill:#ffb62d;}.a3d59c3e-baca-4da9-b2cb-35bad8eac18c{fill:#fff;opacity:0.33;}.a27400dd-9e0a-49f5-af09-808b05287c0d{opacity:0.57;}.a96a5e02-31c9-4935-873b-9a492da7ef4c{fill:url(#b251f9f1-81a4-4e9a-8e0f-b655673c171e);}.a25f73f6-dab5-403f-905d-7181543e8b8b{stroke:#fafafa;stroke-linecap:round;stroke-width:1.42px;opacity:0.44;}.b5810601-aa5d-49db-b4c2-01d90fce8800{fill:url(#a20ab53b-a5fc-411d-8563-9d620781cfe2);}.a65e81b8-7f74-4743-9484-f993266d5063{fill:url(#bfc4e0c2-9c50-47e7-9100-add36e1d9e0a);}.a8419f88-4ad0-4d1d-98f5-d0a1a247a454{fill:#666;}.b81d5323-3e38-40dd-b1f1-9e29a78dbb73{fill:url(#fa5cceed-cf9c-4557-9249-81314e608968);}.a1b5ea13-a4b8-4412-b6a2-ea0f2baa57da{fill:url(#b6bf882b-b2ce-4b64-a31d-d4d86685d38d);}.a51da657-e7d6-40d4-8f2c-08a1d0aa401e{fill:url(#ee79a366-4686-4fcc-a002-355eabf79150);}.a0ce4ca6-a4e8-428d-bd67-97ea9fca482d{stroke:url(#a59c0c61-1d4c-4ab0-a2a4-9ed5c14dc0d4);}.bd25b18b-57e4-4a76-b247-c7f6fbc848b6{fill:#f13624;}.ad846ee4-6d36-4954-aec4-49e5a82551f6{stroke:url(#b96192b5-93e3-431c-8fc7-fb6ae1583b97);}</style><linearGradient id="ef15a598-80b3-44c3-8135-c891d53d76be" x1="597" y1="431.45" x2="478.99" y2="305.68" gradientUnits="userSpaceOnUse"><stop offset="0" stop-color="#4279e8" stop-opacity="0"/><stop offset="1" stop-color="#5fb7b7"/></linearGradient><linearGradient id="e28384d6-f6ff-4aae-a6a6-7af5e90f597c" x1="351.63" y1="462.67" x2="351.63" y2="236.19" gradientUnits="userSpaceOnUse"><stop offset="0" stop-color="#e6e6e6" stop-opacity="0"/><stop offset="1" stop-color="#e6e6e6"/></linearGradient><linearGradient id="b1739fd3-f09e-49be-949c-77612189eb49" x1="229.12" y1="229.39" x2="468.97" y2="229.39" gradientTransform="translate(-0.47 0.58) rotate(-0.1)" gradientUnits="userSpaceOnUse"><stop offset="0" stop-color="#4279e8"/><stop offset="1" stop-color="#5fb7b7"/></linearGradient><linearGradient id="f19cf4c3-4735-4341-9cba-6c221f4991af" x1="348.69" y1="229.55" x2="468.88" y2="229.35" gradientTransform="matrix(1, 0, 0, 1, 0, 0)" xlink:href="#b1739fd3-f09e-49be-949c-77612189eb49"/><linearGradient id="a4cbba26-181f-4ffd-808c-57e984c38606" x1="353" y1="483.3" x2="353" y2="425.16" gradientUnits="userSpaceOnUse"><stop offset="0" stop-color="#e6e6e6" stop-opacity="0"/><stop offset="1" stop-color="#5aadbf" stop-opacity="0.43"/></linearGradient><linearGradient id="a7eabd35-1cb5-4ca0-9a5c-e42449969d86" x1="449.63" y1="458" x2="459.79" y2="427.53" xlink:href="#a4cbba26-181f-4ffd-808c-57e984c38606"/><linearGradient id="be11addf-b341-4faa-a878-c2ff4e2c5c68" x1="387.73" y1="454.19" x2="399.47" y2="418.98" gradientTransform="translate(-32.89 30.86) rotate(-4.51)" xlink:href="#a4cbba26-181f-4ffd-808c-57e984c38606"/><linearGradient id="b26b143a-24b5-4ee2-8012-c700b80131f6" x1="257.03" y1="458.56" x2="251.78" y2="429.68" xlink:href="#a4cbba26-181f-4ffd-808c-57e984c38606"/><linearGradient id="a59dbce9-5acc-49c9-851e-4a72d308d621" x1="318.63" y1="455.31" x2="313.38" y2="426.44" gradientTransform="translate(76.43 -48.91) rotate(9.5)" xlink:href="#a4cbba26-181f-4ffd-808c-57e984c38606"/><linearGradient id="b126e0b1-50ef-49b3-aa8a-8a0c56cc38c0" x1="367.77" y1="462.39" x2="362.52" y2="433.52" gradientTransform="translate(76.43 -48.91) rotate(9.5)" xlink:href="#a4cbba26-181f-4ffd-808c-57e984c38606"/><linearGradient id="b445eea8-49e4-4907-b58b-2d5b0c9f75f7" x1="425.16" y1="451.77" x2="419.91" y2="422.89" gradientTransform="translate(76.43 -48.91) rotate(9.5)" xlink:href="#a4cbba26-181f-4ffd-808c-57e984c38606"/><linearGradient id="bee14fd2-64a0-4682-a2cd-50368a80d7a5" x1="320.7" y1="466.33" x2="315.45" y2="437.46" gradientTransform="matrix(-0.96, 0.27, 0.27, 0.96, 464.3, -70.57)" xlink:href="#a4cbba26-181f-4ffd-808c-57e984c38606"/><linearGradient id="b251f9f1-81a4-4e9a-8e0f-b655673c171e" x1="621.77" y1="419.06" x2="643.09" y2="419.06" gradientTransform="translate(471.86 -325.32) rotate(43.94)" xlink:href="#b1739fd3-f09e-49be-949c-77612189eb49"/><linearGradient id="a20ab53b-a5fc-411d-8563-9d620781cfe2" x1="628.93" y1="438.73" x2="686.43" y2="438.73" gradientTransform="translate(471.86 -325.32) rotate(43.94)" xlink:href="#b1739fd3-f09e-49be-949c-77612189eb49"/><linearGradient id="bfc4e0c2-9c50-47e7-9100-add36e1d9e0a" x1="541.14" y1="367.04" x2="555.77" y2="367.04" gradientTransform="matrix(1, 0, 0, 1, 0, 0)" xlink:href="#b1739fd3-f09e-49be-949c-77612189eb49"/><linearGradient id="fa5cceed-cf9c-4557-9249-81314e608968" x1="612.96" y1="336.76" x2="687.21" y2="200.82" xlink:href="#ef15a598-80b3-44c3-8135-c891d53d76be"/><linearGradient id="b6bf882b-b2ce-4b64-a31d-d4d86685d38d" x1="617.11" y1="339.03" x2="691.36" y2="203.08" xlink:href="#ef15a598-80b3-44c3-8135-c891d53d76be"/><linearGradient id="ee79a366-4686-4fcc-a002-355eabf79150" x1="583.46" y1="320.65" x2="657.71" y2="184.7" xlink:href="#ef15a598-80b3-44c3-8135-c891d53d76be"/><linearGradient id="a59c0c61-1d4c-4ab0-a2a4-9ed5c14dc0d4" x1="471.02" y1="370.69" x2="494.68" y2="327.38" gradientTransform="translate(-105.5 319.84) rotate(-33)" gradientUnits="userSpaceOnUse"><stop offset="0" stop-color="#5fb7b7"/><stop offset="1" stop-color="#4279e8" stop-opacity="0"/></linearGradient><linearGradient id="b96192b5-93e3-431c-8fc7-fb6ae1583b97" x1="581.96" y1="388.9" x2="605.62" y2="345.58" gradientTransform="matrix(-0.85, 0.53, 0.53, 0.85, 900.55, -307.18)" xlink:href="#a59c0c61-1d4c-4ab0-a2a4-9ed5c14dc0d4"/></defs><title>How_we_do_illustration</title><rect class="a5814cbd-8b69-4102-9559-1a207bfa3f57" x="508.42" y="122.76" width="51.21" height="16.41"/><rect class="b2fdc122-69c6-4eaa-b6d4-b05e06eb8469" x="482.82" y="148.91" width="76.81" height="16.41"/><rect class="a5814cbd-8b69-4102-9559-1a207bfa3f57" x="463.4" y="175.1" width="57.83" height="16.41"/><rect class="a5814cbd-8b69-4102-9559-1a207bfa3f57" x="362.37" y="201.3" width="77.35" height="16.41"/><rect class="a5814cbd-8b69-4102-9559-1a207bfa3f57" x="286.4" y="201.3" width="64.45" height="16.41"/><rect class="a5814cbd-8b69-4102-9559-1a207bfa3f57" x="493.94" y="201.3" width="27.28" height="16.41"/><rect class="a5814cbd-8b69-4102-9559-1a207bfa3f57" x="532.4" y="227.49" width="28.47" height="16.41"/><rect class="a5814cbd-8b69-4102-9559-1a207bfa3f57" x="441.25" y="227.49" width="78.29" height="16.41"/><rect class="e3153bfa-c182-4b8f-8ff2-7c4aafc16428" x="525.77" y="253.69" width="35.09" height="16.41"/><rect class="a5814cbd-8b69-4102-9559-1a207bfa3f57" x="480.4" y="253.69" width="29.8" height="16.41"/><rect class="a5814cbd-8b69-4102-9559-1a207bfa3f57" x="413.65" y="253.69" width="49.75" height="16.41"/><rect class="a5814cbd-8b69-4102-9559-1a207bfa3f57" x="347.89" y="253.69" width="49.75" height="16.41"/><rect class="a5814cbd-8b69-4102-9559-1a207bfa3f57" x="532.4" y="279.89" width="28.47" height="16.41"/><rect class="a5814cbd-8b69-4102-9559-1a207bfa3f57" x="441.25" y="279.89" width="75.13" height="16.41"/><rect class="a5814cbd-8b69-4102-9559-1a207bfa3f57" x="532.4" y="306.08" width="28.47" height="16.41"/><rect class="b2fdc122-69c6-4eaa-b6d4-b05e06eb8469" x="493.15" y="306.08" width="28.47" height="16.41"/><rect class="a5814cbd-8b69-4102-9559-1a207bfa3f57" x="455.59" y="306.08" width="28.47" height="16.41"/><rect class="a5814cbd-8b69-4102-9559-1a207bfa3f57" x="382.88" y="306.08" width="61.54" height="16.41"/><rect class="a5814cbd-8b69-4102-9559-1a207bfa3f57" x="333.4" y="306.08" width="41.12" height="16.41"/><rect class="a5814cbd-8b69-4102-9559-1a207bfa3f57" x="428.7" y="122.76" width="65.24" height="16.41"/><rect class="a5814cbd-8b69-4102-9559-1a207bfa3f57" x="341.76" y="122.76" width="75.13" height="16.41"/><rect class="a5814cbd-8b69-4102-9559-1a207bfa3f57" x="243.05" y="122.76" width="86.74" height="16.41"/><rect class="e3153bfa-c182-4b8f-8ff2-7c4aafc16428" x="188.43" y="122.76" width="41.02" height="16.41"/><rect class="a5814cbd-8b69-4102-9559-1a207bfa3f57" x="353.57" y="94.34" width="30.69" height="16.41"/><rect class="a5814cbd-8b69-4102-9559-1a207bfa3f57" x="452.28" y="201.3" width="30.69" height="16.41"/><rect class="a5814cbd-8b69-4102-9559-1a207bfa3f57" x="440.71" y="148.91" width="30.69" height="16.41"/><rect class="a5814cbd-8b69-4102-9559-1a207bfa3f57" x="422.13" y="175.1" width="30.69" height="16.41"/><rect class="a5814cbd-8b69-4102-9559-1a207bfa3f57" x="326.43" y="94.34" width="15.32" height="16.41"/><rect class="b2fdc122-69c6-4eaa-b6d4-b05e06eb8469" x="276.81" y="94.34" width="39.79" height="16.41"/><rect class="e3153bfa-c182-4b8f-8ff2-7c4aafc16428" x="221.06" y="94.34" width="43.89" height="16.41"/><rect class="a5814cbd-8b69-4102-9559-1a207bfa3f57" x="383.89" y="147.82" width="22.56" height="22.56" transform="translate(790.35 318.2) rotate(-180)"/><rect class="ebbda60f-592e-4b34-8476-6ba1a7f13aa3" x="380" y="144.02" width="30.36" height="30.36" transform="translate(790.35 318.4) rotate(-180)"/><rect class="a5814cbd-8b69-4102-9559-1a207bfa3f57" x="343.92" y="147.82" width="22.56" height="22.56" transform="translate(710.4 318.2) rotate(-180)"/><circle class="ef003faa-33a9-4a0f-ba1f-6db655539780" cx="564.01" cy="396.29" r="68.34"/><rect class="fd322d8a-3ad4-4aef-a3c1-3fe0021cd2ff" x="251.7" y="229.39" width="199.88" height="236.61"/><path class="b0367d3d-a07f-45e9-b010-4154c0001312" d="M276.83,139.06l-5-.05a1.34,1.34,0,0,1-.74-1.23c-.06-.81-.18-1.62-.27-2.43,0-.2-.09-.27-.28-.35-.93-.38-1.86-.77-2.79-1.18a.35.35,0,0,0-.44,0l-2.12,1.63a1,1,0,0,1-1.5-.1l-2.9-3a1,1,0,0,1-.08-1.51c.55-.69,1.09-1.39,1.65-2.07a.36.36,0,0,0,.06-.44q-.58-1.41-1.14-2.85a.34.34,0,0,0-.32-.26c-.88-.1-1.75-.23-2.62-.34a1,1,0,0,1-1-1.15c0-1.38,0-2.75,0-4.12a1,1,0,0,1,1.06-1.16l2.63-.29c.19,0,.25-.1.31-.27.39-.93.78-1.86,1.19-2.79a.38.38,0,0,0-.06-.47c-.55-.69-1.08-1.39-1.62-2.09a1,1,0,0,1,.11-1.5l3-2.93a1,1,0,0,1,1.49-.06c.7.56,1.4,1.11,2.09,1.68a.33.33,0,0,0,.41,0c.95-.39,1.9-.78,2.85-1.15.16-.06.25-.12.27-.31.1-.87.23-1.75.34-2.62a1,1,0,0,1,1.14-1l4.16,0a1,1,0,0,1,1.13,1c.09.87.2,1.73.28,2.6a.39.39,0,0,0,.3.37q1.4.56,2.76,1.17a.39.39,0,0,0,.47,0c.7-.56,1.41-1.1,2.12-1.64a1,1,0,0,1,1.47.11c1,1,2,2,2.93,3a1,1,0,0,1,.08,1.5c-.55.7-1.11,1.39-1.67,2.08a.35.35,0,0,0-.06.42c.4,1,.77,1.92,1.17,2.87a.45.45,0,0,0,.28.24c.82.13,1.63.26,2.45.33a1.32,1.32,0,0,1,1.22.77l0,5a1.37,1.37,0,0,1-1.24.75c-.81,0-1.61.18-2.42.26a.36.36,0,0,0-.35.27c-.38.94-.77,1.87-1.18,2.8a.39.39,0,0,0,.05.47c.55.69,1.08,1.39,1.62,2.09a1,1,0,0,1-.1,1.49l-3,2.93a1,1,0,0,1-1.49.07c-.69-.55-1.38-1.1-2.06-1.66a.39.39,0,0,0-.47-.06c-.92.39-1.85.76-2.79,1.13-.18.07-.28.13-.31.35-.09.81-.24,1.61-.3,2.42A1.35,1.35,0,0,1,276.83,139.06Zm6.25-17.1a8.57,8.57,0,1,0-8.66,8.5A8.58,8.58,0,0,0,283.08,122Z"/><path class="b7eb82b0-a2a4-4b87-8ee8-4b3f7d15e717" d="M423.07,153.27l-6-.06a1.64,1.64,0,0,1-.92-1.5c-.06-1-.22-2-.32-3,0-.24-.12-.33-.34-.42-1.14-.47-2.27-1-3.4-1.45a.47.47,0,0,0-.55.05c-.85.67-1.71,1.33-2.58,2a1.24,1.24,0,0,1-1.82-.13l-3.54-3.61a1.25,1.25,0,0,1-.1-1.85c.67-.84,1.34-1.68,2-2.51a.44.44,0,0,0,.07-.54c-.48-1.15-.94-2.31-1.39-3.47a.4.4,0,0,0-.39-.32l-3.2-.41a1.28,1.28,0,0,1-1.25-1.41c0-1.68,0-3.35.05-5a1.27,1.27,0,0,1,1.29-1.41c1.07-.11,2.14-.25,3.2-.35.24,0,.31-.14.39-.33.47-1.14.94-2.28,1.45-3.41a.48.48,0,0,0-.07-.57c-.67-.85-1.32-1.7-2-2.55a1.25,1.25,0,0,1,.13-1.82l3.64-3.57a1.24,1.24,0,0,1,1.82-.08c.85.68,1.71,1.35,2.55,2a.41.41,0,0,0,.5.06c1.15-.48,2.31-1,3.47-1.4.2-.08.31-.15.33-.38.13-1.07.28-2.13.41-3.2a1.28,1.28,0,0,1,1.4-1.26l5.06,0a1.27,1.27,0,0,1,1.38,1.29c.11,1,.25,2.11.35,3.16,0,.26.13.35.36.45,1.13.46,2.25.94,3.37,1.43a.47.47,0,0,0,.57-.05c.86-.68,1.72-1.34,2.59-2a1.23,1.23,0,0,1,1.78.13q1.8,1.81,3.58,3.64a1.25,1.25,0,0,1,.1,1.82L435,123.88a.42.42,0,0,0-.07.5c.49,1.16.94,2.34,1.43,3.5a.52.52,0,0,0,.34.29c1,.16,2,.32,3,.4a1.65,1.65,0,0,1,1.49.94l-.06,6.05a1.63,1.63,0,0,1-1.5.91c-1,.06-2,.22-3,.32a.44.44,0,0,0-.42.33c-.46,1.15-.94,2.28-1.44,3.41a.45.45,0,0,0,.07.57l2,2.55a1.24,1.24,0,0,1-.12,1.82L433.06,149a1.25,1.25,0,0,1-1.82.08c-.84-.66-1.68-1.33-2.51-2a.47.47,0,0,0-.57-.08c-1.13.48-2.26.93-3.39,1.37-.23.09-.35.17-.38.43-.11,1-.3,2-.38,2.95A1.65,1.65,0,0,1,423.07,153.27Zm7.62-20.84a10.45,10.45,0,1,0-10.57,10.36A10.47,10.47,0,0,0,430.69,132.43Z"/><g class="a99e3a53-4c6e-49f5-afe0-6eb8f98e2e76"><g class="b544bed2-05cf-47cf-af0c-8cdd7185bedf"><path class="f7ba0c7d-1cca-4bec-961e-de9a490e838b" d="M30.15,117s.16,0,.18,0h79.45c12.49,0,16.36-.4,28.83,0,.14-7.69-2-14.95-5.68-18.83-3-3.19-8.23-4.94-12.48-3.82-5.38,1.43-9,5-12.52,7.7-1.23-10.6-5.61-20.26-10.32-22.37C89.5,76,81,81.76,77.23,87.35A34.88,34.88,0,0,0,71.74,103c-5.09-5.63-16.47-9.92-20.56-1-1.61,3.5-1.48,7.52-1.32,11.38A23.64,23.64,0,0,0,30.15,117Z"/></g><g class="b544bed2-05cf-47cf-af0c-8cdd7185bedf"><path class="f7ba0c7d-1cca-4bec-961e-de9a490e838b" d="M563.21,69c-1.53-6.22-16-15.31-23.72-9.83-2.38-11.84-4.6-19.23-12.35-25.07s-20.69,1.8-22.76,17.77c-2.07-6.58-12.64-15.42-21.13-7.95-7.85,6.9-8.63,18.49-7.82,25.08Z"/></g><g class="b544bed2-05cf-47cf-af0c-8cdd7185bedf"><path class="f7ba0c7d-1cca-4bec-961e-de9a490e838b" d="M692.85,120.3c-2.39-5.89-6.91-9-12.26-9.65-6.73-.74-13.57,3.13-13.57,3.13s2.53-9.73-.9-17.39C663.77,91.16,660,86.25,654.85,85c-5.37-1.33-11.07,1.29-15.07,5.43S633.2,100,630.9,105.5c-1.18-3.89-2.76-8.24-6.27-9.68s-7.83,1.08-9.73,4.77-2,8.16-1.74,12.39c-4.21-2.53-9.58-3.27-13.79-.75a11.27,11.27,0,0,0-5,8.07Z"/></g></g><path class="b0896ead-cc33-4778-b6a1-0fed27d371ba" d="M468.78,168.69s-17,174-119.63,205.47C246.46,343,228.93,169.09,228.93,169.09c65.9-.11,119.79-84.48,119.79-84.48S402.88,168.8,468.78,168.69Z"/><path class="e084dbaf-96ab-4b17-968f-d655adf516db" d="M468.78,168.69s-17,174-119.63,205.47l-.22-.06V84.94C352.64,90.57,405.26,168.8,468.78,168.69Z"/><g class="e0e49700-47c0-45aa-ac6b-d4437d04537b"><rect class="fe39ab2e-7426-437b-bed8-8150f2ba1c17" x="356.71" y="191.29" width="21.24" height="6.81"/><rect class="fe39ab2e-7426-437b-bed8-8150f2ba1c17" x="356.71" y="202.13" width="31.86" height="6.81"/><rect class="fe39ab2e-7426-437b-bed8-8150f2ba1c17" x="372.64" y="213" width="23.99" height="6.81"/><rect class="fe39ab2e-7426-437b-bed8-8150f2ba1c17" x="372.64" y="223.86" width="11.32" height="6.81"/><rect class="fe39ab2e-7426-437b-bed8-8150f2ba1c17" x="356.2" y="234.73" width="11.81" height="6.81"/><rect class="fe39ab2e-7426-437b-bed8-8150f2ba1c17" x="373.34" y="234.73" width="32.47" height="6.81"/><rect class="b9ec799e-35c5-4e65-ad16-b24dfb873f6f" x="356.2" y="245.59" width="14.56" height="6.81"/><rect class="b0367d3d-a07f-45e9-b010-4154c0001312" x="377.21" y="245.59" width="12.36" height="6.81"/><rect class="fe39ab2e-7426-437b-bed8-8150f2ba1c17" x="396.63" y="245.59" width="20.63" height="6.81"/><rect class="fe39ab2e-7426-437b-bed8-8150f2ba1c17" x="356.2" y="256.46" width="11.81" height="6.81"/><rect class="fe39ab2e-7426-437b-bed8-8150f2ba1c17" x="374.65" y="256.46" width="31.16" height="6.81"/><rect class="b282f264-a33d-4310-bd62-51d0b149a2a0" x="356.2" y="267.33" width="11.81" height="6.81"/><rect class="fe39ab2e-7426-437b-bed8-8150f2ba1c17" x="372.48" y="267.33" width="11.81" height="6.81"/><rect class="fe39ab2e-7426-437b-bed8-8150f2ba1c17" x="388.06" y="267.33" width="11.81" height="6.81"/><rect class="b9ec799e-35c5-4e65-ad16-b24dfb873f6f" x="404.5" y="267.33" width="25.52" height="6.81"/><rect class="fe39ab2e-7426-437b-bed8-8150f2ba1c17" x="383.96" y="191.29" width="27.06" height="6.81"/><rect class="fe39ab2e-7426-437b-bed8-8150f2ba1c17" x="415.92" y="191.29" width="31.16" height="6.81"/><rect class="fe39ab2e-7426-437b-bed8-8150f2ba1c17" x="429.45" y="179.5" width="12.73" height="6.81"/><rect class="fe39ab2e-7426-437b-bed8-8150f2ba1c17" x="388.51" y="223.86" width="12.73" height="6.81"/><rect class="b9ec799e-35c5-4e65-ad16-b24dfb873f6f" x="393.31" y="202.13" width="12.73" height="6.81"/><rect class="fe39ab2e-7426-437b-bed8-8150f2ba1c17" x="401.02" y="213" width="12.73" height="6.81"/><rect class="b282f264-a33d-4310-bd62-51d0b149a2a0" x="420.25" y="201.68" width="9.36" height="9.36"/><rect class="e435fff4-3070-4996-ae4a-e03bdd75499b" x="418.63" y="200.11" width="12.59" height="12.59"/><rect class="fe39ab2e-7426-437b-bed8-8150f2ba1c17" x="356.71" y="278.35" width="21.24" height="6.81"/><rect class="fe39ab2e-7426-437b-bed8-8150f2ba1c17" x="356.71" y="289.2" width="31.86" height="6.81"/><rect class="fe39ab2e-7426-437b-bed8-8150f2ba1c17" x="372.64" y="300.07" width="23.99" height="6.81"/><rect class="fe39ab2e-7426-437b-bed8-8150f2ba1c17" x="372.64" y="310.93" width="11.32" height="6.81"/><rect class="fe39ab2e-7426-437b-bed8-8150f2ba1c17" x="356.2" y="321.8" width="11.81" height="6.81"/><rect class="fe39ab2e-7426-437b-bed8-8150f2ba1c17" x="373.34" y="321.8" width="32.47" height="6.81"/><rect class="b9ec799e-35c5-4e65-ad16-b24dfb873f6f" x="356.2" y="332.66" width="14.56" height="6.81"/><rect class="b0367d3d-a07f-45e9-b010-4154c0001312" x="377.21" y="332.66" width="12.36" height="6.81"/><rect class="fe39ab2e-7426-437b-bed8-8150f2ba1c17" x="356.2" y="343.53" width="11.81" height="6.81"/><rect class="fe39ab2e-7426-437b-bed8-8150f2ba1c17" x="374.65" y="343.53" width="5.62" height="6.81"/><rect class="b282f264-a33d-4310-bd62-51d0b149a2a0" x="356.2" y="354.39" width="11.81" height="6.81"/><rect class="fe39ab2e-7426-437b-bed8-8150f2ba1c17" x="388.51" y="310.93" width="12.73" height="6.81"/><rect class="b9ec799e-35c5-4e65-ad16-b24dfb873f6f" x="393.31" y="289.2" width="12.73" height="6.81"/><rect class="fe39ab2e-7426-437b-bed8-8150f2ba1c17" x="401.02" y="300.07" width="12.73" height="6.81"/></g><ellipse class="b4f4ee97-04cd-40ce-9ea6-d655bc2fa3db" cx="353" cy="466.5" rx="137" ry="12.5"/><path class="a2f441fa-d35c-4db7-ae50-d7b3f23f51da" d="M489.66,469.32a12.68,12.68,0,0,0-9.77-9.31c-5.74-1.2-11.95,1.58-11.95,1.58s3-8.18.65-15.06c-1.6-4.69-4.41-9.22-8.77-10.76-4.52-1.58-9.64.21-13.42,3.45s-6.46,7.75-8.89,12.28c-.7-3.44-1.71-7.32-4.61-8.85s-6.83.29-8.77,3.32-2.39,6.86-2.51,10.53c-3.43-2.52-8-3.6-11.82-1.77a9.7,9.7,0,0,0-5,6.53Z"/><path class="a9938c39-022f-4627-bc9a-d338322d139c" d="M436.49,462.57c-2.3-5.93-6.77-9.16-12.1-9.84-6.72-.86-13.62,2.9-13.62,2.9s2.69-9.68-.63-17.4c-2.26-5.26-5.92-10.23-11.08-11.6-5.35-1.42-11.08,1.11-15.15,5.19s-6.74,9.52-9.12,15c-1.12-3.91-2.63-8.28-6.12-9.78s-7.84,1-9.8,4.62-2.13,8.13-1.94,12.36c-4.17-2.6-9.53-3.43-13.78-1a11.21,11.21,0,0,0-5.16,8Z"/><path class="a1c2ebc1-a880-409e-91d3-10585fac8edc" d="M296.54,453.59s-.11,0-.12,0l-20.59,4.09L239.29,465c-9,1.79-11.82,2.06-20.74,4.1-1.2-5.51-.7-11,1.4-14.36a9.89,9.89,0,0,1,8.42-4.52c4.08.25,7.22,2.32,10.11,3.74-.63-7.8,1.14-15.37,4.22-17.56,5.31-3.77,12.22-.84,15.76,2.63a25.46,25.46,0,0,1,6.17,10.45c2.86-4.77,10.43-9.49,14.65-3.66,1.66,2.29,2.14,5.2,2.57,8A17.35,17.35,0,0,1,296.54,453.59Z"/><path class="b3cfdfd3-9d15-4ee5-9923-5becf164fbee" d="M355.34,454.36a.62.62,0,0,0-.13,0l-21,.63L297,456.14c-9.16.28-12,.07-21.13.62-.28-5.64,1.13-11,3.74-13.94a9.91,9.91,0,0,1,9.06-3.07c4,.93,6.73,3.48,9.35,5.36.66-7.79,3.66-15,7.06-16.62,5.86-2.84,12.19,1.18,15.11,5.2A25.53,25.53,0,0,1,324.55,445c3.61-4.24,11.85-7.64,15.05-1.19,1.26,2.53,1.25,5.48,1.22,8.31A17.32,17.32,0,0,1,355.34,454.36Z"/><path class="f3a1e348-3b4c-43ec-b14c-9b7ec4a654d8" d="M402.64,469.46s-.11,0-.13,0l-21,.64-37.24,1.13c-9.16.28-12,.07-21.13.62-.28-5.64,1.13-11,3.75-13.93a9.87,9.87,0,0,1,9-3.07c4,.92,6.73,3.48,9.35,5.36.67-7.8,3.66-15,7.07-16.63,5.85-2.84,12.19,1.19,15.1,5.2a25.52,25.52,0,0,1,4.37,11.32c3.6-4.23,11.84-7.63,15-1.19,1.26,2.53,1.25,5.48,1.21,8.31A17.34,17.34,0,0,1,402.64,469.46Z"/><path class="fe83dbd8-510e-4b38-9625-45be38e185ad" d="M461,468.45h-.13l-21,.64-37.24,1.14c-9.15.28-12,.07-21.13.61-.27-5.63,1.14-11,3.75-13.93a9.9,9.9,0,0,1,9.06-3.07c4,.92,6.73,3.48,9.34,5.36.67-7.79,3.67-15,7.07-16.62,5.86-2.84,12.19,1.18,15.1,5.19a25.52,25.52,0,0,1,4.37,11.32c3.61-4.23,11.85-7.63,15.05-1.18,1.26,2.53,1.25,5.48,1.22,8.3A17.35,17.35,0,0,1,461,468.45Z"/><path class="badb3cb8-35eb-475f-8612-fa7149b6c3a1" d="M244.31,471.85s.12,0,.13,0l20.93-1.7,37.12-3c9.14-.74,11.93-1.27,21.07-1.74-.35-5.64-2.35-10.81-5.28-13.43a9.87,9.87,0,0,0-9.34-2c-3.85,1.36-6.3,4.21-8.69,6.37-1.53-7.67-5.31-14.47-8.88-15.73-6.13-2.17-12,2.53-14.43,6.85a25.46,25.46,0,0,0-3.07,11.73c-4.06-3.8-12.63-6.26-15.09.5-1,2.66-.63,5.59-.28,8.39A17.37,17.37,0,0,0,244.31,471.85Z"/><ellipse class="a5814cbd-8b69-4102-9559-1a207bfa3f57" cx="123.95" cy="468.35" rx="61.52" ry="7"/><path class="a5814cbd-8b69-4102-9559-1a207bfa3f57" d="M96.66,355.29c-.33-3.92-1-7.82-1.49-11.74-.12-1.06-.62-1.37-1.51-1.71-4.52-1.76-9-3.56-13.49-5.45a1.87,1.87,0,0,0-2.28.3c-3.3,2.71-6.65,5.36-10,8-2.48,2-5,1.85-7.24-.35q-7.27-7.08-14.5-14.19c-2.27-2.24-2.42-4.68-.47-7.23,2.59-3.39,5.19-6.79,7.84-10.14a1.88,1.88,0,0,0,.27-2.29q-3-6.72-5.74-13.54a1.77,1.77,0,0,0-1.69-1.34c-3.92-.39-7.83-1-11.76-1.26-2.75-.18-4.73-1.2-6-3.64l-.22-24c1.19-2.49,3.17-3.52,5.91-3.75,4-.33,7.94-1,11.89-1.58a2.18,2.18,0,0,0,1.38-1.16c1.93-4.63,3.74-9.3,5.68-13.93a1.67,1.67,0,0,0-.3-2q-4.1-5-8.12-10.13c-2-2.48-1.84-5,.39-7.24q7.1-7.26,14.23-14.47c2.18-2.21,4.66-2.39,7.11-.53,3.44,2.63,6.88,5.25,10.27,8a1.88,1.88,0,0,0,2.29.21q6.66-3,13.4-5.7A1.87,1.87,0,0,0,94,212.57c.41-4.2,1-8.38,1.38-12.58.34-3.31,2.18-5.08,5.49-5.11l20.13-.19c3.3,0,5.17,1.71,5.57,5,.52,4.24,1.14,8.47,1.63,12.71.11.92.52,1.21,1.32,1.52q6.93,2.7,13.8,5.57a1.69,1.69,0,0,0,2-.22c3.34-2.74,6.73-5.44,10.12-8.13,2.5-2,5-1.9,7.24.31q7.26,7.08,14.49,14.21c2.27,2.23,2.43,4.7.5,7.24-2.59,3.39-5.19,6.79-7.84,10.14a1.91,1.91,0,0,0-.28,2.3c2,4.48,3.9,9,5.76,13.54.32.78.59,1.22,1.53,1.31,4.25.41,8.49.95,12.74,1.38,3.38.35,5.12,2.19,5.16,5.62q.09,10,.18,20c0,3.33-1.69,5.2-5,5.61-4.24.52-8.47,1.13-12.71,1.63a1.64,1.64,0,0,0-1.55,1.28c-1.79,4.63-3.63,9.23-5.56,13.8a1.78,1.78,0,0,0,.3,2.15c2.71,3.3,5.36,6.65,8,10,2.05,2.58,1.93,5-.38,7.36q-7,7.2-14.1,14.37c-2.25,2.28-4.7,2.46-7.23.52-3.45-2.62-6.89-5.25-10.28-7.93a1.78,1.78,0,0,0-2.16-.19q-6.73,3-13.55,5.75a1.76,1.76,0,0,0-1.36,1.67c-.39,3.93-1,7.84-1.26,11.77-.18,2.75-1.2,4.73-3.63,6l-24,.22C97.94,360,96.89,358,96.66,355.29Zm15.47-35.8a41.57,41.57,0,1,0-42-41.18A41.65,41.65,0,0,0,112.13,319.49Z"/><path class="afa33a02-b7f3-4b09-a451-17537c6b1ee0" d="M116.69,366.76s5.55,22.94,5.84,41.92,3.4,50.85,3.4,50.85l8.54,1.22,6.44-1.35a406.65,406.65,0,0,1-2.2-49.75c.69-25.6-4.1-60-4.1-60"/><path class="b282f264-a33d-4310-bd62-51d0b149a2a0" d="M157.45,466.6a4.22,4.22,0,0,0-1.42-2.4l-14-6.47c-7.88,2.95-17.91.27-17.91.27l-2.09,10.6a.64.64,0,0,0,.63.65l34.44.75C157.82,470,157.46,466.63,157.45,466.6Z"/><path class="a5fba705-4511-4800-a3f3-a967d357a4ce" d="M145.09,458.42a16.39,16.39,0,0,0-2.08,3.3"/><path class="a5fba705-4511-4800-a3f3-a967d357a4ce" d="M146.85,459.53a15.09,15.09,0,0,0-1.72,2.81"/><path class="a5fba705-4511-4800-a3f3-a967d357a4ce" d="M148.33,460.35a22.1,22.1,0,0,0-1.61,2.57"/><line class="a5fba705-4511-4800-a3f3-a967d357a4ce" x1="122.28" y1="466.94" x2="157.57" y2="467.7"/><path class="a5fba705-4511-4800-a3f3-a967d357a4ce" d="M123.4,461.76s8.28.39,8.86,5.4"/><path class="a5fba705-4511-4800-a3f3-a967d357a4ce" d="M153.17,462.88a27.11,27.11,0,0,0-2.87,4.67"/><path class="afa33a02-b7f3-4b09-a451-17537c6b1ee0" d="M97.6,365.68s4.25,23.22,3.48,42.18.33,52.15.33,52.15l8.68.51,6.51-1a405.6,405.6,0,0,1,.59-49.79c2.11-25.53-.75-60.17-.75-60.17"/><path class="b282f264-a33d-4310-bd62-51d0b149a2a0" d="M133.82,466a4.26,4.26,0,0,0-1.51-2.34l-14.22-5.94c-7.76,3.24-17.89.93-17.89.93l-1.69,10.67a.64.64,0,0,0,.65.63l34.45-.54C134.31,469.43,133.83,466.06,133.82,466Z"/><path class="a5fba705-4511-4800-a3f3-a967d357a4ce" d="M121.16,458.32a17.22,17.22,0,0,0-2,3.37"/><path class="a5fba705-4511-4800-a3f3-a967d357a4ce" d="M123,459.37a15.36,15.36,0,0,0-1.61,2.87"/><path class="a5fba705-4511-4800-a3f3-a967d357a4ce" d="M124.47,460.13a20.8,20.8,0,0,0-1.51,2.63"/><line class="a5fba705-4511-4800-a3f3-a967d357a4ce" x1="98.68" y1="467.69" x2="133.97" y2="467.13"/><path class="a5fba705-4511-4800-a3f3-a967d357a4ce" d="M99.6,462.47s8.3.08,9.06,5.06"/><path class="a5fba705-4511-4800-a3f3-a967d357a4ce" d="M129.39,462.47a26.79,26.79,0,0,0-2.68,4.78"/><path class="af2bcf1b-a9ed-40d3-a7a9-a4bda1fbf966" d="M104.61,304.53a122.19,122.19,0,0,0-6.87,28c-1.58,14.61-3.24,36-3.24,36s22.53,5,44.27-.84c-.83-12.15,0-46.16-7.59-63.17"/><path class="ecd1156a-462c-4ea4-9875-1412aa8db012" d="M96.26,367.61s1.87-31.15,4.17-42.65c1.37-6.85,1.86-8.63,5.58-19.29"/><path class="ecd1156a-462c-4ea4-9875-1412aa8db012" d="M114,308.65s-.88,5.77-9.29,7.93"/><path class="ff00f329-e751-4d7f-aeb2-26d6421761a1" d="M153.29,273.48l-10,10.47a81.1,81.1,0,0,1-13.51-9.78c-3-3.11-6.06-22.09-2.13-21.64C134.18,256.8,153.29,273.48,153.29,273.48Z"/><path class="a1787775-01f4-4d52-85d2-2a96e754d628" d="M103.83,268.66s-.38,22.73.6,35.87a93.77,93.77,0,0,0,28.14,3.56l.38-24.21c6.91-9.83.85-22.56.85-22.56l-8.56-12-8.56-.66-4.13,1.16a12.25,12.25,0,0,0-8.92,12.14Z"/><line class="a620dcc0-7df4-4fb3-9b5a-f7cb206139cd" x1="151.1" y1="271.37" x2="140.99" y2="282.56"/><path class="a6b03330-4cc2-4e64-9dd0-572ee181ab56" d="M113.57,279.26c-1-2.24-3.61-5.44-3.83-7.85"/><path class="a4763fd1-6401-4c63-9b6c-94d6939bf4ef" d="M102.87,275.07c1.61-1.5-3.66-4-4.27-8.13-.89-6.06-1-11.38-.68-13.42.9-5,2.26-10.34,6.69-12.56,3.45-1.73,1.74-11.32,2.8-14.74a13.4,13.4,0,0,1,2.28-4.22c3.55-4.45,8.88-5.65,14.49-4.64,3.46.63,3.53.22,6.72,1.7,1.26.59,1.75,2.34,2.75,3.33a11.25,11.25,0,0,1,2.14,3.51"/><path class="a1787775-01f4-4d52-85d2-2a96e754d628" d="M131.44,242.29c-1.1-.47-4,1.51-5.19,2a67.39,67.39,0,0,0-8.06,4.36c-3.4,2.14-6.4,3.66-9,6.65a26,26,0,0,0-5.41,18.53"/><path class="afa33a02-b7f3-4b09-a451-17537c6b1ee0" d="M121.25,256.44l.5,0c2.37.14,4.4-1.13,4.78-3h0l2.45-12-11,1.52-.71,4.71-.64,4.18C116.23,254.16,118.41,256.27,121.25,256.44Z"/><path class="ac01706d-085e-4698-8952-3f49d6fadc57" d="M120.48,248.18c1,2.95,2.85,5,5.19,5.32a2.76,2.76,0,0,0,.86,0l2.45-12-7.81,2Z"/><path class="afa33a02-b7f3-4b09-a451-17537c6b1ee0" d="M134.34,229a23.41,23.41,0,0,1,.18,4.68,2.6,2.6,0,0,0,.57,2l2.25,2.65a.77.77,0,0,1,0,1,3,3,0,0,1-1.59,1.1,15.64,15.64,0,0,1-2.85,6.74,4.65,4.65,0,0,1-2.93,1.64c-12.24,1.84-17.41-3.91-17.52-16a10.45,10.45,0,0,1,2.76-7.16c2.83-3.07,8.41-7.65,14.34-4.14A10.14,10.14,0,0,1,134.34,229Z"/><path class="a4763fd1-6401-4c63-9b6c-94d6939bf4ef" d="M114.84,221.26c3.54-3.73,8.71-4.37,13.52-3.24,2,.48,5.65,2.27,6.9,4.2,4.25,6.56-2,7.55-3.22,7.7a10.9,10.9,0,0,0-1.1-2.76c-1.17,1.79-2.73,3.27-3.63,5.21a18.19,18.19,0,0,0-1.11,4.85c-1.37-1.09-1.69-2.88-3.84-2.76a4,4,0,0,0-3.54,2.57c-1,2.91,1.67,7.62,5.12,6.1.27,1.19-.27,4.57-1.31,5.22-1.4.89-5-.46-6.29-1.34a16.74,16.74,0,0,1-4.66-5.86C108.25,233.89,111.23,225.06,114.84,221.26Z"/><rect class="a93c1929-6e37-4382-a14f-dcafd75ae93d" x="140.91" y="252.52" width="74.57" height="62.48" transform="translate(356.4 567.52) rotate(-180)"/><rect class="af1b11c1-e018-451a-80fe-07e43a682e34" x="156.74" y="252.52" width="58.74" height="62.48" transform="translate(372.22 567.52) rotate(-180)"/><polygon class="a3d59c3e-baca-4da9-b2cb-35bad8eac18c" points="189.32 270.67 197.12 266.11 201.09 259.04 205.31 266.36 212.64 270.67 205.43 274.86 201.09 283.64 196.67 274.78 189.32 270.67"/><polygon class="a3d59c3e-baca-4da9-b2cb-35bad8eac18c" points="161.51 270.67 169.31 266.11 173.28 259.04 177.5 266.36 184.83 270.67 177.62 274.86 173.28 283.64 168.86 274.78 161.51 270.67"/><path class="afa33a02-b7f3-4b09-a451-17537c6b1ee0" d="M154.78,301.81c3,.09,14.7,1.75,15,1.23s-2.7-1.16-2.36-1.55,5,.28,5.2-.32c.23-.83-4.61-1.25-4.61-1.25s5.33.2,5.32-.57c0-.55-4.06-.89-5.6-1.21,1.71.14,4.51,0,4.49-.53s-2.78-.85-4.88-1.19c1.33.09,3.76.11,3.77-.41s-8-2.22-15.46-2.84"/><path class="afa33a02-b7f3-4b09-a451-17537c6b1ee0" d="M120.13,263.15c4.43,6.6,7.55,17.41,18.79,23.13s16.74,6.89,16.74,6.89l-.88,8.64s-19.38-3.14-27.48-9c-10.65-7.67-14-14.16-17-19.61"/><path class="ff00f329-e751-4d7f-aeb2-26d6421761a1" d="M128.57,276l-12.43,7.41A31.31,31.31,0,0,1,104.78,273c-3.54-4.78,1.67-14.7,5-18.25,2.55-2.76,7.45,2.23,9.12,4.66C124,265.25,128.57,276,128.57,276Z"/><path class="a620dcc0-7df4-4fb3-9b5a-f7cb206139cd" d="M115.43,281.32c1.92-1.21,8.58-6.29,10.77-6.77"/><g class="a27400dd-9e0a-49f5-af09-808b05287c0d"><rect class="a5814cbd-8b69-4102-9559-1a207bfa3f57" x="206.33" y="291.9" width="5.23" height="1.68"/><rect class="a5814cbd-8b69-4102-9559-1a207bfa3f57" x="201.73" y="297.24" width="5.9" height="1.68"/><rect class="a5814cbd-8b69-4102-9559-1a207bfa3f57" x="191.42" y="299.92" width="7.9" height="1.68"/><rect class="a5814cbd-8b69-4102-9559-1a207bfa3f57" x="183.66" y="299.92" width="6.58" height="1.68"/><rect class="a5814cbd-8b69-4102-9559-1a207bfa3f57" x="204.85" y="299.92" width="2.79" height="1.68"/><rect class="a5814cbd-8b69-4102-9559-1a207bfa3f57" x="208.78" y="302.59" width="2.91" height="1.68"/><rect class="a5814cbd-8b69-4102-9559-1a207bfa3f57" x="199.47" y="302.59" width="7.99" height="1.68"/><rect class="e3153bfa-c182-4b8f-8ff2-7c4aafc16428" x="208.1" y="305.26" width="3.58" height="1.68"/><rect class="a5814cbd-8b69-4102-9559-1a207bfa3f57" x="203.47" y="305.26" width="3.04" height="1.68"/><rect class="a5814cbd-8b69-4102-9559-1a207bfa3f57" x="196.66" y="305.26" width="5.08" height="1.68"/><rect class="a5814cbd-8b69-4102-9559-1a207bfa3f57" x="189.94" y="305.26" width="5.08" height="1.68"/><rect class="a5814cbd-8b69-4102-9559-1a207bfa3f57" x="208.78" y="307.94" width="2.91" height="1.68"/><rect class="a5814cbd-8b69-4102-9559-1a207bfa3f57" x="199.47" y="307.94" width="7.67" height="1.68"/><rect class="a5814cbd-8b69-4102-9559-1a207bfa3f57" x="208.78" y="310.61" width="2.91" height="1.68"/><rect class="a5814cbd-8b69-4102-9559-1a207bfa3f57" x="200.94" y="310.61" width="2.91" height="1.68"/><rect class="a5814cbd-8b69-4102-9559-1a207bfa3f57" x="193.51" y="310.61" width="6.28" height="1.68"/><rect class="a5814cbd-8b69-4102-9559-1a207bfa3f57" x="188.46" y="310.61" width="4.2" height="1.68"/><rect class="a5814cbd-8b69-4102-9559-1a207bfa3f57" x="198.19" y="291.9" width="6.66" height="1.68"/><rect class="a5814cbd-8b69-4102-9559-1a207bfa3f57" x="189.32" y="291.9" width="7.67" height="1.68"/><rect class="a5814cbd-8b69-4102-9559-1a207bfa3f57" x="179.24" y="291.9" width="8.86" height="1.68"/><rect class="e3153bfa-c182-4b8f-8ff2-7c4aafc16428" x="173.66" y="291.9" width="4.19" height="1.68"/><rect class="a5814cbd-8b69-4102-9559-1a207bfa3f57" x="190.52" y="289" width="3.13" height="1.68"/><rect class="a5814cbd-8b69-4102-9559-1a207bfa3f57" x="200.6" y="299.92" width="3.13" height="1.68"/><rect class="a5814cbd-8b69-4102-9559-1a207bfa3f57" x="199.42" y="294.57" width="3.13" height="1.68"/><rect class="a5814cbd-8b69-4102-9559-1a207bfa3f57" x="197.52" y="297.24" width="3.13" height="1.68"/><rect class="a5814cbd-8b69-4102-9559-1a207bfa3f57" x="187.75" y="289" width="1.56" height="1.68"/><rect class="e3153bfa-c182-4b8f-8ff2-7c4aafc16428" x="176.99" y="289" width="4.48" height="1.68"/><rect class="a5814cbd-8b69-4102-9559-1a207bfa3f57" x="193.62" y="294.46" width="2.3" height="2.3" transform="translate(389.54 591.22) rotate(-180)"/><rect class="a5814cbd-8b69-4102-9559-1a207bfa3f57" x="189.54" y="294.46" width="2.3" height="2.3" transform="translate(381.38 591.22) rotate(-180)"/></g><circle class="a5814cbd-8b69-4102-9559-1a207bfa3f57" cx="215.48" cy="252.52" r="10.8"/><circle class="b282f264-a33d-4310-bd62-51d0b149a2a0" cx="215.48" cy="252.52" r="7.38"/><path class="a96a5e02-31c9-4935-873b-9a492da7ef4c" d="M619.26,440.07c10.35-3.47,32-20.32,36.09-33.88s-3.58-19.51-7.48-17.61c-3.61,1.75-5.91,8.9-8.42,17.54s-11.88,23.48-20.28,26.47Z"/><path class="a25f73f6-dab5-403f-905d-7181543e8b8b" d="M652,393.46c.66,5.26-4.88,28-30.13,42.33"/><path class="b5810601-aa5d-49db-b4c2-01d90fce8800" d="M611,446.36c2-6.47,4.22-18.33,12.27-20.17s7.23,5.87,13,5.14,7.78-8.83,12.82-9.53c9.73-1.35,6.64,8.14,10.93,10.63,3.07,1.77,11.13-1.07,17.62,6.48s.68,12.86-5.06,12.47-12.06-1.39-13.45,4.95c-1.24,5.63-6.42,13.24-16.28,8.63-9.42-4.41-8.88,2.05-13.33,4.45s-14.34-.78-18.88-10.31Z"/><path class="a25f73f6-dab5-403f-905d-7181543e8b8b" d="M675.47,443.1c-9.73-5.37-42.75-8.17-62.51,9.21"/><path class="a25f73f6-dab5-403f-905d-7181543e8b8b" d="M650.76,457.54c-3-4.56-12.57-14-17.9-15.76"/><path class="a25f73f6-dab5-403f-905d-7181543e8b8b" d="M651.19,427.13s-2.43,8.24-7.29,12.43"/><path class="a93c1929-6e37-4382-a14f-dcafd75ae93d" d="M607.05,384.85V470.4H537.4a8.64,8.64,0,0,1-8.64-8.64V384.85Z"/><polygon class="a5814cbd-8b69-4102-9559-1a207bfa3f57" points="613.14 359.72 613.14 448.04 541.14 448.04 541.14 374.35 555.77 359.72 613.14 359.72"/><polygon class="a65e81b8-7f74-4743-9484-f993266d5063" points="541.14 374.35 555.77 359.72 555.77 374.35 541.14 374.35"/><rect class="a8419f88-4ad0-4d1d-98f5-d0a1a247a454" x="552.01" y="382.44" width="37.12" height="2.88"/><rect class="a8419f88-4ad0-4d1d-98f5-d0a1a247a454" x="533.45" y="393.41" width="61.12" height="2.88"/><rect class="a8419f88-4ad0-4d1d-98f5-d0a1a247a454" x="533.45" y="404.39" width="37.12" height="2.88"/><rect class="a8419f88-4ad0-4d1d-98f5-d0a1a247a454" x="533.45" y="415.36" width="37.12" height="2.88"/><rect class="a8419f88-4ad0-4d1d-98f5-d0a1a247a454" x="533.45" y="426.33" width="37.12" height="2.88"/><rect class="a8419f88-4ad0-4d1d-98f5-d0a1a247a454" x="533.45" y="437.3" width="37.12" height="2.88"/><path class="af1b11c1-e018-451a-80fe-07e43a682e34" d="M624.33,400.21V459.6a10.79,10.79,0,0,1-10.8,10.8H537.4a8.64,8.64,0,0,0,8.64-8.64V393.17h23.89l4.8,7Z"/><g class="ad0856dc-956b-417d-bade-fc77b854f7f2"><path class="b81d5323-3e38-40dd-b1f1-9e29a78dbb73" d="M651.82,303.45h-8.65a2.35,2.35,0,0,1-1.33-2.14c-.1-1.41-.34-2.82-.49-4.23a.64.64,0,0,0-.5-.6c-1.64-.65-3.27-1.33-4.89-2a.63.63,0,0,0-.78.07q-1.83,1.47-3.68,2.89a1.77,1.77,0,0,1-2.6-.16c-1.72-1.71-3.42-3.42-5.13-5.13a1.79,1.79,0,0,1-.16-2.65c.95-1.21,1.89-2.43,2.86-3.63a.65.65,0,0,0,.1-.77q-1.07-2.46-2.05-4.95a.58.58,0,0,0-.56-.45c-1.53-.17-3.06-.38-4.59-.55a1.83,1.83,0,0,1-1.81-2v-7.19a1.83,1.83,0,0,1,1.84-2c1.52-.17,3.05-.38,4.58-.55.34,0,.43-.19.54-.47.66-1.64,1.33-3.28,2-4.9a.66.66,0,0,0-.11-.82q-1.44-1.8-2.85-3.63a1.78,1.78,0,0,1,.15-2.61l5.17-5.16a1.79,1.79,0,0,1,2.61-.14c1.23,1,2.46,1.92,3.67,2.9a.62.62,0,0,0,.73.07q2.46-1.07,5-2.05c.28-.12.43-.22.46-.55.17-1.53.38-3.06.55-4.58a1.83,1.83,0,0,1,2-1.83q3.61,0,7.25,0a1.81,1.81,0,0,1,2,1.82c.17,1.51.38,3,.54,4.52a.67.67,0,0,0,.52.64q2.45,1,4.84,2a.66.66,0,0,0,.83-.08c1.21-1,2.44-1.94,3.67-2.89a1.77,1.77,0,0,1,2.56.16l5.17,5.16a1.79,1.79,0,0,1,.17,2.61q-1.44,1.85-2.89,3.68a.59.59,0,0,0-.1.72c.71,1.66,1.38,3.34,2.09,5a.77.77,0,0,0,.5.42c1.42.2,2.85.42,4.29.53a2.32,2.32,0,0,1,2.14,1.33v8.65a2.33,2.33,0,0,1-2.14,1.33c-1.42.1-2.82.34-4.23.5a.64.64,0,0,0-.61.48q-1,2.48-2,4.9a.68.68,0,0,0,.11.82q1.44,1.8,2.86,3.63a1.77,1.77,0,0,1-.15,2.6c-1.72,1.73-3.44,3.44-5.17,5.16a1.8,1.8,0,0,1-2.61.15c-1.21-.94-2.43-1.89-3.63-2.85a.66.66,0,0,0-.82-.1c-1.6.69-3.22,1.36-4.84,2-.31.13-.5.24-.54.63-.14,1.41-.39,2.81-.49,4.23A2.34,2.34,0,0,1,651.82,303.45Zm10.64-29.94a15,15,0,1,0-15,15A15,15,0,0,0,662.46,273.51Z"/><path class="a1b5ea13-a4b8-4412-b6a2-ea0f2baa57da" d="M629.74,331.74h-3.62a1,1,0,0,1-.56-.9c0-.59-.14-1.17-.2-1.77,0-.14-.08-.19-.21-.25-.69-.27-1.37-.55-2-.84a.26.26,0,0,0-.32,0l-1.54,1.21a.75.75,0,0,1-1.09-.07L618,327a.76.76,0,0,1-.07-1.11l1.2-1.52a.26.26,0,0,0,0-.32c-.3-.68-.58-1.37-.86-2.07a.26.26,0,0,0-.23-.19l-1.92-.23a.76.76,0,0,1-.76-.83v-3a.77.77,0,0,1,.77-.85l1.92-.23c.14,0,.18-.08.23-.2.27-.68.55-1.37.84-2a.29.29,0,0,0,0-.35c-.41-.5-.8-1-1.2-1.51a.75.75,0,0,1,.07-1.09l2.16-2.16a.74.74,0,0,1,1.09-.06c.51.4,1,.8,1.53,1.21a.26.26,0,0,0,.31,0c.68-.29,1.37-.58,2.07-.86a.23.23,0,0,0,.19-.23c.07-.64.16-1.27.23-1.91a.77.77,0,0,1,.83-.77h3a.76.76,0,0,1,.83.76c.08.63.16,1.26.23,1.89a.28.28,0,0,0,.22.27c.68.27,1.35.55,2,.84a.29.29,0,0,0,.35,0c.5-.41,1-.81,1.53-1.21a.74.74,0,0,1,1.07.07l2.16,2.16a.74.74,0,0,1,.07,1.09c-.4.52-.8,1-1.21,1.54a.25.25,0,0,0,0,.3c.3.69.58,1.39.88,2.09a.33.33,0,0,0,.21.17c.59.09,1.19.18,1.79.22a1,1,0,0,1,.89.56V321a1,1,0,0,1-.89.56c-.59,0-1.18.14-1.77.21a.26.26,0,0,0-.25.2c-.27.69-.55,1.37-.85,2.05a.27.27,0,0,0,.05.34c.4.5.8,1,1.19,1.52a.74.74,0,0,1-.06,1.09l-2.16,2.15a.74.74,0,0,1-1.09.06L633.09,328a.28.28,0,0,0-.34,0c-.67.29-1.35.57-2,.84-.14.05-.21.1-.23.26-.06.59-.16,1.18-.21,1.77A1,1,0,0,1,629.74,331.74Zm4.44-12.52a6.26,6.26,0,1,0-6.26,6.26A6.26,6.26,0,0,0,634.18,319.22Z"/><path class="a51da657-e7d6-40d4-8f2c-08a1d0aa401e" d="M602.61,301.42H599a1,1,0,0,1-.56-.9c0-.59-.14-1.18-.2-1.77,0-.14-.08-.19-.21-.25-.69-.27-1.37-.55-2-.84a.26.26,0,0,0-.32,0l-1.54,1.21a.75.75,0,0,1-1.09-.07l-2.14-2.14a.76.76,0,0,1-.07-1.11c.4-.51.79-1,1.2-1.52a.27.27,0,0,0,0-.32c-.3-.69-.58-1.38-.86-2.07a.26.26,0,0,0-.23-.19l-1.92-.23a.76.76,0,0,1-.76-.83v-3a.76.76,0,0,1,.77-.85l1.92-.23c.14,0,.18-.08.22-.2.28-.68.56-1.37.85-2a.3.3,0,0,0,0-.35c-.41-.5-.8-1-1.2-1.51a.75.75,0,0,1,.07-1.09Q592,280,593,279a.74.74,0,0,1,1.09-.06c.51.4,1,.8,1.53,1.21a.27.27,0,0,0,.31,0c.68-.3,1.37-.58,2.07-.86.12-.05.18-.09.19-.23.07-.64.16-1.27.23-1.91a.77.77,0,0,1,.83-.77h3a.75.75,0,0,1,.83.76c.07.63.16,1.26.23,1.89a.27.27,0,0,0,.22.27c.68.27,1.35.55,2,.84a.29.29,0,0,0,.35,0c.5-.41,1-.81,1.53-1.21a.74.74,0,0,1,1.07.07l2.16,2.16a.75.75,0,0,1,.07,1.09c-.4.51-.8,1-1.21,1.54a.25.25,0,0,0,0,.3c.3.69.58,1.39.88,2.09a.33.33,0,0,0,.2.17c.6.09,1.2.18,1.8.22a1,1,0,0,1,.89.56v3.61a1,1,0,0,1-.89.56c-.59,0-1.18.14-1.77.21a.26.26,0,0,0-.25.2c-.27.69-.55,1.37-.85,2.05a.27.27,0,0,0,.05.34c.4.5.79,1,1.19,1.52a.73.73,0,0,1-.06,1.08l-2.16,2.16a.74.74,0,0,1-1.09.06L606,297.7a.29.29,0,0,0-.34,0c-.67.29-1.35.57-2,.84-.14.05-.21.1-.23.26-.06.59-.16,1.18-.21,1.77A1,1,0,0,1,602.61,301.42Zm4.44-12.52a6.26,6.26,0,1,0-6.27,6.26A6.26,6.26,0,0,0,607.05,288.9Z"/></g><polyline class="a0ce4ca6-a4e8-428d-bd67-97ea9fca482d" points="475.9 326.1 502.32 364.86 488.32 373.95"/><circle class="bd25b18b-57e4-4a76-b247-c7f6fbc848b6" cx="486.19" cy="375.34" r="3.13"/><polyline class="ad846ee4-6d36-4954-aec4-49e5a82551f6" points="572.95 294.93 596.7 335.38 610.91 326.61"/><circle class="bd25b18b-57e4-4a76-b247-c7f6fbc848b6" cx="613.07" cy="314.77" r="3.13"/></svg>