<svg id="Layer_1" data-name="Layer 1" xmlns="http://www.w3.org/2000/svg" xmlns:xlink="http://www.w3.org/1999/xlink" viewBox="0 0 250 250"><defs><style>.cls-1{fill:#dfeaef;}.cls-2{fill:#a8c6cc;}.cls-3{fill:url(#linear-gradient);}.cls-4{fill:url(#linear-gradient-2);}.cls-5{fill:url(#linear-gradient-3);}.cls-6{fill:url(#linear-gradient-4);}.cls-7{fill:url(#linear-gradient-5);}.cls-8{fill:none;stroke:#fff;stroke-miterlimit:10;stroke-width:9.77px;}</style><linearGradient id="linear-gradient" x1="157.36" y1="239.34" x2="157.36" y2="92.88" gradientUnits="userSpaceOnUse"><stop offset="0" stop-color="#4279e8"/><stop offset="1" stop-color="#5fb6b8"/></linearGradient><linearGradient id="linear-gradient-2" x1="17.46" y1="186" x2="38.14" y2="186" gradientUnits="userSpaceOnUse"><stop offset="0" stop-color="#db1162"/><stop offset="1" stop-color="#ff6817"/></linearGradient><linearGradient id="linear-gradient-3" x1="84.85" y1="158.33" x2="105.53" y2="158.33" gradientUnits="userSpaceOnUse"><stop offset="0" stop-color="#f8d349"/><stop offset="1" stop-color="#f8ae49"/></linearGradient><linearGradient id="linear-gradient-4" x1="210.18" y1="117.63" x2="230.86" y2="117.63" xlink:href="#linear-gradient-3"/><linearGradient id="linear-gradient-5" x1="123.15" y1="50.92" x2="188.42" y2="50.92" gradientUnits="userSpaceOnUse"><stop offset="0" stop-color="#3dba85"/><stop offset="1" stop-color="#1de885"/></linearGradient></defs><polygon class="cls-1" points="94.21 186 135.62 186 135.62 145.2 242.27 145.2 242.27 241.8 7.24 241.8 7.24 213.9 72.46 213.9 72.46 186 94.21 186"/><rect class="cls-2" x="72.46" y="186" width="43.49" height="55.8"/><rect class="cls-2" x="7.24" y="213.9" width="43.49" height="27.9"/><rect class="cls-3" x="135.62" y="102.27" width="43.49" height="139.53"/><polyline class="cls-2" points="242.27 169.68 242.27 241.8 198.77 241.8 198.77 145.2 242.27 145.2 242.27 169.68"/><circle class="cls-4" cx="27.8" cy="186" r="10.34"/><circle class="cls-5" cx="95.19" cy="158.33" r="10.34"/><circle class="cls-6" cx="220.52" cy="117.63" r="10.34"/><circle class="cls-7" cx="155.79" cy="50.92" r="32.63"/><polyline class="cls-8" points="134.8 53.53 148.48 66.99 176.78 40.07"/></svg>