<svg id="e3af33ea-2fd5-4782-bb16-eb14cf8b67fa" data-name="Layer 1" xmlns="http://www.w3.org/2000/svg" xmlns:xlink="http://www.w3.org/1999/xlink" viewBox="0 0 700 500"><defs><style>.aedb2b2d-edbf-4ebd-b45a-7a76fca6070d{opacity:0.11;}.ab7e08de-40ec-4cf9-b384-58c886e5c176,.b73d5e1b-158d-44d1-8e8a-4d8d9cf28f68,.bdd51504-0ad3-46ef-b35e-113737f2f523{fill:#fff;}.b73d5e1b-158d-44d1-8e8a-4d8d9cf28f68{opacity:0.5;}.a63dfdb1-f166-4a58-a76d-ec01cc5b906f{fill:#383838;}.f7a3000a-3d0a-4773-846e-be34e1416dd9,.fe83fadd-0b9c-4237-a55b-dccbf75db9e0{opacity:0.43;}.f7a3000a-3d0a-4773-846e-be34e1416dd9{fill:url(#bdbfaaa0-4ba7-48db-a9f5-f7efd29a4406);}.a37d401a-b189-4222-a063-bc852e0ae2c4,.aa1ec8be-5524-4b86-99dc-11fed61cd46f,.adccfb2b-9b9d-4714-a498-29c5b66a9412,.b3c8a381-40ba-4474-b367-f1a36a0c79c4,.b88183c2-9925-4f8a-92a4-16cf78cb1911,.bd7711de-690b-4079-808b-97c22ee4fb03,.e8a4d4af-36d8-42e2-8d4a-9423a9601e3f,.f4948a47-e677-4b2a-98ae-bb97091677af,.fb3d0e41-98e0-471a-b75f-990555461086,.ff32d618-5c35-42f2-901d-7c40887fa296{fill:none;}.bd7711de-690b-4079-808b-97c22ee4fb03{stroke:#fafafa;stroke-width:1.84px;opacity:0.44;}.b88183c2-9925-4f8a-92a4-16cf78cb1911,.bd7711de-690b-4079-808b-97c22ee4fb03{stroke-linecap:round;}.a37d401a-b189-4222-a063-bc852e0ae2c4,.aa1ec8be-5524-4b86-99dc-11fed61cd46f,.ab7e08de-40ec-4cf9-b384-58c886e5c176,.adccfb2b-9b9d-4714-a498-29c5b66a9412,.b3c8a381-40ba-4474-b367-f1a36a0c79c4,.bd7711de-690b-4079-808b-97c22ee4fb03,.f4948a47-e677-4b2a-98ae-bb97091677af,.fb3d0e41-98e0-471a-b75f-990555461086{stroke-miterlimit:10;}.fe83fadd-0b9c-4237-a55b-dccbf75db9e0{fill:url(#bca6813f-6721-4046-b659-194faa721bb7);}.a4f2c9f2-a7e9-496c-862f-850b7bb8791e,.b23d0441-58b2-4761-bb05-cd70aa8fe118,.b4b8c642-2049-4f67-a352-c9cbbbd431c5{opacity:0.25;}.a4f2c9f2-a7e9-496c-862f-850b7bb8791e{fill:url(#baf43b7d-3305-44c0-b9eb-4b812a624710);}.b298f197-5dc6-44d8-b821-00e87506dde9{fill:url(#a4e2cec7-b91e-4d3b-80e4-fb87deaf0a92);}.a7374a61-1391-4134-841f-9c36c543eab7{fill:url(#b381f63e-fc2c-4de3-853d-b031878ee206);}.b88183c2-9925-4f8a-92a4-16cf78cb1911{stroke:#fff;stroke-width:20.16px;}.b88183c2-9925-4f8a-92a4-16cf78cb1911,.e8a4d4af-36d8-42e2-8d4a-9423a9601e3f,.ff32d618-5c35-42f2-901d-7c40887fa296{stroke-linejoin:round;}.b9736040-d14a-404d-bed7-3373566df2b3{fill:#ffcbbb;}.e67b7587-7378-41fe-963c-177d2fee9360{fill:#fd7011;}.e8a4d4af-36d8-42e2-8d4a-9423a9601e3f{stroke:#1a3987;stroke-width:0.61px;}.eae440f6-5593-41c2-907b-ddee7072669a{fill:#8b71d3;}.eae440f6-5593-41c2-907b-ddee7072669a,.fb3d0e41-98e0-471a-b75f-990555461086{fill-rule:evenodd;}.b3c8a381-40ba-4474-b367-f1a36a0c79c4,.fb3d0e41-98e0-471a-b75f-990555461086{stroke:#4c3f89;stroke-width:0.79px;}.ff32d618-5c35-42f2-901d-7c40887fa296{stroke:#3e4293;stroke-width:0.78px;}.aab688bf-5a12-4be3-9ff6-a06c7bed9d00{fill:#f09171;}.a37d401a-b189-4222-a063-bc852e0ae2c4{stroke:#ef977f;stroke-width:1.26px;}.fd5cbe08-e209-47cf-8c2b-c650850c4f1c{fill:#ff855a;}.ad8dc2d0-7ba5-4a42-8a30-53af4b6dc658{fill:#bf6e58;}.a9ec59f6-a06e-4d25-b0fc-034ded7ab5fd{fill:#ffe1ad;}.b2282125-fc83-425e-b305-587b32431de0{fill:#dcddef;}.aa5df532-5385-41f8-8015-da19aba2560a{fill:#c8cced;}.a9ae51f6-b8f2-4c48-a7af-d2e9f82f81f8{fill:#e3e3ff;}.adccfb2b-9b9d-4714-a498-29c5b66a9412{stroke:#d19b4b;stroke-width:0.7px;}.a68c274d-b93d-4e27-822a-2540ccf4e4bd{fill:#f7958b;}.ab7e08de-40ec-4cf9-b384-58c886e5c176{stroke:#e1e1e1;stroke-width:1.58px;}.aa1ec8be-5524-4b86-99dc-11fed61cd46f{stroke:#5c6e87;stroke-width:1.47px;}.a4590bc9-992e-472f-b98b-42445dd54d6c{fill:#3e83ff;}.aeea434d-795d-4031-9761-54eb3ed36336{fill:#c5cbd3;}.b0d1d3e5-df3e-4ead-a05d-8e70b773ed62{fill:#f99316;}.a87cee1a-3d87-4bc0-a303-a9766bfacc00{fill:#bac6ce;}.fd22f450-fceb-4a6f-8fd4-98f7f48fa997{fill:#989fa8;}.ab275578-5175-4366-bd41-8971e86f958a{fill:#3dba85;}.f4948a47-e677-4b2a-98ae-bb97091677af{stroke:#3dba85;stroke-width:0.91px;stroke-dasharray:9.81 9.81;}.b23d0441-58b2-4761-bb05-cd70aa8fe118{fill:url(#a727be88-1952-43f4-9cf7-bfdafb571d4d);}.b4b8c642-2049-4f67-a352-c9cbbbd431c5{fill:url(#fa21bdd5-80ac-4886-9d96-861eae87da1c);}</style><linearGradient id="bdbfaaa0-4ba7-48db-a9f5-f7efd29a4406" x1="768.14" y1="962.46" x2="795.75" y2="962.46" gradientTransform="matrix(-0.72, 0.69, 0.69, 0.72, 89.67, -1147.47)" gradientUnits="userSpaceOnUse"><stop offset="0" stop-color="#4279e8"/><stop offset="1" stop-color="#5fb7b7"/></linearGradient><linearGradient id="bca6813f-6721-4046-b659-194faa721bb7" x1="787.64" y1="975.01" x2="862.1" y2="975.01" xlink:href="#bdbfaaa0-4ba7-48db-a9f5-f7efd29a4406"/><linearGradient id="baf43b7d-3305-44c0-b9eb-4b812a624710" x1="369.48" y1="173.92" x2="531.44" y2="173.92" gradientUnits="userSpaceOnUse"><stop offset="0" stop-color="#4279e8" stop-opacity="0"/><stop offset="1" stop-color="#5fb7b7"/></linearGradient><linearGradient id="a4e2cec7-b91e-4d3b-80e4-fb87deaf0a92" x1="197.92" y1="163.85" x2="440.75" y2="163.85" gradientTransform="matrix(1, 0, 0, 1, 0, 0)" xlink:href="#bdbfaaa0-4ba7-48db-a9f5-f7efd29a4406"/><linearGradient id="b381f63e-fc2c-4de3-853d-b031878ee206" x1="368.04" y1="255.77" x2="513.46" y2="255.77" gradientTransform="translate(592.19 -230.79) rotate(77.16)" gradientUnits="userSpaceOnUse"><stop offset="0" stop-color="#d35400"/><stop offset="1" stop-color="#ffb62d"/></linearGradient><linearGradient id="a727be88-1952-43f4-9cf7-bfdafb571d4d" x1="421.22" y1="58.7" x2="613.49" y2="58.7" xlink:href="#baf43b7d-3305-44c0-b9eb-4b812a624710"/><linearGradient id="fa21bdd5-80ac-4886-9d96-861eae87da1c" x1="421.22" y1="75.91" x2="529.22" y2="75.91" xlink:href="#baf43b7d-3305-44c0-b9eb-4b812a624710"/></defs><title>How_we_do_illustration</title><ellipse class="aedb2b2d-edbf-4ebd-b45a-7a76fca6070d" cx="599.02" cy="485.1" rx="93.31" ry="6.01"/><circle class="b73d5e1b-158d-44d1-8e8a-4d8d9cf28f68" cx="150.32" cy="418.2" r="31.04"/><circle class="b73d5e1b-158d-44d1-8e8a-4d8d9cf28f68" cx="226.62" cy="399.46" r="65.17"/><circle class="b73d5e1b-158d-44d1-8e8a-4d8d9cf28f68" cx="296.62" cy="426.51" r="24.52"/><path class="a63dfdb1-f166-4a58-a76d-ec01cc5b906f" d="M611.22,171.81s14,4.19,14.14,19.36-5.42,20.36-5.42,20.36-16.62-1.24-16.62-1.49-.65-9.35-.65-9.35l.65-10.13Z"/><path class="a63dfdb1-f166-4a58-a76d-ec01cc5b906f" d="M616.69,197.42s13.67-1.23,13.67,8.8-13.73,15-14.31,14.88-9.71-6.33-9.71-6.33Z"/><rect class="bdd51504-0ad3-46ef-b35e-113737f2f523" x="240.03" y="234.05" width="24.2" height="7.76"/><rect class="bdd51504-0ad3-46ef-b35e-113737f2f523" x="227.93" y="246.41" width="36.31" height="7.76"/><rect class="bdd51504-0ad3-46ef-b35e-113737f2f523" x="218.75" y="258.79" width="27.33" height="7.76"/><rect class="bdd51504-0ad3-46ef-b35e-113737f2f523" x="171" y="271.17" width="36.56" height="7.76"/><rect class="bdd51504-0ad3-46ef-b35e-113737f2f523" x="135.09" y="271.17" width="30.46" height="7.76"/><rect class="bdd51504-0ad3-46ef-b35e-113737f2f523" x="233.19" y="271.17" width="12.9" height="7.76"/><rect class="bdd51504-0ad3-46ef-b35e-113737f2f523" x="251.36" y="283.55" width="13.46" height="7.76"/><rect class="bdd51504-0ad3-46ef-b35e-113737f2f523" x="208.28" y="283.55" width="37.01" height="7.76"/><rect class="bdd51504-0ad3-46ef-b35e-113737f2f523" x="248.23" y="295.93" width="16.59" height="7.76"/><rect class="bdd51504-0ad3-46ef-b35e-113737f2f523" x="226.79" y="295.93" width="14.09" height="7.76"/><rect class="bdd51504-0ad3-46ef-b35e-113737f2f523" x="195.23" y="295.93" width="23.51" height="7.76"/><rect class="bdd51504-0ad3-46ef-b35e-113737f2f523" x="164.15" y="295.93" width="23.51" height="7.76"/><rect class="bdd51504-0ad3-46ef-b35e-113737f2f523" x="251.36" y="308.32" width="13.46" height="7.76"/><rect class="bdd51504-0ad3-46ef-b35e-113737f2f523" x="208.28" y="308.32" width="35.51" height="7.76"/><rect class="bdd51504-0ad3-46ef-b35e-113737f2f523" x="251.36" y="320.7" width="13.46" height="7.76"/><rect class="bdd51504-0ad3-46ef-b35e-113737f2f523" x="232.81" y="320.7" width="13.46" height="7.76"/><rect class="bdd51504-0ad3-46ef-b35e-113737f2f523" x="215.06" y="320.7" width="13.46" height="7.76"/><rect class="bdd51504-0ad3-46ef-b35e-113737f2f523" x="180.69" y="320.7" width="29.09" height="7.76"/><rect class="bdd51504-0ad3-46ef-b35e-113737f2f523" x="157.31" y="320.7" width="19.44" height="7.76"/><rect class="bdd51504-0ad3-46ef-b35e-113737f2f523" x="202.35" y="234.05" width="30.84" height="7.76"/><rect class="bdd51504-0ad3-46ef-b35e-113737f2f523" x="161.25" y="234.05" width="35.51" height="7.76"/><rect class="bdd51504-0ad3-46ef-b35e-113737f2f523" x="114.6" y="234.05" width="41" height="7.76"/><rect class="bdd51504-0ad3-46ef-b35e-113737f2f523" x="88.78" y="234.05" width="19.39" height="7.76"/><rect class="bdd51504-0ad3-46ef-b35e-113737f2f523" x="166.84" y="220.61" width="14.51" height="7.76"/><rect class="bdd51504-0ad3-46ef-b35e-113737f2f523" x="213.49" y="271.17" width="14.51" height="7.76"/><rect class="bdd51504-0ad3-46ef-b35e-113737f2f523" x="208.03" y="246.41" width="14.51" height="7.76"/><rect class="bdd51504-0ad3-46ef-b35e-113737f2f523" x="199.24" y="258.79" width="14.51" height="7.76"/><rect class="bdd51504-0ad3-46ef-b35e-113737f2f523" x="154.01" y="220.61" width="7.24" height="7.76"/><rect class="bdd51504-0ad3-46ef-b35e-113737f2f523" x="130.56" y="220.61" width="18.81" height="7.76"/><rect class="bdd51504-0ad3-46ef-b35e-113737f2f523" x="104.2" y="220.61" width="20.75" height="7.76"/><rect class="bdd51504-0ad3-46ef-b35e-113737f2f523" x="181.17" y="245.89" width="10.66" height="10.66" transform="translate(373.01 502.45) rotate(-180)"/><rect class="bdd51504-0ad3-46ef-b35e-113737f2f523" x="162.28" y="245.89" width="10.66" height="10.66" transform="translate(335.21 502.45) rotate(-180)"/><path class="f7a3000a-3d0a-4773-846e-be34e1416dd9" d="M216.72,120.29C203.32,115.79,175.24,94,170,76.42s4.63-25.27,9.69-22.81c4.67,2.27,7.64,11.53,10.9,22.72s15.38,30.39,26.25,34.28Z"/><path class="bd7711de-690b-4079-808b-97c22ee4fb03" d="M174.33,59.94c-.85,6.8,6.31,36.3,39,54.8"/><path class="fe83fadd-0b9c-4237-a55b-dccbf75db9e0" d="M211.11,126.22c-2.62-8.38-5.47-23.74-15.88-26.11s-9.37,7.59-16.81,6.65-10.08-11.44-16.61-12.34c-12.6-1.75-8.6,10.54-14.15,13.76-4,2.3-14.41-1.38-22.81,8.4s-.89,16.65,6.55,16.14,15.61-1.8,17.42,6.41c1.6,7.29,8.3,17.15,21.07,11.17,12.21-5.71,11.5,2.66,17.26,5.77s18.58-1,24.45-13.36Z"/><path class="bd7711de-690b-4079-808b-97c22ee4fb03" d="M127.61,122c12.6-7,55.36-10.58,81,11.93"/><path class="bd7711de-690b-4079-808b-97c22ee4fb03" d="M159.62,140.7c3.86-5.91,16.27-18.16,23.17-20.41"/><path class="bd7711de-690b-4079-808b-97c22ee4fb03" d="M159.05,101.33s3.15,10.65,9.45,16.08"/><circle class="a4f2c9f2-a7e9-496c-862f-850b7bb8791e" cx="450.46" cy="173.92" r="80.98"/><circle class="b73d5e1b-158d-44d1-8e8a-4d8d9cf28f68" cx="368.03" cy="294.6" r="36.47"/><circle class="b73d5e1b-158d-44d1-8e8a-4d8d9cf28f68" cx="336.55" cy="346.47" r="15.41"/><circle class="b298f197-5dc6-44d8-b821-00e87506dde9" cx="319.33" cy="163.85" r="121.42"/><circle class="a7374a61-1391-4134-841f-9c36c543eab7" cx="440.75" cy="255.77" r="72.71" transform="translate(93.44 628.67) rotate(-77.16)"/><polyline class="b88183c2-9925-4f8a-92a4-16cf78cb1911" points="270.64 176.64 305.06 200.11 368.02 127.6"/><path class="bdd51504-0ad3-46ef-b35e-113737f2f523" d="M428.51,298.65c0-7.46,5-12.64,12.16-12.64,7.46,0,12.16,5.18,12.32,12.64,0,7.3-4.86,12.65-12.32,12.65C433.38,311.3,428.35,306,428.51,298.65Zm4.54-22.86-2.92-75.55h21.08l-2.92,75.55Z"/><path class="b9736040-d14a-404d-bed7-3373566df2b3" d="M635.72,430.09l3.1,38.34.27,12.06-29.29-.28c-.95,0-3.3.52-3.29-.63h0c0-.87,2-3.11,2.69-3.42l11.52-6.8-4.62-39.89"/><path class="e67b7587-7378-41fe-963c-177d2fee9360" d="M600.3,479.69c.39-1.51,1.11-3.21,1.84-3.59l17.65-9.3c9.73,4.84,22.33,1.16,22.33,1.16l2.26,16.28a.9.9,0,0,1-.8,1l-43,0C599.73,485.16,600.28,479.74,600.3,479.69Z"/><path class="e8a4d4af-36d8-42e2-8d4a-9423a9601e3f" d="M616,467.73a27,27,0,0,1,2.49,5.12"/><path class="e8a4d4af-36d8-42e2-8d4a-9423a9601e3f" d="M613.75,469.36a24.82,24.82,0,0,1,2,4.35"/><path class="e8a4d4af-36d8-42e2-8d4a-9423a9601e3f" d="M611.87,470.54a35.1,35.1,0,0,1,1.92,4"/><line class="e8a4d4af-36d8-42e2-8d4a-9423a9601e3f" x1="644.15" y1="481.7" x2="600.12" y2="481.38"/><path class="e8a4d4af-36d8-42e2-8d4a-9423a9601e3f" d="M642.92,473.74s-10.35.24-11.23,7.87"/><path class="e8a4d4af-36d8-42e2-8d4a-9423a9601e3f" d="M605.76,474.19s2.86,5,3.42,7.26"/><path class="b9736040-d14a-404d-bed7-3373566df2b3" d="M595.14,430l-3.6,38.33.28,12.06-29.3-.28c-.94,0-3.29.53-3.29-.63h0c0-.86,2-3.11,2.69-3.41l11.53-6.81,2.07-39.89"/><path class="e67b7587-7378-41fe-963c-177d2fee9360" d="M553,479.58c.4-1.51,1.12-3.21,1.85-3.6l17.64-9.29c9.74,4.84,22.33,1.16,22.33,1.16l2.27,16.28a.91.91,0,0,1-.8,1l-43-.05C552.46,485.05,553,479.63,553,479.58Z"/><path class="e8a4d4af-36d8-42e2-8d4a-9423a9601e3f" d="M568.69,467.62a27.62,27.62,0,0,1,2.5,5.12"/><path class="e8a4d4af-36d8-42e2-8d4a-9423a9601e3f" d="M566.47,469.24a23.53,23.53,0,0,1,2,4.36"/><path class="e8a4d4af-36d8-42e2-8d4a-9423a9601e3f" d="M564.59,470.43a33.4,33.4,0,0,1,1.93,4"/><line class="e8a4d4af-36d8-42e2-8d4a-9423a9601e3f" x1="596.88" y1="481.58" x2="552.84" y2="481.26"/><path class="e8a4d4af-36d8-42e2-8d4a-9423a9601e3f" d="M595.64,473.62s-10.34.25-11.22,7.88"/><path class="e8a4d4af-36d8-42e2-8d4a-9423a9601e3f" d="M558.49,474.08s2.85,5,3.42,7.25"/><path class="eae440f6-5593-41c2-907b-ddee7072669a" d="M630.13,279l.89,2.75a143.34,143.34,0,0,1,6.56,33.54c.15,2.08.3,4.3.43,6.64,1.51,26.57,3.63,140.26,3.63,140.26H614.82s-16.19-141.23-19-171.29"/><path class="eae440f6-5593-41c2-907b-ddee7072669a" d="M579,286.6c-7.1,53.32-7.69,175.6-7.69,175.6h27.1s7.26-160.43,14.14-175.6"/><line class="b3c8a381-40ba-4474-b367-f1a36a0c79c4" x1="614.19" y1="455.67" x2="641.31" y2="455.67"/><line class="b3c8a381-40ba-4474-b367-f1a36a0c79c4" x1="571.82" y1="455.67" x2="598.62" y2="455.67"/><path class="b3c8a381-40ba-4474-b367-f1a36a0c79c4" d="M601.71,351.32c-5.84,67.91-8.37,110.88-8.37,110.88"/><path class="b3c8a381-40ba-4474-b367-f1a36a0c79c4" d="M634.77,295.73s-11.62,5.1-21.63,6.68-22.75,1.17-35.69-1.15"/><path class="b3c8a381-40ba-4474-b367-f1a36a0c79c4" d="M606,380s-7.4-55.89-6.94-76.48"/><path class="b3c8a381-40ba-4474-b367-f1a36a0c79c4" d="M595.87,303.48s.23,16.42.72,17.16,3,1.3,3,1.3"/><path class="fb3d0e41-98e0-471a-b75f-990555461086" d="M631.27,297.31a254.68,254.68,0,0,1,4.11,27.45c1.8,17.33,2.63,137,2.63,137"/><path class="fb3d0e41-98e0-471a-b75f-990555461086" d="M613.39,302.74a25.28,25.28,0,0,0,21.14,14.57"/><line class="b3c8a381-40ba-4474-b367-f1a36a0c79c4" x1="609.7" y1="302.87" x2="609.7" y2="295.73"/><line class="ff32d618-5c35-42f2-901d-7c40887fa296" x1="587.25" y1="302.41" x2="587.25" y2="294.6"/><path class="fb3d0e41-98e0-471a-b75f-990555461086" d="M584.29,302.28s-3.64,8.55-7.62,8.93"/><path class="aab688bf-5a12-4be3-9ff6-a06c7bed9d00" d="M593.4,198.39l-.25,10s2.1,6,6.57,5.35c4.72-.72,6.07-5.67,6.07-5.67l-.39-15.34"/><path class="aab688bf-5a12-4be3-9ff6-a06c7bed9d00" d="M590.57,171.65c-4.45,4.9-10.38,22.95-2.35,27.16,8.47,4.43,18.7,1.06,21.58-10.56C612.84,176.05,602.25,158.77,590.57,171.65Z"/><path class="a37d401a-b189-4222-a063-bc852e0ae2c4" d="M593.34,200.53c2.59-.13,6.52-1.11,11.15-4.8"/><path class="fd5cbe08-e209-47cf-8c2b-c650850c4f1c" d="M608.88,187s0,0,0,0,0,0,0,0Z"/><path class="fd5cbe08-e209-47cf-8c2b-c650850c4f1c" d="M608.83,186.91a1,1,0,0,0-.08.11.06.06,0,0,0,0,0l0,0a.06.06,0,0,0,.09,0l.07-.11a.07.07,0,0,0,0-.05,0,0,0,0,0,0,0,.05.05,0,0,0-.08,0Z"/><path class="a63dfdb1-f166-4a58-a76d-ec01cc5b906f" d="M608.32,196.76c-6.84-11.2-5.84-18.14-5.84-18.14s-15.41-1.06-18.22-3.66c.47-6.09,8.56-11.52,15.21-7.87,10.86-4,16.89,5.91,18.1,11.53,1.53,7.07-3.29,16-9.25,18.14"/><path class="aab688bf-5a12-4be3-9ff6-a06c7bed9d00" d="M603,188.3a2.52,2.52,0,0,1,2-1.63c2.22-.35,3,2.62,2.31,4.73a6.23,6.23,0,0,1-2.15,3.17c-1.42,1.16-3,1.17-3.49-.7"/><path class="aab688bf-5a12-4be3-9ff6-a06c7bed9d00" d="M568.49,239.58s-4.64,10.85-5.75,12.19c-6.31,7.62-16.48-29.58-16.48-29.58l-12.65,8.73s7.58,39.62,22.81,48.21,33-28.7,33-28.7"/><path class="aab688bf-5a12-4be3-9ff6-a06c7bed9d00" d="M547.16,225.31c-1.39-5.91-4.87-21.86-5.81-22s-.14,5.53-.89,5.2-2.46-9-3.44-8.88c-1.33.16.83,8.94.83,8.94s-.71-1.7-1.83-1.16c-.79.39-.6,2.87-.6,2.87s-.84-1.9-1.65-1.48-.62,3.34-.62,3.34-.74-.92-1.51-.58-1.35,5.37,2.78,23.18"/><path class="ad8dc2d0-7ba5-4a42-8a30-53af4b6dc658" d="M540.82,210.71a9.64,9.64,0,0,1-.07,2.28,10.82,10.82,0,0,1-.54,2.23c-.25.67-.46,1.35-.67,2.05a19.35,19.35,0,0,0-.49,2.15,5,5,0,0,1-.33-2.29,8.37,8.37,0,0,1,.49-2.27A37.63,37.63,0,0,1,540.82,210.71Z"/><path class="ad8dc2d0-7ba5-4a42-8a30-53af4b6dc658" d="M538,209.24a26.35,26.35,0,0,1,.36,2.67,8.71,8.71,0,0,1-.08,2.78,1.24,1.24,0,0,1-.19.41.67.67,0,0,1-.58.28,1.21,1.21,0,0,1-.8-.48,5.83,5.83,0,0,1-.77-1.23,18.18,18.18,0,0,1-1-2.57l1-.21a26.8,26.8,0,0,1,.38,2.67c0,.45.07.91.07,1.37a4.52,4.52,0,0,1-.17,1.5,1.68,1.68,0,0,1-.27.47.91.91,0,0,1-.74.28,1.39,1.39,0,0,1-.89-.52,4.41,4.41,0,0,1-.73-1.31,14.91,14.91,0,0,1-.7-2.66l.93-.15c.08.83.13,1.65.15,2.47a11.84,11.84,0,0,1-.15,2.51,2.48,2.48,0,0,1-.23.68.66.66,0,0,1-.4.31.58.58,0,0,1-.49-.12,2.55,2.55,0,0,1-.69-1.15,11.78,11.78,0,0,1-.56-2.4,15.35,15.35,0,0,0,.88,2.26,2.17,2.17,0,0,0,.64.87c.15,0,0,.05.13-.06a2,2,0,0,0,.11-.49,14.38,14.38,0,0,0,0-2.36c-.07-.8-.17-1.61-.28-2.4a.46.46,0,0,1,.4-.53.47.47,0,0,1,.52.37v0a16.51,16.51,0,0,0,.73,2.45,3.91,3.91,0,0,0,.56,1c.11.12.21.17.22.16s-.15,0-.15.05a.25.25,0,0,0,.05-.11,8.29,8.29,0,0,0,.07-2.42c-.08-.86-.19-1.74-.31-2.59v0a.47.47,0,0,1,.41-.55.49.49,0,0,1,.54.35,21.18,21.18,0,0,0,.82,2.48c.27.74,1,1.8,1,1.16a9.86,9.86,0,0,0,.32-2.56C538.06,211,538.05,210.14,538,209.24Z"/><path class="a9ec59f6-a06e-4d25-b0fc-034ded7ab5fd" d="M592.59,209.24s.64,3.11,6.44,3.11,8.35-5.18,8.35-5.18,13.21,1.47,21.46,25.66,3.77,56,3.77,56L578.47,296s1.39-10.94-.21-38.08c-.25-4.28-2.63-11.75-.58-21.85C580.76,220.75,592.59,209.24,592.59,209.24Z"/><path class="b2282125-fc83-425e-b305-587b32431de0" d="M613.37,293.73l-36.48.6,0,2.22,38.52-.64h0A2.13,2.13,0,0,0,613.37,293.73Z"/><path class="aa5df532-5385-41f8-8015-da19aba2560a" d="M532.47,297.28l51.25-.85-10.18-34a3.88,3.88,0,0,0-3.72-2.88l-46.33.76a1.64,1.64,0,0,0-1.43,2.17Z"/><path class="a9ae51f6-b8f2-4c48-a7af-d2e9f82f81f8" d="M530.17,297.31l51.24-.84-10.17-34a3.89,3.89,0,0,0-3.72-2.88l-46.33.76a1.65,1.65,0,0,0-1.44,2.17Z"/><path class="aa5df532-5385-41f8-8015-da19aba2560a" d="M545.09,279.06a4,4,0,0,0,4,2.83c1.89,0,3.17-1.35,2.85-2.94a4,4,0,0,0-4-2.82C546.05,276.16,544.77,277.48,545.09,279.06Z"/><path class="aab688bf-5a12-4be3-9ff6-a06c7bed9d00" d="M620.2,243.49s1,31.4-1.47,36.1c-1.42,2.75-27.28,8.28-27.28,8.28L591.27,304s32.74-1.19,41.34-15.25c6.44-10.53,5.52-45.3,5.52-45.3"/><path class="a9ec59f6-a06e-4d25-b0fc-034ded7ab5fd" d="M607.38,207.17s14.13,1.69,21.18,9.62c10.58,11.89,11.36,30.73,11.36,30.73H614.77l-.27-16"/><path class="a9ec59f6-a06e-4d25-b0fc-034ded7ab5fd" d="M592.59,209.24c-8.39,1-14.89,5.33-18.33,11.16-5.35,9.06-9.1,23.09-9.1,23.09L585,250.43"/><path class="adccfb2b-9b9d-4714-a498-29c5b66a9412" d="M614.77,247.52c-.2-12-1.28-17.68-1.28-17.68"/><path class="adccfb2b-9b9d-4714-a498-29c5b66a9412" d="M576.3,247.38c-.82-10.23,5.27-21,5.27-21"/><path class="aab688bf-5a12-4be3-9ff6-a06c7bed9d00" d="M597.16,286.65c-3.45.59-21.61,4.21-21.38,5.17s5.57.81,5.42,1.33c-.22.74-4.16,1.69-6.43,2-2,.28-5.2,1.08-5.18,2,.06,1.78,11.11.07,11.11.07s-12.27-.48-12.37,1c-.15,2.14,12.84,2.14,13.31,2.61,0,0-11.35-3.25-11.46-1.67s10,4.75,13.05,4.56c-2.58-.34-10.49-4.41-10.53-2.95s6.8,3.6,7.89,3.7a60,60,0,0,0,17-1.11"/><path class="a68c274d-b93d-4e27-822a-2540ccf4e4bd" d="M570.93,296.92a37.5,37.5,0,0,1,4.34-.52c1.45-.1,2.9-.17,4.37-.15a15.9,15.9,0,0,1-2.16.44c-.72.12-1.45.18-2.17.24s-1.46.08-2.19.08S571.66,297,570.93,296.92Z"/><path class="a68c274d-b93d-4e27-822a-2540ccf4e4bd" d="M572.24,299.21c1.59,0,3.16.16,4.73.27s3.13.26,4.72.29a10.54,10.54,0,0,1-2.37.3,21.14,21.14,0,0,1-2.39-.05c-.79-.07-1.58-.16-2.36-.3A18.24,18.24,0,0,1,572.24,299.21Z"/><path class="a68c274d-b93d-4e27-822a-2540ccf4e4bd" d="M574.26,301.4c1.42.08,2.82.28,4.21.49l4.17.69a11.67,11.67,0,0,1-2.13.06,18.57,18.57,0,0,1-2.12-.23c-.7-.11-1.4-.23-2.09-.41A18.31,18.31,0,0,1,574.26,301.4Z"/><path class="bdd51504-0ad3-46ef-b35e-113737f2f523" d="M605.67,203.63s-1.62,7.7-7.58,8.68l3.15,7.11c6.58-4,7.31-12.25,7.31-12.25Z"/><path class="bdd51504-0ad3-46ef-b35e-113737f2f523" d="M592.89,205.19a6.33,6.33,0,0,0,5.2,7.12L595.26,219a15.85,15.85,0,0,1-4.16-9.5Z"/><rect class="ab7e08de-40ec-4cf9-b384-58c886e5c176" x="163.26" y="354.98" width="157.88" height="32.04" rx="16.02"/><polyline class="aa1ec8be-5524-4b86-99dc-11fed61cd46f" points="269.59 445.69 231.92 414.84 208.4 371.14 264.68 371.14 231.5 415.15 197.37 433.7 174.74 393.65 135.38 426.51 106.04 386.5"/><line class="aa1ec8be-5524-4b86-99dc-11fed61cd46f" x1="135.38" y1="426.51" x2="197.37" y2="433.7"/><line class="aa1ec8be-5524-4b86-99dc-11fed61cd46f" x1="208.4" y1="371.14" x2="197.37" y2="433.7"/><line class="aa1ec8be-5524-4b86-99dc-11fed61cd46f" x1="197.37" y1="433.7" x2="135.38" y2="426.51"/><circle class="a4590bc9-992e-472f-b98b-42445dd54d6c" cx="269.59" cy="445.69" r="8.31"/><circle class="aeea434d-795d-4031-9761-54eb3ed36336" cx="231.92" cy="414.84" r="8.31"/><circle class="b0d1d3e5-df3e-4ead-a05d-8e70b773ed62" cx="264.68" cy="371.14" r="8.31"/><circle class="a87cee1a-3d87-4bc0-a303-a9766bfacc00" cx="208.4" cy="371.14" r="8.31"/><circle class="a87cee1a-3d87-4bc0-a303-a9766bfacc00" cx="197.37" cy="433.7" r="8.31"/><circle class="b0d1d3e5-df3e-4ead-a05d-8e70b773ed62" cx="174.74" cy="393.65" r="8.31"/><circle class="fd22f450-fceb-4a6f-8fd4-98f7f48fa997" cx="135.38" cy="426.51" r="8.31"/><circle class="a87cee1a-3d87-4bc0-a303-a9766bfacc00" cx="106.04" cy="386.5" r="8.31"/><circle class="ab275578-5175-4366-bd41-8971e86f958a" cx="300.76" cy="371.14" r="6.07"/><path class="f4948a47-e677-4b2a-98ae-bb97091677af" d="M308.72,376.08a9.37,9.37,0,1,0-12.91,3A9.37,9.37,0,0,0,308.72,376.08Z"/><rect class="b23d0441-58b2-4761-bb05-cd70aa8fe118" x="421.22" y="55.05" width="192.27" height="7.3"/><rect class="b4b8c642-2049-4f67-a352-c9cbbbd431c5" x="421.22" y="72.26" width="108" height="7.3"/></svg>