<svg id="Layer_1" data-name="Layer 1" xmlns="http://www.w3.org/2000/svg" xmlns:xlink="http://www.w3.org/1999/xlink" viewBox="0 0 250 250"><defs><style>.cls-1{fill:#dfeaef;}.cls-2{fill:url(#linear-gradient);}.cls-3{fill:#c6d6db;}.cls-4{fill:url(#linear-gradient-4);}.cls-5{fill:url(#linear-gradient-5);}.cls-6{opacity:0.15;}.cls-7{fill:url(#linear-gradient-6);}.cls-8{fill:#f1f2f2;}.cls-9{fill:url(#linear-gradient-7);}.cls-10{fill:url(#linear-gradient-8);}.cls-11{fill:#fff;}</style><linearGradient id="linear-gradient" x1="216.73" y1="162.28" x2="216.73" y2="52.87" gradientUnits="userSpaceOnUse"><stop offset="0" stop-color="#f8d349"/><stop offset="1" stop-color="#f8ae49"/></linearGradient><linearGradient id="linear-gradient-4" x1="150.33" y1="192.28" x2="231.37" y2="192.28" gradientUnits="userSpaceOnUse"><stop offset="0" stop-color="#3dba85"/><stop offset="1" stop-color="#1de885"/></linearGradient><linearGradient id="linear-gradient-5" x1="150.33" y1="222.67" x2="231.37" y2="222.67" xlink:href="#linear-gradient-4"/><linearGradient id="linear-gradient-6" x1="4" y1="56.65" x2="105.3" y2="56.65" gradientUnits="userSpaceOnUse"><stop offset="0" stop-color="#db1162"/><stop offset="1" stop-color="#ff6817"/></linearGradient><linearGradient id="linear-gradient-7" x1="3.16" y1="56.65" x2="107.88" y2="56.65" xlink:href="#linear-gradient-6"/><linearGradient id="linear-gradient-8" x1="72.66" y1="242.03" x2="72.66" y2="141.89" gradientUnits="userSpaceOnUse"><stop offset="0" stop-color="#4279e8"/><stop offset="1" stop-color="#5fb6b8"/></linearGradient></defs><rect class="cls-1" x="74.91" y="29.64" width="171.09" height="177.84" rx="6.12"/><rect class="cls-2" x="204.35" y="49.9" width="24.76" height="24.76" rx="12.38"/><rect class="cls-2" x="204.35" y="92.67" width="24.76" height="24.76" rx="12.38"/><rect class="cls-2" x="204.35" y="135.44" width="24.76" height="24.76" rx="12.38"/><rect class="cls-3" x="135.69" y="54.4" width="58.53" height="12.38" rx="6.19"/><rect class="cls-3" x="135.69" y="97.17" width="58.53" height="12.38" rx="6.19"/><rect class="cls-3" x="135.69" y="139.94" width="58.53" height="12.38" rx="6.19"/><rect class="cls-4" x="150.33" y="184.97" width="81.04" height="14.63" rx="6.5"/><rect class="cls-5" x="150.33" y="215.36" width="81.04" height="14.63" rx="6.5"/><path class="cls-6" d="M115.63,29.64v81a5.12,5.12,0,0,1-5.12,5.12H74.91V29.64Z"/><rect class="cls-7" x="4" y="6" width="101.3" height="101.3" rx="6.35"/><circle class="cls-8" cx="54.65" cy="56.65" r="34.53"/><circle class="cls-9" cx="54.65" cy="56.65" r="18.54"/><path class="cls-6" d="M134.37,207.46H81a6.12,6.12,0,0,1-6.12-6.12V136.82H87.45a10.52,10.52,0,0,1,9.2,5.31Z"/><path class="cls-10" d="M63.46,142.16,15.39,225.42a10.63,10.63,0,0,0,9.2,15.94h96.14a10.63,10.63,0,0,0,9.2-15.94L81.86,142.16A10.62,10.62,0,0,0,63.46,142.16Z"/><path class="cls-11" d="M104.18,197.34a1.54,1.54,0,0,1-1.34,2.31H79a8.47,8.47,0,1,1,0-16.93H94a3,3,0,0,1,2.57,1.48Z"/><path class="cls-11" d="M119.32,229.65H62.43a8.62,8.62,0,0,1-8.69-7.86,8.45,8.45,0,0,1,8.43-9.06H112a1.8,1.8,0,0,1,1.55.9l6.53,11.29a9.3,9.3,0,0,1,1,2.46A1.83,1.83,0,0,1,119.32,229.65Z"/></svg>