<svg id="a03e5b61-4c66-48a2-8741-e079bdc0df74" data-name="Layer 1" xmlns="http://www.w3.org/2000/svg" xmlns:xlink="http://www.w3.org/1999/xlink" viewBox="0 0 600 450"><defs><style>.b5e30428-6996-4900-9c61-77925064083d,.e8b998c2-621b-442b-b967-671f95dfcabf{opacity:0.15;}.a5b1cdbb-be6f-4484-be27-26e016a887a7,.b5e30428-6996-4900-9c61-77925064083d,.e8b998c2-621b-442b-b967-671f95dfcabf{isolation:isolate;}.e8b998c2-621b-442b-b967-671f95dfcabf{fill:url(#bf6433a6-6465-4fcf-8407-85f0a5e71247);}.b5e30428-6996-4900-9c61-77925064083d{fill:url(#bbd28908-ca60-494d-affe-e1dca6813da2);}.fbe0391c-3415-4b40-83a1-c82eb4ae669a{fill:#d1d3d4;}.e0ff20e9-1394-4623-a242-133877db8c54{fill:#b3b3b3;}.a6bd0fa5-5c66-4e1e-8e55-642ec62e9e0d{fill:#e6e6e6;}.f0fe2a35-911e-4916-8a23-57cf36216baf{fill:#ccc;}.bd11213d-4271-4611-a439-33ea8666b97f{fill:#0562e8;}.b20ea7c1-9a9a-4cc6-9c58-55ce29e74d01{fill:#3dba85;}.b5656fcb-f39d-41d7-9ccf-fd81f13864d2{fill:#298def;}.ab002177-d186-4565-b382-d30398c70b28{fill:#f99316;}.fd5da7c4-9e49-41a9-81cd-93cca4f6c734{fill:#e1e1e1;}.b6837d78-f0b8-44e3-8d3b-44e843dd9876,.bbdfab3d-4ff3-4edb-a887-81ca069a3661{fill:none;stroke-miterlimit:10;}.bbdfab3d-4ff3-4edb-a887-81ca069a3661{stroke:#5d6e86;stroke-width:0.72px;}.a0904114-b460-44c2-8ad5-319c78ff77c7{fill:#b8c5cd;}.a9cc1ec5-03c9-4198-b84b-108c045a5151{fill:#c4cad1;}.e89f2af6-ae43-4ea8-83af-bbdd4abf7e10{fill:#f6921e;}.ba7d4fac-cec9-40c4-bcb3-8a4249db6d15{fill:#979ea7;}.e7241106-0df3-4344-a281-34787944b92b{fill:#3db884;}.b6837d78-f0b8-44e3-8d3b-44e843dd9876{stroke:#fff;stroke-width:1.59px;}.f80deb29-a276-48e0-a1f7-6679fc4c79f2{opacity:0.25;}.bc6b6d5b-21e1-4e3e-b569-ae6ec84e3270{fill:#bcbec0;}.e3b3885c-2fb1-4bbd-b30a-3635d88a7b7f{fill:#939598;}.a5b1cdbb-be6f-4484-be27-26e016a887a7{fill:#fff;opacity:0.5;}.f26a60e5-24c0-4820-b11c-7f544dee3a4a{fill:#c97a24;}.e5043b41-aa92-4e3f-a488-0d8eb9195048{fill:#f13624;}.bbd75d98-a961-4e20-9f34-1208f648c7d4{fill:#c92820;}</style><linearGradient id="bf6433a6-6465-4fcf-8407-85f0a5e71247" x1="-102.77" y1="6573.64" x2="277.91" y2="6577.86" gradientTransform="matrix(1, 0, 0, -1, 0, 6799.42)" gradientUnits="userSpaceOnUse"><stop offset="0" stop-color="#d1d3d4" stop-opacity="0"/><stop offset="1" stop-color="#bcbec0"/></linearGradient><linearGradient id="bbd28908-ca60-494d-affe-e1dca6813da2" x1="230.99" y1="6576.89" x2="566.99" y2="6576.89" xlink:href="#bf6433a6-6465-4fcf-8407-85f0a5e71247"/></defs><title>AI services Pages and sub Pages</title><path class="e8b998c2-621b-442b-b967-671f95dfcabf" d="M355.46,231.78,198.77,413.07a10.26,10.26,0,0,1-14.42,1.58,10.73,10.73,0,0,1-1.58-1.58L26.09,231.78a14.56,14.56,0,0,1,0-18.5L182.78,32a10.23,10.23,0,0,1,16,0L355.46,213.28A14.56,14.56,0,0,1,355.46,231.78Z"/><path class="b5e30428-6996-4900-9c61-77925064083d" d="M563.67,231.78,407,413.07a10.26,10.26,0,0,1-14.42,1.58,10.73,10.73,0,0,1-1.58-1.58L234.3,231.78a14.56,14.56,0,0,1,0-18.5L391,32a10.23,10.23,0,0,1,16,0L563.67,213.28A14.56,14.56,0,0,1,563.67,231.78Z"/><rect class="fbe0391c-3415-4b40-83a1-c82eb4ae669a" x="51.94" y="350.2" width="485.89" height="3.39"/><rect class="e0ff20e9-1394-4623-a242-133877db8c54" x="241.84" y="184.59" width="43.99" height="37.09"/><rect class="a6bd0fa5-5c66-4e1e-8e55-642ec62e9e0d" x="110.98" y="184.59" width="130.85" height="37.09"/><rect class="f0fe2a35-911e-4916-8a23-57cf36216baf" x="215.94" y="187.53" width="8.26" height="8.26"/><rect class="bd11213d-4271-4611-a439-33ea8666b97f" x="201.4" y="187.53" width="8.26" height="8.26"/><rect class="bd11213d-4271-4611-a439-33ea8666b97f" x="186.85" y="187.53" width="8.26" height="8.26"/><rect class="bd11213d-4271-4611-a439-33ea8666b97f" x="172.32" y="187.53" width="8.26" height="8.26"/><rect class="f0fe2a35-911e-4916-8a23-57cf36216baf" x="157.78" y="187.53" width="8.26" height="8.26"/><rect class="b20ea7c1-9a9a-4cc6-9c58-55ce29e74d01" x="143.24" y="187.53" width="8.26" height="8.26"/><rect class="f0fe2a35-911e-4916-8a23-57cf36216baf" x="128.7" y="187.53" width="8.26" height="8.26"/><rect class="b5656fcb-f39d-41d7-9ccf-fd81f13864d2" x="114.16" y="187.53" width="8.26" height="8.26"/><rect class="ab002177-d186-4565-b382-d30398c70b28" x="215.94" y="199.01" width="8.26" height="8.26"/><rect class="b5656fcb-f39d-41d7-9ccf-fd81f13864d2" x="201.4" y="199.01" width="8.26" height="8.26"/><rect class="b5656fcb-f39d-41d7-9ccf-fd81f13864d2" x="186.85" y="199.01" width="8.26" height="8.26"/><rect class="bd11213d-4271-4611-a439-33ea8666b97f" x="172.32" y="199.01" width="8.26" height="8.26"/><rect class="b5656fcb-f39d-41d7-9ccf-fd81f13864d2" x="157.78" y="199.01" width="8.26" height="8.26"/><rect class="b20ea7c1-9a9a-4cc6-9c58-55ce29e74d01" x="143.24" y="199.01" width="8.26" height="8.26"/><rect class="b20ea7c1-9a9a-4cc6-9c58-55ce29e74d01" x="128.7" y="199.01" width="8.26" height="8.26"/><rect class="b20ea7c1-9a9a-4cc6-9c58-55ce29e74d01" x="114.16" y="199.01" width="8.26" height="8.26"/><rect class="ab002177-d186-4565-b382-d30398c70b28" x="215.94" y="210.49" width="8.26" height="8.26"/><rect class="f0fe2a35-911e-4916-8a23-57cf36216baf" x="230.39" y="187.53" width="8.26" height="8.26"/><rect class="f0fe2a35-911e-4916-8a23-57cf36216baf" x="230.39" y="199.01" width="8.26" height="8.26"/><rect class="ab002177-d186-4565-b382-d30398c70b28" x="230.39" y="210.49" width="8.26" height="8.26"/><rect class="b5656fcb-f39d-41d7-9ccf-fd81f13864d2" x="201.4" y="210.49" width="8.26" height="8.26"/><rect class="f0fe2a35-911e-4916-8a23-57cf36216baf" x="186.85" y="210.49" width="8.26" height="8.26"/><rect class="bd11213d-4271-4611-a439-33ea8666b97f" x="172.32" y="210.49" width="8.26" height="8.26"/><rect class="f0fe2a35-911e-4916-8a23-57cf36216baf" x="157.78" y="210.49" width="8.26" height="8.26"/><rect class="b5656fcb-f39d-41d7-9ccf-fd81f13864d2" x="143.24" y="210.49" width="8.26" height="8.26"/><rect class="b20ea7c1-9a9a-4cc6-9c58-55ce29e74d01" x="128.7" y="210.49" width="8.26" height="8.26"/><rect class="f0fe2a35-911e-4916-8a23-57cf36216baf" x="114.16" y="210.49" width="8.26" height="8.26"/><polygon class="f0fe2a35-911e-4916-8a23-57cf36216baf" points="248.18 196.2 281.62 196.2 280.01 191.66 246.57 191.66 248.18 196.2"/><polygon class="f0fe2a35-911e-4916-8a23-57cf36216baf" points="248.18 205.41 281.62 205.41 280.01 200.88 246.57 200.88 248.18 205.41"/><polygon class="f0fe2a35-911e-4916-8a23-57cf36216baf" points="248.18 214.62 281.62 214.62 280.01 210.09 246.57 210.09 248.18 214.62"/><rect class="e0ff20e9-1394-4623-a242-133877db8c54" x="241.84" y="227.14" width="43.99" height="37.09"/><rect class="a6bd0fa5-5c66-4e1e-8e55-642ec62e9e0d" x="110.98" y="227.14" width="130.85" height="37.09"/><rect class="f0fe2a35-911e-4916-8a23-57cf36216baf" x="128.62" y="253.04" width="8.26" height="8.26"/><rect class="f0fe2a35-911e-4916-8a23-57cf36216baf" x="143.16" y="253.04" width="8.26" height="8.26"/><rect class="f0fe2a35-911e-4916-8a23-57cf36216baf" x="157.7" y="253.04" width="8.26" height="8.26"/><rect class="f0fe2a35-911e-4916-8a23-57cf36216baf" x="172.24" y="253.04" width="8.26" height="8.26"/><rect class="f0fe2a35-911e-4916-8a23-57cf36216baf" x="186.77" y="253.04" width="8.26" height="8.26"/><rect class="f0fe2a35-911e-4916-8a23-57cf36216baf" x="201.31" y="253.04" width="8.26" height="8.26"/><rect class="f0fe2a35-911e-4916-8a23-57cf36216baf" x="215.85" y="253.04" width="8.26" height="8.26"/><rect class="b5656fcb-f39d-41d7-9ccf-fd81f13864d2" x="230.39" y="253.04" width="8.26" height="8.26"/><rect class="f0fe2a35-911e-4916-8a23-57cf36216baf" x="128.62" y="241.56" width="8.26" height="8.26"/><rect class="b5656fcb-f39d-41d7-9ccf-fd81f13864d2" x="143.16" y="241.56" width="8.26" height="8.26"/><rect class="f0fe2a35-911e-4916-8a23-57cf36216baf" x="157.7" y="241.56" width="8.26" height="8.26"/><rect class="bd11213d-4271-4611-a439-33ea8666b97f" x="172.24" y="241.56" width="8.26" height="8.26"/><rect class="f0fe2a35-911e-4916-8a23-57cf36216baf" x="186.77" y="241.56" width="8.26" height="8.26"/><rect class="f0fe2a35-911e-4916-8a23-57cf36216baf" x="201.31" y="241.56" width="8.26" height="8.26"/><rect class="f0fe2a35-911e-4916-8a23-57cf36216baf" x="215.85" y="241.56" width="8.26" height="8.26"/><rect class="b20ea7c1-9a9a-4cc6-9c58-55ce29e74d01" x="230.39" y="241.56" width="8.26" height="8.26"/><rect class="ab002177-d186-4565-b382-d30398c70b28" x="128.62" y="230.08" width="8.26" height="8.26"/><rect class="f0fe2a35-911e-4916-8a23-57cf36216baf" x="114.15" y="253.04" width="8.26" height="8.26"/><rect class="f0fe2a35-911e-4916-8a23-57cf36216baf" x="114.15" y="241.56" width="8.26" height="8.26"/><rect class="ab002177-d186-4565-b382-d30398c70b28" x="114.15" y="230.08" width="8.26" height="8.26"/><rect class="b5656fcb-f39d-41d7-9ccf-fd81f13864d2" x="143.16" y="230.08" width="8.26" height="8.26"/><rect class="f0fe2a35-911e-4916-8a23-57cf36216baf" x="157.7" y="230.08" width="8.26" height="8.26"/><rect class="bd11213d-4271-4611-a439-33ea8666b97f" x="172.24" y="230.08" width="8.26" height="8.26"/><rect class="f0fe2a35-911e-4916-8a23-57cf36216baf" x="186.77" y="230.08" width="8.26" height="8.26"/><rect class="b5656fcb-f39d-41d7-9ccf-fd81f13864d2" x="201.31" y="230.08" width="8.26" height="8.26"/><rect class="b20ea7c1-9a9a-4cc6-9c58-55ce29e74d01" x="215.85" y="230.08" width="8.26" height="8.26"/><rect class="f0fe2a35-911e-4916-8a23-57cf36216baf" x="230.39" y="230.08" width="8.26" height="8.26"/><polygon class="f0fe2a35-911e-4916-8a23-57cf36216baf" points="248.18 238.75 281.62 238.75 280.01 234.21 246.57 234.21 248.18 238.75"/><polygon class="f0fe2a35-911e-4916-8a23-57cf36216baf" points="248.18 247.96 281.62 247.96 280.01 243.42 246.57 243.42 248.18 247.96"/><polygon class="f0fe2a35-911e-4916-8a23-57cf36216baf" points="248.18 257.17 281.62 257.17 280.01 252.63 246.57 252.63 248.18 257.17"/><rect class="e0ff20e9-1394-4623-a242-133877db8c54" x="241.84" y="269.69" width="43.99" height="37.09"/><rect class="a6bd0fa5-5c66-4e1e-8e55-642ec62e9e0d" x="110.98" y="269.69" width="130.85" height="37.09"/><rect class="f0fe2a35-911e-4916-8a23-57cf36216baf" x="215.94" y="295.59" width="8.26" height="8.26"/><rect class="f0fe2a35-911e-4916-8a23-57cf36216baf" x="201.4" y="295.59" width="8.26" height="8.26"/><rect class="f0fe2a35-911e-4916-8a23-57cf36216baf" x="186.85" y="295.59" width="8.26" height="8.26"/><rect class="f0fe2a35-911e-4916-8a23-57cf36216baf" x="172.32" y="295.59" width="8.26" height="8.26"/><rect class="f0fe2a35-911e-4916-8a23-57cf36216baf" x="157.78" y="295.59" width="8.26" height="8.26"/><rect class="b20ea7c1-9a9a-4cc6-9c58-55ce29e74d01" x="143.24" y="295.59" width="8.26" height="8.26"/><rect class="f0fe2a35-911e-4916-8a23-57cf36216baf" x="128.7" y="295.59" width="8.26" height="8.26"/><rect class="b5656fcb-f39d-41d7-9ccf-fd81f13864d2" x="114.16" y="295.59" width="8.26" height="8.26"/><rect class="f0fe2a35-911e-4916-8a23-57cf36216baf" x="215.94" y="284.11" width="8.26" height="8.26"/><rect class="f0fe2a35-911e-4916-8a23-57cf36216baf" x="201.4" y="284.11" width="8.26" height="8.26"/><rect class="b5656fcb-f39d-41d7-9ccf-fd81f13864d2" x="186.85" y="284.11" width="8.26" height="8.26"/><rect class="bd11213d-4271-4611-a439-33ea8666b97f" x="172.32" y="284.11" width="8.26" height="8.26"/><rect class="f0fe2a35-911e-4916-8a23-57cf36216baf" x="157.78" y="284.11" width="8.26" height="8.26"/><rect class="f0fe2a35-911e-4916-8a23-57cf36216baf" x="143.24" y="284.11" width="8.26" height="8.26"/><rect class="f0fe2a35-911e-4916-8a23-57cf36216baf" x="128.7" y="284.11" width="8.26" height="8.26"/><rect class="b20ea7c1-9a9a-4cc6-9c58-55ce29e74d01" x="114.16" y="284.11" width="8.26" height="8.26"/><rect class="f0fe2a35-911e-4916-8a23-57cf36216baf" x="215.94" y="272.63" width="8.26" height="8.26"/><rect class="f0fe2a35-911e-4916-8a23-57cf36216baf" x="230.39" y="295.59" width="8.26" height="8.26"/><rect class="f0fe2a35-911e-4916-8a23-57cf36216baf" x="230.39" y="284.11" width="8.26" height="8.26"/><rect class="ab002177-d186-4565-b382-d30398c70b28" x="230.39" y="272.63" width="8.26" height="8.26"/><rect class="f0fe2a35-911e-4916-8a23-57cf36216baf" x="201.4" y="272.63" width="8.26" height="8.26"/><rect class="f0fe2a35-911e-4916-8a23-57cf36216baf" x="186.85" y="272.63" width="8.26" height="8.26"/><rect class="bd11213d-4271-4611-a439-33ea8666b97f" x="172.32" y="272.63" width="8.26" height="8.26"/><rect class="f0fe2a35-911e-4916-8a23-57cf36216baf" x="157.78" y="272.63" width="8.26" height="8.26"/><rect class="f0fe2a35-911e-4916-8a23-57cf36216baf" x="143.24" y="272.63" width="8.26" height="8.26"/><rect class="f0fe2a35-911e-4916-8a23-57cf36216baf" x="128.7" y="272.63" width="8.26" height="8.26"/><rect class="f0fe2a35-911e-4916-8a23-57cf36216baf" x="114.16" y="272.63" width="8.26" height="8.26"/><polygon class="f0fe2a35-911e-4916-8a23-57cf36216baf" points="248.18 281.29 281.62 281.29 280.01 276.76 246.57 276.76 248.18 281.29"/><polygon class="f0fe2a35-911e-4916-8a23-57cf36216baf" points="248.18 290.5 281.62 290.5 280.01 285.97 246.57 285.97 248.18 290.5"/><polygon class="f0fe2a35-911e-4916-8a23-57cf36216baf" points="248.18 299.72 281.62 299.72 280.01 295.18 246.57 295.18 248.18 299.72"/><rect class="e0ff20e9-1394-4623-a242-133877db8c54" x="241.84" y="312.23" width="43.99" height="37.09"/><rect class="a6bd0fa5-5c66-4e1e-8e55-642ec62e9e0d" x="110.98" y="312.23" width="130.85" height="37.09"/><polygon class="f0fe2a35-911e-4916-8a23-57cf36216baf" points="248.18 323.83 281.62 323.83 280.01 319.3 246.57 319.3 248.18 323.83"/><polygon class="f0fe2a35-911e-4916-8a23-57cf36216baf" points="248.18 333.05 281.62 333.05 280.01 328.52 246.57 328.52 248.18 333.05"/><rect class="f0fe2a35-911e-4916-8a23-57cf36216baf" x="128.62" y="315.17" width="8.26" height="8.26"/><rect class="bd11213d-4271-4611-a439-33ea8666b97f" x="143.16" y="315.17" width="8.26" height="8.26"/><rect class="f0fe2a35-911e-4916-8a23-57cf36216baf" x="157.7" y="315.17" width="8.26" height="8.26"/><rect class="bd11213d-4271-4611-a439-33ea8666b97f" x="172.24" y="315.17" width="8.26" height="8.26"/><rect class="f0fe2a35-911e-4916-8a23-57cf36216baf" x="186.77" y="315.17" width="8.26" height="8.26"/><rect class="f0fe2a35-911e-4916-8a23-57cf36216baf" x="201.31" y="315.17" width="8.26" height="8.26"/><rect class="f0fe2a35-911e-4916-8a23-57cf36216baf" x="215.85" y="315.17" width="8.26" height="8.26"/><rect class="b5656fcb-f39d-41d7-9ccf-fd81f13864d2" x="230.39" y="315.17" width="8.26" height="8.26"/><rect class="ab002177-d186-4565-b382-d30398c70b28" x="128.62" y="326.65" width="8.26" height="8.26"/><rect class="b5656fcb-f39d-41d7-9ccf-fd81f13864d2" x="143.16" y="326.65" width="8.26" height="8.26"/><rect class="f0fe2a35-911e-4916-8a23-57cf36216baf" x="157.7" y="326.65" width="8.26" height="8.26"/><rect class="f0fe2a35-911e-4916-8a23-57cf36216baf" x="172.24" y="326.65" width="8.26" height="8.26"/><rect class="f0fe2a35-911e-4916-8a23-57cf36216baf" x="186.77" y="326.65" width="8.26" height="8.26"/><rect class="f0fe2a35-911e-4916-8a23-57cf36216baf" x="201.31" y="326.65" width="8.26" height="8.26"/><rect class="f0fe2a35-911e-4916-8a23-57cf36216baf" x="215.85" y="326.65" width="8.26" height="8.26"/><rect class="b20ea7c1-9a9a-4cc6-9c58-55ce29e74d01" x="230.39" y="326.65" width="8.26" height="8.26"/><rect class="ab002177-d186-4565-b382-d30398c70b28" x="128.62" y="338.13" width="8.26" height="8.26"/><rect class="f0fe2a35-911e-4916-8a23-57cf36216baf" x="114.15" y="315.17" width="8.26" height="8.26"/><rect class="f0fe2a35-911e-4916-8a23-57cf36216baf" x="114.15" y="326.65" width="8.26" height="8.26"/><rect class="ab002177-d186-4565-b382-d30398c70b28" x="114.15" y="338.13" width="8.26" height="8.26"/><rect class="b5656fcb-f39d-41d7-9ccf-fd81f13864d2" x="143.16" y="338.13" width="8.26" height="8.26"/><rect class="f0fe2a35-911e-4916-8a23-57cf36216baf" x="157.7" y="338.13" width="8.26" height="8.26"/><rect class="bd11213d-4271-4611-a439-33ea8666b97f" x="172.24" y="338.13" width="8.26" height="8.26"/><rect class="f0fe2a35-911e-4916-8a23-57cf36216baf" x="186.77" y="338.13" width="8.26" height="8.26"/><rect class="f0fe2a35-911e-4916-8a23-57cf36216baf" x="201.31" y="338.13" width="8.26" height="8.26"/><rect class="b20ea7c1-9a9a-4cc6-9c58-55ce29e74d01" x="215.85" y="338.13" width="8.26" height="8.26"/><rect class="f0fe2a35-911e-4916-8a23-57cf36216baf" x="230.39" y="338.13" width="8.26" height="8.26"/><polygon class="f0fe2a35-911e-4916-8a23-57cf36216baf" points="248.18 342.26 281.62 342.26 280.01 337.73 246.57 337.73 248.18 342.26"/><polygon class="fd5da7c4-9e49-41a9-81cd-93cca4f6c734" points="373.72 348.42 368.19 300.17 397.81 264.42 441.29 254.44 486.68 249.62 505.27 206.02 476.15 154.01 405.75 132.56 344.09 132.73 298.34 165.78 285.83 205.27 287.96 248.34 311.73 280.33 341.57 295.52 351.92 346.63 373.72 348.42"/><polygon class="bbdfab3d-4ff3-4edb-a887-81ca069a3661" points="384.8 346.64 379.27 298.39 410.01 263.37 452.37 252.65 497.76 247.83 516.35 204.24 487.23 152.23 416.82 130.78 355.17 130.94 309.42 164 296.91 203.49 299.05 246.55 322.81 278.54 352.65 293.74 363 344.85 384.8 346.64"/><circle class="a0904114-b460-44c2-8ad5-319c78ff77c7" cx="486.92" cy="152.69" r="4.05"/><circle class="a9cc1ec5-03c9-4198-b84b-108c045a5151" cx="516.46" cy="204.52" r="4.05"/><circle class="a0904114-b460-44c2-8ad5-319c78ff77c7" cx="299.4" cy="246.91" r="4.05"/><circle class="a0904114-b460-44c2-8ad5-319c78ff77c7" cx="353" cy="293.26" r="4.05"/><circle class="a0904114-b460-44c2-8ad5-319c78ff77c7" cx="363" cy="346.04" r="4.05"/><circle class="a0904114-b460-44c2-8ad5-319c78ff77c7" cx="379.09" cy="299.22" r="4.05"/><circle class="a0904114-b460-44c2-8ad5-319c78ff77c7" cx="410.65" cy="262.96" r="4.05"/><circle class="a0904114-b460-44c2-8ad5-319c78ff77c7" cx="417.81" cy="131.35" r="4.05"/><circle class="e89f2af6-ae43-4ea8-83af-bbdd4abf7e10" cx="356.04" cy="131.54" r="4.05"/><circle class="e89f2af6-ae43-4ea8-83af-bbdd4abf7e10" cx="385.16" cy="346.28" r="4.05"/><circle class="ba7d4fac-cec9-40c4-bcb3-8a4249db6d15" cx="309.7" cy="164.14" r="4.05"/><circle class="e7241106-0df3-4344-a281-34787944b92b" cx="297.91" cy="203.64" r="4.05"/><circle class="e7241106-0df3-4344-a281-34787944b92b" cx="497.33" cy="248.34" r="4.05"/><polyline class="b6837d78-f0b8-44e3-8d3b-44e843dd9876" points="471.5 156.74 398.11 169.58 414.94 136.85 398.11 169.58 357.95 137.55 351.07 184.12 316.21 168.88 351.07 184.12 344.22 209.97 307.06 205.07 344.22 209.97 339.72 244.59 305.6 247.06 339.72 244.59 323.39 276.41 339.72 244.59 381.59 209.48 344.22 209.97 351.07 184.12 381.59 209.48 351.07 184.12 398.11 169.58 381.59 209.48 433.51 210.06 436.35 162.89 433.51 210.06 495.24 206.85 433.51 210.06 480.92 244.3 433.51 210.06 381.59 209.48 397.81 264.42 422.08 228.85 445.89 247.42 422.08 228.85 397.81 264.42 339.72 244.59 367.05 297.31"/><line class="b6837d78-f0b8-44e3-8d3b-44e843dd9876" x1="422.08" y1="228.85" x2="433.51" y2="210.06"/><g class="f80deb29-a276-48e0-a1f7-6679fc4c79f2"><rect class="b20ea7c1-9a9a-4cc6-9c58-55ce29e74d01" x="29.56" y="98.14" width="41.11" height="4.51"/><rect class="bd11213d-4271-4611-a439-33ea8666b97f" x="43.51" y="106.91" width="41.11" height="4.51"/><rect class="bd11213d-4271-4611-a439-33ea8666b97f" x="29.56" y="115.68" width="71.63" height="4.51"/><rect class="ab002177-d186-4565-b382-d30398c70b28" x="37.93" y="124.45" width="28.71" height="4.51"/><rect class="bd11213d-4271-4611-a439-33ea8666b97f" x="77" y="124.45" width="28.71" height="4.51"/><rect class="b20ea7c1-9a9a-4cc6-9c58-55ce29e74d01" x="29.56" y="133.22" width="52.23" height="4.51"/><rect class="bd11213d-4271-4611-a439-33ea8666b97f" x="47.23" y="141.99" width="41.11" height="4.51"/><rect class="a6bd0fa5-5c66-4e1e-8e55-642ec62e9e0d" x="37.93" y="150.68" width="42.66" height="4.68"/><rect class="ab002177-d186-4565-b382-d30398c70b28" x="91.41" y="150.68" width="12.84" height="4.68"/><rect class="a6bd0fa5-5c66-4e1e-8e55-642ec62e9e0d" x="29.56" y="159.54" width="41.11" height="4.51"/><rect class="a6bd0fa5-5c66-4e1e-8e55-642ec62e9e0d" x="80.64" y="159.54" width="15.9" height="4.51"/><rect class="bd11213d-4271-4611-a439-33ea8666b97f" x="50.11" y="168.3" width="41.11" height="4.51"/><rect class="ab002177-d186-4565-b382-d30398c70b28" x="40.68" y="177.07" width="41.11" height="4.51"/><rect class="a6bd0fa5-5c66-4e1e-8e55-642ec62e9e0d" x="93.57" y="177.07" width="6.42" height="4.51"/><rect class="b20ea7c1-9a9a-4cc6-9c58-55ce29e74d01" x="29.56" y="185.85" width="31.67" height="4.51"/><rect class="bd11213d-4271-4611-a439-33ea8666b97f" x="61.23" y="194.62" width="36.32" height="4.51"/></g><g class="f80deb29-a276-48e0-a1f7-6679fc4c79f2"><rect class="b20ea7c1-9a9a-4cc6-9c58-55ce29e74d01" x="502.99" y="82.73" width="41.11" height="4.51"/><rect class="bd11213d-4271-4611-a439-33ea8666b97f" x="516.94" y="91.49" width="41.11" height="4.51"/><rect class="bd11213d-4271-4611-a439-33ea8666b97f" x="502.99" y="100.26" width="71.63" height="4.51"/><rect class="ab002177-d186-4565-b382-d30398c70b28" x="511.36" y="109.04" width="28.71" height="4.51"/><rect class="bd11213d-4271-4611-a439-33ea8666b97f" x="550.43" y="109.04" width="28.71" height="4.51"/><rect class="b20ea7c1-9a9a-4cc6-9c58-55ce29e74d01" x="502.99" y="117.8" width="52.23" height="4.51"/><rect class="bd11213d-4271-4611-a439-33ea8666b97f" x="520.66" y="126.57" width="41.11" height="4.51"/><rect class="a6bd0fa5-5c66-4e1e-8e55-642ec62e9e0d" x="511.36" y="135.26" width="42.66" height="4.68"/><rect class="ab002177-d186-4565-b382-d30398c70b28" x="564.83" y="135.26" width="12.84" height="4.68"/><rect class="a6bd0fa5-5c66-4e1e-8e55-642ec62e9e0d" x="502.99" y="144.12" width="41.11" height="4.51"/><rect class="a6bd0fa5-5c66-4e1e-8e55-642ec62e9e0d" x="554.06" y="144.12" width="15.9" height="4.51"/><rect class="bd11213d-4271-4611-a439-33ea8666b97f" x="523.54" y="152.88" width="41.11" height="4.51"/><rect class="ab002177-d186-4565-b382-d30398c70b28" x="514.11" y="161.66" width="41.11" height="4.51"/><rect class="a6bd0fa5-5c66-4e1e-8e55-642ec62e9e0d" x="567" y="161.66" width="6.42" height="4.51"/><rect class="b20ea7c1-9a9a-4cc6-9c58-55ce29e74d01" x="502.99" y="170.43" width="31.67" height="4.51"/><rect class="bd11213d-4271-4611-a439-33ea8666b97f" x="534.66" y="179.2" width="36.32" height="4.51"/></g><polygon class="bc6b6d5b-21e1-4e3e-b569-ae6ec84e3270" points="64.57 272.48 64.33 291.66 45.71 291.43 46.03 266.78 59.18 266.95 59.18 266.95 64.57 272.48 64.57 272.48"/><polygon class="e3b3885c-2fb1-4bbd-b30a-3635d88a7b7f" points="59.11 272.41 59.18 266.95 59.18 266.95 64.57 272.48 64.57 272.48 59.11 272.41"/><polygon class="a5b1cdbb-be6f-4484-be27-26e016a887a7" points="50.8 279.17 48.24 279.13 46.93 281.33 48.18 283.56 50.74 283.6 52.05 281.4 50.8 279.17"/><polygon class="a5b1cdbb-be6f-4484-be27-26e016a887a7" points="52.77 280.18 51.35 280.15 50.62 281.38 51.32 282.63 52.75 282.64 53.47 281.42 52.77 280.18"/><polygon class="a5b1cdbb-be6f-4484-be27-26e016a887a7" points="56.58 281.45 55.85 282.68 55.15 281.44 55.88 280.21 56.58 281.45"/><polygon class="a5b1cdbb-be6f-4484-be27-26e016a887a7" points="57.31 280.23 55.88 280.21 55.15 281.44 55.85 282.68 57.27 282.7 58 281.48 57.31 280.23"/><polygon class="a5b1cdbb-be6f-4484-be27-26e016a887a7" points="61.3 281.52 60.58 282.74 59.87 281.5 60.6 280.28 61.3 281.52"/><polygon class="a5b1cdbb-be6f-4484-be27-26e016a887a7" points="62.03 280.29 60.6 280.27 59.87 281.5 60.57 282.74 62 282.76 62.73 281.53 62.03 280.29"/><polygon class="bc6b6d5b-21e1-4e3e-b569-ae6ec84e3270" points="88.37 321.56 88.17 337.14 73.05 336.95 73.3 316.93 83.99 317.07 83.99 317.07 88.37 321.56 88.37 321.56"/><polygon class="e3b3885c-2fb1-4bbd-b30a-3635d88a7b7f" points="83.93 321.51 83.99 317.07 83.99 317.07 88.37 321.56 88.37 321.56 83.93 321.51"/><polygon class="a5b1cdbb-be6f-4484-be27-26e016a887a7" points="77.18 327 75.09 326.97 74.03 328.76 75.05 330.57 77.13 330.6 78.19 328.81 77.18 327"/><polygon class="a5b1cdbb-be6f-4484-be27-26e016a887a7" points="78.78 327.81 77.63 327.8 77.03 328.79 77.6 329.81 78.76 329.82 79.35 328.82 78.78 327.81"/><polygon class="a5b1cdbb-be6f-4484-be27-26e016a887a7" points="81.87 328.85 81.28 329.85 80.71 328.84 81.3 327.84 81.87 328.85"/><polygon class="a5b1cdbb-be6f-4484-be27-26e016a887a7" points="82.46 327.86 81.3 327.84 80.71 328.84 81.28 329.85 82.44 329.86 83.03 328.87 82.46 327.86"/><polygon class="a5b1cdbb-be6f-4484-be27-26e016a887a7" points="85.71 328.91 85.12 329.9 84.55 328.89 85.14 327.9 85.71 328.91"/><polygon class="a5b1cdbb-be6f-4484-be27-26e016a887a7" points="86.3 327.91 85.14 327.89 84.55 328.89 85.11 329.9 86.27 329.92 86.87 328.92 86.3 327.91"/><polygon class="bc6b6d5b-21e1-4e3e-b569-ae6ec84e3270" points="504.99 53.97 504.79 69.55 489.67 69.36 489.93 49.34 500.61 49.48 500.61 49.48 504.99 53.97 504.99 53.97"/><polygon class="e3b3885c-2fb1-4bbd-b30a-3635d88a7b7f" points="500.55 53.91 500.61 49.48 500.61 49.48 504.99 53.97 504.99 53.97 500.55 53.91"/><polygon class="a5b1cdbb-be6f-4484-be27-26e016a887a7" points="493.8 59.4 491.72 59.37 490.66 61.16 491.67 62.97 493.75 63 494.82 61.21 493.8 59.4"/><polygon class="a5b1cdbb-be6f-4484-be27-26e016a887a7" points="495.41 60.22 494.25 60.2 493.66 61.2 494.22 62.21 495.38 62.22 495.97 61.23 495.41 60.22"/><polygon class="a5b1cdbb-be6f-4484-be27-26e016a887a7" points="498.49 61.26 497.9 62.26 497.33 61.25 497.93 60.25 498.49 61.26"/><polygon class="a5b1cdbb-be6f-4484-be27-26e016a887a7" points="499.09 60.27 497.93 60.25 497.33 61.25 497.9 62.26 499.06 62.27 499.65 61.28 499.09 60.27"/><polygon class="a5b1cdbb-be6f-4484-be27-26e016a887a7" points="502.33 61.31 501.74 62.3 501.17 61.29 501.76 60.3 502.33 61.31"/><polygon class="a5b1cdbb-be6f-4484-be27-26e016a887a7" points="502.93 60.31 501.76 60.3 501.17 61.29 501.74 62.3 502.9 62.32 503.49 61.32 502.93 60.31"/><polygon class="bc6b6d5b-21e1-4e3e-b569-ae6ec84e3270" points="93.87 221.67 93.52 248.68 67.32 248.35 67.76 213.65 86.28 213.89 86.28 213.89 93.87 221.67 93.87 221.67"/><polygon class="e3b3885c-2fb1-4bbd-b30a-3635d88a7b7f" points="86.18 221.58 86.28 213.89 86.28 213.89 93.87 221.67 93.87 221.67 86.18 221.58"/><polygon class="a5b1cdbb-be6f-4484-be27-26e016a887a7" points="74.48 231.09 70.87 231.04 69.03 234.14 70.79 237.28 74.39 237.33 76.24 234.23 74.48 231.09"/><polygon class="a5b1cdbb-be6f-4484-be27-26e016a887a7" points="77.26 232.51 75.26 232.48 74.23 234.2 75.21 235.96 77.22 235.98 78.24 234.26 77.26 232.51"/><polygon class="a5b1cdbb-be6f-4484-be27-26e016a887a7" points="82.61 234.31 81.59 236.04 80.6 234.29 81.63 232.56 82.61 234.31"/><polygon class="a5b1cdbb-be6f-4484-be27-26e016a887a7" points="83.64 232.59 81.63 232.56 80.6 234.29 81.59 236.04 83.59 236.06 84.62 234.34 83.64 232.59"/><polygon class="a5b1cdbb-be6f-4484-be27-26e016a887a7" points="89.26 234.4 88.24 236.12 87.25 234.37 88.28 232.65 89.26 234.4"/><polygon class="a5b1cdbb-be6f-4484-be27-26e016a887a7" points="90.29 232.67 88.28 232.64 87.25 234.37 88.23 236.12 90.24 236.15 91.27 234.42 90.29 232.67"/><polygon class="ab002177-d186-4565-b382-d30398c70b28" points="471.65 79.33 471.65 113.66 438.33 113.66 438.33 69.55 461.88 69.55 461.88 69.56 471.64 79.33 471.65 79.33"/><polygon class="f26a60e5-24c0-4820-b11c-7f544dee3a4a" points="461.88 79.33 461.88 69.56 461.88 69.55 471.65 79.33 471.64 79.33 461.88 79.33"/><polygon class="a5b1cdbb-be6f-4484-be27-26e016a887a7" points="447.14 91.61 442.56 91.61 440.27 95.58 442.56 99.55 447.14 99.55 449.44 95.58 447.14 91.61"/><polygon class="a5b1cdbb-be6f-4484-be27-26e016a887a7" points="450.72 93.37 448.16 93.37 446.89 95.58 448.16 97.79 450.72 97.79 451.99 95.58 450.72 93.37"/><polygon class="a5b1cdbb-be6f-4484-be27-26e016a887a7" points="457.54 95.58 456.27 97.79 454.99 95.58 456.27 93.37 457.54 95.58"/><polygon class="a5b1cdbb-be6f-4484-be27-26e016a887a7" points="458.82 93.37 456.27 93.37 454.99 95.58 456.27 97.79 458.82 97.79 460.1 95.58 458.82 93.37"/><polygon class="a5b1cdbb-be6f-4484-be27-26e016a887a7" points="466 95.58 464.73 97.79 463.44 95.58 464.73 93.37 466 95.58"/><polygon class="a5b1cdbb-be6f-4484-be27-26e016a887a7" points="467.27 93.37 464.72 93.37 463.44 95.58 464.72 97.79 467.27 97.79 468.55 95.58 467.27 93.37"/><path class="e5043b41-aa92-4e3f-a488-0d8eb9195048" d="M480.6,332.65a2.47,2.47,0,0,1-1,3.3l-4.26,2.23a19.81,19.81,0,0,0-25.69-8.35l-2-3.84a2.41,2.41,0,0,1,1-3.27h0a23.72,23.72,0,0,1,32,9.94Z"/><path class="bbd75d98-a961-4e20-9f34-1208f648c7d4" d="M475.32,338.18l-14.47,7.64a2.46,2.46,0,0,1-3.3-1l-7.86-15a19.81,19.81,0,0,1,25.69,8.35Z"/></svg>