<svg id="b7dc4133-fc66-4ad2-ba65-01e704b0a537" data-name="Layer 1" xmlns="http://www.w3.org/2000/svg" xmlns:xlink="http://www.w3.org/1999/xlink" viewBox="0 0 500 500"><defs><style>.abc93194-7b7d-43a7-bd8e-f99f50e03542{fill:#3c65af;opacity:0.06;}.a371840f-5d50-4b22-ba61-f98644bc1d53,.abc93194-7b7d-43a7-bd8e-f99f50e03542,.ff69ffb3-9f33-47a7-b917-3dd047503b17{isolation:isolate;}.ad19aad2-0f75-46d8-bf16-ff0f5511cca4,.ad39e325-f50a-40e9-b42d-6ceed521fe21,.aee3eaac-8180-44c4-96c0-4619dd0a9bb0,.bc5042c4-bdbc-4acb-bde1-31c986a3cdc8,.e1b9489e-6934-40f8-951c-34368a49d253{fill:none;stroke-miterlimit:10;}.e1b9489e-6934-40f8-951c-34368a49d253{stroke:#d5dfe7;stroke-width:0.91px;stroke-dasharray:2.73;}.f7007125-9b59-4ab7-8c5d-8999bf33aff8{fill:#fff;}.b241d8ab-bb3a-4ab6-9a89-7d7f68acd4a7{fill:#d4dee6;}.b55f3aa9-dd0f-4a5e-8737-a4422c4f5c25{fill:#ecedee;opacity:0.07;}.b55df991-8211-4cd1-b535-da08d537a887{fill:#0562e8;}.bf086b66-d603-460f-9e24-9a1042e59fd8{fill:#a4b2bc;}.ad19aad2-0f75-46d8-bf16-ff0f5511cca4,.ad39e325-f50a-40e9-b42d-6ceed521fe21,.bc5042c4-bdbc-4acb-bde1-31c986a3cdc8{stroke:#5d6e86;}.ad19aad2-0f75-46d8-bf16-ff0f5511cca4{stroke-width:0.83px;}.a2af427a-6ce4-4788-acd6-e18c537a2a71{fill:#c4cad1;}.a7b8c0ec-2056-4a4f-986b-a599a5931d5a{fill:#f6921e;}.f4f1e27b-cb2a-432f-924d-e23b1457250b{fill:#b8c5cd;}.be8f8712-d2f5-4781-a0ad-3b8171175f67{fill:#979ea7;}.ad39e325-f50a-40e9-b42d-6ceed521fe21{stroke-width:0.53px;}.ef3549e3-5180-4078-b638-b60d002eb0ae{fill:#537abc;}.bc5042c4-bdbc-4acb-bde1-31c986a3cdc8{stroke-width:1.05px;}.b2834061-9d94-4ec8-b2e2-59d21e7083aa{fill:#3db884;}.aee3eaac-8180-44c4-96c0-4619dd0a9bb0{stroke:#fff;stroke-width:0.92px;}.ff69ffb3-9f33-47a7-b917-3dd047503b17{opacity:0.5;fill:url(#f0087e71-ee4e-49ef-9b56-9822bff674b8);}.a371840f-5d50-4b22-ba61-f98644bc1d53{fill:#f99316;opacity:0.15;}.ac164b54-448e-472f-86f2-bf18f1e669f9{fill:#d6e0e8;}.f779c906-cec7-4ecf-bb30-a1e8be8ffa3e{fill:#bac6ce;}.fbf12658-aa72-4cd8-bc25-a05c74a475b7{fill:#d1d3d4;}.a2c453c9-de83-4aab-9629-28788355b6ad{fill:#ffb213;}.b305218e-12ae-4cbf-8822-a9db1f1ede1f{fill:#3dba85;}.bc1cb547-2ba7-4062-b156-035fd501684a{fill:#f13624;}</style><linearGradient id="f0087e71-ee4e-49ef-9b56-9822bff674b8" x1="428.71" y1="1291.5" x2="396.14" y2="1324.8" gradientTransform="translate(7.27 -1211.94)" gradientUnits="userSpaceOnUse"><stop offset="0" stop-color="#32b44a" stop-opacity="0"/><stop offset="1" stop-color="#32b44a"/></linearGradient></defs><title>AI services Pages and sub Pages</title><path class="abc93194-7b7d-43a7-bd8e-f99f50e03542" d="M69.86,90.57C11.31,150.56,40.68,219.7,112,265.48s96.69,68.09,11.81,113.87S16,509.65,186,480.3s180-88,243.07-70.43,95-57.52-7.28-86.87,12.46-120.93,33-139.7C485.66,155,500.51,42.43,371.85,46S111.1,48.3,69.86,90.57Z"/><circle class="e1b9489e-6934-40f8-951c-34368a49d253" cx="158.66" cy="168.81" r="138.93"/><ellipse class="e1b9489e-6934-40f8-951c-34368a49d253" cx="158.66" cy="168.81" rx="92.83" ry="138.93"/><ellipse class="e1b9489e-6934-40f8-951c-34368a49d253" cx="158.66" cy="168.81" rx="53.75" ry="138.93"/><ellipse class="e1b9489e-6934-40f8-951c-34368a49d253" cx="158.66" cy="168.81" rx="15.84" ry="138.93"/><ellipse class="e1b9489e-6934-40f8-951c-34368a49d253" cx="158.66" cy="168.81" rx="138.93" ry="116.93"/><ellipse class="e1b9489e-6934-40f8-951c-34368a49d253" cx="158.66" cy="168.81" rx="138.93" ry="64.51"/><ellipse class="e1b9489e-6934-40f8-951c-34368a49d253" cx="158.66" cy="168.81" rx="138.93" ry="21.93"/><rect class="f7007125-9b59-4ab7-8c5d-8999bf33aff8" x="200.13" y="177.62" width="108.03" height="103.32" rx="6.42"/><path class="b241d8ab-bb3a-4ab6-9a89-7d7f68acd4a7" d="M204.42,415.36H335.58A182.62,182.62,0,0,1,322.44,392c-7.51-17.41-33.9-51.57,7.81-87.7,26.05-22.56,40.83-64.71,30.95-100.92-16.15-59.2-63.69-99.12-127.38-86.57,0,0-61,9.87-79.39,64.15a37.59,37.59,0,0,0-2.25,18.39c1.35,10.31-26.46,28.7-34.09,32.74s-13,7.62-7.17,16.59,10.54,15.48,6.17,21.76,5.27,13.34,6.16,17.38-8.63,1.46-11,5.72,2.58,6.17,3.82,12.22-5.72,13.91-6.28,16.93-1.69,17.83,14.57,19.4,45.75,1.24,52.48,9.31C183.05,358.83,195,397.94,204.42,415.36Z"/><path class="b55f3aa9-dd0f-4a5e-8737-a4422c4f5c25" d="M117.09,270.43c-4.38,6.28,5.27,13.34,6.16,17.38s-8.63,1.46-11,5.72,2.58,6.17,3.82,12.22a10.91,10.91,0,0,1-.77,5.9c26.8-2.13,53.66-8.32,77.94-19.4,31.41-14.34,62.41-35.46,90-56.21,24.71-18.6,43.74-43.06,64.58-65.69-22.48-40.07-63.06-63.59-114-53.55,0,0-61,9.87-79.39,64.15a37.59,37.59,0,0,0-2.25,18.39c1.35,10.31-26.46,28.7-34.09,32.74s-13,7.62-7.17,16.59S121.46,264.15,117.09,270.43Z"/><path class="b55df991-8211-4cd1-b535-da08d537a887" d="M215,386.08h97.33a27.49,27.49,0,0,1,27.49,27.49v1.79a0,0,0,0,1,0,0H187.49a0,0,0,0,1,0,0v-1.79A27.49,27.49,0,0,1,215,386.08Z"/><path class="bf086b66-d603-460f-9e24-9a1042e59fd8" d="M224,190.3h1.39a2.17,2.17,0,0,0,2.17-2.17V159.32a2.17,2.17,0,0,0-2.17-2.17H224a2.18,2.18,0,0,0-2.17,2.17v28.81A2.17,2.17,0,0,0,224,190.3Z"/><path class="bf086b66-d603-460f-9e24-9a1042e59fd8" d="M237.5,190.3h1.39a2.17,2.17,0,0,0,2.17-2.17V159.32a2.18,2.18,0,0,0-2.17-2.17H237.5a2.17,2.17,0,0,0-2.17,2.17v28.81A2.17,2.17,0,0,0,237.5,190.3Z"/><path class="bf086b66-d603-460f-9e24-9a1042e59fd8" d="M251,190.3h1.4a2.17,2.17,0,0,0,2.16-2.17V159.32a2.17,2.17,0,0,0-2.16-2.17H251a2.18,2.18,0,0,0-2.17,2.17v28.81A2.17,2.17,0,0,0,251,190.3Z"/><path class="bf086b66-d603-460f-9e24-9a1042e59fd8" d="M264.51,190.3h1.39a2.17,2.17,0,0,0,2.17-2.17V159.32a2.17,2.17,0,0,0-2.17-2.17h-1.39a2.18,2.18,0,0,0-2.17,2.17v28.81A2.17,2.17,0,0,0,264.51,190.3Z"/><path class="bf086b66-d603-460f-9e24-9a1042e59fd8" d="M278,190.3h1.39a2.17,2.17,0,0,0,2.17-2.17V159.32a2.18,2.18,0,0,0-2.17-2.17H278a2.17,2.17,0,0,0-2.17,2.17v28.81A2.17,2.17,0,0,0,278,190.3Z"/><path class="bf086b66-d603-460f-9e24-9a1042e59fd8" d="M225.38,268.27H224a2.18,2.18,0,0,0-2.17,2.17v28.81a2.17,2.17,0,0,0,2.17,2.17h1.39a2.17,2.17,0,0,0,2.17-2.17V270.44A2.17,2.17,0,0,0,225.38,268.27Z"/><path class="bf086b66-d603-460f-9e24-9a1042e59fd8" d="M238.89,268.27H237.5a2.17,2.17,0,0,0-2.17,2.17v28.81a2.17,2.17,0,0,0,2.17,2.17h1.39a2.17,2.17,0,0,0,2.17-2.17V270.44A2.18,2.18,0,0,0,238.89,268.27Z"/><path class="bf086b66-d603-460f-9e24-9a1042e59fd8" d="M252.4,268.27H251a2.18,2.18,0,0,0-2.17,2.17v28.81a2.17,2.17,0,0,0,2.17,2.17h1.4a2.17,2.17,0,0,0,2.16-2.17V270.44A2.17,2.17,0,0,0,252.4,268.27Z"/><path class="bf086b66-d603-460f-9e24-9a1042e59fd8" d="M265.9,268.27h-1.39a2.18,2.18,0,0,0-2.17,2.17v28.81a2.17,2.17,0,0,0,2.17,2.17h1.39a2.17,2.17,0,0,0,2.17-2.17V270.44A2.17,2.17,0,0,0,265.9,268.27Z"/><path class="bf086b66-d603-460f-9e24-9a1042e59fd8" d="M279.41,268.27H278a2.17,2.17,0,0,0-2.17,2.17v28.81a2.17,2.17,0,0,0,2.17,2.17h1.39a2.17,2.17,0,0,0,2.17-2.17V270.44A2.18,2.18,0,0,0,279.41,268.27Z"/><path class="bf086b66-d603-460f-9e24-9a1042e59fd8" d="M212.72,257v-1.4a2.18,2.18,0,0,0-2.17-2.17H181.73a2.18,2.18,0,0,0-2.17,2.17V257a2.17,2.17,0,0,0,2.17,2.16h28.82A2.17,2.17,0,0,0,212.72,257Z"/><path class="bf086b66-d603-460f-9e24-9a1042e59fd8" d="M212.72,243.49V242.1a2.17,2.17,0,0,0-2.17-2.17H181.73a2.17,2.17,0,0,0-2.17,2.17v1.39a2.18,2.18,0,0,0,2.17,2.17h28.82A2.18,2.18,0,0,0,212.72,243.49Z"/><path class="bf086b66-d603-460f-9e24-9a1042e59fd8" d="M212.72,230v-1.39a2.18,2.18,0,0,0-2.17-2.17H181.73a2.18,2.18,0,0,0-2.17,2.17V230a2.17,2.17,0,0,0,2.17,2.17h28.82A2.17,2.17,0,0,0,212.72,230Z"/><path class="bf086b66-d603-460f-9e24-9a1042e59fd8" d="M212.72,216.48v-1.4a2.18,2.18,0,0,0-2.17-2.17H181.73a2.18,2.18,0,0,0-2.17,2.17v1.4a2.17,2.17,0,0,0,2.17,2.16h28.82A2.17,2.17,0,0,0,212.72,216.48Z"/><path class="bf086b66-d603-460f-9e24-9a1042e59fd8" d="M212.72,203v-1.39a2.17,2.17,0,0,0-2.17-2.17H181.73a2.17,2.17,0,0,0-2.17,2.17V203a2.18,2.18,0,0,0,2.17,2.17h28.82A2.18,2.18,0,0,0,212.72,203Z"/><path class="bf086b66-d603-460f-9e24-9a1042e59fd8" d="M290.68,255.6V257a2.17,2.17,0,0,0,2.17,2.16h28.82a2.17,2.17,0,0,0,2.17-2.16v-1.4a2.18,2.18,0,0,0-2.17-2.17H292.85A2.18,2.18,0,0,0,290.68,255.6Z"/><path class="bf086b66-d603-460f-9e24-9a1042e59fd8" d="M290.68,242.1v1.39a2.18,2.18,0,0,0,2.17,2.17h28.82a2.18,2.18,0,0,0,2.17-2.17V242.1a2.17,2.17,0,0,0-2.17-2.17H292.85A2.17,2.17,0,0,0,290.68,242.1Z"/><path class="bf086b66-d603-460f-9e24-9a1042e59fd8" d="M290.68,228.59V230a2.17,2.17,0,0,0,2.17,2.17h28.82a2.17,2.17,0,0,0,2.17-2.17v-1.39a2.18,2.18,0,0,0-2.17-2.17H292.85A2.18,2.18,0,0,0,290.68,228.59Z"/><path class="bf086b66-d603-460f-9e24-9a1042e59fd8" d="M290.68,215.08v1.4a2.17,2.17,0,0,0,2.17,2.16h28.82a2.17,2.17,0,0,0,2.17-2.16v-1.4a2.18,2.18,0,0,0-2.17-2.17H292.85A2.18,2.18,0,0,0,290.68,215.08Z"/><path class="bf086b66-d603-460f-9e24-9a1042e59fd8" d="M290.68,201.58V203a2.18,2.18,0,0,0,2.17,2.17h28.82a2.18,2.18,0,0,0,2.17-2.17v-1.39a2.17,2.17,0,0,0-2.17-2.17H292.85A2.17,2.17,0,0,0,290.68,201.58Z"/><polygon class="f7007125-9b59-4ab7-8c5d-8999bf33aff8" points="242.03 214.52 249.3 234.2 234.7 234.2 242.03 214.52"/><path class="f7007125-9b59-4ab7-8c5d-8999bf33aff8" d="M298.09,175.34H205.31a7.56,7.56,0,0,0-7.56,7.56v92.77a7.56,7.56,0,0,0,7.56,7.56h92.78a7.56,7.56,0,0,0,7.56-7.56V182.9A7.56,7.56,0,0,0,298.09,175.34Zm-42.3,77.42-4.23-11.22H232.44l-4.23,11.22h-9.53L237.8,204h8.89l19.12,48.75Zm23.29,0h-9.17V204.07h9.17Z"/><polyline class="ad19aad2-0f75-46d8-bf16-ff0f5511cca4" points="428.17 282.72 406.84 265.26 393.53 240.51 426.68 246.68 406.6 265.43 387.28 275.94 374.47 253.26 352.18 271.86 335.58 249.21"/><line class="ad19aad2-0f75-46d8-bf16-ff0f5511cca4" x1="352.18" y1="271.86" x2="387.28" y2="275.94"/><line class="ad19aad2-0f75-46d8-bf16-ff0f5511cca4" x1="393.53" y1="240.51" x2="387.28" y2="275.94"/><line class="ad19aad2-0f75-46d8-bf16-ff0f5511cca4" x1="387.28" y1="275.94" x2="352.18" y2="271.86"/><circle class="b55df991-8211-4cd1-b535-da08d537a887" cx="428.17" cy="282.72" r="4.71"/><circle class="a2af427a-6ce4-4788-acd6-e18c537a2a71" cx="406.84" cy="265.26" r="4.71"/><circle class="a7b8c0ec-2056-4a4f-986b-a599a5931d5a" cx="426.68" cy="246.68" r="4.71"/><circle class="f4f1e27b-cb2a-432f-924d-e23b1457250b" cx="393.53" cy="240.51" r="4.71"/><circle class="f4f1e27b-cb2a-432f-924d-e23b1457250b" cx="387.28" cy="275.94" r="4.71"/><circle class="a7b8c0ec-2056-4a4f-986b-a599a5931d5a" cx="374.47" cy="253.26" r="4.71"/><circle class="be8f8712-d2f5-4781-a0ad-3b8171175f67" cx="352.18" cy="271.86" r="4.71"/><circle class="f4f1e27b-cb2a-432f-924d-e23b1457250b" cx="335.58" cy="249.21" r="4.71"/><polyline class="ad39e325-f50a-40e9-b42d-6ceed521fe21" points="185.33 177.16 171.62 165.94 163.07 150.04 184.38 154 171.47 166.05 159.06 172.8 150.82 158.23 136.51 170.18 125.83 155.63"/><line class="ad39e325-f50a-40e9-b42d-6ceed521fe21" x1="136.51" y1="170.18" x2="159.06" y2="172.8"/><line class="ad39e325-f50a-40e9-b42d-6ceed521fe21" x1="163.07" y1="150.04" x2="159.06" y2="172.8"/><line class="ad39e325-f50a-40e9-b42d-6ceed521fe21" x1="159.06" y1="172.8" x2="136.51" y2="170.18"/><circle class="ef3549e3-5180-4078-b638-b60d002eb0ae" cx="185.33" cy="177.16" r="3.02"/><circle class="a2af427a-6ce4-4788-acd6-e18c537a2a71" cx="171.62" cy="165.94" r="3.02"/><circle class="a7b8c0ec-2056-4a4f-986b-a599a5931d5a" cx="184.37" cy="154" r="3.02"/><circle class="f4f1e27b-cb2a-432f-924d-e23b1457250b" cx="163.07" cy="150.04" r="3.02"/><circle class="f4f1e27b-cb2a-432f-924d-e23b1457250b" cx="159.06" cy="172.8" r="3.02"/><circle class="a7b8c0ec-2056-4a4f-986b-a599a5931d5a" cx="150.82" cy="158.23" r="3.02"/><circle class="be8f8712-d2f5-4781-a0ad-3b8171175f67" cx="136.51" cy="170.18" r="3.02"/><circle class="f4f1e27b-cb2a-432f-924d-e23b1457250b" cx="125.83" cy="155.63" r="3.02"/><polyline class="bc5042c4-bdbc-4acb-bde1-31c986a3cdc8" points="348.03 370.89 321.15 348.89 304.38 317.71 346.16 325.48 320.86 349.11 296.5 362.34 280.36 333.77 252.28 357.21 231.35 328.66"/><line class="bc5042c4-bdbc-4acb-bde1-31c986a3cdc8" x1="252.28" y1="357.21" x2="226.56" y2="362.43"/><line class="bc5042c4-bdbc-4acb-bde1-31c986a3cdc8" x1="252.28" y1="357.21" x2="296.5" y2="362.34"/><line class="bc5042c4-bdbc-4acb-bde1-31c986a3cdc8" x1="304.38" y1="317.71" x2="296.5" y2="362.34"/><line class="bc5042c4-bdbc-4acb-bde1-31c986a3cdc8" x1="296.5" y1="362.34" x2="252.28" y2="357.21"/><circle class="b55df991-8211-4cd1-b535-da08d537a887" cx="348.03" cy="370.89" r="5.93"/><circle class="a2af427a-6ce4-4788-acd6-e18c537a2a71" cx="321.15" cy="348.89" r="5.93"/><circle class="a7b8c0ec-2056-4a4f-986b-a599a5931d5a" cx="346.16" cy="325.48" r="5.93"/><circle class="b55df991-8211-4cd1-b535-da08d537a887" cx="304.38" cy="317.71" r="5.93"/><circle class="f4f1e27b-cb2a-432f-924d-e23b1457250b" cx="296.5" cy="362.34" r="5.93"/><circle class="a7b8c0ec-2056-4a4f-986b-a599a5931d5a" cx="280.36" cy="333.77" r="5.93"/><circle class="b2834061-9d94-4ec8-b2e2-59d21e7083aa" cx="226.71" cy="362.98" r="5.93"/><circle class="be8f8712-d2f5-4781-a0ad-3b8171175f67" cx="252.28" cy="357.21" r="5.93"/><circle class="f4f1e27b-cb2a-432f-924d-e23b1457250b" cx="231.35" cy="328.66" r="5.93"/><line class="bc5042c4-bdbc-4acb-bde1-31c986a3cdc8" x1="367.12" y1="354.01" x2="346.19" y2="325.46"/><circle class="be8f8712-d2f5-4781-a0ad-3b8171175f67" cx="367.12" cy="354.01" r="5.93"/><circle class="b2834061-9d94-4ec8-b2e2-59d21e7083aa" cx="346.19" cy="325.46" r="5.93"/><path class="f7007125-9b59-4ab7-8c5d-8999bf33aff8" d="M173,302.49a5.83,5.83,0,1,0,5.8,5.82A5.82,5.82,0,0,0,173,302.49Zm11.67,9.17-1,2.52,1.87,3.68.25.48-2.6,2.6-4.25-2-2.53,1L175,323.89l-.17.52H171.2L169.62,320l-2.53-1-3.68,1.87-.49.24-2.59-2.59,2-4.26-1-2.53-3.92-1.28-.52-.17v-3.66l4.43-1.59,1-2.52-1.86-3.69-.25-.48,2.59-2.59,4.27,2,2.52-1.05,1.28-3.92.17-.52h3.66l1.59,4.44,2.52,1,3.68-1.87.49-.24,2.59,2.59-2,4.25,1,2.53,3.94,1.28.51.17v3.66Z"/><path class="f7007125-9b59-4ab7-8c5d-8999bf33aff8" d="M205.76,304.75a3.57,3.57,0,1,0,3.55,3.56A3.56,3.56,0,0,0,205.76,304.75Zm7.15,5.61-.65,1.55,1.15,2.25.15.3L212,316.05l-2.61-1.24-1.54.64-.79,2.41-.1.31h-2.25l-1-2.71-1.55-.64L199.91,316l-.3.15L198,314.53l1.23-2.61-.63-1.55-2.41-.78-.31-.11v-2.24l2.71-1,.64-1.54-1.14-2.26-.15-.29,1.58-1.59,2.61,1.23,1.55-.64.79-2.4.1-.32h2.24l1,2.72,1.55.64,2.25-1.15.3-.15,1.59,1.59-1.23,2.6.64,1.55,2.41.79.31.1v2.24Z"/><path class="f7007125-9b59-4ab7-8c5d-8999bf33aff8" d="M140.64,304.75a3.57,3.57,0,1,0,3.55,3.56A3.56,3.56,0,0,0,140.64,304.75Zm7.15,5.61-.65,1.55,1.15,2.25.15.3-1.59,1.59-2.6-1.24-1.55.64-.79,2.41-.1.31h-2.24l-1-2.71-1.54-.64L134.79,316l-.3.15-1.58-1.58,1.23-2.61-.64-1.55-2.4-.78-.32-.11v-2.24l2.71-1,.64-1.54L133,302.46l-.15-.29,1.59-1.59,2.61,1.23,1.54-.64.79-2.4.1-.32h2.24l1,2.72,1.54.64,2.26-1.15.3-.15,1.58,1.59-1.23,2.6.64,1.55,2.41.79.31.1v2.24Z"/><polygon class="f7007125-9b59-4ab7-8c5d-8999bf33aff8" points="152.49 302.8 152.32 298.94 149.06 301.02 152.49 302.8"/><polygon class="f7007125-9b59-4ab7-8c5d-8999bf33aff8" points="202.75 322.36 206.09 324.29 206.09 320.43 202.75 322.36"/><path class="aee3eaac-8180-44c4-96c0-4619dd0a9bb0" d="M150.94,300.19a13.53,13.53,0,0,0-24,8.6"/><path class="aee3eaac-8180-44c4-96c0-4619dd0a9bb0" d="M205.94,322.31a13.52,13.52,0,1,0-8.41-24.1"/><path class="aee3eaac-8180-44c4-96c0-4619dd0a9bb0" d="M155.16,317.47a19.68,19.68,0,0,0,37.34-8.68"/><path class="f7007125-9b59-4ab7-8c5d-8999bf33aff8" d="M257.41,142a5.82,5.82,0,1,0-5.8-5.82A5.82,5.82,0,0,0,257.41,142Zm-11.67-9.16,1-2.53-1.87-3.68-.25-.48,2.59-2.6,4.26,2,2.53-1,1.28-3.93.17-.52h3.66l1.59,4.43,2.53,1,3.68-1.86.48-.25L270,126l-2,4.25,1,2.53,3.92,1.28.52.17v3.66l-4.44,1.59L268,142l1.87,3.68.24.48-2.59,2.59-4.26-2-2.52,1-1.28,3.92-.17.52h-3.67l-1.58-4.43-2.52-1.05-3.69,1.87-.49.25-2.59-2.59,2-4.26-1-2.53-3.93-1.28-.52-.17v-3.66Z"/><path class="f7007125-9b59-4ab7-8c5d-8999bf33aff8" d="M224.61,139.71a3.57,3.57,0,1,0-3.55-3.57A3.56,3.56,0,0,0,224.61,139.71Zm-7.15-5.62.64-1.55L217,130.29l-.15-.29,1.59-1.59,2.6,1.23,1.55-.64.79-2.4.1-.32h2.24l1,2.71,1.54.64,2.26-1.14.29-.15,1.59,1.59-1.23,2.61.64,1.54,2.4.79.32.1v2.24l-2.72,1-.63,1.54,1.14,2.26.15.29-1.59,1.59-2.61-1.23-1.54.64-.79,2.4-.1.32h-2.25l-1-2.71-1.54-.64-2.26,1.14-.3.15-1.58-1.59,1.23-2.6-.64-1.55-2.41-.79-.31-.1v-2.24Z"/><path class="f7007125-9b59-4ab7-8c5d-8999bf33aff8" d="M289.73,139.71a3.57,3.57,0,1,0-3.56-3.57A3.56,3.56,0,0,0,289.73,139.71Zm-7.15-5.62.64-1.55-1.14-2.25-.16-.29,1.59-1.59,2.61,1.23,1.55-.64.78-2.4.1-.32h2.25l1,2.71,1.55.64,2.26-1.14.29-.15,1.59,1.59-1.23,2.61.64,1.54,2.4.79.32.1v2.24l-2.72,1-.64,1.54,1.15,2.26.15.29-1.59,1.59-2.61-1.23-1.55.64-.78,2.4-.1.32h-2.25l-1-2.71-1.54-.64-2.26,1.14-.3.15L282,142.35l1.23-2.6-.63-1.55-2.41-.79-.32-.1v-2.24Z"/><polygon class="f7007125-9b59-4ab7-8c5d-8999bf33aff8" points="277.88 141.65 278.05 145.51 281.31 143.43 277.88 141.65"/><polygon class="f7007125-9b59-4ab7-8c5d-8999bf33aff8" points="227.62 122.09 224.28 120.16 224.28 124.02 227.62 122.09"/><path class="aee3eaac-8180-44c4-96c0-4619dd0a9bb0" d="M279.43,144.26a13.52,13.52,0,0,0,23.95-8.6"/><path class="aee3eaac-8180-44c4-96c0-4619dd0a9bb0" d="M224.42,122.14a13.52,13.52,0,1,0,8.42,24.1"/><path class="aee3eaac-8180-44c4-96c0-4619dd0a9bb0" d="M275.21,127a19.68,19.68,0,0,0-37.35,8.68"/><path class="ff69ffb3-9f33-47a7-b917-3dd047503b17" d="M420.65,80.56h0a14.52,14.52,0,0,1,14.54,14.52v0h0a3.73,3.73,0,0,1-3.73,3.73H420.65a3.74,3.74,0,0,1-3.73-3.73V84.31a3.73,3.73,0,0,1,3.73-3.73Z"/><path class="a371840f-5d50-4b22-ba61-f98644bc1d53" d="M107.39,409.86h0a24.58,24.58,0,0,1,24.54-24.58h0a6.31,6.31,0,0,1,6.31,6.31v18.27a6.31,6.31,0,0,1-6.29,6.31h-18.2a6.3,6.3,0,0,1-6.31-6.29v0Z"/><path class="ac164b54-448e-472f-86f2-bf18f1e669f9" d="M321.59,58.93h21.34a0,0,0,0,1,0,0V77.77a18.84,18.84,0,0,1-18.84,18.84h-2.49a18.84,18.84,0,0,1-18.84-18.84v0A18.84,18.84,0,0,1,321.59,58.93Z" transform="translate(645.68 155.54) rotate(180)"/><circle class="f7007125-9b59-4ab7-8c5d-8999bf33aff8" cx="322.84" cy="77.77" r="10.56"/><path class="f779c906-cec7-4ecf-bb30-a1e8be8ffa3e" d="M365,96.61H386.3a0,0,0,0,1,0,0v18.84a18.84,18.84,0,0,1-18.84,18.84H365a18.84,18.84,0,0,1-18.84-18.84v0A18.84,18.84,0,0,1,365,96.61Z" transform="translate(732.42 230.9) rotate(-180)"/><circle class="f7007125-9b59-4ab7-8c5d-8999bf33aff8" cx="366.21" cy="115.45" r="10.56"/><path class="ac164b54-448e-472f-86f2-bf18f1e669f9" d="M385.05,147.57h21.34a0,0,0,0,1,0,0v18.84a18.84,18.84,0,0,1-18.84,18.84h-2.49a18.84,18.84,0,0,1-18.84-18.84v0a18.84,18.84,0,0,1,18.84-18.84Z" transform="translate(772.6 332.83) rotate(-180)"/><circle class="f7007125-9b59-4ab7-8c5d-8999bf33aff8" cx="386.3" cy="166.42" r="10.56"/><circle class="fbf12658-aa72-4cd8-bc25-a05c74a475b7" cx="396.54" cy="74.07" r="4.44"/><circle class="fbf12658-aa72-4cd8-bc25-a05c74a475b7" cx="379.23" cy="74.07" r="4.44"/><circle class="a2c453c9-de83-4aab-9629-28788355b6ad" cx="361.93" cy="74.07" r="4.44"/><circle class="fbf12658-aa72-4cd8-bc25-a05c74a475b7" cx="438.92" cy="115.45" r="4.44"/><circle class="b305218e-12ae-4cbf-8822-a9db1f1ede1f" cx="421.61" cy="115.45" r="4.44"/><circle class="b305218e-12ae-4cbf-8822-a9db1f1ede1f" cx="404.31" cy="115.45" r="4.44"/><circle class="fbf12658-aa72-4cd8-bc25-a05c74a475b7" cx="435.42" cy="166.42" r="4.44"/><circle class="bc1cb547-2ba7-4062-b156-035fd501684a" cx="418.11" cy="166.42" r="4.44"/></svg>