<svg width="700" height="320" xmlns="http://www.w3.org/2000/svg">

 <g>
  <title>Layer 1</title>
  <g stroke="null" id="svg_1" fill-rule="evenodd" fill="none">
   <path stroke="null" id="svg_2" d="m674.21099,175.09903l-52.25718,0l0,32.0266l24.70359,0l0,52.55039l27.55359,0l0,-84.577z" fill-rule="nonzero" fill="#FCC010"/>
   <path stroke="null" id="svg_3" d="m262.27201,241.29238l0.31454,0l0,6.4492l-0.31454,0l0,-6.4492zm30.76188,0l5.27878,0l0,6.4492l-5.27878,0l0,-6.4492zm6.15402,0l5.27604,0l0,6.4492l-5.27878,0l0.00274,-6.4492zm0,-7.62898l5.27604,0l0,6.42762l-5.27878,0l0.00274,-6.42762zm-269.83589,8.20088c-0.21881,-0.22301 -0.43762,-0.48918 -0.65643,-0.73376c0.28172,0.24459 0.50053,0.51076 0.65643,0.73376zm-1.89544,-2.22287l-0.62634,-0.79491l0.62908,0.79491l-0.00274,0zm259.42602,-5.97801l5.27604,0l0,6.42762l-5.27604,0l0,-6.42762zm6.15128,0l5.27878,0l0,6.42762l-5.27878,0l0,-6.42762zm-267.43992,3.61127l-0.60993,-0.81649l0.60993,0.81649zm273.59394,-11.19708l5.27604,0l0,6.42402l-5.27878,0l0.00274,-6.42402zm-275.37724,8.7512zm149.99392,-88.67384c-1.83253,0.86325 -3.59668,1.94231 -5.27878,3.2228l0,2.03943l5.27878,0l0,-5.26223zm100.77545,102.74483l5.27331,0l0,6.65422l-5.27604,0l0.00274,-6.65422zm18.45385,0l5.27878,0l0,6.65422l-5.27878,0l0,-6.65422zm-6.15128,0l5.27604,0l0,6.65422l-5.27604,0l0,-6.65422zm-24.6106,0l5.27878,0l0,6.65422l-5.27878,0l0,-6.65422zm6.15402,-22.82219l5.27604,0l0,6.42402l-5.27878,0l0.00274,-6.42402zm12.3053,0l5.27331,0l0,6.42402l-5.27057,0l-0.00274,-6.42402zm-258.61096,6.20102c-0.20513,-0.30573 -0.37745,-0.61147 -0.56343,-0.9172c0.18599,0.30573 0.3583,0.61147 0.56343,0.9172zm270.91352,-6.20102l5.27878,0l0,6.42402l-5.27878,0l0,-6.42402zm6.15402,22.82219l5.27604,0l0,6.65422l-5.27878,0l0.00274,-6.65422zm-36.9159,-22.82219l0.31454,0l0,6.42402l-0.31454,0l0,-6.42402zm-209.70156,31.2281l-0.79865,-0.26257l0.79592,0.26257l0.00274,0zm-2.58469,-0.89562l-0.79865,-0.3489l0.79865,0.3489zm-4.97792,-2.28402l-0.79865,-0.43163l0.79865,0.43163zm2.45614,1.22294l-0.78224,-0.38846l0.78224,0.38846zm-4.88219,-2.57177l-0.70566,-0.55032l0.70566,0.55032zm113.68795,-84.81799l5.22955,0l0,6.2226l-5.22955,0l0,-6.2226zm86.38599,-113.23333a5.46203,7.18297 0 0 0 -4.06712,1.93152a5.36083,7.04988 0 0 0 -1.69577,5.1867a0.46497,0.61147 0 0 0 0.13676,0.47838a0.47318,0.62226 0 0 0 0.36651,0.17625l10.42627,0a0.47318,0.62226 0 0 0 0.36377,-0.17984a0.46497,0.61147 0 0 0 0.13676,-0.47479a5.23502,6.88443 0 0 0 -1.61919,-5.19749a5.33348,7.01391 0 0 0 -4.04798,-1.92073zm31.78208,146.17713l5.96256,0l0,7.97788l-5.96256,0l0,-7.97788z"/>
   <path stroke="null" id="svg_4" d="m189.19237,226.62791a56.94517,74.88701 0 0 1 27.25546,-35.5983c0.2024,-1.88476 0.30086,-3.78751 0.30086,-5.69026c-0.01094,-23.0452 -14.3457,-41.72379 -32.03371,-41.73458c-0.95456,0 -1.8927,0 -2.83358,0.20502l3.44625,0c-0.14223,0.38487 -0.31454,0.77333 -0.47044,1.16179l-4.02336,0l0,6.44561l1.18978,0l-0.59626,1.18337l-0.59352,0l0,1.12223c-0.28172,0.55032 -0.57985,1.07906 -0.87524,1.6114l0,-2.79477l-5.27878,0l0,6.42402l3.13171,0c-0.25163,0.41004 -0.51694,0.79491 -0.78224,1.18697l-2.28656,0l0,3.23719l-0.87524,1.18697l0,-4.42416l-5.33895,0l0,6.40244l3.63224,0c-0.39112,0.46759 -0.79865,0.9172 -1.20619,1.36681l-2.42605,0l0,2.71205l-0.87524,0.89922l0,-3.5717l-5.22955,0l0,6.24418l2.25374,0c-0.47044,0.38487 -0.94088,0.79131 -1.40859,1.16179l-0.84789,0l0,0.65103l-0.87524,0.67621l0,-1.33084l-5.27604,0l0,4.75507l-0.92447,0.53234l0,-5.28741l-1.72312,0a29.93041,39.36064 0 0 0 -0.79592,6.4492l0.2024,0l-0.28172,0.14388c0,1.10064 -0.12582,2.20129 -0.12582,3.32352a31.59062,41.54394 0 0 0 9.38146,29.51239a32.18141,42.32087 0 0 0 22.64952,12.22579c1.49885,0 2.99496,-0.12589 4.47739,-0.38846l0.06291,0z"/>
   <path stroke="null" id="svg_5" d="m162.37453,160.14681l5.27878,0l0,6.44561l-5.27878,0l0,-6.44561zm-122.06288,91.1413l-0.75216,-0.52874l0.75216,0.52874zm240.41968,-9.99572l5.27331,0l0,6.4492l-5.27057,0l-0.00274,-6.4492zm-247.19731,4.81622l-0.69199,-0.65463l0.68925,0.65463l0.00274,0zm234.89201,-4.81622l5.27604,0l0,6.4492l-5.27878,0l0.00274,-6.4492zm-236.99258,2.77679l-0.67284,-0.6942l0.67284,0.6942zm243.1466,-10.40577l5.27331,0l0,6.42762l-5.27604,0l0.00274,-6.42762zm-238.88528,14.24004l-0.70566,-0.61147l0.70293,0.61147l0.00274,0zm244.70561,-102.72684l6.0747,0l0,7.8304l-6.07196,0l-0.00274,-7.8304zm-12.03726,0l5.96256,0l0,7.8304l-5.96256,0l0,-7.8304zm-230.43103,104.47852l-0.73848,-0.56831l0.73848,0.5719l0,-0.0036zm224.33992,-15.99172l5.27878,0l0,6.42762l-5.27878,0l0,-6.42762zm12.16581,-80.63482l5.96256,0l0,7.97428l-5.96256,0l0,-7.97428zm-258.18975,68.0925l-0.47044,-1.14381l0.47044,1.14381zm143.62109,-62.15765l1.56722,0l0,-2.36675c-0.50053,0.77693 -1.05029,1.55025 -1.56449,2.36675l-0.00274,0zm7.78141,-6.42402l-2.75426,0c-0.8643,0.89922 -1.6903,1.85959 -2.47255,2.8775l0,3.54652l5.27331,0l-0.0465,-6.42402zm137.68862,96.36037l5.27878,0l0,6.65422l-5.27878,0l0,-6.65422zm-287.77827,-24.86162l-0.49779,-1.08266l0.50053,1.07906l-0.00274,0.0036zm-2.53272,-5.91686c-0.15864,-0.38846 -0.30086,-0.79491 -0.45403,-1.18697c0.1559,0.39206 0.29539,0.79851 0.45403,1.18697zm3.96045,8.7512l-0.51967,-1.02151l0.51967,1.02151zm-6.09111,-14.9738l-0.39112,-1.30567l0.39112,1.30567zm-0.90806,-3.20122c-0.1094,-0.46759 -0.23522,-0.9172 -0.34462,-1.3884c0.1094,0.46759 0.23522,0.9172 0.34462,1.3884zm1.91185,6.36288l-0.41027,-1.2625l0.41027,1.2625zm254.46178,-22.15317l5.96256,0l0,7.97788l-5.96256,0l0,-7.97788zm-102.24695,-41.55473l1.56722,0l0,-1.34164c-0.56343,0.42803 -1.0667,0.87404 -1.56722,1.34523l0,-0.0036zm-105.59473,107.74809l-0.54702,0l0.54702,0zm-2.69136,-0.42803l-0.70566,-0.16186l0.70566,0.16186zm-2.66127,-0.61147l-0.75216,-0.20502l0.75216,0.20502zm119.51102,-112.39525l0,5.69026l5.27878,0l0,-6.44561l-3.24385,0c-0.68651,0.24459 -1.36209,0.46759 -2.03493,0.75534zm-154.17318,83.95833l-0.54702,-0.97835l0.54702,0.97835zm47.02763,-95.78847l2.17715,0l0,0.40645l-2.17715,0l0,-0.40645zm212.8661,59.07153l6.0747,0l0,7.97788l-6.07196,0l-0.00274,-7.97788zm-269.19313,12.50635c-0.1094,-0.46759 -0.2024,-0.96037 -0.29813,-1.42796c0.09573,0.46759 0.18872,0.95677 0.30086,1.42796l-0.00274,0zm147.9754,-45.26671a32.41663,42.6302 0 0 0 -2.9129,6.12189l0,0.28415l5.22955,0l0,-6.40244l-2.31665,0l0,-0.0036zm146.15655,81.14557l5.27878,0l0,6.4492l-5.27878,0l0,-6.4492zm-294.7747,-39.22396c-0.09299,-0.49277 -0.17231,-0.98195 -0.26531,-1.48911c0.06291,0.50716 0.14223,0.99634 0.26531,1.48911zm294.7747,31.59498l5.27878,0l0,6.42762l-5.27878,0l0,-6.42762zm-136.81065,-81.12399l5.27604,0l0,6.44561l-5.27878,0l0.00274,-6.44561zm136.81065,73.53818l5.27878,0l0,6.42402l-5.27878,0l0,-6.42402zm-295.79216,-30.84323c0,-0.53234 -0.1094,-1.06108 -0.1559,-1.59342c0.0465,0.53234 0.09299,1.06108 0.1559,1.59342zm11.56955,-11.20068l-1.28551,-0.3453c0.42394,0 0.84789,0.26617 1.28551,0.38846l0,-0.04316zm-11.14561,14.64649c0,-0.51076 -0.14223,-1.01792 -0.20513,-1.54666c0.06291,0.52874 0.14223,1.0359 0.20513,1.54666zm274.56491,-121.75793a5.43195,7.1434 0 0 0 5.74375,-6.52833c0.1559,-3.04296 0.1559,-6.09671 0,-9.13967a5.79025,7.61459 0 0 0 -5.75195,-6.53193c-2.89923,0 -5.3581,2.78758 -5.75469,6.53193a51.4722,67.68965 0 0 0 0,9.13607a5.43195,7.1434 0 0 0 5.76016,6.53193l0.00274,0zm-130.67577,97.28117l1.56449,0l0,-5.61113a31.88875,41.936 0 0 0 -1.56449,5.61113zm-127.02713,11.91286zm3.49001,1.69053z"/>
   <!--<path stroke="null" id="svg_6" fill-rule="nonzero" fill="#FFF" d="m29.35202,42.59003l3.41343,0a0.79318,1.04309 0 0 0 0.79865,-1.04309l0,-4.50329a0.82601,1.08626 0 0 0 -0.74122,-1.04309l-3.4736,0a0.82601,1.08626 0 0 0 -0.79865,1.04309l0,4.50689a0.7713,1.01432 0 0 0 0.22975,0.74096c0.15043,0.19423 0.35557,0.30214 0.5689,0.29854l0.00274,0zm-7.54619,39.55127l18.50581,0a1.00652,1.32365 0 0 0 0.71113,-0.38846a0.98738,1.29847 0 0 0 0.28992,-0.93519l0,-2.91707a0.9737,1.28049 0 0 0 -0.28992,-0.93159a0.99011,1.30207 0 0 0 -0.71113,-0.37408l-6.26342,0a0.47318,0.62226 0 0 1 -0.36377,-0.17984a0.46497,0.61147 0 0 1 -0.13676,-0.47479l0,-25.13139c0,-0.35969 -0.11487,-0.70499 -0.31454,-0.95317a1.00652,1.32365 0 0 0 -0.74942,-0.35249l-10.17464,0a0.99832,1.31286 0 0 0 -1.00379,1.30567l0,2.93865c0,0.3453 0.10667,0.67981 0.29266,0.9244a1.00652,1.32365 0 0 0 0.71113,0.38127l6.05555,0a0.47318,0.62226 0 0 1 0.36651,0.17984a0.46497,0.61147 0 0 1 0.13676,0.47119l0,20.23604a0.46497,0.61147 0 0 1 -0.13676,0.47479a0.47318,0.62226 0 0 1 -0.36651,0.17984l-6.55882,0a0.99832,1.31286 0 0 0 -1.00105,1.30567l0,2.97822a1.01199,1.33084 0 0 0 1.00105,1.2625zm26.03286,0l2.5081,0a0.99832,1.31286 0 0 0 1.00105,-1.30567l0,-19.90872c0,-3.77313 2.40964,-6.11829 5.51126,-6.11829a5.18032,6.81249 0 0 1 3.82643,1.7265c1.03935,1.23373 1.64928,2.96742 1.68483,4.80183l0,19.54184c0,0.71938 0.44856,1.30567 1.00105,1.30567l2.50537,0c0.27351,0.01439 0.53882,-0.1151 0.73848,-0.35969a0.98738,1.29847 0 0 0 0.30907,-0.94598l0,-19.585a9.26385,12.18263 0 0 0 -2.75426,-8.8663a9.4389,12.41283 0 0 0 -6.81045,-3.5753c-3.50642,0 -3.91396,2.16172 -5.35536,2.16172a1.91185,2.51422 0 0 1 -1.25268,-1.04309a0.9737,1.28049 0 0 0 -0.70293,-0.46759l-2.20998,0a0.99832,1.31286 0 0 0 -1.00379,1.30567l0,30.0699a0.99832,1.31286 0 0 0 1.00379,1.2625zm35.32133,0.65463c5.19673,0 9.86284,-3.46739 9.86284,-10.44533c0,-8.15772 -5.66717,-9.40224 -9.86284,-10.38419c-2.45887,-0.58989 -4.41448,-1.30207 -4.41448,-3.65083c0,-1.89555 1.29918,-3.917 4.41448,-3.917c3.1153,0 4.39807,2.04303 4.39807,4.24432c0,0.71938 0.44856,1.30567 1.00379,1.30567l2.50263,0a0.99832,1.31286 0 0 0 1.00379,-1.30567c0,-6.11829 -4.41448,-9.7907 -8.90828,-9.7907s-9.06418,3.58609 -9.06418,9.46339c0,7.12182 4.94509,8.42749 9.06418,9.52813c2.89649,0.77333 5.35263,1.63298 5.35263,4.50689c0,3.917 -2.66127,4.8342 -5.35263,4.8342c-2.30297,0 -5.41554,-0.9172 -5.41554,-5.69026c0,-0.71938 -0.45129,-1.30567 -1.00379,-1.30567l-2.50537,0a0.99832,1.31286 0 0 0 -1.00105,1.30567c-0.0465,8.03543 4.91501,11.30139 9.92575,11.30139zm16.26302,-27.09169l5.07365,0a0.47318,0.62226 0 0 1 0.36651,0.17984a0.46497,0.61147 0 0 1 0.13676,0.47479l0,15.99172c0,5.76939 3.58848,10.44533 8.0139,10.44533c4.42816,0 8.0139,-4.67594 8.0139,-10.44533c0,-0.71938 -0.44582,-1.30567 -1.00105,-1.30567l-2.50263,0a0.99832,1.31286 0 0 0 -1.00379,1.30567c0,2.52501 -1.56996,4.56804 -3.50642,4.56804a3.49001,4.58962 0 0 1 -3.50642,-4.56804l0,-15.95216a0.46497,0.61147 0 0 1 0.13676,-0.47479a0.47318,0.62226 0 0 1 0.36377,-0.17984l7.95373,0a1.00652,1.32365 0 0 0 0.73028,-0.40645a0.98738,1.29847 0 0 0 0.27351,-0.97835l0,-3.2228c0,-0.71938 -0.45129,-1.30567 -1.00379,-1.30567l-8.0139,0a0.47318,0.62226 0 0 1 -0.36651,-0.17984a0.46497,0.61147 0 0 1 -0.13676,-0.47119l0,-10.20075c0,-0.71938 -0.44856,-1.30567 -1.00105,-1.30567l-2.50537,0a0.99832,1.31286 0 0 0 -1.00105,1.30567l0,10.20075a0.46497,0.61147 0 0 1 -0.13676,0.47479a0.47318,0.62226 0 0 1 -0.36651,0.17984l-5.008,0a1.00652,1.32365 0 0 0 -0.71113,0.37767a0.98738,1.29847 0 0 0 -0.28992,0.9244l0,3.2228a0.98738,1.29847 0 0 0 0.28172,0.94958c0.18872,0.25178 0.44856,0.39566 0.71934,0.39566l-0.00274,0zm28.55738,26.43706l18.51949,0a1.01199,1.33084 0 0 0 1.00379,-1.32365l0,-2.91707c0,-0.71938 -0.44856,-1.30567 -1.00379,-1.30567l-6.35095,0a0.47318,0.62226 0 0 1 -0.36651,-0.17984a0.46497,0.61147 0 0 1 -0.13676,-0.47479l0,-25.13139c0,-0.71938 -0.44856,-1.30567 -1.00105,-1.30567l-10.16097,0a0.99832,1.31286 0 0 0 -1.00105,1.30567l0,2.93865c0,0.3453 0.10667,0.67981 0.29266,0.9244a1.00652,1.32365 0 0 0 0.71113,0.38127l6.05555,0a0.47318,0.62226 0 0 1 0.36651,0.17984a0.46497,0.61147 0 0 1 0.13676,0.47119l0,20.23604a0.46497,0.61147 0 0 1 -0.13676,0.47479a0.47318,0.62226 0 0 1 -0.36651,0.17984l-6.55882,0a0.99832,1.31286 0 0 0 -1.00105,1.30567l0,2.97822a1.01199,1.33084 0 0 0 1.00105,1.2625l-0.00274,0zm7.6091,-39.55127l3.35052,0a0.80139,1.05389 0 0 0 0.57437,-0.29854a0.78771,1.0359 0 0 0 0.23796,-0.74096l0,-4.51049a0.82601,1.08626 0 0 0 -0.81233,-1.0395l-3.35052,0a0.82601,1.08626 0 0 0 -0.79865,1.04309l0,4.50689a0.7713,1.01432 0 0 0 0.22975,0.74096c0.15043,0.19423 0.35557,0.30214 0.5689,0.29854zm16.92218,13.11422l5.01074,0a0.47318,0.62226 0 0 1 0.36377,0.17984a0.46497,0.61147 0 0 1 0.13676,0.47479l0,15.99172c0,5.76939 3.58848,10.44533 8.0139,10.44533c4.43089,0 8.01663,-4.67594 8.01663,-10.44533c0,-0.71938 -0.44856,-1.30567 -1.00105,-1.30567l-2.50537,0a0.99832,1.31286 0 0 0 -1.00105,1.30567c0,2.52501 -1.56996,4.56804 -3.50642,4.56804a3.49001,4.58962 0 0 1 -3.50642,-4.56804l0,-15.95216a0.46497,0.61147 0 0 1 0.13676,-0.47479a0.47318,0.62226 0 0 1 0.36377,-0.17984l8.0139,0a0.99832,1.31286 0 0 0 1.00379,-1.30207l0,-3.30553c0,-0.71938 -0.44856,-1.30567 -1.00379,-1.30567l-8.0139,0a0.47318,0.62226 0 0 1 -0.36651,-0.17984a0.46497,0.61147 0 0 1 -0.13676,-0.47119l0,-10.20075c0,-0.71938 -0.44582,-1.30567 -1.00105,-1.30567l-2.50537,0a0.99832,1.31286 0 0 0 -1.00105,1.30567l0,10.20075a0.46497,0.61147 0 0 1 -0.13676,0.47479a0.47318,0.62226 0 0 1 -0.36377,0.17984l-5.01074,0a0.99832,1.31286 0 0 0 -1.00105,1.30207l0,3.2228a0.98738,1.29847 0 0 0 0.28172,0.94958c0.19146,0.25178 0.44856,0.39566 0.71934,0.39566zm36.30597,27.09169c3.70882,0 3.91122,-2.16172 5.36904,-2.16172c0.506,0.1187 0.95729,0.49277 1.25268,1.0395c0.16411,0.28415 0.41847,0.45321 0.68925,0.46759l2.20724,0a0.99832,1.31286 0 0 0 1.00105,-1.30567l0,-30.02674c0,-0.71938 -0.44856,-1.30567 -1.00105,-1.30567l-2.50537,0a0.99832,1.31286 0 0 0 -1.00105,1.30567l0,19.86916c0,3.77672 -2.39596,6.11829 -5.51126,6.11829c-3.44625,0 -5.49485,-2.75161 -5.49485,-6.52474l0,-19.45911c0,-0.72297 -0.44856,-1.30926 -1.00105,-1.30926l-2.50537,0a0.99832,1.31286 0 0 0 -1.00105,1.30567l0,19.585a8.99854,11.83373 0 0 0 2.65854,8.92026a9.17359,12.06393 0 0 0 6.84327,3.48178zm16.78269,-27.09169l5.008,0a0.47318,0.62226 0 0 1 0.36651,0.17984a0.46497,0.61147 0 0 1 0.13676,0.47479l0,15.99172c0,5.76939 3.58848,10.44533 8.0139,10.44533c4.42816,0 8.0139,-4.67594 8.0139,-10.44533c0,-0.71938 -0.44582,-1.30567 -0.99832,-1.30567l-2.50537,0a0.99832,1.31286 0 0 0 -1.00379,1.30567c0,2.52501 -1.56996,4.56804 -3.50642,4.56804a3.49001,4.58962 0 0 1 -3.50642,-4.56804l0,-15.95216a0.46497,0.61147 0 0 1 0.13676,-0.47479a0.47318,0.62226 0 0 1 0.36377,-0.17984l8.0139,0a0.98738,1.29847 0 0 0 1.00105,-1.30567l0.00274,-3.30193c0,-0.71938 -0.44856,-1.30567 -1.00105,-1.30567l-8.0139,0a0.47318,0.62226 0 0 1 -0.36651,-0.17984a0.46497,0.61147 0 0 1 -0.13676,-0.47119l0,-10.20075c0,-0.71938 -0.44856,-1.30567 -1.00105,-1.30567l-2.50537,0a0.99832,1.31286 0 0 0 -1.00105,1.30567l0,10.20075a0.46497,0.61147 0 0 1 -0.13676,0.47479a0.47318,0.62226 0 0 1 -0.36651,0.17984l-5.008,0a0.99832,1.31286 0 0 0 -1.00105,1.30207l0,3.2228a0.98738,1.29847 0 0 0 0.28172,0.94958c0.18872,0.25178 0.44856,0.39566 0.71934,0.39566zm37.00889,-6.85205c-5.45383,-0.2302 -10.03242,5.2982 -10.27037,12.40204a57.17492,75.18914 0 0 0 0,9.13607c0.23796,7.10383 4.81654,12.63583 10.27037,12.40563c5.21314,0 9.11068,-4.07886 9.72335,-9.7907a0.80139,1.05389 0 0 0 -0.17505,-0.94238a0.8178,1.07547 0 0 0 -0.68651,-0.36328l-2.55187,0a1.11046,1.46033 0 0 0 -1.14328,1.10064a5.1092,6.71897 0 0 1 -5.16664,4.07886c-3.45993,0 -5.80939,-2.61133 -5.80939,-8.54618a0.46497,0.61147 0 0 1 0.13676,-0.47479a0.47318,0.62226 0 0 1 0.36651,-0.17984l14.3539,0a0.99832,1.31286 0 0 0 1.00379,-1.30567l0,-4.46732c-0.03282,-8.15772 -3.99327,-13.05667 -10.05156,-13.05667l0,0.0036zm5.21314,13.66814l-10.42627,0a0.47318,0.62226 0 0 1 -0.36377,-0.17984a0.46497,0.61147 0 0 1 -0.13676,-0.47479a5.36083,7.04988 0 0 1 1.69577,-5.1903c1.08858,-1.34883 2.56281,-2.05022 4.06439,-1.92793a5.33348,7.01391 0 0 1 4.04798,1.92073c1.07764,1.35602 1.66842,3.24438 1.61919,5.19749a0.46497,0.61147 0 0 1 -0.13676,0.47479a0.47318,0.62226 0 0 1 -0.36377,0.17984zm36.7135,20.2756c5.44836,0.2302 10.02421,-5.3054 10.25396,-12.40204c0.1559,-3.04296 0.1559,-6.09671 0,-9.13967c-0.36651,-7.03549 -4.8521,-12.49556 -10.26217,-12.49556c-5.4128,0 -9.8984,5.46006 -10.26217,12.49556a51.4722,67.68965 0 0 0 0,9.13607c0.22701,7.11103 4.81381,12.64662 10.26764,12.40563l0.00274,0zm-5.76563,-21.5453a5.79025,7.61459 0 0 1 5.75469,-6.53193c2.89923,0 5.35536,2.78758 5.75195,6.53193c0.1559,3.04296 0.1559,6.09671 0,9.13607a5.79025,7.61459 0 0 1 -5.75195,6.53193a5.79025,7.61459 0 0 1 -5.75469,-6.52833a51.4722,67.68965 0 0 1 -0.0465,-9.13967l0.0465,0zm22.28028,-5.54639l6.26342,0a0.47318,0.62226 0 0 1 0.36377,0.17984a0.46497,0.61147 0 0 1 0.13676,0.47479l0,24.51992c0,0.71938 0.44856,1.30567 1.00105,1.30567l2.50537,0a0.99832,1.31286 0 0 0 1.00105,-1.30567l0,-24.48395a0.46497,0.61147 0 0 1 0.13676,-0.47479a0.47318,0.62226 0 0 1 0.36377,-0.17984l8.10963,0a0.98738,1.29847 0 0 0 1.00105,-1.30567l0,-3.30193c0,-0.71938 -0.44582,-1.30567 -1.00105,-1.30567l-8.10963,0a0.47318,0.62226 0 0 1 -0.36377,-0.17984a0.46497,0.61147 0 0 1 -0.13676,-0.47119l0,-0.93879a5.01347,6.59308 0 0 1 4.6962,-6.52833l3.00863,0a0.99832,1.31286 0 0 0 1.00105,-1.30567l0,-3.09691c0,-0.71938 -0.44856,-1.30567 -1.00379,-1.30567l-3.0059,0a9.21735,12.12148 0 0 0 -6.62719,3.55731a9.04504,11.89488 0 0 0 -2.63939,8.68286l0,0.97835a0.46497,0.61147 0 0 1 -0.13676,0.47479a0.47318,0.62226 0 0 1 -0.36377,0.17984l-6.26342,0a0.99832,1.31286 0 0 0 -1.00105,1.30207l0,3.18324a0.98738,1.29847 0 0 0 0.30086,0.98195a1.00652,1.32365 0 0 0 0.76583,0.36328l-0.00274,0z"/>-->
   <path stroke="null" id="svg_7" fill-rule="nonzero" fill="#846BAA" d="m9.54702,195.23435c0,0.63305 0.14223,1.2625 0.21881,1.89555c0.08205,0.63305 0.14223,1.04309 0.20513,1.55025c0.06291,0.51076 0.2024,1.2661 0.29813,1.89915c0.09299,0.62945 0.17231,0.99634 0.26531,1.48911c0.09299,0.48918 0.23522,1.28409 0.37471,1.91714c0.14223,0.63305 0.18872,0.95677 0.30086,1.42796c0.1094,0.46759 0.27898,1.2625 0.43762,1.89555c0.1559,0.63305 0.23249,0.9172 0.34189,1.3884l0.51967,1.89555l0.38839,1.30567c0.18872,0.63305 0.39112,1.2661 0.59626,1.89915l0.40753,1.2625c0.21881,0.61147 0.45403,1.24452 0.67284,1.87757c0.21881,0.63305 0.29539,0.79491 0.45403,1.18337c0.1559,0.38846 0.48412,1.24452 0.74942,1.85599l0.47044,1.14381c0.26531,0.62945 0.54702,1.22294 0.81507,1.83441l0.50053,1.07906c0.29813,0.61147 0.59352,1.22294 0.90806,1.81642l0.51694,1.02151l0.97097,1.77326l0.54702,0.97835c0.34462,0.5755 0.68925,1.16539 1.05029,1.73729c0.3583,0.56831 0.3583,0.61147 0.56343,0.9172c0.2024,0.30573 0.73575,1.12223 1.11046,1.67255c0.37471,0.55032 0.37471,0.58989 0.57985,0.87764l1.17337,1.62939l0.60993,0.81649c0.41027,0.55032 0.81507,1.06108 1.23627,1.57184l0.62908,0.79491l1.29645,1.48911c0.21881,0.24459 0.43762,0.51076 0.65643,0.73376l1.34841,1.44954l0.67284,0.6942l1.40859,1.34523l0.68925,0.65103c0.47044,0.44961 0.97097,0.85965 1.45782,1.28768l0.70293,0.61147l1.56722,1.18337l0.73575,0.5719l1.56449,1.10064l0.75216,0.52874l1.56449,0.99993l0.76583,0.48918l1.56722,0.9208l0.79865,0.42803l1.67389,0.83448l0.78224,0.38846l1.72312,0.71218l0.79865,0.3489l1.78603,0.63305l0.79592,0.26257c0.61267,0.20502 1.2226,0.36688 1.84894,0.55032l0.75216,0.20502l1.95561,0.44961l0.70566,0.16186l2.14433,0.3489l0.54702,0c0.89165,0 1.79971,0.20143 2.70777,0.26257l2.77068,0l0,-7.38439a55.08803,72.44473 0 0 0 -4.99159,-25.9263c-13.89167,-2.98541 -24.63522,-17.48443 -26.44313,-35.67744a56.57046,74.39423 0 0 0 -3.13171,-1.91714l-1.08037,-0.5719c-0.71934,-0.38487 -1.45508,-0.75534 -2.19083,-1.10064l-1.29918,-0.58989c-0.73848,-0.32732 -1.47149,-0.61147 -2.22365,-0.89922c-0.39112,-0.14388 -0.79865,-0.32372 -1.18978,-0.44961l-0.12582,0l0,3.40624l-2.20724,0l0,-4.07886c-0.43762,-0.12229 -0.86156,-0.28775 -1.28551,-0.38846a55.93318,73.55616 0 0 0 -10.75175,-1.36681l0,6.65422c0,0.61147 0,1.22294 0.07658,1.81283l0,0.20502c0,0.9172 0.14223,1.81642 0.21881,2.73363c0.06291,0.42803 0.1094,0.95677 0.17231,1.48911z"/>
   <path stroke="null" id="svg_8" fill-rule="nonzero" fill="#846BAA" d="m9.17231,190.90731c0,0.59348 0.07932,1.18697 0.12582,1.77686c-0.00821,0.19783 -0.00821,0.39566 0,0.58989a35.03687,46.07601 0 0 1 -0.18872,-2.36675l0.06291,0z"/>
   <path stroke="null" id="svg_9" fill-rule="nonzero" fill="#3680C2" d="m66.19134,226.68906c-1.74227,0 -3.48181,-0.17984 -5.19946,-0.55032a54.76529,72.02029 0 0 1 4.99433,25.9263l0,7.38439l-2.77068,0c-0.90806,0 -1.81612,-0.16546 -2.70777,-0.26617l-0.54702,0l-2.14707,-0.3453l-0.70566,-0.16546l-1.95561,-0.44601l-0.75216,-0.20502c-0.62634,-0.18344 -1.23627,-0.3489 -1.84621,-0.55032l-0.79865,-0.26617l-1.78603,-0.63305l-0.79865,-0.3453l-1.72312,-0.71578l-0.77951,-0.38487l-1.66022,-0.99993l-0.79865,-0.43163l-1.56449,-0.9172l-0.76857,-0.55032l-1.56449,-0.99993l-0.75216,-0.52874l-1.56449,-1.10064l-0.73848,-0.5755l-1.56449,-1.17978l-0.70293,-0.61147c-0.48685,-0.43163 -0.98738,-0.83807 -1.45782,-1.28768l-0.68925,-0.65103l-1.40859,-1.34523l-0.67284,-0.6942l-1.34568,-1.44954c-0.21881,-0.22301 -0.43762,-0.48918 -0.65643,-0.73376l-1.30192,-1.48911l-0.62634,-0.79491a29.69519,39.05131 0 0 1 -1.23627,-1.57184l-0.60993,-0.81649l-1.1761,-1.62939a11.83212,15.5601 0 0 1 -0.57711,-0.87764c-0.18872,-0.30573 -0.75216,-1.10064 -1.11046,-1.67255c-0.36104,-0.5755 -0.37745,-0.61147 -0.56343,-0.9208c-0.19146,-0.30573 -0.70566,-1.16179 -1.05029,-1.7337l-0.54702,-0.9172l-0.97097,-1.77326l-0.51967,-1.02151c-0.3118,-0.58989 -0.6072,-1.20136 -0.90532,-1.81283l-0.50053,-1.08266c-0.26804,-0.61147 -0.54702,-1.20495 -0.81507,-1.83441l-0.47044,-1.14381a24.41094,32.10214 0 0 1 -0.74942,-1.85599a23.67792,31.13818 0 0 0 -0.45403,-1.18697c-0.15864,-0.38487 -0.45403,-1.25891 -0.67284,-1.87038l-0.41027,-1.2661c-0.2024,-0.63305 -0.4048,-1.2661 -0.59352,-1.89915l-0.39112,-1.30567l-0.51694,-1.89555c-0.1094,-0.46759 -0.23522,-0.9172 -0.34462,-1.3884c-0.1094,-0.46759 -0.29539,-1.2661 -0.43762,-1.89555c-0.13949,-0.63305 -0.2024,-0.96037 -0.29813,-1.42796c-0.09299,-0.46759 -0.26531,-1.2661 -0.37471,-1.91714c-0.1094,-0.65463 -0.17231,-0.98195 -0.26531,-1.48911c-0.09573,-0.51076 -0.20513,-1.2661 -0.30086,-1.89915c-0.09026,-0.63305 -0.13676,-1.01792 -0.2024,-1.52867c-0.06017,-0.51076 -0.1559,-1.2661 -0.21881,-1.89915c-0.06291,-0.62945 -0.1094,-1.05748 -0.1559,-1.58982c0,-0.9172 -0.17231,-1.81642 -0.21881,-2.73363c0,0.79491 0.1094,1.57184 0.18872,2.36675c0.07658,0.79491 0.1559,1.87757 0.26531,2.81636l0,0.12229c3.61856,31.18853 21.91924,56.03217 45.69016,62.02097c23.76818,5.9888 47.85911,-8.1757 60.13979,-35.36091l-21.77702,-16.7075c-5.7246,12.70417 -16.1837,20.50221 -27.48794,20.50221z"/>
   <path stroke="null" id="svg_10" fill-rule="nonzero" fill="#FBDEE2" d="m34.56516,190.29584c1.75595,18.25056 12.50223,32.82511 26.42672,35.84289a57.47579,75.5848 0 0 0 -26.42672,-35.84289z"/>
   <path stroke="null" id="svg_11" d="m262.365,121.28613l5.99812,0l0,7.91313l-5.99812,0l0,-7.91313zm12.07281,0l5.96256,0l0,7.91313l-5.96256,0l0,-7.91313zm-6.0747,7.91673l5.96256,0l0,7.91313l-5.96256,0l0,-7.91313z" fill-rule="nonzero" fill="#1FB5E8"/>
   <path stroke="null" id="svg_12" fill-rule="nonzero" fill="#1FB5E8" d="m311.49321,113.51328l-18.92702,0l0,7.834l-6.0747,0l0,7.91313l6.07196,0l0,7.91673l-6.07196,0l0,7.93471l-6.09111,0l0,-7.99586l-5.96256,0l0,7.93471l-6.0747,0l0,-7.93471l-5.99812,0l0,7.93471l5.99812,0l0,0.12589l5.96256,0l0,-0.12589l6.0747,0l0,0.12589l6.09111,0l0,-0.12589l6.07196,0l0,0.12589l18.92702,0c16.66508,0.48918 29.9769,18.23258 29.9769,39.95053c0,21.71795 -13.31182,39.45775 -29.9769,39.95053l0,31.72087c19.87611,0.43522 38.38192,-13.12861 48.41707,-35.4832a54.0733,71.11028 0 0 0 0,-72.37998c-10.03515,-22.3546 -28.54097,-35.91843 -48.41434,-35.47961l0,0.06115l0,-0.0036zm-43.13009,-0.05755l5.96256,0l0,7.8304l-5.96256,0l0,-7.8304z"/>
   <path stroke="null" id="svg_13" d="m280.40037,129.20286l6.0747,0l0,7.91313l-6.07196,0l-0.00274,-7.91313zm0,-15.74713l6.0747,0l0,7.8304l-6.07196,0l-0.00274,-7.8304z" fill-rule="nonzero" fill="#1FB5E8"/>
   <path stroke="null" id="svg_14" d="m388.29808,220.83334l27.35119,0l-27.35119,-35.61629l0,35.61629z" fill-rule="nonzero" fill="#FCC010"/>
   <path stroke="null" id="svg_15" d="m415.64927,220.83334l0,-35.61629l-27.35119,0l27.35119,35.61629zm-0.01915,-71.45918l-27.33204,-35.59471c0.00821,19.66413 12.24513,35.5983 27.33478,35.5983l-0.00274,-0.0036z" fill-rule="nonzero" fill="#79BE43"/>
   <path stroke="null" id="svg_16" d="m415.64927,149.37416l0,-35.59471l-27.35119,0l27.35119,35.59471z" fill-rule="nonzero" fill="#FCC010"/>
   <path stroke="null" id="svg_17" d="m415.63012,149.50005l0.01915,0l-0.01641,0l-0.00274,0zm-27.33204,0l0,35.59471l27.33478,-35.59471l-27.33478,0z" fill-rule="nonzero" fill="#3680C2"/>
   <path stroke="null" id="svg_18" d="m388.29808,185.09476l27.33478,0l0,-35.59471l-27.33478,35.59471z" fill-rule="nonzero" fill="#FCC010"/>
   <path stroke="null" id="svg_19" d="m415.63012,256.55394l0,-35.61629l-27.33204,35.61629l27.33204,0z" fill-rule="nonzero" fill="#3680C2"/>
   <path stroke="null" id="svg_20" d="m415.63012,220.93765l-27.33204,0l0,35.61629l27.33478,-35.61629l0.01641,0l-0.01915,0z" fill-rule="nonzero" fill="#79BE43"/>
   <path stroke="null" id="svg_21" fill-rule="nonzero" fill="#CD6FAC" d="m544.41319,256.30935a2.66674,3.50696 0 0 1 -2.94299,0.05036a2.61204,3.43502 0 0 1 0.90259,-6.26576a2.6558,3.49257 0 0 1 2.72965,1.43875a2.27015,2.98541 0 0 1 0.37471,1.14381l0,-139.16322l-27.31837,0l0,86.49413a2.4452,3.21561 0 0 1 0.51694,0.71218a2.59016,3.40624 0 0 1 -0.51694,4.55005l0,15.07452a2.4452,3.21561 0 0 1 0.51694,0.71578a2.59016,3.40624 0 0 1 -0.51694,4.54645l0,15.07452a2.4452,3.21561 0 0 1 0.51694,0.71578a2.57375,3.38466 0 0 1 -0.51694,4.54645l0,10.91653l3.24112,0a2.61477,3.43862 0 0 1 -2.24006,-3.26237a2.63665,3.46739 0 0 1 5.04082,-1.48911a2.59289,3.40984 0 0 1 -2.05134,4.74788l10.19379,0a2.63665,3.46739 0 0 1 -2.54366,-3.01059a2.62024,3.44581 0 0 1 1.88723,-3.74075a2.65307,3.48897 0 0 1 3.13171,1.8416a2.60657,3.42783 0 0 1 -0.91079,4.31985a2.70777,3.56091 0 0 1 -1.43867,0.59348l13.08754,0l0,-2.69406a2.57648,3.38826 0 0 1 -1.14328,2.14014l0,0.0036zm-21.15067,-20.40149a2.64486,3.47818 0 0 1 -3.64865,-0.9244a2.59016,3.40624 0 0 1 0.70293,-4.75148a2.64486,3.47818 0 0 1 3.65138,0.90282a2.60657,3.42783 0 0 1 -0.70566,4.77306zm0,-20.3979a2.64486,3.47818 0 0 1 -3.64865,-0.9244a2.59016,3.40624 0 0 1 0.70293,-4.75507a2.64486,3.47818 0 0 1 3.65138,0.90641a2.6011,3.42063 0 0 1 -0.70566,4.87377l0,-0.10071zm5.29246,30.59864a2.65033,3.48538 0 0 1 -2.92658,0.02518a2.59563,3.41344 0 0 1 0.92447,-6.2226a2.64212,3.47458 0 0 1 2.70777,1.44235a2.59016,3.40624 0 0 1 -0.70566,4.75507zm0,-20.3979a2.64486,3.47818 0 0 1 -3.64865,-0.9244a2.59016,3.40624 0 0 1 0.70293,-4.75507a2.64486,3.47818 0 0 1 3.64865,0.90641a2.58742,3.40265 0 0 1 -0.70293,4.77306zm5.28972,10.19715a2.64486,3.47818 0 0 1 -3.64591,-0.9244a2.59016,3.40624 0 0 1 0.70019,-4.75148a2.64486,3.47818 0 0 1 3.65138,0.90282a2.60657,3.42783 0 0 1 -0.70566,4.77306zm5.29246,10.20075a2.65033,3.48538 0 0 1 -3.66506,-0.89922a2.60657,3.42783 0 0 1 0.69199,-4.77306a2.6558,3.49257 0 0 1 2.62571,-0.25898a2.60383,3.42423 0 0 1 0.34736,5.93125z"/>
   <path stroke="null" id="svg_22" d="m143.95076,167.95923l5.27331,0l0,6.2226l-5.27331,0l0,-6.2226zm24.57778,-53.50356l5.27604,0l0,6.42402l-5.27878,0l0.00274,-6.42402zm6.15128,30.45477l0,0.75534c0.67284,-0.28775 1.34841,-0.51076 2.03493,-0.75534l-2.03493,0zm6.15402,-15.21839l5.27604,0l0,6.44561l-5.27878,0l0.00274,-6.44561zm-6.15402,7.81242l5.27878,0l0,6.2226l-5.27878,0l0,-6.2226zm6.15402,-23.0488l5.27604,0l0,6.42402l-5.27878,0l0.00274,-6.42402zm-6.15402,0l5.27878,0l0,6.42402l-5.27878,0l0,-6.42402zm-36.88308,53.50356l5.27604,0l0,6.2226l-5.27604,0l0,-6.2226zm6.15402,-23.0488l5.27331,0l0,6.44561l-5.27331,0l0,-6.44561zm6.16769,0l5.22681,0l0,6.44561l-5.22681,0l0,-6.44561zm-12.32171,15.23638l5.27604,0l0,6.44561l-5.27604,0l0,-6.44561zm6.15402,-7.6074l5.27331,0l0,6.44561l-5.27331,0l0,-6.44561zm0,7.6074l5.27331,0l0,6.44561l-5.27331,0l0,-6.44561zm12.31898,-38.06217l5.22955,0l0,6.44561l-5.22955,0l0,-6.44561zm-24.62701,38.06217l5.27878,0l0,6.44561l-5.27878,0l0,-6.44561zm6.15402,15.21839l5.27604,0l0,6.42402l-5.27604,0l0,-6.42402zm-6.15402,-7.40597l5.27878,0l0,6.2226l-5.27878,0l0,-6.2226zm0,7.40597l5.27878,0l0,6.42402l-5.27878,0l0,-6.42402z" fill-rule="nonzero" fill="#FCC010"/>
   <path stroke="null" id="svg_23" fill-rule="nonzero" fill="#FCC010" d="m184.71498,111.00626c-31.39916,-0.00719 -56.89594,33.0697 -57.02723,73.98419c-0.13129,40.91449 25.15215,74.26475 56.55405,74.59926c31.39916,0.33091 57.09561,-32.47981 57.47579,-73.3943l0,-2.32358c-0.59899,-40.46488 -25.9426,-72.86196 -56.99988,-72.86556l-0.00274,0zm56.99988,75.18914c-0.48412,40.11239 -25.32173,72.4771 -56.10549,73.11015l-1.78603,0l0,-1.16179c0,-10.89494 1.83526,-21.65321 5.38545,-31.51585c-1.48517,0.26257 -2.98128,0.39206 -4.47739,0.38846a32.18141,42.32087 0 0 1 -22.66046,-12.2186a31.59062,41.54394 0 0 1 -9.38693,-29.51958c0,-1.12223 0,-2.22287 0.12582,-3.32352l-2.28656,1.01792l-0.39112,0l0,0.16546l-0.89165,0.32372l0,-0.48918l-5.28972,0l0,2.18331l-0.87524,0.24459l0,-2.40631l-5.27878,0l0,3.3451l-0.87524,0l0,-3.3451l-5.27878,0l0,3.63285l-0.87524,0l0,-3.63285l-3.02231,0l0,-1.18337l2.99222,0l0,-6.44561l-2.50537,0c0,-0.38846 0,-0.77693 0.1094,-1.16179l2.42605,0l0,-6.24418l-1.56449,0c0,-0.44601 0.1559,-0.9172 0.2489,-1.36681l1.23627,0l0,-5.3018c0.28172,-1.06108 0.56343,-2.03943 0.87524,-3.14367l0,0.81649l5.27878,0l0,-6.42402l-3.30402,0l0.47044,-1.18697l2.91017,0l0,-6.43841c0.30086,-0.61147 0.61267,-1.20495 0.92447,-1.81642l0,0.65463l5.27878,0l0,-6.24778l-2.05134,0l0.92174,-1.36681l1.08037,0l0,-1.54666l0.87524,-1.22654l0,2.77319l5.27878,0l0,-6.44561l-2.30297,0l1.04755,-1.18337l1.25268,0l0,-1.34523l0.89438,-0.89922l0,2.24445l5.22681,0l0,-6.42402l-0.57711,0l1.56449,-1.18697l5.19673,0l0,-3.44581l0.87524,-0.52874l0,3.97815l5.27878,0l0,-6.44561l-0.1559,0c1.04755,-0.43163 2.09784,-0.81649 3.12898,-1.16539l3.13171,0l0,-0.9172l0.87524,-0.20502l0,1.12223l5.27878,0l0,-2.03943l0.87524,0l0,2.03943l5.27604,0l0,-2.22287l0.89165,0l0,2.18331l4.24217,0l0,1.16179l-4.22576,0l0,6.44561l3.71156,0l-0.14223,1.18697l-3.56933,0l0,6.42402l2.58195,0l-0.23249,1.18337l-2.34947,0l0,6.44561l0.81507,0c-0.12582,0.46759 -0.28172,0.9172 -0.41027,1.36681l-0.4048,0l0,1.36681c-0.28172,0.89922 -0.57985,1.77326 -0.89165,2.6509l0,-4.07886l-5.27878,0l0,6.24058l1.05029,0c0.94088,-0.12229 1.87903,-0.20502 2.83358,-0.20502a32.19782,42.34245 0 0 1 22.67414,12.26535a31.6043,41.56193 0 0 1 9.05871,35.26379a56.73457,74.61005 0 0 1 14.24997,-5.93485a55.90583,73.52019 0 0 1 10.12541,-1.18337l0.89438,0l0,2.34516l-0.00274,0z"/>
   <path stroke="null" id="svg_24" d="m143.95076,175.3652l5.27331,0l0,6.42402l-5.27331,0l0,-6.42402zm6.16769,-37.86074l5.22681,0l0,6.2226l-5.22681,0l0,-6.2226zm0,-7.81242l5.22681,0l0,6.44561l-5.22681,0l0,-6.44561zm12.25607,-7.6074l5.27878,0l0,6.44561l-5.27878,0l0,-6.44561zm-18.42376,15.41982l5.27331,0l0,6.2226l-5.27331,0l0,-6.2226zm-6.15402,15.03495l5.27604,0l0,6.44561l-5.27604,0l0,-6.44561zm0,-7.62898l5.27604,0l0,6.44561l-5.27604,0l0,-6.44561zm43.0371,-22.82579l5.27604,0l0,6.44561l-5.27878,0l0.00274,-6.44561zm-30.71538,30.45477l5.22681,0l0,6.44561l-5.22681,0l0,-6.44561zm0,7.6074l5.22681,0l0,6.44561l-5.22681,0l0,-6.44561zm6.15128,0l0,6.12189c0.83695,-2.14374 1.81065,-4.19036 2.9129,-6.12189l-2.9129,0zm6.10479,-30.45477l5.27878,0l0,6.44561l-5.27878,0l0,-6.44561zm-6.10479,0l5.22955,0l0,6.44561l-5.22955,0l0,-6.44561zm0,15.21839l5.22955,0l0,6.44561l-5.22955,0l0,-6.44561zm-0.92447,23.0488l-5.22681,0l0,6.24418l3.74164,0a31.89149,41.9396 0 0 1 1.56449,-5.5284l-0.07932,-0.71578zm0.92447,-30.45477l5.22955,0l0,6.2226l-5.22955,0l0,-6.2226zm6.10479,0l5.27878,0l0,6.2226l-5.27878,0l0,-6.2226zm0.04923,15.03495l0,2.8775c0.79865,-1.02151 1.64107,-1.97828 2.51904,-2.8775l-2.51904,0zm11.38083,-7.62898l-5.27878,0l0,4.40618c1.6821,-1.25891 3.44898,-2.31999 5.27878,-3.16525l0,-1.24092zm-5.27604,-7.40597l5.27604,0l0,6.2226l-5.27878,0l0.00274,-6.2226zm-18.41009,44.30635l2.70777,0c0.12855,-2.17251 0.39659,-4.33064 0.79865,-6.44561l-3.50642,0l0,6.44561zm24.56137,-52.11877l5.27878,0l0,6.44561l-5.27878,0l0,-6.44561zm-6.15128,-7.6074l5.27604,0l0,6.44561l-5.27878,0l0.00274,-6.44561zm-7.02926,30.45477l-5.22955,0l0,6.42402l3.60215,0c0.5142,-0.81649 1.06396,-1.58982 1.56449,-2.36675l0.06291,-4.05728zm7.02926,-22.84737l5.27604,0l0,6.44561l-5.27878,0l0.00274,-6.44561zm6.15128,-7.6074l5.27878,0l0,6.44561l-5.27878,0l0,-6.44561zm-7.02926,22.82579l-5.22681,0l0,6.44561l3.74164,0c0.50053,-0.46759 1.00105,-0.9172 1.56449,-1.34523l-0.07932,-5.10037z" fill-rule="nonzero" fill="#FCC010"/>
   <path stroke="null" id="svg_25" fill-rule="nonzero" fill="#DC3B21" d="m189.19237,226.62791c14.15971,-2.62572 25.27797,-17.14272 27.25546,-35.5983a56.94517,74.88701 0 0 0 -27.25546,35.5983z"/>
   <path stroke="null" id="svg_26" fill-rule="nonzero" fill="#F58820" d="m240.8232,183.85024a55.90583,73.52019 0 0 0 -10.12815,1.18697a56.73457,74.61005 0 0 0 -14.24723,5.93485c-1.95835,18.47716 -13.07934,33.02654 -27.25546,35.65585a55.98241,73.6209 0 0 0 -5.38545,31.51585l0,1.16179l1.78603,0c30.78376,-0.63305 55.61864,-32.99416 56.10823,-73.11015l0,-2.32358l-0.87524,-0.02158l-0.00274,0z"/>
   <path stroke="null" id="svg_27" fill-rule="nonzero" fill="#FCC010" d="m472.69564,118.59567a2.59016,3.40624 0 0 0 -0.69472,4.75507a2.64486,3.47818 0 0 0 3.64865,0.91361a2.59016,3.40624 0 0 0 0.71113,-4.74788a2.66127,3.49976 0 0 0 -3.66506,-0.9208zm5.27604,10.15758a2.59836,3.41703 0 0 0 -0.68925,4.77306c0.82054,1.56824 2.46161,1.96749 3.66506,0.89922a2.60383,3.42423 0 0 0 -0.34736,-5.93485a2.6558,3.49257 0 0 0 -2.62571,0.26257l-0.00274,0zm5.29246,10.1396a2.61204,3.43502 0 0 0 0.97644,6.24418a2.6558,3.49257 0 0 0 2.7105,-1.4927a2.63118,3.4602 0 0 0 -1.70945,-5.28741a2.65033,3.48538 0 0 0 -1.97749,0.53593zm5.28972,10.15758a2.57101,3.38107 0 0 0 -0.68925,4.75148a2.64212,3.47458 0 0 0 4.75911,-1.28768a2.59836,3.41703 0 0 0 -1.14328,-3.50696a2.65033,3.48538 0 0 0 -2.92658,0.04316zm5.29246,10.1396a2.59016,3.40624 0 0 0 -0.69472,4.75507a2.64486,3.47818 0 0 0 3.64865,0.91361a2.59016,3.40624 0 0 0 0.71113,-4.75148a2.65033,3.48538 0 0 0 -3.66506,-0.9172zm5.29246,10.136a2.59016,3.40624 0 0 0 -0.69472,4.75867a2.64486,3.47818 0 0 0 3.64865,0.91361a2.59016,3.40624 0 0 0 0.71113,-4.75507a2.66127,3.49976 0 0 0 -3.66506,-0.9172zm5.28972,10.16118a2.59016,3.40624 0 0 0 -0.69472,4.75507a2.64486,3.47818 0 0 0 3.65138,0.91361a2.59016,3.40624 0 0 0 0.7084,-4.75148a2.66127,3.49976 0 0 0 -3.66506,-0.9172zm5.29246,10.136a2.59016,3.40624 0 0 0 -0.69472,4.75867a2.64486,3.47818 0 0 0 3.64865,0.91361a2.59016,3.40624 0 0 0 0.71113,-4.75507a2.66127,3.49976 0 0 0 -3.66506,-0.9172zm8.95478,11.07839a2.4452,3.21561 0 0 0 -0.51694,-0.71578a2.63392,3.46379 0 0 0 -3.13171,-0.20502a2.59836,3.41703 0 0 0 0.33642,5.92406a2.65307,3.48897 0 0 0 2.62571,-0.25178a0.90532,1.19057 0 0 0 0.18599,-0.20502a2.59016,3.40624 0 0 0 0.50053,-4.54645zm1.6274,9.2188a2.59016,3.40624 0 0 0 -0.69472,4.75507a2.64486,3.47818 0 0 0 3.65138,0.9172a2.59016,3.40624 0 0 0 0.7084,-4.75507a2.66127,3.49976 0 0 0 -3.66506,-0.9172zm5.32254,10.15758a2.59016,3.40624 0 0 0 -0.68104,4.76227c0.82054,1.56105 2.45614,1.9603 3.65412,0.89562a2.59016,3.40624 0 0 0 0.69199,-4.75867a2.66127,3.49976 0 0 0 -3.66506,-0.89922zm5.26237,10.1396a2.59016,3.40624 0 0 0 -0.69472,4.75507a2.64486,3.47818 0 0 0 3.64865,0.9172a2.59016,3.40624 0 0 0 0.7084,-4.75507a2.66127,3.49976 0 0 0 -3.66506,-0.9172l0.00274,0zm5.27604,10.15758a2.60657,3.42783 0 0 0 -0.68925,4.77306c0.82054,1.56105 2.45614,1.9567 3.65412,0.88843a2.59016,3.40624 0 0 0 0.68378,-4.75867a2.64486,3.47818 0 0 0 -3.64865,-0.89922l0,-0.0036zm9.32949,12.20061a2.27015,2.98541 0 0 0 -0.37471,-1.14381a2.64486,3.47818 0 0 0 -3.63771,-0.81289a2.59016,3.40624 0 0 0 -0.68378,4.7227a2.64486,3.47818 0 0 0 3.61583,0.96396a2.57375,3.38466 0 0 0 1.0667,-2.03943a2.36861,3.1149 0 0 0 0.01368,-1.69053zm-72.79792,-113.64337a2.59016,3.40624 0 0 0 -0.69472,4.75507a2.64486,3.47818 0 0 0 3.64865,0.9172a2.59016,3.40624 0 0 0 0.71113,-4.75507a2.66127,3.49976 0 0 0 -3.66506,-0.9172zm5.27604,10.15758a2.59836,3.41703 0 0 0 -0.68925,4.77306c0.82054,1.56824 2.46161,1.97109 3.66506,0.89922a2.60383,3.42423 0 0 0 -0.34736,-5.93485a2.6558,3.49257 0 0 0 -2.62571,0.26257l-0.00274,0zm5.29246,10.1396a2.61204,3.43502 0 0 0 0.97644,6.24418a2.6558,3.49257 0 0 0 2.7105,-1.4927a2.63118,3.4602 0 0 0 -1.70945,-5.28741a2.65033,3.48538 0 0 0 -1.97749,0.53593zm5.28972,10.15758a2.58742,3.40265 0 0 0 -0.68925,4.77306c0.82054,1.56824 2.46161,1.96749 3.66506,0.89922a2.59836,3.41703 0 0 0 0.68925,-4.77306a2.65033,3.48538 0 0 0 -3.66506,-0.89922zm5.29246,10.1396a2.59016,3.40624 0 0 0 -0.69472,4.75507a2.64486,3.47818 0 0 0 3.64865,0.91361a2.59016,3.40624 0 0 0 0.71113,-4.74788a2.65033,3.48538 0 0 0 -3.66506,-0.9172l0,-0.0036zm5.29246,10.136a2.59016,3.40624 0 0 0 -0.69472,4.75867a2.64486,3.47818 0 0 0 3.64865,0.91361a2.59016,3.40624 0 0 0 0.71113,-4.75148a2.66127,3.49976 0 0 0 -3.66506,-0.9208zm5.28972,10.16118a2.59016,3.40624 0 0 0 -0.69472,4.75507a2.64486,3.47818 0 0 0 3.65138,0.91361a2.59016,3.40624 0 0 0 0.7084,-4.75148a2.66127,3.49976 0 0 0 -3.66506,-0.9172zm5.29246,10.136a2.59016,3.40624 0 0 0 -0.69472,4.75867a2.64486,3.47818 0 0 0 3.64865,0.91361a2.59016,3.40624 0 0 0 0.71113,-4.75148a2.66127,3.49976 0 0 0 -3.66506,-0.9208zm8.95478,11.07839a2.4452,3.21561 0 0 0 -0.51694,-0.71578a2.63392,3.46379 0 0 0 -3.13171,-0.20143a2.60657,3.42783 0 0 0 0.32821,5.93485c0.84789,0.53953 1.85168,0.44242 2.63118,-0.24459l0.18872,-0.22301a2.59016,3.40624 0 0 0 0.50053,-4.55005zm1.6274,9.2188a2.59016,3.40624 0 0 0 -0.69472,4.75867a2.64486,3.47818 0 0 0 3.65138,0.91361a2.59016,3.40624 0 0 0 0.7084,-4.75507a2.66127,3.49976 0 0 0 -3.66506,-0.9172zm5.32254,10.16118a2.59016,3.40624 0 0 0 -0.69472,4.75507a2.64486,3.47818 0 0 0 3.65138,0.91361a2.59016,3.40624 0 0 0 0.7084,-4.75148a2.66127,3.49976 0 0 0 -3.66506,-0.9172zm8.92469,11.05321a2.64486,3.47818 0 0 0 -3.18368,-1.22294a2.6011,3.42063 0 0 0 0.97644,6.58948a2.70777,3.56091 0 0 0 2.58195,-2.7696a2.6011,3.42063 0 0 0 -0.37471,-2.59695zm-61.85471,-92.20238a2.59016,3.40624 0 0 0 -0.69472,4.75867a2.64486,3.47818 0 0 0 3.64865,0.91361a2.59016,3.40624 0 0 0 0.71113,-4.75148a2.66127,3.49976 0 0 0 -3.66506,-0.9208zm5.27604,10.16118a2.60657,3.42783 0 0 0 -0.68925,4.77306c0.82054,1.55745 2.45614,1.9567 3.65412,0.88843a2.59016,3.40624 0 0 0 0.68651,-4.76227a2.64486,3.47818 0 0 0 -3.65138,-0.89922zm5.29246,10.136a2.61204,3.43502 0 0 0 0.97644,6.24778a2.6558,3.49257 0 0 0 2.7105,-1.4927a2.63118,3.4602 0 0 0 -1.70945,-5.28741a2.65033,3.48538 0 0 0 -1.97749,0.53234zm5.28972,10.16118a2.57101,3.38107 0 0 0 -0.68925,4.75148a2.64212,3.47458 0 0 0 4.75911,-1.29128a2.59836,3.41703 0 0 0 -1.14328,-3.50336a2.65033,3.48538 0 0 0 -2.92658,0.04316zm5.29246,10.136a2.59016,3.40624 0 0 0 -0.69472,4.75507a2.64486,3.47818 0 0 0 3.64865,0.9172a2.59016,3.40624 0 0 0 0.71113,-4.75507a2.65033,3.48538 0 0 0 -3.66506,-0.9172zm5.29246,10.1396a2.59016,3.40624 0 0 0 -0.69472,4.75507a2.64486,3.47818 0 0 0 3.64865,0.91361a2.59016,3.40624 0 0 0 0.71113,-4.75148a2.66127,3.49976 0 0 0 -3.66506,-0.9172zm5.28972,10.15758a2.59016,3.40624 0 0 0 -0.69472,4.75507a2.64486,3.47818 0 0 0 3.65138,0.9172a2.59016,3.40624 0 0 0 0.7084,-4.75507a2.66127,3.49976 0 0 0 -3.66506,-0.9172zm5.29246,10.1396a2.59016,3.40624 0 0 0 -0.69472,4.75507a2.64486,3.47818 0 0 0 3.64865,0.91361a2.59016,3.40624 0 0 0 0.71113,-4.75148a2.66127,3.49976 0 0 0 -3.66506,-0.9172zm8.95478,11.07479a2.4452,3.21561 0 0 0 -0.51694,-0.71218a2.63392,3.46379 0 0 0 -3.13171,-0.20502a2.59836,3.41703 0 0 0 0.33642,5.92046a2.65307,3.48897 0 0 0 2.62571,-0.25178a0.90532,1.19057 0 0 0 0.18599,-0.20143a2.57375,3.38466 0 0 0 0.50053,-4.55005zm5.29246,10.1396a2.64486,3.47818 0 0 0 -3.07154,-1.28409a2.60383,3.42423 0 0 0 -1.71765,3.56091a2.61751,3.44221 0 0 0 2.97307,3.04656a2.60657,3.42783 0 0 0 1.81612,-5.32338zm-51.27254,-71.90519a2.59016,3.40624 0 0 0 -0.69472,4.75507a2.64486,3.47818 0 0 0 3.64865,0.91361a2.59016,3.40624 0 0 0 0.71113,-4.75148a2.66127,3.49976 0 0 0 -3.66506,-0.9172zm5.27604,10.15758a2.59836,3.41703 0 0 0 -0.68925,4.77306c0.82054,1.56464 2.46161,1.96749 3.66506,0.89922a2.60383,3.42423 0 0 0 -0.34736,-5.93485a2.6558,3.49257 0 0 0 -2.62571,0.26257l-0.00274,0zm5.29246,10.136a2.61204,3.43502 0 0 0 0.97644,6.24778a2.6558,3.49257 0 0 0 2.7105,-1.4927a2.63118,3.4602 0 0 0 -1.70945,-5.28741a2.65033,3.48538 0 0 0 -1.97749,0.53234zm5.28972,10.16118a2.57101,3.38107 0 0 0 -0.68925,4.75148a2.64212,3.47458 0 0 0 4.75911,-1.29128a2.59836,3.41703 0 0 0 -1.14328,-3.50336a2.65033,3.48538 0 0 0 -2.92658,0.04316zm5.29246,10.136a2.59016,3.40624 0 0 0 -0.69472,4.75867a2.64486,3.47818 0 0 0 3.64865,0.91361a2.59016,3.40624 0 0 0 0.71113,-4.75148a2.65033,3.48538 0 0 0 -3.66506,-0.9172l0,-0.0036zm5.29246,10.16118a2.59016,3.40624 0 0 0 -0.68378,4.75867c0.82054,1.56105 2.45614,1.9603 3.65412,0.89922a2.59016,3.40624 0 0 0 0.69199,-4.76227a2.65033,3.48538 0 0 0 -3.66506,-0.89922l0.00274,0.0036zm5.28972,10.136a2.59016,3.40624 0 0 0 -0.69472,4.75867a2.64486,3.47818 0 0 0 3.65138,0.91361a2.59016,3.40624 0 0 0 0.7084,-4.75507a2.66127,3.49976 0 0 0 -3.66506,-0.9172zm5.29246,10.1396a2.59016,3.40624 0 0 0 -0.69472,4.75507a2.64486,3.47818 0 0 0 3.64865,0.91361a2.59016,3.40624 0 0 0 0.71113,-4.75148a2.66127,3.49976 0 0 0 -3.66506,-0.9172z"/>
   <path stroke="null" id="svg_28" fill-rule="nonzero" fill="#FFF" d="m674.21099,225.80782l-1.67389,-1.3848l-0.1559,-0.12229c-13.38294,27.81106 -39.26537,40.73105 -63.48211,31.69569c-24.21674,-9.03896 -40.92285,-37.85714 -40.97482,-70.67866c-0.0547,-32.82151 16.56388,-61.73322 40.75054,-70.90166c24.18666,-9.16844 50.11011,3.61486 63.58057,31.35039l1.83253,-1.51069c-13.9956,-28.83258 -40.93926,-42.12664 -66.08047,-32.6057c-25.14121,9.52453 -42.41622,39.57285 -42.36426,73.68565c0.0547,34.11639 17.41997,64.07119 42.58854,73.46624c25.1713,9.39145 52.07666,-4.04289 65.97927,-32.94741l0,-0.04316l0,-0.0036z"/>
   <path stroke="null" id="svg_29" fill-rule="nonzero" fill="#FFF" d="m667.71509,220.03843l-0.12582,0l-1.72312,-1.3884c-10.80098,22.76105 -31.39916,34.24228 -51.49135,28.71028c-20.09218,-5.532 -35.36509,-26.89386 -38.17405,-53.39926c-2.8117,-26.50899 7.43952,-52.46407 25.62806,-64.89128c18.18854,-12.42721 40.40318,-8.65409 55.53659,9.43461a48.9723,64.40211 0 0 1 8.21903,12.7905l1.83253,-1.51069c-12.14666,-24.98751 -35.52372,-36.47235 -57.30895,-28.15277c-21.78249,8.31958 -36.7053,34.42932 -36.57948,64.00645c0.12308,29.57713 15.26743,55.47106 37.1183,63.47411c21.8536,8.00665 45.1322,-3.81269 57.06826,-28.97285l0,-0.10071z"/>
   <path stroke="null" id="svg_30" fill-rule="nonzero" fill="#FFF" d="m660.08958,214.305l-1.84621,-1.51069c-8.95204,18.57428 -25.8879,27.82545 -42.32596,23.12793c-16.43806,-4.70112 -28.8473,-22.33661 -31.01078,-44.08694c-2.16621,-21.75032 6.3783,-42.92874 21.35581,-52.93526s33.16058,-6.69019 45.45221,8.2944c2.34947,2.8775 4.42542,6.1075 6.1841,9.62884l1.83253,-1.55025a42.30135,55.62932 0 0 0 -6.54514,-10.20075c-12.9672,-15.80828 -32.15679,-19.30445 -47.95757,-8.74041c-15.79805,10.56043 -24.81026,32.91144 -22.52097,55.85592c2.29203,22.94449 15.39051,41.54754 32.73937,46.49325c17.34612,4.94571 35.20919,-4.83061 44.64261,-24.43719l0,0.06115z"/>
   <path stroke="null" id="svg_31" fill-rule="nonzero" fill="#FFF" d="m653.40495,208.88091l-1.56449,-1.28409l-0.28172,-0.2266c-7.5544,15.62484 -22.09976,22.91211 -35.7398,17.90166c-13.64277,-5.01045 -23.12543,-21.12087 -23.30321,-39.58724c-0.18052,-18.46637 8.99034,-34.88253 22.52917,-40.33899c13.53884,-5.45646 28.22096,1.34523 36.07622,16.71829l1.79971,-1.56824a33.25905,43.73804 0 0 0 -5.30613,-8.16132c-10.59038,-12.68259 -26.14227,-15.35867 -38.89613,-6.70458c-12.75659,8.65769 -19.98551,26.79674 -18.07914,45.37102c1.90364,18.57428 12.53231,33.60563 26.58536,37.59457c14.05304,3.99253 28.51908,-3.9206 36.18015,-19.77564l0,0.06115zm-216.30961,-95.38562l0,7.1398l9.66044,-7.1398l-9.66044,0zm19.31814,7.1398l9.66044,-7.1398l-9.66044,0l0,7.1398zm-9.75343,50.1189l-9.56471,-7.09664l9.66044,-7.1398l-9.66044,-7.1398l9.66044,-7.15779l-9.66044,-7.1434l9.66044,-7.1398l-9.66044,-7.15779l0,57.17598l9.66044,-7.1398l-0.09573,-0.06115z"/>
   <path stroke="null" id="svg_32" d="m446.75577,185.09476l9.6577,-7.1398l-0.09299,-0.06115l-9.56471,-7.09664l9.6577,-7.1398l-9.6577,-7.1398l0,28.5772l-9.66044,-7.1398l0,28.58079l9.66044,-7.1398l-9.66044,-7.15779l9.66044,-7.1434zm-9.66044,21.44099l0,50.26278l9.33223,0l0.32821,-0.24459l-9.66044,-7.1398l9.66044,-7.16138l-9.66044,-7.1398l9.66044,-7.1398l-9.66044,-7.1398l9.66044,-7.15779l-9.66044,-7.1398zm9.66044,-92.89658l0,14.29759l9.6577,-7.15779l-9.6577,-7.1398zm0,28.5772l9.6577,-7.1398l-9.6577,-7.1398l0,28.58079l9.6577,-7.1398l-9.6577,-7.16138zm0,100.03638l0,14.54578l0.32821,0l-0.32821,-0.24459l9.6577,-7.1398l-9.6577,-7.16138z" fill-rule="nonzero" fill="#FFF"/>
   <path stroke="null" id="svg_33" d="m456.41348,120.77897l0,42.87479l9.66044,-7.1398l-9.66044,-7.1398l9.66044,-7.15779l-9.66044,-7.1434l9.66044,-7.1398l-9.66044,-7.15419zm9.64403,64.31578l-0.07658,-0.06115l-9.56745,-7.07866l9.64403,-7.15779l-9.64403,-7.1398l0,28.5772l-9.6577,-7.1398l0,57.15799l9.6577,-7.1398l-9.6577,-7.1398l9.6577,-7.1398l-9.6577,-7.15779l9.6577,-7.1398l-9.6577,-7.1398l9.6577,-7.15779l0,14.29759l9.66044,-7.1398l-9.66044,-7.15779l9.64403,-7.1434z" fill-rule="nonzero" fill="#FFF"/>
   <path stroke="null" id="svg_34" d="m456.41348,206.53575l0,42.87839l9.66044,-7.16138l-9.66044,-7.1398l9.66044,-7.1398l-9.66044,-7.1398l9.66044,-7.15779l-9.66044,-7.1398zm0,50.26278l9.31581,0l0.32821,-0.24459l-9.64403,-7.1398l0,7.38439z" fill-rule="nonzero" fill="#FFF"/>
   <path stroke="null" id="svg_35" fill-rule="nonzero" fill="#93BB4F" d="m268.36312,145.05071l6.07196,0l0,-7.93471l5.96529,0l0,7.93471l6.09111,0l0,-7.93471l6.07196,0l0,-7.91313l-6.07196,0l0,7.91313l-6.09111,0l0,-7.91313l6.09111,0l0,-7.91313l6.07196,0l0,-7.93831l-6.07196,0l0,7.91313l-6.09111,0l0,-7.91313l-6.07196,0l0,7.91313l-5.96529,0l0,-7.91313l-6.09111,0l0,7.93471l6.09111,0l0,7.91313l5.96256,0l0,7.91673l-5.96256,0l0,-7.91313l-6.09111,0l0,7.91313l6.09111,0l0,7.93471zm6.07196,-23.76457l5.96529,0l0,7.91313l-5.96256,0l0,-7.91313l-0.00274,0z"/>
   <path stroke="null" id="svg_36" d="m262.27201,161.00286l6.0747,0l0,7.97788l-6.07196,0l-0.00274,-7.97788zm0,15.95216l6.0747,0l0,7.97788l-6.07196,0l-0.00274,-7.97788zm12.05367,7.97788l6.09111,0l0,-7.97788l6.07196,0l0,-7.97428l-6.08837,0l0,7.97428l-5.96256,0l0,-7.97428l-6.0747,0l0,7.97428l5.96256,0l0,7.97788zm-12.05367,23.94802l6.0747,0l0,7.97428l-6.07196,0l-0.00274,-7.97428z" fill-rule="nonzero" fill="#FBE340"/>
   <path stroke="null" id="svg_37" fill-rule="nonzero" fill="#FBE340" d="m274.32568,216.85519l6.0747,0l0,-7.97428l6.09111,0l0,-7.97788l6.07196,0l0,-7.99586l-6.07196,0l0,7.97788l-6.09111,0l0,-7.97788l6.09111,0l0,-7.99586l-6.09111,0l0,7.97788l-5.96256,0l0,-7.97788l-6.0747,0l0,7.97788l5.96256,0l0,7.97428l-5.96256,0l0,-7.95629l-6.09111,0l0,7.99586l6.09111,0l0,7.97788l5.96256,0l0,7.97428zm0.1094,-15.95216l5.96529,0l0,7.97788l-5.96256,0l0,-7.97788l-0.00274,0zm-6.07196,15.95216l6.07196,0l0,7.98147l-6.07196,0l0,-7.98147zm12.03726,0l6.0747,0l0,7.98147l-6.07196,0l-0.00274,-7.98147zm-18.12837,9.2224l5.25963,0l0,6.42402l-5.25963,0l0,-6.42402zm12.30803,0l5.27331,0l0,6.42402l-5.27604,0l0.00274,-6.42402zm-6.15402,7.58582l5.27604,0l0,6.42762l-5.27878,0l0.00274,-6.42762zm12.3053,0l5.27331,0l0,6.42762l-5.27057,0l-0.00274,-6.42762zm-12.3053,15.23638l5.27604,0l0,6.65422l-5.27878,0l0.00274,-6.65422zm12.3053,0l5.27331,0l0,6.65422l-5.27057,0l-0.00274,-6.65422zm-18.45932,-7.6074l5.25963,0l0,6.4492l-5.25963,0l0,-6.4492zm12.30803,0l5.27331,0l0,6.4492l-5.27604,0l0.00274,-6.4492zm11.91144,-96.24167l0,7.97788l-6.09111,0l0,-7.97788l-6.07196,0l0,7.97788l-5.96529,0l0,-7.97788l-6.09111,0l0,7.97788l6.09111,0l0,7.97428l5.96256,0l0,7.97788l6.0747,0l0,-7.97788l6.09111,0l0,-7.97428l6.07196,0l0,-7.97788l-6.07196,0zm-12.05367,15.95216l0,-7.97428l5.96256,0l0,7.97428l-5.96256,0z"/>
   <path stroke="null" id="svg_38" d="m286.49148,161.00286l6.07196,0l0,7.97788l-6.07196,0l0,-7.97788zm0,15.95216l6.07196,0l0,7.97788l-6.07196,0l0,-7.97788zm0,31.92589l6.07196,0l0,7.97428l-6.07196,0l0,-7.97428zm0.39112,17.19668l5.27604,0l0,6.42402l-5.27604,0l0,-6.42402zm0,15.2148l5.27604,0l0,6.4492l-5.27604,0l0,-6.4492z" fill-rule="nonzero" fill="#FBE340"/>
   <path stroke="null" id="svg_39" fill-rule="nonzero" fill="#DC3B21" d="m311.50962,225.07765l0,-0.14388l-50.12926,0l0,31.72087l50.12926,0l0,-31.58059l0,0.0036zm-49.23761,8.58575l5.25963,0l0,6.44561l-5.25963,0l0,-6.44561zm12.30803,6.44561l0,-6.44561l5.2569,0l0,6.44561l-5.2569,0zm11.42459,0l-5.27057,0l0,-6.44561l5.27331,0l0,6.44561l-0.00274,0zm-12.31898,0l-5.25963,0l0,-6.44561l5.25963,0l0,6.44561zm-5.25963,1.18697l5.25963,0l0,6.42402l-5.25963,0l0,-6.42762l0,0.0036zm6.15402,0l5.2569,0l0,6.42402l-5.27604,0l0.01641,-6.42762l0.00274,0.0036zm6.15128,0l5.27331,0l0,6.42402l-5.27057,0l0,-6.42762l-0.00274,0.0036zm6.15128,0l5.27604,0l0,6.42402l-5.27604,0l0,-6.42762l0,0.0036zm5.27604,-1.18697l-5.27604,0l0,-6.44561l5.27604,0l0,6.44561zm0.87524,-6.44561l5.27878,0l0,6.44561l-5.27878,0l0,-6.44561zm-6.15128,-1.16179l0,-6.42402l5.27604,0l0,6.42402l-5.27604,0zm-12.3053,0l0,-6.42402l5.25963,0l0,6.42402l-5.2569,0l-0.00274,0zm-12.3053,8.79077l5.25963,0l0,6.42762l-5.25963,0l0,-6.42762zm30.76188,0l5.27878,0l0,6.42762l-5.27878,0l0,-6.42762zm6.15402,0l5.27604,0l0,6.42762l-5.27878,0l0,-6.42762l0.00274,0zm0,-1.18337l0,-6.44561l5.27604,0l0,6.44561l-5.27878,0l0.00274,0zm0,-7.6074l0,-6.42402l5.27604,0l0,6.42402l-5.27878,0l0.00274,0zm-0.87524,0l-5.27878,0l0,-6.42402l5.27878,0l0,6.42402zm-12.30803,0l-5.27057,0l0,-6.42402l5.27331,0l0,6.42402l-0.00274,0zm-12.31898,0l-5.25963,0l0,-6.42402l5.25963,0l0,6.42402zm-6.15402,0l-5.25963,0l0,-6.42402l5.25963,0l0,6.42402zm-5.25963,16.31904l5.25963,0l0,6.65063l-5.25963,0l0,-6.65063zm6.15402,0l5.25963,0l0,6.65063l-5.25963,0l0,-6.65063zm6.15402,0l5.2569,0l0,6.65063l-5.27604,0l0.01641,-6.65063l0.00274,0zm6.15128,0l5.27331,0l0,6.65063l-5.27057,0l0,-6.65063l-0.00274,0zm6.15128,0l5.27604,0l0,6.65063l-5.27604,0l0,-6.65063zm6.15402,0l5.27331,0l0,6.65063l-5.27604,0l0,-6.65063l0.00274,0zm6.15128,0l5.27604,0l0,6.65063l-5.27878,0l0,-6.65063l0.00274,0zm6.15402,0l5.27331,0l0,6.65063l-5.27604,0l0,-6.65063l0.00274,0zm0,-1.18337l0,-6.42402l5.27331,0l0,6.42402l-5.27604,0l0.00274,0zm0,-7.6074l0,-6.36647l5.27331,0l0,6.44561l-5.27604,-0.07913l0.00274,0zm0,-7.61099l0,-6.3413l5.27331,0l0,6.42402l-5.27604,-0.08273l0.00274,0z"/>
   <path stroke="null" id="svg_40" fill-rule="nonzero" fill="#60C6F2" d="m152.82623,181.81081l-2.70777,0l0,-6.44561l5.22681,0l0,5.28381l0.92447,-0.53234l0,-4.75148l5.22955,0l0,1.3884l0.87524,-0.67621l0,-0.65103l0.84789,0c0.46771,-0.36688 0.93815,-0.77693 1.40859,-1.16179l-2.20724,0l0,-6.30533l5.27331,0l0,3.51055l0.87797,-0.89922l0,-2.61133l2.42605,0c0.40753,-0.44601 0.81507,-0.89922 1.20345,-1.36681l-3.676,0l0,-6.44561l5.27604,0l0,4.36661l0.87524,-1.18697l0,-3.17964l2.28656,0c0.26531,-0.38846 0.53335,-0.77333 0.78224,-1.18337l-3.13171,0l0,-6.42402l5.27878,0l0,2.73363c0.29539,-0.53234 0.59352,-1.06108 0.87524,-1.6114l0,-1.12223l0.59352,0l0.59626,-1.18697l-1.18978,0l0,-6.43841l4.02062,0c0.15864,-0.38846 0.33095,-0.77693 0.47318,-1.16179l-4.4938,0l0,-6.24778l5.27604,0l0,4.07886c0.3118,-0.87404 0.60993,-1.75168 0.89165,-2.6509l0,-1.36681l0.53335,0c0.12308,-0.44961 0.28172,-0.89922 0.4048,-1.36681l-0.81233,0l0,-6.50675l2.34673,0l0.23522,-1.18337l-2.64486,0l0,-6.42402l3.59942,0l0.14223,-1.18697l-3.74164,0l0,-6.44201l4.19567,0l0,-1.16539l-4.19567,0l0,-2.17971l-0.89165,0l0,2.22287l-5.27878,0l0,-2.03943l-0.87524,0l0,2.03943l-5.27604,0l0,-1.12223l-0.87524,0.20143l0,0.9208l-3.13171,0c-1.08037,0.3453 -2.12792,0.73376 -3.13171,1.16179l0.1559,0l0,6.44561l-5.27331,0l0,-4.01771l-0.87797,0.52874l0,3.44941l-5.24322,0l-1.56722,1.18337l0.57985,0l0,6.42402l-5.19673,0l0,-2.24445l-0.89438,0.89922l0,1.34523l-1.25268,0l-1.04755,1.18337l2.30023,0l0,6.44561l-5.27331,0l0,-2.77319l-0.87524,1.22294l0,1.55025l-1.00105,0l-0.92447,1.36681l2.00484,0l0,6.24418l-5.3581,0l0,-0.65463c-0.31454,0.61147 -0.62634,1.20495 -0.92447,1.81642l0,6.44561l-2.86367,0l-0.47044,1.18337l3.38061,0l0,6.42402l-5.27604,0l0,-0.81649c-0.3118,1.04309 -0.59352,2.04303 -0.87524,3.14367l0,5.26223l-1.2226,0c-0.09299,0.44961 -0.16958,0.9172 -0.2489,1.36681l1.56449,0l0,6.24058l-2.51904,0c0,0.38846 0,0.77693 -0.1094,1.16539l2.53546,0l0,6.44561l-2.98948,0l0,1.18337l3.01957,0l0,3.60767l0.87524,0l0,-3.5681l5.27878,0l0,3.42783l0.87524,0l0,-3.42783l5.27878,0l0,2.42789l0.87524,-0.24459l0,-2.18331l5.27604,0l0,0.48918l0.89165,-0.32372l0,-0.16546l0.39112,0l2.28656,-1.02151l0.28172,-0.14388l-0.28172,-0.01798zm1.03387,-7.6074l-3.74164,0l0,-6.24418l5.22681,0l0,6.24418l-1.48517,0zm2.40964,-29.29298l5.22955,0l0,6.44561l-5.22955,0l0,-6.44561zm0,-1.16179l0,-6.24418l5.22955,0l0,6.24418l-5.22955,0zm6.15402,-6.24418l5.27331,0l0,6.24418l-5.27331,0l0,-6.24418zm-7.07849,21.45898l-5.22681,0l0,-6.42402l5.22681,0l0,6.42402zm0,1.18697l0,6.40244l-5.22681,0l0,-6.40244l5.22681,0zm0.92447,6.40244l0,-6.40244l5.22955,0l0,6.40244l-5.22955,0zm3.60215,-7.62898l-3.60215,0l0,-6.38446l5.22955,0l0,6.42402l-1.6274,-0.03957zm2.55187,-3.51055l0,-2.8775l5.27331,0l0,6.42762l-5.27331,0l0,-3.54652l0,-0.0036zm3.74164,-4.07886l-3.74164,0l0,-6.42043l5.27331,0l0,6.44561l-1.53167,-0.02158l0,-0.0036zm2.40964,-2.03943l0,-4.38819l5.27604,0l0,6.4492l-5.32254,0l0.0465,-2.06101zm0,-5.56797l0,-6.2226l5.27604,0l0,6.24418l-5.27604,-0.02158zm6.15402,-7.61099l0,-6.42402l5.27331,0l0,6.44561l-5.27604,-0.02158l0.00274,0zm0,-7.62538l0,-6.40604l5.27331,0l0,6.42402l-5.27604,-0.02158l0.00274,0.0036zm-0.87797,0l-5.32254,0l0,-6.40604l5.27604,0l0.0465,6.40244l0,0.0036zm0,1.17978l0,6.44561l-5.32254,0l0,-6.42402l5.32254,-0.02158zm-6.15402,6.44561l-5.27331,0l0,-6.42402l5.27331,0l0,6.42402zm-6.15128,0l-5.27604,0l0,-6.42402l5.22955,0l0.0465,6.42402zm-6.15402,1.36681l0,6.24418l-5.27331,0l0,-6.2226l5.27604,-0.02158l-0.00274,0zm0,7.40957l0,6.44201l-5.27331,0l0,-6.42043l5.27604,-0.02158l-0.00274,0zm-6.11846,6.44201l-5.32528,0l0,-6.42043l5.27878,0l0.0465,6.42402l0,-0.0036zm0,1.18697l0,6.42402l-5.32528,0l0,-6.40604l5.32528,-0.02158l0,0.0036zm0,7.6074l0,6.42402l-5.32528,0l0,-6.40244l5.32528,-0.02158zm-6.20051,6.42402l-5.27604,0l0,-6.40244l5.27604,0l0,6.40244zm0,1.36681l0,6.24058l-5.27604,0l0,-6.20102l5.27604,-0.03957zm0.87524,0l5.27878,0l0,6.24058l-5.27878,0l0,-6.24058zm17.55126,6.24058l-5.22955,0l0,-6.20102l5.22955,0l0,6.20102zm6.15402,-7.6074l-5.22955,0l0,-6.40244l5.27331,0l-0.0465,6.40244l0.00274,0zm6.15128,-7.62898l-5.27878,0l0,-6.38446l5.27878,0l0,6.38446zm6.15402,-7.6074l-5.27878,0l0,-6.40604l5.27878,0l0,6.40244l0,0.0036zm0,-7.61099l-5.27878,0l0,-6.20102l5.27878,0l0,6.20102zm6.15128,-7.6074l-5.27878,0l0,-6.40604l5.27878,0l0,6.40244l0,0.0036zm0,-7.62898l-5.27878,0l0,-6.38446l5.27878,0l0,6.38446zm0,-14.0566l0,6.44561l-5.27878,0l0,-6.40244l5.27878,-0.04316zm-6.15402,0l0,6.44561l-5.27604,0l0,-6.40244l5.27878,-0.04316l-0.00274,0zm-11.42733,0l5.27604,0l0,6.44561l-5.27878,0l0,-6.44561l0.00274,0zm-0.87524,7.62898l0,6.42762l-5.22955,0l0,-6.38446l5.22681,-0.04316l0.00274,0zm-6.15402,0l0,6.42762l-5.22955,0l0,-6.38446l5.22955,-0.04316zm-11.38083,7.61099l5.22681,0l0,6.44561l-5.22681,0l0,-6.44561zm-6.17043,7.85199l5.27878,0l0,6.24418l-5.27878,0l0,-6.24418zm-6.15128,7.40957l5.27604,0l0,6.44561l-5.27604,0l0,-6.44561zm0,7.62538l5.27604,0l0,6.42762l-5.27604,0l0,-6.42762zm-6.15402,7.61099l5.27878,0l0,6.40604l-5.27878,0l0,-6.40244l0,-0.0036zm0,7.81242l5.27878,0l0,6.24418l-5.27878,0l0,-6.24418zm0,13.85158l0,-6.44561l5.27878,0l0,6.44561l-5.27878,0zm6.15402,0l0,-6.44561l5.27604,0l0,6.44561l-5.27604,0zm6.15402,0l0,-6.44561l5.27331,0l0,6.44561l-5.27331,0z"/>
   <path stroke="null" id="svg_41" fill-rule="nonzero" fill="#3680C2" d="m9.07932,186.46157l0,-4.07886c3.61036,0 7.21251,0.4568 10.75449,1.36681l1.28551,0.3453l0,-44.75236a56.33251,74.08131 0 0 0 -7.12772,15.35507l0,23.03081l-2.17442,0l0,-15.70757a56.34345,74.09569 0 0 0 -2.81717,23.13512c0,1.22294 0,2.44588 0.07932,3.65083l0,-2.34516zm32.79681,-28.07004a31.73832,41.73818 0 0 1 7.10857,-8.15772l0,-36.14863c-2.43152,0.99993 -4.8056,2.21208 -7.10857,3.63285l0,40.6735zm-15.04315,27.72474l1.29918,0.58989c0.74942,0.3489 1.47149,0.71578 2.1881,1.10064l1.08311,0.5755c1.06396,0.58989 2.12792,1.22294 3.13171,1.91354a32.17047,42.30648 0 0 1 -0.23522,-5.13994a31.26788,41.11951 0 0 1 5.35263,-23.0488l0,-42.9827a58.1541,76.47683 0 0 0 -7.10584,5.77299l0,58.15793l-2.14707,0l0,-55.9962a55.88395,73.49142 0 0 0 -7.10584,8.89508l0,48.75209l0.12582,0c0.39112,0.12229 0.79865,0.30573 1.18978,0.44961c0.74942,0.3489 1.48517,0.63305 2.22092,0.96037l0.00274,0zm31.41831,-41.18785l0,-33.45097c-2.3987,0.42083 -4.77278,1.05389 -7.10584,1.89555l0,35.16668a31.94072,42.00434 0 0 1 7.10584,-3.61127zm2.17715,-0.61147c13.1778,-3.17964 26.47595,4.74069 33.25084,19.80801l21.77702,-16.68592c-9.61941,-21.41222 -26.78775,-35.17747 -45.79136,-36.71693l0,23.19267l-2.13339,0l0,-23.25382l-1.34568,0c-1.94193,0 -3.86746,0.12229 -5.76016,0.36688l0,33.28911l0.00274,0z"/>
   <path stroke="null" id="svg_42" fill-rule="nonzero" fill="#FFF" d="m13.99433,177.73195l0,-23.03441a52.05478,68.45579 0 0 0 -2.17715,7.32324l0,15.70757l2.17715,0l0,0.0036zm7.12225,6.30173l0,4.07886l2.17715,0l0,-52.15474c-0.75216,1.12223 -1.56722,2.24445 -2.17715,3.42783l0,44.65165l0,-0.0036zm11.46015,-0.97835l0,-58.15793c-0.73575,0.6942 -1.47149,1.40998 -2.17715,2.16172l0,55.9962l2.17715,0zm7.10857,-20.94822l0,10.85178l2.19083,0l0,-14.56736c-0.77951,1.19776 -1.50432,2.45307 -2.17715,3.75514l-0.01368,-0.03957z"/>
   <path stroke="null" id="svg_43" fill-rule="nonzero" fill="#FFF" d="m39.6853,162.10711c0.67557,-1.29128 1.40859,-2.52861 2.19083,-3.71558l0,-40.6699c-0.73575,0.44961 -1.45508,0.9172 -2.17715,1.40638l0,42.9827l-0.01368,0l0,-0.0036zm9.28299,-11.8733l0,10.68992l2.17715,0l0,-47.65144c-0.73848,0.24459 -1.45782,0.52874 -2.17715,0.81649l0,36.14503zm9.28299,-5.3054l0,7.4887l2.17715,0l0,-8.16132a25.82499,33.96172 0 0 0 -2.17715,0.61147l0,0.06115z"/>
   <path stroke="null" id="svg_44" fill-rule="nonzero" fill="#FFF" d="m58.25129,144.92842c0.71934,-0.24459 1.44141,-0.44601 2.17715,-0.61147l0,-33.30709c-0.73848,0 -1.45782,0.22301 -2.17715,0.36328l0,33.55887l0,-0.0036zm11.46015,-11.01364l0,-23.13152c-0.71934,0 -1.44141,0 -2.17715,-0.12229l0,23.25382l2.17715,0z"/>
  </g>
 </g>
</svg>