<svg viewBox="0 0 140 42" fill="none" xmlns="http://www.w3.org/2000/svg"><rect x="1" y="1" width="138" height="40" rx="1" stroke="#7791E6" 
stroke-width="2"></rect>
<path d="M20.86 25.32V28H11.6V14.14H14.72V25.32H20.86ZM22.995 14.14H26.115V28H22.995V14.14ZM36.2087 16.54C34.7553 16.54 33.702 16.9467 33.0487 17.76C32.4087 18.56 32.0887 19.66 32.0887 21.06C32.0887 21.74 32.1687 22.36 32.3287 22.92C32.4887 23.4667 32.7287 23.94 33.0487 24.34C33.3687 24.74 33.7687 25.0533 34.2487 25.28C34.7287 25.4933 35.2887 25.6 35.9287 25.6C36.2753 25.6 36.5687 25.5933 36.8087 25.58C37.062 25.5667 37.282 25.54 37.4687 25.5V20.68H40.5887V27.54C40.2153 27.6867 39.6153 27.84 38.7887 28C37.962 28.1733 36.942 28.26 35.7287 28.26C34.6887 28.26 33.742 28.1 32.8887 27.78C32.0487 27.46 31.3287 26.9933 30.7287 26.38C30.1287 25.7667 29.662 25.0133 29.3287 24.12C29.0087 23.2267 28.8487 22.2067 28.8487 21.06C28.8487 19.9 29.0287 18.8733 29.3887 17.98C29.7487 17.0867 30.242 16.3333 30.8687 15.72C31.4953 15.0933 32.2287 14.62 33.0687 14.3C33.922 13.98 34.8287 13.82 35.7887 13.82C36.442 13.82 37.0287 13.8667 37.5487 13.96C38.082 14.04 38.5353 14.14 38.9087 14.26C39.2953 14.3667 39.6087 14.48 39.8487 14.6C40.102 14.72 40.282 14.8133 40.3887 14.88L39.4887 17.38C39.062 17.1533 38.5687 16.96 38.0087 16.8C37.462 16.6267 36.862 16.54 36.2087 16.54ZM51.9772 14.14H55.0972V28H51.9772V22.12H46.7372V28H43.6172V14.14H46.7372V19.44H51.9772V14.14ZM68.7102 14.14V16.8H64.5302V28H61.4102V16.8H57.2302V14.14H68.7102Z" fill="black">
</path>
<rect x="79" y="6" width="55" height="30" rx="2" fill="#7791E6"></rect>
<path d="M98.88 14.14V16.8H94.7V28H91.58V16.8H87.4V14.14H98.88ZM108.65 28C108.503 27.52 108.337 27.0267 108.15 26.52C107.977 26.0133 107.803 25.5067 107.63 25H102.23C102.057 25.5067 101.877 26.0133 101.69 26.52C101.517 27.0267 101.357 27.52 101.21 28H97.97C98.49 26.5067 98.9834 25.1267 99.45 23.86C99.9167 22.5933 100.37 21.4 100.81 20.28C101.263 19.16 101.703 18.1 102.13 17.1C102.57 16.0867 103.023 15.1 103.49 14.14H106.47C106.923 15.1 107.37 16.0867 107.81 17.1C108.25 18.1 108.69 19.16 109.13 20.28C109.583 21.4 110.043 22.5933 110.51 23.86C110.977 25.1267 111.47 26.5067 111.99 28H108.65ZM104.91 17.28C104.843 17.48 104.743 17.7533 104.61 18.1C104.477 18.4467 104.323 18.8467 104.15 19.3C103.977 19.7533 103.783 20.2533 103.57 20.8C103.37 21.3467 103.163 21.92 102.95 22.52H106.89C106.677 21.92 106.47 21.3467 106.27 20.8C106.07 20.2533 105.877 19.7533 105.69 19.3C105.517 18.8467 105.363 18.4467 105.23 18.1C105.097 17.7533 104.99 17.48 104.91 17.28ZM120.162 16.54C118.708 16.54 117.655 16.9467 117.002 17.76C116.362 18.56 116.042 19.66 116.042 21.06C116.042 21.74 116.122 22.36 116.282 22.92C116.442 23.4667 116.682 23.94 117.002 24.34C117.322 24.74 117.722 25.0533 118.202 25.28C118.682 25.4933 119.242 25.6 119.882 25.6C120.228 25.6 120.522 25.5933 120.762 25.58C121.015 25.5667 121.235 25.54 121.422 25.5V20.68H124.542V27.54C124.168 27.6867 123.568 27.84 122.742 28C121.915 28.1733 120.895 28.26 119.682 28.26C118.642 28.26 117.695 28.1 116.842 27.78C116.002 27.46 115.282 26.9933 114.682 26.38C114.082 25.7667 113.615 25.0133 113.282 24.12C112.962 23.2267 112.802 22.2067 112.802 21.06C112.802 19.9 112.982 18.8733 113.342 17.98C113.702 17.0867 114.195 16.3333 114.822 15.72C115.448 15.0933 116.182 14.62 117.022 14.3C117.875 13.98 118.782 13.82 119.742 13.82C120.395 13.82 120.982 13.8667 121.502 13.96C122.035 14.04 122.488 14.14 122.862 14.26C123.248 14.3667 123.562 14.48 123.802 14.6C124.055 14.72 124.235 14.8133 124.342 14.88L123.442 17.38C123.015 17.1533 122.522 16.96 121.962 16.8C121.415 16.6267 120.815 16.54 120.162 16.54Z" fill="white"></path></svg>