<svg xmlns="http://www.w3.org/2000/svg" width="226" height="48"><g fill="none" fill-rule="evenodd"><path fill="#0050FF" fill-rule="nonzero" d="M45 48H3c-1.7 0-3-1.3-3-3V3c0-1.7 1.3-3 3-3h42c1.7 0 3 1.3 3 3v42c0 1.7-1.4 3-3 3z"/><path fill="#FFF" d="M19 26l6-3-6-3z"/><path fill="#FFF" d="M26.016 13.266l-11.44-6.858C12.516 5.225 10 6.762 10 9.128V42l4.576-2.72V11.965l4.576 2.72 9.152 5.44 4.576 2.719-13.728 8.159v5.44l6.864-4.14 11.44-6.858c2.059-1.182 2.059-4.256 0-5.439-2.86-1.537-11.44-6.74-11.44-6.74z"/><path fill="#00050D" d="M63.96 36.012H60V12h9.504c2.76 0 4.884.642 6.372 1.926 1.488 1.284 2.232 3.174 2.232 5.67s-.75 4.422-2.25 5.778c-1.5 1.356-3.618 2.034-6.354 2.034H63.96v8.604zM69 24.024c1.896 0 3.198-.39 3.906-1.17.708-.78 1.062-1.818 1.062-3.114 0-1.344-.354-2.412-1.062-3.204-.708-.792-2.01-1.188-3.906-1.188h-5.04v8.676H69zm13.68 11.988V12h3.744v24.012H82.68zm16.884-18.468c1.968 0 3.642.474 5.022 1.422 1.38.948 2.058 2.478 2.034 4.59v8.64c0 1.632-.72 2.766-2.16 3.402-1.44.636-3.492.954-6.156.954-2.136 0-3.9-.444-5.292-1.332-1.392-.888-2.088-2.376-2.088-4.464 0-1.968.57-3.444 1.71-4.428 1.14-.984 2.754-1.476 4.842-1.476 2.16 0 3.96.432 5.4 1.296V24.42c0-2.448-1.476-3.672-4.428-3.672a10.75 10.75 0 0 0-3.168.486c-1.056.324-1.932.774-2.628 1.35v-3.528c.672-.432 1.65-.792 2.934-1.08a18.122 18.122 0 0 1 3.978-.432zM98.736 33.6c1.512 0 2.58-.108 3.204-.324.624-.216.936-.648.936-1.296v-3.492c-1.224-.528-2.568-.792-4.032-.792-1.368 0-2.406.24-3.114.72-.708.48-1.062 1.2-1.062 2.16 0 1.008.402 1.764 1.206 2.268.804.504 1.758.756 2.862.756zm28.836-15.66l-7.452 19.188c-1.536 3.912-3.612 5.868-6.228 5.868-.936 0-1.728-.144-2.376-.432v-3.24c.6.24 1.2.36 1.8.36.936 0 1.674-.312 2.214-.936.54-.624 1.002-1.572 1.386-2.844l-7.38-17.964h4.284l4.932 13.5 4.896-13.5h3.924zm23.148-.396c2.52 0 4.362.528 5.526 1.584 1.164 1.056 1.746 2.7 1.746 4.932v11.952h-3.78V24.564c0-2.52-1.428-3.78-4.284-3.78a6.548 6.548 0 0 0-3.492.972c.168.648.252 1.416.252 2.304v11.952h-3.78V24.564c0-2.52-1.428-3.78-4.284-3.78a11.04 11.04 0 0 0-3.816.684v14.544h-3.78V19.416c1.08-.552 2.394-1.002 3.942-1.35 1.548-.348 3.03-.522 4.446-.522 2.352 0 4.104.456 5.256 1.368 1.944-.912 3.96-1.368 6.048-1.368zm20.052-.036c2.808 0 4.866.906 6.174 2.718 1.308 1.812 1.95 4.35 1.926 7.614H166.2c.12 1.776.642 3.126 1.566 4.05.924.924 2.238 1.386 3.942 1.386 1.104 0 2.16-.138 3.168-.414 1.008-.276 1.896-.63 2.664-1.062v3.528c-1.872.816-4.02 1.224-6.444 1.224-2.712 0-4.842-.822-6.39-2.466-1.548-1.644-2.322-3.978-2.322-7.002 0-3.096.732-5.466 2.196-7.11 1.464-1.644 3.528-2.466 6.192-2.466zm-.108 3.096c-1.272 0-2.268.336-2.988 1.008-.72.672-1.188 1.812-1.404 3.42h8.748c-.168-1.536-.6-2.658-1.296-3.366-.696-.708-1.716-1.062-3.06-1.062zm12.564-1.188c1.08-.552 2.394-1.002 3.942-1.35 1.548-.348 3.03-.522 4.446-.522 2.52 0 4.38.528 5.58 1.584 1.2 1.056 1.8 2.7 1.8 4.932v11.952h-3.78V24.564c0-2.52-1.428-3.78-4.284-3.78-1.368 0-2.676.228-3.924.684v14.544h-3.78V19.416zm27.54 17.064c-1.656 0-2.952-.444-3.888-1.332-.936-.888-1.404-2.148-1.404-3.78V21.072h-2.916V17.94h2.916V12.9h3.888v5.04h4.392v3.132h-4.392v9.54c0 .888.156 1.53.468 1.926.312.396.864.594 1.656.594.384 0 .786-.054 1.206-.162.42-.108.774-.246 1.062-.414v3.348c-.84.384-1.836.576-2.988.576z"/></g></svg>