<?xml version="1.0" encoding="UTF-8" standalone="no"?>
<svg
   xmlns:dc="http://purl.org/dc/elements/1.1/"
   xmlns:cc="http://creativecommons.org/ns#"
   xmlns:rdf="http://www.w3.org/1999/02/22-rdf-syntax-ns#"
   xmlns:svg="http://www.w3.org/2000/svg"
   xmlns="http://www.w3.org/2000/svg"
   xmlns:sodipodi="http://sodipodi.sourceforge.net/DTD/sodipodi-0.dtd"
   xmlns:inkscape="http://www.inkscape.org/namespaces/inkscape"
   width="160"
   height="160"
   viewBox="0 0 160 160"
   fill="none"
   version="1.1"
   id="svg23"
   sodipodi:docname="code-free.svg"
   inkscape:version="1.0.2 (1.0.2+r75+1)">
  <metadata
     id="metadata27">
    <rdf:RDF>
      <cc:Work
         rdf:about="">
        <dc:format>image/svg+xml</dc:format>
        <dc:type
           rdf:resource="http://purl.org/dc/dcmitype/StillImage" />
        <dc:title></dc:title>
      </cc:Work>
    </rdf:RDF>
  </metadata>
  <sodipodi:namedview
     pagecolor="#ffffff"
     bordercolor="#666666"
     borderopacity="1"
     objecttolerance="10"
     gridtolerance="10"
     guidetolerance="10"
     inkscape:pageopacity="0"
     inkscape:pageshadow="2"
     inkscape:window-width="640"
     inkscape:window-height="480"
     id="namedview25"
     showgrid="false"
     inkscape:zoom="1.803125"
     inkscape:cx="23.177484"
     inkscape:cy="90.872498"
     inkscape:current-layer="svg23" />
  <g
     id="g37"
     transform="translate(4)">
    <rect
       y="120"
       width="40"
       height="40"
       fill="#cde8fb"
       id="rect2"
       x="0" />
    <rect
       x="136"
       width="16"
       height="16"
       fill="#cde8fb"
       id="rect4"
       y="0" />
    <g
       clip-path="url(#clip0)"
       id="g16">
      <path
         d="m 64.6906,59.4667 -0.135,-5.6201 c -0.0453,-1.8911 1.4753,-3.4489 3.367,-3.4489 h 15.7946 c 1.8917,0 3.4125,1.5578 3.3669,3.4489 l -0.135,5.6201 c -0.023,0.9628 0.4283,1.8754 1.2074,2.4414 l 6.1177,4.4449 c 0.7791,0.5661 1.7865,0.7133 2.6951,0.3938 l 5.3037,-1.8653 c 1.784,-0.6275 3.736,0.3373 4.32,2.1364 l 4.881,15.0216 c 0.585,1.799 -0.427,3.7267 -2.24,4.2678 l -5.386,1.6084 c -0.923,0.2754 -1.652,0.9868 -1.949,1.9026 l -2.3371,7.1919 c -0.2976,0.9159 -0.1262,1.9194 0.4581,2.6848 l 3.413,4.467 c 1.148,1.504 0.834,3.658 -0.697,4.77 l -12.7779,9.284 c -1.5303,1.111 -3.6763,0.745 -4.751,-0.812 l -3.1943,-4.626 c -0.5471,-0.792 -1.4488,-1.265 -2.4118,-1.265 h -7.562 c -0.963,0 -1.8647,0.473 -2.4119,1.265 l -3.1942,4.626 c -1.0749,1.557 -3.2207,1.923 -4.7511,0.812 l -12.7779,-9.284 c -1.5306,-1.112 -1.8452,-3.266 -0.6968,-4.77 l 3.4127,-4.467 c 0.5847,-0.7654 0.756,-1.7689 0.4585,-2.6848 l -2.3368,-7.1919 c -0.2976,-0.916 -1.0262,-1.6272 -1.9489,-1.9026 L 42.4057,86.3073 C 40.593,85.7662 39.5816,83.8385 40.166,82.0395 l 4.8808,-15.0216 c 0.5847,-1.7993 2.536,-2.7641 4.3206,-2.1364 l 5.3034,1.8653 c 0.9085,0.3195 1.9159,0.1723 2.6952,-0.3938 l 6.1177,-4.4449 c 0.7787,-0.566 1.23,-1.4786 1.2069,-2.4414 z"
         fill="#92c9ff"
         id="path6" />
      <path
         d="m 102.736,108.932 c 0.711,-0.516 1.156,-1.258 1.317,-2.055 C 75.1002,105.465 62.9477,82.4411 64.1652,61.2065 63.9801,61.473 63.753,61.7124 63.4834,61.9082 l -6.1177,4.4448 c -0.7791,0.5661 -1.7865,0.7133 -2.6952,0.3938 l -5.3034,-1.8653 c -1.7846,-0.6277 -3.7359,0.3374 -4.3206,2.1364 l -4.8808,15.0218 c -0.5846,1.799 0.427,3.7267 2.2397,4.2678 l 5.3869,1.6082 c 0.9227,0.2755 1.6513,0.9868 1.9489,1.9028 l 2.3368,7.1919 c 0.2975,0.916 0.1262,1.9195 -0.4585,2.6848 l -3.4127,4.4678 c -1.1484,1.503 -0.8336,3.657 0.6968,4.769 l 12.7779,9.284 c 1.5306,1.112 3.6764,0.745 4.7511,-0.811 l 3.1943,-4.626 c 0.5471,-0.793 1.4488,-1.266 2.4118,-1.266 h 7.562 c 0.963,0 1.8647,0.473 2.4118,1.266 l 3.1943,4.626 c 1.0749,1.556 3.2207,1.923 4.7511,0.811 z"
         fill="#66b3ff"
         id="path8" />
      <path
         d="m 64.7668,72.3724 c -4.7053,15.6204 3.0895,25.7017 18.2384,28.3866 l 0.002,0.002 c 5.8123,-2.7099 9.8413,-8.6042 9.8413,-15.4404 0,-9.4047 -7.6239,-17.0286 -17.0285,-17.0286 -4.2205,0 -8.0815,1.536 -11.0567,4.0785 z"
         fill="#66b3ff"
         id="path10" />
      <path
         d="m 64.7669,72.3723 c -3.6553,3.1232 -5.9756,7.7635 -5.9756,12.9484 0,9.4046 7.6239,17.0283 17.0285,17.0283 2.5682,0 5.0016,-0.572 7.1852,-1.59 C 72.5759,94.3449 66.6706,83.6881 64.7669,72.3723 Z"
         fill="#4ca6fe"
         id="path12" />
      <path
         d="m 135.724,41.9993 c -0.432,-2.5903 -3.589,-3.6279 -5.446,-1.7711 l -8.063,8.0633 c -0.602,0.6013 -1.478,0.8362 -2.299,0.6161 l -4.732,-1.2679 c -0.822,-0.2201 -1.463,-0.8617 -1.683,-1.6832 l -1.268,-4.7317 c -0.22,-0.8215 0.015,-1.6978 0.616,-2.2991 l 8.062,-8.0622 c 1.851,-1.8512 0.828,-5.012 -1.754,-5.4444 -6.062,-1.0153 -12.498,0.7431 -17.262,5.2792 -5.3189,5.0644 -7.2584,12.4202 -5.741,19.1434 0.1989,0.8818 -0.0634,1.8038 -0.7026,2.443 L 69.1176,78.6185 c -3.7014,3.7014 -3.7014,9.7027 0,13.4043 3.7015,3.7015 9.7028,3.7015 13.4044,0 l 26.313,-26.3133 c 0.643,-0.6426 1.57,-0.9025 2.456,-0.7 6.548,1.4978 13.698,-0.3026 18.798,-5.403 4.793,-4.7928 6.67,-11.3949 5.635,-17.6072 z"
         fill="#e6eef4"
         id="path14" />
    </g>
  </g>
  <defs
     id="defs21">
    <clipPath
       id="clip0">
      <rect
         width="96"
         height="96"
         fill="#ffffff"
         transform="translate(40,24)"
         id="rect18"
         x="0"
         y="0" />
    </clipPath>
  </defs>
</svg>
