<?xml version="1.0" encoding="UTF-8" standalone="no"?>
<svg
   xmlns:dc="http://purl.org/dc/elements/1.1/"
   xmlns:cc="http://creativecommons.org/ns#"
   xmlns:rdf="http://www.w3.org/1999/02/22-rdf-syntax-ns#"
   xmlns:svg="http://www.w3.org/2000/svg"
   xmlns="http://www.w3.org/2000/svg"
   xmlns:sodipodi="http://sodipodi.sourceforge.net/DTD/sodipodi-0.dtd"
   xmlns:inkscape="http://www.inkscape.org/namespaces/inkscape"
   width="160"
   height="160"
   viewBox="0 0 160 160"
   fill="none"
   version="1.1"
   id="svg53"
   sodipodi:docname="deployment.svg"
   inkscape:version="1.0.2 (1.0.2+r75+1)">
  <metadata
     id="metadata57">
    <rdf:RDF>
      <cc:Work
         rdf:about="">
        <dc:format>image/svg+xml</dc:format>
        <dc:type
           rdf:resource="http://purl.org/dc/dcmitype/StillImage" />
        <dc:title></dc:title>
      </cc:Work>
    </rdf:RDF>
  </metadata>
  <sodipodi:namedview
     pagecolor="#ffffff"
     bordercolor="#666666"
     borderopacity="1"
     objecttolerance="10"
     gridtolerance="10"
     guidetolerance="10"
     inkscape:pageopacity="0"
     inkscape:pageshadow="2"
     inkscape:window-width="640"
     inkscape:window-height="480"
     id="namedview55"
     showgrid="false"
     inkscape:zoom="2.1213235"
     inkscape:cx="46.094464"
     inkscape:cy="64.755374"
     inkscape:current-layer="svg53" />
  <g
     id="g82"
     transform="translate(18.5,12)">
    <rect
       x="83"
       width="40"
       height="40"
       fill="#cde8fb"
       id="rect2"
       y="0" />
    <rect
       y="120"
       width="16"
       height="16"
       fill="#cde8fb"
       id="rect4"
       x="0" />
    <g
       clip-path="url(#clip0)"
       id="g46">
      <path
         d="m 64.0006,104.359 c 2.2394,0 4.0546,1.815 4.0546,4.054 0,2.239 -1.8152,4.054 -4.0539,4.054 -2.2394,0 -4.0539,-1.816 -4.0539,-4.054 0,-2.239 1.8145,-4.054 4.0532,-4.054 z"
         fill="#f9fafe"
         id="path6" />
      <path
         d="m 90.3501,99.2922 v 10.4998 c 0,4.276 -3.4665,7.742 -7.7419,7.742 H 45.3928 c -4.2755,0 -7.7419,-3.466 -7.7419,-7.742 V 99.2922 Z m -22.2965,9.1198 c -0.0015,-2.238 -1.816,-4.051 -4.0546,-4.05 -2.2379,0 -4.0517,1.815 -4.0517,4.053 8e-4,2.238 1.8153,4.052 4.0532,4.052 2.2394,0 4.0539,-1.816 4.0531,-4.055 z"
         fill="#66b3ff"
         id="path8" />
      <path
         d="m 90.3501,34.0649 v 7.4598 H 37.6509 v -7.4598 c 0,-4.2754 3.4664,-7.7419 7.7419,-7.7419 h 37.2154 c 4.2754,0 7.7419,3.4665 7.7419,7.7419 z"
         fill="#66b3ff"
         id="path10" />
      <path
         d="M 70.5886,34.9652 H 57.4122 c -0.8551,0 -1.5484,-0.6933 -1.5484,-1.5484 0,-0.8551 0.6933,-1.5484 1.5484,-1.5484 h 13.1764 c 0.8551,0 1.5484,0.6933 1.5484,1.5484 0,0.8551 -0.6933,1.5484 -1.5484,1.5484 z"
         fill="#f9fafe"
         id="path12" />
      <path
         d="M 101.318,73.4774 H 90.1927 V 70.3806 H 101.31 Z"
         fill="#e6eef4"
         id="path14" />
      <path
         d="m 100.29,91.0704 h -4.8269 c -0.8551,0 -1.5484,-0.6933 -1.5484,-1.5484 v -7.7631 h -3.722 v -3.0968 h 5.2704 c 0.8551,0 1.5484,0.6933 1.5484,1.5484 v 7.7631 h 3.2715 z"
         fill="#e6eef4"
         id="path16" />
      <path
         d="m 95.4631,65.1956 h -5.2704 v -3.0967 h 3.722 V 54.335 c 0,-0.8551 0.6933,-1.5484 1.5484,-1.5484 h 4.8199 l 0.007,3.0968 h -3.2785 v 7.7639 c 0,0.855 -0.6933,1.5483 -1.5484,1.5483 z"
         fill="#e6eef4"
         id="path18" />
      <path
         d="M 37.8082,73.4774 H 26.6905 l -0.0076,-3.0968 h 11.1253 z"
         fill="#e6eef4"
         id="path20" />
      <path
         d="m 32.5378,91.0704 h -4.8199 l -0.0075,-3.0968 h 3.279 v -7.7631 c 0,-0.8551 0.6933,-1.5484 1.5484,-1.5484 h 5.2704 v 3.0968 h -3.7221 v 7.7631 c 0,0.8551 -0.6933,1.5484 -1.5483,1.5484 z"
         fill="#e6eef4"
         id="path22" />
      <path
         d="m 37.8082,65.1956 h -5.2704 c -0.8551,0 -1.5484,-0.6933 -1.5484,-1.5483 v -7.7639 h -3.2715 l -0.0075,-3.0968 h 4.8274 c 0.855,0 1.5483,0.6933 1.5483,1.5484 v 7.7639 h 3.7221 z"
         fill="#e6eef4"
         id="path24" />
      <path
         d="m 101.555,67.6014 c -2.3911,2.3899 -2.3918,6.2646 -0.002,8.6552 2.39,2.3907 6.265,2.3907 8.655,0 2.39,-2.3906 2.389,-6.2653 -0.001,-8.6552 -1.143,-1.156 -2.701,-1.807 -4.326,-1.807 -1.626,0 -3.184,0.651 -4.326,1.807 z"
         fill="#66b3ff"
         id="path26" />
      <path
         d="m 100.527,85.1952 c -2.3897,2.3899 -2.3897,6.2646 0,8.6545 2.39,2.3899 6.265,2.3899 8.655,0 2.389,-2.3899 2.389,-6.2646 -0.001,-8.6545 -1.143,-1.1575 -2.701,-1.8092 -4.327,-1.8092 -1.626,0 -3.184,0.6517 -4.327,1.8092 z"
         fill="#66b3ff"
         id="path28" />
      <path
         d="m 104.853,60.4516 c 2.917,-0.0023 5.426,-2.0648 5.993,-4.9257 0.566,-2.8608 -0.966,-5.724 -3.662,-6.8384 -2.695,-1.1137 -5.802,-0.1694 -7.4212,2.2568 -1.6187,2.4254 -1.2989,5.6575 0.7642,7.7185 1.148,1.1469 2.704,1.7911 4.326,1.7888 z"
         fill="#66b3ff"
         id="path30" />
      <path
         d="m 22.1196,78.0445 c 2.9175,-0.0015 5.4284,-2.064 5.9962,-4.9256 0.567,-2.8624 -0.9655,-5.7271 -3.6623,-6.8422 -2.6961,-1.1152 -5.805,-0.1702 -7.4244,2.2568 -1.6195,2.4269 -1.2997,5.6597 0.7643,7.7222 1.147,1.1477 2.7037,1.7919 4.3262,1.7888 z"
         fill="#66b3ff"
         id="path32" />
      <path
         d="m 18.8193,85.1952 c -2.3906,2.3899 -2.3906,6.2654 -7e-4,8.6553 2.3906,2.3906 6.2653,2.3906 8.656,0 2.3898,-2.3899 2.3898,-6.2654 -8e-4,-8.6553 -2.3921,-2.3853 -6.2624,-2.3853 -8.6545,0 z"
         fill="#66b3ff"
         id="path34" />
      <path
         d="m 18.8185,50.009 c -2.3898,2.3898 -2.3898,6.2646 0,8.6545 2.3899,2.3906 6.2654,2.3906 8.6553,0 2.3898,-2.3899 2.3898,-6.2647 0,-8.6545 -2.3922,-2.3854 -6.2631,-2.3854 -8.6553,0 z"
         fill="#66b3ff"
         id="path36" />
      <path
         d="M 37.6509,80.2106 V 41.5247 H 90.3501 V 99.2924 H 37.6509 Z M 82.9703,69.9934 c 0,-10.4764 -8.4933,-18.9698 -18.9698,-18.9698 -10.4765,0 -18.9699,8.4934 -18.9699,18.9698 0,10.4765 8.4934,18.9692 18.9699,18.9692 10.4765,0 18.9698,-8.4927 18.9698,-18.9692 z"
         fill="#e6ebff"
         id="path38" />
      <path
         d="m 64.0003,51.0237 c 10.4764,0 18.9698,8.4934 18.9698,18.9698 0,10.4765 -8.4934,18.9691 -18.9698,18.9691 -10.4765,0 -18.9699,-8.4926 -18.9699,-18.9691 0,-10.4764 8.4934,-18.9698 18.9699,-18.9698 z"
         fill="#ffffff"
         id="path40" />
      <path
         d="m 73.9407,62.0679 v 15.0967 c 0,0.6268 -0.7666,0.9519 -1.5098,0.9519 -0.7659,0 -1.5091,-0.3251 -1.5091,-0.9519 V 62.0679 c 0,-0.651 0.7432,-0.9292 1.5091,-0.9292 0.7432,0 1.5098,0.2782 1.5098,0.9292 z"
         fill="#66b3ff"
         id="path42" />
      <path
         d="m 66.9497,76.6301 c 0.025,0.0756 0.0401,0.1535 0.0469,0.2321 0,0.7205 -1.0917,1.2543 -1.9045,1.2543 -0.5111,0 -0.9057,-0.1626 -1.0221,-0.6041 l -0.8823,-3.0885 h -5.3189 l -0.8823,3.0885 c -0.1164,0.4415 -0.511,0.6041 -1.0221,0.6041 -0.8128,0 -1.9045,-0.5111 -1.9045,-1.2543 0.0083,-0.0786 0.0242,-0.1565 0.0461,-0.2321 L 58.5886,62.021 c 0.2094,-0.6964 1.0683,-1.0222 1.9279,-1.0222 0.8823,0 1.742,0.3258 1.9506,1.0222 z m -4.4123,-4.5756 -2.0209,-7.1303 -2.0209,7.1303 z"
         fill="#66b3ff"
         id="path44" />
    </g>
  </g>
  <defs
     id="defs51">
    <clipPath
       id="clip0">
      <rect
         width="96"
         height="96"
         fill="#ffffff"
         transform="translate(16,24)"
         id="rect48"
         x="0"
         y="0" />
    </clipPath>
  </defs>
</svg>
