<svg width="1400" height="800" xmlns="http://www.w3.org/2000/svg" version="1.1" xml:space="preserve">
 <title>Clssification</title>
 <g>
  <title>Layer 1</title>
  <path transform="rotate(90.3083 679.77 564.522)" stroke="#27A6A2" class="st12" d="m735.29861,568.0678l26.83259,29.61479l27.57794,0m-219.87814,-66.32044l45.839,0l21.24246,36.28855l138.26235,0" fill="none" stroke-width="4" stroke-miterlimit="10" id="svg_167"/>
  <g transform="rotate(90.3083 696.692 670.789)" stroke="null" id="svg_168">
   <path stroke="null" class="st10" d="m708.24521,686.01353c0,2.08555 -1.4907,3.75399 -3.35407,3.75399c-1.86337,0 -3.35407,-1.66844 -3.35407,-3.75399c0,-2.08555 1.4907,-3.75399 3.35407,-3.75399c1.4907,-0.41711 3.35407,1.25133 3.35407,3.75399" fill="#27A6A2" id="svg_169"/>
   <path stroke="null" class="st10" d="m691.84752,655.56452c0,2.08555 -1.4907,3.75399 -3.35407,3.75399c-1.86337,0 -3.35407,-1.66844 -3.35407,-3.75399s1.4907,-3.75399 3.35407,-3.75399c1.4907,0 3.35407,1.66844 3.35407,3.75399" fill="#27A6A2" id="svg_170"/>
  </g>
  <polyline transform="rotate(90.3083 726.55 586.829)" stroke-width="4" stroke="#27A6A2" class="st12" points="612.1389274597168,600.1759757995605 788.0416374206543,600.1759757995605 809.2840690612793,573.4816398620605 840.9613151550293,573.4816398620605 " fill="none" stroke-miterlimit="10" id="svg_171"/>
  <path stroke="#7f7f7f" class="st0" d="m753.10617,495.51812l-81.24311,0c-24.59654,0 -44.72098,-22.52393 -44.72098,-50.05317l0,-90.92992c0,-27.52924 20.12444,-50.05317 44.72098,-50.05317l81.24311,0c24.59654,0 44.72098,22.52393 44.72098,50.05317l0,90.92992c0,27.52924 -20.12444,50.05317 -44.72098,50.05317z" fill="#ffffff" stroke-width="4" stroke-miterlimit="10" id="svg_2"/>
  <g stroke="null" id="svg_5">
   <polygon stroke="null" class="st1" points="656.9560852050781,369.13385009765625 505.6501159667969,369.13385009765625 500.4326477050781,360.79168701171875 656.9560852050781,360.79168701171875 " fill="#C4C4CA" id="svg_6"/>
  </g>
  <g stroke="null" id="svg_7">
   <polygon stroke="null" class="st1" points="655.8379821777344,440.0425109863281 505.2774353027344,439.6253967285156 497.8239440917969,432.1174621582031 653.6019592285156,431.7003479003906 " fill="#C4C4CA" id="svg_8"/>
  </g>
  <g stroke="null" id="svg_172">
   <path stroke="null" class="st10" d="m1004.02122,410.01063c0,1.25133 -1.11802,2.50265 -2.23605,2.50265c-1.11802,0 -2.23605,-1.25133 -2.23605,-2.50265s1.11802,-2.50265 2.23605,-2.50265c1.11802,-0.41711 2.23605,0.83422 2.23605,2.50265" fill="#27A6A2" id="svg_173"/>
  </g>
  <path transform="rotate(-89.9358 710.824 297.36)" stroke="#27A6A2" class="st12" d="m756.29039,299.02889l26.83259,29.61479l27.57794,0m-214.28802,-29.61479l175.90251,0l21.24246,-32.95167l31.67736,0" fill="none" stroke-width="4" stroke-miterlimit="10" id="svg_174"/>
  <g stroke="null" id="svg_188">
   <path stroke="null" class="st10" d="m451.98493,363.71144c0,-2.08555 1.4907,-3.75399 3.35407,-3.75399c1.86337,0 3.35407,1.66844 3.35407,3.75399c0,2.08555 -1.4907,3.75399 -3.35407,3.75399c-1.86337,0 -3.35407,-1.66844 -3.35407,-3.75399" fill="#27A6A2" id="svg_189"/>
  </g>
  <path stroke="#27A6A2" class="st12" d="m484.51192,364.56168l-28.51857,-38.15731l-44.36222,0m260.23192,38.69475l-198.44169,0l-22.57719,34.93276l-33.66775,0" fill="none" stroke-width="4" stroke-miterlimit="10" id="svg_190"/>
  <path stroke-width="4" stroke="null" class="st10" d="m421.79827,333.26243c0,-2.08555 1.4907,-3.75399 3.35407,-3.75399c1.86337,0 3.35407,1.66844 3.35407,3.75399c0,2.08555 -1.4907,3.75399 -3.35407,3.75399c-1.86337,0.41711 -3.35407,-1.25133 -3.35407,-3.75399" fill="#27A6A2" id="svg_191"/>
  <path stroke-width="4" stroke="null" class="st10" d="m421.79827,392.90912c0,-4.1711 2.9814,-7.09087 6.33547,-7.09087c3.72675,0 6.33547,3.33688 6.33547,7.09087c0,4.1711 -2.9814,7.09087 -6.33547,7.09087c-3.35407,0 -6.33547,-3.33688 -6.33547,-7.09087" fill="#27A6A2" id="svg_192"/>
  <path stroke="#27A6A2" class="st12" d="m501.178,435.45432l-26.83259,-29.61479l-27.57794,0m225.09559,29.61479l-186.71008,0l-21.24246,32.95167l-31.67736,0" fill="none" stroke-width="4" stroke-miterlimit="10" id="svg_193"/>
  <path stroke-width="4" stroke="null" class="st10" d="m411.36337,468.40599c0,-8.34219 5.9628,-15.01595 13.41629,-15.01595c7.4535,0 13.41629,6.67375 13.41629,15.01595s-5.9628,15.01595 -13.41629,15.01595c-7.4535,0 -13.41629,-7.09087 -13.41629,-15.01595" fill="#27A6A2" id="svg_194"/>
  <path stroke-width="4" stroke="null" class="st10" d="m444.15876,405.42242c0,-1.25133 1.11802,-2.50265 2.23605,-2.50265c1.11802,0 2.23605,1.25133 2.23605,2.50265c0,1.25133 -1.11802,2.50265 -2.23605,2.50265c-1.4907,0 -2.23605,-1.25133 -2.23605,-2.50265" fill="#27A6A2" id="svg_195"/>
  <rect stroke="null" x="675.21714" y="325.75446" class="st10" width="10.80757" height="150.1595" fill="#27A6A2" id="svg_206"/>
  <rect stroke="null" x="707.26717" y="325.75446" class="st10" width="10.80757" height="150.1595" fill="#27A6A2" id="svg_207"/>
  <rect stroke="null" x="739.31721" y="325.75446" class="st10" width="10.80757" height="150.1595" fill="#27A6A2" id="svg_208"/>
  <rect stroke="null" x="645.77583" y="430.449" class="st10" width="134.16293" height="12.09619" fill="#27A6A2" id="svg_209"/>
  <rect stroke="null" x="645.77583" y="394.57757" class="st10" width="134.16293" height="12.09619" fill="#27A6A2" id="svg_210"/>
  <rect stroke="null" x="645.77583" y="358.70613" class="st10" width="134.16293" height="12.09619" fill="#27A6A2" id="svg_211"/>
  <g id="svg_3">
   <g stroke="null" id="svg_212">
    <path stroke="null" class="st13" d="m762.85309,347.59659l0,104.69454c0,4.1711 -2.9814,7.09087 -6.33547,7.09087l-93.54138,0c-3.72675,0 -6.33547,-3.33688 -6.33547,-7.09087l0,-104.69454c0,-4.1711 2.9814,-7.09087 6.33547,-7.09087l93.54138,0c3.35407,0 6.33547,3.33688 6.33547,7.09087" fill="#173057" id="svg_213"/>
    <path stroke="null" class="st14" d="m747.57343,450.62269l-76.39834,0c-3.72675,0 -7.08082,-3.33688 -7.08082,-7.92509l0,-85.09038c0,-4.1711 2.9814,-7.92509 7.08082,-7.92509l76.39834,0c3.72675,0 7.08082,3.33688 7.08082,7.92509l0,85.50749c0,4.1711 -3.35407,7.50797 -7.08082,7.50797" fill="#F04F24" id="svg_214"/>
    <path stroke="null" class="st15" d="m700.98907,402.23796c-2.23605,-8.7593 -3.72675,-13.76462 -4.09942,-14.59884c-0.37267,-1.25133 -0.37267,-2.08555 -0.74535,-2.50265c-0.37267,2.50265 -2.23605,8.34219 -4.4721,17.51861l9.31687,0l0,-0.41711l0,-0.00001zm4.09942,16.68439l-2.60872,-9.59352l-13.04362,0l-2.60872,9.59352l-8.19885,0l12.67094,-40.45965l9.31687,0l12.67094,40.45965l-8.19885,0l0.00001,0z" fill="#EDFAFF" id="svg_215"/>
   </g>
   <rect stroke="null" x="719.6802" y="379.56162" class="st15" width="7.4535" height="40.04253" fill="#EDFAFF" id="svg_216"/>
  </g>
  <path stroke="#27A6A2" id="svg_4" d="m320.5814,273.67427l-4.66576,0c0,0 -3.62893,-0.24408 -4.66576,2.92893c-1.84688,2.28819 -5.29758,1.28139 -6.221,2.19668c-1.02065,0 -3.36973,0.42713 -3.11052,1.46443c0.25921,1.03734 1.03686,1.22038 0.77762,1.46447c-0.25921,0.24408 -0.97203,5.24766 5.83221,5.12561c0,0 0.71283,1.46443 3.88814,0c0,0 0.71279,-0.54917 1.94404,0.36609c1.23128,0.9153 3.69373,1.58651 4.27697,1.46447c0.58321,-0.12204 4.27693,5.79679 4.27693,14.27844c0,8.48168 4.98979,14.33947 6.60983,14.64459c0,0 3.93672,11.80717 4.08252,22.33295c0,0 0.97203,4.4544 -3.3049,4.39337c-2.30857,1.8077 -3.32922,3.04333 -1.94407,2.92893c0,0 0.53463,0.82372 1.55524,0.73222c0.44197,-0.14863 -3.57221,2.7001 -1.94407,2.56281c0,0 0.71286,1.9526 3.49931,0.73222c0,0 4.27697,0.36612 4.66576,-2.19668c0.38883,-2.56281 0.58324,-6.72734 2.3329,-6.22396c0,0 0.25917,-20.44136 2.33286,-21.96683c0,0 10.3008,0.80067 22.16235,-5.85783c3.36973,-1.8916 6.80421,-4.69849 7.38742,1.83056c0.58324,6.52904 11.01638,11.95975 12.44204,15.7429c1.42566,3.78319 2.20328,2.44077 1.94404,11.34954c0,0 -2.46245,-0.54917 -4.27693,1.46447c-1.16645,1.09834 0.38883,1.09834 0.38883,1.09834c0,0 -0.90724,0.85426 1.94407,0.73225c0,0 0.38879,0.41185 2.33286,0c0,0 3.2401,0.18305 2.72169,-2.19668c0,0 0.19441,-13.54625 1.16645,-12.814c0.97203,0.73222 5.9618,5.00354 5.83217,14.27844c0,0 -2.20328,0.30509 -2.33286,2.56281c0,0 -1.10162,1.15935 0.38879,1.46447c0,0 2.08987,0.50339 2.72169,0c0,0 2.65693,0.85426 2.72169,-2.19671c0.06479,-3.05094 -2.13845,-13.63773 -1.16641,-16.109c0,0 -8.35949,-4.57644 -9.72035,-18.67184c0,0 3.88814,11.95975 16.33018,9.88507c0,0 0.90724,-0.36609 -0.38883,-0.73222c-1.29607,-0.36612 -11.5348,0.9153 -13.99728,-10.98341c-1.79827,-8.51218 -0.43741,-9.42744 -6.221,-12.814c-7.77624,-7.00193 -27.15211,0.061 -33.04908,-2.19668c-5.44338,-2.56281 -5.63779,-2.60856 -11.66438,-4.39337c-6.17242,-3.06622 -5.11935,-6.59005 -9.72031,-11.34954c-3.52363,-4.46201 -3.5641,-3.96624 -3.88814,-4.39337c-0.32403,-0.42716 -0.06479,-2.44077 -4.27693,-2.92893z" stroke-width="4" fill="none"/>
  <path transform="rotate(0.26466 345.316 475.607)" id="svg_9" d="m302.99202,455.1618c0.57659,-0.10895 4.76445,4.33516 4.84344,5.23069c0.11532,1.30765 2.76769,1.30765 3.45959,1.30765c0.69194,0 5.65069,2.83328 8.99497,5.88453c3.34431,3.05122 13.1465,0.21794 13.83841,0c0.69194,-0.21797 32.28965,-5.99348 40.82331,-1.9615c4.09848,1.93643 12.17698,-4.90499 13.233,-19.12467c-0.43245,-9.48057 -9.4548,-9.83637 -11.33021,-6.94698c-1.38384,1.28042 -3.7479,0.89902 -3.17128,-1.44388c0.52431,-1.56891 4.03618,-6.40212 10.52295,-4.27716c5.49923,1.80146 8.67998,6.13436 9.85987,12.50455c0.7784,13.73053 -10.11936,23.86494 -10.11936,23.86494c0,0 0.8649,3.59611 2.07578,5.88453c1.21085,2.28842 1.5568,10.13442 1.38381,11.11515c-0.17296,0.98077 5.18943,6.37491 6.91922,6.53834c1.49916,0.65384 5.70837,12.74979 5.88133,15.3651c1.55684,0.73556 -0.17296,4.41338 -2.07575,4.90376c-1.90279,0.49038 -2.42174,-2.94227 -2.42174,-4.57684c0,-1.63458 -1.90279,-9.31714 -7.26517,-10.13442c-5.36238,-0.81731 -10.03282,-3.59611 -10.03282,-3.59611c0,0 -0.34599,1.63461 -1.03789,2.28846c0,0 1.7298,2.77877 1.7298,6.86523c-0.17296,1.79804 -2.94065,7.35565 -4.84344,7.84603c0,0 -3.11364,4.57684 -4.49748,4.57684c-1.38384,0 -3.80558,1.63458 -7.61112,-0.32692c0,0 0.6919,-4.08646 4.15153,-2.94227c0,0 8.13007,-5.8845 4.1515,-8.49984c0,0 -2.4217,-3.26915 -3.80554,-4.57684c-1.38384,-1.30765 -2.76769,-3.43261 -3.11364,-5.8845c0,0 -11.58966,-0.65384 -14.53035,-1.30769c-2.94065,-0.65381 -8.30303,0.98077 -8.30303,1.9615c0,0.98077 0.8649,10.29791 2.4217,12.09595c0,0 0.51895,2.28842 0,2.94227c-0.51895,0.65381 1.90279,6.04796 -2.76769,5.55757c-4.41099,0.73556 -6.57323,-2.5336 -1.38381,-3.59608c0.25945,-3.51436 -6.57327,-18.38908 -11.07075,-16.34587c-5.88133,0.81731 -3.89204,-4.00471 -9.68687,3.59611c-6.05432,6.70177 -16.43314,11.44207 -16.95205,14.38434c0,0 -3.11364,-0.65384 -3.80558,1.63458c0,0 -8.13007,0.98077 -7.61112,-0.32692c0.51895,-1.30765 0.9514,-4.00471 4.15153,-2.94223c0,0 7.26517,-2.69709 14.18436,-16.67279c0,0 -0.8649,-3.59608 0.34595,-6.53834c1.21089,-2.94223 -0.6919,-15.03818 -9.34092,-14.38434c0,0 -3.22896,1.08972 -5.18939,-3.923c0,0 -0.80726,-0.98077 0,-1.9615c0.80722,-0.98077 2.76769,-2.50636 3.11364,-3.59608c0.34595,-1.08975 1.15321,-2.72433 5.53534,-4.24995c2.07578,-2.04321 -0.2306,-6.10243 0.34599,-6.21142z" stroke-width="4" stroke="#27A6A2" fill="none"/>
  <path id="svg_10" d="m306.685,394.80558c0,0 -1.44704,-1.96354 0.5788,-2.81725c2.02585,-0.85368 8.68216,-8.57977 13.89143,-8.70783c0,0 0.2894,-7.68337 4.05166,-6.40282c3.76229,1.28058 2.02585,2.30501 2.02585,2.30501c0,0 6.36691,-6.65891 8.10335,0.76834c0,0 1.73641,1.92086 8.39272,-3.58557c6.65631,-5.50642 29.50293,-6.81517 40.5167,3.32947c7.0904,6.53088 16.93017,16.26317 9.26093,25.09906c0,0 4.43952,19.4092 -32.65562,16.49452c0,0 -14.37267,-2.40832 -21.75247,-2.1522c-7.37983,0.25609 -13.45734,2.43307 -9.83977,-0.51224c3.61754,-2.94529 13.31262,-2.94529 26.33584,-0.76834c13.02322,2.17698 33.86036,1.7928 33.86036,-11.26896c0,0 -3.18345,1.02446 -4.63047,0.25612c0,0 0.72349,2.81723 -3.47286,2.56113c-4.19638,-0.25612 -8.10335,-1.40861 -12.44442,0.25609c0,0 -1.30233,0.76836 -1.73644,0c0,0 -2.17053,0 -1.44701,-0.76834c0,0 -1.22997,-0.4482 0,-1.28055c1.22997,-0.83235 9.83977,-0.70432 9.55036,-0.76834c-0.2894,-0.06402 0.14469,-0.83235 -0.5788,-0.76834c-0.72352,0.06402 -22.1395,1.21654 -27.78288,-0.25612c0,0 -0.2894,1.72878 -1.44701,1.02446c0,0 -10.708,0.96042 -13.02322,2.04889c-2.31525,1.0885 -1.5194,0.25612 -2.31525,0.51224c-0.79588,0.25609 -1.66409,1.47263 -2.60465,0.76834c0,0 -3.18345,0.70429 -2.31525,-0.51224c0,0 -1.01289,0.32016 -1.44701,-0.51222c0,0 -1.37468,-0.38416 0.5788,-1.7928c1.95349,-1.40861 9.83977,-1.34457 10.41857,-2.04889c0.57883,-0.70432 0.36176,-1.21654 -1.44701,-1.02446c-1.80877,0.19208 -5.4987,-0.38416 -8.39275,-2.04889c-2.89405,-1.66474 -1.95751,-2.49253 -8.10332,-3.07338c-4.96811,-0.46953 -5.98103,-1.10981 -7.23512,-1.53667c-1.25412,-0.42684 -2.89405,-2.81723 -2.89405,-2.81723z" stroke-width="4" stroke="#27A6A2" fill="none"/>
  <path stroke="#27A6A2" class="st12" d="m926.61963,401.22643l26.83259,29.61478l27.57794,0m-214.28802,-29.61478l175.90251,0l21.24246,-32.95168l31.67736,0" fill="none" stroke-width="4" stroke-miterlimit="10" id="svg_11"/>
  <path stroke="#27A6A2" class="st12" d="m932.11412,363.86387l26.83259,29.61479l27.57794,0m-214.28802,-29.61479l175.90251,0l21.24246,-32.95167l31.67736,0" fill="none" stroke-width="4" stroke-miterlimit="10" id="svg_12"/>
  <text style="cursor: move;" transform="rotate(-90.1783 225.363 391.858) matrix(2.77294 0 0 3.52636 -302.643 -1328.95)" stroke="#007f7f" xml:space="preserve" text-anchor="start" font-family="Noto Sans JP" font-size="24" id="svg_14" y="495.99317" x="149.52297" stroke-width="0" fill="#007f7f">Training</text>
  <path stroke="#27A6A2" class="st12" d="m926.61963,401.22643l26.83259,29.61478l27.57794,0m-214.28802,-29.61478l175.90251,0l21.24246,-32.95168l31.67736,0" fill="none" stroke-width="4" stroke-miterlimit="10" id="svg_17"/>
  <polyline transform="rotate(1.05471 1071.6 381.335)" stroke-width="4" stroke="#27A6A2" class="st12" points="957.1929533481598,394.6820373535156 1133.0957243442535,394.6820373535156 1154.3381559848785,367.9876708984375 1186.0154020786285,367.9876708984375 " fill="none" stroke-miterlimit="10" id="svg_18"/>
  <path stroke="#27A6A2" id="svg_19" d="m692.00901,126.4219l-4.66576,0c0,0 -3.62893,-0.24408 -4.66576,2.92893c-1.84688,2.28819 -5.29758,1.28139 -6.221,2.19668c-1.02065,0 -3.36972,0.42713 -3.11052,1.46444c0.25921,1.03733 1.03687,1.22038 0.77762,1.46446c-0.2592,0.24409 -0.97203,5.24766 5.83221,5.12562c0,0 0.71283,1.46443 3.88814,0c0,0 0.7128,-0.54917 1.94404,0.36609c1.23127,0.9153 3.69372,1.58651 4.27696,1.46447c0.58321,-0.12205 4.27694,5.79679 4.27694,14.27843c0,8.48168 4.98979,14.33948 6.60983,14.6446c0,0 3.93671,11.80717 4.08252,22.33295c0,0 0.97203,4.4544 -3.3049,4.39337c-2.30858,1.80769 -3.32922,3.04333 -1.94407,2.92893c0,0 0.53463,0.82372 1.55524,0.73222c0.44197,-0.14863 -3.57221,2.70009 -1.94407,2.5628c0,0 0.71286,1.9526 3.49931,0.73222c0,0 4.27697,0.36612 4.66576,-2.19668c0.38883,-2.56281 0.58324,-6.72734 2.3329,-6.22396c0,0 0.25917,-20.44136 2.33286,-21.96683c0,0 10.3008,0.80067 22.16235,-5.85783c3.36973,-1.89159 6.80421,-4.69848 7.38742,1.83056c0.58324,6.52904 11.01638,11.95975 12.44204,15.7429c1.42566,3.78319 2.20328,2.44077 1.94404,11.34954c0,0 -2.46245,-0.54917 -4.27694,1.46447c-1.16645,1.09834 0.38883,1.09834 0.38883,1.09834c0,0 -0.90724,0.85426 1.94407,0.73225c0,0 0.38879,0.41184 2.33286,0c0,0 3.24011,0.18304 2.72169,-2.19668c0,0 0.19442,-13.54626 1.16645,-12.81401c0.97204,0.73222 5.9618,5.00354 5.83218,14.27844c0,0 -2.20328,0.30509 -2.33287,2.56281c0,0 -1.10162,1.15934 0.3888,1.46446c0,0 2.08987,0.50339 2.72169,0c0,0 2.65693,0.85426 2.72169,-2.19671c0.06479,-3.05094 -2.13845,-13.63773 -1.16642,-16.109c0,0 -8.35948,-4.57644 -9.72034,-18.67183c0,0 3.88814,11.95974 16.33017,9.88507c0,0 0.90725,-0.36609 -0.38882,-0.73222c-1.29607,-0.36612 -11.5348,0.9153 -13.99728,-10.98341c-1.79827,-8.51218 -0.43741,-9.42744 -6.22101,-12.81401c-7.77624,-7.00192 -27.15211,0.06101 -33.04908,-2.19668c-5.44338,-2.56281 -5.63779,-2.60856 -11.66438,-4.39337c-6.17242,-3.06622 -5.11935,-6.59004 -9.72031,-11.34953c-3.52364,-4.46202 -3.56411,-3.96624 -3.88814,-4.39337c-0.32404,-0.42716 -0.0648,-2.44076 -4.27694,-2.92893z" stroke-width="4" fill="none"/>
  <path stroke="#27A6A2" id="svg_20" d="m1194.20551,328.61918l-4.66576,0c0,0 -3.62893,-0.24408 -4.66576,2.92893c-1.84688,2.28819 -5.29758,1.28139 -6.221,2.19668c-1.02065,0 -3.36972,0.42713 -3.11052,1.46444c0.25921,1.03733 1.03687,1.22038 0.77762,1.46446c-0.2592,0.24409 -0.97203,5.24766 5.83221,5.12562c0,0 0.71283,1.46443 3.88814,0c0,0 0.7128,-0.54917 1.94404,0.36609c1.23127,0.9153 3.69372,1.58651 4.27696,1.46447c0.58321,-0.12205 4.27694,5.79679 4.27694,14.27843c0,8.48168 4.98979,14.33948 6.60983,14.6446c0,0 3.93671,11.80717 4.08252,22.33295c0,0 0.97203,4.4544 -3.3049,4.39337c-2.30858,1.80769 -3.32922,3.04333 -1.94407,2.92893c0,0 0.53463,0.82372 1.55524,0.73222c0.44197,-0.14863 -3.57221,2.70009 -1.94407,2.5628c0,0 0.71286,1.9526 3.49931,0.73222c0,0 4.27697,0.36612 4.66576,-2.19668c0.38883,-2.56281 0.58324,-6.72734 2.3329,-6.22396c0,0 0.25917,-20.44136 2.33286,-21.96683c0,0 10.3008,0.80067 22.16235,-5.85783c3.36973,-1.89159 6.80421,-4.69848 7.38742,1.83056c0.58324,6.52904 11.01638,11.95975 12.44204,15.7429c1.42566,3.78319 2.20328,2.44077 1.94404,11.34954c0,0 -2.46245,-0.54917 -4.27694,1.46447c-1.16645,1.09834 0.38883,1.09834 0.38883,1.09834c0,0 -0.90724,0.85426 1.94407,0.73225c0,0 0.38879,0.41184 2.33286,0c0,0 3.24011,0.18304 2.72169,-2.19668c0,0 0.19442,-13.54626 1.16645,-12.81401c0.97204,0.73222 5.9618,5.00354 5.83218,14.27844c0,0 -2.20328,0.30509 -2.33287,2.56281c0,0 -1.10162,1.15934 0.3888,1.46446c0,0 2.08987,0.50339 2.72169,0c0,0 2.65693,0.85426 2.72169,-2.19671c0.06479,-3.05094 -2.13845,-13.63773 -1.16642,-16.109c0,0 -8.35948,-4.57644 -9.72034,-18.67183c0,0 3.88814,11.95974 16.33017,9.88507c0,0 0.90725,-0.36609 -0.38882,-0.73222c-1.29607,-0.36612 -11.5348,0.9153 -13.99728,-10.98341c-1.79827,-8.51218 -0.43741,-9.42744 -6.22101,-12.81401c-7.77624,-7.00192 -27.15211,0.06101 -33.04908,-2.19668c-5.44338,-2.56281 -5.63779,-2.60856 -11.66438,-4.39337c-6.17242,-3.06622 -5.11935,-6.59004 -9.72031,-11.34953c-3.52364,-4.46202 -3.56411,-3.96624 -3.88814,-4.39337c-0.32404,-0.42716 -0.0648,-2.44076 -4.27694,-2.92893z" stroke-width="4" fill="none"/>
  <text transform="matrix(2.32976 0 0 2.47889 -218.667 -814.24)" stroke="#007f7f" xml:space="preserve" text-anchor="start" font-family="Noto Sans JP" font-size="24" id="svg_21" y="367.87869" x="360.83506" stroke-width="0" fill="#007f7f">Testing</text>
  <text transform="matrix(1.40877 0 0 1.47271 415.039 -283.54)" stroke="#007f7f" xml:space="preserve" text-anchor="start" font-family="Noto Sans JP" font-size="24" id="svg_22" y="500.67133" x="541.45375" stroke-width="0" fill="#007f7f">100 % Dog</text>
  <text font-weight="normal" transform="matrix(2.32976 0 0 2.47889 -218.667 -814.24)" stroke="#007f7f" xml:space="preserve" text-anchor="start" font-family="Noto Sans JP" font-size="24" id="svg_23" y="629.4272" x="348.5714" stroke-width="0" fill="#007f7f">Model Evaluation</text>
 </g>

</svg>