<svg id="e0iU7SfhsEm1" xmlns="http://www.w3.org/2000/svg" xmlns:xlink="http://www.w3.org/1999/xlink" viewBox="0 0 855.41839 610.77534" shape-rendering="geometricPrecision" text-rendering="geometricPrecision" width="855.41839" height="610.77534"><circle id="e0iU7SfhsEm2" r="13.6306" transform="matrix(1 0 0 1 39.5359 110.727)" fill="rgb(64,61,148)" stroke="none" stroke-width="1" stroke-miterlimit="1"/><circle id="e0iU7SfhsEm3" r="13.6306" transform="matrix(1 0 0 1 80.4276 110.727)" fill="rgb(64,61,148)" stroke="none" stroke-width="1" stroke-miterlimit="1"/><circle id="e0iU7SfhsEm4" r="13.6306" transform="matrix(1 0 0 1 121.319 110.727)" fill="rgb(64,61,148)" stroke="none" stroke-width="1" stroke-miterlimit="1"/><circle id="e0iU7SfhsEm5" r="13.6306" transform="matrix(1 0 0 1 162.211 110.727)" fill="rgb(64,61,148)" stroke="none" stroke-width="1" stroke-miterlimit="1"/><circle id="e0iU7SfhsEm6" r="13.6306" transform="matrix(1 0 0 1 203.103 110.727)" fill="rgb(64,61,148)" stroke="none" stroke-width="1" stroke-miterlimit="1"/><circle id="e0iU7SfhsEm7" r="13.6306" transform="matrix(1 0 0 1 243.994 110.727)" fill="rgb(64,61,148)" stroke="none" stroke-width="1" stroke-miterlimit="1"/><circle id="e0iU7SfhsEm8" r="13.6306" transform="matrix(1 0 0 1 284.886 110.727)" fill="rgb(64,61,148)" stroke="none" stroke-width="1" stroke-miterlimit="1"/><path id="e0iU7SfhsEm9" d="M488.67447,271.93783L180.32909,271.93783C177.267097,271.934232,174.785758,269.452893,174.78216,266.3909L174.78216,244.28714C174.785753,241.225145,177.267095,238.743803,180.32909,238.74021L488.67447,238.74021C491.736463,238.743808,494.217802,241.225147,494.2214,244.28714L494.2214,266.3909C494.217796,269.452891,491.736461,271.934226,488.67447,271.93783ZM180.32909,240.959C178.49183,240.961006,177.002936,242.4499,177.00093,244.28716L177.00093,266.3909C177.002942,268.228157,178.491833,269.717044,180.32909,269.71905L488.67447,269.71905C490.511725,269.717044,492.000614,268.228155,492.00262,266.3909L492.00262,244.28714C492.000619,242.449881,490.511729,240.960986,488.67447,240.95898Z" transform="matrix(1 0 0 1 -172.291 -144.612)" fill="rgb(64,61,148)" stroke="none" stroke-width="1" stroke-miterlimit="1"/><path id="e0iU7SfhsEm10" d="M246.31694,147.79938C248.076238,147.801391,249.501929,149.227082,249.50394,150.98638L249.50394,220.049C249.501929,221.808298,248.076238,223.233989,246.31694,223.236L178.66494,223.236C176.905642,223.233989,175.479951,221.808298,175.47794,220.049L175.47794,150.98643C175.479951,149.227132,176.905642,147.801441,178.66494,147.79943L246.31694,147.79943M246.31694,144.61238L178.66494,144.61238C175.144622,144.61238,172.29084,147.466162,172.29084,150.98648L172.29084,220.049C172.29084,223.569318,175.144622,226.4231,178.66494,226.4231L246.31694,226.4231C249.837256,226.423094,252.691034,223.569316,252.69104,220.049L252.69104,150.98643C252.691034,147.466114,249.837256,144.612336,246.31694,144.61233Z" transform="matrix(1 0 0 1 -172.291 -144.612)" fill="rgb(230,230,230)" stroke="none" stroke-width="1" stroke-miterlimit="1"/><path id="e0iU7SfhsEm11" d="M235.76469,165.95293L190.62778,165.95293C190.056148,165.956438,189.526431,165.653488,189.239597,165.159016C188.952764,164.664544,188.952764,164.054316,189.239597,163.559844C189.526431,163.065372,190.056148,162.762422,190.62778,162.76593L235.76469,162.76593C236.336322,162.762422,236.866039,163.065372,237.152873,163.559844C237.439706,164.054316,237.439706,164.664544,237.152873,165.159016C236.866039,165.653488,236.336322,165.956438,235.76469,165.95293Z" transform="matrix(1 0 0 1 -172.291 -144.612)" fill="rgb(108,99,255)" stroke="none" stroke-width="1" stroke-miterlimit="1"/><path id="e0iU7SfhsEm12" d="M235.76469,177.23755L190.62778,177.23755C190.056148,177.241058,189.526431,176.938108,189.239597,176.443636C188.952764,175.949164,188.952764,175.338936,189.239597,174.844464C189.526431,174.349992,190.056148,174.047042,190.62778,174.05055L235.76469,174.05055C236.336322,174.047042,236.866039,174.349992,237.152873,174.844464C237.439706,175.338936,237.439706,175.949164,237.152873,176.443636C236.866039,176.938108,236.336322,177.241058,235.76469,177.23755Z" transform="matrix(1 0 0 1 -172.291 -144.612)" fill="rgb(108,99,255)" stroke="none" stroke-width="1" stroke-miterlimit="1"/><path id="e0iU7SfhsEm13" d="M235.76469,188.52139L190.62778,188.52139C190.056148,188.524898,189.526431,188.221948,189.239597,187.727476C188.952764,187.233004,188.952764,186.622776,189.239597,186.128304C189.526431,185.633832,190.056148,185.330882,190.62778,185.33439L235.76469,185.33439C236.336322,185.330882,236.866039,185.633832,237.152873,186.128304C237.439706,186.622776,237.439706,187.233004,237.152873,187.727476C236.866039,188.221948,236.336322,188.524898,235.76469,188.52139Z" transform="matrix(1 0 0 1 -172.291 -144.612)" fill="rgb(108,99,255)" stroke="none" stroke-width="1" stroke-miterlimit="1"/><path id="e0iU7SfhsEm14" d="M235.76469,199.806L190.62778,199.806C190.056148,199.809508,189.526431,199.506558,189.239597,199.012086C188.952764,198.517614,188.952764,197.907386,189.239597,197.412914C189.526431,196.918442,190.056148,196.615492,190.62778,196.619L235.76469,196.619C236.336322,196.615492,236.866039,196.918442,237.152873,197.412914C237.439706,197.907386,237.439706,198.517614,237.152873,199.012086C236.866039,199.506558,236.336322,199.809508,235.76469,199.806Z" transform="matrix(1 0 0 1 -172.291 -144.612)" fill="rgb(108,99,255)" stroke="none" stroke-width="1" stroke-miterlimit="1"/><path id="e0iU7SfhsEm15" d="M235.76469,211.09063L190.62778,211.09063C189.747698,211.09063,189.03425,210.377182,189.03425,209.4971C189.03425,208.617018,189.747698,207.90357,190.62778,207.90357L235.76469,207.90357C236.644772,207.90357,237.35822,208.617018,237.35822,209.4971C237.35822,210.377182,236.644772,211.09063,235.76469,211.09063Z" transform="matrix(1 0 0 1 -172.291 -144.612)" fill="rgb(108,99,255)" stroke="none" stroke-width="1" stroke-miterlimit="1"/><path id="e0iU7SfhsEm16" d="M477.37812,147.79938C479.137418,147.801391,480.563109,149.227082,480.56512,150.98638L480.56512,220.049C480.563109,221.808298,479.137418,223.233989,477.37812,223.236L409.72612,223.236C407.966822,223.233989,406.541131,221.808298,406.53912,220.049L406.53912,150.98643C406.541131,149.227132,407.966822,147.801441,409.72612,147.79943L477.37812,147.79943M477.37812,144.61238L409.72612,144.61238C406.205802,144.61238,403.35202,147.466162,403.35202,150.98648L403.35202,220.049C403.35202,223.569318,406.205802,226.4231,409.72612,226.4231L477.37812,226.4231C480.898438,226.4231,483.75222,223.569318,483.75222,220.049L483.75222,150.98643C483.75222,147.466112,480.898438,144.61233,477.37812,144.61233Z" transform="matrix(1 0 0 1 -172.291 -144.612)" fill="rgb(230,230,230)" stroke="none" stroke-width="1" stroke-miterlimit="1"/><path id="e0iU7SfhsEm17" d="M466.82588,165.95293L421.689,165.95293C421.117368,165.956438,420.587651,165.653488,420.300817,165.159016C420.013984,164.664544,420.013984,164.054316,420.300817,163.559844C420.587651,163.065372,421.117368,162.762422,421.689,162.76593L466.82592,162.76593C467.70217,162.771307,468.409672,163.483164,468.409672,164.35943C468.409672,165.235696,467.70217,165.947553,466.82592,165.95293Z" transform="matrix(1 0 0 1 -172.291 -144.612)" fill="rgb(108,99,255)" stroke="none" stroke-width="1" stroke-miterlimit="1"/><path id="e0iU7SfhsEm18" d="M466.82588,177.23755L421.689,177.23755C421.117368,177.241058,420.587651,176.938108,420.300817,176.443636C420.013984,175.949164,420.013984,175.338936,420.300817,174.844464C420.587651,174.349992,421.117368,174.047042,421.689,174.05055L466.82592,174.05055C467.70217,174.055927,468.409672,174.767784,468.409672,175.64405C468.409672,176.520316,467.70217,177.232173,466.82592,177.23755Z" transform="matrix(1 0 0 1 -172.291 -144.612)" fill="rgb(108,99,255)" stroke="none" stroke-width="1" stroke-miterlimit="1"/><path id="e0iU7SfhsEm19" d="M466.82588,188.52139L421.689,188.52139C421.117368,188.524898,420.587651,188.221948,420.300817,187.727476C420.013984,187.233004,420.013984,186.622776,420.300817,186.128304C420.587651,185.633832,421.117368,185.330882,421.689,185.33439L466.82592,185.33439C467.70217,185.339767,468.409672,186.051624,468.409672,186.92789C468.409672,187.804156,467.70217,188.516013,466.82592,188.52139Z" transform="matrix(1 0 0 1 -172.291 -144.612)" fill="rgb(108,99,255)" stroke="none" stroke-width="1" stroke-miterlimit="1"/><path id="e0iU7SfhsEm20" d="M466.82588,199.806L421.689,199.806C421.117368,199.809508,420.587651,199.506558,420.300817,199.012086C420.013984,198.517614,420.013984,197.907386,420.300817,197.412914C420.587651,196.918442,421.117368,196.615492,421.689,196.619L466.82592,196.619C467.70217,196.624377,468.409672,197.336234,468.409672,198.2125C468.409672,199.088766,467.70217,199.800623,466.82592,199.806Z" transform="matrix(1 0 0 1 -172.291 -144.612)" fill="rgb(108,99,255)" stroke="none" stroke-width="1" stroke-miterlimit="1"/><path id="e0iU7SfhsEm21" d="M466.82588,211.09063L421.689,211.09063C420.808918,211.09063,420.09547,210.377182,420.09547,209.4971C420.09547,208.617018,420.808918,207.90357,421.689,207.90357L466.82592,207.90357C467.706002,207.90357,468.41945,208.617018,468.41945,209.4971C468.41945,210.377182,467.706002,211.09063,466.82592,211.09063Z" transform="matrix(1 0 0 1 -172.291 -144.612)" fill="rgb(108,99,255)" stroke="none" stroke-width="1" stroke-miterlimit="1"/><path id="e0iU7SfhsEm22" d="M707.317,280.59077C709.076298,280.592781,710.501989,282.018472,710.504,283.77777L710.504,352.84032C710.501983,354.599615,709.076295,356.025303,707.317,356.02732L639.665,356.02732C637.905705,356.025303,636.480017,354.599615,636.478,352.84032L636.478,283.77782C636.480011,282.018522,637.905702,280.592831,639.665,280.59082L707.317,280.59082M707.317,277.40382L639.665,277.40382C636.144682,277.40382,633.2909,280.257602,633.2909,283.77792L633.2909,352.84047C633.2909,356.360788,636.144682,359.21457,639.665,359.21457L707.317,359.21457C710.837316,359.214564,713.691094,356.360786,713.6911,352.84047L713.6911,283.77782C713.6911,280.257502,710.837318,277.40372,707.317,277.40372Z" transform="matrix(1 0 0 1 -172.291 -144.612)" fill="rgb(108,99,255)" stroke="none" stroke-width="1" stroke-miterlimit="1"/><path id="e0iU7SfhsEm23" d="M696.76476,298.74432L651.62784,298.74432C651.056208,298.747828,650.526491,298.444878,650.239657,297.950406C649.952824,297.455934,649.952824,296.845706,650.239657,296.351234C650.526491,295.856762,651.056208,295.553812,651.62784,295.55732L696.76476,295.55732C697.64101,295.562697,698.348512,296.274554,698.348512,297.15082C698.348512,298.027086,697.64101,298.738943,696.76476,298.74432Z" transform="matrix(1 0 0 1 -172.291 -144.612)" fill="rgb(108,99,255)" stroke="none" stroke-width="1" stroke-miterlimit="1"/><path id="e0iU7SfhsEm24" d="M696.76476,310.02894L651.62784,310.02894C650.747758,310.02894,650.03431,309.315492,650.03431,308.43541C650.03431,307.555328,650.747758,306.84188,651.62784,306.84188L696.76476,306.84188C697.644842,306.84188,698.35829,307.555328,698.35829,308.43541C698.35829,309.315492,697.644842,310.02894,696.76476,310.02894Z" transform="matrix(1 0 0 1 -172.291 -144.612)" fill="rgb(108,99,255)" stroke="none" stroke-width="1" stroke-miterlimit="1"/><path id="e0iU7SfhsEm25" d="M696.76476,321.31278L651.62784,321.31278C651.056635,321.315642,650.527592,321.01255,650.24116,320.518344C649.954728,320.024137,649.954728,319.414423,650.24116,318.920216C650.527592,318.42601,651.056635,318.122918,651.62784,318.12578L696.76476,318.12578C697.64101,318.131157,698.348512,318.843014,698.348512,319.71928C698.348512,320.595546,697.64101,321.307403,696.76476,321.31278Z" transform="matrix(1 0 0 1 -172.291 -144.612)" fill="rgb(108,99,255)" stroke="none" stroke-width="1" stroke-miterlimit="1"/><path id="e0iU7SfhsEm26" d="M696.76476,332.59739L651.62784,332.59739C651.056208,332.600898,650.526491,332.297948,650.239657,331.803476C649.952824,331.309004,649.952824,330.698776,650.239657,330.204304C650.526491,329.709832,651.056208,329.406882,651.62784,329.41039L696.76476,329.41039C697.64101,329.415767,698.348512,330.127624,698.348512,331.00389C698.348512,331.880156,697.64101,332.592013,696.76476,332.59739Z" transform="matrix(1 0 0 1 -172.291 -144.612)" fill="rgb(108,99,255)" stroke="none" stroke-width="1" stroke-miterlimit="1"/><path id="e0iU7SfhsEm27" d="M696.76476,343.882L651.62784,343.882C651.056208,343.885508,650.526491,343.582558,650.239657,343.088086C649.952824,342.593614,649.952824,341.983386,650.239657,341.488914C650.526491,340.994442,651.056208,340.691492,651.62784,340.695L696.76476,340.695C697.64101,340.700377,698.348512,341.412234,698.348512,342.2885C698.348512,343.164766,697.64101,343.876623,696.76476,343.882Z" transform="matrix(1 0 0 1 -172.291 -144.612)" fill="rgb(108,99,255)" stroke="none" stroke-width="1" stroke-miterlimit="1"/><path id="e0iU7SfhsEm28" d="M362.73282,226.42308L293.30943,226.42308C289.400393,226.41849,286.232636,223.250737,286.22804,219.3417L286.22804,169.66541C286.232294,165.756105,289.400125,162.587929,293.30943,162.58325L362.73282,162.58325C366.642402,162.587565,369.810669,165.755828,369.81499,169.66541L369.81499,219.3417C369.810305,223.251005,366.642125,226.418832,362.73282,226.42308ZM293.30943,165.7703C291.159448,165.772962,289.417327,167.515428,289.41509,169.66541L289.41509,219.3417C289.417394,221.491528,291.159602,223.233732,293.30943,223.23603L362.73282,223.23603C364.882798,223.233793,366.625262,221.491678,366.62793,219.3417L366.62793,169.66541C366.625329,167.515278,364.882952,165.772901,362.73282,165.7703Z" transform="matrix(1 0 0 1 -172.291 -144.612)" fill="rgb(230,230,230)" stroke="none" stroke-width="1" stroke-miterlimit="1"/><path id="e0iU7SfhsEm29" d="M350.59,184.81246L305.45305,184.81246C304.5768,184.807083,303.869298,184.095226,303.869298,183.21896C303.869298,182.342694,304.5768,181.630837,305.45305,181.62546L350.59,181.62546C351.161632,181.621952,351.691349,181.924902,351.978183,182.419374C352.265016,182.913846,352.265016,183.524074,351.978183,184.018546C351.691349,184.513018,351.161632,184.815968,350.59,184.81246Z" transform="matrix(1 0 0 1 -172.291 -144.612)" fill="rgb(108,99,255)" stroke="none" stroke-width="1" stroke-miterlimit="1"/><path id="e0iU7SfhsEm30" d="M350.59,196.09708L305.45305,196.09708C304.5768,196.091703,303.869298,195.379846,303.869298,194.50358C303.869298,193.627314,304.5768,192.915457,305.45305,192.91008L350.59,192.91008C351.161632,192.906572,351.691349,193.209522,351.978183,193.703994C352.265016,194.198466,352.265016,194.808694,351.978183,195.303166C351.691349,195.797638,351.161632,196.100588,350.59,196.09708Z" transform="matrix(1 0 0 1 -172.291 -144.612)" fill="rgb(108,99,255)" stroke="none" stroke-width="1" stroke-miterlimit="1"/><path id="e0iU7SfhsEm31" d="M350.59,207.38092L305.45305,207.38092C304.5768,207.375543,303.869298,206.663686,303.869298,205.78742C303.869298,204.911154,304.5768,204.199297,305.45305,204.19392L350.59,204.19392C351.161632,204.190412,351.691349,204.493362,351.978183,204.987834C352.265016,205.482306,352.265016,206.092534,351.978183,206.587006C351.691349,207.081478,351.161632,207.384428,350.59,207.38092Z" transform="matrix(1 0 0 1 -172.291 -144.612)" fill="rgb(108,99,255)" stroke="none" stroke-width="1" stroke-miterlimit="1"/><path id="e0iU7SfhsEm32" d="M593.09111,253.95025L526.41486,234.6141C522.661785,233.520927,520.501681,229.596221,521.58604,225.84059L535.42212,178.13005C536.51504,174.376625,540.439927,172.216133,544.19584,173.30047L610.87209,192.63662C614.625757,193.729686,616.786205,197.655016,615.70144,201.41109L601.86536,249.12164C600.772025,252.874942,596.846902,255.035,593.09111,253.95025ZM543.30817,176.36141C541.242526,175.765146,539.084026,176.953439,538.48306,179.01772L524.647,226.72827C524.050431,228.79367,525.238452,230.952182,527.30257,231.55317L593.97881,250.88931C596.044338,251.485981,598.203074,250.29812,598.80446,248.23396L612.64054,200.52342C613.236901,198.457646,612.048771,196.298923,609.98445,195.69755Z" transform="matrix(1 0 0 1 -172.291 -144.612)" fill="rgb(16,89,92)" stroke="none" stroke-width="1" stroke-miterlimit="1"/><path id="e0iU7SfhsEm33" d="M593.01835,210.60411L549.66755,198.03236C548.823961,197.78591,548.339158,196.903007,548.583939,196.058932C548.82872,195.214857,549.710662,194.728309,550.55522,194.97142L593.906,207.54318C594.452782,207.701749,594.873435,208.139977,595.009502,208.692789C595.145568,209.245601,594.976377,209.829011,594.565662,210.223254C594.154946,210.617497,593.565102,210.762679,593.01832,210.60411Z" transform="matrix(1 0 0 1 -172.291 -144.612)" fill="rgb(108,99,255)" stroke="none" stroke-width="1" stroke-miterlimit="1"/><path id="e0iU7SfhsEm34" d="M589.87531,221.44219L546.5245,208.87043C545.679248,208.625307,545.192747,207.741382,545.43787,206.89613C545.682993,206.050878,546.566918,205.564377,547.41217,205.8095L590.763,218.38125C591.606589,218.6277,592.091392,219.510603,591.846611,220.354678C591.60183,221.198753,590.719888,221.685301,589.87533,221.44219Z" transform="matrix(1 0 0 1 -172.291 -144.612)" fill="rgb(108,99,255)" stroke="none" stroke-width="1" stroke-miterlimit="1"/><path id="e0iU7SfhsEm35" d="M586.73248,232.27951L543.38167,219.70776C542.538081,219.46131,542.053278,218.578407,542.298059,217.734332C542.54284,216.890257,543.424782,216.403709,544.26934,216.64682L587.62015,229.21858C588.465402,229.463703,588.951903,230.347628,588.70678,231.19288C588.461657,232.038132,587.577732,232.524633,586.73248,232.27951Z" transform="matrix(1 0 0 1 -172.291 -144.612)" fill="rgb(108,99,255)" stroke="none" stroke-width="1" stroke-miterlimit="1"/><rect id="e0iU7SfhsEm36" width="699.312" height="3" rx="0" ry="0" transform="matrix(1 0 0 1 156.106 607.775)" fill="rgb(230,230,230)" stroke="none" stroke-width="1" stroke-miterlimit="1"/><polygon id="e0iU7SfhsEm37" points="562.14,603.085 448.421,603.085 452.276,552.973 558.285,552.973 562.14,603.085" fill="rgb(230,230,230)" stroke="none" stroke-width="1" stroke-miterlimit="1"/><rect id="e0iU7SfhsEm38" width="127.21" height="11.5646" rx="0" ry="0" transform="matrix(1 0 0 1 442.639 597.303)" fill="rgb(230,230,230)" stroke="none" stroke-width="1" stroke-miterlimit="1"/><path id="e0iU7SfhsEm39" d="M895.37073,374.74021L460.73514,374.74021C454.348199,374.74021,449.17056,379.917849,449.17056,386.30479L449.17056,386.30479L449.17056,651.3265L906.93533,651.3265L906.93533,386.30479C906.935333,383.237675,905.716929,380.296181,903.548153,378.127401C901.379377,375.958622,898.437885,374.740213,895.37077,374.74021Z" transform="matrix(1 0 0 1 -172.291 -144.612)" fill="rgb(63,61,86)" stroke="none" stroke-width="1" stroke-miterlimit="1"/><path id="e0iU7SfhsEm40" d="M449.17056,651.3265L449.17056,694.69369C449.17056,697.760806,450.388968,700.702302,452.557748,702.871079C454.726527,705.039857,457.668024,706.258263,460.73514,706.25826L895.37073,706.25826C901.757673,706.258266,906.935319,701.080633,906.93533,694.69369L906.93533,694.69369L906.93533,651.3265Z" transform="matrix(1 0 0 1 -172.291 -144.612)" fill="rgb(230,230,230)" stroke="none" stroke-width="1" stroke-miterlimit="1"/><circle id="e0iU7SfhsEm41" r="11.5646" transform="matrix(1 0 0 1 506.244 533.698)" fill="rgb(63,61,86)" stroke="none" stroke-width="1" stroke-miterlimit="1"/><circle id="e0iU7SfhsEm42" r="2.19466" transform="matrix(1 0 0 1 312.87 261.795)" fill="rgb(255,255,255)" stroke="none" stroke-width="1" stroke-miterlimit="1"/><circle id="e0iU7SfhsEm43" r="2.19466" transform="matrix(1 0 0 1 321.2 261.795)" fill="rgb(255,255,255)" stroke="none" stroke-width="1" stroke-miterlimit="1"/><circle id="e0iU7SfhsEm44" r="2.19466" transform="matrix(1 0 0 1 329.531 261.795)" fill="rgb(255,255,255)" stroke="none" stroke-width="1" stroke-miterlimit="1"/><rect id="e0iU7SfhsEm45" width="389.916" height="194.247" rx="0" ry="0" transform="matrix(1 0 0 1 310.675 269.253)" fill="rgb(255,255,255)" stroke="none" stroke-width="1" stroke-miterlimit="1"/><path id="e0iU7SfhsEm46" d="M508.885,443.41111C508.124019,443.411832,507.507302,444.028549,507.50658,444.78953L507.50658,514.46531C507.507308,515.226287,508.124023,515.842998,508.885,515.84372L589.3493,515.84372C590.110277,515.842998,590.726992,515.226287,590.72772,514.46531L590.72772,444.78953C590.726998,444.028549,590.110281,443.411832,589.3493,443.41111Z" transform="matrix(1 0 0 1 -172.291 -144.612)" fill="rgb(230,230,230)" stroke="none" stroke-width="1" stroke-miterlimit="1"/><path id="e0iU7SfhsEm47" d="M638.08075,443.63523C637.319603,443.635743,636.702623,444.252503,636.70184,445.01365L636.70184,514.46531C636.702629,515.226453,637.319607,515.843207,638.08075,515.84372L718.28875,515.84372C719.049559,515.842783,719.666008,515.226119,719.66668,514.46531L719.66668,445.01365C719.666013,444.252837,719.049562,443.636167,718.28875,443.63523Z" transform="matrix(1 0 0 1 -172.291 -144.612)" fill="rgb(230,230,230)" stroke="none" stroke-width="1" stroke-miterlimit="1"/><path id="e0iU7SfhsEm48" d="M765.92157,442.9072C765.160758,442.908137,764.544307,443.524807,764.54364,444.28562L764.54364,514.46531C764.544307,515.226121,765.160759,515.842788,765.92157,515.84372L846.96357,515.84372C847.724381,515.842788,848.340833,515.226121,848.3415,514.46531L848.3415,444.28562C848.340833,443.524807,847.724382,442.908137,846.96357,442.9072Z" transform="matrix(1 0 0 1 -172.291 -144.612)" fill="rgb(230,230,230)" stroke="none" stroke-width="1" stroke-miterlimit="1"/><path id="e0iU7SfhsEm49" d="M510.35614,550.333C508.784293,550.335944,507.511618,551.611005,507.511618,553.182855C507.511618,554.754705,508.784293,556.029766,510.35614,556.03271L586.00848,556.03271C587.580327,556.029766,588.853002,554.754705,588.853002,553.182855C588.853002,551.611005,587.580327,550.335944,586.00848,550.333Z" transform="matrix(1 0 0 1 -172.291 -144.612)" fill="rgb(230,230,230)" stroke="none" stroke-width="1" stroke-miterlimit="1"/><path id="e0iU7SfhsEm50" d="M510.35614,563.88865C508.78416,563.891595,507.511379,565.166763,507.511379,566.738745C507.511379,568.310727,508.78416,569.585895,510.35614,569.58884L544.41814,569.58884C545.99012,569.585895,547.262901,568.310727,547.262901,566.738745C547.262901,565.166763,545.99012,563.891595,544.41814,563.88865Z" transform="matrix(1 0 0 1 -172.291 -144.612)" fill="rgb(108,99,255)" stroke="none" stroke-width="1" stroke-miterlimit="1"/><path id="e0iU7SfhsEm51" d="M640.94012,550.333C639.368273,550.335944,638.095598,551.611005,638.095598,553.182855C638.095598,554.754705,639.368273,556.029766,640.94012,556.03271L716.59247,556.03271C718.164317,556.029766,719.436992,554.754705,719.436992,553.182855C719.436992,551.611005,718.164317,550.335944,716.59247,550.333Z" transform="matrix(1 0 0 1 -172.291 -144.612)" fill="rgb(230,230,230)" stroke="none" stroke-width="1" stroke-miterlimit="1"/><path id="e0iU7SfhsEm52" d="M640.94012,563.88865C639.36814,563.891595,638.095359,565.166763,638.095359,566.738745C638.095359,568.310727,639.36814,569.585895,640.94012,569.58884L675.00262,569.58884C676.5746,569.585895,677.847381,568.310727,677.847381,566.738745C677.847381,565.166763,676.5746,563.891595,675.00262,563.88865Z" transform="matrix(1 0 0 1 -172.291 -144.612)" fill="rgb(108,99,255)" stroke="none" stroke-width="1" stroke-miterlimit="1"/><path id="e0iU7SfhsEm53" d="M768.26044,550.333C766.688593,550.335944,765.415918,551.611005,765.415918,553.182855C765.415918,554.754705,766.688593,556.029766,768.26044,556.03271L843.91278,556.03271C845.484627,556.029766,846.757302,554.754705,846.757302,553.182855C846.757302,551.611005,845.484627,550.335944,843.91278,550.333Z" transform="matrix(1 0 0 1 -172.291 -144.612)" fill="rgb(230,230,230)" stroke="none" stroke-width="1" stroke-miterlimit="1"/><path id="e0iU7SfhsEm54" d="M510.35614,536.333C508.784293,536.335944,507.511618,537.611005,507.511618,539.182855C507.511618,540.754705,508.784293,542.029766,510.35614,542.03271L586.00848,542.03271C587.580327,542.029766,588.853002,540.754705,588.853002,539.182855C588.853002,537.611005,587.580327,536.335944,586.00848,536.333Z" transform="matrix(1 0 0 1 -172.291 -144.612)" fill="rgb(230,230,230)" stroke="none" stroke-width="1" stroke-miterlimit="1"/><path id="e0iU7SfhsEm55" d="M640.94012,536.333C639.368273,536.335944,638.095598,537.611005,638.095598,539.182855C638.095598,540.754705,639.368273,542.029766,640.94012,542.03271L716.59247,542.03271C718.164317,542.029766,719.436992,540.754705,719.436992,539.182855C719.436992,537.611005,718.164317,536.335944,716.59247,536.333Z" transform="matrix(1 0 0 1 -172.291 -144.612)" fill="rgb(230,230,230)" stroke="none" stroke-width="1" stroke-miterlimit="1"/><path id="e0iU7SfhsEm56" d="M768.26044,536.333C766.688593,536.335944,765.415918,537.611005,765.415918,539.182855C765.415918,540.754705,766.688593,542.029766,768.26044,542.03271L843.91278,542.03271C845.484627,542.029766,846.757302,540.754705,846.757302,539.182855C846.757302,537.611005,845.484627,536.335944,843.91278,536.333Z" transform="matrix(1 0 0 1 -172.291 -144.612)" fill="rgb(230,230,230)" stroke="none" stroke-width="1" stroke-miterlimit="1"/><path id="e0iU7SfhsEm57" d="M768.26044,563.88865C766.68846,563.891595,765.415679,565.166763,765.415679,566.738745C765.415679,568.310727,766.68846,569.585895,768.26044,569.58884L802.322,569.58884C803.89398,569.585895,805.166761,568.310727,805.166761,566.738745C805.166761,565.166763,803.89398,563.891595,802.322,563.88865Z" transform="matrix(1 0 0 1 -172.291 -144.612)" fill="rgb(108,99,255)" stroke="none" stroke-width="1" stroke-miterlimit="1"/></svg>