<svg xmlns="http://www.w3.org/2000/svg" viewBox="0 0 475 210"><defs><style>.a{fill:#75a928;}.b{fill:#bc1142;}</style></defs><title>integration-tile</title><path d="M111,71.57a1.86,1.86,0,0,0-1.11.45,2.55,2.55,0,0,0-2.86.27,2,2,0,0,0-2.14.61,3.36,3.36,0,0,0-3.09.93c-2.27-.27-2.93,1.3-2.14,2.77a1.91,1.91,0,0,0,.1,2.7l0,0a2.27,2.27,0,0,0,.75,2.52,2.14,2.14,0,0,0,1,2.27,3,3,0,0,0,1.75,2.57,2.46,2.46,0,0,0,2.27,2.07,2.46,2.46,0,0,0,2.27,1.73,10.57,10.57,0,0,0-6.07,10.62l-.43.77a10.25,10.25,0,0,0-1.82,15.37,28.76,28.76,0,0,0,1.41,4.55,11.37,11.37,0,0,0,7,9.09,23.69,23.69,0,0,0,6.82,3.82,11.14,11.14,0,0,0,8.25,3.71h.14a11.14,11.14,0,0,0,8.25-3.71,23.69,23.69,0,0,0,6.82-3.82,11.37,11.37,0,0,0,7-9.09,28.76,28.76,0,0,0,1.41-4.55,10.25,10.25,0,0,0-1.82-15.37l-.73-.77a10.59,10.59,0,0,0-6-10.46,2.46,2.46,0,0,0,2.27-1.73,2.46,2.46,0,0,0,2.27-2.07,3,3,0,0,0,1.75-2.57,2.14,2.14,0,0,0,1-2.27,2.27,2.27,0,0,0,.75-2.52,1.91,1.91,0,0,0,.17-2.7l0,0c.8-1.45,0-3-2.14-2.77a3.36,3.36,0,0,0-3.21-1.09A2,2,0,0,0,139,72.3a2.55,2.55,0,0,0-2.86-.27,2.48,2.48,0,0,0-2.91.11,2.59,2.59,0,0,0-2.5.43,2.57,2.57,0,0,0-2.82,1.27H127a10.07,10.07,0,0,0-4,5.75,10.07,10.07,0,0,0-4-5.89h-.89a2.57,2.57,0,0,0-2.82-1.14,2.59,2.59,0,0,0-2.55-.43,5.52,5.52,0,0,0-1.75-.57Z"/><path class="a" d="M106.26,77.78a42.9,42.9,0,0,1,12,8.16c-1,4.14-6.43,4.34-8.41,4.23a1.48,1.48,0,0,0,.86-.75,22.73,22.73,0,0,1-3.48-.73,1.16,1.16,0,0,0,.93-.55,10,10,0,0,1-3.14-1.3,1.77,1.77,0,0,0,1.25-.27,12.14,12.14,0,0,1-3-1.86,2.27,2.27,0,0,0,1.27-.2,11.57,11.57,0,0,1-2.41-2,1.77,1.77,0,0,0,1.25-.11,9.64,9.64,0,0,1-2.07-2.27,1.52,1.52,0,0,0,1.43,0,12.28,12.28,0,0,1-1.89-2.27,3,3,0,0,0,1.34,0,6.34,6.34,0,0,0-1.2-2.27,21.39,21.39,0,0,0,3.07,0l-.75-.91a6.14,6.14,0,0,1,3.39.34c.41-.32,0-.73-.5-1.14a12.32,12.32,0,0,1,2.84.7c.43-.41-.32-.77-.68-1.23a7.25,7.25,0,0,1,3,1.16c.5-.48,0-.86-.3-1.27a7.27,7.27,0,0,1,2.5,1.61.89.89,0,0,0,.16-1.24l0,0a6.34,6.34,0,0,1,2,1.73,1.11,1.11,0,0,0,.32-1.23,19.87,19.87,0,0,1,2.27,2.27,1.91,1.91,0,0,0,.36-1c2.14,2.07,5.16,7.3.77,9.37a41.19,41.19,0,0,0-13.21-7Z"/><path class="a" d="M139.91,77.78a42.9,42.9,0,0,0-12,8.16c1,4.14,6.43,4.34,8.41,4.23a1.48,1.48,0,0,1-.77-.77,22.73,22.73,0,0,0,3.48-.73,1.16,1.16,0,0,1-.91-.55,10,10,0,0,0,3.14-1.3,1.77,1.77,0,0,1-1.27-.27,12.14,12.14,0,0,0,3-1.86,2.27,2.27,0,0,1-1.27-.2,11.57,11.57,0,0,0,2.41-2,1.77,1.77,0,0,1-1.25-.11,9.64,9.64,0,0,0,2.07-2.27,1.52,1.52,0,0,1-1.43,0,12.28,12.28,0,0,0,1.89-2.27,3,3,0,0,1-1.34,0,6.34,6.34,0,0,1,1.2-2.27,21.39,21.39,0,0,1-3.07,0l.77-.8a6.14,6.14,0,0,0-3.39.34c-.41-.32,0-.73.5-1.14a12.32,12.32,0,0,0-2.84.7c-.55-.5.2-.86.59-1.32a7.25,7.25,0,0,0-3,1.16c-.5-.48,0-.86.3-1.27a7.27,7.27,0,0,0-2.5,1.61.89.89,0,0,1-.18-1.24l0,0a6.34,6.34,0,0,0-2,1.73,1.11,1.11,0,0,1-.32-1.23,19.87,19.87,0,0,0-2.27,2.27,1.91,1.91,0,0,1-.36-1c-2.14,2.07-5.16,7.3-.77,9.37a41.15,41.15,0,0,1,13.12-7h.09Z"/><path class="b" d="M130.77,120a7.62,7.62,0,0,1-15.19.07h0a7.62,7.62,0,0,1,15.19-.07Z"/><path class="b" d="M118.76,100a8.15,8.15,0,0,1-8.87,13.41h0A8.15,8.15,0,0,1,118.76,100Z"/><path class="b" d="M127.27,99.6A8.15,8.15,0,0,0,136.13,113h0a8.15,8.15,0,0,0-8.87-13.41Z"/><path class="b" d="M103,103.4c3.41-.91,1.14,14.07-1.61,12.84A8.09,8.09,0,0,1,103,103.4Z"/><path class="b" d="M142.32,103.17c-3.41-.91-1.14,14.07,1.61,12.84a8.09,8.09,0,0,0-1.61-12.84Z"/><path class="b" d="M130.77,92c5.87-1,10.75,2.5,10.55,8.87C141.13,103.4,128.68,92.37,130.77,92Z"/><path class="b" d="M114.56,91.83c-5.87-1-10.75,2.5-10.55,8.87.18,2.43,12.71-8.5,10.55-8.87Z"/><path class="b" d="M123,90.35c-3.5,0-6.82,2.59-6.82,4.16s2.77,3.84,6.82,3.89,6.82-1.55,6.82-3.5-3.84-4.55-6.93-4.55H123Z"/><path class="b" d="M123.2,129.22c3-.14,7.14,1,7.16,2.46s-3.71,4.68-7.37,4.55-7.48-3.09-7.43-4.23c0-1.66,4.55-3,7.64-2.86h0Z"/><path class="b" d="M111.92,120.45c2.27,2.61,3.16,7.23,1.34,8.57s-5.89.61-8.84-3.64c-2-3.59-1.73-7.21-.32-8.34,2.09-1.27,5.34.45,7.84,3.34h0Z"/><path class="b" d="M134,119.61c-2.27,2.75-3.66,7.77-2,9.39,1.64,1.25,6,1.09,9.3-3.43a8.64,8.64,0,0,0,.23-9.43c-2-1.55-4.89.43-7.57,3.48Z"/><path d="M172.44,93.74a17.25,17.25,0,0,1,1.84.43,8.69,8.69,0,0,1,3.21,14.69l-.23.2h0a7,7,0,0,1,1.93,2.43,7.91,7.91,0,0,1,.77,3.3,19.45,19.45,0,0,0,.14,2.27.59.59,0,0,0,.27.39,2.18,2.18,0,0,1-1,4.16,3.32,3.32,0,0,1-3.21-2.14,9.46,9.46,0,0,1-.68-3.21,12,12,0,0,0-.11-2,3.68,3.68,0,0,0-2.27-2.73,5,5,0,0,0-2.5-.59h-3.91v8.68a2.21,2.21,0,0,1-4.36.55h0V95.51a2.55,2.55,0,0,1,1.77-1.77h8.34Zm-5.82,8.68v3.77c0,.36,0,.48.45.48h4.39a4.87,4.87,0,0,0,1.09-.11,4.16,4.16,0,0,0,3.27-4.55,4.25,4.25,0,0,0-4.23-3.73h-4.55c-.36,0-.41.14-.41.43,0,1.2,0,2.41,0,3.73Z"/><path d="M254.23,93.74a2.27,2.27,0,0,1,1.71,1.57,4.11,4.11,0,0,1,.11,1v7.21a9.71,9.71,0,0,1,13.25,2.27,10.37,10.37,0,0,1,0,12.41,9.93,9.93,0,0,1-3.77,3.11,9.41,9.41,0,0,1-4.89.82,10.48,10.48,0,0,1-4.55-1.66,2.21,2.21,0,0,1-4.35-.27V96.49a2.5,2.5,0,0,1,1.8-2.73h.84ZM267,111.92a6.5,6.5,0,0,0-.25-1.45,5.46,5.46,0,0,0-6.55-4A5.84,5.84,0,0,0,256.8,115a5.39,5.39,0,0,0,5.62,2.75,5.73,5.73,0,0,0,4.59-5.8Z"/><path d="M228.43,129.86a8.39,8.39,0,0,1-1.14-.82,1.93,1.93,0,0,1-.5-1.43V104.15a2.23,2.23,0,0,1,4.34-.82v.11a9.87,9.87,0,0,1,9.09-1,9.66,9.66,0,0,1,4.73,4,10.28,10.28,0,0,1-.84,12.21A9.43,9.43,0,0,1,238,122a9.66,9.66,0,0,1-6.82-1.55v7a2.27,2.27,0,0,1-1.64,2.27h-1.16Zm13.64-17.78a6.27,6.27,0,0,0-.93-3.23,5.27,5.27,0,0,0-8-1.25,6.16,6.16,0,0,0-.41,8.55,5.23,5.23,0,0,0,5.23,1.52,5.68,5.68,0,0,0,4.14-5.57Z"/><path d="M362.7,93.74a16.75,16.75,0,0,1,1.84.43,8.46,8.46,0,0,1,6,7.39,8.62,8.62,0,0,1-7.14,9.46,10.87,10.87,0,0,1-1.59.16h-5V120a2.24,2.24,0,1,1-4.48,0V96A2.27,2.27,0,0,1,354,93.87h8.68Zm-5.82,8.66v3.89c0,.23,0,.39.3.36h5.32a4,4,0,0,0,3.64-4.14,4.23,4.23,0,0,0-4.25-4.18h-4.55c-.34,0-.39.11-.39.41-.07,1.16-.07,2.39-.07,3.68Z"/><path d="M378.09,120.13a.76.76,0,0,1-.14.52,2.27,2.27,0,0,1-4.3-.59V104.15a2.27,2.27,0,0,1,4.34-.23.5.5,0,0,0,0,.14v16.07Z"/><path d="M378.09,96.87a7.12,7.12,0,0,1-.25.86,2.17,2.17,0,0,1-4.16-.84,7.23,7.23,0,0,1,0-1.48,2.27,2.27,0,0,1,1.75-1.68h.84a2.27,2.27,0,0,1,1.57,1.32,2.82,2.82,0,0,0,.23.8v1Z"/><path d="M340.67,121.4a24,24,0,0,1-2.68.68,8,8,0,0,1-6.82-2.27,8.43,8.43,0,0,1-2.73-6.43V104A2.27,2.27,0,0,1,330,101.9a2.07,2.07,0,0,1,2.41,1,3.32,3.32,0,0,1,.27,1.34v9.34a4.09,4.09,0,0,0,2.84,4,4.25,4.25,0,0,0,4.68-1.66,4,4,0,0,0,.7-2.27V104.1a2.14,2.14,0,0,1,1.5-2.16,2.27,2.27,0,0,1,2.5,1,2.48,2.48,0,0,1,.27,1.11v15.53a9.64,9.64,0,0,1-13.87,8.55,2.09,2.09,0,0,1,.77-4,2.43,2.43,0,0,1,1.09.25,5.37,5.37,0,0,0,7.14-2.55Z"/><path d="M198.54,103.62a7.21,7.21,0,0,1,.61-1,2,2,0,0,1,2.27-.66,2.27,2.27,0,0,1,1.48,2v.2q0,7.87,0,15.73a2.14,2.14,0,0,1-1.89,2.27,2.11,2.11,0,0,1-2.14-1.11c0-.18-.18-.36-.27-.59a9.46,9.46,0,0,1-14.44-4.77,10.3,10.3,0,0,1,1.34-10.07,9.09,9.09,0,0,1,8.73-3.75,8.8,8.8,0,0,1,3.86,1.45Zm-10.75,8.87a11.82,11.82,0,0,0,.27,1.57,5,5,0,0,0,3.82,3.66,5.09,5.09,0,0,0,5-1.48,6.3,6.3,0,0,0,0-8.3,5.14,5.14,0,0,0-6.66-.84A6.07,6.07,0,0,0,187.78,112.49Z"/><path d="M279.67,113.54a5.23,5.23,0,0,0,2.64,3.66,6.62,6.62,0,0,0,6.18.23,3.82,3.82,0,0,0,.84-.55,2.07,2.07,0,0,1,3.43,1.16,1.57,1.57,0,0,1-.55,1.52,10.26,10.26,0,1,1-10.64-17.12,9.71,9.71,0,0,1,13,7.59,8.61,8.61,0,0,1,.16,1.14,2,2,0,0,1-2.27,2.27H279.67ZM291,110.06a6.52,6.52,0,0,0-6.37-4.39,5.52,5.52,0,0,0-5.16,4.27h11.37Z"/><path d="M215.27,101.87a9.28,9.28,0,0,1,4.8,1.39c.45.27.89.55,1.32.84a2.18,2.18,0,0,1-2.5,3.57,9.09,9.09,0,0,0-2.77-1.39,4.11,4.11,0,0,0-3.41.64,1.93,1.93,0,0,0-.34.32.75.75,0,0,0,.16,1.27,7,7,0,0,0,2.55.93,17,17,0,0,1,5.09,1.68A5.39,5.39,0,0,1,223,115.2a5.32,5.32,0,0,1-1.57,4.55,7.93,7.93,0,0,1-4.55,2.27,11,11,0,0,1-9.09-2.73,2.27,2.27,0,0,1-.3-2.82,2.11,2.11,0,0,1,2.91-.68l.07,0a4,4,0,0,1,.52.36,7.39,7.39,0,0,0,4,1.68,5.16,5.16,0,0,0,3-.68,1.91,1.91,0,0,0,.45-.39,1,1,0,0,0-.23-1.8,10.18,10.18,0,0,0-3.57-1.2,11.89,11.89,0,0,1-4.39-1.64,5.14,5.14,0,0,1-.59-8.23,7.68,7.68,0,0,1,4.55-2Z"/><path d="M302.84,104.19a7.34,7.34,0,0,1,3.77-2,10.59,10.59,0,0,1,2.27-.23,2,2,0,0,1,1.91,2.09,2.11,2.11,0,0,1-1.91,2.11,5.09,5.09,0,0,0-4.21,2.27,12,12,0,0,0-1.75,3.16,4.32,4.32,0,0,0-.3,1.55v6.93a2.27,2.27,0,0,1-4.3.57,2.64,2.64,0,0,1,0-.66V104.08a2.09,2.09,0,0,1,1.59-2.16,2.27,2.27,0,0,1,2.46,1A6.82,6.82,0,0,1,302.84,104.19Z"/><path d="M318.59,104.26a7.77,7.77,0,0,1,4.3-2.27,7.07,7.07,0,0,1,2.27,0,2,2,0,0,1,1.5,2.11,2.14,2.14,0,0,1-2.07,2,5,5,0,0,0-4,2.27,11.37,11.37,0,0,0-1.84,3.43,3.21,3.21,0,0,0-.16,1v7a2.27,2.27,0,0,1-2,2.39,2.11,2.11,0,0,1-2.4-1.79V103.76a1.82,1.82,0,0,1,1.23-1.68,2.27,2.27,0,0,1,3.18,2.18Z"/></svg>